<svg xmlns="http://www.w3.org/2000/svg" width="152.443" height="152.444" viewBox="0 0 152.443 152.444">
  <g id="Grupo_4791" data-name="Grupo 4791" transform="translate(-640.391 -861.934)">
    <path id="Trazado_1849" data-name="Trazado 1849" d="M6867.046,5651.357q3.746,0,7.471.367t7.4,1.1q3.674.731,7.256,1.817t7.043,2.52q3.459,1.434,6.762,3.2t6.416,3.845q3.112,2.08,6.008,4.456t5.542,5.023q2.648,2.647,5.023,5.542t4.456,6.008q2.081,3.114,3.846,6.416t3.2,6.762q1.433,3.458,2.52,7.043t1.817,7.256q.73,3.672,1.1,7.4t.367,7.471q0,3.744-.367,7.471t-1.1,7.4q-.731,3.672-1.817,7.256t-2.52,7.043q-1.432,3.459-3.2,6.762t-3.846,6.415q-2.08,3.114-4.456,6.008t-5.023,5.542q-2.647,2.649-5.542,5.024t-6.008,4.456q-3.114,2.08-6.416,3.845t-6.762,3.2q-3.458,1.434-7.043,2.52t-7.256,1.818q-3.672.731-7.4,1.1t-7.471.368q-3.744,0-7.471-.368t-7.4-1.1q-3.672-.73-7.256-1.818t-7.042-2.52q-3.461-1.433-6.762-3.2t-6.416-3.845q-3.114-2.081-6.008-4.456t-5.542-5.024q-2.649-2.646-5.024-5.542t-4.456-6.008q-2.079-3.112-3.845-6.415t-3.2-6.762q-1.433-3.461-2.52-7.043t-1.818-7.256q-.731-3.672-1.1-7.4t-.367-7.471q0-3.744.367-7.471t1.1-7.4q.73-3.674,1.818-7.256t2.52-7.043q1.433-3.459,3.2-6.762t3.845-6.416q2.081-3.112,4.456-6.008t5.024-5.542q2.648-2.648,5.542-5.023t6.008-4.456q3.114-2.081,6.416-3.845t6.762-3.2q3.459-1.433,7.042-2.52t7.256-1.817q3.674-.73,7.4-1.1T6867.046,5651.357Z" transform="translate(-6150.434 -4789.423)" fill="#a3bd31"/>
    <circle id="Elipse_107" data-name="Elipse 107" cx="71.597" cy="71.597" r="71.597" transform="translate(645.636 867.18)" fill="#fff"/>
    <g id="Grupo_1121" data-name="Grupo 1121" transform="translate(-6150.434 -4789.423)" opacity="0.2">
      <ellipse id="Elipse_109" data-name="Elipse 109" cx="65.13" cy="65.352" rx="65.13" ry="65.352" transform="translate(6802.537 5662.626)" fill="#f7ec45"/>
    </g>
    <g id="Grupo_1130" data-name="Grupo 1130" transform="translate(-6150.434 -4789.423)">
      <path id="Trazado_1863" data-name="Trazado 1863" d="M6868.054,5695.057a57.087,57.087,0,0,1,.942,8.856,11.245,11.245,0,0,1-2.555,7.114,6.86,6.86,0,0,0-1.438,5.123l.1.847a2.244,2.244,0,0,0,1.6,1.9l8.761,2.544" fill="none" stroke="#0f231a" stroke-linecap="round" stroke-linejoin="round" stroke-width="3" opacity="0.9"/>
      <path id="Trazado_1864" data-name="Trazado 1864" d="M6856.593,5674.744c6.014,0,12.315,3.345,14.833,8.973a26.714,26.714,0,0,1,1.873,7.889c.442,3.8.636,7.417,2.457,10.845a8.208,8.208,0,0,0,6.586,4.648,12.148,12.148,0,0,1-12.5,5.28" fill="none" stroke="#0f231a" stroke-linecap="round" stroke-linejoin="round" stroke-width="3" opacity="0.9"/>
      <path id="Trazado_1865" data-name="Trazado 1865" d="M6856.593,5674.744c-6.015,0-12.316,3.345-14.834,8.973a26.729,26.729,0,0,0-1.873,7.889c-.442,3.8-.636,7.417-2.457,10.845a8.208,8.208,0,0,1-6.586,4.648,12.148,12.148,0,0,0,12.5,5.28" fill="none" stroke="#0f231a" stroke-linecap="round" stroke-linejoin="round" stroke-width="3" opacity="0.9"/>
      <path id="Trazado_1866" data-name="Trazado 1866" d="M6847.108,5718.6l9.485,7.081,9.484-7.081" fill="none" stroke="#0f231a" stroke-linecap="round" stroke-linejoin="round" stroke-width="3" opacity="0.9"/>
      <path id="Trazado_1867" data-name="Trazado 1867" d="M6868.058,5694.942a8.9,8.9,0,0,1-7.725-2.539c-1.207-1.245-2.016-2.818-3.107-4.165l-.033-.041a5.493,5.493,0,0,0-6.465-1.486h0a9.15,9.15,0,0,0-5.317,6.742,64.8,64.8,0,0,0-1.222,10.46,11.253,11.253,0,0,0,2.445,6.976,7.152,7.152,0,0,1,1.547,5.261l-.1.847a2.244,2.244,0,0,1-1.6,1.9l-10.3,2.99a9.712,9.712,0,0,0-3.993,2.1,11.886,11.886,0,0,0-4.074,6.812v22.418a13.27,13.27,0,0,0,13.269,13.27H6893.8" fill="none" stroke="#0f231a" stroke-linecap="round" stroke-linejoin="round" stroke-width="3" opacity="0.9"/>
      <line id="Línea_659" data-name="Línea 659" y1="7.506" transform="translate(6893.662 5706.991)" fill="none" stroke="#0f231a" stroke-linecap="round" stroke-linejoin="round" stroke-width="3" opacity="0.9"/>
      <line id="Línea_660" data-name="Línea 660" y1="6.863" x2="3.579" transform="translate(6899.579 5707.634)" fill="none" stroke="#0f231a" stroke-linecap="round" stroke-linejoin="round" stroke-width="3" opacity="0.9"/>
      <line id="Línea_661" data-name="Línea 661" x1="1.957" y1="3.753" transform="translate(6885.788 5710.744)" fill="none" stroke="#0f231a" stroke-linecap="round" stroke-linejoin="round" stroke-width="3" opacity="0.9"/>
      <path id="Trazado_1868" data-name="Trazado 1868" d="M6870.384,5743.064a23.414,23.414,0,1,1,23.414,23.414" fill="none" stroke="#0f231a" stroke-linecap="round" stroke-linejoin="round" stroke-width="3" opacity="0.9"/>
      <line id="Línea_662" data-name="Línea 662" y2="27.559" transform="translate(6856.593 5725.679)" fill="none" stroke="#0f231a" stroke-linecap="round" stroke-linejoin="round" stroke-width="3" opacity="0.9"/>
      <path id="Trazado_1869" data-name="Trazado 1869" d="M6837.356,5725.932l-.133.039-.136.03a5.783,5.783,0,0,0-2.221,1.235,7.653,7.653,0,0,0-2.535,4.019v21.953a9.062,9.062,0,0,0,9.052,9.052h3.137a17.372,17.372,0,0,1-1.674-1.906,20.383,20.383,0,0,1-3.564-9.15,60.813,60.813,0,0,1-.451-9.9c.023-2.6.068-5.291,1.206-7.624a11.815,11.815,0,0,1,7.123-5.656,22.806,22.806,0,0,1,4.31-.91l-5.1-3.8Z" fill="#efc33b"/>
      <line id="Línea_663" data-name="Línea 663" y2="21.635" transform="translate(6893.662 5732.247)" fill="none" stroke="#0f231a" stroke-linecap="round" stroke-linejoin="round" stroke-width="3" opacity="0.9"/>
      <line id="Línea_664" data-name="Línea 664" x2="21.635" transform="translate(6882.845 5743.064)" fill="none" stroke="#0f231a" stroke-linecap="round" stroke-linejoin="round" stroke-width="3" opacity="0.9"/>
    </g>
  </g>
</svg>
