<svg xmlns="http://www.w3.org/2000/svg" xmlns:xlink="http://www.w3.org/1999/xlink" width="152.443" height="152.443" viewBox="0 0 152.443 152.443">
  <defs>
    <clipPath id="clip-path">
      <circle id="Elipse_199" data-name="Elipse 199" cx="65.13" cy="65.13" r="65.13" transform="translate(5263.728 987.52)" fill="none"/>
    </clipPath>
  </defs>
  <g id="Grupo_4784" data-name="Grupo 4784" transform="translate(-650.073 -975.832)">
    <path id="Trazado_2692" data-name="Trazado 2692" d="M5328.858,976.429q3.744,0,7.471.367t7.4,1.1q3.673.729,7.256,1.817t7.043,2.52q3.459,1.432,6.762,3.2t6.415,3.845q3.114,2.081,6.008,4.456t5.543,5.023q2.648,2.649,5.023,5.543t4.456,6.008q2.081,3.113,3.845,6.416t3.2,6.762q1.433,3.459,2.519,7.042t1.818,7.256q.73,3.673,1.1,7.4t.367,7.471q0,3.745-.367,7.471t-1.1,7.4q-.731,3.673-1.818,7.256t-2.519,7.043q-1.434,3.459-3.2,6.762t-3.845,6.416q-2.08,3.113-4.456,6.008t-5.023,5.542q-2.647,2.648-5.543,5.023t-6.008,4.456q-3.113,2.08-6.415,3.846t-6.762,3.2q-3.46,1.433-7.043,2.52t-7.256,1.817q-3.672.731-7.4,1.1t-7.471.367q-3.744,0-7.471-.367t-7.4-1.1q-3.673-.73-7.256-1.817t-7.043-2.52q-3.459-1.434-6.762-3.2t-6.415-3.846q-3.114-2.08-6.008-4.456t-5.543-5.023q-2.648-2.648-5.023-5.542t-4.456-6.008q-2.08-3.114-3.845-6.416t-3.2-6.762q-1.434-3.459-2.52-7.043t-1.818-7.256q-.731-3.672-1.1-7.4t-.367-7.471q0-3.744.367-7.471t1.1-7.4q.73-3.672,1.818-7.256t2.52-7.042q1.433-3.461,3.2-6.762t3.845-6.416q2.081-3.114,4.456-6.008t5.023-5.543q2.648-2.648,5.543-5.023t6.008-4.456q3.112-2.079,6.415-3.845t6.762-3.2q3.461-1.434,7.043-2.52t7.256-1.817q3.672-.732,7.4-1.1T5328.858,976.429Z" transform="translate(-4602.564 -0.597)" fill="#a3bd31"/>
    <circle id="Elipse_194" data-name="Elipse 194" cx="71.597" cy="71.597" r="71.597" transform="translate(654.697 980.457)" fill="#fff"/>
    <g id="Grupo_1848" data-name="Grupo 1848" transform="translate(-4602.564 -0.597)">
      <g id="Grupo_1847" data-name="Grupo 1847" clip-path="url(#clip-path)">
        <g id="Grupo_1846" data-name="Grupo 1846">
          <g id="Grupo_1837" data-name="Grupo 1837">
            <path id="Trazado_2984" data-name="Trazado 2984" d="M5377.941,1021.16h-42.187c-2.9,0-5.259,2.005-5.259,4.48v10.682c0,2.474,2.355,4.48,5.259,4.48h42.187c2.9,0,5.258-2.006,5.258-4.48V1025.64C5383.2,1023.165,5380.844,1021.16,5377.941,1021.16Z" fill="#b1a96a"/>
            <path id="Trazado_2985" data-name="Trazado 2985" d="M5377.993,1048.058v-12.344a5.258,5.258,0,0,0-5.258-5.257h-31.671a5.256,5.256,0,0,0-5.257,5.257V1048.3l.007.007c0,.676.869.626.869.626v44.255a5.258,5.258,0,0,0,5.258,5.258h11.5a5.237,5.237,0,0,1,6.476,0h11.5a5.258,5.258,0,0,0,5.257-5.258v-44.255h.557l0,0a.783.783,0,0,0,.747-.624l.008-.007v-.067c0-.029.009-.056.009-.085S5378,1048.086,5377.993,1048.058Z" fill="#5a5944"/>
            <path id="Trazado_2986" data-name="Trazado 2986" d="M5357.83,1037.729h-5.242v9.348h9.249v-9.348Z" fill="#7c5e3e"/>
            <path id="Trazado_2987" data-name="Trazado 2987" d="M5365,1025.969a4.755,4.755,0,1,0,5.576-3.984A4.847,4.847,0,0,0,5365,1025.969Z" fill="#7c5e3e"/>
            <path id="Trazado_2988" data-name="Trazado 2988" d="M5349.063,1025.969a4.755,4.755,0,1,1-5.576-3.984A4.847,4.847,0,0,1,5349.063,1025.969Z" fill="#7c5e3e"/>
            <path id="Trazado_2989" data-name="Trazado 2989" d="M5368.593,1010.286a12.853,12.853,0,0,0-9.527-4.938l-.194-.007,0-.139-1.844.07-1.844-.07,0,.139-.194.007a12.851,12.851,0,0,0-9.526,4.938c-2.263,2.9-2.563,6.549-2.385,10.045.135,2.641.631,6.906.77,9.548,0,6.471,5.532,10.039,10.79,10.039l1.522.026v.029l.862-.014.862.014v-.029l1.522-.026c5.258,0,10.79-3.568,10.79-10.039.139-2.642.635-6.907.77-9.548C5371.154,1016.835,5370.855,1013.184,5368.593,1010.286Z" fill="#7c5e3e"/>
            <path id="Trazado_2990" data-name="Trazado 2990" d="M5351.313,1025.434a1.584,1.584,0,1,1-1.561-1.853A1.725,1.725,0,0,1,5351.313,1025.434Z" fill="#311f11"/>
            <path id="Trazado_2991" data-name="Trazado 2991" d="M5365.518,1025.434a1.584,1.584,0,1,1-1.561-1.853A1.726,1.726,0,0,1,5365.518,1025.434Z" fill="#311f11"/>
            <path id="Trazado_2992" data-name="Trazado 2992" d="M5347.536,1022.833a.521.521,0,0,1-.346-.892,4.534,4.534,0,0,1,5.053-.286.52.52,0,1,1-.621.835,3.506,3.506,0,0,0-3.7.194A.518.518,0,0,1,5347.536,1022.833Z" fill="#311f11"/>
            <path id="Trazado_2993" data-name="Trazado 2993" d="M5366.246,1022.953a.518.518,0,0,1-.377-.161c-.8-.838-2.7-.814-3.838.046a.52.52,0,1,1-.627-.83c1.569-1.186,4.057-1.154,5.219.066a.521.521,0,0,1-.377.879Z" fill="#311f11"/>
            <path id="Trazado_2994" data-name="Trazado 2994" d="M5355.954,1031.76l-.038,0a.521.521,0,0,1-.482-.557c.068-.936.172-4.619.172-5.745a.521.521,0,0,1,1.042,0c0,1.169-.1,4.844-.176,5.821A.52.52,0,0,1,5355.954,1031.76Z" fill="#573d22"/>
            <path id="Trazado_2995" data-name="Trazado 2995" d="M5356.876,1035.853a5.533,5.533,0,0,1-3.775-1.236.521.521,0,1,1,.732-.741,5.035,5.035,0,0,0,3.954.871,2.834,2.834,0,0,0,2.1-1.093.521.521,0,0,1,.918.491,3.716,3.716,0,0,1-2.865,1.631A7.079,7.079,0,0,1,5356.876,1035.853Z" fill="#573d22"/>
            <path id="Trazado_2996" data-name="Trazado 2996" d="M5373.771,1017.268c-.137-2.495-1.14-6.959-2.642-8.973-4.838-6.488-12.907-6.552-14.091-6.523-1.182-.029-9.251.035-14.09,6.523-1.5,2.014-2.5,6.478-2.641,8.973-.422,7.668-1.268,10.118-1.268,10.118,4.172-6.562,5.925-7.983,8.032-8.4,1.982-.4,9.645-.816,9.881-.819h.174c.235,0,7.9.421,9.881.819,2.106.422,3.859,1.843,8.031,8.4C5375.038,1027.386,5374.192,1024.936,5373.771,1017.268Z" fill="#858454"/>
            <path id="Trazado_2997" data-name="Trazado 2997" d="M5344.485,1010.153a.439.439,0,0,0-.458-.014,18.146,18.146,0,0,0-3.512,2.627.45.45,0,0,0-.112.22l-.594,3.163a.438.438,0,0,0,.232.472.449.449,0,0,0,.2.047.44.44,0,0,0,.321-.14,13.261,13.261,0,0,1,4.278-3.047c.719-.249,1.116-.636,1.179-1.151C5346.145,1011.3,5344.763,1010.336,5344.485,1010.153Z" fill="#3f3f33"/>
            <path id="Trazado_2998" data-name="Trazado 2998" d="M5375.409,1026.424a8.265,8.265,0,0,1-1.662-2.624c-1.332-3.139-2.845-4.828-5.219-5.829-1.8-.76-8.582-.885-11.461-.9h-.1c-2.9.019-9.62.146-11.415.9-2.375,1-3.887,2.69-5.22,5.829a8.247,8.247,0,0,1-1.661,2.623,1.1,1.1,0,0,0,.524,2.059,1.085,1.085,0,0,0,.522-.134,6.865,6.865,0,0,0,2.13-2.654c.44,3.155,1.638,7.77,4.89,11.1a12.852,12.852,0,0,0,4.978,3.174c.57,1,2.735,1.951,5.325,1.951s4.757-.955,5.327-1.951a12.854,12.854,0,0,0,4.977-3.174c3.253-3.33,4.45-7.946,4.89-11.1a6.866,6.866,0,0,0,2.131,2.655,1.072,1.072,0,0,0,.516.132,1.1,1.1,0,0,0,.53-2.056Zm-9.321,9.145a11.206,11.206,0,0,1-4.95,2.95,52.578,52.578,0,0,0-8.2,0,11.213,11.213,0,0,1-4.945-2.944c-4.124-4.216-4.592-11.051-4.642-12.9a6.2,6.2,0,0,1,3.049-2.688c.944-.4,5.316-.7,10.636-.732,5.322.033,9.694.334,10.638.732a6.2,6.2,0,0,1,3.049,2.688C5370.678,1024.522,5370.218,1031.341,5366.088,1035.569Z" fill="#3f3f33"/>
            <path id="Trazado_2999" data-name="Trazado 2999" d="M5344.792,1015.184a1.343,1.343,0,0,0-.255-.23,1.382,1.382,0,0,0-.187-1.406.975.975,0,0,0-1.336-.285c-.077-.128-.13-.206-.13-.206-.838-1.05-2.36.229-2.36.229a88.26,88.26,0,0,1-7.6,4.687,24.884,24.884,0,0,0-4.289,3.106c.3,2.412,1.6,2.536,2.543,4.768.08-.005.15-.009.207-.011a2.416,2.416,0,0,0,.9-.287c-.2.3-.281.574-.16.765a1.6,1.6,0,0,0,2.214.18l7.25-4.243a1.6,1.6,0,0,0,.79-2.075,1.02,1.02,0,0,0-.267-.274l1.788-1.516C5344.919,1017.514,5345.447,1015.945,5344.792,1015.184Z" fill="#7c5e3e"/>
            <path id="Trazado_3000" data-name="Trazado 3000" d="M5380.71,1113.31a.99.99,0,0,0,1.935.211c.056-.305-.164-3.289.15-3.3a1.411,1.411,0,0,1,.823.385c1.068.85.343,5.862.695,6.628,1.019,2.22,4-.9,5.165-4.158,1.19-3.312.626-8.88.626-8.88l-8.459,1.687c-.866.1-1.562,1.029-1.372,2.817Z" fill="#7c5e3e"/>
            <path id="Trazado_3001" data-name="Trazado 3001" d="M5387.275,1116.779a35.676,35.676,0,0,0,.02-5.23.414.414,0,1,0-.826.053,32.1,32.1,0,0,1-.085,5.747,2.194,2.194,0,0,1-.053.258A6.577,6.577,0,0,0,5387.275,1116.779Z" fill="#573d22"/>
            <path id="Trazado_3002" data-name="Trazado 3002" d="M5344.244,1170.677s-2.681,1.177-5.749,2.565-2.618,4.382-1.43,4.348l14.348-.367a10.109,10.109,0,0,0,2.7-.118l.211-13.868h-9.985Z" fill="#534e43"/>
            <path id="Rect치ngulo_891" data-name="Rect치ngulo 891" d="M.5,0H17.819a.5.5,0,0,1,.5.5V.909a.5.5,0,0,1-.5.5H.5a.5.5,0,0,1-.5-.5V.5A.5.5,0,0,1,.5,0Z" transform="translate(5336.091 1177.105)" fill="#3c3441"/>
            <g id="Grupo_1835" data-name="Grupo 1835">
              <path id="Trazado_3003" data-name="Trazado 3003" d="M5376.9,1139.919a58.369,58.369,0,0,0-.267-8.512,76.8,76.8,0,0,0-1.085-7.8.946.946,0,0,0-1.019-.863l-.18.016c-1.064-9.805-2.429-17.551-2.429-17.551h-29.392s-.225,7.635-.467,17.553l-.069,0a.946.946,0,0,0-.974.915,44.464,44.464,0,0,0-.674,7.581c-.118,5.042.165,8.779.165,8.779a.945.945,0,0,0,.915.974l.228.007c-.52,22.786-.63,22.67,8.158,22.67,7.741,0,7.011-.447,6.573-28.125-.243-15.344-.529-29.476-.529-29.476h2.74s.864,16.566,1.7,31.74c1.57,28.627.389,25.484,10.794,25.633,7.032.1,6.016.894,4.617-22.491l.337-.028A.942.942,0,0,0,5376.9,1139.919Z" fill="#8b8b58"/>
              <path id="Trazado_3004" data-name="Trazado 3004" d="M5387.276,1084.145c-.822-4.6-1.573-8.535-2.254-11.9a.75.75,0,0,0,.424-.829,46.548,46.548,0,0,0-1-6.69,60.855,60.855,0,0,0-1.575-6.055.751.751,0,0,0-.884-.587l-.239.048a25.6,25.6,0,0,0-1.755-5.138,8.872,8.872,0,0,0-4.859-5.165,34.307,34.307,0,0,0-5.516-2.116,20.934,20.934,0,0,0-5.2-.87l-2.586-.935s-.542,1.753-4.624,1.753-4.625-1.825-4.625-1.825l-2.031.568c-.848.171-8.41,1.549-13.084.127-3.031-.494-13.122-5.582-13.685-6.878-.868-2,7.362-7.541,11.2-10.813,1.431-1.219-2.579-6.969-4.542-7.86-5,3.37-21.625,16.416-18.535,21.722,3.235,5.554,9.287,9.2,14.86,12.037,2.385,1.214,4.833,2.3,7.3,3.331,1.594.67,5.733,1.374,6.32,3.175.687,2.1,1.127,23.984,1.068,28.919-.04,3.353,0,7.1,0,11.976,0,5.7-1.032,6.254,2.555,6.3,3.185.043,6.38-.074,9.567-.083,5.133-.016,10.266.026,15.4.026,5.091,0,4.055-1.18,3.825-7.553-.06-1.672-.134-3.343-.194-5.016-.141-3.906-.256-7.813-.322-11.721-.062-3.632,0-7.266.011-10.9a33.99,33.99,0,0,1,.881-8.083c1.419,5.7,2.542,13.986,4.238,22.405,2.26,11.215,3.315,19.716,3.315,19.716s1.414.975,5.3.9c3.092-.06,4.255-1.2,4.255-1.2S5389.044,1094.049,5387.276,1084.145Z" fill="#8b8b58"/>
              <path id="Trazado_3005" data-name="Trazado 3005" d="M5353.276,1104.108a3.964,3.964,0,0,0-2.833,0,.675.675,0,0,0-.459.809.664.664,0,0,0,.128.234c.014,1.267,2.735.51,3.321.158A.664.664,0,0,0,5353.276,1104.108Z" fill="#a2a367"/>
              <g id="Grupo_1833" data-name="Grupo 1833">
                <path id="Trazado_3006" data-name="Trazado 3006" d="M5343.411,1104.827a1.82,1.82,0,0,0,1.706-.559,1.036,1.036,0,0,0,.225-.659c.012-.515.868-.848,1.226-1.075a.661.661,0,0,0,.236-.9c-1.161-1.7-3.713-.789-5.359-.29-.041,1.658-.15,2.78-.114,3.536C5342.023,1104.959,5342.831,1104.8,5343.411,1104.827Z" fill="#6d6d44"/>
                <path id="Trazado_3007" data-name="Trazado 3007" d="M5371.684,1101.5l0-.008a.638.638,0,0,0-.543-.989,12.957,12.957,0,0,0-3.68.17.665.665,0,0,0-.29,1.1c.615.675,1.612.379,2.125,1.09a1.782,1.782,0,0,0,1.873.85,1.339,1.339,0,0,0,1.046-1.22A1.076,1.076,0,0,0,5371.684,1101.5Z" fill="#6d6d44"/>
                <path id="Trazado_3008" data-name="Trazado 3008" d="M5382.389,1100.28c.836-.353,2.426-.576,2.741-1.564.354-1.109-1.514-1.4-2.2-1.354a10.409,10.409,0,0,0-3.2.944c.137.863.26,1.659.37,2.381A4.006,4.006,0,0,0,5382.389,1100.28Z" fill="#6d6d44"/>
                <path id="Trazado_3009" data-name="Trazado 3009" d="M5388.629,1092.912a.676.676,0,0,0-.621-.585c-1.075-.093-2.884-.233-3.728.646a.871.871,0,0,0,.269,1.451,2.763,2.763,0,0,1,2.454.489.971.971,0,0,1,.261.645,2.6,2.6,0,0,0,.57.25,1.946,1.946,0,0,0,1.261-.111c-.125-.893-.259-1.824-.4-2.781-.012,0-.018-.005-.029-.005Z" fill="#6d6d44"/>
                <path id="Trazado_3010" data-name="Trazado 3010" d="M5381.121,1087.8c.095-.657.009-.547.705-.484.479.044,1.195-.061,1.419-.571a.887.887,0,0,0-.372-1.316,2.841,2.841,0,0,0,1.13-1.17c.452-1.132-1.176-1.375-1.907-1.349-1.048.038-4.9.712-4,2.447a.573.573,0,0,0,.334.3.906.906,0,0,0,.041.784,1.527,1.527,0,0,0,.7.53c-.409.486-.671,1.044-.2,1.639.289.368.974.311,1.363.221A1.174,1.174,0,0,0,5381.121,1087.8Z" fill="#6d6d44"/>
                <path id="Trazado_3011" data-name="Trazado 3011" d="M5381.492,1076.666a.671.671,0,0,0-.393-.966,3.625,3.625,0,0,0-1.668.012c.106-.148.224-.29.308-.433a.658.658,0,0,0-.235-.9,2.5,2.5,0,0,0-2.622.541.615.615,0,0,0-.185.259.752.752,0,0,0-.5.385c-.287.667.524,1.258.963.9a3.458,3.458,0,0,0-.379.488.663.663,0,0,0,.568.99C5378.631,1077.852,5380.832,1078.1,5381.492,1076.666Z" fill="#6d6d44"/>
                <path id="Trazado_3012" data-name="Trazado 3012" d="M5382.387,1066.622a1.919,1.919,0,0,0,1.653.3c.272-.036.544-.085.814-.141-.113-.639-.246-1.327-.4-2.055l-.01-.047a7.548,7.548,0,0,0-1.589.429C5382.286,1065.35,5381.878,1066.114,5382.387,1066.622Z" fill="#6d6d44"/>
                <path id="Trazado_3013" data-name="Trazado 3013" d="M5375.955,1054.363a1.145,1.145,0,0,0-1.008-1.533,3.727,3.727,0,0,0-1.221.264c-.73.264-1.254-.034-1.974-.178-1.134-.228-2.366.484-3.355.942-.651.3-.271,1.156.325,1.2a2.2,2.2,0,0,0-.374,1.015c-.257,2.2,5.1-.212,5.638-.423C5374.616,1055.4,5375.757,1055.143,5375.955,1054.363Z" fill="#6d6d44"/>
                <path id="Trazado_3014" data-name="Trazado 3014" d="M5377.914,1058.409a.656.656,0,0,0-.236-.9,3.012,3.012,0,0,0-3,.438.689.689,0,0,0,.379,1.249.662.662,0,0,0,.244.048C5376.294,1059.257,5377.258,1059.277,5377.914,1058.409Z" fill="#6d6d44"/>
                <path id="Trazado_3015" data-name="Trazado 3015" d="M5374.485,1048.514a.922.922,0,0,0,.25.894c.146-.075.3-.148.454-.224a.67.67,0,0,1,.9.236c.008.014.012.029.019.043a.839.839,0,0,1,.1.02.719.719,0,0,1,.329.223,5.274,5.274,0,0,0,.913-.436,8.377,8.377,0,0,0-2.312-1.44c-.043-.022-.088-.043-.131-.064A1.6,1.6,0,0,0,5374.485,1048.514Z" fill="#6d6d44"/>
                <path id="Trazado_3016" data-name="Trazado 3016" d="M5359.921,1049.045a.6.6,0,0,1,.273.113.556.556,0,0,1,.468.1c.313.217.685.608.574,1.013.206.058.4.108.58.147a13.069,13.069,0,0,0,5.408-.4.664.664,0,0,0,.29-1.1,2.254,2.254,0,0,0-.182-.181.71.71,0,0,0-.822-.718c-.109.019-.219.029-.328.045-.065-.021-.129-.045-.2-.063a.623.623,0,0,0-.614-.809c-.691.016-7.6-.979-7.017,1.058a1.853,1.853,0,0,0,.427.73A4.313,4.313,0,0,1,5359.921,1049.045Z" fill="#6d6d44"/>
                <path id="Trazado_3017" data-name="Trazado 3017" d="M5350.464,1049.024c-1.09.081-2.153.329-3.229.5a.58.58,0,0,0-.343.96.7.7,0,0,0,.086,1.035.625.625,0,0,0,.186.491,3.717,3.717,0,0,0,4.3.322.713.713,0,0,0,.259-.871c1.24-.259,2.514-.7,1.627-1.841C5352.752,1048.844,5351.3,1048.962,5350.464,1049.024Z" fill="#6d6d44"/>
                <path id="Trazado_3018" data-name="Trazado 3018" d="M5341.443,1046.293a.54.54,0,0,0-.461-.22.564.564,0,0,0-.734.612,12.415,12.415,0,0,0,.244,1.708,7.729,7.729,0,0,1,.376.984c-.477.635.361,1.509.888.966a.607.607,0,0,0,.367-.416,1.8,1.8,0,0,0,.063-.331A3.631,3.631,0,0,0,5341.443,1046.293Z" fill="#6d6d44"/>
                <path id="Trazado_3019" data-name="Trazado 3019" d="M5338.454,1051.491c-1.5-.314-1.943,2.3-1.842,4.522-.059.275-.11.552-.164.829a12.761,12.761,0,0,1,2.8,1.162,29.086,29.086,0,0,0,.322-3.4C5339.6,1053.678,5339.685,1051.748,5338.454,1051.491Z" fill="#6d6d44"/>
                <path id="Trazado_3020" data-name="Trazado 3020" d="M5334.86,1046.42a2.21,2.21,0,0,0-.282-.419.657.657,0,0,0-.929,0,4.8,4.8,0,0,0-.935,1.723l-.026.082c-1.132-.255-1.622,1.856-1.568,2.676.025.389.408.8.832.634a2.233,2.233,0,0,0,.8-.518c-.032.594-.126,1.188-.1,1.783a.665.665,0,0,0,.989.568c1.165-.69,1.462-2.368,1.477-3.937a4.745,4.745,0,0,0-.148-2.348A.685.685,0,0,0,5334.86,1046.42Z" fill="#6d6d44"/>
                <path id="Trazado_3021" data-name="Trazado 3021" d="M5328.362,1044.022a1.1,1.1,0,0,0,1.591.385,1.685,1.685,0,0,0,.215-.173.992.992,0,0,0,1.173-.137,2.1,2.1,0,0,0,.547-1.65c-.894-.413-1.807-.858-2.681-1.307C5328.558,1041.942,5327.808,1043.026,5328.362,1044.022Z" fill="#6d6d44"/>
                <path id="Trazado_3022" data-name="Trazado 3022" d="M5326.611,1046.051a2.513,2.513,0,0,0-.033-.971,1.091,1.091,0,0,0-1.627-.639,6.033,6.033,0,0,0-2.356,3.036,2.68,2.68,0,0,0-.314,1.846.944.944,0,0,0,1.532.4,4.478,4.478,0,0,0,1.234-1.987,3.831,3.831,0,0,0,.035.8.665.665,0,0,0,.966.393,2.986,2.986,0,0,0,1.324-2.073A.66.66,0,0,0,5326.611,1046.051Z" fill="#6d6d44"/>
                <path id="Trazado_3023" data-name="Trazado 3023" d="M5323.481,1035.858a3.968,3.968,0,0,0-4.669-.7.662.662,0,0,0,0,1.135,5.885,5.885,0,0,0,1.128.385.606.606,0,0,0-.116.26.8.8,0,0,0,.121.58c-1.2.607-2.486,1.152-2.409,2.735a.672.672,0,0,0,.832.634,16.55,16.55,0,0,0,4.1-1.083,5.442,5.442,0,0,0,2.127-1.37,2.7,2.7,0,0,1-.808-.785c-.163-.374-.007-.872.379-1.455-.007,0-.012-.01-.019-.014A4.647,4.647,0,0,0,5323.481,1035.858Z" fill="#6d6d44"/>
                <path id="Trazado_3024" data-name="Trazado 3024" d="M5314.322,1038.428a1.946,1.946,0,0,0,.781-.989.662.662,0,0,0-.459-.808c-1.241-.41-2.082.338-2.877,1.163a3.584,3.584,0,0,0,.146,2.909c.06.1.127.2.189.3a14.327,14.327,0,0,0,2.175-1.742A.581.581,0,0,0,5314.322,1038.428Z" fill="#6d6d44"/>
                <path id="Trazado_3025" data-name="Trazado 3025" d="M5320.7,1029.377a11.529,11.529,0,0,1,2.171.418c.624.142,1.329-.009,1.488-.714a1.721,1.721,0,0,0-.9-1.7,5.148,5.148,0,0,0-2.675-.746c-.767.69-1.527,1.4-2.263,2.113a2.145,2.145,0,0,0,.161.213C5319.091,1029.451,5320.147,1029.353,5320.7,1029.377Zm.486-1.356c.2.032.39.07.561.106a4.293,4.293,0,0,1,.581.162,8.225,8.225,0,0,0-1.172-.191A.662.662,0,0,0,5321.188,1028.021Z" fill="#6d6d44"/>
                <path id="Trazado_3026" data-name="Trazado 3026" d="M5326.9,1027.408c-2.192.428,1.1,3.778,1.52,4.656.775-.633,1.587-1.273,2.391-1.9a5.635,5.635,0,0,0-1.1-1.4C5329.03,1028.083,5327.94,1027.206,5326.9,1027.408Z" fill="#6d6d44"/>
                <path id="Trazado_3027" data-name="Trazado 3027" d="M5327.721,1023.226l.019.008a1.519,1.519,0,0,1,.119.133l.2.3c.2.307.4.616.627.905a1.209,1.209,0,0,0,1.8.377c.683-.538.148-1.5-.267-1.989a4.006,4.006,0,0,0-1.556-1.154.535.535,0,0,0-.434.016.637.637,0,0,0-.746.286.7.7,0,0,0-.075.45A.559.559,0,0,0,5327.721,1023.226Z" fill="#6d6d44"/>
                <path id="Trazado_3028" data-name="Trazado 3028" d="M5320.166,1045.589a.68.68,0,0,0-.657-.654,2.237,2.237,0,0,0,.049-1.054.665.665,0,0,0-.808-.459c-1.268.257-1.959,1.412-2.506,2.487a32.419,32.419,0,0,0,2.718,2.19A3.559,3.559,0,0,0,5320.166,1045.589Z" fill="#a2a367"/>
                <path id="Trazado_3029" data-name="Trazado 3029" d="M5322.75,1042.5a3.7,3.7,0,0,0,2.285-2.358.658.658,0,0,0-.459-.809.612.612,0,0,0-.413.026.632.632,0,0,0-.532.041,2.835,2.835,0,0,0-1.713,2.466A.668.668,0,0,0,5322.75,1042.5Z" fill="#a2a367"/>
                <path id="Trazado_3030" data-name="Trazado 3030" d="M5315.959,1039.624a.844.844,0,0,0-.623-.018.631.631,0,0,0-.382.187c-.072.071-.14.141-.209.212-.028.027-.056.053-.083.081a.273.273,0,0,0-.021.026,2.863,2.863,0,0,0-.659.994.649.649,0,0,0,.169.64.684.684,0,0,0,.639.168,2.033,2.033,0,0,0,1.628-1.481A.683.683,0,0,0,5315.959,1039.624Z" fill="#a2a367"/>
                <path id="Trazado_3031" data-name="Trazado 3031" d="M5321.837,1034.047c.824.04,2.12-.25,1.56-1.363a1.241,1.241,0,0,0-.34-.4.676.676,0,0,0-.06-.392,3.734,3.734,0,0,0-2.677-1.525c-.864-.127-1.775.517-1.52,1.317a1.785,1.785,0,0,0-1.23.265.666.666,0,0,0,0,1.135A8.4,8.4,0,0,0,5321.837,1034.047Z" fill="#a2a367"/>
                <path id="Trazado_3032" data-name="Trazado 3032" d="M5326.144,1025c.429-.579-.047-1.43-.559-1.771a2.477,2.477,0,0,0-.488-.246c-.635.51-1.29,1.047-1.955,1.606C5323.82,1025.339,5325.447,1025.939,5326.144,1025Z" fill="#a2a367"/>
                <path id="Trazado_3033" data-name="Trazado 3033" d="M5332.569,1024.619a1.1,1.1,0,0,0,.292-1.685,4.373,4.373,0,0,0-1.264-1.062.694.694,0,0,0-.988.64C5330.637,1023.441,5331.383,1025.179,5332.569,1024.619Z" fill="#a2a367"/>
                <path id="Trazado_3034" data-name="Trazado 3034" d="M5330.805,1048.409a1.1,1.1,0,0,0-.316-.582.661.661,0,0,0-.929,0,14.11,14.11,0,0,0-1.329,1.865c-.37.618-.927,1.648-.331,2.3.71.779,1.856.078,2.326-.594a3.377,3.377,0,0,0,.606-2.806A.686.686,0,0,0,5330.805,1048.409Z" fill="#a2a367"/>
                <path id="Trazado_3035" data-name="Trazado 3035" d="M5338.469,1045.855c-.733.636-.574,1.572-.558,2.436a.608.608,0,0,0,.263.51c-.109.564.813.986,1.254.406a3.254,3.254,0,0,0,.073-3.219A.667.667,0,0,0,5338.469,1045.855Z" fill="#a2a367"/>
                <path id="Trazado_3036" data-name="Trazado 3036" d="M5344.8,1055.728a3.254,3.254,0,0,0,.051-1.083.717.717,0,0,0-.388-.559.546.546,0,0,0-.46-.44,1.624,1.624,0,0,0-1.367,2.729,1.445,1.445,0,0,0,1.033.376.662.662,0,0,0,1.232-.455A5.092,5.092,0,0,1,5344.8,1055.728Z" fill="#a2a367"/>
                <path id="Trazado_3037" data-name="Trazado 3037" d="M5358.039,1050.678a6.556,6.556,0,0,0,2.11.241,1.158,1.158,0,0,0,.994-.449.624.624,0,0,0,.093-.2c.111-.405-.261-.8-.574-1.013a.556.556,0,0,0-.468-.1.6.6,0,0,0-.273-.113,4.313,4.313,0,0,0-1.141-.061,1.294,1.294,0,0,0-1.134.728A.669.669,0,0,0,5358.039,1050.678Z" fill="#a2a367"/>
                <path id="Trazado_3038" data-name="Trazado 3038" d="M5376.207,1049.483a.839.839,0,0,0-.1-.02c-.007-.014-.011-.029-.019-.043a.67.67,0,0,0-.9-.236c-.157.076-.308.149-.454.224a2.717,2.717,0,0,0-1.023.815.664.664,0,0,0,.393.966c.914.321,2.255.19,2.561-.9a.637.637,0,0,0-.13-.586A.719.719,0,0,0,5376.207,1049.483Z" fill="#a2a367"/>
                <path id="Trazado_3039" data-name="Trazado 3039" d="M5376.8,1055.723a2.832,2.832,0,0,0,2.341-.033c.349-.131.826-.359.907-.772a.788.788,0,0,0-.185-.721.686.686,0,0,0-.144-.259.645.645,0,0,0-.616-.535,3.029,3.029,0,0,0-2.539,1.421A.663.663,0,0,0,5376.8,1055.723Z" fill="#a2a367"/>
                <path id="Trazado_3040" data-name="Trazado 3040" d="M5369.211,1059.415a.729.729,0,0,0-.273,1.134.548.548,0,0,0,.259.519.637.637,0,0,0,.453.783c1.138.231,3.425-.353,3.186-1.878C5372.567,1058.252,5370.229,1059.005,5369.211,1059.415Z" fill="#a2a367"/>
                <path id="Trazado_3041" data-name="Trazado 3041" d="M5385.346,1078.03c-1.36-.688-3.786-.414-4.252,1.269a.664.664,0,0,0,.46.809,5.243,5.243,0,0,0,.773.1c-.024.035-.048.066-.071.1a.662.662,0,0,0,.393.965,5.755,5.755,0,0,0,4-.593c-.128-.7-.255-1.374-.38-2.038a4.072,4.072,0,0,0-.6-.032A.553.553,0,0,0,5385.346,1078.03Z" fill="#a2a367"/>
                <path id="Trazado_3042" data-name="Trazado 3042" d="M5383.689,1086.026a.651.651,0,0,0,.449,1.116c.81-.019,2.1-.3,2.389-1.166.219-.65-.4-1.121-.979-1.129a3.346,3.346,0,0,0-.812.133c-.114.028-.228.059-.342.088l-.115.027-.027.007A.685.685,0,0,0,5383.689,1086.026Z" fill="#a2a367"/>
                <path id="Trazado_3043" data-name="Trazado 3043" d="M5384.549,1094.424c-.2.02-.388.042-.565.053l-.143.009a.583.583,0,0,0-.321-.535,1.516,1.516,0,0,0-.35-.139.61.61,0,0,0-.308-.592,1.951,1.951,0,0,0-2.61.662c-.33.7.06,1.185.623,1.494a.71.71,0,0,0,.115.41.723.723,0,0,0,.665.777c1.461.027,3.158.691,4.588.241a1.417,1.417,0,0,0,1.021-1.246.971.971,0,0,0-.261-.645A2.763,2.763,0,0,0,5384.549,1094.424Z" fill="#a2a367"/>
                <path id="Trazado_3044" data-name="Trazado 3044" d="M5385.864,1101.283a.665.665,0,0,0,0,.929c.773.837,1.975.568,3.071.2a3.089,3.089,0,0,0,1.057.032c-.081-.644-.175-1.394-.285-2.233a.114.114,0,0,0-.018,0C5388.4,1100.31,5386.853,1100.331,5385.864,1101.283Z" fill="#a2a367"/>
                <path id="Trazado_3045" data-name="Trazado 3045" d="M5361.938,1099.593a.8.8,0,0,0-.484-.6,3.674,3.674,0,0,0-2.1-.074.559.559,0,0,0-.455.424c-1.024.109-2.079.514-2.072,1.6.009,1.617,2.977,1.1,3.892,1.036.9-.07,3.14.5,3.14-1.069C5363.858,1099.688,5362.929,1099.549,5361.938,1099.593Z" fill="#a2a367"/>
              </g>
              <g id="Grupo_1834" data-name="Grupo 1834">
                <path id="Trazado_3046" data-name="Trazado 3046" d="M5350.73,1153.43c-.027,1,1.321,1.335,2.011,1.678.822.408-.581.374-.992.4a1.545,1.545,0,0,0-1.479,1.324,1.668,1.668,0,0,0,.98,1.614,2.923,2.923,0,0,0,2.353-.116c.909-.293,2.017-.243,2.865-.616.094-1.149.141-2.518.159-4.152a16.672,16.672,0,0,0-3.529-1.6A1.773,1.773,0,0,0,5350.73,1153.43Z" fill="#6d6d44"/>
                <path id="Trazado_3047" data-name="Trazado 3047" d="M5345.158,1159.788c.755-.131,1.495-.885,1.155-1.656-.265-.6-1.311-.626-1.844-.659a7,7,0,0,0-1.912.092.571.571,0,0,0-.412.3,1.757,1.757,0,0,0-.456.307q.069.619.161,1.149c.017.005.031.014.049.018A8.891,8.891,0,0,0,5345.158,1159.788Z" fill="#6d6d44"/>
                <path id="Trazado_3048" data-name="Trazado 3048" d="M5366.175,1147.928c.511-.3.474-1.992.45-1.989,1.151-.137,2.177.169,3.157-.638a.664.664,0,0,0,.168-.64c-.264-1.523-2.576-1.1-3.619-1.01-1.813.152-3.959-.4-5.712.329.08,1.543.152,2.963.222,4.273C5362.549,1148.44,5364.727,1148.768,5366.175,1147.928Z" fill="#6d6d44"/>
                <path id="Trazado_3049" data-name="Trazado 3049" d="M5369.708,1149.635c-1.045.774-.121,1.433.816,1.867a1.231,1.231,0,0,0,.266,2.066c1.493,1.005,3.821.86,5.759.552-.078-1.358-.181-2.91-.3-4.688C5374.183,1149.069,5371.427,1148.361,5369.708,1149.635Z" fill="#6d6d44"/>
                <path id="Trazado_3050" data-name="Trazado 3050" d="M5346.318,1145.463c1.188-1.108,2.87-.194,4.071-1.145a1.093,1.093,0,0,0-.174-1.842,8.317,8.317,0,0,0-3.739-.579c-.641-.006-1.271.023-1.91.077-.919.078-1.975.554-2.948.708q-.042,1.9-.078,3.568C5343.232,1146.588,5345.606,1146.127,5346.318,1145.463Z" fill="#6d6d44"/>
                <path id="Trazado_3051" data-name="Trazado 3051" d="M5348.253,1129.814a.655.655,0,0,0-.352.276,2.61,2.61,0,0,0-.741.4.66.66,0,0,0,.132,1.032,9.579,9.579,0,0,0,2.079.732,3.3,3.3,0,0,0-.942.3c-.925.523-.127,1.413.47,1.741a2.766,2.766,0,0,0,2.885-.132c.861-.7.525-1.723-.174-2.364.049-.016.1-.034.148-.048a3.624,3.624,0,0,0,.63-.255,1.039,1.039,0,0,0,.482-1.154C5352.391,1128.72,5349.382,1129.421,5348.253,1129.814Z" fill="#6d6d44"/>
                <path id="Trazado_3052" data-name="Trazado 3052" d="M5369.966,1129.73c-.229-1.088-1.932-.536-2.64-.95a.556.556,0,0,0,.218-.855c-.69-.961-2.552-1.67-3.65-.885a.909.909,0,0,0-.407,1.111c.071.207.2.391.265.6.062.182-.435.443-.536.6-.742,1.149.146,2.009,1.281,2.122a15.634,15.634,0,0,0,3.53-.291C5368.823,1131.068,5370.2,1130.839,5369.966,1129.73Z" fill="#6d6d44"/>
                <path id="Trazado_3053" data-name="Trazado 3053" d="M5365.3,1115.433c.674-.232,1.171-.933.68-1.586a2.742,2.742,0,0,0-1.376-.852c.1-.709-.5-1.225-1.416-1.289a14.078,14.078,0,0,0-3.547.508.552.552,0,0,0-.466.659.752.752,0,0,0,0,.672c.59,1.162,1.966.642,3.063.569C5362.391,1115.251,5364.2,1115.813,5365.3,1115.433Z" fill="#6d6d44"/>
                <path id="Trazado_3054" data-name="Trazado 3054" d="M5366.79,1111.924a4.476,4.476,0,0,0,3.015.129,1.343,1.343,0,0,0,.83-1.375c-.086-.631-.777-.848-1.321-.825a.741.741,0,0,0-.2.04.662.662,0,0,0-.342-.016c-.045.01-.091.017-.137.025-.161.027-.02.005-.136.021l-.543.067a9.246,9.246,0,0,0-1.228.208c-.379.1-.837.369-.811.826C5365.947,1111.543,5366.354,1111.759,5366.79,1111.924Z" fill="#6d6d44"/>
                <path id="Trazado_3055" data-name="Trazado 3055" d="M5354.013,1115.66a.724.724,0,0,0-.153-.087,7.458,7.458,0,0,0-3.854-.292.554.554,0,0,0-.377.219.961.961,0,0,0-.671,1.066c.107.69.91.936,1.5.966.366.019.735,0,1.1.006a3.5,3.5,0,0,1,.6.057c.047.009.079.013.1.016a.069.069,0,0,0-.017.028.607.607,0,0,0,.173.625c.05.007.1.01.153.021l.021,0a1.239,1.239,0,0,1,.739.192c1.016-.035,2.079-.453,1.87-1.671A1.487,1.487,0,0,0,5354.013,1115.66Z" fill="#6d6d44"/>
                <path id="Trazado_3056" data-name="Trazado 3056" d="M5353.681,1109.588c.962-1.021-.948-1.747-1.61-1.886a5.889,5.889,0,0,0-2.8.495,7.093,7.093,0,0,1-1.238.267.652.652,0,0,0-.632-.655c-1.438-.065-3.639-.65-4.365,1.056a.668.668,0,0,0,.393.965C5346.125,1110.443,5351.428,1111.983,5353.681,1109.588Z" fill="#6d6d44"/>
                <path id="Trazado_3057" data-name="Trazado 3057" d="M5363.516,1110.414a1.91,1.91,0,0,0,2.2-.521.647.647,0,0,0-.1-.8,1.034,1.034,0,0,0-.506-.29.95.95,0,0,0-.4,0c-.015,0-.076.01-.117.015a1.48,1.48,0,0,0-1.472.625A.663.663,0,0,0,5363.516,1110.414Z" fill="#a2a367"/>
                <path id="Trazado_3058" data-name="Trazado 3058" d="M5349.416,1114.876a.672.672,0,0,0,.133-1.032,2.416,2.416,0,0,0-1.237-.733.671.671,0,0,0-.441-.6c-.828-.321-2.378-.654-3.188-.141a1.045,1.045,0,0,0-.529,1.23,1.64,1.64,0,0,0,.865.844.671.671,0,0,0,.459.794A4.787,4.787,0,0,0,5349.416,1114.876Z" fill="#a2a367"/>
                <path id="Trazado_3059" data-name="Trazado 3059" d="M5352.574,1118.285c-.05-.011-.1-.014-.153-.021-.373-.048-.788,0-1.115-.04a3.056,3.056,0,0,0-2.261.41.667.667,0,0,0,0,1.135,4.946,4.946,0,0,0,3.526.4c.55-.139,1.232-.6,1.051-1.262a.755.755,0,0,0-.288-.426,1.239,1.239,0,0,0-.739-.192Z" fill="#a2a367"/>
                <path id="Trazado_3060" data-name="Trazado 3060" d="M5360.132,1120.792a1.417,1.417,0,0,0,1.918-.074.721.721,0,0,0,.263-.854,2.068,2.068,0,0,0,.455-.344.663.663,0,0,0,0-.929c-.96-.921-2.313-.678-3.488-.389-.016,0-.027.012-.042.017.029.544.059,1.1.088,1.664a3.309,3.309,0,0,1,.526-.044A1.141,1.141,0,0,0,5360.132,1120.792Z" fill="#a2a367"/>
                <path id="Trazado_3061" data-name="Trazado 3061" d="M5370.362,1120.611a1.5,1.5,0,0,0-1.15-.588.644.644,0,0,0-.629-.749c-.9-.017-1.912-.192-2.583.558a.669.669,0,0,0,.134,1.032,2.086,2.086,0,0,0,.722.281,1.791,1.791,0,0,0-.878,1.022.653.653,0,0,0,.459.808,15.707,15.707,0,0,0,2.584.1.654.654,0,0,0,.585-.925C5370.209,1121.913,5370.719,1121.234,5370.362,1120.611Z" fill="#a2a367"/>
                <path id="Trazado_3062" data-name="Trazado 3062" d="M5375.4,1124.775a3.576,3.576,0,0,0-2.771.431.668.668,0,0,0,0,1.135,3.489,3.489,0,0,0,3.366.073c.01-.007.018-.018.029-.027-.074-.495-.143-.929-.2-1.294A.546.546,0,0,0,5375.4,1124.775Z" fill="#a2a367"/>
                <path id="Trazado_3063" data-name="Trazado 3063" d="M5352.484,1137.183a2.7,2.7,0,0,0-1.282-.382.565.565,0,0,0-.475.175c-.956-.254-2.559-.023-2.846,1.018a.814.814,0,0,0,.438,1.046,2.732,2.732,0,0,0-.807.26.663.663,0,0,0,.157,1.2c1.056.22,3.063.291,3.809-.658a1.126,1.126,0,0,0,.157-1.2,1.2,1.2,0,0,0,.981-.43A.667.667,0,0,0,5352.484,1137.183Z" fill="#a2a367"/>
                <path id="Trazado_3064" data-name="Trazado 3064" d="M5349.27,1124.807a.666.666,0,0,0-.157-1.2,1.8,1.8,0,0,0-.685-.1.682.682,0,0,0-.239.043.643.643,0,0,0-.75-.1,2.554,2.554,0,0,0-.571.394.665.665,0,0,0,.29,1.1A2.322,2.322,0,0,0,5349.27,1124.807Z" fill="#a2a367"/>
                <path id="Trazado_3065" data-name="Trazado 3065" d="M5373.139,1142.328a.668.668,0,0,0,.291-1.1c-.31-.367-.66-.69-.991-1.036a1.838,1.838,0,0,1-.2-.264.667.667,0,0,0,.123-.95.539.539,0,0,0-.3-.7c-1.137-.533-4.332-.851-5.05.531-.872,1.681,1.188,1.839,2.662,2.029a3.323,3.323,0,0,0-.307.317.671.671,0,0,0,.133,1.032A4.241,4.241,0,0,0,5373.139,1142.328Zm-1.668-1.235.006-.006c.072.081.145.16.221.237a3.356,3.356,0,0,1-.574.027C5371.239,1141.266,5371.355,1141.181,5371.471,1141.093Z" fill="#a2a367"/>
                <path id="Trazado_3066" data-name="Trazado 3066" d="M5349.142,1151.172a.614.614,0,0,0-.31-.479,3.7,3.7,0,0,0-2.551-.139.556.556,0,0,0-.447.393,1.983,1.983,0,0,0-1.772.859c-.8,1.659,1.053,1.867,2.234,1.71,1.044-.138,3.093.106,3.282-1.32A.921.921,0,0,0,5349.142,1151.172Z" fill="#a2a367"/>
                <path id="Trazado_3067" data-name="Trazado 3067" d="M5341.569,1135.066a2.489,2.489,0,0,0,1.408-.722.662.662,0,0,0,0-.929,3.5,3.5,0,0,0-2.653-.561c-.008.983,0,1.9.012,2.725a2.922,2.922,0,0,0,1.193-.474C5341.545,1135.093,5341.555,1135.078,5341.569,1135.066Z" fill="#a2a367"/>
                <path id="Trazado_3068" data-name="Trazado 3068" d="M5375.056,1134.84a.669.669,0,0,0,.29,1.1c.229.1.374.155.307.4a.659.659,0,0,0,.3.742,2.19,2.19,0,0,0,1,.265c-.007-.892-.034-1.983-.107-3.237A2.337,2.337,0,0,0,5375.056,1134.84Z" fill="#6d6d44"/>
              </g>
            </g>
            <path id="Trazado_3069" data-name="Trazado 3069" d="M5345.057,1015.788a1.2,1.2,0,0,0-.265-.6,1.33,1.33,0,0,0-.238-.215c-.3.566-1.418,1.808-5.124,4.493l-.325.238a.438.438,0,0,0,.263.789.428.428,0,0,0,.262-.088c.066-.049.175-.127.315-.229A25.932,25.932,0,0,0,5345.057,1015.788Z" fill="#573d22"/>
            <path id="Trazado_3070" data-name="Trazado 3070" d="M5342.771,1019.32a19.428,19.428,0,0,1-3.053,2.249.439.439,0,0,0,.218.819.445.445,0,0,0,.218-.058,18.581,18.581,0,0,0,2.386-1.669,1.054,1.054,0,0,0-.155-.485,1.02,1.02,0,0,0-.267-.274l.757-.641A.424.424,0,0,0,5342.771,1019.32Z" fill="#573d22"/>
            <path id="Trazado_3071" data-name="Trazado 3071" d="M5343.014,1013.263c-.062-.1-.107-.173-.122-.2,0,.006-.006.01-.008.016-.131.693-1.668,2.071-4.566,4.094-.223.155-.392.273-.488.345a.438.438,0,1,0,.526.7c.09-.068.252-.18.462-.327,2.305-1.609,4.693-3.419,4.928-4.649a.429.429,0,0,0,0-.112A1.064,1.064,0,0,0,5343.014,1013.263Z" fill="#573d22"/>
            <path id="Trazado_3072" data-name="Trazado 3072" d="M5348.19,1166.013h-3.882a.438.438,0,0,1,0-.877h3.882a.438.438,0,0,1,0,.877Z" fill="#3c3441"/>
            <path id="Trazado_3073" data-name="Trazado 3073" d="M5348.19,1168.158h-3.882a.438.438,0,0,1,0-.877h3.882a.438.438,0,0,1,0,.877Z" fill="#3c3441"/>
            <path id="Trazado_3074" data-name="Trazado 3074" d="M5348.19,1170.3h-3.882a.438.438,0,0,1,0-.876h3.882a.438.438,0,0,1,0,.876Z" fill="#3c3441"/>
            <path id="Trazado_3075" data-name="Trazado 3075" d="M5375.471,1170.677s2.683,1.177,5.75,2.565,2.617,4.382,1.431,4.348l-14.349-.367a10.107,10.107,0,0,1-2.7-.118l-.649-13.868h9.985Z" fill="#534e43"/>
            <path id="Rect치ngulo_892" data-name="Rect치ngulo 892" d="M.5,0H17.818a.5.5,0,0,1,.5.5V.909a.5.5,0,0,1-.5.5H.5a.5.5,0,0,1-.5-.5V.5A.5.5,0,0,1,.5,0Z" transform="translate(5365.303 1177.105)" fill="#3c3441"/>
            <path id="Trazado_3076" data-name="Trazado 3076" d="M5375.107,1166.013h-4.019a.438.438,0,0,1,0-.877h4.019a.438.438,0,0,1,0,.877Z" fill="#3c3441"/>
            <path id="Trazado_3077" data-name="Trazado 3077" d="M5375.261,1168.158h-4.013a.438.438,0,0,1,0-.877h4.013a.438.438,0,0,1,0,.877Z" fill="#3c3441"/>
            <path id="Trazado_3078" data-name="Trazado 3078" d="M5375.414,1170.3h-3.888a.438.438,0,0,1,0-.876h3.888a.438.438,0,0,1,0,.876Z" fill="#3c3441"/>
            <path id="Trazado_3079" data-name="Trazado 3079" d="M5385.022,1072.246a.7.7,0,0,0,.089-.06.542.542,0,0,0-.236-.013h0c-.01,0-2.02.34-2.049.34-.357-.026-.357-.026-.518-.524l-.015-.044a15.282,15.282,0,0,1-.375-1.555c-.035-.163-.068-.323-.1-.478-.287-1.327-.726-3.457-1.116-5.5a26.506,26.506,0,0,0,3.53-.673c-.068-.3-.134-.581-.2-.853a26.554,26.554,0,0,1-3.494.662,35.968,35.968,0,0,1-.68-4.6c.015-.385.336-.5,1.293-.64a3,3,0,0,0,.6-.17c-.077-.275-.151-.535-.223-.782-.161.031-.329.059-.508.085-.841.126-1.994.3-2.039,1.473-.064,1.659,1.957,11.095,1.978,11.19.033.151.065.309.1.469a15.805,15.805,0,0,0,.4,1.648l.015.045c.218.674.386,1.06,1.287,1.127.018,0,.041,0,.078,0a13.86,13.86,0,0,0,2.178-.353l.018,0,.027-.005.113-.024C5385.122,1072.751,5385.071,1072.494,5385.022,1072.246Z" fill="#585836"/>
            <path id="Trazado_3080" data-name="Trazado 3080" d="M5375.705,1140.965s-2.226.059-2.261.054c-.518-.1-.518-.1-.661-.822l-.011-.056a19.29,19.29,0,0,1-.244-2.01c-.019-.209-.037-.414-.056-.613-.173-1.788-.415-4.551-.6-7.171.108,0,.222.007.35.007a35.187,35.187,0,0,0,4.274-.327q-.05-.45-.1-.871a32.018,32.018,0,0,1-4.587.314,45.292,45.292,0,0,1-.181-5.983c.092-.592.625-.67,1.819-.708.3-.008.606-.024.9-.056-.031-.292-.063-.583-.1-.871-.267.03-.552.043-.836.052-1.088.033-2.442.076-2.657,1.447-.321,2.054.827,14.131.838,14.252.019.2.038.4.056.6a19.624,19.624,0,0,0,.258,2.1l.011.056c.174.877.3,1.308,1.355,1.511a2.3,2.3,0,0,0,.464.029c.343,0,.945-.024,2.013-.109C5375.739,1141.524,5375.723,1141.248,5375.705,1140.965Z" fill="#585836"/>
            <path id="Trazado_3081" data-name="Trazado 3081" d="M5342.269,1121.968l-.184-.005c-.008.265-.014.53-.02.8l-.069,0c-.129,0,.045.081.252.087,1.245.029,1.807.112,1.954.778a41.742,41.742,0,0,1,.121,5.773,19.028,19.028,0,0,1-2.507-.063,11.494,11.494,0,0,0-1.391-.052l0,0c-.014.276-.027.562-.038.86a.392.392,0,0,0,.125.01c.17-.014.719.02,1.25.054.765.05,1.443.09,1.984.09.209,0,.4-.007.562-.02-.051,2.266-.134,4.575-.186,6.035l-.056,1.673a19.569,19.569,0,0,1-.126,2.032l-.007.056c-.1.729-.1.729-.608.861-.141.037-1.666.08-1.666.08-.006.289-.013.572-.019.853h.3a7.03,7.03,0,0,0,1.6-.085c1.035-.269,1.138-.707,1.256-1.593l.008-.056a20.178,20.178,0,0,0,.132-2.125l.057-1.666c.211-5.9.366-11.541.062-12.91C5344.746,1122.026,5343.372,1121.995,5342.269,1121.968Z" fill="#585836"/>
            <path id="Trazado_3082" data-name="Trazado 3082" d="M5343.575,1107.267c-.4,0-.784-.008-1.118-.035l.069-.873c.636.049,1.5.031,2.271.014.373-.008.728-.016,1.038-.016h.6c8.663,0,14.425-.05,17.127-.165.708-.03,1.883-.061,3.139-.094,2.174-.058,4.879-.129,5.338-.208l.149.864c-.484.083-2.569.143-5.463.22-1.252.033-2.42.065-3.126.094-2.715.116-8.5.164-17.165.165h-.6c-.305,0-.654.009-1.018.016C5344.416,1107.258,5343.989,1107.267,5343.575,1107.267Z" fill="#585836"/>
            <path id="Trazado_3083" data-name="Trazado 3083" d="M5357.112,1046.319c-4.717,0-5.506-2.049-5.58-2.283a.657.657,0,1,1,1.253-.4h0s.618,1.368,4.327,1.368c3.668,0,4.324-1.289,4.329-1.3a.657.657,0,0,1,1.248.414C5362.614,1044.342,5361.822,1046.319,5357.112,1046.319Z" fill="#6d6d44"/>
            <path id="Trazado_3084" data-name="Trazado 3084" d="M5359.591,1070.545c.7-.153,1.271-.792.859-1.5a2.764,2.764,0,0,0-1.268-1.006c.18-.691-.351-1.273-1.258-1.443a14.1,14.1,0,0,0-3.582.1.55.55,0,0,0-.539.6.752.752,0,0,0-.078.668c.451,1.222,1.88.865,2.976.918C5356.719,1070.029,5358.451,1070.8,5359.591,1070.545Z" fill="#6d6d44"/>
            <path id="Trazado_3085" data-name="Trazado 3085" d="M5358.394,1065.354a1.913,1.913,0,0,0,2.248-.264.649.649,0,0,0-.01-.8,1.043,1.043,0,0,0-.469-.346.95.95,0,0,0-.4-.044l-.117,0a1.478,1.478,0,0,0-1.535.451A.663.663,0,0,0,5358.394,1065.354Z" fill="#a2a367"/>
            <path id="Trazado_3086" data-name="Trazado 3086" d="M5373.977,1016.149l-.594-3.163a.445.445,0,0,0-.112-.22,18.137,18.137,0,0,0-3.513-2.627.441.441,0,0,0-.458.014c-.278.183-1.66,1.146-1.532,2.177.064.515.46.9,1.179,1.151a13.293,13.293,0,0,1,4.278,3.047.438.438,0,0,0,.752-.379Z" fill="#3f3f33"/>
            <path id="Trazado_3087" data-name="Trazado 3087" d="M5360.435,1012.115a4.964,4.964,0,0,0,7.047.905c1.783-1.344,3.426-3.6-.542-5.934-3.879-2.282-9.967-2.174-9.967-2.174h0s-6.113-.108-9.992,2.174c-3.969,2.336-2.326,4.59-.543,5.934a4.964,4.964,0,0,0,7.047-.905c2.184-2.844,3.222-3.052,3.451-3.059v0l.024,0,.025,0v0C5357.213,1009.063,5358.252,1009.271,5360.435,1012.115Z" fill="#3f3f33"/>
            <path id="Trazado_3088" data-name="Trazado 3088" d="M5356.928,1005.194c3.832,0,7.64.8,10.012,2.33,3.871,2.495,2.325,4.152.542,5.5a5.674,5.674,0,0,1-3.255,1.073,4.651,4.651,0,0,1-3.792-1.978c-2.183-2.844-2.973-3.059-3.45-3.059v0l-.025,0-.024,0v0c-.569,0-1.267.215-3.451,3.059a4.65,4.65,0,0,1-3.792,1.978,5.677,5.677,0,0,1-3.255-1.073c-1.783-1.344-3.345-3.029.543-5.5,2.482-1.575,6.227-2.33,9.947-2.33Zm0-1.314c-4.23,0-8.113.924-10.651,2.534-1.978,1.256-2.968,2.539-3.023,3.923-.067,1.65,1.173,2.813,2.393,3.732a6.972,6.972,0,0,0,4.046,1.338,5.935,5.935,0,0,0,4.835-2.492,9.907,9.907,0,0,1,2.333-2.525l.1-.011.046,0c.177.085.833.506,2.387,2.531a5.934,5.934,0,0,0,4.835,2.492,6.969,6.969,0,0,0,4.046-1.338c.8-.6,2.455-1.849,2.387-3.707-.051-1.381-1.035-2.671-3.009-3.943-2.5-1.614-6.412-2.539-10.723-2.539Z" fill="#a2a367"/>
            <g id="Grupo_1836" data-name="Grupo 1836">
              <path id="Trazado_3089" data-name="Trazado 3089" d="M5353.492,1104.108a3.966,3.966,0,0,0-2.834,0,.674.674,0,0,0-.458.809.653.653,0,0,0,.127.234c.015,1.267,2.735.51,3.321.158A.664.664,0,0,0,5353.492,1104.108Z" fill="#a2a367"/>
              <path id="Trazado_3090" data-name="Trazado 3090" d="M5343.627,1104.827a1.821,1.821,0,0,0,1.706-.559,1.033,1.033,0,0,0,.224-.659c.013-.515.869-.848,1.227-1.075a.661.661,0,0,0,.235-.9c-1.161-1.7-3.713-.789-5.359-.29-.041,1.658-.15,2.78-.113,3.536C5342.239,1104.959,5343.046,1104.8,5343.627,1104.827Z" fill="#6d6d44"/>
              <path id="Trazado_3091" data-name="Trazado 3091" d="M5371.9,1101.5l0-.008a.638.638,0,0,0-.544-.989,12.949,12.949,0,0,0-3.679.17.665.665,0,0,0-.29,1.1c.614.675,1.611.379,2.125,1.09a1.781,1.781,0,0,0,1.872.85,1.34,1.34,0,0,0,1.047-1.22A1.077,1.077,0,0,0,5371.9,1101.5Z" fill="#6d6d44"/>
              <path id="Trazado_3092" data-name="Trazado 3092" d="M5368.048,1078.474a1.144,1.144,0,0,0-.436-1.782,3.719,3.719,0,0,0-1.238-.161c-.777,0-1.17-.452-1.8-.829-.992-.594-2.391-.335-3.476-.235-.714.066-.643,1-.1,1.237a2.214,2.214,0,0,0-.693.832c-.979,1.987,4.877,1.508,5.455,1.49C5366.44,1079,5367.6,1079.143,5368.048,1078.474Z" fill="#6d6d44"/>
              <path id="Trazado_3093" data-name="Trazado 3093" d="M5346.782,1073.262c-1.088.081-2.153.33-3.229.5a.582.582,0,0,0-.344.96.7.7,0,0,0,.087,1.035.633.633,0,0,0,.186.491,3.716,3.716,0,0,0,4.3.322.711.711,0,0,0,.258-.871c1.24-.259,2.514-.7,1.628-1.841C5349.072,1073.083,5347.615,1073.2,5346.782,1073.262Z" fill="#6d6d44"/>
              <path id="Trazado_3094" data-name="Trazado 3094" d="M5373.05,1059.973c-.246-1.573-2.217-1.079-3.332-.67a2.885,2.885,0,0,1,1.415,2.525C5372.17,1061.634,5373.217,1061.029,5373.05,1059.973Z" fill="#a2a367"/>
              <path id="Trazado_3095" data-name="Trazado 3095" d="M5364.846,1101.521a.8.8,0,0,0-.483-.6,3.673,3.673,0,0,0-2.1-.074.559.559,0,0,0-.455.424c-1.024.11-2.079.514-2.072,1.6.009,1.616,2.977,1.1,3.892,1.034.9-.069,3.14.5,3.14-1.068C5366.767,1101.616,5365.838,1101.477,5364.846,1101.521Z" fill="#a2a367"/>
              <path id="Trazado_3096" data-name="Trazado 3096" d="M5361.268,1081.959a4.94,4.94,0,0,0-3.526-.4,2,2,0,0,0-.42.162c-.5.38-.891.755.157,1.7a1.861,1.861,0,0,0,.239.014l.021,0a1.548,1.548,0,0,0,.154.02c.372.049.786.005,1.114.04a3.056,3.056,0,0,0,2.261-.41A.666.666,0,0,0,5361.268,1081.959Z" fill="#6d6d44"/>
              <path id="Trazado_3097" data-name="Trazado 3097" d="M5360.547,1058.812a3.007,3.007,0,0,0-3-.281c-.717.182-.725.972-.052,1.146.039.01-.026.075-.041.113a.53.53,0,0,0,.154.05.682.682,0,0,0,.226.1c.963.244,1.9.487,2.736-.2A.654.654,0,0,0,5360.547,1058.812Z" fill="#6d6d44"/>
              <path id="Trazado_3098" data-name="Trazado 3098" d="M5370.556,1062.924a7.776,7.776,0,0,0-2.494-.285,1.369,1.369,0,0,0-1.175.531.758.758,0,0,0-.109.235c-.131.479.308.941.676,1.2a.659.659,0,0,0,.555.117.717.717,0,0,0,.322.134,5.158,5.158,0,0,0,1.349.072,1.535,1.535,0,0,0,1.341-.861A.792.792,0,0,0,5370.556,1062.924Z" fill="#a2a367"/>
              <path id="Trazado_3099" data-name="Trazado 3099" d="M5364.762,1066.934a.537.537,0,0,0-.128.882,2.412,2.412,0,0,0,1.2.626.589.589,0,0,0,.427.518,4.615,4.615,0,0,0,3.087.12.858.858,0,0,0,.511-1.052,1.51,1.51,0,0,0-.836-.722.568.568,0,0,0-.445-.678A5.179,5.179,0,0,0,5364.762,1066.934Z" fill="#6d6d44"/>
              <path id="Trazado_3100" data-name="Trazado 3100" d="M5351.5,1063.405c.233-.773-.632-.859-.58-.983a3.026,3.026,0,0,0-.921-.376.65.65,0,0,0-.473-.574c-.949-.323-4.994-.27-4.063,1.772.548,1.2,4.289,1.116,5.513.58C5350.933,1063.491,5351.4,1063.726,5351.5,1063.405Z" fill="#6d6d44"/>
              <path id="Trazado_3101" data-name="Trazado 3101" d="M5351.148,1065.233c.586-.288.586-1.034-.194-1.609a7.812,7.812,0,0,0-2.162-.214,1.325,1.325,0,0,0-1.135.513.764.764,0,0,0-.105.227c-.126.463.3.909.654,1.156a.634.634,0,0,0,.535.114.692.692,0,0,0,.311.128,4.926,4.926,0,0,0,1.3.07,1.822,1.822,0,0,0,.815-.269C5351.161,1065.311,5351.113,1065.251,5351.148,1065.233Z" fill="#a2a367"/>
              <path id="Trazado_3102" data-name="Trazado 3102" d="M5361.175,1089.925c-.961,1.022.947,1.747,1.609,1.887a5.9,5.9,0,0,0,2.8-.5,7,7,0,0,1,1.238-.266.653.653,0,0,0,.631.655c1.439.064,3.64.649,4.366-1.056a.667.667,0,0,0-.393-.965C5368.731,1089.071,5363.428,1087.531,5361.175,1089.925Z" fill="#a2a367"/>
              <path id="Trazado_3103" data-name="Trazado 3103" d="M5365.864,1084.913a.674.674,0,0,0-.132,1.032,2.4,2.4,0,0,0,1.237.732.676.676,0,0,0,.44.606c.829.32,2.379.653,3.19.14a1.045,1.045,0,0,0,.528-1.23,1.634,1.634,0,0,0-.864-.845.672.672,0,0,0-.46-.793A4.791,4.791,0,0,0,5365.864,1084.913Z" fill="#6d6d44"/>
              <path id="Trazado_3104" data-name="Trazado 3104" d="M5365.7,1080.732c.05.01.1.013.154.02.372.048.787,0,1.114.04a3.053,3.053,0,0,0,2.26-.41.666.666,0,0,0,0-1.135,4.936,4.936,0,0,0-3.525-.4c-.549.138-1.233.6-1.051,1.26a.759.759,0,0,0,.288.427,1.235,1.235,0,0,0,.739.192Z" fill="#a2a367"/>
              <path id="Trazado_3105" data-name="Trazado 3105" d="M5349.408,1091.906c-.674.233-1.172.933-.681,1.587a2.768,2.768,0,0,0,1.376.853c-.1.707.5,1.224,1.416,1.288a14.112,14.112,0,0,0,3.547-.508.552.552,0,0,0,.467-.659.755.755,0,0,0,0-.672c-.59-1.162-1.967-.642-3.063-.569C5352.32,1092.088,5350.512,1091.526,5349.408,1091.906Z" fill="#6d6d44"/>
              <path id="Trazado_3106" data-name="Trazado 3106" d="M5349.488,1095.733a4.482,4.482,0,0,0-3.015-.128,1.338,1.338,0,0,0-.829,1.374c.085.632.775.848,1.32.825a1.147,1.147,0,0,1,.54-.024c.046-.008.091-.017.137-.024a.974.974,0,0,1,.136-.021l.542-.067a9.422,9.422,0,0,0,1.229-.208c.378-.1.836-.369.812-.827C5350.33,1096.114,5349.923,1095.9,5349.488,1095.733Z" fill="#a2a367"/>
              <path id="Trazado_3107" data-name="Trazado 3107" d="M5352.762,1097.243a1.915,1.915,0,0,0-2.2.521.647.647,0,0,0,.1.8,1.029,1.029,0,0,0,.5.29.937.937,0,0,0,.4,0l.116-.015a1.481,1.481,0,0,0,1.474-.625A.664.664,0,0,0,5352.762,1097.243Z" fill="#6d6d44"/>
              <path id="Trazado_3108" data-name="Trazado 3108" d="M5343.228,1089.547a1.5,1.5,0,0,0,1.15.587.643.643,0,0,0,.629.748c.9.017,1.912.193,2.583-.557a.669.669,0,0,0-.134-1.033,2.1,2.1,0,0,0-.721-.28,1.789,1.789,0,0,0,.878-1.022.653.653,0,0,0-.46-.808,15.707,15.707,0,0,0-2.584-.1.654.654,0,0,0-.585.925A1.141,1.141,0,0,0,5343.228,1089.547Z" fill="#a2a367"/>
              <path id="Trazado_3109" data-name="Trazado 3109" d="M5351.55,1082.939a.652.652,0,0,1-.45,1.116c-.81-.02-2.1-.3-2.389-1.166-.219-.651.4-1.122.979-1.129a3.294,3.294,0,0,1,.812.132c.115.028.229.06.343.088l.114.028.027.007A.686.686,0,0,1,5351.55,1082.939Z" fill="#6d6d44"/>
              <path id="Trazado_3110" data-name="Trazado 3110" d="M5366.749,1097.273c-.23-1.088-1.932-.536-2.64-.949a.557.557,0,0,0,.218-.856c-.691-.961-2.552-1.669-3.65-.885a.909.909,0,0,0-.407,1.111c.071.208.194.391.265.6.062.183-.435.443-.536.6-.742,1.148.145,2.009,1.281,2.121a15.571,15.571,0,0,0,3.529-.291C5365.606,1098.612,5366.982,1098.384,5366.749,1097.273Z" fill="#6d6d44"/>
              <path id="Trazado_3111" data-name="Trazado 3111" d="M5350.517,1076.125a.674.674,0,0,0-.133,1.032,2.417,2.417,0,0,0,1.238.732.671.671,0,0,0,.44.6c.829.321,2.379.654,3.189.141a1.042,1.042,0,0,0,.528-1.23,1.637,1.637,0,0,0-.864-.845.671.671,0,0,0-.459-.793A4.79,4.79,0,0,0,5350.517,1076.125Z" fill="#a2a367"/>
              <path id="Trazado_3112" data-name="Trazado 3112" d="M5363.386,1084.413a.564.564,0,0,1-.2,1.056c-.791.177-2.1.244-2.564-.42-.349-.5.155-1.049.714-1.194a3.73,3.73,0,0,1,.817-.082l.351-.007c.039,0,.077,0,.116,0h.027A.6.6,0,0,1,5363.386,1084.413Z" fill="#a2a367"/>
            </g>
            <path id="Trazado_3113" data-name="Trazado 3113" d="M5373.265,1065.525l-.876-19.664a1.205,1.205,0,0,0-1.049-1.315l-3.506-.876a1.2,1.2,0,0,0-1.048,1.314l.876,20.541c0,.726.617,14.914,4.759,16.886,0,0,1.214.329,1.214-.767S5373.265,1066.251,5373.265,1065.525Z" fill="#3f3f33"/>
            <path id="Trazado_3114" data-name="Trazado 3114" d="M5373.032,1053.806a.4.4,0,0,1-.412.382l-5.355.2a.4.4,0,0,1-.441-.35l-.068-1.841a.4.4,0,0,1,.413-.382l5.355-.2a.4.4,0,0,1,.44.35Z" fill="#aaa0a0"/>
            <path id="Trazado_3115" data-name="Trazado 3115" d="M5339.952,1065.525l.876-19.664a1.2,1.2,0,0,1,1.048-1.315l3.506-.876a1.2,1.2,0,0,1,1.049,1.314l-.876,20.541c0,.726-.618,14.914-4.759,16.886,0,0-1.214.329-1.214-.767S5339.952,1066.251,5339.952,1065.525Z" fill="#3f3f33"/>
            <path id="Trazado_3116" data-name="Trazado 3116" d="M5340.185,1053.806a.4.4,0,0,0,.412.382l5.355.2a.4.4,0,0,0,.44-.35l.069-1.841a.4.4,0,0,0-.413-.382l-5.354-.2a.4.4,0,0,0-.441.35Z" fill="#aaa0a0"/>
          </g>
          <g id="Grupo_1845" data-name="Grupo 1845">
            <path id="Trazado_3117" data-name="Trazado 3117" d="M5320.247,1035.513c1.172,3.641-1.171,7.652-5.23,8.958s-8.3-.586-9.473-4.227,1.17-7.652,5.23-8.958S5319.075,1031.872,5320.247,1035.513Z" fill="#493320"/>
            <path id="Trazado_3118" data-name="Trazado 3118" d="M5310.133,1039.8h-7.652v9.348h7.945V1039.8Z" fill="#f1cb9a"/>
            <path id="Trazado_3119" data-name="Trazado 3119" d="M5313.909,1029.42a4.153,4.153,0,1,0,4.813-3.173A4.077,4.077,0,0,0,5313.909,1029.42Z" fill="#f1cb9a"/>
            <path id="Trazado_3120" data-name="Trazado 3120" d="M5298.464,1029.42a4.153,4.153,0,1,1-4.813-3.173A4.076,4.076,0,0,1,5298.464,1029.42Z" fill="#f1cb9a"/>
            <path id="Trazado_3121" data-name="Trazado 3121" d="M5316.976,1014.428c-2.2-2.822-10.706-4.814-10.823-4.819s-8.622,2-10.824,4.819-2.5,6.383-2.324,9.79c.132,2.575.615,6.731.75,9.306,1.392,5.459,6.1,8.615,12.075,9.19l.323-.011.323.011c5.972-.575,10.682-3.731,12.074-9.19.135-2.575.619-6.731.75-9.306C5319.474,1020.811,5319.181,1017.253,5316.976,1014.428Z" fill="#f1cb9a"/>
            <path id="Trazado_3122" data-name="Trazado 3122" d="M5314.621,1017.487c.153,2.332-16.914,3.367-20.494,10.6-.861,1.739-2.259-1.262-2.259-4.617a27.593,27.593,0,0,1,.452-5.564c1.139-4.769,4.582-9.607,13.867-9.607,8.592,0,12.732,4.249,14,10.7a24.838,24.838,0,0,1,.423,8.374s-.644-.99-1.252.948C5318.835,1029.985,5314.971,1022.818,5314.621,1017.487Z" fill="#493320"/>
            <path id="Trazado_3123" data-name="Trazado 3123" d="M5308.462,1091.779" fill="#fff" stroke="#8d6c44" stroke-linecap="round" stroke-miterlimit="10" stroke-width="2"/>
            <path id="Trazado_3124" data-name="Trazado 3124" d="M5305.8,1034.314l-.039,0a.434.434,0,0,1-.393-.471c.059-.658.151-3.242.151-4.033a.434.434,0,1,1,.868,0c0,.751-.088,3.375-.155,4.111A.432.432,0,0,1,5305.8,1034.314Z" fill="#ac8565"/>
            <path id="Trazado_3125" data-name="Trazado 3125" d="M5306.381,1038.17a4.817,4.817,0,0,1-3.491-1.184.434.434,0,1,1,.643-.582,4.278,4.278,0,0,0,3.3.883,3.367,3.367,0,0,0,2.328-.837.434.434,0,0,1,.717.489,3.979,3.979,0,0,1-2.986,1.214C5306.724,1038.164,5306.555,1038.17,5306.381,1038.17Z" fill="#ac8565"/>
            <path id="Trazado_3126" data-name="Trazado 3126" d="M5301.35,1028.655a1.5,1.5,0,1,1-1.476-1.753A1.632,1.632,0,0,1,5301.35,1028.655Z" fill="#372313"/>
            <path id="Trazado_3127" data-name="Trazado 3127" d="M5301.819,1026.262a.467.467,0,0,1-.352-.158,1.929,1.929,0,0,0-1.443-.611,2.413,2.413,0,0,0-1.706.623.47.47,0,1,1-.682-.647,3.311,3.311,0,0,1,2.4-.916,2.862,2.862,0,0,1,2.13.928.472.472,0,0,1-.041.664A.467.467,0,0,1,5301.819,1026.262Z" fill="#372313"/>
            <path id="Trazado_3128" data-name="Trazado 3128" d="M5311.673,1026.21a.469.469,0,0,1-.369-.76,2.674,2.674,0,0,1,1.95-.88,2.8,2.8,0,0,1,2.194.846.47.47,0,1,1-.68.649,1.884,1.884,0,0,0-1.469-.555,1.786,1.786,0,0,0-1.256.52A.47.47,0,0,1,5311.673,1026.21Z" fill="#372313"/>
            <path id="Trazado_3129" data-name="Trazado 3129" d="M5314.692,1028.655a1.5,1.5,0,1,1-1.477-1.753A1.632,1.632,0,0,1,5314.692,1028.655Z" fill="#372313"/>
            <path id="Trazado_3130" data-name="Trazado 3130" d="M5301.478,1033.085c0,.831-.975,1.5-2.177,1.5s-2.177-.673-2.177-1.5.974-1.5,2.177-1.5S5301.478,1032.255,5301.478,1033.085Z" fill="#e9ae95"/>
            <path id="Trazado_3131" data-name="Trazado 3131" d="M5315.965,1033.085c0,.831-.974,1.5-2.177,1.5s-2.177-.673-2.177-1.5.974-1.5,2.177-1.5S5315.965,1032.255,5315.965,1033.085Z" fill="#e9ae95"/>
            <path id="Trazado_3132" data-name="Trazado 3132" d="M5327.186,1104.632a.781.781,0,0,0,1.535.055c.026-.244-.321-2.582-.075-2.607a1.117,1.117,0,0,1,.671.254c.892.607.613,4.6.936,5.181.932,1.687,3.093-.945,3.824-3.579.743-2.677-.028-7.029-.028-7.029l-6.563,1.823c-.675.131-1.168.9-.914,2.3Z" fill="#f1cb9a"/>
            <path id="Trazado_3133" data-name="Trazado 3133" d="M5332.559,1106.98a28.3,28.3,0,0,0-.29-4.12.328.328,0,1,0-.649.091,25.413,25.413,0,0,1,.27,4.53,1.41,1.41,0,0,1-.027.207A5.125,5.125,0,0,0,5332.559,1106.98Z" fill="#be9976"/>
            <g id="Grupo_1838" data-name="Grupo 1838">
              <path id="Trazado_3134" data-name="Trazado 3134" d="M5322.331,1020.387c-.129-2.367-1.082-6.6-2.506-8.513-4.59-6.154-12.245-6.215-13.367-6.188-1.122-.027-8.777.034-13.366,6.188-1.426,1.911-2.377,6.146-2.507,8.513-.4,7.273-1.2,9.6-1.2,9.6,3.958-6.224,5.621-7.572,7.619-7.973,1.881-.377,9.151-.774,9.373-.776h.166c.222,0,7.493.4,9.374.776,2,.4,3.66,1.749,7.619,7.974C5323.534,1029.985,5322.731,1027.66,5322.331,1020.387Z" fill="#858454"/>
              <path id="Trazado_3135" data-name="Trazado 3135" d="M5323.886,1029.072a7.813,7.813,0,0,1-1.578-2.489c-1.264-2.978-2.7-4.58-4.951-5.53-1.712-.721-8.14-.839-10.871-.857h-.1c-2.756.019-9.127.139-10.829.857-2.253.95-3.688,2.552-4.952,5.53a7.815,7.815,0,0,1-1.577,2.489,1.04,1.04,0,0,0,.994,1.826,6.509,6.509,0,0,0,2.02-2.519c.417,2.993,1.554,7.372,4.639,10.531a12.209,12.209,0,0,0,4.722,3.011c.541.945,2.6,1.851,5.052,1.851s4.513-.906,5.053-1.852a12.192,12.192,0,0,0,4.721-3.01c3.085-3.159,4.222-7.538,4.639-10.531a6.52,6.52,0,0,0,2.022,2.519,1.017,1.017,0,0,0,.489.125,1.042,1.042,0,0,0,.5-1.951Zm-8.843,8.676a10.632,10.632,0,0,1-4.7,2.8,49.826,49.826,0,0,0-7.777,0,10.636,10.636,0,0,1-4.691-2.792c-3.913-4-4.357-10.484-4.4-12.235a5.877,5.877,0,0,1,2.893-2.55c.9-.378,5.043-.663,10.09-.7,5.048.032,9.2.317,10.091.7a5.881,5.881,0,0,1,2.893,2.55C5319.4,1027.268,5318.96,1033.737,5315.043,1037.748Z" fill="#555543"/>
              <path id="Trazado_3136" data-name="Trazado 3136" d="M5322.65,1019.324l-.563-3a.421.421,0,0,0-.106-.209,17.213,17.213,0,0,0-3.332-2.492.418.418,0,0,0-.435.013c-.263.173-1.575,1.087-1.453,2.065.06.489.436.856,1.118,1.092a12.608,12.608,0,0,1,4.059,2.89.415.415,0,0,0,.712-.36Z" fill="#3f3f33"/>
              <path id="Trazado_3137" data-name="Trazado 3137" d="M5294.674,1013.637a.413.413,0,0,0-.434-.013,17.131,17.131,0,0,0-3.333,2.492.422.422,0,0,0-.106.209l-.564,3a.416.416,0,0,0,.714.36,12.567,12.567,0,0,1,4.057-2.89c.683-.236,1.059-.6,1.119-1.092C5296.248,1014.724,5294.938,1013.81,5294.674,1013.637Z" fill="#3f3f33"/>
              <path id="Trazado_3138" data-name="Trazado 3138" d="M5315.975,1010.727c-3.68-2.165-9.454-2.062-9.454-2.062h0s-5.8-.1-9.48,2.062c-3.765,2.216-2.206,4.355-.515,5.629a4.708,4.708,0,0,0,6.685-.858c2.072-2.7,3.056-2.9,3.274-2.9v0l.023,0,.023,0v0c.217.006,1.2.2,3.274,2.9a4.708,4.708,0,0,0,6.685.858C5318.181,1015.082,5319.74,1012.943,5315.975,1010.727Z" fill="#3f3f33"/>
              <path id="Trazado_3139" data-name="Trazado 3139" d="M5306.478,1008.933c3.635,0,7.246.76,9.5,2.21,3.671,2.366,2.206,3.939.515,5.213a5.384,5.384,0,0,1-3.088,1.018,4.407,4.407,0,0,1-3.6-1.876c-2.072-2.7-2.822-2.9-3.274-2.9v0l-.023,0-.023,0v0c-.54,0-1.2.2-3.274,2.9a4.408,4.408,0,0,1-3.6,1.876,5.384,5.384,0,0,1-3.088-1.018c-1.691-1.274-3.174-2.872.515-5.213,2.355-1.495,5.907-2.21,9.437-2.21Zm0-1.247c-4.014,0-7.7.876-10.1,2.4-1.877,1.191-2.815,2.408-2.867,3.722-.064,1.564,1.112,2.667,2.27,3.54a6.612,6.612,0,0,0,3.838,1.269,5.631,5.631,0,0,0,4.587-2.364,9.339,9.339,0,0,1,2.213-2.4l.094-.011.043.005a8.748,8.748,0,0,1,2.264,2.4,5.63,5.63,0,0,0,4.587,2.364,6.612,6.612,0,0,0,3.838-1.269c.756-.569,2.329-1.754,2.264-3.517-.048-1.31-.982-2.534-2.854-3.74-2.375-1.531-6.083-2.409-10.172-2.409Z" fill="#a2a367"/>
            </g>
            <g id="Grupo_1839" data-name="Grupo 1839">
              <path id="Trazado_3140" data-name="Trazado 3140" d="M5295.164,1021.883a1.09,1.09,0,0,1-.368-1.364.813.813,0,0,0-1.115-.237c-.065-.108-.108-.173-.108-.173-.7-.875-1.969.192-1.969.192a74,74,0,0,1-6.337,3.909,20.768,20.768,0,0,0-3.578,2.59c.253,2.013,1.332,2.116,2.122,3.978l.172-.01a2,2,0,0,0,.754-.239c-.164.251-.234.479-.133.638a1.336,1.336,0,0,0,1.846.15l6.048-3.539a1.337,1.337,0,0,0,.658-1.731.855.855,0,0,0-.222-.228l1.491-1.265C5295.27,1023.827,5295.711,1022.518,5295.164,1021.883Z" fill="#f1cb9a"/>
              <path id="Trazado_3141" data-name="Trazado 3141" d="M5295.385,1022.388a1,1,0,0,0-.221-.505,1.134,1.134,0,0,0-.2-.179c-.251.473-1.183,1.509-4.274,3.748l-.272.2a.366.366,0,0,0,.439.586c.055-.042.145-.107.262-.192A21.6,21.6,0,0,0,5295.385,1022.388Z" fill="#be9976"/>
              <path id="Trazado_3142" data-name="Trazado 3142" d="M5293.478,1025.334a16.25,16.25,0,0,1-2.546,1.875.365.365,0,0,0,.182.683.373.373,0,0,0,.181-.048,15.3,15.3,0,0,0,1.99-1.392.873.873,0,0,0-.129-.405.855.855,0,0,0-.222-.228l.631-.535A.362.362,0,0,0,5293.478,1025.334Z" fill="#be9976"/>
              <path id="Trazado_3143" data-name="Trazado 3143" d="M5293.681,1020.282c-.052-.087-.089-.145-.1-.164l0,.013c-.111.578-1.392,1.727-3.81,3.415-.186.129-.327.228-.407.288a.366.366,0,0,0,.22.658.356.356,0,0,0,.218-.074c.076-.056.211-.15.387-.272,1.922-1.342,3.914-2.852,4.11-3.878a.328.328,0,0,0,0-.093A.881.881,0,0,0,5293.681,1020.282Z" fill="#be9976"/>
            </g>
            <g id="Grupo_1841" data-name="Grupo 1841">
              <path id="Trazado_3144" data-name="Trazado 3144" d="M5320.809,1092.8a.875.875,0,0,0-.7-.351h-13.827c-2.427,0-10.411.164-12.8.214l-.085,0a.882.882,0,0,0-.76.47c-.07.135-1.728,3.376-2.014,10.034a.879.879,0,0,0,.875.914h0c5.191-.018,10.548-.117,15.728-.213,5.1-.094,10.379-.19,15.49-.211a.875.875,0,0,0,.869-.963C5322.88,1095.635,5320.894,1092.908,5320.809,1092.8Z" fill="#8b8b58"/>
              <path id="Trazado_3145" data-name="Trazado 3145" d="M5329.634,1078.162q-.321-1.2-.661-2.4c-.231-.847-.457-1.666-.675-2.448a.749.749,0,0,0,.363-.858,46.487,46.487,0,0,0-1.477-6.6,60.984,60.984,0,0,0-2.01-5.925.751.751,0,0,0-.924-.522l-.236.066c-.7-1.947-1.21-3.166-1.557-3.916l-.011.006c-.722-2.021-1.176-3.23-1.176-3.23-1.928-2.852-4.42-4.056-8.9-5.764l-1.749-.716s-1.049,1.811-4.142,1.811-4.143-1.811-4.143-1.811l-2.362.4c-.708.142-7.016.854-10.913-.333-2.528-.411-10.946-4.217-11.415-5.3-.724-1.669,6.14-6.289,9.343-9.018,1.193-1.017-2.151-5.814-3.788-6.557-4.17,2.811-18.037,13.255-15.46,17.68,2.7,4.633,7.746,7.675,12.395,10.041,1.989,1.012,13.152,5.119,13.671,6.621a10.29,10.29,0,0,0,.9,4.655c.588,1.292,3.207,3.637,3.207,3.637.76,2.223.205,7.034-.633,10.02-.9,3.227-3.116,9.034-4.235,13.51-.188.751-.357,1.528-.509,2.322,2.924.189,8.729.442,13.942.416,5.211.026,11.454-.227,14.38-.416-.153-.794-.322-1.571-.51-2.322-1.119-4.476-3.767-10.283-4.673-13.51-.838-2.986-1.393-7.8-.633-10.02a10.506,10.506,0,0,0,2.331-2.76l.433,1.018c1.43,4.088,2.51,8.584,4.206,14.208a143.293,143.293,0,0,1,4.178,18.592s1.31.73,4.679.341c2.681-.308,3.595-1.4,3.595-1.4S5332.411,1088.5,5329.634,1078.162Z" fill="#8b8b58"/>
              <path id="Trazado_3146" data-name="Trazado 3146" d="M5308.66,1050.565a.509.509,0,0,1,.227.094.468.468,0,0,1,.391.083c.261.181.571.507.478.845.172.048.336.09.484.123a10.9,10.9,0,0,0,4.511-.331.555.555,0,0,0,.242-.916,1.962,1.962,0,0,0-.151-.151.594.594,0,0,0-.686-.6c-.092.016-.183.025-.274.038-.055-.018-.108-.037-.165-.052a.52.52,0,0,0-.512-.675c-.576.013-6.338-.817-5.852.882a1.518,1.518,0,0,0,.355.609A3.624,3.624,0,0,1,5308.66,1050.565Z" fill="#6d6d44"/>
              <path id="Trazado_3147" data-name="Trazado 3147" d="M5301.49,1049.293c-.908.068-1.8.275-2.693.414a.484.484,0,0,0-.286.8.582.582,0,0,0,.072.863.525.525,0,0,0,.155.41,3.1,3.1,0,0,0,3.588.268.594.594,0,0,0,.216-.726c1.034-.216,2.1-.583,1.357-1.536C5303.4,1049.143,5302.186,1049.242,5301.49,1049.293Z" fill="#6d6d44"/>
              <path id="Trazado_3148" data-name="Trazado 3148" d="M5292.371,1047.832a.451.451,0,0,0-.385-.184.47.47,0,0,0-.612.51,10.5,10.5,0,0,0,.2,1.425,6.726,6.726,0,0,1,.313.821c-.4.53.3,1.259.741.806a.5.5,0,0,0,.306-.347,1.551,1.551,0,0,0,.052-.277A3.025,3.025,0,0,0,5292.371,1047.832Z" fill="#6d6d44"/>
              <path id="Trazado_3149" data-name="Trazado 3149" d="M5289.878,1051.729c-1.249-.262-1.621,1.914-1.536,3.772-.049.229-.093.46-.137.691.825.259,1.349.7,2.215,1.016a25.435,25.435,0,0,0,.39-2.88C5290.836,1053.553,5290.9,1051.944,5289.878,1051.729Z" fill="#6d6d44"/>
              <path id="Trazado_3150" data-name="Trazado 3150" d="M5286.88,1047.5a1.821,1.821,0,0,0-.235-.35.548.548,0,0,0-.775,0,4.024,4.024,0,0,0-.78,1.437c-.007.02-.014.046-.022.068-.944-.212-1.352,1.548-1.308,2.233a.553.553,0,0,0,.694.528,1.874,1.874,0,0,0,.669-.432,14.876,14.876,0,0,0-.083,1.487.553.553,0,0,0,.824.474c.972-.575,1.219-1.975,1.232-3.284a3.969,3.969,0,0,0-.124-1.959A.552.552,0,0,0,5286.88,1047.5Z" fill="#6d6d44"/>
              <path id="Trazado_3151" data-name="Trazado 3151" d="M5281.459,1045.682a.922.922,0,0,0,1.328.321,1.5,1.5,0,0,0,.18-.144.826.826,0,0,0,.977-.115,1.751,1.751,0,0,0,.458-1.376c-.747-.345-1.508-.715-2.237-1.09C5281.622,1043.947,5281,1044.851,5281.459,1045.682Z" fill="#6d6d44"/>
              <path id="Trazado_3152" data-name="Trazado 3152" d="M5280,1047.192a2.077,2.077,0,0,0-.029-.81.91.91,0,0,0-1.357-.533,5.039,5.039,0,0,0-1.965,2.532,2.238,2.238,0,0,0-.261,1.54.787.787,0,0,0,1.278.332,3.725,3.725,0,0,0,1.029-1.658,3.149,3.149,0,0,0,.029.672.555.555,0,0,0,.806.328,2.491,2.491,0,0,0,1.1-1.729A.549.549,0,0,0,5280,1047.192Z" fill="#6d6d44"/>
              <path id="Trazado_3153" data-name="Trazado 3153" d="M5277.389,1039.128a3.312,3.312,0,0,0-3.9-.58.552.552,0,0,0,0,.947,4.877,4.877,0,0,0,.941.32.52.52,0,0,0-.1.218.666.666,0,0,0,.1.484c-1,.506-2.074.522-2.009,1.843a.558.558,0,0,0,.693.528,13.772,13.772,0,0,0,3.42-.9c.578-.249,1.347-.157,1.775-.7a2.25,2.25,0,0,1-.674-.656c-.136-.312-.006-.727.315-1.213l-.014-.011A3.843,3.843,0,0,0,5277.389,1039.128Z" fill="#6d6d44"/>
              <path id="Trazado_3154" data-name="Trazado 3154" d="M5269.75,1041.271a1.633,1.633,0,0,0,.651-.825.554.554,0,0,0-.383-.674c-1.036-.341-1.737.283-2.4.97a2.042,2.042,0,0,0,.122,1.988c.05.087.106.168.158.252a11.976,11.976,0,0,0,1.814-1.453C5269.946,1041.3,5269.91,1041.463,5269.75,1041.271Z" fill="#6d6d44"/>
              <path id="Trazado_3155" data-name="Trazado 3155" d="M5275.071,1033.722a9.552,9.552,0,0,1,1.811.349c.521.118,1.108-.008,1.241-.6a1.437,1.437,0,0,0-.756-1.415,4.3,4.3,0,0,0-2.23-.622c-.64.575-1.274,1.165-1.888,1.763a1.987,1.987,0,0,0,.134.178C5273.727,1033.784,5274.608,1033.7,5275.071,1033.722Zm.405-1.131c.166.026.325.058.468.088a3.615,3.615,0,0,1,.485.136,6.81,6.81,0,0,0-.978-.16A.5.5,0,0,0,5275.476,1032.591Z" fill="#6d6d44"/>
              <path id="Trazado_3156" data-name="Trazado 3156" d="M5280.242,1032.08c-1.829.357.916,3.151,1.267,3.883.647-.527,1.324-1.061,1.994-1.585a4.7,4.7,0,0,0-.918-1.169C5282.017,1032.643,5281.108,1031.911,5280.242,1032.08Z" fill="#6d6d44"/>
              <path id="Trazado_3157" data-name="Trazado 3157" d="M5280.925,1028.592l.016.006a1.29,1.29,0,0,1,.1.11s.127.186.17.252c.169.256.332.513.523.754a1.008,1.008,0,0,0,1.5.315c.57-.449.123-1.249-.223-1.659a3.331,3.331,0,0,0-1.3-.963.443.443,0,0,0-.361.013.533.533,0,0,0-.623.239.582.582,0,0,0-.062.375A.466.466,0,0,0,5280.925,1028.592Z" fill="#6d6d44"/>
              <path id="Trazado_3158" data-name="Trazado 3158" d="M5274.623,1046.806a.567.567,0,0,0-.547-.546,1.888,1.888,0,0,0,.041-.878.554.554,0,0,0-.674-.383c-1.058.214-1.635,1.178-2.091,2.074a27.071,27.071,0,0,0,2.267,1.827A2.966,2.966,0,0,0,5274.623,1046.806Z" fill="#a2a367"/>
              <path id="Trazado_3159" data-name="Trazado 3159" d="M5276.779,1044.228a3.081,3.081,0,0,0,1.906-1.966.548.548,0,0,0-.383-.674.5.5,0,0,0-.344.021.529.529,0,0,0-.444.034,2.365,2.365,0,0,0-1.429,2.057A.556.556,0,0,0,5276.779,1044.228Z" fill="#a2a367"/>
              <path id="Trazado_3160" data-name="Trazado 3160" d="M5271.114,1041.831a.7.7,0,0,0-.519-.015.52.52,0,0,0-.318.156c-.06.059-.117.118-.175.176-.023.022-.047.045-.069.068-.007.007-.011.015-.018.022a2.411,2.411,0,0,0-.55.829.544.544,0,0,0,.141.533.57.57,0,0,0,.533.141,1.7,1.7,0,0,0,1.358-1.235A.568.568,0,0,0,5271.114,1041.831Z" fill="#a2a367"/>
              <path id="Trazado_3161" data-name="Trazado 3161" d="M5276.017,1037.618c.688.033,1.769-.209,1.3-1.137a1.045,1.045,0,0,0-.284-.334.565.565,0,0,0-.05-.326,3.109,3.109,0,0,0-2.233-1.272c-.72-.106-1.481.431-1.268,1.1a1.49,1.49,0,0,0-1.026.221.556.556,0,0,0,0,.947A7.026,7.026,0,0,0,5276.017,1037.618Z" fill="#a2a367"/>
              <path id="Trazado_3162" data-name="Trazado 3162" d="M5279.61,1030.069c.358-.483-.039-1.193-.466-1.477a2.039,2.039,0,0,0-.407-.206c-.53.425-1.077.874-1.631,1.34C5277.672,1030.354,5279.029,1030.854,5279.61,1030.069Z" fill="#a2a367"/>
              <path id="Trazado_3163" data-name="Trazado 3163" d="M5284.969,1029.753a.917.917,0,0,0,.244-1.405,3.666,3.666,0,0,0-1.054-.886.515.515,0,0,0-.754.246.521.521,0,0,0-.071.288C5283.357,1028.771,5283.98,1030.22,5284.969,1029.753Z" fill="#a2a367"/>
              <path id="Trazado_3164" data-name="Trazado 3164" d="M5283.5,1049.158a.91.91,0,0,0-.263-.486.554.554,0,0,0-.775,0,11.738,11.738,0,0,0-1.108,1.557c-.308.515-.773,1.374-.276,1.92.592.65,1.547.064,1.94-.5a2.81,2.81,0,0,0,.5-2.34A.541.541,0,0,0,5283.5,1049.158Z" fill="#a2a367"/>
              <path id="Trazado_3165" data-name="Trazado 3165" d="M5327.217,1095.52c.7-.294,2.018-.479,2.281-1.3.295-.923-1.26-1.167-1.831-1.127a7.654,7.654,0,0,0-2.346.655c.154.8.287,1.517.4,2.147A3.97,3.97,0,0,0,5327.217,1095.52Z" fill="#6d6d44"/>
              <path id="Trazado_3166" data-name="Trazado 3166" d="M5329.228,1089.441a.726.726,0,0,0,.224,1.207,2.3,2.3,0,0,1,2.042.407.8.8,0,0,1,.217.537,2.2,2.2,0,0,0,.475.208,1.528,1.528,0,0,0,.894-.042c-.21-.875-.44-1.826-.688-2.839-.022,0-.038-.014-.061-.016C5331.436,1088.826,5329.932,1088.709,5329.228,1089.441Z" fill="#6d6d44"/>
              <path id="Trazado_3167" data-name="Trazado 3167" d="M5326.162,1085.136c.079-.546.008-.455.587-.4.4.037.994-.051,1.18-.476a.738.738,0,0,0-.309-1.1,2.364,2.364,0,0,0,.941-.973c.375-.942-.979-1.145-1.587-1.123-.873.033-4.078.593-3.33,2.037a.483.483,0,0,0,.277.249.751.751,0,0,0,.036.651,1.257,1.257,0,0,0,.581.442c-.34.4-.558.868-.17,1.362.24.307.81.259,1.134.184A.974.974,0,0,0,5326.162,1085.136Z" fill="#6d6d44"/>
              <path id="Trazado_3168" data-name="Trazado 3168" d="M5326.033,1075.873a.557.557,0,0,0-.326-.8,3.031,3.031,0,0,0-1.389.01c.088-.123.186-.242.257-.361a.549.549,0,0,0-.2-.748,2.082,2.082,0,0,0-2.182.449.513.513,0,0,0-.153.216.622.622,0,0,0-.418.321c-.239.554.436,1.046.8.747a2.937,2.937,0,0,0-.315.407.551.551,0,0,0,.472.823C5323.652,1076.861,5325.483,1077.065,5326.033,1075.873Z" fill="#6d6d44"/>
              <path id="Trazado_3169" data-name="Trazado 3169" d="M5320.988,1057.318a.952.952,0,0,0-.839-1.276,3.136,3.136,0,0,0-1.016.219c-.607.22-1.043-.028-1.642-.148a4.925,4.925,0,0,0-2.791.784c-.541.251-.226.962.27,1a1.809,1.809,0,0,0-.311.844c-.214,1.83,4.243-.176,4.691-.351C5319.874,1058.181,5320.823,1057.966,5320.988,1057.318Z" fill="#6d6d44"/>
              <path id="Trazado_3170" data-name="Trazado 3170" d="M5321.271,1065.5a.545.545,0,0,0-.2-.749,2.512,2.512,0,0,0-2.5.364.573.573,0,0,0,.315,1.04.56.56,0,0,0,.2.041A2.369,2.369,0,0,0,5321.271,1065.5Z" fill="#6d6d44"/>
              <path id="Trazado_3171" data-name="Trazado 3171" d="M5318.681,1050.8c.122-.063.247-.123.378-.186a.556.556,0,0,1,.748.2c.006.011.01.024.015.036a.714.714,0,0,1,.083.016.6.6,0,0,1,.275.186c.019-.007.038-.017.057-.024a10.61,10.61,0,0,0-1.537-1.379,1.206,1.206,0,0,0-.227.41A.768.768,0,0,0,5318.681,1050.8Z" fill="#6d6d44"/>
              <path id="Trazado_3172" data-name="Trazado 3172" d="M5319.822,1050.849c0-.012-.009-.025-.015-.036a.556.556,0,0,0-.748-.2c-.131.063-.256.123-.378.186a2.261,2.261,0,0,0-.851.678.551.551,0,0,0,.327.8c.76.268,1.876.159,2.13-.746a.528.528,0,0,0-.107-.487.6.6,0,0,0-.275-.186A.714.714,0,0,0,5319.822,1050.849Z" fill="#a2a367"/>
              <path id="Trazado_3173" data-name="Trazado 3173" d="M5322.367,1057.7a.552.552,0,0,0,.2.748,1.556,1.556,0,0,0,.968.2q-.294-.844-.559-1.6A2.928,2.928,0,0,0,5322.367,1057.7Z" fill="#a2a367"/>
              <path id="Trazado_3174" data-name="Trazado 3174" d="M5326.141,1078.064a.55.55,0,0,0,.381.673,4.447,4.447,0,0,0,.643.085c-.019.029-.039.054-.058.084a.55.55,0,0,0,.326.8,4.934,4.934,0,0,0,2.573-.149c-.123-.464-.246-.929-.372-1.4q-.177-.654-.358-1.311C5328.123,1076.5,5326.486,1076.817,5326.141,1078.064Z" fill="#a2a367"/>
              <path id="Trazado_3175" data-name="Trazado 3175" d="M5328.3,1083.661a.542.542,0,0,0,.374.929c.674-.017,1.746-.253,1.987-.97.182-.542-.333-.934-.814-.94a2.74,2.74,0,0,0-.676.111c-.095.023-.19.049-.285.073-.032.009-.063.015-.095.022l-.022.006A.57.57,0,0,0,5328.3,1083.661Z" fill="#a2a367"/>
              <path id="Trazado_3176" data-name="Trazado 3176" d="M5329.452,1090.648c-.164.017-.322.034-.469.044l-.118.007a.493.493,0,0,0-.268-.445,1.289,1.289,0,0,0-.291-.115.51.51,0,0,0-.256-.492,1.622,1.622,0,0,0-2.172.551c-.275.577.05.985.518,1.243a.587.587,0,0,0,.1.34.6.6,0,0,0,.554.646c1.215.024,2.627.576,3.817.2a1.177,1.177,0,0,0,.849-1.036.8.8,0,0,0-.217-.537A2.3,2.3,0,0,0,5329.452,1090.648Z" fill="#a2a367"/>
              <path id="Trazado_3177" data-name="Trazado 3177" d="M5330.985,1097.128c.643.7,1.643.472,2.555.171a2.529,2.529,0,0,0,.844.03c-.082-.362-.226-.994-.425-1.849a4.607,4.607,0,0,0-2.974.875A.554.554,0,0,0,5330.985,1097.128Z" fill="#a2a367"/>
              <path id="Trazado_3178" data-name="Trazado 3178" d="M5289.89,1047.028c-.611.531-.478,1.312-.465,2.032a.51.51,0,0,0,.219.425c-.091.471.679.823,1.046.339a2.716,2.716,0,0,0,.061-2.685A.557.557,0,0,0,5289.89,1047.028Z" fill="#a2a367"/>
              <path id="Trazado_3179" data-name="Trazado 3179" d="M5295.17,1055.7a2.719,2.719,0,0,0,.042-.9.6.6,0,0,0-.324-.466.457.457,0,0,0-.383-.368,1.355,1.355,0,0,0-1.141,2.277,1.205,1.205,0,0,0,.862.314.552.552,0,0,0,1.027-.38A4.265,4.265,0,0,1,5295.17,1055.7Z" fill="#a2a367"/>
              <path id="Trazado_3180" data-name="Trazado 3180" d="M5307.089,1051.927a5.483,5.483,0,0,0,1.761.2.969.969,0,0,0,.829-.374.522.522,0,0,0,.077-.167c.093-.338-.217-.664-.478-.845a.468.468,0,0,0-.391-.083.509.509,0,0,0-.227-.094,3.624,3.624,0,0,0-.952-.051,1.08,1.08,0,0,0-.946.608A.558.558,0,0,0,5307.089,1051.927Z" fill="#a2a367"/>
              <path id="Trazado_3181" data-name="Trazado 3181" d="M5325.613,1132.275a76.992,76.992,0,0,0-.789-7.837.944.944,0,0,0-.986-.9l-.179.008c-.068-.957-.139-1.889-.213-2.8-.024-4.152-.113-8.291-.331-12.553-.1-2.044-.243-3.839-.4-5.411-10.3.04-20.919.388-31.219.424-.063,1.485-.1,3.145-.1,4.987,0,4.405.571,8.806.959,13.2,0,.69,0,1.387-.006,2.1h-.07a.944.944,0,0,0-.952.936,44.411,44.411,0,0,0-.508,7.594c-.008,5.043.357,8.774.357,8.774a.943.943,0,0,0,.936.952l.228,0c0,.563,0,1.11,0,1.645-.185,6.341-.34,12.24-.19,13.76.1,1.048-.428,6.081,2.859,7.719.9.451,2.182-.614,3.18-.614,1.971,0,4.719,1.046,6.329-.577,1.023-1.031,1.5-5.5,1.5-9.336-.015-8.1-1.18-20.527-1.079-31.818.04-4.492.519-8.983.567-13.475.018-1.748.079-5.649.079-5.649h3.024c.257,5.863,1.081,11.255,1.587,16.651.912,9.719,1.416,33.541,1.537,36.17.063,1.381.743,6.207,1.5,7.437.844,1.367,2.574.6,4.057.6,1.826,0,5.867.746,6.59-.495,1.793-3.076,1.227-11.235.511-19.087-.024-.92-.047-1.88-.069-2.888l.337-.015a.944.944,0,0,0,.9-.986A58.416,58.416,0,0,0,5325.613,1132.275Z" fill="#8b8b58"/>
              <path id="Trazado_3182" data-name="Trazado 3182" d="M5300.46,1099.752a3.81,3.81,0,0,0-2.725,0,.648.648,0,0,0-.442.778.633.633,0,0,0,.122.225c.015,1.219,2.632.491,3.2.152A.638.638,0,0,0,5300.46,1099.752Z" fill="#a2a367"/>
              <path id="Trazado_3183" data-name="Trazado 3183" d="M5292.847,1101.17a1.753,1.753,0,0,0,1.642-.538,1,1,0,0,0,.216-.634c.011-.495.835-.816,1.179-1.034a.635.635,0,0,0,.227-.865c-1.117-1.633-3.264-.991-4.847-.511a20.666,20.666,0,0,0-.418,3.634C5291.512,1101.3,5292.289,1101.14,5292.847,1101.17Z" fill="#6d6d44"/>
              <path id="Trazado_3184" data-name="Trazado 3184" d="M5321.044,1098.4l0-.007a.613.613,0,0,0-.522-.951,12.454,12.454,0,0,0-3.541.163.64.64,0,0,0-.279,1.056c.592.65,1.551.365,2.044,1.049a1.718,1.718,0,0,0,1.8.818,1.289,1.289,0,0,0,1.007-1.174A1.039,1.039,0,0,0,5321.044,1098.4Z" fill="#6d6d44"/>
              <path id="Trazado_3185" data-name="Trazado 3185" d="M5311.668,1096.565a.769.769,0,0,0-.464-.577,3.546,3.546,0,0,0-2.023-.07.536.536,0,0,0-.437.407c-.985.106-2,.495-1.994,1.538.01,1.554,2.864,1.063,3.745.995.865-.067,3.021.479,3.021-1.028C5313.516,1096.656,5312.622,1096.522,5311.668,1096.565Z" fill="#a2a367"/>
              <path id="Trazado_3186" data-name="Trazado 3186" d="M5324.731,1126.527a3.433,3.433,0,0,0-2.665.416.642.642,0,0,0,0,1.091,3.36,3.36,0,0,0,3.238.071c.01-.008.018-.019.028-.027-.071-.476-.137-.894-.2-1.245A.521.521,0,0,0,5324.731,1126.527Z" fill="#a2a367"/>
              <path id="Trazado_3187" data-name="Trazado 3187" d="M5292.107,1136.871a2.4,2.4,0,0,0,1.331-.737.635.635,0,0,0-.028-.893,3.365,3.365,0,0,0-2.567-.459c.022.946.055,1.827.093,2.62a2.828,2.828,0,0,0,1.134-.493A.388.388,0,0,0,5292.107,1136.871Z" fill="#a2a367"/>
              <path id="Trazado_3188" data-name="Trazado 3188" d="M5323.909,1134.995a.642.642,0,0,0,.278,1.056c.221.094.36.151.3.382a.636.636,0,0,0,.291.714,2.13,2.13,0,0,0,.959.255c-.006-.859-.033-1.908-.1-3.114A2.249,2.249,0,0,0,5323.909,1134.995Z" fill="#6d6d44"/>
              <g id="Grupo_1840" data-name="Grupo 1840">
                <path id="Trazado_3189" data-name="Trazado 3189" d="M5301.331,1153.628c-.028,1,1.319,1.333,2.007,1.675.821.408-.58.375-.99.405a1.54,1.54,0,0,0-1.476,1.321,1.667,1.667,0,0,0,.978,1.611,2.913,2.913,0,0,0,2.349-.117,10.8,10.8,0,0,1,1.657-.308c.106-1.26.159-2.6.156-3.867,0-.4-.005-.807-.011-1.224a9.429,9.429,0,0,0-2.307-.958A1.769,1.769,0,0,0,5301.331,1153.628Z" fill="#6d6d44"/>
                <path id="Trazado_3190" data-name="Trazado 3190" d="M5295.081,1157.665a6.972,6.972,0,0,0-1.908.091.57.57,0,0,0-.411.3,1.723,1.723,0,0,0-.455.307c.046.412.1.793.161,1.146.017,0,.031.014.049.018a8.881,8.881,0,0,0,3.253.444c.753-.131,1.491-.884,1.153-1.653C5296.658,1157.722,5295.613,1157.7,5295.081,1157.665Z" fill="#6d6d44"/>
                <path id="Trazado_3191" data-name="Trazado 3191" d="M5317.064,1147.967c.539-.314.5-2.1.476-2.1,1.214-.145,2.3.178,3.331-.674a.7.7,0,0,0,.179-.676c-.28-1.607-2.721-1.159-3.822-1.066-1.861.156-4.055-.389-5.876.292.052,1.615.1,3.156.139,4.572C5313.286,1148.514,5315.552,1148.844,5317.064,1147.967Z" fill="#6d6d44"/>
                <path id="Trazado_3192" data-name="Trazado 3192" d="M5320.792,1149.768c-1.1.817-.126,1.513.863,1.97a1.3,1.3,0,0,0,.281,2.182,5.844,5.844,0,0,0,3.121.819c-.04-1.789-.151-3.707-.3-5.671A5.6,5.6,0,0,0,5320.792,1149.768Z" fill="#6d6d44"/>
                <path id="Trazado_3193" data-name="Trazado 3193" d="M5296.927,1145.677c1.186-1.1,2.866-.194,4.064-1.142a1.093,1.093,0,0,0-.174-1.84,8.31,8.31,0,0,0-3.732-.577c-.64-.006-1.269.023-1.906.077-.881.076-1.888.514-2.827.685-.036,1.221-.071,2.429-.1,3.6C5293.931,1146.782,5296.229,1146.328,5296.927,1145.677Z" fill="#6d6d44"/>
                <path id="Trazado_3194" data-name="Trazado 3194" d="M5298.508,1130.334a2.583,2.583,0,0,0-.741.4.659.659,0,0,0,.133,1.029,9.495,9.495,0,0,0,2.075.732,3.293,3.293,0,0,0-.941.3c-.923.521-.127,1.411.469,1.737a2.761,2.761,0,0,0,2.88-.132c.859-.7.524-1.718-.175-2.359.05-.016.1-.033.149-.048a3.616,3.616,0,0,0,.629-.255,1.035,1.035,0,0,0,.481-1.15c-.479-1.626-3.482-.926-4.608-.535A.645.645,0,0,0,5298.508,1130.334Z" fill="#6d6d44"/>
                <path id="Trazado_3195" data-name="Trazado 3195" d="M5319.066,1128.756c-.241-1.149-2.038-.566-2.787-1a.587.587,0,0,0,.231-.9c-.729-1.015-2.694-1.763-3.853-.935a.959.959,0,0,0-.429,1.173c.075.22.205.412.279.634.066.192-.459.467-.565.632-.784,1.213.153,2.122,1.352,2.239a16.366,16.366,0,0,0,3.725-.307C5317.86,1130.17,5319.314,1129.928,5319.066,1128.756Z" fill="#6d6d44"/>
                <path id="Trazado_3196" data-name="Trazado 3196" d="M5316.144,1113.664c.712-.245,1.237-.985.719-1.675a2.917,2.917,0,0,0-1.453-.9c.1-.747-.523-1.291-1.494-1.36a14.95,14.95,0,0,0-3.745.537.582.582,0,0,0-.492.7.788.788,0,0,0,0,.709c.622,1.228,2.076.679,3.233.6C5313.07,1113.473,5314.979,1114.065,5316.144,1113.664Z" fill="#6d6d44"/>
                <path id="Trazado_3197" data-name="Trazado 3197" d="M5317.713,1109.96a4.731,4.731,0,0,0,3.183.136,1.417,1.417,0,0,0,.876-1.45c-.091-.667-.82-.9-1.4-.871a.681.681,0,0,0-.209.041.7.7,0,0,0-.361-.017l-.144.027a1.121,1.121,0,0,1-.144.021c-.19.025-.382.048-.572.072a9.822,9.822,0,0,0-1.3.218c-.4.107-.883.391-.857.873C5316.824,1109.558,5317.254,1109.786,5317.713,1109.96Z" fill="#6d6d44"/>
                <path id="Trazado_3198" data-name="Trazado 3198" d="M5304.455,1115.844a7.465,7.465,0,0,0-3.847-.291.553.553,0,0,0-.376.218.961.961,0,0,0-.67,1.065c.107.688.908.934,1.5.964.366.018.734,0,1.1.005a3.426,3.426,0,0,1,.6.057.837.837,0,0,0,.107.016.052.052,0,0,0-.018.028.61.61,0,0,0,.172.625,1.257,1.257,0,0,1,.153.02l.021,0a1.238,1.238,0,0,1,.738.192,2.96,2.96,0,0,0,1.136-.245q.057-1.156.125-2.311a2.322,2.322,0,0,0-.584-.258A.679.679,0,0,0,5304.455,1115.844Z" fill="#6d6d44"/>
                <path id="Trazado_3199" data-name="Trazado 3199" d="M5302.669,1107.988a5.864,5.864,0,0,0-2.79.495,7.076,7.076,0,0,1-1.236.265.649.649,0,0,0-.631-.652c-1.436-.066-3.632-.65-4.356,1.052a.667.667,0,0,0,.392.964c2.687.611,7.98,2.149,10.228-.241C5305.235,1108.851,5303.33,1108.128,5302.669,1107.988Z" fill="#6d6d44"/>
                <path id="Trazado_3200" data-name="Trazado 3200" d="M5314.257,1108.366a2.021,2.021,0,0,0,2.325-.55.687.687,0,0,0-.108-.841,1.1,1.1,0,0,0-.535-.3.975.975,0,0,0-.42,0c-.015,0-.079.01-.123.016a1.56,1.56,0,0,0-1.554.66A.7.7,0,0,0,5314.257,1108.366Z" fill="#a2a367"/>
                <path id="Trazado_3201" data-name="Trazado 3201" d="M5298.918,1113.388a.675.675,0,0,0-.44-.6c-.827-.319-2.374-.652-3.183-.139a1.041,1.041,0,0,0-.527,1.226,1.63,1.63,0,0,0,.863.844.669.669,0,0,0,.458.792,4.781,4.781,0,0,0,3.93-.357.673.673,0,0,0,.134-1.031A2.41,2.41,0,0,0,5298.918,1113.388Z" fill="#a2a367"/>
                <path id="Trazado_3202" data-name="Trazado 3202" d="M5303.171,1118.551a1.257,1.257,0,0,0-.153-.02c-.371-.049-.785-.005-1.112-.041a3.051,3.051,0,0,0-2.256.409.665.665,0,0,0,0,1.133,4.931,4.931,0,0,0,3.519.4c.548-.138,1.23-.6,1.048-1.259a.753.753,0,0,0-.287-.425,1.238,1.238,0,0,0-.738-.192Z" fill="#a2a367"/>
                <path id="Trazado_3203" data-name="Trazado 3203" d="M5310.685,1119.321a1.493,1.493,0,0,0,2.024-.078.763.763,0,0,0,.279-.9,2.174,2.174,0,0,0,.479-.362.7.7,0,0,0,0-.982c-1-.96-2.409-.721-3.639-.419.065.587.129,1.175.19,1.76a3.538,3.538,0,0,1,.372-.022A1.2,1.2,0,0,0,5310.685,1119.321Z" fill="#a2a367"/>
                <path id="Trazado_3204" data-name="Trazado 3204" d="M5320.27,1118.509a.679.679,0,0,0-.664-.79c-.948-.019-2.018-.2-2.726.588a.706.706,0,0,0,.14,1.09,2.216,2.216,0,0,0,.763.3,1.882,1.882,0,0,0-.927,1.078.691.691,0,0,0,.484.854,16.813,16.813,0,0,0,2.729.1.69.69,0,0,0,.617-.976,1.2,1.2,0,0,0,.8-1.623A1.579,1.579,0,0,0,5320.27,1118.509Z" fill="#a2a367"/>
                <path id="Trazado_3205" data-name="Trazado 3205" d="M5303.081,1137.413a2.686,2.686,0,0,0-1.278-.381.565.565,0,0,0-.476.174c-.953-.253-2.553-.023-2.839,1.017a.812.812,0,0,0,.437,1.043,2.723,2.723,0,0,0-.806.261.661.661,0,0,0,.156,1.2c1.054.22,3.057.29,3.8-.657a1.124,1.124,0,0,0,.157-1.2,1.193,1.193,0,0,0,.98-.429A.666.666,0,0,0,5303.081,1137.413Z" fill="#a2a367"/>
                <path id="Trazado_3206" data-name="Trazado 3206" d="M5298.794,1123.809a.644.644,0,0,0-.749-.1,2.559,2.559,0,0,0-.569.394.664.664,0,0,0,.289,1.1,2.328,2.328,0,0,0,2.109-.14.665.665,0,0,0-.157-1.2,1.777,1.777,0,0,0-.685-.1A.683.683,0,0,0,5298.794,1123.809Z" fill="#a2a367"/>
                <path id="Trazado_3207" data-name="Trazado 3207" d="M5320.695,1139a.7.7,0,0,0,.129-1,.567.567,0,0,0-.319-.739c-1.2-.563-4.572-.9-5.33.561-.922,1.775,1.253,1.941,2.809,2.142a3.577,3.577,0,0,0-.324.335.709.709,0,0,0,.14,1.089,4.31,4.31,0,0,0,3.587.23c-.065-.69-.129-1.374-.19-2.046-.1-.1-.192-.192-.286-.291A1.973,1.973,0,0,1,5320.695,1139Zm-1.173,1.5c.122-.09.245-.179.366-.273l.007-.005c.075.085.154.168.233.25A3.425,3.425,0,0,1,5319.522,1140.5Z" fill="#a2a367"/>
                <path id="Trazado_3208" data-name="Trazado 3208" d="M5299.746,1151.376a.617.617,0,0,0-.309-.479,3.686,3.686,0,0,0-2.547-.139.552.552,0,0,0-.446.393,1.979,1.979,0,0,0-1.768.856c-.8,1.657,1.05,1.864,2.23,1.708,1.042-.138,3.086.106,3.276-1.317A.92.92,0,0,0,5299.746,1151.376Z" fill="#a2a367"/>
              </g>
              <path id="Trazado_3209" data-name="Trazado 3209" d="M5326.934,1068.078c.269-.055.536-.124.8-.2-.158-.628-.341-1.305-.551-2.02l-.014-.046a7.609,7.609,0,0,0-1.555.543c-.544.281-.9,1.073-.351,1.543A1.921,1.921,0,0,0,5326.934,1068.078Z" fill="#6d6d44"/>
            </g>
            <g id="Grupo_1842" data-name="Grupo 1842">
              <path id="Trazado_3210" data-name="Trazado 3210" d="M5320.111,1077.6c-.68-9.362-.664-14.472-.664-14.472a1.088,1.088,0,0,0-1.041-1.127h-2.216l.065-14.195a.369.369,0,0,0-.292-.373l-3.384-1.2a.334.334,0,0,0-.281.085.392.392,0,0,0-.122.286v7.48H5299.92v-7.747a.391.391,0,0,0-.108-.272.327.327,0,0,0-.255-.1l-3.315.346a.364.364,0,0,0-.331.375V1062h-2.2a1.089,1.089,0,0,0-1.042,1.127s-.245,4.333-.245,11.309c0,10.259-.708,18.387-.708,18.387a1.088,1.088,0,0,0,1.042,1.127h28.308c.575,0,.608-1,.608-1.625C5321.677,1092.327,5320.549,1083.637,5320.111,1077.6Z" fill="#5a5944"/>
              <path id="Trazado_3211" data-name="Trazado 3211" d="M5301.716,1089.758a1.447,1.447,0,0,1-1.388,1.5h-3.767a1.449,1.449,0,0,1-1.389-1.5v-10.279a1.449,1.449,0,0,1,1.389-1.5h3.767a1.448,1.448,0,0,1,1.388,1.5Z" fill="#3f3f33"/>
              <path id="Trazado_3212" data-name="Trazado 3212" d="M5298.444,1081.027c-2.657,0-3.592-2.9-3.6-2.93a.385.385,0,0,1,.218-.476.342.342,0,0,1,.44.236c.035.109.8,2.419,2.943,2.419,2.17,0,3-2.4,3.012-2.427a.341.341,0,0,1,.445-.225.385.385,0,0,1,.208.482C5302.069,1078.225,5301.1,1081.027,5298.444,1081.027Z" fill="#5a5944"/>
              <path id="Trazado_3213" data-name="Trazado 3213" d="M5310.11,1089.758a1.449,1.449,0,0,1-1.389,1.5h-3.767a1.449,1.449,0,0,1-1.389-1.5v-10.279a1.449,1.449,0,0,1,1.389-1.5h3.767a1.449,1.449,0,0,1,1.389,1.5Z" fill="#3f3f33"/>
              <path id="Trazado_3214" data-name="Trazado 3214" d="M5306.837,1081.027c-2.657,0-3.592-2.9-3.6-2.93a.383.383,0,0,1,.218-.476.342.342,0,0,1,.44.236c.034.109.795,2.419,2.943,2.419,2.171,0,3-2.4,3.012-2.427a.34.34,0,0,1,.445-.225.385.385,0,0,1,.208.482C5310.462,1078.225,5309.488,1081.027,5306.837,1081.027Z" fill="#5a5944"/>
              <path id="Trazado_3215" data-name="Trazado 3215" d="M5318.272,1089.758a1.449,1.449,0,0,1-1.389,1.5h-3.767a1.448,1.448,0,0,1-1.389-1.5v-10.279a1.449,1.449,0,0,1,1.389-1.5h3.767a1.449,1.449,0,0,1,1.389,1.5Z" fill="#3f3f33"/>
              <path id="Trazado_3216" data-name="Trazado 3216" d="M5319.845,1074.783c-.056-1.73-.118-3.287-.182-4.656-9.766-.069-17.815.054-27.2-.069,0,1.245-.071,2.7-.041,4.429,0,.257.009.512.013.765C5301.791,1074.918,5310.478,1074.328,5319.845,1074.783Z" fill="#605f46"/>
              <path id="Trazado_3217" data-name="Trazado 3217" d="M5315,1081.027c-2.657,0-3.592-2.9-3.6-2.93a.383.383,0,0,1,.218-.476.342.342,0,0,1,.44.236c.035.109.795,2.419,2.943,2.419,2.17,0,3-2.4,3.012-2.427a.34.34,0,0,1,.445-.225.386.386,0,0,1,.208.482C5318.624,1078.225,5317.65,1081.027,5315,1081.027Z" fill="#5a5944"/>
              <path id="Trazado_3218" data-name="Trazado 3218" d="M5309.954,1056.195h-9.427a1.45,1.45,0,0,0-1.389,1.5v8.261a1.451,1.451,0,0,0,1.389,1.5h9.258C5309.195,1063.779,5309.8,1059.893,5309.954,1056.195Z" fill="#6b6b4b"/>
              <path id="Trazado_3219" data-name="Trazado 3219" d="M5311.771,1056.195h-1.817c-.158,3.7-.759,7.584-.169,11.267h1.986a1.451,1.451,0,0,0,1.389-1.5V1057.7A1.449,1.449,0,0,0,5311.771,1056.195Z" fill="#605f46"/>
              <path id="Trazado_3220" data-name="Trazado 3220" d="M5304.377,1059.957h.572a.377.377,0,0,0,0-.752h-.572a.377.377,0,0,0,0,.752Z" fill="#3f3f33"/>
              <path id="Trazado_3221" data-name="Trazado 3221" d="M5319.886,1075.177c-.007-.253-.015-.5-.023-.748-.009,0-.017,0-.026,0a10.79,10.79,0,0,1-2.161,0c-.723-.065-1.87-.1-3.254-.107.012-.9.01-1.8.006-2.676q0-.526,0-1.053l1.633-.018c1.365-.018,2.158-.036,3.536-.036a.331.331,0,0,0,.117-.024q-.016-.363-.032-.708a.354.354,0,0,0-.085-.018c-1.382,0-2.177.017-3.544.035-3.256.04-6.623.082-9.911-.107-1.43-.083-4.382-.058-7.238-.034l-.411,0a.336.336,0,0,0-.119-.019.315.315,0,0,0-.073.021c-2.639.022-5.4.037-5.756-.063-.049-.019-.022-.022-.071-.017,0,.24,0,.49,0,.748a48.585,48.585,0,0,0,5.592.084c.043,1.2.043,3.091.042,4.009-2.029-.088-4.571-.038-5.674.019v.018c0,.246.008.49.012.734,1.119-.06,3.838-.113,5.9-.007a.348.348,0,0,0,.111.024.32.32,0,0,0,.07-.015q.216.012.419.027c.11.007.316.011.606.011.84,0,2.385-.029,4.331-.067l2.769-.052a.318.318,0,0,0,.141.034.327.327,0,0,0,.147-.039c2.407-.042,4.93-.076,7-.068a.31.31,0,0,0,.136.034h.007a.323.323,0,0,0,.138-.032c1.457.009,2.666.039,3.409.106A11.608,11.608,0,0,0,5319.886,1075.177Zm-16.025-.734c-2.5.048-4.48.086-4.879.057l-.187-.012c0-.9,0-2.814-.042-4.052l.153,0c2.845-.024,5.787-.049,7.2.033l.171.008c.011.683.043,1.341.078,1.972s.065,1.276.076,1.948Zm9.867-.124c-1.98-.006-4.338.025-6.607.064-.012-.686-.042-1.347-.077-1.981-.035-.609-.065-1.241-.076-1.894,1.626.074,3.265.1,4.9.1q.935,0,1.865-.009,0,.525,0,1.051C5313.738,1072.527,5313.74,1073.429,5313.728,1074.319Z" fill="#3f3f33"/>
              <path id="Trazado_3222" data-name="Trazado 3222" d="M5296.6,1063.241a3.612,3.612,0,0,0,1.352.264,2.954,2.954,0,0,0,.841-.12v2.573a1.814,1.814,0,0,0,1.736,1.879h11.244a1.815,1.815,0,0,0,1.737-1.879v-2.738a1.917,1.917,0,0,0,.992.28,2.027,2.027,0,0,0,.459-.053,2.671,2.671,0,0,0,1.746-1.445h-.515l0-.6c0,.012-.014.021-.018.033a1.969,1.969,0,0,1-1.36,1.274,1.344,1.344,0,0,1-1.307-.419v-4.6a1.875,1.875,0,0,0-1.147-1.759,17.353,17.353,0,0,0-.185-1.855h-.586c.036.6.065,1.161.075,1.736h-11.107c.027-.461.039-1.043.034-1.736h-.672s-.017,1.207-.068,1.884a1.89,1.89,0,0,0-1.061,1.73v4.9a2.7,2.7,0,0,1-1.948-.058,1.48,1.48,0,0,1-.932-.868V1062h-.624A2.211,2.211,0,0,0,5296.6,1063.241Zm16.215,2.717a1.088,1.088,0,0,1-1.042,1.128h-1.582c-.081-1.335-.111-3.311-.111-4.678,0-.4.006-.818.013-1.246l.666-.023c.8-.028,1.8-.062,2.012-.062.016,0,.029-.008.044-.009Zm-1.042-9.388a1.088,1.088,0,0,1,1.042,1.127v2.638a.318.318,0,0,0-.044-.009c-.222,0-1.185.033-2.034.063l-.63.021c.025-1.35.046-2.728-.036-3.84Zm-11.244,0h8.783a4.156,4.156,0,0,1-1.27,2.6,4.842,4.842,0,0,1-3.712,1.529c-4.247-.244-4.515-3.645-4.525-3.8l0-.014A1,1,0,0,1,5300.527,1056.57Zm-1.041,1.805a5.093,5.093,0,0,0,4.805,3.078c.094.005.187.008.281.008a5.562,5.562,0,0,0,3.946-1.742,5.869,5.869,0,0,0,.914-1.219c0,.658-.012,1.345-.024,2.024-.013.652-.024,1.292-.024,1.884,0,1.361.029,3.324.108,4.678h-8.965a1.089,1.089,0,0,1-1.041-1.128Z" fill="#3f3f33"/>
            </g>
            <path id="Trazado_3223" data-name="Trazado 3223" d="M5322.8,1103.65c-5.128.019-10.481.066-15.578.16-5.17.1-10.515.195-15.721.213v0l0,0a3.494,3.494,0,0,0-.059.87h.064c5.213-.019,10.562-.117,15.735-.213,5.094-.094,10.524-.192,15.646-.211Z" fill="#585836"/>
            <path id="Trazado_3224" data-name="Trazado 3224" d="M5292.242,1130.069a11.429,11.429,0,0,0-1.391-.021h0q-.012.416-.019.861a.37.37,0,0,0,.125.007c.17-.018.719.005,1.251.027.766.033,1.445.059,1.985.046.21,0,.4-.014.562-.032,0,2.266-.034,4.577-.054,6.037l-.019,1.675a19.866,19.866,0,0,1-.081,2.033l-.006.058c-.082.73-.082.73-.589.873-.141.041-1.664.117-1.664.117,0,.289,0,.571,0,.853l.3-.005a6.914,6.914,0,0,0,1.6-.121c1.029-.291,1.123-.732,1.222-1.62l.006-.056a20.206,20.206,0,0,0,.086-2.127l.019-1.667c.083-5.9.113-11.547-.22-12.908-.342-1.4-1.715-1.4-2.819-1.4h-.185c0,.265,0,.53,0,.8h-.07c-.129,0,.048.08.255.081,1.245,0,1.808.072,1.97.735a41.408,41.408,0,0,1,.248,5.769A19.114,19.114,0,0,1,5292.242,1130.069Z" fill="#585836"/>
            <path id="Trazado_3225" data-name="Trazado 3225" d="M5325.522,1130.891c-.022-.3-.044-.593-.066-.873a32.035,32.035,0,0,1-4.6.138,45.413,45.413,0,0,1,.047-5.986c.114-.588.649-.645,1.844-.637.3,0,.606,0,.9-.023-.02-.293-.042-.584-.063-.873-.266.018-.553.022-.836.02-1.089-.008-2.445-.017-2.711,1.345-.4,2.041.292,14.152.3,14.273.011.2.022.4.032.607a19.766,19.766,0,0,0,.177,2.112l.009.057c.142.883.256,1.318,1.3,1.561a2.434,2.434,0,0,0,.465.047c.341.012.944.011,2.014-.033-.006-.276-.012-.552-.019-.835,0,0-2.226-.025-2.261-.033-.514-.12-.514-.12-.631-.846l-.009-.056a19.524,19.524,0,0,1-.167-2.017c-.011-.209-.021-.416-.033-.615-.105-1.794-.242-4.563-.331-7.189.109.008.223.015.35.019A35.188,35.188,0,0,0,5325.522,1130.891Z" fill="#585836"/>
            <path id="Trazado_3226" data-name="Trazado 3226" d="M5322.184,1060.421c-.013-.384.3-.52,1.244-.731a3.019,3.019,0,0,0,.586-.213c-.1-.269-.188-.523-.278-.764-.159.042-.324.083-.5.122-.83.186-1.968.44-1.928,1.616.057,1.66,2.755,10.924,2.782,11.017.044.149.088.3.133.461a15.987,15.987,0,0,0,.518,1.616l.018.043c.267.657.462,1.029,1.365,1.031.019,0,.043,0,.079,0a13.859,13.859,0,0,0,2.147-.51l.018-.005.026-.006.11-.033-.206-.745a.754.754,0,0,0,.085-.067.539.539,0,0,0-.236,0h0c-.01,0-1.991.485-2.02.488-.358,0-.358,0-.554-.486l-.018-.042a15.5,15.5,0,0,1-.487-1.525c-.046-.16-.09-.317-.135-.468-.382-1.3-.974-3.4-1.51-5.407a26.515,26.515,0,0,0,3.471-.926c-.089-.291-.176-.57-.26-.836a26.893,26.893,0,0,1-3.436.913A35.911,35.911,0,0,1,5322.184,1060.421Z" fill="#585836"/>
            <g id="Grupo_1843" data-name="Grupo 1843">
              <path id="Trazado_3227" data-name="Trazado 3227" d="M5294.4,1171.2s-2.5,1.1-5.364,2.394-2.442,4.088-1.335,4.057l13.387-.343a9.375,9.375,0,0,0,2.517-.111l.2-12.938h-9.315Z" fill="#534e43"/>
              <path id="Rect치ngulo_893" data-name="Rect치ngulo 893" d="M.469,0H16.624a.469.469,0,0,1,.469.469V.848a.468.468,0,0,1-.468.468H.468A.468.468,0,0,1,0,.848V.469A.469.469,0,0,1,.469,0Z" transform="translate(5286.794 1177.199)" fill="#3c3441"/>
              <path id="Trazado_3228" data-name="Trazado 3228" d="M5298.082,1166.85h-3.621a.409.409,0,1,1,0-.817h3.621a.409.409,0,0,1,0,.817Z" fill="#3c3441"/>
              <path id="Trazado_3229" data-name="Trazado 3229" d="M5298.082,1168.852h-3.621a.409.409,0,1,1,0-.817h3.621a.409.409,0,0,1,0,.817Z" fill="#3c3441"/>
              <path id="Trazado_3230" data-name="Trazado 3230" d="M5298.082,1170.853h-3.621a.409.409,0,1,1,0-.818h3.621a.409.409,0,0,1,0,.818Z" fill="#3c3441"/>
            </g>
            <g id="Grupo_1844" data-name="Grupo 1844">
              <path id="Trazado_3231" data-name="Trazado 3231" d="M5323.81,1171.2s2.5,1.1,5.363,2.394,2.442,4.088,1.335,4.057l-13.387-.343a9.379,9.379,0,0,1-2.517-.111l-.606-12.938h9.316Z" fill="#534e43"/>
              <path id="Rect치ngulo_894" data-name="Rect치ngulo 894" d="M.469,0H16.624a.469.469,0,0,1,.469.469V.848a.468.468,0,0,1-.468.468H.468A.468.468,0,0,1,0,.848V.469A.469.469,0,0,1,.469,0Z" transform="translate(5314.322 1177.199)" fill="#3c3441"/>
              <path id="Trazado_3232" data-name="Trazado 3232" d="M5323.469,1166.85h-3.749a.409.409,0,1,1,0-.817h3.749a.409.409,0,1,1,0,.817Z" fill="#3c3441"/>
              <path id="Trazado_3233" data-name="Trazado 3233" d="M5323.613,1168.852h-3.743a.409.409,0,1,1,0-.817h3.743a.409.409,0,0,1,0,.817Z" fill="#3c3441"/>
              <path id="Trazado_3234" data-name="Trazado 3234" d="M5323.756,1170.853h-3.628a.409.409,0,0,1,0-.818h3.628a.409.409,0,0,1,0,.818Z" fill="#3c3441"/>
            </g>
          </g>
        </g>
      </g>
    </g>
  </g>
</svg>
