<svg xmlns="http://www.w3.org/2000/svg" width="152.443" height="152.444" viewBox="0 0 152.443 152.444">
  <g id="Grupo_4788" data-name="Grupo 4788" transform="translate(-921.869 -1020.685)">
    <path id="Trazado_2227" data-name="Trazado 2227" d="M7148.524,1021.282q3.746,0,7.471.367t7.4,1.1q3.673.73,7.256,1.817t7.043,2.52q3.459,1.434,6.762,3.2t6.416,3.845q3.112,2.08,6.008,4.456t5.542,5.023q2.648,2.647,5.023,5.542t4.456,6.009q2.081,3.113,3.846,6.415t3.2,6.762q1.433,3.461,2.52,7.043t1.817,7.256q.731,3.672,1.1,7.4t.367,7.471q0,3.744-.367,7.471t-1.1,7.4q-.73,3.672-1.817,7.256t-2.52,7.043q-1.434,3.459-3.2,6.762t-3.846,6.415q-2.08,3.114-4.456,6.009t-5.023,5.542q-2.648,2.648-5.542,5.023t-6.008,4.456q-3.114,2.08-6.416,3.845t-6.762,3.2q-3.458,1.434-7.043,2.52t-7.256,1.818q-3.672.731-7.4,1.1t-7.471.368q-3.744,0-7.471-.368t-7.4-1.1q-3.672-.73-7.256-1.818t-7.043-2.52q-3.459-1.432-6.761-3.2t-6.416-3.845q-3.114-2.08-6.008-4.456t-5.543-5.023q-2.648-2.648-5.023-5.542t-4.456-6.009q-2.08-3.112-3.845-6.415t-3.2-6.762q-1.434-3.461-2.52-7.043t-1.818-7.256q-.731-3.672-1.1-7.4t-.367-7.471q0-3.744.367-7.471t1.1-7.4q.73-3.672,1.818-7.256t2.52-7.043q1.433-3.459,3.2-6.762t3.845-6.415q2.081-3.114,4.456-6.009t5.023-5.542q2.649-2.648,5.543-5.023t6.008-4.456q3.112-2.081,6.416-3.845t6.761-3.2q3.461-1.432,7.043-2.52t7.256-1.817q3.674-.73,7.4-1.1T7148.524,1021.282Z" transform="translate(-6150.434 -0.597)" fill="#035e4f"/>
    <circle id="Elipse_131" data-name="Elipse 131" cx="71.597" cy="71.597" r="71.597" transform="translate(927.114 1025.932)" fill="#fff"/>
    <circle id="Elipse_132" data-name="Elipse 132" cx="65.13" cy="65.13" r="65.13" transform="translate(933.581 1032.398)" fill="#be1c25"/>
    <g id="Grupo_1252" data-name="Grupo 1252" transform="translate(-6150.434 -0.597)">
      <path id="Trazado_2228" data-name="Trazado 2228" d="M7193.345,1091.427a3.753,3.753,0,1,0-3.753-3.752,3.75,3.75,0,0,0,3.753,3.752" fill="#fff"/>
      <path id="Trazado_2229" data-name="Trazado 2229" d="M7197.724,1092.873a2.426,2.426,0,0,0-.286-.023h-8.2a2.214,2.214,0,0,0-.275.023,5,5,0,0,0-4.547,4.983v10.4a1.454,1.454,0,0,0,2.908,0v-8.929c0-.335.094-.79.709-.79.421,0,.512.45.525.735v26.768a2.089,2.089,0,1,0,4.178,0v-15.426a.576.576,0,0,1,.605-.612h0a.566.566,0,0,1,.594.612v15.426a2.091,2.091,0,0,0,4.182,0v-26.768c.016-.285.1-.735.526-.735.613,0,.71.455.71.79v8.929a1.454,1.454,0,1,0,2.907,0v-10.4a5,5,0,0,0-4.539-4.983" fill="#fff"/>
      <path id="Trazado_2230" data-name="Trazado 2230" d="M7163.735,1093.2a3.555,3.555,0,1,0-3.554-3.552,3.548,3.548,0,0,0,3.554,3.552" fill="#fff"/>
      <path id="Trazado_2231" data-name="Trazado 2231" d="M7167.962,1099.72c.464-.134.6.485.6.485l2.378,8.021s.455,1.721,1.939,1.281c1.5-.44.969-2.2.969-2.2l-2.952-9.613s-1.057-2.78-3.393-2.78h-7.526c-2.338,0-3.4,2.78-3.4,2.78l-2.952,9.613s-.526,1.762.967,2.2,1.94-1.281,1.94-1.281l2.381-8.021s.13-.619.593-.485.29.794.29.794l-4.144,15.034h3.854v10.768a1.85,1.85,0,0,0,3.7,0v-10.768h1.054v10.768a1.852,1.852,0,0,0,3.7,0v-10.768h3.852l-4.14-15.034s-.176-.661.288-.794" fill="#fff"/>
      <path id="Trazado_2232" data-name="Trazado 2232" d="M7142.459,1093.2a3.555,3.555,0,1,0-3.553-3.552,3.549,3.549,0,0,0,3.553,3.552" fill="#fff"/>
      <path id="Trazado_2233" data-name="Trazado 2233" d="M7149.612,1097.692s-1.052-2.78-3.39-2.78h-7.527c-2.336,0-3.394,2.78-3.394,2.78l-2.951,9.614a2.643,2.643,0,0,0-.088.592,1.057,1.057,0,0,0-.838-.426,1.07,1.07,0,0,0-.912.505l-.011-.005c-.088.074-1.467,2.531-1.924,2.986a1.186,1.186,0,0,1-.911.431h-3.584a1.186,1.186,0,0,1-.912-.431c-.461-.455-1.836-2.912-1.924-2.986l-.009.005a1.084,1.084,0,0,0-.914-.505,1.063,1.063,0,0,0-.868.473v-10.09a5,5,0,0,0-4.544-4.983,2.282,2.282,0,0,0-.275-.022h-8.2a2.457,2.457,0,0,0-.288.022,5,5,0,0,0-4.54,4.983v10.4a1.452,1.452,0,0,0,.782,1.282.555.555,0,0,0-.052.129l-3.331,17.656a.55.55,0,0,0,1.081.2l3.331-17.657a.557.557,0,0,0,0-.209,1.453,1.453,0,0,0,1.1-1.4v-8.93c0-.335.1-.789.709-.789.423,0,.511.449.529.734v26.769a2.088,2.088,0,1,0,4.176,0v-15.425a.571.571,0,0,1,.6-.613h0a.57.57,0,0,1,.6.613v15.425a2.09,2.09,0,0,0,4.18,0v-26.769c.011-.285.107-.734.526-.734.615,0,.708.454.708.789v8.93a1.451,1.451,0,0,0,2.763.625c.021.08.042.141.042.141l2.98,5.395a1.9,1.9,0,0,1,.183.711v1.061l-1.572,5.775h1.572v4.748h.006a1.456,1.456,0,1,0,2.912,0v-4.572a1.028,1.028,0,0,1,0-.176h.877a.971.971,0,0,1,0,.176v4.572a1.459,1.459,0,0,0,2.919,0v-4.748h1.577l-1.577-5.808v-1.028a1.908,1.908,0,0,1,.182-.711l2.755-4.981s.176-.374.272-.647a1.344,1.344,0,0,0,.879.721c1.487.44,1.939-1.28,1.939-1.28l2.381-8.024s.13-.616.593-.482.289.792.289.792l-4.144,15.035h3.855v10.768a1.851,1.851,0,0,0,3.7,0v-10.768h1.052v10.768a1.85,1.85,0,0,0,3.7,0v-10.768h3.855l-4.14-15.035s-.176-.66.285-.792.6.482.6.482l2.379,8.024s.453,1.72,1.939,1.28.968-2.2.968-2.2Z" fill="#fff"/>
      <path id="Trazado_2234" data-name="Trazado 2234" d="M7179.214,1109.526a2.956,2.956,0,1,0-2.956-2.959,2.955,2.955,0,0,0,2.956,2.959" fill="#fff"/>
      <path id="Trazado_2235" data-name="Trazado 2235" d="M7186.223,1117.933c-.035-.114-1.883-4.642-2.1-5.277-.666-1.946-1.88-1.931-3.049-1.962s-1.868,0-1.868,0-.746-.031-2.29.016-2.028.837-3.726,5.21c-.242.629-1.064,2.666-1.075,2.789l.011,0a1.026,1.026,0,0,0,.43,1.4.989.989,0,0,0,1.269-.412l1.607-5.125s.278-.344.278.01v12.068h.009a1.516,1.516,0,1,0,3.032,0v-4.764s-.088-.672.455-.672.46.672.46.672v4.764a1.519,1.519,0,0,0,3.038,0v-12.068c0-.354.188-.1.188-.1l1.261,3.51a8.541,8.541,0,0,0,.714,1.638,1.121,1.121,0,0,0,1.465-.606,1.1,1.1,0,0,0-.119-1.079Z" fill="#fff"/>
      <path id="Trazado_2236" data-name="Trazado 2236" d="M7110.531,1091.427a3.753,3.753,0,1,0-3.747-3.752,3.756,3.756,0,0,0,3.747,3.752" fill="#fff"/>
      <path id="Trazado_2237" data-name="Trazado 2237" d="M7125.872,1109.526a2.956,2.956,0,1,0-2.955-2.959,2.955,2.955,0,0,0,2.955,2.959" fill="#fff"/>
    </g>
    <g id="Grupo_1253" data-name="Grupo 1253" transform="translate(-6150.434 -0.597)">
      <ellipse id="Elipse_133" data-name="Elipse 133" cx="65.13" cy="65.352" rx="65.13" ry="65.352" transform="translate(7084.015 1032.552)" fill="#f7ec45"/>
      <path id="Trazado_2238" data-name="Trazado 2238" d="M7184.083,1076.376a5.032,5.032,0,0,0-4.013-1.6l-9.624-18.979-45.584.673-14.327-1.007.687,59.862-.6,2.522s7.185,7.819,8.8,9.084a132.287,132.287,0,0,1,.232,13.606s11.422,7.391,37.686,22.19a65.254,65.254,0,0,0,56.4-56.6C7204.141,1096.492,7184.171,1076.454,7184.083,1076.376Zm-47.834,43.831-.125-.064h-.318v-.23l.125-.036v.174h.318Zm2.863-1.1-.047.027-.079-.137.126-.036Zm.318.319-.047.027-.125-.217h.172Zm.318.318-.047.028-.125-.217h.172Zm.318.319-.047.028-.126-.218h.173Zm.318.323-.173-.193h.173Z" fill="#cebe25"/>
      <path id="Trazado_2239" data-name="Trazado 2239" d="M7172.359,1065.6h6.808v73.74h-58.341v-6.782h4.708v2.075h48.925v-64.327h-2.1V1065.6Zm-51.043.675v23.534h19.521v-23.534Zm0,37.655v4.707h39.042v-4.707Zm23.916-37.654v4.706h15.125v-4.706Zm0,9.414v4.706h15.125v-4.706Zm0,9.413v4.706h15.125V1085.1Zm-23.917,9.414v4.706h39.042v-4.706Zm48.69-38.053h-58.339v61.451L7123.4,1130.2h46.61v-73.74Zm-4.706,4.707h-48.927v53.546h10.781v10.78H7165.3Z" fill="#fff" stroke="#035e4f" stroke-miterlimit="10" stroke-width="2" fill-rule="evenodd"/>
    </g>
    <circle id="Elipse_134" data-name="Elipse 134" cx="18.641" cy="18.641" r="18.641" transform="translate(1002.939 1108.93)" fill="#fff" stroke="#035e4f" stroke-miterlimit="10" stroke-width="2"/>
    <text id="_49" data-name="49" transform="translate(1021.5 1134.02)" fill="#035e4f" font-size="22" font-family="Montserrat-Bold, Montserrat" font-weight="700"><tspan x="-14.542" y="0">49</tspan></text>
  </g>
</svg>
