<svg xmlns="http://www.w3.org/2000/svg" width="152.444" height="152.443" viewBox="0 0 152.444 152.443">
  <g id="Grupo_4789" data-name="Grupo 4789" transform="translate(-371.24 -1492.445)">
    <path id="Trazado_2253" data-name="Trazado 2253" d="M6597.9,1493.042q3.744,0,7.471.367t7.4,1.1q3.672.731,7.256,1.817t7.043,2.52q3.459,1.432,6.761,3.2t6.416,3.846q3.114,2.081,6.008,4.456t5.543,5.023q2.648,2.648,5.023,5.542t4.456,6.008q2.081,3.114,3.845,6.416t3.2,6.762q1.434,3.459,2.52,7.043t1.818,7.256q.731,3.672,1.1,7.4t.368,7.471q0,3.744-.368,7.471t-1.1,7.4q-.73,3.672-1.818,7.256t-2.52,7.042q-1.433,3.461-3.2,6.762t-3.845,6.416q-2.081,3.113-4.456,6.008t-5.023,5.542q-2.649,2.649-5.543,5.024t-6.008,4.455q-3.113,2.082-6.416,3.846t-6.761,3.2q-3.461,1.432-7.043,2.52t-7.256,1.818q-3.672.731-7.4,1.1t-7.471.367q-3.744,0-7.471-.367t-7.4-1.1q-3.673-.73-7.256-1.818t-7.043-2.52q-3.459-1.432-6.762-3.2t-6.416-3.846q-3.112-2.079-6.008-4.455T6544,1623.16q-2.648-2.648-5.023-5.542t-4.456-6.008q-2.081-3.114-3.846-6.416t-3.2-6.762q-1.433-3.459-2.52-7.042t-1.817-7.256q-.731-3.673-1.1-7.4t-.367-7.471q0-3.746.367-7.471t1.1-7.4q.73-3.674,1.817-7.256t2.52-7.043q1.434-3.459,3.2-6.762t3.846-6.416q2.081-3.112,4.456-6.008t5.023-5.542q2.648-2.647,5.542-5.023t6.008-4.456q3.114-2.08,6.416-3.846t6.762-3.2q3.459-1.432,7.043-2.52t7.256-1.817q3.672-.73,7.4-1.1T6597.9,1493.042Z" transform="translate(-6150.434 -0.597)" fill="#035e4f"/>
    <circle id="Elipse_139" data-name="Elipse 139" cx="71.597" cy="71.597" r="71.597" transform="translate(376.486 1497.691)" fill="#fff"/>
    <circle id="Elipse_140" data-name="Elipse 140" cx="65.13" cy="65.13" r="65.13" transform="translate(382.952 1504.158)" fill="#be1c25"/>
    <g id="Grupo_1256" data-name="Grupo 1256" transform="translate(-6150.434 -0.597)">
      <path id="Trazado_2254" data-name="Trazado 2254" d="M6642.717,1563.186a3.752,3.752,0,1,0-3.754-3.752,3.749,3.749,0,0,0,3.754,3.752" fill="#fff"/>
      <path id="Trazado_2255" data-name="Trazado 2255" d="M6647.1,1564.633a2.213,2.213,0,0,0-.286-.023h-8.2a2.008,2.008,0,0,0-.275.023,5,5,0,0,0-4.547,4.983v10.4a1.454,1.454,0,0,0,2.908,0v-8.93c0-.334.093-.789.709-.789.421,0,.511.449.524.735V1597.8a2.089,2.089,0,1,0,4.178,0v-15.426a.578.578,0,0,1,.6-.613h0a.567.567,0,0,1,.6.613V1597.8a2.091,2.091,0,0,0,4.182,0v-26.768c.015-.286.1-.735.526-.735.612,0,.71.455.71.789v8.93a1.453,1.453,0,1,0,2.906,0v-10.4a5,5,0,0,0-4.538-4.983" fill="#fff"/>
      <path id="Trazado_2256" data-name="Trazado 2256" d="M6613.106,1564.958a3.555,3.555,0,1,0-3.553-3.552,3.549,3.549,0,0,0,3.553,3.552" fill="#fff"/>
      <path id="Trazado_2257" data-name="Trazado 2257" d="M6617.334,1571.48c.463-.134.594.484.594.484l2.379,8.022s.454,1.721,1.938,1.281c1.5-.441.97-2.2.97-2.2l-2.952-9.613s-1.057-2.78-3.393-2.78h-7.526c-2.338,0-3.4,2.78-3.4,2.78l-2.952,9.613s-.526,1.761.967,2.2,1.94-1.281,1.94-1.281l2.381-8.022s.13-.618.593-.484.289.794.289.794l-4.143,15.033h3.854v10.769a1.85,1.85,0,0,0,3.7,0v-10.769h1.054v10.769a1.852,1.852,0,0,0,3.7,0v-10.769h3.852l-4.141-15.033s-.175-.661.289-.794" fill="#fff"/>
      <path id="Trazado_2258" data-name="Trazado 2258" d="M6591.83,1564.958a3.555,3.555,0,1,0-3.552-3.552,3.55,3.55,0,0,0,3.552,3.552" fill="#fff"/>
      <path id="Trazado_2259" data-name="Trazado 2259" d="M6598.984,1569.452s-1.052-2.78-3.39-2.78h-7.528c-2.335,0-3.393,2.78-3.393,2.78l-2.951,9.613a2.641,2.641,0,0,0-.089.593,1.054,1.054,0,0,0-.837-.427,1.074,1.074,0,0,0-.913.506l-.01-.006c-.088.074-1.467,2.531-1.924,2.987a1.186,1.186,0,0,1-.911.431h-3.584a1.187,1.187,0,0,1-.913-.431c-.461-.456-1.835-2.913-1.924-2.987l-.009.006a1.085,1.085,0,0,0-.914-.506,1.063,1.063,0,0,0-.867.474v-10.09a5,5,0,0,0-4.544-4.983,2.282,2.282,0,0,0-.275-.022h-8.2a2.414,2.414,0,0,0-.287.022,5,5,0,0,0-4.54,4.983v10.4a1.45,1.45,0,0,0,.782,1.282.557.557,0,0,0-.053.129l-3.331,17.656a.549.549,0,0,0,.438.641.469.469,0,0,0,.1.01.55.55,0,0,0,.54-.447l3.331-17.657a.557.557,0,0,0,0-.209,1.452,1.452,0,0,0,1.1-1.405v-8.93c0-.335.1-.79.708-.79.423,0,.512.45.53.735V1597.8a2.088,2.088,0,1,0,4.175,0v-15.426a.573.573,0,0,1,.6-.613h0a.571.571,0,0,1,.6.613V1597.8a2.09,2.09,0,0,0,4.179,0v-26.769c.012-.285.108-.735.526-.735.615,0,.709.455.709.79v8.93a1.452,1.452,0,0,0,2.763.625c.021.079.041.14.041.14l2.981,5.4a1.9,1.9,0,0,1,.183.711v1.06l-1.572,5.776h1.572v4.747h0a1.456,1.456,0,1,0,2.912,0V1593.9a1.016,1.016,0,0,1,0-.175h.878a.96.96,0,0,1,0,.175v4.572a1.459,1.459,0,0,0,2.918,0v-4.747h1.578l-1.578-5.809v-1.027a1.908,1.908,0,0,1,.182-.711l2.755-4.981s.177-.374.273-.647a1.344,1.344,0,0,0,.879.721c1.486.44,1.938-1.281,1.938-1.281l2.381-8.023s.13-.617.593-.482.29.791.29.791l-4.144,15.035h3.854v10.769a1.851,1.851,0,0,0,3.7,0v-10.769h1.052v10.769a1.85,1.85,0,0,0,3.7,0v-10.769h3.854l-4.14-15.035s-.175-.659.286-.791.6.482.6.482l2.378,8.023s.453,1.721,1.94,1.281.967-2.2.967-2.2Z" fill="#fff"/>
      <path id="Trazado_2260" data-name="Trazado 2260" d="M6628.586,1581.286a2.957,2.957,0,1,0-2.956-2.959,2.955,2.955,0,0,0,2.956,2.959" fill="#fff"/>
      <path id="Trazado_2261" data-name="Trazado 2261" d="M6635.594,1589.693c-.035-.114-1.882-4.642-2.1-5.277-.666-1.947-1.879-1.931-3.048-1.963s-1.868,0-1.868,0-.747-.03-2.29.016-2.028.838-3.726,5.21c-.242.63-1.065,2.667-1.076,2.789l.011,0a1.028,1.028,0,0,0,.431,1.4.989.989,0,0,0,1.269-.412l1.607-5.126s.278-.344.278.011v12.067h.009a1.516,1.516,0,1,0,3.031,0v-4.763s-.087-.672.456-.672.459.672.459.672v4.763a1.52,1.52,0,0,0,3.039,0v-12.067c0-.355.188-.1.188-.1l1.261,3.51a8.529,8.529,0,0,0,.713,1.638,1.123,1.123,0,0,0,1.466-.606,1.1,1.1,0,0,0-.119-1.08Z" fill="#fff"/>
      <path id="Trazado_2262" data-name="Trazado 2262" d="M6559.9,1563.186a3.752,3.752,0,1,0-3.747-3.752,3.755,3.755,0,0,0,3.747,3.752" fill="#fff"/>
      <path id="Trazado_2263" data-name="Trazado 2263" d="M6575.243,1581.286a2.957,2.957,0,1,0-2.955-2.959,2.954,2.954,0,0,0,2.955,2.959" fill="#fff"/>
    </g>
    <g id="Grupo_1257" data-name="Grupo 1257" transform="translate(-6150.434 -0.597)">
      <ellipse id="Elipse_141" data-name="Elipse 141" cx="65.13" cy="65.352" rx="65.13" ry="65.352" transform="translate(6533.386 1504.311)" fill="#bcc971"/>
      <path id="Trazado_2264" data-name="Trazado 2264" d="M6633.455,1548.136a5.033,5.033,0,0,0-4.013-1.6l-9.625-18.98-45.583.674-14.328-1.007.687,59.861-.6,2.522s7.185,7.82,8.8,9.084a132.616,132.616,0,0,1,.232,13.607s11.421,7.391,37.686,22.19a65.252,65.252,0,0,0,56.4-56.6C6653.513,1568.252,6633.543,1548.214,6633.455,1548.136Zm-47.835,43.831-.125-.064h-.318v-.23l.125-.036v.174h.318Zm2.864-1.1-.047.028-.079-.137.126-.036Zm.318.319-.047.028-.126-.218h.173Zm.318.319-.048.027-.125-.217h.173Zm.317.319-.047.027-.125-.217h.172Zm.318.322-.172-.193h.172Z" fill="#abb54d"/>
      <path id="Trazado_2265" data-name="Trazado 2265" d="M6621.731,1537.361h6.807v73.74H6570.2v-6.782h4.707v2.075h48.926v-64.327h-2.1v-4.707Zm-51.044.675v23.534h19.522v-23.534Zm0,37.655v4.707h39.042v-4.707Zm23.917-37.654v4.706h15.124v-4.706Zm0,9.413v4.707h15.124v-4.707Zm0,9.413v4.707h15.124v-4.707Zm-23.918,9.414v4.707h39.042v-4.707Zm48.691-38.052h-58.34v61.451l11.73,12.289h46.61v-73.74Zm-4.707,4.707h-48.926v53.545h10.78v10.781h38.146Z" fill="#fff" stroke="#035e4f" stroke-miterlimit="10" stroke-width="2" fill-rule="evenodd"/>
    </g>
    <circle id="Elipse_142" data-name="Elipse 142" cx="18.641" cy="18.641" r="18.641" transform="translate(452.311 1580.689)" fill="#fff" stroke="#035e4f" stroke-miterlimit="10" stroke-width="2"/>
    <text id="_50" data-name="50" transform="translate(470.872 1605.78)" fill="#035e4f" font-size="22" font-family="Montserrat-Bold, Montserrat" font-weight="700"><tspan x="-14.014" y="0">50</tspan></text>
  </g>
</svg>
