<svg xmlns="http://www.w3.org/2000/svg" width="121" height="121" viewBox="0 0 121 121">
  <g id="Grupo_4792" data-name="Grupo 4792" transform="translate(-198.234 -2804.57)">
    <g id="Grupo_4790" data-name="Grupo 4790">
      <path id="Trazado_2269" data-name="Trazado 2269" d="M6409.168,2805.167q2.971,0,5.93.291t5.873.871q2.914.58,5.759,1.443t5.59,2q2.747,1.137,5.367,2.538t5.093,3.053q2.47,1.652,4.769,3.537t4.4,3.987q2.1,2.1,3.987,4.4t3.537,4.769q1.652,2.47,3.052,5.092t2.538,5.367q1.138,2.747,2,5.591t1.442,5.759q.581,2.914.871,5.873t.292,5.93q0,2.971-.292,5.93t-.871,5.873q-.579,2.915-1.442,5.759t-2,5.59q-1.137,2.746-2.538,5.367t-3.052,5.093q-1.652,2.47-3.537,4.769t-3.987,4.4q-2.1,2.1-4.4,3.987t-4.769,3.537q-2.472,1.65-5.093,3.052t-5.367,2.538q-2.744,1.139-5.59,2t-5.759,1.442q-2.917.581-5.873.871t-5.93.292q-2.973,0-5.93-.292t-5.873-.871q-2.917-.579-5.759-1.442t-5.591-2q-2.745-1.137-5.367-2.538t-5.092-3.052q-2.472-1.651-4.769-3.537t-4.4-3.987q-2.1-2.1-3.987-4.4t-3.537-4.769q-1.651-2.472-3.052-5.093t-2.539-5.367q-1.137-2.747-2-5.59t-1.443-5.759q-.579-2.916-.871-5.873t-.291-5.93q0-2.973.291-5.93t.871-5.873q.58-2.916,1.443-5.759t2-5.591q1.137-2.745,2.539-5.367t3.052-5.092q1.652-2.472,3.537-4.769t3.987-4.4q2.1-2.1,4.4-3.987t4.769-3.537q2.47-1.652,5.092-3.053t5.367-2.538q2.747-1.137,5.591-2t5.759-1.443q2.914-.579,5.873-.871T6409.168,2805.167Z" transform="translate(-6150.434 -0.597)" fill="#a3bd31"/>
      <circle id="Elipse_144" data-name="Elipse 144" cx="53.993" cy="53.993" r="53.993" transform="translate(202.843 2917.053) rotate(-87.403)" fill="#fff"/>
      <path id="Trazado_2280" data-name="Trazado 2280" d="M6424.534,2863.81l-3.856-1.637a8.771,8.771,0,0,1-4.314-4.068,18.736,18.736,0,0,0,4.325-7.593l.941-.551a23.066,23.066,0,0,0,1.5-9.319l-.7-.535c.183-2.552.111-7.145-1.109-9.393-4.654-8.593-19.735-8.593-24.389,0-1.219,2.248-1.291,6.841-1.108,9.393l-.7.535a23.083,23.083,0,0,0,1.5,9.319l.94.551a18.756,18.756,0,0,0,4.326,7.593,8.769,8.769,0,0,1-4.314,4.068l-3.844,1.632a18.95,18.95,0,0,1,6.1,30.25h18.639a18.986,18.986,0,0,1,6.055-30.245Z" transform="translate(-6150.434 -0.597)" fill="#35604f"/>
      <path id="Trazado_2281" data-name="Trazado 2281" d="M6435.074,2873.845h-5.429v4.549H6425.1v5.429h4.549v4.549h5.429v-4.549h4.549v-5.429h-4.549Z" transform="translate(-6150.434 -0.597)" fill="#76aadb"/>
      <path id="Trazado_2282" data-name="Trazado 2282" d="M6432.359,2865.568a15.54,15.54,0,1,0,15.54,15.541A15.542,15.542,0,0,0,6432.359,2865.568Zm0,26.072a10.531,10.531,0,1,1,10.531-10.531A10.53,10.53,0,0,1,6432.359,2891.64Z" transform="translate(-6150.434 -0.597)" fill="#78958a"/>
      <path id="Trazado_2283" data-name="Trazado 2283" d="M6387.692,2873.845h-5.43v4.549h-4.549v5.429h4.549v4.549h5.43v-4.549h4.549v-5.429h-4.549Z" transform="translate(-6150.434 -0.597)" fill="#e6b54a"/>
      <path id="Trazado_2284" data-name="Trazado 2284" d="M6384.977,2865.568a15.54,15.54,0,1,0,15.54,15.541A15.542,15.542,0,0,0,6384.977,2865.568Zm0,26.072a10.531,10.531,0,1,1,10.531-10.531A10.53,10.53,0,0,1,6384.977,2891.64Z" transform="translate(-6150.434 -0.597)" fill="#78958a"/>
    </g>
  </g>
</svg>
