<svg xmlns="http://www.w3.org/2000/svg" width="152.443" height="152.444" viewBox="0 0 152.443 152.444">
  <g id="Grupo_4786" data-name="Grupo 4786" transform="translate(-277.738 -3739.237)">
    <path id="Trazado_2340" data-name="Trazado 2340" d="M4956.838,13317.539q3.746,0,7.471.367t7.4,1.1q3.674.731,7.256,1.817t7.043,2.52q3.459,1.434,6.762,3.2t6.416,3.845q3.112,2.082,6.008,4.456t5.542,5.023q2.648,2.647,5.023,5.542t4.456,6.008q2.081,3.114,3.846,6.416t3.2,6.762q1.433,3.46,2.52,7.043t1.817,7.256q.73,3.672,1.1,7.4t.367,7.471q0,3.744-.367,7.472t-1.1,7.4q-.731,3.672-1.817,7.256t-2.52,7.043q-1.432,3.46-3.2,6.763t-3.846,6.415q-2.08,3.113-4.456,6.008t-5.023,5.543q-2.647,2.647-5.542,5.022t-6.008,4.456q-3.114,2.082-6.416,3.846t-6.762,3.2q-3.458,1.434-7.043,2.521t-7.256,1.817q-3.672.731-7.4,1.1t-7.471.368q-3.744,0-7.471-.368t-7.4-1.1q-3.672-.729-7.256-1.817t-7.042-2.521q-3.461-1.433-6.762-3.2t-6.416-3.846q-3.114-2.08-6.008-4.456t-5.542-5.022q-2.649-2.648-5.024-5.543t-4.456-6.008q-2.079-3.113-3.845-6.415t-3.2-6.763q-1.434-3.46-2.52-7.043t-1.818-7.256q-.73-3.672-1.1-7.4t-.367-7.472q0-3.744.367-7.471t1.1-7.4q.73-3.672,1.818-7.256t2.52-7.043q1.433-3.458,3.2-6.762t3.845-6.416q2.081-3.113,4.456-6.008t5.024-5.542q2.648-2.648,5.542-5.023t6.008-4.456q3.112-2.08,6.416-3.845t6.762-3.2q3.459-1.433,7.042-2.52t7.256-1.817q3.674-.731,7.4-1.1T4956.838,13317.539Z" transform="translate(-4602.879 -9578.302)" fill="#035e4f"/>
    <circle id="Elipse_149" data-name="Elipse 149" cx="71.597" cy="71.597" r="71.597" transform="translate(282.983 3744.483)" fill="#fff"/>
    <circle id="Elipse_150" data-name="Elipse 150" cx="65.13" cy="65.13" r="65.13" transform="translate(289.449 3750.95)" fill="#be1c25"/>
    <g id="Grupo_1291" data-name="Grupo 1291" transform="translate(-4602.879 -9578.302)">
      <path id="Trazado_2341" data-name="Trazado 2341" d="M5001.659,13387.684a3.752,3.752,0,1,0-3.753-3.752,3.75,3.75,0,0,0,3.753,3.752" fill="#fff"/>
      <path id="Trazado_2342" data-name="Trazado 2342" d="M5006.038,13389.13a2.46,2.46,0,0,0-.286-.022h-8.2a2.269,2.269,0,0,0-.275.022,5,5,0,0,0-4.547,4.983v10.4a1.454,1.454,0,1,0,2.908,0v-8.929c0-.335.094-.79.71-.79.42,0,.511.45.524.735v26.768a2.089,2.089,0,0,0,4.178,0v-15.426a.576.576,0,0,1,.6-.612h0a.566.566,0,0,1,.594.612v15.426a2.091,2.091,0,0,0,4.182,0v-26.768c.016-.285.1-.735.526-.735.613,0,.71.455.71.79v8.929a1.454,1.454,0,1,0,2.907,0v-10.4a5,5,0,0,0-4.539-4.983" fill="#fff"/>
      <path id="Trazado_2343" data-name="Trazado 2343" d="M4972.049,13389.455a3.555,3.555,0,1,0-3.553-3.552,3.548,3.548,0,0,0,3.553,3.552" fill="#fff"/>
      <path id="Trazado_2344" data-name="Trazado 2344" d="M4976.276,13395.977c.464-.134.6.485.6.485l2.378,8.021s.455,1.721,1.939,1.28c1.5-.439.969-2.2.969-2.2l-2.952-9.612s-1.057-2.78-3.392-2.78h-7.527c-2.338,0-3.4,2.78-3.4,2.78l-2.952,9.612s-.526,1.763.967,2.2,1.94-1.28,1.94-1.28l2.381-8.021s.13-.619.593-.485.29.795.29.795l-4.144,15.033h3.854v10.769a1.85,1.85,0,0,0,3.7,0V13411.8h1.055v10.769a1.851,1.851,0,0,0,3.7,0V13411.8h3.852l-4.14-15.033s-.175-.661.288-.795" fill="#fff"/>
      <path id="Trazado_2345" data-name="Trazado 2345" d="M4950.773,13389.455a3.555,3.555,0,1,0-3.552-3.552,3.549,3.549,0,0,0,3.552,3.552" fill="#fff"/>
      <path id="Trazado_2346" data-name="Trazado 2346" d="M4957.926,13393.949s-1.051-2.78-3.389-2.78h-7.528c-2.336,0-3.394,2.78-3.394,2.78l-2.951,9.614a2.643,2.643,0,0,0-.088.592,1.057,1.057,0,0,0-.837-.427,1.07,1.07,0,0,0-.913.506l-.011-.006c-.088.074-1.467,2.531-1.924,2.986a1.186,1.186,0,0,1-.911.432H4932.4a1.188,1.188,0,0,1-.913-.432c-.461-.455-1.836-2.912-1.924-2.986l-.009.006a1.083,1.083,0,0,0-.914-.506,1.059,1.059,0,0,0-.867.474v-10.09a5,5,0,0,0-4.545-4.983,2.312,2.312,0,0,0-.275-.021h-8.2a2.464,2.464,0,0,0-.287.021,5,5,0,0,0-4.541,4.983v10.4a1.452,1.452,0,0,0,.782,1.282.557.557,0,0,0-.052.129l-3.331,17.656a.55.55,0,0,0,1.081.2l3.331-17.657a.557.557,0,0,0,0-.209,1.453,1.453,0,0,0,1.1-1.405v-8.93c0-.335.1-.789.709-.789.423,0,.511.449.529.734v26.769a2.088,2.088,0,1,0,4.176,0v-15.425a.572.572,0,0,1,.6-.613h0a.57.57,0,0,1,.6.613v15.425a2.09,2.09,0,0,0,4.18,0v-26.769c.011-.285.108-.734.526-.734.615,0,.708.454.708.789v8.93a1.452,1.452,0,0,0,2.763.625c.021.08.042.142.042.142l2.98,5.395a1.892,1.892,0,0,1,.184.711v1.062l-1.573,5.774h1.573v4.748h0a1.456,1.456,0,1,0,2.912,0v-4.572a1.023,1.023,0,0,1,0-.176h.877a.967.967,0,0,1,0,.176v4.572a1.459,1.459,0,0,0,2.919,0v-4.748h1.577l-1.577-5.809v-1.027a1.908,1.908,0,0,1,.182-.711l2.755-4.98s.176-.374.272-.647a1.345,1.345,0,0,0,.879.721c1.487.44,1.939-1.279,1.939-1.279l2.381-8.024s.13-.616.593-.482.29.792.29.792l-4.145,15.035h3.855v10.769a1.851,1.851,0,0,0,3.7,0V13411.8h1.052v10.769a1.85,1.85,0,0,0,3.7,0V13411.8h3.855l-4.14-15.035s-.175-.659.285-.792.6.482.6.482l2.379,8.024s.453,1.72,1.939,1.279.968-2.2.968-2.2Z" fill="#fff"/>
      <path id="Trazado_2347" data-name="Trazado 2347" d="M4987.528,13405.783a2.957,2.957,0,1,0-2.956-2.959,2.956,2.956,0,0,0,2.956,2.959" fill="#fff"/>
      <path id="Trazado_2348" data-name="Trazado 2348" d="M4994.537,13414.19c-.035-.114-1.883-4.643-2.1-5.277-.666-1.946-1.88-1.931-3.049-1.962s-1.868,0-1.868,0-.746-.031-2.29.016-2.028.837-3.726,5.21c-.241.629-1.064,2.666-1.075,2.789l.011,0a1.026,1.026,0,0,0,.43,1.4.989.989,0,0,0,1.269-.412l1.607-5.126s.278-.343.278.011v12.067h.009a1.516,1.516,0,1,0,3.032,0v-4.764s-.087-.672.455-.672.46.672.46.672v4.764a1.519,1.519,0,0,0,3.038,0v-12.067c0-.354.188-.1.188-.1l1.261,3.51a8.523,8.523,0,0,0,.714,1.638,1.123,1.123,0,0,0,1.466-.605,1.1,1.1,0,0,0-.12-1.079Z" fill="#fff"/>
      <path id="Trazado_2349" data-name="Trazado 2349" d="M4918.845,13387.684a3.752,3.752,0,1,0-3.747-3.752,3.756,3.756,0,0,0,3.747,3.752" fill="#fff"/>
      <path id="Trazado_2350" data-name="Trazado 2350" d="M4934.186,13405.783a2.957,2.957,0,1,0-2.955-2.959,2.955,2.955,0,0,0,2.955,2.959" fill="#fff"/>
    </g>
    <g id="Grupo_1292" data-name="Grupo 1292" transform="translate(-4602.879 -9578.302)">
      <ellipse id="Elipse_151" data-name="Elipse 151" cx="65.13" cy="65.352" rx="65.13" ry="65.352" transform="translate(4892.329 13328.809)" fill="#d8efdd"/>
      <path id="Trazado_2353" data-name="Trazado 2353" d="M4992.4,13372.633a5.033,5.033,0,0,0-4.013-1.6l-9.624-18.979-45.583.673-14.328-1.007.687,59.862-.6,2.521s7.185,7.82,8.8,9.084a132.383,132.383,0,0,1,.232,13.607s11.422,7.391,37.686,22.189a65.253,65.253,0,0,0,56.4-56.595C5012.455,13392.749,4992.485,13372.711,4992.4,13372.633Zm-47.834,43.831-.125-.063h-.318v-.23l.125-.036v.174h.318Zm2.864-1.1-.048.026-.078-.137.126-.036Zm.317.318-.047.027-.125-.217h.172Zm.318.318-.047.028-.125-.219h.172Zm.318.319-.047.027-.125-.218h.172Zm.318.321-.173-.191h.173Z" fill="#a3c6a8"/>
      <path id="Trazado_2354" data-name="Trazado 2354" d="M4980.673,13361.858h6.808v73.739H4929.14v-6.781h4.708v2.074h48.925v-64.326h-2.1v-4.707Zm-51.043.675v23.534h19.521v-23.534Zm0,37.655v4.706h39.042v-4.706Zm23.916-37.654v4.706h15.125v-4.706Zm0,9.414v4.706h15.125v-4.706Zm0,9.413v4.706h15.125v-4.706Zm-23.917,9.414v4.706h39.042v-4.706Zm48.69-38.054h-58.339v61.451l11.729,12.289h46.61v-73.74Zm-4.706,4.707h-48.927v53.545h10.781v10.781h38.146Z" fill="#fff" stroke="#035e4f" stroke-miterlimit="10" stroke-width="2" fill-rule="evenodd"/>
    </g>
    <circle id="Elipse_169" data-name="Elipse 169" cx="18.641" cy="18.641" r="18.641" transform="translate(358.808 3827.481)" fill="#fff" stroke="#035e4f" stroke-miterlimit="10" stroke-width="2"/>
    <text id="_2" data-name="2" transform="translate(379.369 3851.571)" fill="#035e4f" font-size="22" font-family="Montserrat-Bold, Montserrat" font-weight="700"><tspan x="-6.49" y="0">2</tspan></text>
  </g>
</svg>
