<svg xmlns="http://www.w3.org/2000/svg" width="152.443" height="152.444" viewBox="0 0 152.443 152.444">
  <g id="Grupo_4787" data-name="Grupo 4787" transform="translate(-642.316 -3739.237)">
    <path id="Trazado_2434" data-name="Trazado 2434" d="M5321.417,13317.539q3.746,0,7.471.367t7.4,1.1q3.673.731,7.256,1.817t7.043,2.52q3.459,1.434,6.762,3.2t6.416,3.845q3.112,2.082,6.008,4.456t5.542,5.023q2.648,2.647,5.023,5.542t4.456,6.008q2.081,3.114,3.846,6.416t3.2,6.762q1.433,3.46,2.52,7.043t1.817,7.256q.731,3.672,1.1,7.4t.367,7.471q0,3.744-.367,7.472t-1.1,7.4q-.73,3.672-1.817,7.256t-2.52,7.043q-1.434,3.46-3.2,6.763t-3.846,6.415q-2.081,3.113-4.456,6.008t-5.023,5.543q-2.648,2.647-5.542,5.022t-6.008,4.456q-3.114,2.082-6.416,3.846t-6.762,3.2q-3.459,1.434-7.043,2.521t-7.256,1.817q-3.672.731-7.4,1.1t-7.471.368q-3.744,0-7.471-.368t-7.4-1.1q-3.672-.729-7.256-1.817t-7.043-2.521q-3.459-1.433-6.761-3.2t-6.416-3.846q-3.114-2.08-6.008-4.456t-5.543-5.022q-2.648-2.648-5.023-5.543t-4.456-6.008q-2.081-3.113-3.845-6.415t-3.2-6.763q-1.434-3.46-2.52-7.043t-1.818-7.256q-.731-3.672-1.1-7.4t-.367-7.472q0-3.744.367-7.471t1.1-7.4q.73-3.672,1.818-7.256t2.52-7.043q1.433-3.458,3.2-6.762t3.845-6.416q2.081-3.113,4.456-6.008t5.023-5.542q2.649-2.648,5.543-5.023t6.008-4.456q3.113-2.08,6.416-3.845t6.761-3.2q3.461-1.433,7.043-2.52t7.256-1.817q3.672-.731,7.4-1.1T5321.417,13317.539Z" transform="translate(-4602.879 -9578.302)" fill="#035e4f"/>
    <circle id="Elipse_170" data-name="Elipse 170" cx="71.597" cy="71.597" r="71.597" transform="translate(647.562 3744.483)" fill="#fff"/>
    <circle id="Elipse_171" data-name="Elipse 171" cx="65.13" cy="65.13" r="65.13" transform="translate(654.028 3750.95)" fill="#be1c25"/>
    <g id="Grupo_1448" data-name="Grupo 1448" transform="translate(-4602.879 -9578.302)">
      <path id="Trazado_2435" data-name="Trazado 2435" d="M5366.238,13387.684a3.752,3.752,0,1,0-3.754-3.752,3.749,3.749,0,0,0,3.754,3.752" fill="#fff"/>
      <path id="Trazado_2436" data-name="Trazado 2436" d="M5370.617,13389.13a2.486,2.486,0,0,0-.286-.022h-8.2a2.269,2.269,0,0,0-.275.022,5,5,0,0,0-4.547,4.983v10.4a1.454,1.454,0,1,0,2.908,0v-8.929c0-.335.094-.79.709-.79.421,0,.512.45.525.735v26.768a2.089,2.089,0,1,0,4.178,0v-15.426a.576.576,0,0,1,.6-.612h0a.566.566,0,0,1,.594.612v15.426a2.091,2.091,0,0,0,4.182,0v-26.768c.015-.285.1-.735.526-.735.613,0,.71.455.71.79v8.929a1.453,1.453,0,1,0,2.907,0v-10.4a5,5,0,0,0-4.539-4.983" fill="#fff"/>
      <path id="Trazado_2437" data-name="Trazado 2437" d="M5336.628,13389.455a3.555,3.555,0,1,0-3.554-3.552,3.548,3.548,0,0,0,3.554,3.552" fill="#fff"/>
      <path id="Trazado_2438" data-name="Trazado 2438" d="M5340.855,13395.977c.464-.134.6.485.6.485l2.378,8.021s.455,1.721,1.938,1.28c1.5-.439.97-2.2.97-2.2l-2.952-9.612s-1.057-2.78-3.393-2.78h-7.526c-2.338,0-3.4,2.78-3.4,2.78l-2.952,9.612s-.526,1.763.967,2.2,1.94-1.28,1.94-1.28l2.381-8.021s.13-.619.593-.485.29.795.29.795l-4.144,15.033h3.854v10.769a1.85,1.85,0,0,0,3.7,0V13411.8h1.054v10.769a1.852,1.852,0,0,0,3.7,0V13411.8h3.852l-4.14-15.033s-.176-.661.288-.795" fill="#fff"/>
      <path id="Trazado_2439" data-name="Trazado 2439" d="M5315.351,13389.455a3.555,3.555,0,1,0-3.552-3.552,3.55,3.55,0,0,0,3.552,3.552" fill="#fff"/>
      <path id="Trazado_2440" data-name="Trazado 2440" d="M5322.5,13393.949s-1.052-2.78-3.39-2.78h-7.527c-2.336,0-3.394,2.78-3.394,2.78l-2.951,9.614a2.592,2.592,0,0,0-.088.592,1.057,1.057,0,0,0-.838-.427,1.074,1.074,0,0,0-.913.506l-.01-.006c-.088.074-1.467,2.531-1.924,2.986a1.186,1.186,0,0,1-.911.432h-3.584a1.187,1.187,0,0,1-.912-.432c-.461-.455-1.836-2.912-1.924-2.986l-.009.006a1.083,1.083,0,0,0-.914-.506,1.062,1.062,0,0,0-.868.474v-10.09a5,5,0,0,0-4.544-4.983,2.337,2.337,0,0,0-.275-.021h-8.2a2.489,2.489,0,0,0-.287.021,5,5,0,0,0-4.54,4.983v10.4a1.45,1.45,0,0,0,.782,1.282.517.517,0,0,0-.052.129l-3.331,17.656a.55.55,0,0,0,1.081.2l3.331-17.657a.557.557,0,0,0,0-.209,1.453,1.453,0,0,0,1.1-1.405v-8.93c0-.335.1-.789.709-.789.423,0,.511.449.529.734v26.769a2.088,2.088,0,1,0,4.176,0v-15.425a.571.571,0,0,1,.6-.613h0a.57.57,0,0,1,.6.613v15.425a2.09,2.09,0,0,0,4.179,0v-26.769c.012-.285.108-.734.526-.734.616,0,.709.454.709.789v8.93a1.452,1.452,0,0,0,2.763.625c.021.08.042.142.042.142l2.98,5.395a1.9,1.9,0,0,1,.183.711v1.062l-1.572,5.774h1.572v4.748h.006a1.456,1.456,0,1,0,2.912,0v-4.572a1.023,1.023,0,0,1,0-.176h.877a.967.967,0,0,1,0,.176v4.572a1.459,1.459,0,0,0,2.919,0v-4.748h1.577l-1.577-5.809v-1.027a1.908,1.908,0,0,1,.182-.711l2.755-4.98s.176-.374.272-.647a1.344,1.344,0,0,0,.879.721c1.487.44,1.938-1.279,1.938-1.279l2.382-8.024s.129-.616.593-.482.289.792.289.792l-4.144,15.035h3.855v10.769a1.851,1.851,0,0,0,3.7,0V13411.8h1.052v10.769a1.85,1.85,0,0,0,3.7,0V13411.8h3.855l-4.141-15.035s-.175-.659.286-.792.6.482.6.482l2.378,8.024s.454,1.72,1.94,1.279.967-2.2.967-2.2Z" fill="#fff"/>
      <path id="Trazado_2441" data-name="Trazado 2441" d="M5352.107,13405.783a2.957,2.957,0,1,0-2.956-2.959,2.955,2.955,0,0,0,2.956,2.959" fill="#fff"/>
      <path id="Trazado_2442" data-name="Trazado 2442" d="M5359.115,13414.19c-.035-.114-1.882-4.643-2.1-5.277-.666-1.946-1.88-1.931-3.049-1.962s-1.868,0-1.868,0-.746-.031-2.29.016-2.028.837-3.726,5.21c-.242.629-1.065,2.666-1.075,2.789l.01,0a1.028,1.028,0,0,0,.431,1.4.988.988,0,0,0,1.269-.412l1.607-5.126s.278-.343.278.011v12.067h.009a1.516,1.516,0,1,0,3.032,0v-4.764s-.088-.672.455-.672.46.672.46.672v4.764a1.519,1.519,0,0,0,3.038,0v-12.067c0-.354.188-.1.188-.1l1.261,3.51a8.518,8.518,0,0,0,.714,1.638,1.122,1.122,0,0,0,1.465-.605,1.1,1.1,0,0,0-.119-1.079Z" fill="#fff"/>
      <path id="Trazado_2443" data-name="Trazado 2443" d="M5283.424,13387.684a3.752,3.752,0,1,0-3.747-3.752,3.755,3.755,0,0,0,3.747,3.752" fill="#fff"/>
      <path id="Trazado_2444" data-name="Trazado 2444" d="M5298.764,13405.783a2.957,2.957,0,1,0-2.954-2.959,2.955,2.955,0,0,0,2.954,2.959" fill="#fff"/>
    </g>
    <g id="Grupo_1449" data-name="Grupo 1449" transform="translate(-4602.879 -9578.302)">
      <ellipse id="Elipse_172" data-name="Elipse 172" cx="65.13" cy="65.352" rx="65.13" ry="65.352" transform="translate(5256.908 13328.809)" fill="#f7ec45"/>
      <path id="Trazado_2445" data-name="Trazado 2445" d="M5356.976,13372.633a5.033,5.033,0,0,0-4.013-1.6l-9.624-18.979-45.584.673-14.327-1.007.686,59.862-.6,2.521s7.185,7.82,8.8,9.084a132.316,132.316,0,0,1,.232,13.607s11.421,7.391,37.686,22.189a65.253,65.253,0,0,0,56.4-56.595C5377.034,13392.749,5357.064,13372.711,5356.976,13372.633Zm-47.834,43.831-.125-.063h-.318v-.23l.125-.036v.174h.318Zm2.863-1.1-.047.026-.079-.137.126-.036Zm.318.318-.047.027-.125-.217h.172Zm.318.318-.047.028-.126-.219h.173Zm.318.319-.047.027-.126-.218h.173Zm.318.321-.173-.191h.173Z" fill="#cebe25"/>
      <path id="Trazado_2446" data-name="Trazado 2446" d="M5345.252,13361.858h6.807v73.739h-58.34v-6.781h4.708v2.074h48.925v-64.326h-2.1v-4.707Zm-51.043.675v23.534h19.521v-23.534Zm0,37.655v4.706h39.042v-4.706Zm23.916-37.654v4.706h15.125v-4.706Zm0,9.414v4.706h15.125v-4.706Zm0,9.413v4.706h15.125v-4.706Zm-23.917,9.414v4.706h39.042v-4.706Zm48.69-38.054h-58.34v61.451l11.73,12.289h46.61v-73.74Zm-4.707,4.707h-48.926v53.545h10.781v10.781h38.145Z" fill="#fff" stroke="#035e4f" stroke-miterlimit="10" stroke-width="2" fill-rule="evenodd"/>
    </g>
    <circle id="Elipse_173" data-name="Elipse 173" cx="18.641" cy="18.641" r="18.641" transform="translate(723.386 3827.481)" fill="#fff" stroke="#035e4f" stroke-miterlimit="10" stroke-width="2"/>
    <text id="_3" data-name="3" transform="translate(741.948 3852.571)" fill="#035e4f" font-size="22" font-family="Montserrat-Bold, Montserrat" font-weight="700"><tspan x="-6.512" y="0">3</tspan></text>
  </g>
</svg>
