<svg xmlns="http://www.w3.org/2000/svg" width="152.443" height="152.444" viewBox="0 0 152.443 152.444">
  <g id="Grupo_4788" data-name="Grupo 4788" transform="translate(-1006.989 -3739.237)">
    <path id="Trazado_2447" data-name="Trazado 2447" d="M5686.09,13317.539q3.744,0,7.471.367t7.4,1.1q3.672.731,7.256,1.817t7.043,2.52q3.459,1.434,6.761,3.2t6.416,3.845q3.114,2.082,6.008,4.456t5.543,5.023q2.648,2.647,5.023,5.542t4.456,6.008q2.081,3.114,3.845,6.416t3.2,6.762q1.434,3.46,2.52,7.043t1.818,7.256q.73,3.672,1.1,7.4t.367,7.471q0,3.744-.367,7.472t-1.1,7.4q-.731,3.672-1.818,7.256t-2.52,7.043q-1.432,3.46-3.2,6.763t-3.845,6.415q-2.08,3.113-4.456,6.008t-5.023,5.543q-2.648,2.647-5.543,5.022t-6.008,4.456q-3.113,2.082-6.416,3.846t-6.761,3.2q-3.46,1.434-7.043,2.521t-7.256,1.817q-3.673.731-7.4,1.1t-7.471.368q-3.746,0-7.471-.368t-7.4-1.1q-3.674-.729-7.256-1.817t-7.043-2.521q-3.458-1.433-6.762-3.2t-6.416-3.846q-3.113-2.08-6.008-4.456t-5.542-5.022q-2.647-2.648-5.023-5.543t-4.456-6.008q-2.08-3.113-3.846-6.415t-3.2-6.763q-1.433-3.46-2.52-7.043t-1.817-7.256q-.73-3.672-1.1-7.4t-.367-7.472q0-3.744.367-7.471t1.1-7.4q.73-3.672,1.817-7.256t2.52-7.043q1.434-3.458,3.2-6.762t3.846-6.416q2.081-3.113,4.456-6.008t5.023-5.542q2.648-2.648,5.542-5.023t6.008-4.456q3.114-2.08,6.416-3.845t6.762-3.2q3.459-1.433,7.043-2.52t7.256-1.817q3.672-.731,7.4-1.1T5686.09,13317.539Z" transform="translate(-4602.879 -9578.302)" fill="#035e4f"/>
    <circle id="Elipse_174" data-name="Elipse 174" cx="71.597" cy="71.597" r="71.597" transform="translate(1012.234 3744.483)" fill="#fff"/>
    <circle id="Elipse_175" data-name="Elipse 175" cx="65.13" cy="65.13" r="65.13" transform="translate(1018.701 3750.95)" fill="#be1c25"/>
    <g id="Grupo_1450" data-name="Grupo 1450" transform="translate(-4602.879 -9578.302)">
      <path id="Trazado_2448" data-name="Trazado 2448" d="M5730.911,13387.684a3.752,3.752,0,1,0-3.754-3.752,3.749,3.749,0,0,0,3.754,3.752" fill="#fff"/>
      <path id="Trazado_2449" data-name="Trazado 2449" d="M5735.29,13389.13a2.5,2.5,0,0,0-.286-.022h-8.2a2.269,2.269,0,0,0-.276.022,5,5,0,0,0-4.546,4.983v10.4a1.454,1.454,0,1,0,2.908,0v-8.929c0-.335.093-.79.709-.79.421,0,.511.45.524.735v26.768a2.089,2.089,0,0,0,4.178,0v-15.426a.577.577,0,0,1,.6-.612h0a.567.567,0,0,1,.595.612v15.426a2.091,2.091,0,0,0,4.181,0v-26.768c.016-.285.1-.735.526-.735.613,0,.711.455.711.79v8.929a1.453,1.453,0,1,0,2.906,0v-10.4a5,5,0,0,0-4.538-4.983" fill="#fff"/>
      <path id="Trazado_2450" data-name="Trazado 2450" d="M5701.3,13389.455a3.555,3.555,0,1,0-3.553-3.552,3.549,3.549,0,0,0,3.553,3.552" fill="#fff"/>
      <path id="Trazado_2451" data-name="Trazado 2451" d="M5705.528,13395.977c.463-.134.594.485.594.485l2.379,8.021s.454,1.721,1.938,1.28c1.5-.439.97-2.2.97-2.2l-2.952-9.612s-1.057-2.78-3.393-2.78h-7.526c-2.338,0-3.4,2.78-3.4,2.78l-2.952,9.612s-.526,1.763.967,2.2,1.94-1.28,1.94-1.28l2.38-8.021s.13-.619.594-.485.289.795.289.795l-4.144,15.033h3.855v10.769a1.85,1.85,0,0,0,3.7,0V13411.8h1.054v10.769a1.851,1.851,0,0,0,3.7,0V13411.8h3.852l-4.141-15.033s-.175-.661.289-.795" fill="#fff"/>
      <path id="Trazado_2452" data-name="Trazado 2452" d="M5680.024,13389.455a3.555,3.555,0,1,0-3.552-3.552,3.55,3.55,0,0,0,3.552,3.552" fill="#fff"/>
      <path id="Trazado_2453" data-name="Trazado 2453" d="M5687.178,13393.949s-1.052-2.78-3.39-2.78h-7.528c-2.335,0-3.393,2.78-3.393,2.78l-2.951,9.614a2.607,2.607,0,0,0-.089.592,1.057,1.057,0,0,0-.837-.427,1.071,1.071,0,0,0-.913.506l-.01-.006c-.089.074-1.467,2.531-1.924,2.986a1.189,1.189,0,0,1-.912.432h-3.583a1.188,1.188,0,0,1-.913-.432c-.461-.455-1.835-2.912-1.924-2.986l-.009.006a1.083,1.083,0,0,0-.914-.506,1.061,1.061,0,0,0-.867.474v-10.09a5,5,0,0,0-4.544-4.983,2.32,2.32,0,0,0-.275-.021H5644a2.464,2.464,0,0,0-.287.021,5,5,0,0,0-4.54,4.983v10.4a1.451,1.451,0,0,0,.781,1.282.6.6,0,0,0-.052.129l-3.331,17.656a.55.55,0,0,0,1.081.2l3.332-17.657a.557.557,0,0,0,0-.209,1.451,1.451,0,0,0,1.1-1.405v-8.93c0-.335.1-.789.709-.789.423,0,.512.449.53.734v26.769a2.087,2.087,0,1,0,4.175,0v-15.425a.572.572,0,0,1,.6-.613h0a.572.572,0,0,1,.6.613v15.425a2.089,2.089,0,0,0,4.179,0v-26.769c.012-.285.108-.734.526-.734.615,0,.709.454.709.789v8.93a1.451,1.451,0,0,0,2.762.625c.021.08.042.142.042.142l2.981,5.395a1.9,1.9,0,0,1,.183.711v1.062l-1.572,5.774h1.572v4.748h0a1.456,1.456,0,1,0,2.912,0v-4.572a1.087,1.087,0,0,1,0-.176h.878a.967.967,0,0,1,0,.176v4.572a1.459,1.459,0,0,0,2.918,0v-4.748h1.578l-1.578-5.809v-1.027a1.908,1.908,0,0,1,.182-.711l2.755-4.98s.177-.374.273-.647a1.343,1.343,0,0,0,.879.721c1.486.44,1.938-1.279,1.938-1.279l2.381-8.024s.13-.616.593-.482.29.792.29.792l-4.144,15.035h3.854v10.769a1.851,1.851,0,0,0,3.7,0V13411.8h1.052v10.769a1.85,1.85,0,0,0,3.7,0V13411.8h3.854l-4.14-15.035s-.175-.659.286-.792.6.482.6.482l2.378,8.024s.453,1.72,1.94,1.279.967-2.2.967-2.2Z" fill="#fff"/>
      <path id="Trazado_2454" data-name="Trazado 2454" d="M5716.78,13405.783a2.957,2.957,0,1,0-2.956-2.959,2.955,2.955,0,0,0,2.956,2.959" fill="#fff"/>
      <path id="Trazado_2455" data-name="Trazado 2455" d="M5723.788,13414.19c-.035-.114-1.882-4.643-2.1-5.277-.666-1.946-1.879-1.931-3.048-1.962s-1.868,0-1.868,0-.747-.031-2.291.016-2.027.837-3.725,5.21c-.242.629-1.065,2.666-1.076,2.789l.011,0a1.028,1.028,0,0,0,.431,1.4.99.99,0,0,0,1.269-.412l1.607-5.126s.277-.343.277.011v12.067h.01a1.515,1.515,0,1,0,3.031,0v-4.764s-.087-.672.456-.672.459.672.459.672v4.764a1.519,1.519,0,0,0,3.038,0v-12.067c0-.354.189-.1.189-.1l1.26,3.51a8.523,8.523,0,0,0,.714,1.638,1.122,1.122,0,0,0,1.466-.605,1.1,1.1,0,0,0-.119-1.079Z" fill="#fff"/>
      <path id="Trazado_2456" data-name="Trazado 2456" d="M5648.1,13387.684a3.752,3.752,0,1,0-3.746-3.752,3.756,3.756,0,0,0,3.746,3.752" fill="#fff"/>
      <path id="Trazado_2457" data-name="Trazado 2457" d="M5663.437,13405.783a2.957,2.957,0,1,0-2.955-2.959,2.954,2.954,0,0,0,2.955,2.959" fill="#fff"/>
    </g>
    <g id="Grupo_1451" data-name="Grupo 1451" transform="translate(-4602.879 -9578.302)">
      <ellipse id="Elipse_176" data-name="Elipse 176" cx="65.13" cy="65.352" rx="65.13" ry="65.352" transform="translate(5621.58 13328.809)" fill="#bcc971"/>
      <path id="Trazado_2458" data-name="Trazado 2458" d="M5721.649,13372.633a5.035,5.035,0,0,0-4.014-1.6l-9.624-18.979-45.583.673-14.328-1.007.687,59.862-.6,2.521s7.185,7.82,8.8,9.084a132.558,132.558,0,0,1,.231,13.607s11.422,7.391,37.686,22.189a65.251,65.251,0,0,0,56.4-56.595C5741.707,13392.749,5721.737,13372.711,5721.649,13372.633Zm-47.835,43.831-.125-.063h-.318v-.23l.125-.036v.174h.318Zm2.864-1.1-.047.026-.079-.137.126-.036Zm.318.318-.047.027-.126-.217H5677Zm.318.318-.048.028-.125-.219h.173Zm.317.319-.047.027-.125-.218h.172Zm.318.321-.172-.191h.172Z" fill="#abb54d"/>
      <path id="Trazado_2459" data-name="Trazado 2459" d="M5709.925,13361.858h6.807v73.739h-58.34v-6.781h4.707v2.074h48.926v-64.326h-2.1v-4.707Zm-51.044.675v23.534H5678.4v-23.534Zm0,37.655v4.706h39.042v-4.706Zm23.917-37.654v4.706h15.124v-4.706Zm0,9.414v4.706h15.124v-4.706Zm0,9.413v4.706h15.124v-4.706Zm-23.918,9.414v4.706h39.042v-4.706Zm48.691-38.054h-58.34v61.451l11.73,12.289h46.61v-73.74Zm-4.707,4.707h-48.926v53.545h10.78v10.781h38.146Z" fill="#fff" stroke="#035e4f" stroke-miterlimit="10" stroke-width="2" fill-rule="evenodd"/>
    </g>
    <circle id="Elipse_177" data-name="Elipse 177" cx="18.641" cy="18.641" r="18.641" transform="translate(1088.059 3827.481)" fill="#fff" stroke="#035e4f" stroke-miterlimit="10" stroke-width="2"/>
    <text id="_4" data-name="4" transform="translate(1106.621 3852.571)" fill="#035e4f" font-size="22" font-family="Montserrat-Bold, Montserrat" font-weight="700"><tspan x="-7.579" y="0">4</tspan></text>
  </g>
</svg>
