<svg xmlns="http://www.w3.org/2000/svg" width="366.711" height="264.317" viewBox="0 0 366.711 264.317">
  <g id="Grupo_1620" data-name="Grupo 1620" transform="translate(-5148.331 -3581.03)">
    <g id="Grupo_1561" data-name="Grupo 1561" opacity="0.5">
      <g id="Grupo_1560" data-name="Grupo 1560">
        <circle id="Elipse_189" data-name="Elipse 189" cx="38.1" cy="38.1" r="38.1" transform="translate(5357.879 3581.03)" fill="#78958a"/>
      </g>
    </g>
    <g id="Grupo_1563" data-name="Grupo 1563" opacity="0.5">
      <g id="Grupo_1562" data-name="Grupo 1562">
        <circle id="Elipse_190" data-name="Elipse 190" cx="19.05" cy="19.05" r="19.05" transform="translate(5186.43 3723.905)" fill="#78958a"/>
      </g>
    </g>
    <g id="Grupo_1565" data-name="Grupo 1565" opacity="0.5">
      <g id="Grupo_1564" data-name="Grupo 1564">
        <circle id="Elipse_191" data-name="Elipse 191" cx="14.287" cy="14.287" r="14.287" transform="translate(5486.466 3690.561)" fill="#78958a"/>
      </g>
    </g>
    <g id="Grupo_1567" data-name="Grupo 1567" opacity="0.5">
      <g id="Grupo_1566" data-name="Grupo 1566">
        <circle id="Elipse_192" data-name="Elipse 192" cx="9.525" cy="9.525" r="9.525" transform="translate(5148.331 3695.33)" fill="#78958a"/>
      </g>
    </g>
    <g id="Grupo_1574" data-name="Grupo 1574">
      <g id="Grupo_1568" data-name="Grupo 1568">
        <path id="Trazado_2624" data-name="Trazado 2624" d="M5353.117,3819.154h-47.625l-23.812,23.812h95.25Z" fill="#bfcadb"/>
      </g>
      <g id="Grupo_1569" data-name="Grupo 1569">
        <rect id="Rectángulo_834" data-name="Rectángulo 834" width="114.299" height="4.762" transform="translate(5272.156 3840.584)" fill="#6e7f9b"/>
      </g>
      <g id="Grupo_1570" data-name="Grupo 1570">
        <path id="Trazado_2625" data-name="Trazado 2625" d="M5362.642,3828.679l-9.525-9.525h-47.625l-9.525,9.525Z" fill="#a3b0c7"/>
      </g>
      <g id="Grupo_1571" data-name="Grupo 1571">
        <path id="Trazado_2626" data-name="Trazado 2626" d="M5424.554,3647.705h-190.5a19.05,19.05,0,0,0-19.05,19.05V3800.1h0a19.05,19.05,0,0,0,19.05,19.05h190.5a19.05,19.05,0,0,0,19.05-19.05h0V3666.755A19.05,19.05,0,0,0,5424.554,3647.705Z" fill="#6e7f9b"/>
      </g>
      <g id="Grupo_1572" data-name="Grupo 1572">
        <path id="Trazado_2627" data-name="Trazado 2627" d="M5424.554,3647.705h-190.5a19.05,19.05,0,0,0-19.05,19.05V3800.1h0a19.05,19.05,0,0,0,19.05,19.05h190.5a19.05,19.05,0,0,0,19.05-19.05h0V3666.755A19.05,19.05,0,0,0,5424.554,3647.705Zm-195.262,19.05a4.77,4.77,0,0,1,4.763-4.763h190.5a4.769,4.769,0,0,1,4.762,4.763v114.3a4.768,4.768,0,0,1-4.762,4.763h-190.5a4.77,4.77,0,0,1-4.763-4.763Z" fill="#546075"/>
      </g>
      <g id="Grupo_1573" data-name="Grupo 1573">
        <rect id="Rectángulo_835" data-name="Rectángulo 835" width="37.802" height="4.762" transform="translate(5310.553 3797.722)" fill="#6e7f9b"/>
      </g>
    </g>
    <g id="Grupo_1608" data-name="Grupo 1608">
      <g id="Grupo_1575" data-name="Grupo 1575">
        <rect id="Rectángulo_836" data-name="Rectángulo 836" width="85.725" height="14.287" transform="translate(5329.305 3647.705)" fill="#414959"/>
      </g>
      <g id="Grupo_1576" data-name="Grupo 1576">
        <rect id="Rectángulo_837" data-name="Rectángulo 837" width="85.725" height="123.824" transform="translate(5329.305 3661.992)" fill="#546075"/>
      </g>
      <g id="Grupo_1577" data-name="Grupo 1577">
        <rect id="Rectángulo_838" data-name="Rectángulo 838" width="152.399" height="157.158" transform="translate(5253.105 3628.658)" fill="#fff"/>
      </g>
      <g id="Grupo_1602" data-name="Grupo 1602">
        <g id="Grupo_1584" data-name="Grupo 1584">
          <g id="Grupo_1580" data-name="Grupo 1580">
            <g id="Grupo_1578" data-name="Grupo 1578">
              <rect id="Rectángulo_839" data-name="Rectángulo 839" width="28.575" height="4.762" transform="translate(5319.781 3740.573)" fill="#6e7f9b"/>
            </g>
            <g id="Grupo_1579" data-name="Grupo 1579">
              <rect id="Rectángulo_840" data-name="Rectángulo 840" width="23.812" height="4.762" transform="translate(5353.118 3740.573)" fill="#6e7f9b"/>
            </g>
          </g>
          <g id="Grupo_1582" data-name="Grupo 1582">
            <g id="Grupo_1581" data-name="Grupo 1581">
              <rect id="Rectángulo_841" data-name="Rectángulo 841" width="19.05" height="4.762" transform="translate(5319.781 3750.097)" fill="#6e7f9b"/>
            </g>
          </g>
          <g id="Grupo_1583" data-name="Grupo 1583">
            <rect id="Rectángulo_842" data-name="Rectángulo 842" width="33.335" height="4.762" transform="translate(5343.593 3750.097)" fill="#6e7f9b"/>
          </g>
        </g>
        <g id="Grupo_1591" data-name="Grupo 1591">
          <g id="Grupo_1587" data-name="Grupo 1587">
            <g id="Grupo_1585" data-name="Grupo 1585">
              <rect id="Rectángulo_843" data-name="Rectángulo 843" width="28.575" height="4.762" transform="translate(5319.781 3702.467)" fill="#6e7f9b"/>
            </g>
            <g id="Grupo_1586" data-name="Grupo 1586">
              <rect id="Rectángulo_844" data-name="Rectángulo 844" width="23.812" height="4.762" transform="translate(5353.118 3702.467)" fill="#6e7f9b"/>
            </g>
          </g>
          <g id="Grupo_1589" data-name="Grupo 1589">
            <g id="Grupo_1588" data-name="Grupo 1588">
              <rect id="Rectángulo_845" data-name="Rectángulo 845" width="19.05" height="4.762" transform="translate(5319.781 3711.992)" fill="#6e7f9b"/>
            </g>
          </g>
          <g id="Grupo_1590" data-name="Grupo 1590">
            <rect id="Rectángulo_846" data-name="Rectángulo 846" width="33.335" height="4.762" transform="translate(5343.593 3711.992)" fill="#6e7f9b"/>
          </g>
        </g>
        <g id="Grupo_1592" data-name="Grupo 1592">
          <path id="Trazado_2628" data-name="Trazado 2628" d="M5307.874,3759.622h-23.812V3735.81h23.812Zm-19.049-4.762h14.287v-14.287h-14.287Z" fill="#6e7f9b"/>
        </g>
        <g id="Grupo_1599" data-name="Grupo 1599">
          <g id="Grupo_1595" data-name="Grupo 1595">
            <g id="Grupo_1593" data-name="Grupo 1593">
              <rect id="Rectángulo_847" data-name="Rectángulo 847" width="28.575" height="4.762" transform="translate(5319.781 3664.368)" fill="#6e7f9b"/>
            </g>
            <g id="Grupo_1594" data-name="Grupo 1594">
              <rect id="Rectángulo_848" data-name="Rectángulo 848" width="23.812" height="4.762" transform="translate(5353.118 3664.368)" fill="#6e7f9b"/>
            </g>
          </g>
          <g id="Grupo_1597" data-name="Grupo 1597">
            <g id="Grupo_1596" data-name="Grupo 1596">
              <rect id="Rectángulo_849" data-name="Rectángulo 849" width="19.05" height="4.762" transform="translate(5319.781 3673.893)" fill="#6e7f9b"/>
            </g>
          </g>
          <g id="Grupo_1598" data-name="Grupo 1598">
            <rect id="Rectángulo_850" data-name="Rectángulo 850" width="33.335" height="4.762" transform="translate(5343.593 3673.893)" fill="#6e7f9b"/>
          </g>
        </g>
        <g id="Grupo_1600" data-name="Grupo 1600">
          <path id="Trazado_2629" data-name="Trazado 2629" d="M5307.874,3683.418h-23.812v-23.812h23.812Zm-19.049-4.762h14.287v-14.288h-14.287Z" fill="#6e7f9b"/>
        </g>
        <g id="Grupo_1601" data-name="Grupo 1601">
          <path id="Trazado_2630" data-name="Trazado 2630" d="M5292.4,3720.127l-8.83-8.827,3.367-3.367,5.462,5.46,12.6-12.6,3.367,3.367Z" fill="#da691f"/>
        </g>
      </g>
      <g id="Grupo_1603" data-name="Grupo 1603">
        <path id="Trazado_2631" data-name="Trazado 2631" d="M5276.918,3609.6l-9.527,9.527h76.2l-9.525-9.525Z" fill="#e2ed9d"/>
      </g>
      <g id="Grupo_1605" data-name="Grupo 1605">
        <g id="Grupo_1604" data-name="Grupo 1604">
          <rect id="Rectángulo_851" data-name="Rectángulo 851" width="152.399" height="9.526" transform="translate(5253.105 3619.132)" fill="#a3bd31"/>
        </g>
      </g>
      <g id="Grupo_1607" data-name="Grupo 1607">
        <g id="Grupo_1606" data-name="Grupo 1606">
          <path id="Trazado_2632" data-name="Trazado 2632" d="M5262.631,3609.6l-9.526,9.527h76.2l-9.525-9.525Z" fill="#a3bd31"/>
        </g>
      </g>
    </g>
    <g id="Grupo_1619" data-name="Grupo 1619">
      <g id="Grupo_1612" data-name="Grupo 1612">
        <g id="Grupo_1609" data-name="Grupo 1609">
          <path id="Trazado_2633" data-name="Trazado 2633" d="M5429.316,3708.873l-23.812,18.6v24.175l23.813-18.6Z" fill="#546075"/>
        </g>
        <g id="Grupo_1610" data-name="Grupo 1610">
          <path id="Trazado_2634" data-name="Trazado 2634" d="M5393.178,3737.107l-4.573,9.618-3.551,7.466c-.562,1.183.028,1.938,1.311,1.679l8.1-1.64,10.437-2.111.6-.466v-24.175Z" fill="#c3cad6"/>
        </g>
        <g id="Grupo_1611" data-name="Grupo 1611">
          <path id="Trazado_2635" data-name="Trazado 2635" d="M5429.316,3708.873v24.175l14.288-11.162v-24.175Z" fill="#414959"/>
        </g>
      </g>
      <g id="Grupo_1618" data-name="Grupo 1618">
        <g id="Grupo_1613" data-name="Grupo 1613">
          <path id="Trazado_2636" data-name="Trazado 2636" d="M5387.508,3737.545l-2.614,7.843c-.414,1.243.263,1.921,1.506,1.506l7.844-2.614" fill="#546075"/>
        </g>
        <g id="Grupo_1615" data-name="Grupo 1615">
          <g id="Grupo_1614" data-name="Grupo 1614">
            <rect id="Rectángulo_852" data-name="Rectángulo 852" width="95.25" height="19.05" transform="translate(5390.876 3727.442) rotate(-45)" fill="#78958a"/>
          </g>
        </g>
        <g id="Grupo_1616" data-name="Grupo 1616">
          <path id="Trazado_2637" data-name="Trazado 2637" d="M5390.875,3727.442l-3.367,10.1,6.735,6.735,10.1-3.368Z" fill="#e1e4ea"/>
        </g>
        <g id="Grupo_1617" data-name="Grupo 1617">
          <rect id="Rectángulo_853" data-name="Rectángulo 853" width="95.25" height="9.525" transform="translate(5397.611 3734.177) rotate(-45)" fill="#4c685d"/>
        </g>
      </g>
    </g>
  </g>
</svg>
