<svg xmlns="http://www.w3.org/2000/svg" width="152.443" height="152.443" viewBox="0 0 152.443 152.443">
  <g id="Grupo_4783" data-name="Grupo 4783" transform="translate(-277.09 -1656.76)">
    <path id="Trazado_4621" data-name="Trazado 4621" d="M3438.189,11628.085q3.746,0,7.471.367t7.4,1.1q3.673.731,7.256,1.817t7.043,2.52q3.459,1.433,6.762,3.2t6.416,3.846q3.113,2.082,6.008,4.456t5.542,5.023q2.648,2.647,5.023,5.542t4.456,6.008q2.08,3.114,3.846,6.416t3.2,6.762q1.433,3.46,2.52,7.043t1.817,7.256q.731,3.672,1.1,7.4t.367,7.471q0,3.744-.367,7.472t-1.1,7.4q-.731,3.672-1.817,7.256t-2.52,7.042q-1.434,3.461-3.2,6.763t-3.846,6.416q-2.08,3.111-4.456,6.008t-5.023,5.542q-2.647,2.648-5.542,5.023t-6.008,4.455q-3.114,2.083-6.416,3.847t-6.762,3.2q-3.46,1.433-7.043,2.521t-7.256,1.818q-3.672.729-7.4,1.1t-7.471.367q-3.744,0-7.471-.367t-7.4-1.1q-3.672-.731-7.256-1.818t-7.043-2.521q-3.459-1.431-6.761-3.2t-6.416-3.847q-3.114-2.079-6.008-4.455t-5.543-5.023q-2.647-2.647-5.023-5.542t-4.456-6.008q-2.08-3.114-3.845-6.416t-3.2-6.763q-1.434-3.458-2.52-7.042t-1.818-7.256q-.73-3.674-1.1-7.4t-.367-7.472q0-3.746.367-7.471t1.1-7.4q.731-3.672,1.818-7.256t2.52-7.043q1.433-3.458,3.2-6.762t3.845-6.416q2.08-3.113,4.456-6.008t5.023-5.542q2.649-2.648,5.543-5.023t6.008-4.456q3.112-2.08,6.416-3.846t6.761-3.2q3.46-1.433,7.043-2.52t7.256-1.817q3.672-.729,7.4-1.1T3438.189,11628.085Z" transform="translate(-3084.878 -9971.325)" fill="#035e4f"/>
    <circle id="Elipse_236" data-name="Elipse 236" cx="71.597" cy="71.597" r="71.597" transform="translate(282.335 1662.006)" fill="#fff"/>
    <circle id="Elipse_237" data-name="Elipse 237" cx="65.13" cy="65.13" r="65.13" transform="translate(288.802 1668.472)" fill="#be1c25"/>
    <g id="Grupo_3089" data-name="Grupo 3089" transform="translate(-3084.878 -9971.325)">
      <path id="Trazado_4622" data-name="Trazado 4622" d="M3483.01,11698.229a3.752,3.752,0,1,0-3.754-3.752,3.749,3.749,0,0,0,3.754,3.752" fill="#fff"/>
      <path id="Trazado_4623" data-name="Trazado 4623" d="M3487.389,11699.676a2.273,2.273,0,0,0-.286-.022h-8.2a2.08,2.08,0,0,0-.275.022,5,5,0,0,0-4.547,4.983v10.4a1.454,1.454,0,0,0,2.908,0v-8.93c0-.334.094-.789.709-.789.421,0,.512.449.525.735v26.768a2.089,2.089,0,0,0,4.178,0v-15.426a.576.576,0,0,1,.6-.613h0a.567.567,0,0,1,.594.613v15.426a2.091,2.091,0,0,0,4.182,0v-26.768c.015-.286.1-.735.526-.735.613,0,.71.455.71.789v8.93a1.453,1.453,0,0,0,2.907,0v-10.4a5,5,0,0,0-4.539-4.983" fill="#fff"/>
      <path id="Trazado_4624" data-name="Trazado 4624" d="M3453.4,11700a3.555,3.555,0,1,0-3.554-3.552,3.548,3.548,0,0,0,3.554,3.552" fill="#fff"/>
      <path id="Trazado_4625" data-name="Trazado 4625" d="M3457.627,11706.523c.463-.135.594.483.594.483l2.379,8.022s.455,1.721,1.938,1.279c1.5-.439.97-2.2.97-2.2l-2.952-9.613s-1.057-2.78-3.393-2.78h-7.526c-2.338,0-3.4,2.78-3.4,2.78l-2.952,9.613s-.526,1.761.967,2.2,1.94-1.279,1.94-1.279l2.381-8.022s.13-.618.593-.483.29.794.29.794l-4.144,15.032h3.854v10.77a1.85,1.85,0,0,0,3.7,0v-10.77h1.054v10.77a1.851,1.851,0,0,0,3.7,0v-10.77h3.852l-4.14-15.032s-.176-.661.288-.794" fill="#fff"/>
      <path id="Trazado_4626" data-name="Trazado 4626" d="M3432.123,11700a3.555,3.555,0,1,0-3.552-3.552,3.55,3.55,0,0,0,3.552,3.552" fill="#fff"/>
      <path id="Trazado_4627" data-name="Trazado 4627" d="M3439.277,11704.5s-1.052-2.78-3.39-2.78h-7.527c-2.336,0-3.394,2.78-3.394,2.78l-2.951,9.613a2.64,2.64,0,0,0-.089.593,1.055,1.055,0,0,0-.837-.427,1.073,1.073,0,0,0-.913.506l-.01-.006c-.088.073-1.467,2.53-1.924,2.986a1.186,1.186,0,0,1-.911.432h-3.584a1.187,1.187,0,0,1-.912-.432c-.461-.456-1.836-2.913-1.924-2.986l-.01.006a1.081,1.081,0,0,0-.913-.506,1.062,1.062,0,0,0-.868.474v-10.09a5,5,0,0,0-4.544-4.983,2.32,2.32,0,0,0-.275-.021h-8.2a2.494,2.494,0,0,0-.287.021,5,5,0,0,0-4.54,4.983v10.4a1.45,1.45,0,0,0,.782,1.282.517.517,0,0,0-.052.129l-3.331,17.656a.547.547,0,0,0,.437.641.427.427,0,0,0,.1.011.55.55,0,0,0,.54-.447l3.331-17.657a.562.562,0,0,0,0-.209,1.452,1.452,0,0,0,1.1-1.405v-8.93c0-.335.1-.79.709-.79.423,0,.511.45.529.735v26.769a2.087,2.087,0,1,0,4.175,0v-15.426a.573.573,0,0,1,.6-.613h0a.571.571,0,0,1,.6.613v15.426a2.089,2.089,0,0,0,4.179,0v-26.769c.012-.285.108-.735.526-.735.616,0,.709.455.709.79v8.93a1.452,1.452,0,0,0,2.763.625c.021.079.042.141.042.141l2.98,5.4a1.9,1.9,0,0,1,.183.711v1.061l-1.572,5.775h1.572v4.747h.006a1.456,1.456,0,1,0,2.912,0v-4.571a1.087,1.087,0,0,1,0-.176h.877a.967.967,0,0,1,0,.176v4.571a1.459,1.459,0,0,0,2.919,0v-4.747h1.577l-1.577-5.809v-1.027a1.91,1.91,0,0,1,.182-.711l2.755-4.98s.176-.374.272-.647a1.341,1.341,0,0,0,.879.72c1.487.441,1.938-1.279,1.938-1.279l2.381-8.023s.13-.617.594-.481.289.791.289.791l-4.144,15.034h3.855v10.77a1.85,1.85,0,0,0,3.7,0v-10.77h1.052v10.77a1.85,1.85,0,0,0,3.7,0v-10.77h3.855l-4.141-15.034s-.175-.659.286-.791.6.481.6.481l2.378,8.023s.453,1.721,1.94,1.279.967-2.2.967-2.2Z" fill="#fff"/>
      <path id="Trazado_4628" data-name="Trazado 4628" d="M3468.879,11716.329a2.957,2.957,0,1,0-2.956-2.959,2.955,2.955,0,0,0,2.956,2.959" fill="#fff"/>
      <path id="Trazado_4629" data-name="Trazado 4629" d="M3475.887,11724.736c-.035-.114-1.882-4.643-2.1-5.277-.666-1.947-1.88-1.931-3.049-1.963s-1.868,0-1.868,0-.747-.03-2.29.016-2.028.838-3.726,5.21c-.242.63-1.065,2.667-1.075,2.789l.01,0a1.028,1.028,0,0,0,.431,1.4.99.99,0,0,0,1.269-.412l1.607-5.126s.278-.344.278.011v12.067h.009a1.516,1.516,0,1,0,3.031,0v-4.763s-.087-.673.456-.673.46.673.46.673v4.763a1.519,1.519,0,0,0,3.038,0v-12.067c0-.354.188-.1.188-.1l1.261,3.51a8.46,8.46,0,0,0,.714,1.638,1.122,1.122,0,0,0,1.465-.605,1.1,1.1,0,0,0-.119-1.08Z" fill="#fff"/>
      <path id="Trazado_4630" data-name="Trazado 4630" d="M3400.2,11698.229a3.752,3.752,0,1,0-3.747-3.752,3.754,3.754,0,0,0,3.747,3.752" fill="#fff"/>
      <path id="Trazado_4631" data-name="Trazado 4631" d="M3415.536,11716.329a2.957,2.957,0,1,0-2.954-2.959,2.955,2.955,0,0,0,2.954,2.959" fill="#fff"/>
    </g>
    <g id="Grupo_3090" data-name="Grupo 3090" transform="translate(-3084.878 -9971.325)">
      <ellipse id="Elipse_240" data-name="Elipse 240" cx="65.13" cy="65.352" rx="65.13" ry="65.352" transform="translate(3373.679 11639.354)" fill="#d8efdd"/>
      <path id="Trazado_4636" data-name="Trazado 4636" d="M3473.748,11683.179a5.03,5.03,0,0,0-6.221-.954,5.12,5.12,0,0,0-1.589,1.459l-.251-.146.058-.1-.376-.217.058-.1-.379-.218.058-.1-.376-.218.061-.1-.379-.218.058-.1-1.728-1-.291.5-.226-.129.057-.1-.375-.218.058-.1-.376-.219.058-.1-.376-.217.058-.1-.375-.217.057-.1-1.731-1-.291.509-.227-.132.061-.1-.378-.217.057-.1-.375-.218.061-.1-.379-.217.057-.1-.375-.221.058-.1-1.728-1-.3.5-.226-.129.061-.1-.375-.217.057-.1-.379-.217.061-.1-.379-.217.061-.1-.378-.217.061-.1-1.3-.75c-.034-.034-.071-.071-.109-.105-.1-.112-10.062-10.108-10.174-10.209a5.047,5.047,0,1,0-7.087,7.176c.1.115.209.22.318.322s.206.217.314.314.21.222.322.322.209.218.317.319a3.723,3.723,0,0,0,.318.315,4.512,4.512,0,0,0,.318.322c.1.112.21.217.318.319a3.984,3.984,0,0,0,.317.315c.1.112.207.221.318.322s.21.217.318.319c.041.044.085.085.129.129h-.974v1.271l-.169-.3-.1.062-.217-.377-.1.058-.217-.377-.1.058-.217-.38-.1.062-.216-.38-.1.061-.216-.376-.1.057-.22-.38-.1.062-.219-.38-.1.061-.22-.38-.1.061-.22-.38-.1.062-.22-.38-.1.062-.22-.381-.1.063-.217-.381-.1.062-.219-.38-.1.061-.216-.38-.1.062-.216-.381-.1.062-.216-.38-.1.061-.217-.38-1.731,1,1.052,1.826.1-.062.217.381.1-.059.216.376.1-.057.216.376.1-.061.217.38.1-.058.217.376.1-.057.217.376.1-.057.216.376.1-.059.216.377.1-.058.216.377.1-.058.216.377.1-.059.217.377.1-.058.217.377.1-.058.216.377.1-.059.216.377.1-.058.216.377.1-.059.216.378.1-.059.217.376.1-.058.217.377.1-.059.217.377.1-.058.115.2v1.431h.318v.319h.318v.319h.318v.318h.317v.319h.318v.319h.318v.318h.318v.319h.318v.319h.318v.321h.321v.315h.314v.318h.321v.323h.318v.315h.318v.318h.318v.323h.318v.318h.318v.315h.317v.322h.318v.319h.318v.16c-.044-.015-.084-.027-.125-.038v-.03h-.118c-.068-.021-.136-.034-.2-.055v-.265h-.318v-.318h-.317v-.319h-.318v-.319h-.318v-.321h-.318v-.316h-.318v-.319h-.318v-.321h-.318v-.315h-.317v-.319h-.318v-.322h-.318v-.319h-.318v-.319h-.818l-.149-.254-.1.062-.22-.38-.1.061-.22-.38-.1.061-.217-.38-.1.059-.216-.377-.1.058-.216-.377-.1.058-.216-.376-.1.058-.216-.376-.1.057-.217-.376-.1.057-.217-.376-.1.058-.216-.376-.1.057-.216-.376-.1.058-.217-.377-.1.059-.217-.377-.1.058-.217-.377-.1.059-.216-.378-.1.059-.216-.377-.1.058-.216-.377-.1.059-.216-.378-.1.059-.217-.377-.1.058-.217-.377-.1.059-.216-.376-.1.057-.216-.376-.1.054-.216-.373-.1.058-.216-.376-.1.058-.217-.377-.1.054-.217-.373-.1.059-.217-.38-.1.061-.216-.38-.1.058-.216-.374-.1.056-.22-.377-.1.058-.216-.377-.1.058-.22-.377-1.728,1,1.048,1.825.1-.058.216.377.1-.059.217.376.1-.057.217.376.1-.057.216.376.1-.058.216.376.1-.057.216.376.1-.058.216.377.1-.059.22.377.1-.058.217.377.1-.058.22.377.1-.059.22.377.1-.058.22.377.1-.058.22.377.1-.059.219.377.1-.058.22.38.1-.061.216.38.1-.062.216.38.1-.061.217.376.1-.057.217.376.1-.058.216.38.1-.061.216.38.1-.062.216.381.1-.062.216.38.1-.061.217.38.1-.062.217.381.1-.062.216.38.1-.061.216.38.1-.062.216.381.1-.062.217.38.1-.061.217.38.1-.062.217.381.1-.059.216.377.1-.061.216.379.1-.058.216.376.1-.057.148.261c-.1,0-.192-.017-.29-.017-.575,0-1.143.031-1.705.085l-.081-.136-.1.058-.217-.38-.1.057-.216-.373-.1.056-.216-.377-.1.058-.216-.377-.1.058-.216-.377-.1.059-.217-.377-.1.058-.217-.377-.1.058-.216-.377-.1.059-.216-.377-.1.058-.216-.377-.1.059-.216-.378-.1.059-.217-.376-.1.057-.22-.376-.1.059-.217-.377-.1.058-.216-.377-.1.058-.219-.377-.1.059-.219-.377-.1.058-.216-.377-.1.058-.22-.377-.1.059-.22-.377-.1.058-.217-.376-.1.057-.217-.376-.1.058-.216-.38-.1.061-.216-.376-.1.057-.216-.38-.1.062-.216-.38-.1.062-.217-.381-.1.062-.217-.38-.1.062-.216-.38-.1.061-.216-.38-.1.061-.216-.38-.1.062-.216-.38-.1.061-.217-.38-.1.061-.217-.38-.1.062-.217-.38-.1.061-.216-.38-.1.058-.216-.377-1.731,1.006,1.051,1.824.1-.058.217.377.1-.058.22.377.1-.059.22.377.1-.058.219.377.1-.058.22.377.1-.059.216.376.1-.057.22.376.1-.057.217.376.1-.058.217.376.1-.057.217.376.1-.058.216.376.1-.058.216.377.1-.058.216.377.1-.059.216.377.1-.058.217.377.1-.058.217.377.1-.059.217.381.1-.062.216.376.1-.057.216.376.1-.055.216.377.1-.062.216.377.1-.054.217.373.1-.055.217.376.1-.057.22.376.1-.057.216.376.1-.058.217.376.1-.057.22.376.1-.058.22.377.1-.059.22.377.1-.058.217.377.1-.058.071.122c-.548.146-1.082.318-1.61.513l-.071-.126-.1.061-.217-.38-.1.062-.216-.38-.1.062-.22-.381-.1.062-.216-.38-.1.062-.216-.38-.1.061-.217-.38-.1.061-.217-.38-.1.062-.216-.38-.1.061-.216-.38-.1.058-.216-.377-.1.062-.216-.38-.1.061-.217-.38-.1.058-.217-.377-.1.059-.217-.377-.1.058-.216-.377-.1.058-.216-.377-.1.059-.216-.377-.1.058-.216-.377-.1.058-.217-.376-.1.058-.216-.376-.1.057-.22-.376-.1.057-.22-.376-.1.058-.22-.376-.1.057-.22-.376-.1.059-.22-.378-.1.059-.22-.377-.1.058-.22-.377-.1.059-.217-.376-.1.057-.216-.376-.1.057-.216-.376-.1.055-.216-.373-.1.057-.216-.376-.1.057-.217-.376-.1.055-.217-.373-1.731,1,1.052,1.824.1-.058.216.377.1-.058.216.377.1-.059.216.377.1-.058.216.377.1-.058.217.376.1-.058.217.376.1-.057.217.376.1-.057.216.376.1-.058.22.376.1-.057.216.38.1-.062.219.377.1-.059.22.38.1-.061.22.38.1-.061.22.38.1-.062.22.38.1-.061.22.38.1-.061.217.38.1-.062.216.38.1-.061.217.38.1-.062.217.381.1-.062.217.38.1-.061.216.38.1-.062.216.381.1-.062.216.38.1-.061.216.379.1-.062.217.381.1-.062.217.38.1-.058.217.377.1-.059.193.336c-.45.248-.886.517-1.309.8l-.175-.306-.1.055-.216-.373-.1.054-.216-.373-.1.058-.216-.381-.1.059-.217-.376-.1.057-.22-.376-.1.057-.217-.376-.1.058-.22-.376-.1.057-.216-.376-.1.057-.216-.376-.1.059-.219-.377-.1.058-.22-.377-.1.058-.22-.377-.1.059-.22-.376-.1.057-.22-.376-.1.058-.217-.376-.1.057-.217-.376-.1.057-.216-.376-.1.058-.216-.376-.1.058-.217-.377-.1.058-.217-.377-.1.059-.216-.377-.1.058-.216-.38-.1.061-.216-.377-.1.059-.216-.377-.1.058-.217-.38-.1.061-.217-.377-.1.059-.217-.377-.1.058-.216-.38-.1.061-.216-.38-.1.062-.216-.38-.1.061-.216-.38-.1.061-.217-.38-.1.062-.217-.38-1.731,1,1.048,1.825.1-.059.219.377.1-.058.217.377.1-.059.22.378.1-.059.216.377.1-.058.22.377.1-.059.22.377.1-.058.217.377.1-.058.219.377.1-.059.216.377.1-.058.216.376.1-.057.216.376.1-.058.217.376.1-.057.217.376.1-.057.217.376.1-.058.216.376.1-.058.216.377.1-.058.216.38.1-.062.216.377.1-.055.216.373.1-.054.216.377.1-.062.216.38.1-.058.216.377.1-.058.217.377.1-.059.217.377.1-.058.217.373.1-.054.216.376.1-.058.216.376.1-.057.216.376.1-.057.216.376.1-.058.159.274q-.547.485-1.055,1.008l-.077-.132-.1.057-.216-.379-.1.061-.216-.38-.1.061-.217-.379-.1.06-.217-.379-.1.062-.216-.381-.1.062-.216-.38-.1.061-.216-.38-.1.062-.216-.38-.1.061-.217-.38-.1.061-.217-.38-.1.062-.217-.38-.1.061-.216-.38-.1.058-.216-.377-.1.059-.216-.377-.1.058-.216-.377-.1.058-.22-.376-.1.058-.217-.376-.1.057-.22-.376-.1.057-.22-.376-.1.058-.22-.376-.1.057-.219-.376-.1.058-.219-.377-.1.059-.22-.377-.1.058-.22-.377-.1.058-.22-.377-.1.059-.219-.377-.1.058-.216-.377-.1.058-.216-.377-.1.059-.216-.376-.1.057-.217-.376-.1.059-.217-.378-.1.055-.217-.373-.1.058-.216-.377-.1.059-.216-.378-.1.055-.216-.373-1.731,1,1.051,1.825.1-.059.216.377.1-.058.216.377.1-.058.217.38.1-.062.217.377.1-.058.216.377.1-.058.216.38.1-.062.216.38.1-.061.216.377.1-.058.217.38.1-.062.217.38.1-.061.217.38.1-.062.216.381.1-.062.216.38.1-.061.216.38.1-.062.216.382.1-.062.217.38.1-.061.217.38.1-.062.217.381.1-.058.216.376.1-.061.22.38.1-.062.22.38.1-.058.217.377.1-.061.22.38.1-.062.22.38.1-.058.22.377.1-.058.216.376.1-.058.216.376.1-.057.22.376.1-.057.216.376.1-.058.217.376.1-.058.217.377.1-.058.217.377.1-.059.088.153c-.254.346-.49.7-.72,1.069l-.095-.059.057-.1-.375-.217.058-.1-.376-.217.058-.1-.376-.218.058-.1-1.3-.75c-.037-.034-.071-.071-.108-.105-.1-.108-.207-.218-.318-.318s-.206-.218-.318-.319-.206-.217-.318-.316-.206-.22-.318-.321-.209-.218-.317-.319-.21-.217-.318-.319-.21-.217-.318-.318-.21-.217-.318-.319-.206-.217-.318-.319-.21-.217-.318-.318-.209-.217-.318-.319-.209-.217-.321-.319-.206-.217-.314-.317-.21-.218-.318-.319-.21-.218-.318-.319-.209-.217-.318-.318-.209-.217-.318-.319-.209-.217-.317-.318-.21-.218-.322-.319-.206-.22-.314-.319-.21-.217-.318-.318-.209-.221-.321-.322-.206-.214-.315-.315-.209-.221-.321-.322-.206-.215-.314-.315a4.258,4.258,0,0,0-.321-.319c-.1-.111-.207-.221-.315-.318s-.21-.222-.321-.323-.206-.213-.315-.315-.209-.221-.321-.321-.206-.219-.314-.316-.21-.221-.321-.322a5.049,5.049,0,1,0-7.091,7.177c.105.114.213.223.325.324s.2.214.311.313c.1.116.209.221.321.323a3.984,3.984,0,0,0,.318.314,3.2,3.2,0,0,0,.321.322c.1.112.2.218.314.319s.207.218.315.315c.1.115.21.22.321.322s.21.221.321.323.206.217.315.314c.04.044.084.088.128.132h-.974v2h.318v.322h.321v.319h.318v.315h.318v.322h.318v.319h.318v.318h.318v.319h.318v.319h.317v.318h.318v.319h.318v.319h.318v.318h.318v.319h.318v.318h.317v.318h.318v.319h.318v.319h.318v.318h.318v.323h.317v.315h.318v.318h.318v.322h.318v.319h.318v.315h.318v.322h.317v.319h.318v.314h.318v.323h.318v.318h.318v.318h.318v.319h.318v.318h.317v.319h.318v.319h.318v.318h.318v.319h.318v.319h.318v.318h.321v.319h.318v.319h.318v.318h.318v.319h.317v.319h.318v.318h.318v.318h.318v.319h.317v.318h.318v.319h.318v.319h.318v.318h.149c.013.034.03.062.044.091h-.318v-.317h-.318v-.319h-.318v-.319h-.318v-.318h-.317v-.319h-.318v-.319h-.318v-.318h-.318v-.319h-.318v-.318h-.318v-.322h-.317v-.315h-.318v-.323h-.318v-.318h-.318v-.319h-.318v-.318h-.318v-.319h-.318v-.318h-.317v-.318h-.318v-.319h-.321v-.319h-.318v-.318h-.318v-.319h-.318v-.319h-.318v-.318h-.318v-.319h-.317v-.319h-.318v-.318h-.318v-.319h-.318v-.319h-.318v-.318h-.318v-.319h-.317v-.318h-.318v-.318h-.318v-.319h-.318v-.319h-.318v-.318h-.318v-.319h-.318v-.319h-.317v-.318h-.318v-.319h-.318v-.317h-.318v-.319h-.317v-.319h-.318v-.318h-2.1v2h.318v.317h.321v.323h.318v.315h.318v.321h.318v.319h.318v.316h.318v.321h.318v.319h.317v.319h.318v.318h.318v.319h.318v.319h.318v.318h.318v.319h.317v.318h.318v.319h.318v.319h.318v.317h.318v.319h.317v.319h.318v.318h.318v.319h.318v.319h.318v.318h.318v.319h.317v.322h.318v.318h.318v.319h.318v.319h.318v.318h.318v.319h.318v.319h.317v.318h.318v.318h.318v.319h.318v.318h.318v.319h.318v.319h.321v.318h.318v.319h.318v.319h.318v.318h.317v.319h.318v.319h.318v.176l-.125.07v-.158h-.318v-.316h-.318v-.319h-.318v-.321h-.318v-.316h-.317v-.318h-.318v-.322h-.318v-.318h-.318v-.319h-.318v-.318h-.318v-.319h-.318v-.319h-.317v-.318h-.318v-.319h-.321v-.319h-.318v-.318h-.318v-.319h-.318v-.318h-.318v-.319h-.318v-.319h-.317v-.318h-.318v-.319h-.318v-.318h-.318v-.318h-.318v-.319h-.318v-.319h-.317v-.318h-.318v-.319h-.318v-.319h-.318v-.318h-.318v-.319h-.318v-.318h-.318v-.318h-.317v-.319h-.318v-.319h-.318v-.318h-.318v-.319h-.317v-.319h-.318v-.318h-2.1v2h.318v.322h.321v.318h.318v.315h.318v.323h.318v.318h.318v.319h.318v.317h.318v.319h.317v.319h.318v.318h.318v.319h.318v.319h.318v.318h.318v.319h.317v.319h.318v.318h.318v.319h.318v.319h.318v.318h.317v.319h.318v.319h.318v.317h.318v.319h.318v.322h.318v.318h.317v.316h.318v.322h.318v.318h.318v.319h.318v.319h.318v.318h.318v.319h.317v.319h.318v.318h.318v.319h.318v.319h.318v.189l-.122.074v-.176h-.318v-.319h-.318v-.319h-.318v-.318h-.317V11714h-.318v-.319h-.321v-.318h-.318v-.319h-.318v-.319h-.318v-.318h-.318v-.318h-.318v-.319h-.317v-.318h-.318v-.319h-.318v-.318h-.318v-.319h-.318v-.319h-.318v-.318h-.317v-.319h-.318v-.319h-.318v-.318h-.318v-.319h-.318v-.318h-.318v-.318h-.318v-.319h-.317v-.319h-.318v-.318h-.318v-.319h-.318v-.319h-.317v-.318h-.318v-.319h-2.1v2h.318v.319h.321v.318h.318v.322h.318v.315h.318v.318h.318v.323h.318v.315h.318v.322h.317v.319h.318v.319h.318v.317h.318v.319h.318v.319h.318v.318h.317v.319h.318v.319h.318v.318h.318v.319h.318v.319h.317v.318h.318v.319h.318v.319h.318v.318h.318v.322h.318v.315h.317v.318h.318v.322h.318v.319h.318v.315h.318v.322h.318v.319h.318v.318h.317v.319h.318v.318h.318v.319h.318v.319h.318v.318h.318v.319h.321v.319h.318v.318h.318v.319h.318v.318h.317v.318h.318v.319h.318v.319h.318v.318h.317v.319h.318v.319h.318v.318h.318v.319h.318v.318h.318v.318h.318v.319h.317v.319h.318v.318h.318v.319h.318v.319h.318v.318h.318v.319h.318v.318h.317v.156l-.125-.063h-.317v-.319h-.318v-.319h-.318v-.318h-.318v-.319h-.318v-.319h-.318v-.318h-.318v-.319h-.317v-.319h-.318v-.318h-.318v-.319h-.318v-.319h-.318v-.318h-.318v-.319h-.318v-.317h-.317v-.319h-.318v-.319h-.318v-.318h-.318v-.319h-.318v-.319h-.318v-.321h-.317v-.319h-.318v-.319h-.318v-.318h-.318v-.319h-.318v-.319h-.318v-.318h-.318v-.319h-.317v-.319h-.318v-.318h-.321v-.318h-.318v-.319h-.318v-.318h-.318v-.319h-.318v-.319h-.318v-.318h-.317v-.319h-.318v-.319h-.318v-.318h-.318v-.319h-.318v-.319h-.318v-.318h-.317v-.319h-.318v-.319h-.318v-.318h-.318v-.318h-.318v-.318h-.318v-.319h-.318v-.319h-.317v-.318h-.318V11711h-.318v-.319h-.318v-.318h-.317v-.319h-.318v-.318h-2.1v2h.318v.316h.321v.319h.318v.321h.318v.316h.318v.319h.318v.321h.318v.319h.318v.319h.317v.318h.318v.319h.318v.319h.318v.318h.318v.319h.318v.319h.317v.317h.318v.319h.318v.319h.318v.318h.318v.319h.317v.318h.318v.225l-.05.027.091.158h-.166v-.318h-.318v-.318h-.317v-.319h-.318v-.318h-.318v-.319h-.318v-.319h-.318v-.318h-.318v-.319h-.318v-.319h-.317v-.318h-.318v-.318h-.318v-.318h-.318v-.319h-.317v-.319h-.318v-.318h-2.1v2h.318v.318h.321v.319h.318v.319h.318v.318h.318v.319h.318v.322h.318v.24a5.005,5.005,0,0,0-3.7.536,5.064,5.064,0,0,0-1.842,6.908,4.941,4.941,0,0,0,.98,1.218,4.506,4.506,0,0,0,.322.322c.1.109.206.217.314.319.061.061,23.013,23.095,42.185,42.332a65.254,65.254,0,0,0,56.4-56.6C3493.806,11703.295,3473.836,11683.257,3473.748,11683.179ZM3418.6,11715.7l-.044.026-.125-.217h.169Zm.321.317-.047.028-.125-.218h.172Zm.318.319-.048.028-.125-.218h.173Zm.318.319-.048.026-.125-.217h.173Zm.318.318-.048.027-.125-.217h.173Zm.317.319-.047.027-.125-.218h.172Zm.318.319-.047.026-.126-.217h.173Zm.318.318-.047.027-.126-.217h.173Zm.318.319-.047.027-.126-.218h.173Zm.317.319-.047.026-.125-.217h.172Zm.318.318-.047.027-.125-.217h.172Zm.318.318-.047.028-.125-.218h.172Zm.318.323-.047.023-.125-.217h.172Zm.318.314-.047.027-.126-.217h.173Zm-.125-7.8v-.315c.047.108.1.211.152.315Zm.443,8.119-.047.027-.126-.218h.173Zm.318.323-.048.022-.125-.217h.173Zm.317.318-.047.023-.125-.217h.172Zm.318.315-.047.027-.125-.218h.172Zm.318.322-.044.027-.128-.221h.172Zm.318.318-.044.027-.128-.22h.172Zm.318.319-.048.027-.125-.221h.173Zm.318.319-.044.026-.129-.22h.173Zm.318.318-.044.027-.129-.22h.173Zm-16.531-4.74a.144.144,0,0,1-.038-.013h.038Zm4.324.855v-.054l.031.054Zm12.48,4.231-.128-.221h.172v.193Zm.362.292-.044.026-.128-.22h.172Zm.318.318-.044.027-.128-.221h.172Zm.318.319-.044.027-.128-.222h.172Zm.318.319-.044.026-.129-.221h.173Zm.321.318-.047.027-.125-.217h.172Zm.318.319-.047.026-.126-.217h.173Zm.314.318-.044.027-.128-.221h.172Zm.321.319-.047.027-.125-.217h.172Zm.318.318-.047.027-.125-.218h.172Zm.318.318-.047.028-.125-.218h.172Zm.318.319-.047.027-.126-.217h.173Zm.318.319-.047.026-.126-.217h.173Zm.318.321-.173-.192h.173Z" fill="#a3c6a8"/>
      <path id="Trazado_4637" data-name="Trazado 4637" d="M3428.777,11660.75h19.687a3.976,3.976,0,0,1,3.969,3.972v6.419h-5.465v-4.922h-16.7v4.922H3424.8v-6.419a3.977,3.977,0,0,1,3.972-3.972Zm-24.633,12.368h68.951a3.357,3.357,0,0,1,3.345,3.345v13.419a20.6,20.6,0,0,0-16.889,2.895H3400.8v-16.313a3.356,3.356,0,0,1,3.346-3.345Zm28.387,22.793h12.177v6.948a.715.715,0,0,1-.711.711h-10.755a.714.714,0,0,1-.711-.711v-6.948Zm26.932,30.761a20.562,20.562,0,0,1-3.515-30.761h-8.653v9.25a1.011,1.011,0,0,1-1.008,1.008H3430.95a1.013,1.013,0,0,1-1.007-1.008v-9.25h-27.634v27.417a3.355,3.355,0,0,0,3.344,3.344Zm18.566-21.142h-6.044v-.817a4.415,4.415,0,0,0-.21-1.7.925.925,0,0,0-.9-.4c-.825,0-1.108.568-1.108,1.382a1.968,1.968,0,0,0,.573,1.619,22.937,22.937,0,0,0,3.258,1.8,25.009,25.009,0,0,1,3.143,1.73,5.269,5.269,0,0,1,1.992,4.444,5.446,5.446,0,0,1-1.558,4.121,7.3,7.3,0,0,1-3.964,1.753v1.945h-4.195v-1.99a7.981,7.981,0,0,1-3.53-1.434c-1.205-.881-1.809-2.411-1.809-4.6v-.959h6.044v1.2a9.359,9.359,0,0,0,.189,2.461c.122.32.43.482.905.482.822,0,1.215-.457,1.215-1.327a6.982,6.982,0,0,0-.286-2.363,3.958,3.958,0,0,0-1.947-1.552c-1.448-.736-3.82-1.792-4.9-3.108-1.643-2-1.98-5.206.227-7.006a7.806,7.806,0,0,1,3.893-1.461v-1.651h4.195v1.659c2.57.4,4.878,1.61,4.878,4.844,0,.2-.021.512-.061.927Zm-6.879-12.735a16.96,16.96,0,1,1-16.96,16.96A16.961,16.961,0,0,1,3471.15,11692.795Z" fill="#fff" stroke="#035e4f" stroke-miterlimit="10" stroke-width="2" fill-rule="evenodd"/>
    </g>
  </g>
</svg>
