<svg xmlns="http://www.w3.org/2000/svg" width="152.443" height="152.443" viewBox="0 0 152.443 152.443">
  <g id="Grupo_4784" data-name="Grupo 4784" transform="translate(-641.715 -1656.76)">
    <path id="Trazado_4633" data-name="Trazado 4633" d="M3802.815,11628.085q3.744,0,7.471.367t7.4,1.1q3.672.731,7.256,1.817t7.043,2.52q3.459,1.433,6.761,3.2t6.416,3.846q3.114,2.082,6.008,4.456t5.543,5.023q2.648,2.647,5.023,5.542t4.456,6.008q2.08,3.114,3.845,6.416t3.2,6.762q1.434,3.46,2.52,7.043t1.818,7.256q.731,3.672,1.1,7.4t.367,7.471q0,3.744-.367,7.472t-1.1,7.4q-.731,3.672-1.818,7.256t-2.52,7.042q-1.432,3.461-3.2,6.763t-3.845,6.416q-2.08,3.111-4.456,6.008t-5.023,5.542q-2.649,2.648-5.543,5.023t-6.008,4.455q-3.112,2.083-6.416,3.847t-6.761,3.2q-3.46,1.433-7.043,2.521t-7.256,1.818q-3.673.729-7.4,1.1t-7.471.367q-3.744,0-7.471-.367t-7.4-1.1q-3.673-.731-7.256-1.818t-7.043-2.521q-3.459-1.431-6.762-3.2t-6.416-3.847q-3.112-2.079-6.008-4.455t-5.542-5.023q-2.647-2.647-5.023-5.542t-4.456-6.008q-2.08-3.114-3.846-6.416t-3.2-6.763q-1.433-3.458-2.52-7.042t-1.817-7.256q-.731-3.674-1.1-7.4t-.367-7.472q0-3.746.367-7.471t1.1-7.4q.73-3.672,1.817-7.256t2.52-7.043q1.434-3.458,3.2-6.762t3.846-6.416q2.08-3.113,4.456-6.008t5.023-5.542q2.648-2.648,5.542-5.023t6.008-4.456q3.114-2.08,6.416-3.846t6.762-3.2q3.459-1.433,7.043-2.52t7.256-1.817q3.672-.729,7.4-1.1T3802.815,11628.085Z" transform="translate(-3084.878 -9971.325)" fill="#035e4f"/>
    <circle id="Elipse_238" data-name="Elipse 238" cx="71.597" cy="71.597" r="71.597" transform="translate(646.961 1662.006)" fill="#fff"/>
    <g id="Grupo_3091" data-name="Grupo 3091" transform="translate(-3084.878 -9971.325)">
      <ellipse id="Elipse_241" data-name="Elipse 241" cx="65.13" cy="65.352" rx="65.13" ry="65.352" transform="translate(3738.305 11639.354)" fill="#d8efdd"/>
      <path id="Trazado_4638" data-name="Trazado 4638" d="M3853.49,11696.445h0c-7.511-7.536-14.232-14.277-14.283-14.322a5.028,5.028,0,0,0-6.221-.953,4.895,4.895,0,0,0-.487.36l1.328-2.956c-.162-.161-8.926-2.7-8.937-2.708-.535-.583-27.142,3.1-27.856,2.823l-.49-.349-.246.13a4.954,4.954,0,0,0-5.709,3.035c-7.026,3.744-9.865-5.841-18.92-.809a4.954,4.954,0,0,0-1.163.473,5.035,5.035,0,0,0-.9.68c-6.011,3.368-10.343,5.933-10.343,6.323,0,1.282,3.788,28.621,3.788,28.621l5.1,3.729a5.049,5.049,0,0,0,.519,3.756,4.941,4.941,0,0,0,.98,1.218c.1.112.21.22.322.322s.206.217.314.318c.061.062,23.013,23.1,42.185,42.331a65.253,65.253,0,0,0,56.4-56.594Z" fill="#a3c6a8"/>
      <path id="Trazado_4639" data-name="Trazado 4639" d="M3828.041,11678.224a7.021,7.021,0,0,1-3.435-4.3l-.376-.219a9.211,9.211,0,0,1-.6-3.719l.277-.213a8.43,8.43,0,0,1,.443-3.748c1.856-3.429,7.876-3.429,9.733,0a8.429,8.429,0,0,1,.441,3.748l.279.213a9.215,9.215,0,0,1-.6,3.719l-.375.22a7.022,7.022,0,0,1-3.435,4.3,6,6,0,0,1-2.356,0Zm1.181,55.287c1.642.9,6.413,1.663,7.548,0l.62-25.257a7.615,7.615,0,0,0,1.529-.118l0-3.587a3.015,3.015,0,0,0,2.14-1.286l7.024-10.131a3.024,3.024,0,0,0-.03-3.561,56.14,56.14,0,0,0-3.582-4.359c-1.312-1.431-3.311-3.524-5.108-4.288l-5.538-2.352-3.081,6.79-.366-4.234c0-.016.261-1.423.29-1.765a.245.245,0,0,0-.259-.247,17.815,17.815,0,0,1-2.384,0,.245.245,0,0,0-.259.247c.029.342.292,1.749.29,1.765l-.366,4.234-2.895-6.379-.213-.486-13.369,1.059-11.31.168c-2.565.147-2.121,4.931-.556,5.28,5.541.391,11.931.543,17.331.633a2.313,2.313,0,0,1,2.121,2.483l.263,20.016a12.764,12.764,0,0,0,1.984.118l.621,25.257c1.134,1.661,5.905.895,7.547,0Zm9.7-45.337,2.949,3.3-2.952,4.259,0-7.559Zm-73.949,1.705h22v6.566h-1.911a23.122,23.122,0,0,0-18,0h-2.094v-6.566Zm26.8,0h22v6.566h-22v-6.566Zm0,9.494h22v6.566h-17.862a23.143,23.143,0,0,0-4.142-5.141v-1.426Zm5.607,9.494h16.4v6.564h-14.762a22.909,22.909,0,0,0-1.635-6.564Zm1.733,9.494h14.664v6.565h-15.817a23,23,0,0,0,1.153-6.565Zm-2.353,9.492h17.017v6.566h-21.86a23.125,23.125,0,0,0,4.843-6.566Zm-31.783-56.962h22v6.565h-22v-6.565Zm0,9.494h22v6.566h-22v-6.566Zm11.094,18.207a19.083,19.083,0,1,0,19.083,19.084,19.083,19.083,0,0,0-19.083-19.084Zm9.543,13.608h-8.385v-1.06a5.364,5.364,0,0,0-.291-2.206,1.317,1.317,0,0,0-1.247-.515c-1.145,0-1.539.736-1.539,1.79a2.459,2.459,0,0,0,.795,2.1,32.452,32.452,0,0,0,4.521,2.334,35.279,35.279,0,0,1,4.36,2.243,6.648,6.648,0,0,1,2.764,5.761,6.813,6.813,0,0,1-2.162,5.341,11.3,11.3,0,0,1-6.478,2.4v2.395h-3.863v-2.475a11.81,11.81,0,0,1-5.876-1.964q-2.51-1.708-2.509-5.964v-1.242h8.385v1.561a11.341,11.341,0,0,0,.262,3.188c.17.414.6.624,1.255.624a1.508,1.508,0,0,0,1.687-1.722,8.489,8.489,0,0,0-.4-3.061c-.264-.618-1.163-1.283-2.7-2.011-2.009-.955-5.3-2.324-6.8-4.029-2.279-2.6-2.749-6.746.314-9.077a12.253,12.253,0,0,1,6.38-2v-2.033h3.863v2.033c3.936.376,7.746,1.822,7.746,6.394C3785.691,11711.265,3785.664,11711.663,3785.607,11712.2Z" fill="#fff" stroke="#035e4f" stroke-miterlimit="10" stroke-width="2" fill-rule="evenodd"/>
    </g>
  </g>
</svg>
