<svg xmlns="http://www.w3.org/2000/svg" width="152.443" height="152.443" viewBox="0 0 152.443 152.443">
  <g id="Grupo_4785" data-name="Grupo 4785" transform="translate(-1006.341 -1656.76)">
    <path id="Trazado_4635" data-name="Trazado 4635" d="M4167.441,11628.085q3.744,0,7.47.367t7.4,1.1q3.672.731,7.255,1.817t7.043,2.52q3.461,1.433,6.762,3.2t6.416,3.846q3.114,2.082,6.008,4.456t5.542,5.023q2.649,2.647,5.024,5.542t4.455,6.008q2.081,3.114,3.846,6.416t3.2,6.762q1.433,3.46,2.52,7.043t1.817,7.256q.732,3.672,1.1,7.4t.367,7.471q0,3.744-.367,7.472t-1.1,7.4q-.729,3.672-1.817,7.256t-2.52,7.042q-1.433,3.461-3.2,6.763t-3.846,6.416q-2.079,3.111-4.455,6.008t-5.024,5.542q-2.648,2.648-5.542,5.023t-6.008,4.455q-3.114,2.083-6.416,3.847t-6.762,3.2q-3.458,1.433-7.043,2.521t-7.255,1.818q-3.674.729-7.4,1.1t-7.47.367q-3.746,0-7.471-.367t-7.4-1.1q-3.672-.731-7.255-1.818t-7.043-2.521q-3.461-1.431-6.762-3.2t-6.416-3.847q-3.113-2.079-6.008-4.455t-5.542-5.023q-2.649-2.647-5.024-5.542t-4.455-6.008q-2.08-3.114-3.846-6.416t-3.2-6.763q-1.433-3.458-2.52-7.042t-1.817-7.256q-.731-3.674-1.1-7.4t-.367-7.472q0-3.746.367-7.471t1.1-7.4q.73-3.672,1.817-7.256t2.52-7.043q1.433-3.458,3.2-6.762t3.846-6.416q2.081-3.113,4.455-6.008t5.024-5.542q2.648-2.648,5.542-5.023t6.008-4.456q3.114-2.08,6.416-3.846t6.762-3.2q3.459-1.433,7.043-2.52t7.255-1.817q3.674-.729,7.4-1.1T4167.441,11628.085Z" transform="translate(-3084.878 -9971.325)" fill="#035e4f"/>
    <circle id="Elipse_239" data-name="Elipse 239" cx="71.597" cy="71.597" r="71.597" transform="translate(1011.586 1662.006)" fill="#fff"/>
    <g id="Grupo_3092" data-name="Grupo 3092" transform="translate(-3084.878 -9971.325)">
      <ellipse id="Elipse_242" data-name="Elipse 242" cx="65.13" cy="65.352" rx="65.13" ry="65.352" transform="translate(4103.311 11640.358)" fill="#d8efdd"/>
      <path id="Trazado_4640" data-name="Trazado 4640" d="M4203.379,11684.183a5.028,5.028,0,0,0-6.221-.952,5.1,5.1,0,0,0-1.589,1.458l-.251-.146.058-.1-.376-.218.058-.1-.379-.217.058-.1-.376-.217.061-.1-.379-.218.058-.1-1.728-1-.291.5-.226-.128.057-.1-.375-.217.057-.1-.375-.217.058-.1-.376-.217.058-.1-.376-.217.058-.1-1.731-1-.291.509-.227-.133.061-.1-.378-.217.057-.1-.375-.219.061-.1-.379-.217.057-.1-.375-.221.057-.1-1.727-1-.295.5-.226-.129.061-.1-.375-.217.057-.1-.379-.219.061-.1-.379-.218.061-.1-.378-.217.06-.1-1.294-.75c-.034-.034-.071-.071-.109-.105-.1-.112-10.062-10.106-10.174-10.209a5.045,5.045,0,0,0-8.068,5.961,4.972,4.972,0,0,0,.981,1.215,4.507,4.507,0,0,0,.318.322c.1.109.206.217.314.316s.21.22.321.321.21.218.318.319a4.034,4.034,0,0,0,.318.315,4.493,4.493,0,0,0,.318.321c.1.113.209.219.318.319a3.8,3.8,0,0,0,.317.316c.1.111.207.22.318.321s.21.217.318.319c.041.044.085.085.129.129h-.974v1.272l-.169-.3-.1.062-.216-.377-.1.058-.217-.376-.1.058-.217-.381-.1.062-.216-.38-.1.061-.216-.376-.1.058-.22-.381-.1.062-.22-.38-.1.062-.22-.381-.1.063-.22-.381-.1.062-.22-.38-.1.061-.22-.38-.1.062-.217-.38-.1.061-.22-.38-.1.061-.216-.38-.1.062-.216-.38-.1.061-.216-.38-.1.061-.216-.38-1.731,1,1.052,1.826.1-.061.217.38.1-.059.216.377.1-.058.217.377.1-.062.217.381.1-.059.217.376.1-.057.216.376.1-.057.216.376.1-.058.216.376.1-.057.216.376.1-.057.217.376.1-.059.217.377.1-.058.217.377.1-.058.216.377.1-.059.216.377.1-.058.216.377.1-.058.216.377.1-.059.217.377.1-.058.217.376.1-.057.216.376.1-.058.115.2v1.432h.318v.319h.318v.319h.317v.317h.318v.319h.318v.319h.318v.318h.318v.319h.318v.319h.318v.321h.321v.316h.314v.319h.321v.321h.318v.315h.318v.319h.318v.322h.318v.319h.317v.314h.318v.323h.318v.319h.318v.159c-.044-.015-.084-.027-.125-.038v-.03h-.118c-.068-.02-.136-.034-.2-.054v-.266h-.318v-.318h-.318v-.319h-.317v-.319h-.318v-.321h-.318v-.315h-.318v-.318h-.318v-.323h-.318v-.315h-.317v-.318h-.318v-.322h-.318v-.319h-.318v-.319h-.818l-.149-.255-.1.062-.22-.38-.1.062-.22-.381-.1.063-.217-.381-.1.058-.217-.376-.1.057-.216-.376-.1.057-.216-.376-.1.058-.216-.376-.1.057-.216-.376-.1.059-.217-.378-.1.059-.216-.377-.1.058-.216-.377-.1.059-.216-.377-.1.058-.217-.377-.1.058-.217-.377-.1.059-.217-.377-.1.058-.216-.377-.1.058-.216-.376-.1.058-.216-.376-.1.057-.216-.376-.1.057-.217-.376-.1.058-.217-.376-.1.057-.216-.376-.1.054-.216-.373-.1.059-.216-.377-.1.058-.216-.377-.1.055-.217-.374-.1.059-.217-.38-.1.061-.217-.38-.1.058-.216-.373-.1.055-.22-.377-.1.058-.216-.377-.1.058-.219-.377-1.728,1,1.048,1.825.1-.058.216.377.1-.058.217.377.1-.059.216.377.1-.058.216.377.1-.058.216.376.1-.058.216.376.1-.057.217.376.1-.058.22.377.1-.058.217.376.1-.057.22.376.1-.059.22.377.1-.058.22.377.1-.058.219.377.1-.059.22.377.1-.058.22.38.1-.061.216.38.1-.062.217.38.1-.061.217.377.1-.058.217.376.1-.058.216.38.1-.061.216.38.1-.061.216.38.1-.062.216.38.1-.061.217.38.1-.062.217.381.1-.062.216.38.1-.061.216.38.1-.061.217.38.1-.062.217.38.1-.061.217.38.1-.061.216.38.1-.059.216.377.1-.061.216.38.1-.058.216.377.1-.059.149.261c-.1,0-.193-.017-.291-.017-.574,0-1.143.031-1.7.085l-.081-.136-.1.058-.217-.38-.1.059-.217-.373-.1.054-.216-.377-.1.058-.216-.377-.1.059-.216-.378-.1.059-.216-.377-.1.058-.217-.377-.1.059-.217-.377-.1.058-.216-.376-.1.057-.216-.376-.1.058-.216-.376-.1.057-.216-.376-.1.057-.22-.376-.1.059-.217-.377-.1.058-.217-.377-.1.058-.22-.377-.1.059-.219-.377-.1.058-.216-.376-.1.057-.219-.376-.1.058-.22-.376-.1.057-.217-.376-.1.057-.217-.376-.1.058-.216-.38-.1.062-.216-.377-.1.058-.216-.38-.1.062-.216-.38-.1.061-.217-.38-.1.062-.217-.381-.1.062-.217-.38-.1.061-.216-.38-.1.062-.216-.381-.1.062-.216-.38-.1.061-.216-.38-.1.062-.217-.381-.1.062-.217-.38-.1.061-.217-.38-.1.059-.216-.378-1.732,1.006,1.052,1.824.1-.058.217.377.1-.058.22.377.1-.059.219.377.1-.058.22.377.1-.058.22.377.1-.059.216.377.1-.058.22.377.1-.058.217.377.1-.059.217.376.1-.057.216.376.1-.057.216.376.1-.058.216.376.1-.057.216.376.1-.057.217.376.1-.059.217.377.1-.058.217.377.1-.059.216.381.1-.062.216.377.1-.058.216.376.1-.054.216.377.1-.062.217.376.1-.054.217.373.1-.055.216.378.1-.059.219.377.1-.058.216.377.1-.059.217.376.1-.057.22.376.1-.057.22.376.1-.058.22.376.1-.057.217.376.1-.058.071.122c-.548.146-1.082.318-1.61.513l-.071-.126-.1.061-.217-.379-.1.061-.216-.379-.1.061-.22-.38-.1.061-.216-.38-.1.062-.216-.38-.1.061-.217-.38-.1.061-.217-.38-.1.062-.217-.38-.1.061-.216-.38-.1.058-.216-.377-.1.062-.216-.38-.1.061-.216-.38-.1.058-.217-.377-.1.059-.217-.377-.1.058-.217-.377-.1.059-.216-.377-.1.058-.216-.376-.1.057-.216-.376-.1.058-.216-.376-.1.057-.216-.376-.1.058-.22-.377-.1.059-.22-.377-.1.058-.219-.377-.1.058-.22-.377-.1.059-.22-.377-.1.058-.22-.377-.1.058-.22-.376-.1.058-.217-.376-.1.057-.217-.376-.1.057-.216-.376-.1.055-.216-.373-.1.058-.216-.377-.1.058-.216-.377-.1.055-.217-.373-1.731,1,1.051,1.825.1-.059.216.377.1-.058.216.377.1-.059.216.377.1-.058.217.377.1-.058.217.377.1-.059.217.377.1-.058.216.377.1-.058.216.377.1-.059.22.376.1-.057.216.38.1-.061.22.376.1-.058.22.38.1-.061.22.38.1-.062.22.381.1-.062.22.381.1-.062.22.38.1-.061.216.38.1-.062.216.38.1-.061.217.38.1-.061.217.38.1-.062.216.38.1-.061.216.38.1-.061.216.38.1-.062.216.38.1-.061.217.379.1-.06.217.379.1-.061.217.379.1-.057.216.376.1-.057.193.336q-.675.371-1.309.8l-.176-.306-.1.055-.216-.373-.1.054-.216-.373-.1.059-.216-.381-.1.058-.216-.376-.1.057-.22-.376-.1.059-.217-.378-.1.059-.22-.377-.1.058-.216-.377-.1.059-.216-.377-.1.058-.22-.377-.1.058-.219-.376-.1.058-.22-.376-.1.057-.22-.376-.1.057-.22-.376-.1.058-.217-.376-.1.058-.217-.377-.1.058-.217-.377-.1.059-.216-.377-.1.058-.217-.377-.1.058-.217-.377-.1.059-.217-.377-.1.058-.216-.38-.1.061-.216-.377-.1.059-.216-.377-.1.058-.216-.38-.1.061-.217-.376-.1.058-.217-.376-.1.057-.217-.38-.1.061-.216-.38-.1.063-.216-.381-.1.062-.216-.381-.1.063-.216-.381-.1.062-.217-.38-1.731,1,1.048,1.825.1-.058.219.376.1-.057.217.376.1-.057.22.376.1-.059.216.377.1-.058.22.377.1-.058.22.377.1-.059.216.377.1-.058.22.377.1-.059.216.378.1-.059.216.377.1-.058.217.377.1-.059.217.378.1-.059.217.376.1-.057.216.376.1-.058.216.376.1-.058.216.377.1-.058.216.38.1-.062.217.377.1-.054.216.373.1-.054.216.376.1-.062.216.38.1-.058.217.377.1-.058.217.377.1-.059.217.377.1-.058.216.373.1-.054.216.377.1-.059.216.377.1-.058.216.377.1-.058.217.376.1-.058.159.275q-.548.483-1.055,1.007l-.077-.132-.1.057-.216-.379-.1.062-.216-.38-.1.061-.217-.38-.1.061-.217-.38-.1.062-.217-.38-.1.061-.216-.38-.1.061-.216-.38-.1.062-.216-.38-.1.061-.216-.38-.1.061-.217-.38-.1.062-.217-.38-.1.062-.217-.381-.1.058-.216-.376-.1.058-.216-.376-.1.057-.216-.376-.1.057-.219-.376-.1.058-.217-.376-.1.057-.22-.376-.1.058-.22-.377-.1.059-.22-.377-.1.058-.219-.377-.1.058-.219-.377-.1.059-.219-.377-.1.058-.22-.377-.1.059-.22-.378-.1.059-.22-.377-.1.058-.216-.376-.1.058-.216-.376-.1.057-.216-.376-.1.058-.216-.377-.1.059-.217-.377-.1.054-.217-.373-.1.058-.217-.377-.1.059-.216-.377-.1.055-.216-.374-1.731,1,1.051,1.825.1-.058.216.376.1-.057.217.376.1-.057.217.38.1-.062.216.377.1-.058.216.377.1-.058.216.38.1-.062.216.38.1-.061.216.377.1-.058.217.38.1-.062.217.38.1-.061.216.38.1-.061.216.38.1-.062.216.38.1-.061.216.38.1-.061.217.38.1-.062.217.38.1-.061.217.38.1-.062.216.382.1-.059.216.376.1-.061.22.38.1-.062.22.381.1-.058.216.376.1-.061.22.38.1-.062.22.381.1-.059.219.377.1-.058.216.377.1-.059.216.378.1-.059.22.377.1-.058.217.376.1-.058.217.376.1-.057.217.376.1-.057.216.376.1-.058.088.152c-.254.346-.49.7-.72,1.069l-.1-.059.057-.1-.375-.217.057-.1-.375-.217.058-.1-.376-.218.058-.1-1.295-.75c-.037-.034-.071-.071-.108-.105-.1-.108-.207-.217-.318-.318s-.206-.217-.318-.319-.206-.217-.318-.314a4.513,4.513,0,0,0-.318-.323c-.1-.108-.209-.217-.318-.319s-.209-.217-.317-.319-.21-.217-.318-.318-.21-.217-.318-.319-.206-.217-.318-.318-.21-.218-.318-.318-.21-.218-.318-.319a34.459,34.459,0,0,1-.635-.638c-.1-.109-.21-.217-.318-.319s-.21-.217-.318-.318-.21-.218-.318-.319-.209-.217-.318-.319-.209-.217-.318-.318-.209-.218-.321-.319-.206-.22-.314-.318-.21-.218-.318-.318-.21-.222-.321-.323-.206-.213-.315-.315-.209-.221-.321-.322-.206-.213-.315-.315a3.958,3.958,0,0,0-.321-.319c-.1-.111-.206-.221-.314-.318s-.21-.222-.321-.322-.207-.214-.315-.316-.209-.22-.321-.321-.206-.218-.314-.316-.21-.22-.322-.322a5.048,5.048,0,1,0-7.09,7.177c.1.114.213.224.324.324s.2.215.311.313c.1.116.21.221.322.323a3.861,3.861,0,0,0,.318.314,3.09,3.09,0,0,0,.321.323c.1.112.2.217.314.319s.207.217.315.314c.1.115.209.221.321.322s.209.221.321.323.206.217.315.314c.04.044.084.089.128.133h-.974v2h.318v.322h.321v.318h.318v.315h.318v.322h.318v.319h.318v.318h.318v.319h.317v.319h.318v.318h.318v.319h.318v.319h.318v.318h.318v.319h.317v.319h.318v.318h.318v.319h.318v.318h.318v.318h.318v.323h.317v.315h.318v.318h.318v.322h.318v.319h.318v.315h.318v.322h.317v.319h.318v.314h.318v.323h.318v.319h.318v.318h.318v.319h.317v.319h.318v.317h.318v.319h.318v.318h.318v.319h.318v.319h.318v.318h.321v.319h.318v.319h.318v.318h.317v.319h.318v.319h.318v.318h.318v.319h.317v.319h.318v.318h.318v.318h.318v.319h.318v.318h.149c.013.034.03.062.044.093h-.318v-.319h-.318v-.319h-.318v-.318h-.318v-.319h-.317v-.319h-.318v-.318h-.318v-.319h-.318v-.319h-.318v-.318h-.318v-.322h-.318v-.315h-.317v-.322h-.318v-.319h-.318v-.318h-.318v-.318h-.318v-.319h-.318v-.319h-.317v-.318h-.318v-.319h-.321v-.319h-.318v-.318h-.318v-.319h-.318v-.319h-.318v-.318h-.318v-.319h-.317v-.319h-.318v-.318h-.318v-.319h-.318v-.318h-.318v-.318h-.318v-.319h-.318v-.318h-.317v-.319h-.318v-.319h-.318v-.318h-.318v-.319h-.318v-.319h-.318v-.317h-.318v-.319h-.317v-.319h-.318v-.318h-.318v-.319h-.318v-.319h-.317v-.318h-2.1v2h.318v.318h.321v.322h.318v.315h.318v.322h.318v.319h.318v.315h.318v.321h.317v.319h.318v.319h.318v.318h.318v.319h.318v.319h.318v.318h.317v.319h.318v.319h.318v.318h.318v.319h.318v.319h.318v.318h.317v.319h.318v.318h.318v.318h.318v.319h.318v.318h.318v.319h.317v.322h.318v.319h.318v.318h.318v.319h.318v.318h.318v.319h.317v.319h.318v.318h.318v.319h.318v.319h.318v.318h.318v.318h.318v.319h.321v.318h.318v.319h.318v.319h.317v.318h.318v.319h.318v.319h.318v.176l-.125.072v-.16h-.318v-.316h-.318v-.317h-.318v-.323h-.318v-.315h-.318v-.318h-.317v-.322h-.318v-.319h-.318v-.318h-.318v-.319h-.318v-.319h-.318v-.318h-.317V11711h-.318v-.319h-.321v-.318h-.318v-.319h-.318v-.319h-.318v-.318h-.318v-.319h-.318v-.318h-.317v-.318h-.318v-.319h-.318v-.319h-.318v-.318h-.318v-.319h-.318v-.319h-.318v-.318h-.317v-.319h-.318v-.319h-.318v-.317h-.318v-.319h-.318v-.319h-.318v-.318h-.318v-.319h-.317v-.318h-.318v-.319h-.318v-.319h-.318v-.318h-.317v-.319h-2.1v2h.318v.322h.321v.318h.318v.315h.318v.323h.318v.318h.318v.319h.318v.319h.317v.318h.318v.319h.318v.318h.318v.318h.318v.319h.318v.319h.317v.318h.318v.319h.318v.318h.318v.319h.318v.319h.318v.318h.317v.319h.318v.319h.318v.318h.318v.319h.318v.322h.318v.318h.317v.315h.318v.322h.318v.318h.318v.319h.318v.319h.318v.318h.317v.319h.318v.319h.318v.318h.318v.319h.318v.319h.318v.189l-.122.075v-.177h-.318v-.319h-.318v-.319h-.318v-.318h-.317v-.319h-.318v-.319h-.321v-.318h-.318v-.318h-.318v-.318h-.318v-.319h-.318v-.319h-.318v-.318h-.317v-.319h-.318v-.319h-.318v-.318h-.318v-.319h-.318v-.319h-.318v-.318h-.318v-.319h-.317v-.319h-.318v-.318h-.318v-.318h-.318v-.319h-.318v-.318h-.318v-.319h-.318v-.319h-.317v-.318h-.318v-.319h-.318v-.319h-.318v-.318h-.317v-.319h-2.1v2h.318v.319h.321v.318h.318v.322h.318v.316h.318v.318h.318v.322h.318v.315h.317v.323h.318v.318h.318v.319h.318v.318h.318v.319h.318v.319h.317v.317h.318v.319h.318v.319h.318v.318h.318v.319h.318v.319h.317v.318h.318v.319h.318v.319h.318v.318h.318v.322h.318v.315h.317v.318h.318v.323h.318v.319h.318v.314h.318v.322h.318v.319h.317v.318h.318v.319h.318v.319h.318v.318h.318v.319h.318v.319h.318v.318h.321v.319h.318v.319h.318v.318h.317v.319h.318v.318h.318v.319h.318v.318h.317v.318h.318v.319h.318v.319h.318v.318h.318v.319h.318v.319h.318v.318H4153v.319h.318v.318h.318v.318h.318v.319h.318v.319h.318v.318h.318v.319h.317v.319h.318v.155l-.125-.063h-.318v-.319h-.317v-.319h-.318v-.318h-.318v-.319h-.318v-.318h-.318v-.319h-.318v-.319h-.318v-.318h-.317v-.319h-.318v-.319h-.318v-.317h-.318v-.319h-.318v-.319h-.318v-.318h-.317v-.319h-.318v-.319h-.318v-.318h-.318v-.319h-.318v-.319h-.318v-.321h-.318v-.319h-.317v-.319h-.318v-.318h-.318v-.319h-.318v-.319h-.318v-.318h-.318v-.318h-.317v-.319h-.318v-.318h-.321v-.319h-.318v-.319h-.318v-.318h-.318v-.319h-.318v-.319h-.318v-.318h-.317v-.319h-.318v-.318h-.318v-.319h-.318v-.319h-.318v-.318h-.318v-.319h-.318v-.318h-.317v-.318h-.318v-.319h-.318v-.319h-.318v-.318h-.318v-.319h-.318v-.319h-.318v-.318h-.317V11712h-.318v-.318h-.318v-.318h-.318v-.319h-.317v-.319h-2.1v2.006h.318v.314h.321v.319h.318v.321h.318v.316h.318v.319h.318v.321h.318v.319h.317v.319h.318v.318h.318v.319h.318v.319h.318v.318h.318v.319h.317v.319h.318v.318h.318v.319h.318v.319h.318v.317h.318v.319h.317v.319h.318v.224l-.05.027.091.159h-.166v-.318h-.318v-.319h-.318v-.319h-.317v-.318h-.318v-.319h-.318v-.318h-.318v-.319h-.318v-.319h-.318v-.317h-.318v-.319h-.317v-.319h-.318v-.318h-.318v-.319h-.318v-.319h-.317v-.318h-2.1v2h.318v.318h.321v.319h.318v.319h.318v.318h.318v.319h.318v.323h.318v.239a5,5,0,0,0-3.7.536,5.063,5.063,0,0,0-1.842,6.908,4.934,4.934,0,0,0,.98,1.218c.1.112.21.222.321.323s.206.217.315.319c.061.06,23.013,23.094,42.185,42.331a65.254,65.254,0,0,0,56.4-56.6C4223.437,11704.3,4203.467,11684.261,4203.379,11684.183Zm-55.148,32.521-.044.027-.125-.218h.169Zm.321.319-.048.026-.125-.217h.173Zm.318.318-.048.027-.125-.217h.173Zm.318.319-.048.026-.125-.217h.173Zm.317.318-.047.027-.125-.218h.172Zm.318.318-.047.028-.125-.218h.172Zm.318.319-.047.026-.126-.217h.173Zm.318.318-.047.027-.126-.217h.173Zm.317.319-.047.027-.125-.217h.172Zm.318.319-.047.026-.125-.217h.172Zm.318.318-.047.027-.125-.217h.172Zm.318.319-.047.027-.125-.217h.172Zm.318.322-.047.023-.126-.217h.173Zm.318.315-.047.027-.126-.217h.173Zm-.125-7.8v-.315c.047.108.1.21.152.315Zm.443,8.118-.047.028-.126-.219h.173Zm.317.323-.047.023-.125-.218H4153Zm.318.318-.047.023-.125-.217h.172Zm.318.315-.047.027-.125-.218h.172Zm.318.323-.044.026-.128-.221h.172Zm.318.318-.044.027-.129-.221h.173Zm.318.319-.048.027-.125-.222h.173Zm.318.318-.044.027-.129-.221h.173Zm.317.318-.044.027-.128-.22h.172Zm-16.531-4.738a.357.357,0,0,1-.037-.015h.037Zm4.325.854v-.055l.03.055Zm12.48,4.23-.128-.221h.172v.193Zm.362.292-.044.026-.128-.22h.172Zm.318.318-.044.027-.128-.22h.172Zm.318.319-.044.027-.129-.221h.173Zm.318.319-.044.026-.129-.22h.173Zm.321.318-.047.027-.125-.217h.172Zm.318.319-.048.027-.125-.218h.173Zm.314.319-.044.026-.128-.221h.172Zm.321.318-.047.027-.125-.217h.172Zm.318.319-.047.027-.125-.218h.172Zm.318.318-.047.027-.126-.217h.173Zm.318.318-.047.028-.126-.217h.173Zm.318.319-.048.028-.125-.219h.173Zm.317.323-.172-.194h.172Z" fill="#a3c6a8"/>
      <path id="Trazado_4641" data-name="Trazado 4641" d="M4163.8,11650.1a17.47,17.47,0,0,1,16.835,12.319,28.04,28.04,0,0,0-9.737,6.257,4.357,4.357,0,0,0-1.594-2.1c-1.826-1.271-4.755-2.126-6.3-3.385a1.859,1.859,0,0,1-.564-1.553c0-.778.279-1.323,1.091-1.323a.917.917,0,0,1,.885.382,4.114,4.114,0,0,1,.206,1.63v.784h5.949c.04-.4.06-.691.06-.888,0-3.1-2.272-4.258-4.8-4.643v-1.59h-4.128v1.582a7.786,7.786,0,0,0-3.831,1.4c-2.173,1.726-1.84,4.795-.223,6.716,1.063,1.262,3.4,2.273,4.823,2.979,1.092.537,1.73,1.031,1.916,1.488a6.5,6.5,0,0,1,.282,2.264c0,.834-.388,1.272-1.2,1.272-.467,0-.769-.155-.89-.461a8.757,8.757,0,0,1-.186-2.359v-1.154h-5.948v.92q0,3.056,1.676,4.334a50.791,50.791,0,0,0-9.994-.173,16.64,16.64,0,0,1-1.85-7.639,17.3,17.3,0,0,1,17.521-17.063Zm27,13.419a24.953,24.953,0,0,0-22.48,13.814c3.442,1.313,6.463,3.188,8.314,5.8l.523.735v8.238a16.949,16.949,0,0,1-1.735,2.181c.08,3.938-.221,7.008-2.1,10.747a25.162,25.162,0,0,0,17.48,6.981c13.75,0,24.9-10.855,24.9-24.247s-11.148-24.247-24.9-24.247Zm10.1,18.207c.059-.594.09-1.032.09-1.323,0-4.624-3.389-6.351-7.162-6.925v-2.373h-6.158v2.36a11.628,11.628,0,0,0-5.715,2.09c-3.24,2.573-2.744,7.152-.333,10.017,1.587,1.881,5.069,3.39,7.2,4.443,1.627.8,2.58,1.537,2.857,2.219a9.707,9.707,0,0,1,.42,3.377c0,1.243-.578,1.9-1.785,1.9-.7,0-1.148-.231-1.327-.688a13,13,0,0,1-.278-3.519v-1.721h-8.872v1.372q0,4.7,2.655,6.579a11.894,11.894,0,0,0,5.182,2.049v2.847h6.158v-2.782a10.844,10.844,0,0,0,5.819-2.5,7.675,7.675,0,0,0,2.287-5.892,7.449,7.449,0,0,0-2.924-6.354c-2.722-1.9-7.093-3.172-9.4-5.05a2.771,2.771,0,0,1-.841-2.313c0-1.162.415-1.977,1.628-1.977a1.374,1.374,0,0,1,1.32.57,6.184,6.184,0,0,1,.307,2.433v1.169Zm-43.091,25.328a13.169,13.169,0,0,0,6.719-5.735c.348-.625-.306-.709-.719-.409a21.335,21.335,0,0,1-23.123,0c-.413-.3-1.066-.216-.719.409a13.174,13.174,0,0,0,6.719,5.735c5.9,2.336,5.92,7.438.021,9.767a12.742,12.742,0,0,0-7.529,7.524c-.678,2-.714,3.4.6,5.207a10.161,10.161,0,0,0,2.778,2.512c5.313,3.392,14.074,3.392,19.388,0a10.161,10.161,0,0,0,2.777-2.512c1.312-1.806,1.277-3.205.6-5.207a12.737,12.737,0,0,0-7.529-7.524c-5.9-2.329-5.88-7.431.021-9.767Zm-21.2,18.432a6.537,6.537,0,0,0,1.136,5.68,11.951,11.951,0,0,0,3.358,3.057c6.2,3.954,16.089,3.954,22.286,0a11.96,11.96,0,0,0,3.357-3.057,6.537,6.537,0,0,0,1.136-5.68,13.382,13.382,0,0,0-3.11-6.37c-2.158-2.484-4.331-4.31-7.847-5.082a2.144,2.144,0,0,1-1.665-2.562,2.175,2.175,0,0,1,1.7-1.63c3.5-.778,5.661-2.6,7.812-5.074a13.365,13.365,0,0,0,3.175-6.758,22.88,22.88,0,0,0,4.558-2.273c0,.116,0,.232,0,.349a17.393,17.393,0,0,1-4.372,11.455,4.513,4.513,0,1,0,0,8.8,17.4,17.4,0,0,1,4.372,11.455,17.036,17.036,0,0,1-.245,2.879,9.857,9.857,0,0,1,1.947,2v6.449c-2.994,4.216-11.7,7.264-21.965,7.264s-18.972-3.048-21.966-7.264v-6.449a9.887,9.887,0,0,1,1.947-2,16.886,16.886,0,0,1-.245-2.879,17.4,17.4,0,0,1,4.372-11.455,4.513,4.513,0,1,0,0-8.8,17.393,17.393,0,0,1-4.372-11.455c0-.116,0-.232,0-.349a22.9,22.9,0,0,0,4.558,2.273,13.365,13.365,0,0,0,3.175,6.758c2.151,2.477,4.31,4.3,7.812,5.074a2.175,2.175,0,0,1,1.7,1.63,2.144,2.144,0,0,1-1.665,2.563c-3.516.772-5.689,2.6-7.847,5.082a13.4,13.4,0,0,0-3.11,6.37Zm15.637-47.987c10.269,0,18.971,3.048,21.965,7.263v6.448c-2.994,4.215-11.7,7.264-21.965,7.264s-18.972-3.049-21.966-7.264v-6.448C4133.275,11680.543,4141.977,11677.5,4152.247,11677.5Z" fill="#fff" stroke="#035e4f" stroke-miterlimit="10" stroke-width="2" fill-rule="evenodd"/>
    </g>
  </g>
</svg>
