<svg xmlns="http://www.w3.org/2000/svg" xmlns:xlink="http://www.w3.org/1999/xlink" width="252.895" height="252.895" viewBox="0 0 252.895 252.895">
  <defs>
    <clipPath id="clip-path">
      <path id="Trazado_4688" data-name="Trazado 4688" d="M3975.056,12332.907a89.433,89.433,0,0,0-53.807-82.042c-6.221-2.7,10.725-34.644,3.865-35.877-5.171-.931-48.26-4.982-53.7-4.982-8.556,0-10.655,18.677-18.49,20.921-31.358,8.981-45.573,18.288-52.595,50.426-1.349,6.177-1.626,39.508-1.626,46.089,0,4.111-2.194,13.627-1.656,17.592a89.448,89.448,0,0,0,128.179,68.062l1.721,4.511v11.363l13.39,5.8s12.733-9.687,13.01-11.071,4.458-25.065,4.458-25.065l-5.039-6.662A89.066,89.066,0,0,0,3975.056,12332.907Z" fill="none"/>
    </clipPath>
  </defs>
  <g id="Grupo_4783" data-name="Grupo 4783" transform="translate(-674.319 -2235.135)">
    <path id="Trazado_4643" data-name="Trazado 4643" d="M3884.756,12223.307q5.359,0,10.692.525t10.59,1.571q5.256,1.044,10.384,2.6t10.08,3.606q4.95,2.051,9.677,4.576t9.182,5.5q4.456,2.977,8.6,6.377t7.932,7.188q3.789,3.791,7.189,7.934t6.377,8.6q2.978,4.456,5.5,9.182t4.577,9.679q2.05,4.951,3.606,10.078t2.6,10.386q1.046,5.256,1.57,10.589t.526,10.692q0,5.358-.526,10.692t-1.57,10.589q-1.046,5.256-2.6,10.385t-3.606,10.079q-2.05,4.953-4.577,9.678t-5.5,9.183q-2.978,4.455-6.377,8.6t-7.189,7.933q-3.789,3.79-7.932,7.189t-8.6,6.377q-4.455,2.978-9.182,5.5t-9.677,4.577q-4.952,2.052-10.08,3.607t-10.384,2.6q-5.256,1.046-10.59,1.571t-10.692.525q-5.359,0-10.692-.525t-10.59-1.571q-5.256-1.046-10.384-2.6t-10.08-3.607q-4.95-2.051-9.677-4.577t-9.182-5.5q-4.456-2.977-8.6-6.377t-7.932-7.189q-3.789-3.79-7.189-7.933t-6.377-8.6q-2.977-4.456-5.5-9.183t-4.577-9.678q-2.05-4.951-3.606-10.079t-2.6-10.385q-1.045-5.256-1.57-10.589t-.526-10.692q0-5.358.526-10.692t1.57-10.589q1.046-5.257,2.6-10.386t3.606-10.078q2.051-4.953,4.577-9.679t5.5-9.182q2.978-4.455,6.377-8.6t7.189-7.934q3.789-3.788,7.932-7.188t8.6-6.377q4.455-2.978,9.182-5.5t9.677-4.576q4.952-2.051,10.08-3.606t10.384-2.6q5.256-1.046,10.59-1.571T3884.756,12223.307Z" transform="translate(-3084.878 -9971.325)" fill="#a3bd31"/>
    <circle id="Elipse_243" data-name="Elipse 243" cx="97.353" cy="97.353" r="97.353" transform="translate(703.413 2264.603)" fill="#fff"/>
    <g id="Grupo_3122" data-name="Grupo 3122" transform="translate(-3084.878 -9971.325)">
      <g id="Grupo_3095" data-name="Grupo 3095" opacity="0.5">
        <g id="Grupo_3094" data-name="Grupo 3094">
          <g id="Grupo_3093" data-name="Grupo 3093">
            <circle id="Elipse_244" data-name="Elipse 244" cx="89.412" cy="89.412" r="89.412" transform="translate(3759.197 12332.907) rotate(-45)" fill="#f2e75a"/>
          </g>
        </g>
      </g>
      <g id="Grupo_3121" data-name="Grupo 3121">
        <g id="Grupo_3120" data-name="Grupo 3120" clip-path="url(#clip-path)">
          <g id="Grupo_3119" data-name="Grupo 3119">
            <path id="Trazado_4644" data-name="Trazado 4644" d="M3843.936,12313.166s-11.344,5.108-28.884,49.741c0,0-7.3,18.273,36.12,42.109,0,0,4.935-4.66,3.973-13.322l-20.175-22.63,16.1-20.9S3852.947,12323.077,3843.936,12313.166Z" fill="#252526"/>
            <ellipse id="Elipse_245" data-name="Elipse 245" cx="68.019" cy="7.374" rx="68.019" ry="7.374" transform="translate(3816.451 12589.747)" opacity="0.1"/>
            <g id="Grupo_3096" data-name="Grupo 3096">
              <path id="Trazado_4645" data-name="Trazado 4645" d="M3905.292,12593.134h24.726s1.452-6.577-3.708-15.253l-16.659.21S3904.858,12584.892,3905.292,12593.134Z" fill="#2c2d2f"/>
              <rect id="Rectángulo_2430" data-name="Rectángulo 2430" width="24.726" height="3.904" transform="translate(3905.18 12593.134)" fill="#1b1c1c"/>
              <path id="Trazado_4646" data-name="Trazado 4646" d="M3926.981,12586.25c0,1.692-4.176,3.063-9.326,3.063s-9.326-1.371-9.326-3.063,4.175-3.063,9.326-3.063S3926.981,12584.559,3926.981,12586.25Z" fill="#4a4b4d"/>
            </g>
            <g id="Grupo_3097" data-name="Grupo 3097">
              <path id="Trazado_4647" data-name="Trazado 4647" d="M3880.675,12576.366s1.915,9.828.47,16.768h-46.56s-1.59-10.1,18.653-10.081l12.986-8.777Z" fill="#2c2d2f"/>
              <path id="Trazado_4648" data-name="Trazado 4648" d="M3880.888,12597.038H3865l-.19-2.7a42.383,42.383,0,0,1-15.041,2.615c-4.293,0-15.3.165-15.3.165v-3.987h46.415Z" fill="#1b1c1c"/>
              <path id="Trazado_4649" data-name="Trazado 4649" d="M3851.931,12583.11s-.685,7.173-16.751,6.833C3835.18,12589.943,3837.393,12583.412,3851.931,12583.11Z" fill="#4a4b4d"/>
            </g>
            <g id="Grupo_3099" data-name="Grupo 3099">
              <g id="Grupo_3098" data-name="Grupo 3098">
                <path id="Trazado_4650" data-name="Trazado 4650" d="M3857.576,12408.776l-.868,169.1s12.652,6.356,24.581,1.4l4.558-134.613,3.522-.166,17.224,134.8s9.11,4.089,22.557-.869l-13.651-169.648Z" fill="#2c2d2f"/>
                <path id="Trazado_4651" data-name="Trazado 4651" d="M3857.041,12515.766l-.333,62.157s12.652,6.336,24.581,1.374l2.816-83.154C3877.428,12522.7,3862.919,12518.683,3857.041,12515.766Z" fill="#1b1c1c"/>
                <path id="Trazado_4652" data-name="Trazado 4652" d="M3923.046,12505.925c-8.935,24.23-20.755,8.683-25.826.017l9.373,73.355s9.11,4.13,22.557-.828Z" fill="#1b1c1c"/>
              </g>
              <path id="Trazado_4653" data-name="Trazado 4653" d="M3915.5,12408.776h-57.923l-.167,32.355a82.739,82.739,0,0,0,28.412,4.307l.026-.775,3.522-.166.1.812a100.686,100.686,0,0,0,28.5-5.844Z" fill="#1b1c1c"/>
            </g>
            <g id="Grupo_3101" data-name="Grupo 3101">
              <path id="Trazado_4654" data-name="Trazado 4654" d="M3878.036,12299.354s8.78-4.718,21.436.055l3.113,7.428h-27.112Z" fill="#b7babe"/>
              <path id="Trazado_4655" data-name="Trazado 4655" d="M3875.8,12304.957s10.852-2.435,25.919,0l-15.291,40.486Z" fill="#e4a083"/>
              <g id="Grupo_3100" data-name="Grupo 3100">
                <path id="Trazado_4656" data-name="Trazado 4656" d="M3879.96,12299l-.295,10.731,17.778.489.384-13.962A34.987,34.987,0,0,1,3879.96,12299Z" fill="#e4a083"/>
                <path id="Trazado_4657" data-name="Trazado 4657" d="M3897.827,12296.254l.3-10.754-17.779-.489-.384,13.984A34.987,34.987,0,0,0,3897.827,12296.254Z" fill="#d78b73"/>
              </g>
              <path id="Trazado_4658" data-name="Trazado 4658" d="M3893.9,12309.873a3.043,3.043,0,0,0-1.672,2.223c-.116.938.749,5.422-.661,8.242s-5.575,17.3-5.575,17.3-1.735-15.291-2.385-17.351-.434-6.073.542-7.483-.542-2.928-.542-2.928l-7.411-6.218-6.85,3.669s-2.311,32.833,14.993,76.975c0,0,20.776-44.748,25.982-76.27l-9.867-4.374Z" fill="#e7e9ed"/>
              <path id="Trazado_4659" data-name="Trazado 4659" d="M3933.054,12312.792s-14.5-3.847-26.837-6.534c-2.885,27.039-21.162,72.37-21.162,72.37s-14.089-57.26-14.32-72.37a235.752,235.752,0,0,0-26.8,6.908s1.317,11.166,10.8,50.556c0,0,2.32,47.337,1.361,69.2,2.456,2.639,11.023,4.916,19.156,3.828,7.479-1,9.616-21.324,9.616-21.324s2.726,19.9,11,20.729c8.66.873,13.431-.27,23.122-3.956.336-10.374-3.161-51.287.862-67.546C3919.861,12364.654,3929.913,12325.96,3933.054,12312.792Z" fill="#2c2d2f"/>
              <path id="Trazado_4660" data-name="Trazado 4660" d="M3904.865,12305.611l-4.411-1.956-6.554,6.218a3.109,3.109,0,0,0-.363.218l6.662,9.108S3903.851,12314.713,3904.865,12305.611Z" fill="#cacccf"/>
              <path id="Trazado_4661" data-name="Trazado 4661" d="M3883.808,12310.107c-.116-.147-.2-.234-.2-.234l-7.411-6.218-3.4,1.823a22.611,22.611,0,0,0,5.067,14.011Z" fill="#cacccf"/>
              <path id="Trazado_4662" data-name="Trazado 4662" d="M3878.036,12299.245l-4.515,4.555s-.406,5.964,4.515,12.254l5.571-6.181A17.99,17.99,0,0,1,3878.036,12299.245Z" fill="#eceff2"/>
              <path id="Trazado_4663" data-name="Trazado 4663" d="M3899.472,12299.245l4.514,4.555s.406,5.964-4.514,12.254l-5.572-6.181A17.987,17.987,0,0,0,3899.472,12299.245Z" fill="#eceff2"/>
              <path id="Trazado_4664" data-name="Trazado 4664" d="M3873.087,12304.523l-4.644,2.151s-2.055,7.969-4.236,25.538l6.056,2.819-4.333,4.236s10.179,27.431,18.753,41.528c0,0,16.817-24.726,22.89-40.559l-3.956-5.856,7.282-2.169s-.826-19.763-2.13-25.389l-3.9-2.3s-2.366,23.774-19.876,70.418C3884.989,12374.941,3872,12323.248,3873.087,12304.523Z" fill="#1b1c1c"/>
              <rect id="Rectángulo_2431" data-name="Rectángulo 2431" width="15.616" height="1.735" transform="matrix(0.998, -0.07, 0.07, 0.998, 3897.121, 12413.23)" fill="#1b1c1c"/>
              <rect id="Rectángulo_2432" data-name="Rectángulo 2432" width="1.735" height="15.616" transform="matrix(0.015, -1, 1, 0.015, 3903.224, 12337.952)" fill="#1b1c1c"/>
              <rect id="Rectángulo_2433" data-name="Rectángulo 2433" width="1.735" height="15.616" transform="translate(3858.948 12413.882) rotate(-86.098)" fill="#1b1c1c"/>
            </g>
            <g id="Grupo_3102" data-name="Grupo 3102">
              <path id="Trazado_4665" data-name="Trazado 4665" d="M3926.381,12394.372l-3.74-2.926-2.953.445c-2.711-1.033-3.835-2.911-5.205-3.193a12.109,12.109,0,0,1-3.451-1.84c-1.367,1.859,1.006,4.054,1.006,4.054-.19-.048-.379-.1-.57-.147-.468-.118-.936-.241-1.405-.36-.6-.15-1.193-.312-1.792-.46-.578-.143-1.152-.308-1.734-.441a10.349,10.349,0,0,0-1.358-.261,5.9,5.9,0,0,0-1.42.1c-.594.088-3.741,1.025-4.265,1.116-.245.042-.752.127-.752.129a2.075,2.075,0,0,0-.068,1.768c.479.988,1.881,1.045,2.6.957a12.182,12.182,0,0,0,1.79-.436,1.458,1.458,0,0,1,1.112-.111,12.2,12.2,0,0,1,1.31.369q1.425.4,2.845.811c.217.062.433.126.648.188,0,0-4.693.609-6.162.942-1.1.248-4.3,3.028-4.3,3.028-2.314,1.984,1.1,2.977,1.1,2.977a1.441,1.441,0,0,0-.453.81.9.9,0,0,0,.287.6,2.168,2.168,0,0,0,.907.54,3.441,3.441,0,0,0,1.893.211,4.3,4.3,0,0,0,.534-.154c.172-.06.342-.129.511-.2.214-.092.424-.191.635-.3a16.324,16.324,0,0,0,1.916-1.052c.074-.049.247-.223.337-.222l3.617-.024c-1.251.6-2.622,2.741-4.322,3.665a3.278,3.278,0,0,0-.735.512,1.123,1.123,0,0,0-.417.824c.025.316.31.422.523.52a3.615,3.615,0,0,0,2.183.2,4.587,4.587,0,0,0,1.131-.37,5.262,5.262,0,0,0,.781-.457,2.877,2.877,0,0,0,.326-.252c2.317-2.323,4.823-3.419,7.868-1.64,4.387,2.563,8.275-3.975,8.275-3.975Z" fill="#e4a083"/>
              <path id="Trazado_4666" data-name="Trazado 4666" d="M3934.983,12395.752l-6.624,4.79c-8.2-1.438-9.571-9.405-9.571-9.405,1.56-1.916,3.881-4,5.354-5.658C3925,12388.338,3927.529,12392.994,3934.983,12395.752Z" fill="#e7e9ed"/>
              <path id="Trazado_4667" data-name="Trazado 4667" d="M3933.054,12312.792s7.622.974,27.739,44.507c0,0,10.3,15.7-26.491,39.607,0,0-11.229-3.317-10.774-12.021l17.74-20.277-18.384-20.57S3924.637,12323.211,3933.054,12312.792Z" fill="#2c2d2f"/>
            </g>
            <g id="Grupo_3118" data-name="Grupo 3118">
              <g id="Grupo_3111" data-name="Grupo 3111">
                <path id="Trazado_4668" data-name="Trazado 4668" d="M3866.109,12256.465s-8.71-11.833-8.71-13.915,10.565-19.9,14.5-16.523,5.674,7.934,20.855,3.922c0,0,4.336-1.627,8.457,2.494s9.11,6.587,7.808,10.126c0,0,5.359,3.394,4.523,7.8s-3.655,17.011-3.655,17.011l-16.059,8Z" fill="#b55f30"/>
                <path id="Trazado_4669" data-name="Trazado 4669" d="M3903.308,12251.963c-1.735-4.7,5.711-9.395,5.711-9.395-13.809,7.45-27.907.936-38.229-4.389s-13.391,4.37-13.391,4.37c0,2.082,8.71,13.915,8.71,13.915l27.719,18.922,16.059-8s1.515-6.771,2.654-12.124C3908.905,12255.482,3904.361,12254.816,3903.308,12251.963Z" fill="#984a29"/>
                <path id="Trazado_4670" data-name="Trazado 4670" d="M3877.8,12245.781a42.286,42.286,0,0,1-7.242-3c-3.832-2.025-5.378-3.479-7.808-2.531-4.591,1.79,5.495,13.3,5.495,13.3Z" fill="#853f24"/>
                <g id="Grupo_3110" data-name="Grupo 3110">
                  <g id="Grupo_3103" data-name="Grupo 3103">
                    <path id="Trazado_4671" data-name="Trazado 4671" d="M3910.192,12247.376c-3.72,0-4.719-2.512-4.73-2.543a.325.325,0,0,1,.608-.231h0c.049.126,1.249,3.046,6.4,1.835a.326.326,0,0,1,.149.634A10.6,10.6,0,0,1,3910.192,12247.376Z" fill="#984a29"/>
                  </g>
                  <g id="Grupo_3104" data-name="Grupo 3104">
                    <path id="Trazado_4672" data-name="Trazado 4672" d="M3911.107,12252.466a8.534,8.534,0,0,1-8.473-5.622.325.325,0,0,1,.625-.181c.072.248,1.858,6.063,9.594,5.031a.325.325,0,1,1,.087.645A13.8,13.8,0,0,1,3911.107,12252.466Z" fill="#984a29"/>
                  </g>
                  <g id="Grupo_3105" data-name="Grupo 3105">
                    <path id="Trazado_4673" data-name="Trazado 4673" d="M3900.452,12246.218c-13.411,0-24.382-6.2-28.214-10.188-5.378-5.6-9.576-1.73-9.753-1.562a.325.325,0,1,1-.448-.471c.047-.045,4.849-4.481,10.671,1.583,3.829,3.988,14.961,10.227,28.511,9.981a.325.325,0,0,1,.012.65C3900.97,12246.216,3900.711,12246.218,3900.452,12246.218Z" fill="#984a29"/>
                  </g>
                  <g id="Grupo_3106" data-name="Grupo 3106">
                    <path id="Trazado_4674" data-name="Trazado 4674" d="M3905.089,12244.927h-.029c-23.109-2.025-30.077-10.329-33.053-13.874a4.59,4.59,0,0,0-3.247-1.883,4.533,4.533,0,0,0-3.053,1.2.325.325,0,1,1-.457-.463,5.126,5.126,0,0,1,3.539-1.388,5.207,5.207,0,0,1,3.716,2.114c2.924,3.484,9.771,11.643,32.612,13.646a.325.325,0,0,1-.028.648Z" fill="#984a29"/>
                  </g>
                  <g id="Grupo_3107" data-name="Grupo 3107">
                    <path id="Trazado_4675" data-name="Trazado 4675" d="M3907.078,12243.85a.31.31,0,0,1-.043,0c-23.078-3-29.656-12.344-29.924-12.739a.325.325,0,1,1,.538-.366c.065.095,6.721,9.5,29.47,12.461a.325.325,0,0,1-.041.647Z" fill="#984a29"/>
                  </g>
                  <g id="Grupo_3108" data-name="Grupo 3108">
                    <path id="Trazado_4676" data-name="Trazado 4676" d="M3907.921,12243.3a.316.316,0,0,1-.089-.013c-19.251-5.507-18.7-11.894-18.672-12.163a.326.326,0,0,1,.647.075c-.007.079-.366,6.149,18.2,11.463a.325.325,0,0,1-.09.638Z" fill="#984a29"/>
                  </g>
                  <g id="Grupo_3109" data-name="Grupo 3109">
                    <path id="Trazado_4677" data-name="Trazado 4677" d="M3908.545,12242.785a.312.312,0,0,1-.111-.02c-10.909-3.949-9.573-11.369-9.559-11.443a.325.325,0,0,1,.638.125c-.054.283-1.218,6.956,9.143,10.707a.325.325,0,0,1-.111.631Z" fill="#984a29"/>
                  </g>
                </g>
              </g>
              <g id="Grupo_3117" data-name="Grupo 3117">
                <g id="Grupo_3112" data-name="Grupo 3112">
                  <path id="Trazado_4678" data-name="Trazado 4678" d="M3907.957,12265.627l-2.794,2.356c-.586-1.4-1.22-7.654-2-8.958-3.832-6.412-1.446-11.742-1.446-11.742-16.411,2.148-21.193-2.089-26.171-1.538-6.836.757-8.294,4.824-8.294,4.824-1.726,6.435-1.215,9.708-1.215,9.708-.013,7.625-.172,20.572,5.069,28.308,2.211,3.263,5.006,6,9.694,6.735,20.424,3.2,25.673-16.783,25.673-16.783s6.4,1.705,7.707-7.73C3915.261,12262.991,3907.957,12265.627,3907.957,12265.627Z" fill="#e4a083"/>
                  <path id="Trazado_4679" data-name="Trazado 4679" d="M3880.968,12249.447c8.6,2.949,16.339.025,18.725-.79a10.375,10.375,0,0,0,2.742,9.006,13.079,13.079,0,0,1-.718-10.38c-16.411,2.148-21.193-2.089-26.171-1.538-6.836.757-8.294,4.824-8.294,4.824-.079.3-.15.579-.22.861C3869.723,12249.778,3875.011,12247.405,3880.968,12249.447Z" fill="#d78b73"/>
                  <path id="Trazado_4680" data-name="Trazado 4680" d="M3904.921,12276.182c-1.735,5.062-8.206,17.532-22.162,16.773-7.552-.411-11.385-5.394-13.9-8.872a20.517,20.517,0,0,0,2.249,4.5c2.211,3.263,5.006,6,9.694,6.735,20.424,3.2,25.673-16.783,25.673-16.783s4.9,1.368,7.069-4.875C3909.731,12280,3904.921,12276.182,3904.921,12276.182Z" fill="#d78b73"/>
                </g>
                <path id="Trazado_4681" data-name="Trazado 4681" d="M3877.253,12268.091c-.017,1.756-1.083,3.1-2.383,2.993s-2.337-1.613-2.32-3.371,1.084-3.1,2.383-2.994S3877.271,12266.333,3877.253,12268.091Z" fill="#4a332b"/>
                <path id="Trazado_4682" data-name="Trazado 4682" d="M3895.106,12267.571c-.017,1.757-1.084,3.1-2.384,2.994s-2.338-1.614-2.32-3.37,1.085-3.1,2.383-3S3895.124,12265.814,3895.106,12267.571Z" fill="#4a332b"/>
                <g id="Grupo_3113" data-name="Grupo 3113">
                  <path id="Trazado_4683" data-name="Trazado 4683" d="M3883.583,12278.063c-3.949,1.6-6.078-.263-6.236-2.131a2.679,2.679,0,0,1,1.754-2.755c2.407-.939,4.1-4.64,4.12-4.678h0a7.939,7.939,0,0,1-3.9,5.824c-.66.384-1.071.789-1.021,1.391.089,1.047,1.6,2.611,5.283,2.349Z" fill="#c47b66"/>
                </g>
                <g id="Grupo_3114" data-name="Grupo 3114">
                  <path id="Trazado_4684" data-name="Trazado 4684" d="M3869.228,12261l-.173-1.9a20.053,20.053,0,0,1,9.117-1.159l.042,2.976A25.171,25.171,0,0,0,3869.228,12261Z" fill="#984a29"/>
                </g>
                <g id="Grupo_3115" data-name="Grupo 3115">
                  <path id="Trazado_4685" data-name="Trazado 4685" d="M3898.349,12261.231c-3.312-1.417-9.227-.765-9.284-.775l.205-2.765c.236.034,5.6-.593,9.365,1.828Z" fill="#984a29"/>
                </g>
                <g id="Grupo_3116" data-name="Grupo 3116">
                  <path id="Trazado_4686" data-name="Trazado 4686" d="M3890.449,12280.809a39.631,39.631,0,0,1-14.343,0s1.223,6.357,7.171,6.345A7.18,7.18,0,0,0,3890.449,12280.809Z" fill="#fff"/>
                </g>
              </g>
            </g>
            <path id="Trazado_4687" data-name="Trazado 4687" d="M3868,12395.147s-11.693-4.052-11.735-4.092l8.439.252a3.068,3.068,0,0,0,2.971-1.515,1.23,1.23,0,0,0-.245-1.564l-11.444-.7a3.09,3.09,0,0,0-2.668,2.081c-.036.108-1.157-1.036-4.176,11.792-.876,3.722,3.34,5.133,3.34,5.133,3.5,1.131,4.641-.723,5.073-2.088l3.633,1.531a4.689,4.689,0,0,0,3.011.238c1.123-.589,1.035-1.124,1.035-1.124s-9.257-5.365-9.214-5.566l7.537,2.225a3.426,3.426,0,0,0,3.4-.024c.944-.677,1.023-1.156.843-1.371l-10.059-4.357,7.158,1.576a3.229,3.229,0,0,0,2.781-.895A1.932,1.932,0,0,0,3868,12395.147Z" fill="#e4a083"/>
          </g>
        </g>
      </g>
    </g>
  </g>
</svg>
