<svg xmlns="http://www.w3.org/2000/svg" width="308.671" height="131.314" viewBox="0 0 308.671 131.314"><g transform="translate(-2343.417 -690.502)"><g opacity="0.9"><path d="M2514.9,767.357a68.9,68.9,0,0,1,15.293-1.481c4.767,0,10.648.588,14.989,3.347a13.74,13.74,0,0,1,6.774,12.393,19.04,19.04,0,0,1-7.768,15.84c-4.564,3.449-11.013,5.031-17.889,5.031-1.866,0-3.448-.244-4.422-.3l-3.59,18.742h-13.508Zm9.046,23.609a20.313,20.313,0,0,0,4.117.365c6.065,0,10-3.975,10-8.478,0-4.685-3.428-6.024-7.2-6.024a24.661,24.661,0,0,0-4.259.284Z" fill="#f91b26"/><path d="M2607.954,788.35c0,10.1-3.489,19.511-9.7,25.536-5.213,5.03-12.332,7.93-20.81,7.93-14.2,0-22.818-9.837-22.818-23.021,0-9.979,3.61-19.451,9.958-25.495a29.445,29.445,0,0,1,20.648-7.951C2599.557,765.349,2607.954,774.659,2607.954,788.35Zm-32.371-7.972c-3.956,3.956-6.187,11.906-6.187,18.072,0,7.16,3.266,11.866,10.081,11.866a10.859,10.859,0,0,0,7.667-3.367c3.914-3.915,6.044-12.474,6.044-18.255,0-6.429-2.434-11.845-9.553-11.845A11.268,11.268,0,0,0,2575.583,780.378Z" fill="#f91b26"/><path d="M2613.408,806.442a27.878,27.878,0,0,0,13.468,3.448c3.813.04,7.282-1.42,7.282-4.665,0-2.718-2.434-4.239-7.12-6.693-5.293-2.8-11.52-7.059-11.52-14.665,0-11.6,10.182-18.478,22.858-18.478,7.241,0,11.136,1.38,13.712,2.617l-4.26,11.581a23.182,23.182,0,0,0-10.466-2.312c-4.908,0-7.241,1.968-7.241,4.3,0,2.637,3.611,4.381,7.769,6.734,6.612,3.407,11.013,7.89,11.013,14.38,0,13.326-11.236,19.087-23.345,19.087-8.519,0-14.016-2.13-16.713-3.956Z" fill="#f91b26"/></g><g opacity="0.9"><path d="M2351.287,692.425a32.86,32.86,0,0,1,7.289-.705c2.272,0,5.075.28,7.143,1.594a6.55,6.55,0,0,1,3.229,5.907,9.075,9.075,0,0,1-3.7,7.549,14.225,14.225,0,0,1-8.526,2.4c-.889,0-1.643-.117-2.107-.145l-1.711,8.931h-6.438Zm4.312,11.252a9.7,9.7,0,0,0,1.962.174c2.89,0,4.765-1.9,4.765-4.041,0-2.233-1.633-2.871-3.431-2.871a11.658,11.658,0,0,0-2.03.136Z"/><path d="M2368.661,717.954l5.249-27.452h6.592l-5.249,27.452Z"/><path d="M2391.9,717.954c.068-1.092.136-2.184.174-3.277h-.1a6.734,6.734,0,0,1-5.984,3.7c-3.422,0-5.877-2.639-5.877-6.767,0-6.312,4-13.108,13.813-13.108a23.747,23.747,0,0,1,6.777,1.054l-2.03,9.956a49,49,0,0,0-.745,8.439Zm1.412-14.374a7.2,7.2,0,0,0-1.218-.116c-3.064,0-5.1,4.137-5.1,6.921,0,1.76.764,2.707,1.9,2.707,1.218,0,2.813-1.208,3.644-5.694Z"/><path d="M2401.685,717.954l2.359-12.547c.5-2.532.812-4.717,1.092-6.476h5.8l-.3,2.909h.078a7.819,7.819,0,0,1,6.476-3.335c3.471,0,4.911,2.166,4.911,5.172a23.335,23.335,0,0,1-.319,3.248l-2.1,11.029h-6.592l1.943-10.323a11.615,11.615,0,0,0,.193-2c0-1.093-.338-1.847-1.431-1.847-1.6,0-3.228,2.078-3.982,6.061l-1.537,8.11Z"/><path d="M2393.122,776.19l-3.381,17.759a51.371,51.371,0,0,0-.854,7.246h-5.494l.159-2.545h-.071a6.3,6.3,0,0,1-5.423,2.932c-2.774,0-5.433-2.139-5.433-6.63,0-5.969,4.235-11.471,10.962-11.471a6.572,6.572,0,0,1,2.06.343l1.5-7.634Zm-8.294,12.371a2.667,2.667,0,0,0-1.673-.546c-2.58,0-4.279,3.134-4.279,5.916,0,2.087.986,2.835,2.008,2.835,1.127,0,2.509-1.1,3.143-4.164Z"/><path d="M2407.586,800.2a15.987,15.987,0,0,1-6.788,1.364c-5.1,0-7.871-2.658-7.871-7.474,0-5.283,3.8-10.609,10.345-10.609,3.61,0,6.427,1.98,6.436,5.52,0,4.331-3.944,6.119-11.1,5.907a2.169,2.169,0,0,0,.634,1.136,4.628,4.628,0,0,0,3.081.9,11.407,11.407,0,0,0,4.939-1.056Zm-5.027-12.379a3.334,3.334,0,0,0-3.39,2.747c3.654.035,4.94-.484,4.94-1.594C2404.109,788.349,2403.545,787.821,2402.559,787.821Z"/><path d="M2418.028,795.983a12.582,12.582,0,0,0,4.851,1.25c1.2-.009,1.708-.458,1.708-1.039,0-.634-.537-1.109-2.052-1.8-1.989-.924-3.891-2.368-3.891-4.675,0-3.83,3.381-6.233,8.179-6.233a10.853,10.853,0,0,1,4.807.906l-1.373,4.182a9.366,9.366,0,0,0-3.663-.739c-1.153,0-1.893.352-1.893,1.056,0,.485.652.995,1.99,1.594,1.867.907,4.147,2.21,4.147,4.807,0,4.1-3.539,6.277-8.523,6.277a10.618,10.618,0,0,1-5.7-1.426Z"/><path d="M2443.736,801.2c.061-.995.123-1.99.158-2.985h-.088a6.133,6.133,0,0,1-5.45,3.372c-3.117,0-5.353-2.4-5.353-6.163,0-5.749,3.645-11.938,12.581-11.938a21.615,21.615,0,0,1,6.172.959l-1.849,9.069a44.733,44.733,0,0,0-.678,7.686Zm1.285-13.092a6.461,6.461,0,0,0-1.109-.106c-2.791,0-4.649,3.768-4.649,6.3,0,1.6.7,2.465,1.726,2.465,1.109,0,2.562-1.1,3.319-5.186Z"/><path d="M2452.46,801.2l4.781-25.005h6l-4.781,25.005Z"/><path d="M2481.937,783.868l-2.149,11.428c-.457,2.307-.739,4.3-1,5.9h-5.282l.264-2.624-.07-.017a7.431,7.431,0,0,1-5.9,3.028c-3,0-4.394-1.787-4.394-4.772a17.975,17.975,0,0,1,.353-3.31l1.822-9.632h6.005l-1.717,9.112a13.938,13.938,0,0,0-.247,2.184c0,.819.335,1.567,1.312,1.567,1.532,0,2.914-1.893,3.548-5.2l1.444-7.668Z"/><path d="M2503.7,776.19l-3.381,17.759a51.479,51.479,0,0,0-.854,7.246h-5.494l.159-2.545h-.07a6.3,6.3,0,0,1-5.424,2.932c-2.773,0-5.432-2.139-5.432-6.63,0-5.969,4.235-11.471,10.961-11.471a6.569,6.569,0,0,1,2.06.343l1.5-7.634Zm-8.293,12.371a2.67,2.67,0,0,0-1.673-.546c-2.58,0-4.279,3.134-4.279,5.916,0,2.087.986,2.835,2.007,2.835,1.127,0,2.509-1.1,3.143-4.164Z"/><path d="M2377.756,738.107c0,6.505-2.246,12.565-6.243,16.444a18.833,18.833,0,0,1-13.4,5.107c-9.143,0-14.7-6.334-14.7-14.824,0-6.427,2.325-12.526,6.414-16.419a18.961,18.961,0,0,1,13.3-5.12C2372.349,723.295,2377.756,729.29,2377.756,738.107Zm-20.846-5.133c-2.547,2.547-3.984,7.667-3.984,11.638,0,4.61,2.1,7.641,6.492,7.641a6.989,6.989,0,0,0,4.937-2.169c2.521-2.52,3.892-8.032,3.892-11.755,0-4.14-1.567-7.628-6.152-7.628A7.256,7.256,0,0,0,2356.91,732.974Z"/><path d="M2394.9,721.989l-2.86,13.806h.1a10.515,10.515,0,0,1,7.445-2.991c5.238,0,7.746,4.271,7.746,8.869,0,8.516-5.368,17.985-17.4,17.985-6.779,0-9.705-2.912-9.666-7.432a23.863,23.863,0,0,1,.614-5l5.094-25.235Zm-5.133,25.875a11.108,11.108,0,0,0-.274,2.717,2.264,2.264,0,0,0,2.364,2.4c3.4,0,6.126-5.342,6.126-9.3,0-2.194-.9-3.683-2.7-3.683-2.233,0-4.415,2.22-5.146,6.034Z"/><path d="M2409.032,759.084l7.092-37.095h8.908l-7.093,37.095Z"/><path d="M2423.685,759.084l4.872-25.7h8.908l-4.872,25.7Zm6.074-32.432a4.806,4.806,0,0,1,4.95-4.833,4,4,0,0,1,4.3,4.128c0,3.095-2.39,4.806-5.093,4.806A3.921,3.921,0,0,1,2429.759,726.652Z"/><path d="M2440.65,761.683a18.132,18.132,0,0,0,6.714,1.28c3.5,0,6.087-1.463,6.948-5.812l.288-1.45h-.1a8.226,8.226,0,0,1-6.675,3.1c-5.094,0-8.385-4.036-8.412-9.273-.052-8.347,5.852-16.719,17.568-16.719a26.175,26.175,0,0,1,10.044,1.789l-3.84,21.147c-.823,4.415-2.272,8.817-5.5,11.35-2.874,2.234-6.7,2.913-10.358,2.913-3.553,0-6.831-.6-8.634-1.567Zm16.745-21.826a6.338,6.338,0,0,0-2.063-.287c-3.775,0-6.531,4.4-6.531,8.634,0,2.481,1.2,3.8,2.86,3.8,1.881,0,3.814-1.92,4.559-5.956Z"/><path d="M2484.717,759.084c.091-1.476.183-2.952.235-4.428h-.131a9.1,9.1,0,0,1-8.085,5c-4.624,0-7.941-3.565-7.941-9.143,0-8.529,5.407-17.711,18.665-17.711a32.064,32.064,0,0,1,9.156,1.424l-2.743,13.453a66.248,66.248,0,0,0-1.006,11.4Zm1.907-19.423a9.723,9.723,0,0,0-1.646-.156c-4.141,0-6.9,5.59-6.9,9.352,0,2.377,1.031,3.657,2.56,3.657,1.645,0,3.8-1.633,4.924-7.693Z"/><path d="M2513.657,726.077l-1.345,7.3h5.2l-1.306,6.753h-5.212l-1.45,7.1a17.078,17.078,0,0,0-.392,2.9c0,1.136.471,2.011,2.09,2.011.614,0,1.384,0,2.077-.065l-1.15,6.962a16.676,16.676,0,0,1-4.911.613c-4.832,0-7.236-2.3-7.236-5.76a22.771,22.771,0,0,1,.536-4.741l1.763-9.025H2499.2l1.267-6.753h3.135l.993-5.238Z"/><path d="M2544.677,743.358c0,9.979-6.792,16.3-15.792,16.3-6.583,0-11.272-4-11.272-10.658,0-9.051,6.361-16.2,15.8-16.2C2540.314,732.8,2544.677,737.31,2544.677,743.358Zm-17.842,5.5c0,2.507,1.149,4.062,3.3,4.062,3.645,0,5.317-5.787,5.317-9.47,0-2.129-.889-3.9-3.214-3.9C2528.389,739.544,2526.822,745.7,2526.835,748.857Z"/><path d="M2546.554,759.084l2.8-14.76c.758-4.088,1.058-8.8,1.319-10.945h7.681c-.105,1.711-.209,3.422-.366,5.133h.17c1.868-3.37,4.767-5.708,8.32-5.708.509,0,.993.013,1.476.039l-1.737,8.66c-.34-.013-.771-.026-1.189-.026-5.237,0-7.027,4.153-7.9,8.816l-1.659,8.791Z"/><path d="M2567.019,759.084l4.872-25.7h8.908l-4.872,25.7Zm6.074-32.432a4.806,4.806,0,0,1,4.95-4.833,4,4,0,0,1,4.3,4.128c0,3.095-2.39,4.806-5.093,4.806A3.921,3.921,0,0,1,2573.093,726.652Z"/><path d="M2609.846,743.358c0,9.979-6.792,16.3-15.792,16.3-6.583,0-11.272-4-11.272-10.658,0-9.051,6.361-16.2,15.8-16.2C2605.483,732.8,2609.846,737.31,2609.846,743.358Zm-17.842,5.5c0,2.507,1.149,4.062,3.3,4.062,3.645,0,5.317-5.787,5.317-9.47,0-2.129-.889-3.9-3.214-3.9C2593.558,739.544,2591.991,745.7,2592,748.857Z"/></g></g></svg>