<svg xmlns="http://www.w3.org/2000/svg" width="152.443" height="152.444" viewBox="0 0 152.443 152.444">
  <g id="Grupo_4790" data-name="Grupo 4790" transform="translate(-275.765 -861.934)">
    <path id="Trazado_1845" data-name="Trazado 1845" d="M6499.221,5680.076h.042v20.915h4.592v-27.322h-3.667l-4.23,4.956v4.794H6496Z" transform="translate(-6150.434 -4789.423)" fill="#fff"/>
    <path id="Trazado_1847" data-name="Trazado 1847" d="M6502.421,5651.357q3.744,0,7.471.367t7.4,1.1q3.672.731,7.256,1.817t7.042,2.52q3.461,1.434,6.762,3.2t6.416,3.845q3.114,2.08,6.008,4.456t5.542,5.023q2.649,2.647,5.024,5.542t4.456,6.008q2.079,3.114,3.845,6.416t3.2,6.762q1.434,3.458,2.52,7.043t1.818,7.256q.73,3.672,1.1,7.4t.367,7.471q0,3.744-.367,7.471t-1.1,7.4q-.731,3.672-1.818,7.256t-2.52,7.043q-1.433,3.459-3.2,6.762t-3.845,6.415q-2.08,3.114-4.456,6.008t-5.024,5.542q-2.648,2.649-5.542,5.024t-6.008,4.456q-3.113,2.08-6.416,3.845t-6.762,3.2q-3.458,1.434-7.042,2.52t-7.256,1.818q-3.674.731-7.4,1.1t-7.471.368q-3.746,0-7.471-.368t-7.4-1.1q-3.673-.73-7.256-1.818t-7.043-2.52q-3.459-1.433-6.762-3.2t-6.416-3.845q-3.113-2.081-6.008-4.456t-5.542-5.024q-2.648-2.646-5.023-5.542t-4.456-6.008q-2.08-3.112-3.846-6.415t-3.2-6.762q-1.433-3.461-2.52-7.043t-1.817-7.256q-.731-3.672-1.1-7.4t-.367-7.471q0-3.744.367-7.471t1.1-7.4q.73-3.674,1.817-7.256t2.52-7.043q1.433-3.459,3.2-6.762t3.846-6.416q2.081-3.112,4.456-6.008t5.023-5.542q2.648-2.648,5.542-5.023t6.008-4.456q3.114-2.081,6.416-3.845t6.762-3.2q3.459-1.433,7.043-2.52t7.256-1.817q3.672-.73,7.4-1.1T6502.421,5651.357Z" transform="translate(-6150.434 -4789.423)" fill="#a3bd31"/>
    <circle id="Elipse_106" data-name="Elipse 106" cx="71.597" cy="71.597" r="71.597" transform="translate(281.011 867.18)" fill="#fff"/>
    <g id="Grupo_1131" data-name="Grupo 1131" transform="translate(-6150.434 -4789.423)" opacity="0.2">
      <ellipse id="Elipse_112" data-name="Elipse 112" cx="65.13" cy="65.352" rx="65.13" ry="65.352" transform="translate(6437.911 5662.626)" fill="#f7ec45"/>
    </g>
    <g id="Grupo_1133" data-name="Grupo 1133" transform="translate(-6150.434 -4789.423)">
      <rect id="Rectángulo_477" data-name="Rectángulo 477" width="6.631" height="4.698" rx="1.061" transform="translate(6475.04 5700.543)" fill="none" stroke="#0f231a" stroke-linecap="round" stroke-linejoin="round" stroke-width="3" opacity="0.9"/>
      <rect id="Rectángulo_478" data-name="Rectángulo 478" width="6.631" height="4.698" rx="1.061" transform="translate(6486.614 5700.543)" fill="none" stroke="#0f231a" stroke-linecap="round" stroke-linejoin="round" stroke-width="3" opacity="0.9"/>
      <line id="Línea_665" data-name="Línea 665" x2="4.944" transform="translate(6481.67 5702.271)" fill="none" stroke="#0f231a" stroke-linecap="round" stroke-linejoin="round" stroke-width="3" opacity="0.9"/>
      <line id="Línea_666" data-name="Línea 666" x2="3.379" y2="0.977" transform="translate(6470.958 5701.078)" fill="none" stroke="#0f231a" stroke-linecap="round" stroke-linejoin="round" stroke-width="3" opacity="0.9"/>
      <line id="Línea_667" data-name="Línea 667" y1="1" x2="3.304" transform="translate(6493.948 5701.055)" fill="none" stroke="#0f231a" stroke-linecap="round" stroke-linejoin="round" stroke-width="3" opacity="0.9"/>
      <path id="Trazado_1870" data-name="Trazado 1870" d="M6496.665,5697.168a62.434,62.434,0,0,1,1.032,9.705,12.318,12.318,0,0,1-2.8,7.8,7.518,7.518,0,0,0-1.575,5.615l.108.928a2.458,2.458,0,0,0,1.068,1.754" fill="none" stroke="#0f231a" stroke-linecap="round" stroke-linejoin="round" stroke-width="3" opacity="0.9"/>
      <path id="Trazado_1871" data-name="Trazado 1871" d="M6484.1,5674.907c6.591,0,13.5,3.666,16.256,9.834a29.317,29.317,0,0,1,2.052,8.646c.484,4.164.7,8.127,2.693,11.884" fill="none" stroke="#0f231a" stroke-linecap="round" stroke-linejoin="round" stroke-width="3" opacity="0.9"/>
      <path id="Trazado_1872" data-name="Trazado 1872" d="M6484.1,5674.907c-6.591,0-13.5,3.666-16.256,9.834a29.287,29.287,0,0,0-2.052,8.646c-.484,4.164-.7,8.127-2.693,11.884a8.994,8.994,0,0,1-7.218,5.094,13.315,13.315,0,0,0,13.7,5.786" fill="none" stroke="#0f231a" stroke-linecap="round" stroke-linejoin="round" stroke-width="3" opacity="0.9"/>
      <path id="Trazado_1873" data-name="Trazado 1873" d="M6473.711,5722.966l10.394,7.76,6.826-5.1" fill="none" stroke="#0f231a" stroke-linecap="round" stroke-linejoin="round" stroke-width="3" opacity="0.9"/>
      <path id="Trazado_1874" data-name="Trazado 1874" d="M6496.67,5697.042a9.75,9.75,0,0,1-8.466-2.783c-1.323-1.364-2.209-3.088-3.405-4.564l-.036-.044a6.021,6.021,0,0,0-7.085-1.63h0a10.032,10.032,0,0,0-5.827,7.389,70.906,70.906,0,0,0-1.338,11.463,12.322,12.322,0,0,0,2.678,7.645,7.838,7.838,0,0,1,1.7,5.766l-.108.928a2.458,2.458,0,0,1-1.757,2.076l-11.286,3.277a10.662,10.662,0,0,0-4.376,2.3,13.026,13.026,0,0,0-4.464,7.465v20.731a5.17,5.17,0,0,0,5.17,5.17H6495.7a5.17,5.17,0,0,0,5.171-5.17v-33.442a7.344,7.344,0,0,1,7.345-7.345h26.608" fill="none" stroke="#0f231a" stroke-linecap="round" stroke-linejoin="round" stroke-width="3" opacity="0.9"/>
      <circle id="Elipse_113" data-name="Elipse 113" cx="7.329" cy="7.329" r="7.329" transform="translate(6526.557 5750.869)" fill="none" stroke="#0f231a" stroke-linecap="round" stroke-linejoin="round" stroke-width="3" opacity="0.9"/>
      <path id="Trazado_1875" data-name="Trazado 1875" d="M6533.886,5758.2a3.1,3.1,0,0,1,2.679,1.555,3.07,3.07,0,0,0,.432-1.555,3.111,3.111,0,1,0-6.222,0,3.08,3.08,0,0,0,.432,1.555A3.1,3.1,0,0,1,6533.886,5758.2Z" fill="#6db1cc"/>
      <path id="Trazado_1876" data-name="Trazado 1876" d="M6533.886,5765.533l-7.033,7.032-.857-5.535-5.535-.857,6.292-6.292" fill="none" stroke="#0f231a" stroke-linecap="round" stroke-linejoin="round" stroke-width="3" opacity="0.9"/>
      <path id="Trazado_1877" data-name="Trazado 1877" d="M6533.886,5765.533l7.032,7.032.857-5.535,5.535-.857-6.293-6.283" fill="none" stroke="#0f231a" stroke-linecap="round" stroke-linejoin="round" stroke-width="3" opacity="0.9"/>
      <line id="Línea_668" data-name="Línea 668" x2="19.401" transform="translate(6510.248 5731.632)" fill="none" stroke="#0f231a" stroke-linecap="round" stroke-linejoin="round" stroke-width="3" opacity="0.9"/>
      <line id="Línea_669" data-name="Línea 669" y1="16.573" transform="translate(6534.826 5730.145)" fill="none" stroke="#0f231a" stroke-linecap="round" stroke-linejoin="round" stroke-width="3" opacity="0.9"/>
      <path id="Trazado_1878" data-name="Trazado 1878" d="M6534.825,5716.271a6.035,6.035,0,0,1,4.288,10.283h-31.762a6.047,6.047,0,0,0,1.576-5.686" fill="none" stroke="#0f231a" stroke-linecap="round" stroke-linejoin="round" stroke-width="3" opacity="0.9"/>
      <line id="Línea_670" data-name="Línea 670" y1="8.158" transform="translate(6521.36 5701.806)" fill="none" stroke="#0f231a" stroke-linecap="round" stroke-linejoin="round" stroke-width="3" opacity="0.9"/>
      <g id="Grupo_1132" data-name="Grupo 1132" opacity="0.9">
        <line id="Línea_671" data-name="Línea 671" y1="7.459" x2="3.89" transform="translate(6527.792 5702.504)" fill="none" stroke="#0f231a" stroke-linecap="round" stroke-linejoin="round" stroke-width="3"/>
        <line id="Línea_672" data-name="Línea 672" x1="3.89" y1="7.459" transform="translate(6511.04 5702.504)" fill="none" stroke="#0f231a" stroke-linecap="round" stroke-linejoin="round" stroke-width="3"/>
      </g>
      <line id="Línea_673" data-name="Línea 673" x2="15.699" transform="translate(6505.779 5755.494)" fill="none" stroke="#0f231a" stroke-linecap="round" stroke-linejoin="round" stroke-width="3" opacity="0.9"/>
      <line id="Línea_674" data-name="Línea 674" y2="20.143" transform="translate(6484.105 5730.726)" fill="none" stroke="#0f231a" stroke-linecap="round" stroke-linejoin="round" stroke-width="3" opacity="0.9"/>
      <path id="Trazado_1879" data-name="Trazado 1879" d="M6462.912,5730.615l-.135.039-.137.03a6.436,6.436,0,0,0-2.6,1.435,8.789,8.789,0,0,0-2.927,4.667v20.271a.954.954,0,0,0,.954.954H6463v-8.117a16.391,16.391,0,0,1,10.766-15.4l5.6-2.045-6.381-4.764Z" fill="#6db1cc"/>
    </g>
  </g>
</svg>
