<svg xmlns="http://www.w3.org/2000/svg" width="152.443" height="152.444" viewBox="0 0 152.443 152.444">
  <g id="Grupo_4792" data-name="Grupo 4792" transform="translate(-1005.017 -861.934)">
    <path id="Trazado_1851" data-name="Trazado 1851" d="M7231.672,5651.357q3.746,0,7.471.367t7.4,1.1q3.674.731,7.256,1.817t7.043,2.52q3.459,1.434,6.762,3.2t6.416,3.845q3.113,2.08,6.008,4.456t5.542,5.023q2.648,2.647,5.023,5.542t4.456,6.008q2.081,3.114,3.846,6.416t3.2,6.762q1.433,3.458,2.52,7.043t1.817,7.256q.73,3.672,1.1,7.4t.367,7.471q0,3.744-.367,7.471t-1.1,7.4q-.731,3.672-1.817,7.256t-2.52,7.043q-1.433,3.459-3.2,6.762t-3.846,6.415q-2.08,3.114-4.456,6.008t-5.023,5.542q-2.647,2.649-5.542,5.024t-6.008,4.456q-3.114,2.08-6.416,3.845t-6.762,3.2q-3.46,1.434-7.043,2.52t-7.256,1.818q-3.672.731-7.4,1.1t-7.471.368q-3.744,0-7.471-.368t-7.4-1.1q-3.672-.73-7.256-1.818T7202.5,5798q-3.459-1.433-6.761-3.2t-6.416-3.845q-3.114-2.081-6.008-4.456t-5.543-5.024q-2.648-2.646-5.023-5.542t-4.456-6.008q-2.08-3.112-3.845-6.415t-3.2-6.762q-1.434-3.461-2.52-7.043t-1.818-7.256q-.73-3.672-1.1-7.4t-.367-7.471q0-3.744.367-7.471t1.1-7.4q.73-3.674,1.818-7.256t2.52-7.043q1.433-3.459,3.2-6.762t3.845-6.416q2.081-3.112,4.456-6.008t5.023-5.542q2.649-2.648,5.543-5.023t6.008-4.456q3.112-2.081,6.416-3.845t6.761-3.2q3.461-1.433,7.043-2.52t7.256-1.817q3.672-.73,7.4-1.1T7231.672,5651.357Z" transform="translate(-6150.434 -4789.423)" fill="#a3bd31"/>
    <circle id="Elipse_108" data-name="Elipse 108" cx="71.597" cy="71.597" r="71.597" transform="translate(1010.262 867.18)" fill="#fff"/>
    <g id="Grupo_1122" data-name="Grupo 1122" transform="translate(-6150.434 -4789.423)" opacity="0.2">
      <ellipse id="Elipse_110" data-name="Elipse 110" cx="65.13" cy="65.352" rx="65.13" ry="65.352" transform="translate(7167.542 5663.631)" fill="#f7ec45"/>
    </g>
    <g id="Grupo_1129" data-name="Grupo 1129" transform="translate(-6150.434 -4789.423)">
      <path id="Trazado_1852" data-name="Trazado 1852" d="M7237.9,5695.935v-5.186l-12.041-11.983h-31.491v45.37" fill="none" stroke="#0f231a" stroke-linecap="round" stroke-linejoin="round" stroke-width="3" opacity="0.9"/>
      <g id="Grupo_1123" data-name="Grupo 1123">
        <path id="Trazado_1853" data-name="Trazado 1853" d="M7227.886,5701.3h-23.5a1.406,1.406,0,0,1,0-2.812h23.5a1.406,1.406,0,0,1,0,2.812Z" fill="#6db1cc"/>
      </g>
      <g id="Grupo_1124" data-name="Grupo 1124">
        <path id="Trazado_1854" data-name="Trazado 1854" d="M7227.654,5707.728h-23.5a1.406,1.406,0,0,1,0-2.812h23.5a1.406,1.406,0,1,1,0,2.812Z" fill="#6db1cc"/>
      </g>
      <g id="Grupo_1125" data-name="Grupo 1125">
        <path id="Trazado_1855" data-name="Trazado 1855" d="M7228,5694.876h-23.5a1.406,1.406,0,1,1,0-2.812H7228a1.406,1.406,0,1,1,0,2.812Z" fill="#6db1cc"/>
      </g>
      <g id="Grupo_1126" data-name="Grupo 1126" opacity="0.9">
        <path id="Trazado_1856" data-name="Trazado 1856" d="M7266.16,5712.625a57.624,57.624,0,0,1,.949,8.93,11.336,11.336,0,0,1-2.576,7.174,6.914,6.914,0,0,0-1.45,5.167l.1.854a2.259,2.259,0,0,0,.982,1.614,2.232,2.232,0,0,0,.634.3l10.386,3.016a9.8,9.8,0,0,1,4.027,2.113,11.99,11.99,0,0,1,4.108,6.87l2.43,18.424" fill="none" stroke="#0f231a" stroke-linecap="round" stroke-linejoin="round" stroke-width="3"/>
        <path id="Trazado_1857" data-name="Trazado 1857" d="M7254.6,5692.14c6.065,0,12.419,3.374,14.959,9.049a26.98,26.98,0,0,1,1.889,7.956c.445,3.833.641,7.479,2.478,10.937a8.276,8.276,0,0,0,6.641,4.687,12.249,12.249,0,0,1-12.606,5.324" fill="none" stroke="#0f231a" stroke-linecap="round" stroke-linejoin="round" stroke-width="3"/>
        <path id="Trazado_1858" data-name="Trazado 1858" d="M7254.6,5692.14c-6.065,0-12.42,3.374-14.959,9.049a26.964,26.964,0,0,0-1.889,7.956c-.445,3.833-.641,7.479-2.478,10.937a8.276,8.276,0,0,1-6.641,4.687,12.25,12.25,0,0,0,12.606,5.324" fill="none" stroke="#0f231a" stroke-linecap="round" stroke-linejoin="round" stroke-width="3"/>
        <path id="Trazado_1859" data-name="Trazado 1859" d="M7245.037,5736.364l9.564,7.141,9.564-7.141" fill="none" stroke="#0f231a" stroke-linecap="round" stroke-linejoin="round" stroke-width="3"/>
        <line id="Línea_658" data-name="Línea 658" x2="8.87" transform="translate(7265.033 5760.002)" fill="none" stroke="#0f231a" stroke-linecap="round" stroke-linejoin="round" stroke-width="3"/>
        <path id="Trazado_1860" data-name="Trazado 1860" d="M7223.452,5767.084l2.43-18.424a11.983,11.983,0,0,1,4.108-6.87,9.79,9.79,0,0,1,4.027-2.113l10.386-3.016a2.217,2.217,0,0,0,.633-.3,2.259,2.259,0,0,0,.983-1.614l.1-.854a6.919,6.919,0,0,0-1.45-5.167,11.331,11.331,0,0,1-2.576-7.174,65.293,65.293,0,0,1,1.232-10.548,9.229,9.229,0,0,1,5.362-6.8h0a5.541,5.541,0,0,1,6.52,1.5l.033.041c1.1,1.359,1.916,2.944,3.133,4.2a8.973,8.973,0,0,0,7.791,2.561" fill="none" stroke="#0f231a" stroke-linecap="round" stroke-linejoin="round" stroke-width="3"/>
        <path id="Trazado_1861" data-name="Trazado 1861" d="M7252.568,5698.788a7.9,7.9,0,0,1,6.108,3.06c1.124,1.475,1.718,3.344,3.053,4.632a5.564,5.564,0,0,0,5.211,1.341" fill="none" stroke="#0f231a" stroke-linecap="round" stroke-linejoin="round" stroke-width="3"/>
      </g>
      <g id="Grupo_1128" data-name="Grupo 1128" opacity="0.9">
        <circle id="Elipse_111" data-name="Elipse 111" cx="13.479" cy="13.479" r="13.479" transform="matrix(0.378, -0.926, 0.926, 0.378, 7193.657, 5740.927)" fill="none" stroke="#0f231a" stroke-linecap="round" stroke-linejoin="round" stroke-width="3"/>
        <g id="Grupo_1127" data-name="Grupo 1127">
          <path id="Trazado_1862" data-name="Trazado 1862" d="M7205.453,5734.252l4.606,4.108,7.457-9.119" fill="none" stroke="#0f231a" stroke-linecap="round" stroke-linejoin="round" stroke-width="3"/>
        </g>
      </g>
    </g>
  </g>
</svg>
