<svg xmlns="http://www.w3.org/2000/svg" width="152.443" height="152.444" viewBox="0 0 152.443 152.444"><g transform="translate(-1022.766 -4093.609)"><path d="M1098.987,4093.609q3.745,0,7.471.367t7.4,1.1q3.673.731,7.256,1.817t7.043,2.52q3.459,1.434,6.762,3.2t6.416,3.845q3.113,2.08,6.008,4.456t5.542,5.023q2.648,2.648,5.023,5.543t4.456,6.008q2.08,3.113,3.846,6.415t3.2,6.762q1.433,3.461,2.52,7.043t1.817,7.256q.73,3.672,1.1,7.4t.367,7.471q0,3.744-.367,7.471t-1.1,7.4q-.731,3.673-1.817,7.256t-2.52,7.043q-1.434,3.459-3.2,6.762t-3.846,6.415q-2.081,3.114-4.456,6.009t-5.023,5.542q-2.648,2.648-5.542,5.023t-6.008,4.456q-3.114,2.081-6.416,3.845t-6.762,3.2q-3.459,1.434-7.043,2.52t-7.256,1.818q-3.672.731-7.4,1.1t-7.471.368q-3.744,0-7.471-.368t-7.4-1.1q-3.672-.73-7.256-1.818t-7.043-2.52q-3.459-1.433-6.761-3.2t-6.416-3.845q-3.114-2.081-6.008-4.456t-5.543-5.023q-2.648-2.648-5.023-5.542t-4.456-6.009q-2.08-3.112-3.845-6.415t-3.2-6.762q-1.434-3.459-2.52-7.043t-1.818-7.256q-.73-3.672-1.1-7.4t-.367-7.471q0-3.744.367-7.471t1.1-7.4q.731-3.672,1.818-7.256t2.52-7.043q1.432-3.459,3.2-6.762t3.845-6.415q2.081-3.114,4.456-6.008t5.023-5.543q2.649-2.648,5.543-5.023t6.008-4.456q3.112-2.081,6.416-3.845t6.761-3.2q3.461-1.433,7.043-2.52t7.256-1.817q3.674-.731,7.4-1.1T1098.987,4093.609Z" fill="#a3bd31"/><circle cx="71.597" cy="71.597" r="71.597" transform="translate(1027.391 4098.234)" fill="#fff"/><circle cx="65.13" cy="65.13" r="65.13" transform="translate(1033.857 4104.701)" fill="#78958a"/><path d="M1068.888,4166.487h17.617c1.222,3.432,6.544,6.015,12.924,6.015s11.7-2.583,12.924-6.015h17.616v20.36h-61.081v-20.36Zm21.792,11.5v4.193h17.5v-4.193Zm-10.153-55.543c9.386,8.893,13.37,16.756,11.378,28.836h-7.524l15.048,16.926,15.048-16.926h-7.524c-.432-13.334-8.761-24.348-26.426-28.836Zm-11.639,67.176h17.617c1.222,3.432,6.544,6.014,12.924,6.014s11.7-2.582,12.924-6.014h17.616v20.36h-61.081v-20.36Zm21.792,11.5v4.194h17.5v-4.194Z" fill="#fff" fill-rule="evenodd" opacity="0.8"/></g></svg>