<svg xmlns="http://www.w3.org/2000/svg" width="152.443" height="152.443" viewBox="0 0 152.443 152.443"><g transform="translate(-1022.766 -3493.501)"><path d="M1098.987,3493.5q3.745,0,7.471.367t7.4,1.1q3.673.73,7.256,1.817t7.043,2.52q3.459,1.434,6.762,3.2t6.416,3.845q3.113,2.08,6.008,4.456t5.542,5.023q2.648,2.648,5.023,5.542t4.456,6.008q2.08,3.114,3.846,6.416t3.2,6.762q1.433,3.459,2.52,7.043t1.817,7.256q.73,3.672,1.1,7.4t.367,7.471q0,3.744-.367,7.471t-1.1,7.4q-.731,3.672-1.817,7.256t-2.52,7.043q-1.434,3.459-3.2,6.762t-3.846,6.415q-2.081,3.114-4.456,6.008t-5.023,5.542q-2.648,2.649-5.542,5.024t-6.008,4.456q-3.114,2.08-6.416,3.845t-6.762,3.2q-3.459,1.434-7.043,2.52t-7.256,1.818q-3.672.731-7.4,1.1t-7.471.367q-3.744,0-7.471-.367t-7.4-1.1q-3.672-.731-7.256-1.818t-7.043-2.52q-3.459-1.433-6.761-3.2t-6.416-3.845q-3.114-2.081-6.008-4.456t-5.543-5.024q-2.648-2.646-5.023-5.542t-4.456-6.008q-2.08-3.113-3.845-6.415t-3.2-6.762q-1.434-3.461-2.52-7.043t-1.818-7.256q-.73-3.672-1.1-7.4t-.367-7.471q0-3.744.367-7.471t1.1-7.4q.731-3.673,1.818-7.256t2.52-7.043q1.432-3.459,3.2-6.762t3.845-6.416q2.081-3.112,4.456-6.008t5.023-5.542q2.649-2.647,5.543-5.023t6.008-4.456q3.112-2.08,6.416-3.845t6.761-3.2q3.461-1.433,7.043-2.52t7.256-1.817q3.674-.731,7.4-1.1T1098.987,3493.5Z" fill="#a3bd31"/><circle cx="71.597" cy="71.597" r="71.597" transform="translate(1027.391 3498.126)" fill="#fff"/><circle cx="65.13" cy="65.13" r="65.13" transform="translate(1033.857 3504.593)" fill="#78958a"/><path d="M1138.7,3581.368l5.7-12.51a12.364,12.364,0,1,0-11.4,0l5.7,12.51Zm0-30.125a6.642,6.642,0,1,1-6.641,6.642,6.642,6.642,0,0,1,6.641-6.642Zm-19.611,30.125-15.8,19.882h-31.308l6.88-15.1h18l15.8-15.8h17.417l5.007,11.013Zm-51.484,20.1,9.139-20.055a19.82,19.82,0,1,0-18.279,0l9.14,20.055Zm0-48.292a10.647,10.647,0,1,0,10.647,10.647A10.647,10.647,0,0,0,1067.609,3553.177Z" fill="#fff" fill-rule="evenodd" opacity="0.8"/></g></svg>