<svg xmlns="http://www.w3.org/2000/svg" width="1046.566" height="227.578" viewBox="0 0 1046.566 227.578"><g transform="translate(-201.052 -2868.473)"><path d="M448.356,3096.052h-247.3l10.435-29.471-10.435-29.471h247.3l10.435,29.471Z" fill="#78958a" opacity="0.4"/><rect width="1.364" height="49.555" transform="translate(329.57 2976.432)" fill="#363636"/><path d="M327.7,3025.987a2.557,2.557,0,1,1,2.557,2.557A2.557,2.557,0,0,1,327.7,3025.987Z" fill="#363636"/><circle cx="43.16" cy="43.16" r="43.16" transform="translate(287.091 2875.553)" fill="#fff"/><path d="M328.345,2916.716q0,4.434-1.425,6.586a5.382,5.382,0,0,1-8.662-.07,11.89,11.89,0,0,1-1.465-6.516q0-4.5,1.425-6.637a5.386,5.386,0,0,1,8.662.1A11.974,11.974,0,0,1,328.345,2916.716Zm-8.784,0a12.388,12.388,0,0,0,.716,4.968,2.5,2.5,0,0,0,4.584-.023,17.2,17.2,0,0,0,0-9.895,2.491,2.491,0,0,0-4.584-.029A12.481,12.481,0,0,0,319.561,2916.716Z" fill="#4c1000"/><path d="M338.444,2925.221H335.71v-10.983q0-1.965.093-3.118-.267.28-.657.617t-2.612,2.141l-1.373-1.734,5-3.932h2.28Z" fill="#4c1000"/><circle cx="54.7" cy="54.7" r="54.7" transform="translate(275.547 2868.473)" fill="#a3bd31"/><circle cx="43.16" cy="43.16" r="43.16" transform="translate(287.091 2880.014)" fill="#fff"/><path d="M23.416,12.25V17H22.088V5.578h3.133a4.929,4.929,0,0,1,3.105.8,2.918,2.918,0,0,1,1,2.422,3.033,3.033,0,0,1-2.3,3.063L30.135,17h-1.57L25.8,12.25Zm0-1.141h1.82a3.144,3.144,0,0,0,2.063-.559,2.079,2.079,0,0,0,.656-1.676,1.907,1.907,0,0,0-.668-1.633,3.619,3.619,0,0,0-2.145-.5H23.416ZM35.4,17.156A3.934,3.934,0,0,1,32.4,16a4.476,4.476,0,0,1-1.1-3.211A4.964,4.964,0,0,1,32.326,9.5a3.387,3.387,0,0,1,2.738-1.219A3.229,3.229,0,0,1,37.611,9.34a4.057,4.057,0,0,1,.938,2.793v.82h-5.9a3.394,3.394,0,0,0,.762,2.289,2.634,2.634,0,0,0,2.035.781,6.9,6.9,0,0,0,2.734-.578V16.6a6.863,6.863,0,0,1-1.3.426A7.31,7.31,0,0,1,35.4,17.156Zm-.352-7.789a2.118,2.118,0,0,0-1.645.672,3.1,3.1,0,0,0-.723,1.859h4.477a2.851,2.851,0,0,0-.547-1.879A1.925,1.925,0,0,0,35.049,9.367Zm12.719-.93v.82l-1.586.188a2.785,2.785,0,0,1,.563,1.711,2.531,2.531,0,0,1-.859,2.008,3.467,3.467,0,0,1-2.359.75,3.929,3.929,0,0,1-.719-.062,1.276,1.276,0,0,0-.828,1.1.56.56,0,0,0,.289.52,2.112,2.112,0,0,0,.992.168h1.516a3.394,3.394,0,0,1,2.137.586,2.036,2.036,0,0,1,.746,1.7A2.431,2.431,0,0,1,46.518,20.1a6.1,6.1,0,0,1-3.328.746,4.547,4.547,0,0,1-2.59-.625,2.018,2.018,0,0,1-.91-1.766,1.983,1.983,0,0,1,.5-1.352,2.546,2.546,0,0,1,1.406-.773,1.357,1.357,0,0,1-.551-.461,1.22,1.22,0,0,1-.223-.727,1.379,1.379,0,0,1,.25-.82,2.628,2.628,0,0,1,.789-.68,2.313,2.313,0,0,1-1.082-.93,2.732,2.732,0,0,1-.418-1.5,2.771,2.771,0,0,1,.844-2.168A3.445,3.445,0,0,1,43.6,8.281a4.347,4.347,0,0,1,1.211.156Zm-6.828,10a1.162,1.162,0,0,0,.586,1.055,3.234,3.234,0,0,0,1.68.359,4.687,4.687,0,0,0,2.418-.488,1.5,1.5,0,0,0,.785-1.324,1.048,1.048,0,0,0-.43-.965,3.337,3.337,0,0,0-1.617-.27H42.807a2.048,2.048,0,0,0-1.375.422A1.507,1.507,0,0,0,40.94,18.438Zm.7-7.258a1.743,1.743,0,0,0,.508,1.359A2.028,2.028,0,0,0,43.565,13a1.654,1.654,0,0,0,1.9-1.844,1.7,1.7,0,0,0-1.922-1.93,1.9,1.9,0,0,0-1.406.492A1.982,1.982,0,0,0,41.643,11.18ZM50.822,17h-1.3V8.438h1.3ZM49.416,6.117a.861.861,0,0,1,.219-.652.81.81,0,0,1,1.086,0,.846.846,0,0,1,.227.648.859.859,0,0,1-.227.652.794.794,0,0,1-1.086,0A.877.877,0,0,1,49.416,6.117Zm9.68,8.547a2.145,2.145,0,0,1-.891,1.844,4.186,4.186,0,0,1-2.5.648,5.436,5.436,0,0,1-2.656-.539v-1.2a6.424,6.424,0,0,0,1.324.492,5.53,5.53,0,0,0,1.363.18,3.092,3.092,0,0,0,1.563-.324,1.116,1.116,0,0,0,.113-1.844,6.82,6.82,0,0,0-1.691-.84,9.172,9.172,0,0,1-1.7-.777,2.321,2.321,0,0,1-.75-.754,1.966,1.966,0,0,1-.246-1.008,1.921,1.921,0,0,1,.852-1.652,3.968,3.968,0,0,1,2.336-.605,6.835,6.835,0,0,1,2.7.563L58.455,9.9a6.2,6.2,0,0,0-2.336-.531,2.688,2.688,0,0,0-1.391.289.894.894,0,0,0-.469.8.971.971,0,0,0,.176.586A1.735,1.735,0,0,0,55,11.5a12.658,12.658,0,0,0,1.5.633,5.6,5.6,0,0,1,2.059,1.117A1.97,1.97,0,0,1,59.1,14.664Zm4.875,1.422a4.236,4.236,0,0,0,.664-.051,4.3,4.3,0,0,0,.508-.105v.992a2.371,2.371,0,0,1-.621.168,4.664,4.664,0,0,1-.738.066q-2.484,0-2.484-2.617V9.445H60.072V8.82L61.3,8.281l.547-1.828h.75V8.438H65.08V9.445H62.6v5.039a1.734,1.734,0,0,0,.367,1.188A1.278,1.278,0,0,0,63.971,16.086Zm6.789-7.8a5.075,5.075,0,0,1,1.023.094l-.18,1.2a4.418,4.418,0,0,0-.937-.117,2.282,2.282,0,0,0-1.777.844,3.077,3.077,0,0,0-.738,2.1V17h-1.3V8.438h1.07l.148,1.586h.063a3.764,3.764,0,0,1,1.148-1.289A2.585,2.585,0,0,1,70.76,8.281Zm9.7,4.43A4.724,4.724,0,0,1,79.4,15.98a3.714,3.714,0,0,1-2.914,1.176,3.86,3.86,0,0,1-2.039-.539,3.558,3.558,0,0,1-1.375-1.547,5.391,5.391,0,0,1-.484-2.359,4.716,4.716,0,0,1,1.047-3.262,3.7,3.7,0,0,1,2.906-1.168,3.622,3.622,0,0,1,2.855,1.2A4.7,4.7,0,0,1,80.455,12.711Zm-6.523,0a4.064,4.064,0,0,0,.656,2.5,2.6,2.6,0,0,0,3.863,0,4.043,4.043,0,0,0,.66-2.5,3.978,3.978,0,0,0-.66-2.48A2.32,2.32,0,0,0,76.5,9.383a2.283,2.283,0,0,0-1.922.836A4.023,4.023,0,0,0,73.932,12.711Zm18.781,3.141h-.07a3.047,3.047,0,0,1-2.687,1.3,3.179,3.179,0,0,1-2.613-1.148,5.055,5.055,0,0,1-.934-3.266,5.141,5.141,0,0,1,.938-3.289,3.155,3.155,0,0,1,2.609-1.172,3.114,3.114,0,0,1,2.672,1.266h.1l-.055-.617-.031-.6V4.844h1.3V17H92.885Zm-2.594.219a2.361,2.361,0,0,0,1.926-.723,3.652,3.652,0,0,0,.6-2.332v-.273a4.3,4.3,0,0,0-.605-2.6A2.3,2.3,0,0,0,90.1,9.367a1.985,1.985,0,0,0-1.746.887,4.409,4.409,0,0,0-.605,2.5,4.227,4.227,0,0,0,.6,2.477A2.037,2.037,0,0,0,90.119,16.07Zm10.187,1.086a3.934,3.934,0,0,1-3-1.156,4.476,4.476,0,0,1-1.1-3.211A4.964,4.964,0,0,1,97.232,9.5a3.387,3.387,0,0,1,2.738-1.219,3.229,3.229,0,0,1,2.547,1.059,4.057,4.057,0,0,1,.938,2.793v.82h-5.9a3.394,3.394,0,0,0,.762,2.289,2.635,2.635,0,0,0,2.035.781,6.9,6.9,0,0,0,2.734-.578V16.6a6.863,6.863,0,0,1-1.3.426A7.31,7.31,0,0,1,100.307,17.156Zm-.352-7.789a2.118,2.118,0,0,0-1.645.672,3.1,3.1,0,0,0-.723,1.859h4.477a2.851,2.851,0,0,0-.547-1.879A1.925,1.925,0,0,0,99.955,9.367Zm15.7,6.484h-.07a3.047,3.047,0,0,1-2.687,1.3,3.179,3.179,0,0,1-2.613-1.148,5.055,5.055,0,0,1-.934-3.266,5.141,5.141,0,0,1,.938-3.289,3.155,3.155,0,0,1,2.609-1.172,3.114,3.114,0,0,1,2.672,1.266h.1l-.055-.617-.031-.6V4.844h1.3V17h-1.055Zm-2.594.219a2.361,2.361,0,0,0,1.926-.723,3.652,3.652,0,0,0,.6-2.332v-.273a4.3,4.3,0,0,0-.605-2.6,2.3,2.3,0,0,0-1.934-.777,1.985,1.985,0,0,0-1.746.887,4.409,4.409,0,0,0-.605,2.5,4.227,4.227,0,0,0,.6,2.477A2.037,2.037,0,0,0,113.057,16.07Zm11.836.93-.258-1.219h-.062a3.6,3.6,0,0,1-1.277,1.09,3.893,3.893,0,0,1-1.59.285,2.86,2.86,0,0,1-2-.656,2.394,2.394,0,0,1-.723-1.867q0-2.594,4.148-2.719l1.453-.047v-.531a2.171,2.171,0,0,0-.434-1.488,1.783,1.783,0,0,0-1.387-.48,5.65,5.65,0,0,0-2.422.656l-.4-.992a6.094,6.094,0,0,1,1.387-.539,6.006,6.006,0,0,1,1.512-.2,3.262,3.262,0,0,1,2.27.68,2.837,2.837,0,0,1,.738,2.18V17Zm-2.93-.914a2.632,2.632,0,0,0,1.9-.664,2.457,2.457,0,0,0,.691-1.859v-.773l-1.3.055a4.717,4.717,0,0,0-2.23.48,1.449,1.449,0,0,0-.684,1.324,1.336,1.336,0,0,0,.426,1.07A1.767,1.767,0,0,0,121.963,16.086Zm9.328,0a4.236,4.236,0,0,0,.664-.051,4.3,4.3,0,0,0,.508-.105v.992a2.371,2.371,0,0,1-.621.168,4.664,4.664,0,0,1-.738.066q-2.484,0-2.484-2.617V9.445h-1.227V8.82l1.227-.539.547-1.828h.75V8.438H132.4V9.445h-2.484v5.039a1.733,1.733,0,0,0,.367,1.188A1.278,1.278,0,0,0,131.291,16.086Zm10.273-3.375a4.724,4.724,0,0,1-1.055,3.27,3.714,3.714,0,0,1-2.914,1.176,3.86,3.86,0,0,1-2.039-.539,3.558,3.558,0,0,1-1.375-1.547,5.391,5.391,0,0,1-.484-2.359,4.716,4.716,0,0,1,1.047-3.262,3.7,3.7,0,0,1,2.906-1.168,3.622,3.622,0,0,1,2.855,1.2A4.7,4.7,0,0,1,141.565,12.711Zm-6.523,0a4.064,4.064,0,0,0,.656,2.5,2.6,2.6,0,0,0,3.863,0,4.043,4.043,0,0,0,.66-2.5,3.978,3.978,0,0,0-.66-2.48,2.32,2.32,0,0,0-1.949-.848,2.283,2.283,0,0,0-1.922.836A4.023,4.023,0,0,0,135.041,12.711Zm14.32,1.953a2.145,2.145,0,0,1-.891,1.844,4.186,4.186,0,0,1-2.5.648,5.436,5.436,0,0,1-2.656-.539v-1.2a6.423,6.423,0,0,0,1.324.492,5.53,5.53,0,0,0,1.363.18,3.092,3.092,0,0,0,1.563-.324,1.116,1.116,0,0,0,.113-1.844,6.82,6.82,0,0,0-1.691-.84,9.172,9.172,0,0,1-1.7-.777,2.321,2.321,0,0,1-.75-.754,1.966,1.966,0,0,1-.246-1.008,1.921,1.921,0,0,1,.852-1.652,3.968,3.968,0,0,1,2.336-.605,6.835,6.835,0,0,1,2.7.563L148.721,9.9a6.2,6.2,0,0,0-2.336-.531,2.688,2.688,0,0,0-1.391.289.894.894,0,0,0-.469.8.971.971,0,0,0,.176.586,1.735,1.735,0,0,0,.566.461,12.659,12.659,0,0,0,1.5.633,5.6,5.6,0,0,1,2.059,1.117A1.97,1.97,0,0,1,149.361,14.664ZM159.611,8.3a3.183,3.183,0,0,1,2.621,1.152,5.058,5.058,0,0,1,.934,3.262,5.1,5.1,0,0,1-.941,3.277,3.17,3.17,0,0,1-2.613,1.168,3.706,3.706,0,0,1-1.527-.309,2.872,2.872,0,0,1-1.16-.949h-.094l-.273,1.1h-.93V4.844h1.3V7.8q0,.992-.062,1.781h.063A3.079,3.079,0,0,1,159.611,8.3Zm-.187,1.086a2.264,2.264,0,0,0-1.914.762,4.3,4.3,0,0,0-.586,2.566,4.285,4.285,0,0,0,.6,2.582,2.288,2.288,0,0,0,1.93.777,2,2,0,0,0,1.781-.871,4.477,4.477,0,0,0,.586-2.5,4.3,4.3,0,0,0-.586-2.492A2.076,2.076,0,0,0,159.424,9.383ZM170.7,17l-.258-1.219h-.062a3.6,3.6,0,0,1-1.277,1.09,3.893,3.893,0,0,1-1.59.285,2.86,2.86,0,0,1-2-.656,2.394,2.394,0,0,1-.723-1.867q0-2.594,4.148-2.719l1.453-.047v-.531a2.171,2.171,0,0,0-.434-1.488,1.783,1.783,0,0,0-1.387-.48,5.65,5.65,0,0,0-2.422.656l-.4-.992a6.094,6.094,0,0,1,1.387-.539,6.006,6.006,0,0,1,1.512-.2,3.262,3.262,0,0,1,2.27.68,2.837,2.837,0,0,1,.738,2.18V17Zm-2.93-.914a2.632,2.632,0,0,0,1.9-.664,2.457,2.457,0,0,0,.691-1.859v-.773l-1.3.055a4.717,4.717,0,0,0-2.23.48,1.449,1.449,0,0,0-.684,1.324,1.336,1.336,0,0,0,.426,1.07A1.767,1.767,0,0,0,167.768,16.086Zm-.3-8.977q.375-.484.809-1.172a13.413,13.413,0,0,0,.684-1.2h1.578v.164a11.549,11.549,0,0,1-1.023,1.25A11.62,11.62,0,0,1,168.33,7.3h-.867Zm12.391,7.555a2.145,2.145,0,0,1-.891,1.844,4.186,4.186,0,0,1-2.5.648,5.436,5.436,0,0,1-2.656-.539v-1.2a6.423,6.423,0,0,0,1.324.492,5.53,5.53,0,0,0,1.363.18,3.092,3.092,0,0,0,1.563-.324,1.116,1.116,0,0,0,.113-1.844,6.82,6.82,0,0,0-1.691-.84,9.172,9.172,0,0,1-1.7-.777,2.321,2.321,0,0,1-.75-.754,1.966,1.966,0,0,1-.246-1.008,1.921,1.921,0,0,1,.852-1.652,3.968,3.968,0,0,1,2.336-.605,6.835,6.835,0,0,1,2.7.563L179.213,9.9a6.2,6.2,0,0,0-2.336-.531,2.688,2.688,0,0,0-1.391.289.894.894,0,0,0-.469.8.971.971,0,0,0,.176.586,1.735,1.735,0,0,0,.566.461,12.659,12.659,0,0,0,1.5.633,5.6,5.6,0,0,1,2.059,1.117A1.97,1.97,0,0,1,179.854,14.664ZM183.26,17h-1.3V8.438h1.3ZM181.854,6.117a.861.861,0,0,1,.219-.652.81.81,0,0,1,1.086,0,.846.846,0,0,1,.227.648.859.859,0,0,1-.227.652.794.794,0,0,1-1.086,0A.877.877,0,0,1,181.854,6.117Zm7.578,11.039a3.654,3.654,0,0,1-2.879-1.145,4.707,4.707,0,0,1-1.02-3.238,4.853,4.853,0,0,1,1.035-3.32,3.727,3.727,0,0,1,2.949-1.172,5.852,5.852,0,0,1,1.234.133,4.066,4.066,0,0,1,.969.313l-.4,1.1a6.1,6.1,0,0,0-.937-.285,4.186,4.186,0,0,0-.9-.113q-2.609,0-2.609,3.328a3.963,3.963,0,0,0,.637,2.422,2.215,2.215,0,0,0,1.887.844,5.769,5.769,0,0,0,2.2-.461v1.148A4.679,4.679,0,0,1,189.432,17.156Zm11.586-4.445a4.724,4.724,0,0,1-1.055,3.27,3.714,3.714,0,0,1-2.914,1.176,3.86,3.86,0,0,1-2.039-.539,3.558,3.558,0,0,1-1.375-1.547,5.391,5.391,0,0,1-.484-2.359A4.716,4.716,0,0,1,194.2,9.449,3.7,3.7,0,0,1,197.1,8.281a3.622,3.622,0,0,1,2.855,1.2A4.7,4.7,0,0,1,201.018,12.711Zm-6.523,0a4.064,4.064,0,0,0,.656,2.5,2.6,2.6,0,0,0,3.863,0,4.043,4.043,0,0,0,.66-2.5,3.978,3.978,0,0,0-.66-2.48,2.32,2.32,0,0,0-1.949-.848,2.283,2.283,0,0,0-1.922.836A4.023,4.023,0,0,0,194.494,12.711Zm14.32,1.953a2.145,2.145,0,0,1-.891,1.844,4.186,4.186,0,0,1-2.5.648,5.436,5.436,0,0,1-2.656-.539v-1.2a6.423,6.423,0,0,0,1.324.492,5.53,5.53,0,0,0,1.363.18,3.092,3.092,0,0,0,1.563-.324,1.116,1.116,0,0,0,.113-1.844,6.82,6.82,0,0,0-1.691-.84,9.172,9.172,0,0,1-1.7-.777,2.321,2.321,0,0,1-.75-.754,1.966,1.966,0,0,1-.246-1.008,1.921,1.921,0,0,1,.852-1.652,3.968,3.968,0,0,1,2.336-.605,6.835,6.835,0,0,1,2.7.563L208.174,9.9a6.2,6.2,0,0,0-2.336-.531,2.688,2.688,0,0,0-1.391.289.894.894,0,0,0-.469.8.971.971,0,0,0,.176.586,1.735,1.735,0,0,0,.566.461,12.659,12.659,0,0,0,1.5.633,5.6,5.6,0,0,1,2.059,1.117A1.97,1.97,0,0,1,208.815,14.664Z" transform="translate(214.312 3054.347)" fill="#0f231a"/><path d="M16.333,16.768q0,4.256-1.342,6.356a4.534,4.534,0,0,1-4.1,2.1,4.5,4.5,0,0,1-4.032-2.151,11.752,11.752,0,0,1-1.381-6.306q0-4.29,1.336-6.368a4.513,4.513,0,0,1,4.077-2.078,4.52,4.52,0,0,1,4.06,2.167A11.7,11.7,0,0,1,16.333,16.768Zm-8.973,0A12.025,12.025,0,0,0,8.2,21.985a2.817,2.817,0,0,0,2.684,1.634,2.819,2.819,0,0,0,2.7-1.656,12.118,12.118,0,0,0,.837-5.194,12.037,12.037,0,0,0-.837-5.183,2.821,2.821,0,0,0-2.7-1.645A2.819,2.819,0,0,0,8.2,11.563,11.945,11.945,0,0,0,7.36,16.768ZM25.509,25H23.689V13.3q0-1.46.09-2.763-.236.236-.528.494t-2.673,2.19l-.988-1.28,4.346-3.358h1.572Z" transform="translate(313.454 2903.666)" fill="#0f231a"/><path d="M711.3,3096.052h-247.3l10.435-29.471-10.435-29.471H711.3l10.435,29.471Z" fill="#78958a" opacity="0.4"/><rect width="1.364" height="49.555" transform="translate(592.512 2976.432)" fill="#363636"/><path d="M590.637,3025.987a2.557,2.557,0,1,1,2.557,2.557A2.557,2.557,0,0,1,590.637,3025.987Z" fill="#363636"/><circle cx="43.16" cy="43.16" r="43.16" transform="translate(550.033 2875.553)" fill="#fff"/><path d="M591.288,2916.716q0,4.434-1.425,6.586a5.382,5.382,0,0,1-8.662-.07,11.889,11.889,0,0,1-1.466-6.516q0-4.5,1.425-6.637a5.386,5.386,0,0,1,8.662.1A11.973,11.973,0,0,1,591.288,2916.716Zm-8.784,0a12.392,12.392,0,0,0,.715,4.968,2.5,2.5,0,0,0,4.584-.023,17.2,17.2,0,0,0,0-9.895,2.491,2.491,0,0,0-4.584-.029A12.486,12.486,0,0,0,582.5,2916.716Z" fill="#4c1000"/><path d="M601.387,2925.221h-2.735v-10.983q0-1.965.093-3.118-.267.28-.657.617t-2.612,2.141l-1.373-1.734,5-3.932h2.281Z" fill="#4c1000"/><circle cx="54.7" cy="54.7" r="54.7" transform="translate(538.489 2868.473)" fill="#a3bd31"/><circle cx="43.16" cy="43.16" r="43.16" transform="translate(550.033 2880.014)" fill="#fff"/><path d="M36.131,5.578h1.43L33.443,17H32.131L28.037,5.578h1.406l2.625,7.391a20.729,20.729,0,0,1,.719,2.477,20.674,20.674,0,0,1,.734-2.523ZM43.881,17l-.258-1.219h-.062a3.6,3.6,0,0,1-1.277,1.09,3.893,3.893,0,0,1-1.59.285,2.86,2.86,0,0,1-2-.656,2.394,2.394,0,0,1-.723-1.867q0-2.594,4.148-2.719l1.453-.047v-.531a2.171,2.171,0,0,0-.434-1.488,1.783,1.783,0,0,0-1.387-.48,5.65,5.65,0,0,0-2.422.656l-.4-.992a6.094,6.094,0,0,1,1.387-.539,6.006,6.006,0,0,1,1.512-.2,3.262,3.262,0,0,1,2.27.68,2.837,2.837,0,0,1,.738,2.18V17Zm-2.93-.914a2.632,2.632,0,0,0,1.9-.664,2.457,2.457,0,0,0,.691-1.859v-.773l-1.3.055a4.717,4.717,0,0,0-2.23.48,1.449,1.449,0,0,0-.684,1.324,1.336,1.336,0,0,0,.426,1.07A1.767,1.767,0,0,0,40.951,16.086ZM48.811,17h-1.3V4.844h1.3Zm4.047,0h-1.3V8.438h1.3ZM51.451,6.117a.861.861,0,0,1,.219-.652.81.81,0,0,1,1.086,0,.846.846,0,0,1,.227.648.859.859,0,0,1-.227.652.794.794,0,0,1-1.086,0A.877.877,0,0,1,51.451,6.117Zm9.984,9.734h-.07a3.047,3.047,0,0,1-2.687,1.3,3.179,3.179,0,0,1-2.613-1.148,5.055,5.055,0,0,1-.934-3.266,5.141,5.141,0,0,1,.938-3.289,3.155,3.155,0,0,1,2.609-1.172A3.114,3.114,0,0,1,61.35,9.547h.1L61.4,8.93l-.031-.6V4.844h1.3V17H61.607Zm-2.594.219a2.361,2.361,0,0,0,1.926-.723,3.652,3.652,0,0,0,.6-2.332v-.273a4.3,4.3,0,0,0-.605-2.6,2.3,2.3,0,0,0-1.934-.777,1.985,1.985,0,0,0-1.746.887,4.409,4.409,0,0,0-.605,2.5,4.227,4.227,0,0,0,.6,2.477A2.037,2.037,0,0,0,58.842,16.07ZM70.678,17l-.258-1.219h-.062a3.6,3.6,0,0,1-1.277,1.09,3.893,3.893,0,0,1-1.59.285,2.86,2.86,0,0,1-2-.656,2.394,2.394,0,0,1-.723-1.867q0-2.594,4.148-2.719l1.453-.047v-.531a2.171,2.171,0,0,0-.434-1.488,1.783,1.783,0,0,0-1.387-.48,5.65,5.65,0,0,0-2.422.656l-.4-.992a6.094,6.094,0,0,1,1.387-.539,6.006,6.006,0,0,1,1.512-.2,3.262,3.262,0,0,1,2.27.68,2.837,2.837,0,0,1,.738,2.18V17Zm-2.93-.914a2.632,2.632,0,0,0,1.9-.664,2.457,2.457,0,0,0,.691-1.859v-.773l-1.3.055a4.717,4.717,0,0,0-2.23.48,1.449,1.449,0,0,0-.684,1.324,1.336,1.336,0,0,0,.426,1.07A1.767,1.767,0,0,0,67.748,16.086Zm9.984,1.07a3.654,3.654,0,0,1-2.879-1.145,4.707,4.707,0,0,1-1.02-3.238,4.853,4.853,0,0,1,1.035-3.32,3.727,3.727,0,0,1,2.949-1.172,5.852,5.852,0,0,1,1.234.133,4.066,4.066,0,0,1,.969.313l-.4,1.1a6.1,6.1,0,0,0-.937-.285,4.186,4.186,0,0,0-.9-.113q-2.609,0-2.609,3.328a3.963,3.963,0,0,0,.637,2.422,2.215,2.215,0,0,0,1.887.844,5.769,5.769,0,0,0,2.2-.461v1.148A4.679,4.679,0,0,1,77.732,17.156ZM83.225,17h-1.3V8.438h1.3ZM81.818,6.117a.861.861,0,0,1,.219-.652.81.81,0,0,1,1.086,0,.846.846,0,0,1,.227.648.859.859,0,0,1-.227.652.794.794,0,0,1-1.086,0A.877.877,0,0,1,81.818,6.117Zm11.547,6.594a4.724,4.724,0,0,1-1.055,3.27A3.714,3.714,0,0,1,89.4,17.156a3.86,3.86,0,0,1-2.039-.539,3.558,3.558,0,0,1-1.375-1.547,5.391,5.391,0,0,1-.484-2.359,4.716,4.716,0,0,1,1.047-3.262,3.7,3.7,0,0,1,2.906-1.168,3.622,3.622,0,0,1,2.855,1.2A4.7,4.7,0,0,1,93.365,12.711Zm-6.523,0a4.064,4.064,0,0,0,.656,2.5,2.6,2.6,0,0,0,3.863,0,4.043,4.043,0,0,0,.66-2.5,3.978,3.978,0,0,0-.66-2.48,2.32,2.32,0,0,0-1.949-.848,2.283,2.283,0,0,0-1.922.836A4.023,4.023,0,0,0,86.842,12.711Zm1.5-5.6q.375-.484.809-1.172a13.411,13.411,0,0,0,.684-1.2h1.578v.164a11.549,11.549,0,0,1-1.023,1.25A11.619,11.619,0,0,1,89.209,7.3h-.867ZM101.5,17V11.461a2.235,2.235,0,0,0-.477-1.562,1.941,1.941,0,0,0-1.492-.516,2.461,2.461,0,0,0-1.969.727,3.668,3.668,0,0,0-.625,2.4V17h-1.3V8.438h1.055L96.9,9.609h.063a2.648,2.648,0,0,1,1.117-.98,3.63,3.63,0,0,1,1.6-.348,3.252,3.252,0,0,1,2.328.746,3.175,3.175,0,0,1,.781,2.387V17Zm13.945-1.148h-.07a3.047,3.047,0,0,1-2.687,1.3,3.179,3.179,0,0,1-2.613-1.148,5.055,5.055,0,0,1-.934-3.266,5.141,5.141,0,0,1,.938-3.289,3.155,3.155,0,0,1,2.609-1.172,3.114,3.114,0,0,1,2.672,1.266h.1L115.4,8.93l-.031-.6V4.844h1.3V17h-1.055Zm-2.594.219a2.361,2.361,0,0,0,1.926-.723,3.652,3.652,0,0,0,.6-2.332v-.273a4.3,4.3,0,0,0-.605-2.6,2.3,2.3,0,0,0-1.934-.777,1.985,1.985,0,0,0-1.746.887,4.409,4.409,0,0,0-.605,2.5,4.227,4.227,0,0,0,.6,2.477A2.037,2.037,0,0,0,112.85,16.07Zm10.188,1.086a3.934,3.934,0,0,1-3-1.156,4.476,4.476,0,0,1-1.1-3.211,4.964,4.964,0,0,1,1.02-3.289A3.387,3.387,0,0,1,122.7,8.281a3.229,3.229,0,0,1,2.547,1.059,4.057,4.057,0,0,1,.938,2.793v.82h-5.9a3.394,3.394,0,0,0,.762,2.289,2.635,2.635,0,0,0,2.035.781,6.9,6.9,0,0,0,2.734-.578V16.6a6.863,6.863,0,0,1-1.3.426A7.31,7.31,0,0,1,123.037,17.156Zm-.352-7.789a2.118,2.118,0,0,0-1.645.672,3.1,3.1,0,0,0-.723,1.859h4.477a2.851,2.851,0,0,0-.547-1.879A1.925,1.925,0,0,0,122.686,9.367ZM133.85,17h-1.3V8.438h1.3ZM132.443,6.117a.861.861,0,0,1,.219-.652.81.81,0,0,1,1.086,0,.846.846,0,0,1,.227.648.859.859,0,0,1-.227.652.794.794,0,0,1-1.086,0A.877.877,0,0,1,132.443,6.117Zm9.984,9.734h-.07a3.047,3.047,0,0,1-2.687,1.3,3.179,3.179,0,0,1-2.613-1.148,5.055,5.055,0,0,1-.934-3.266,5.141,5.141,0,0,1,.938-3.289,3.155,3.155,0,0,1,2.609-1.172,3.114,3.114,0,0,1,2.672,1.266h.1l-.055-.617-.031-.6V4.844h1.3V17H142.6Zm-2.594.219a2.361,2.361,0,0,0,1.926-.723,3.652,3.652,0,0,0,.6-2.332v-.273a4.3,4.3,0,0,0-.605-2.6,2.3,2.3,0,0,0-1.934-.777,1.985,1.985,0,0,0-1.746.887,4.409,4.409,0,0,0-.605,2.5,4.227,4.227,0,0,0,.6,2.477A2.037,2.037,0,0,0,139.834,16.07Zm10.188,1.086a3.934,3.934,0,0,1-3-1.156,4.476,4.476,0,0,1-1.1-3.211,4.964,4.964,0,0,1,1.02-3.289,3.387,3.387,0,0,1,2.738-1.219,3.229,3.229,0,0,1,2.547,1.059,4.057,4.057,0,0,1,.938,2.793v.82h-5.9a3.394,3.394,0,0,0,.762,2.289,2.634,2.634,0,0,0,2.035.781,6.9,6.9,0,0,0,2.734-.578V16.6a6.863,6.863,0,0,1-1.3.426A7.31,7.31,0,0,1,150.022,17.156Zm-.352-7.789a2.118,2.118,0,0,0-1.645.672A3.1,3.1,0,0,0,147.3,11.9h4.477a2.851,2.851,0,0,0-.547-1.879A1.925,1.925,0,0,0,149.67,9.367ZM161.24,17V11.461a2.235,2.235,0,0,0-.477-1.562,1.941,1.941,0,0,0-1.492-.516,2.461,2.461,0,0,0-1.969.727,3.668,3.668,0,0,0-.625,2.4V17h-1.3V8.438h1.055l.211,1.172h.063a2.648,2.648,0,0,1,1.117-.98,3.63,3.63,0,0,1,1.6-.348,3.252,3.252,0,0,1,2.328.746,3.175,3.175,0,0,1,.781,2.387V17Zm6.727-.914a4.236,4.236,0,0,0,.664-.051,4.3,4.3,0,0,0,.508-.105v.992a2.371,2.371,0,0,1-.621.168,4.664,4.664,0,0,1-.738.066q-2.484,0-2.484-2.617V9.445h-1.227V8.82l1.227-.539.547-1.828h.75V8.438h2.484V9.445h-2.484v5.039a1.733,1.733,0,0,0,.367,1.188A1.278,1.278,0,0,0,167.967,16.086Zm4.18.914h-1.3V8.438h1.3ZM170.74,6.117a.861.861,0,0,1,.219-.652.81.81,0,0,1,1.086,0,.846.846,0,0,1,.227.648.859.859,0,0,1-.227.652.794.794,0,0,1-1.086,0A.877.877,0,0,1,170.74,6.117Zm9.984,9.734h-.07a3.047,3.047,0,0,1-2.687,1.3,3.179,3.179,0,0,1-2.613-1.148,5.055,5.055,0,0,1-.934-3.266,5.141,5.141,0,0,1,.938-3.289,3.155,3.155,0,0,1,2.609-1.172,3.114,3.114,0,0,1,2.672,1.266h.1l-.055-.617-.031-.6V4.844h1.3V17H180.9Zm-2.594.219a2.361,2.361,0,0,0,1.926-.723,3.652,3.652,0,0,0,.6-2.332v-.273a4.3,4.3,0,0,0-.605-2.6,2.3,2.3,0,0,0-1.934-.777,1.985,1.985,0,0,0-1.746.887,4.409,4.409,0,0,0-.605,2.5,4.227,4.227,0,0,0,.6,2.477A2.037,2.037,0,0,0,178.131,16.07Zm11.836.93-.258-1.219h-.062a3.6,3.6,0,0,1-1.277,1.09,3.893,3.893,0,0,1-1.59.285,2.86,2.86,0,0,1-2-.656,2.394,2.394,0,0,1-.723-1.867q0-2.594,4.148-2.719l1.453-.047v-.531a2.171,2.171,0,0,0-.434-1.488,1.783,1.783,0,0,0-1.387-.48,5.65,5.65,0,0,0-2.422.656l-.4-.992a6.094,6.094,0,0,1,1.387-.539,6.006,6.006,0,0,1,1.512-.2,3.262,3.262,0,0,1,2.27.68,2.837,2.837,0,0,1,.738,2.18V17Zm-2.93-.914a2.632,2.632,0,0,0,1.9-.664,2.457,2.457,0,0,0,.691-1.859v-.773l-1.3.055a4.717,4.717,0,0,0-2.23.48,1.449,1.449,0,0,0-.684,1.324,1.336,1.336,0,0,0,.426,1.07A1.767,1.767,0,0,0,187.037,16.086Zm12.391-.234h-.07a3.047,3.047,0,0,1-2.687,1.3,3.179,3.179,0,0,1-2.613-1.148,5.055,5.055,0,0,1-.934-3.266,5.141,5.141,0,0,1,.938-3.289,3.155,3.155,0,0,1,2.609-1.172,3.114,3.114,0,0,1,2.672,1.266h.1l-.055-.617-.031-.6V4.844h1.3V17H199.6Zm-2.594.219a2.361,2.361,0,0,0,1.926-.723,3.652,3.652,0,0,0,.6-2.332v-.273a4.3,4.3,0,0,0-.605-2.6,2.3,2.3,0,0,0-1.934-.777,1.985,1.985,0,0,0-1.746.887,4.409,4.409,0,0,0-.605,2.5,4.227,4.227,0,0,0,.6,2.477A2.037,2.037,0,0,0,196.834,16.07Z" transform="translate(477.255 3054.347)" fill="#0f231a"/><path d="M16.333,16.768q0,4.256-1.342,6.356a4.534,4.534,0,0,1-4.1,2.1,4.5,4.5,0,0,1-4.032-2.151,11.752,11.752,0,0,1-1.381-6.306q0-4.29,1.336-6.368a4.513,4.513,0,0,1,4.077-2.078,4.52,4.52,0,0,1,4.06,2.167A11.7,11.7,0,0,1,16.333,16.768Zm-8.973,0A12.025,12.025,0,0,0,8.2,21.985a2.817,2.817,0,0,0,2.684,1.634,2.819,2.819,0,0,0,2.7-1.656,12.118,12.118,0,0,0,.837-5.194,12.037,12.037,0,0,0-.837-5.183,2.821,2.821,0,0,0-2.7-1.645A2.819,2.819,0,0,0,8.2,11.563,11.945,11.945,0,0,0,7.36,16.768ZM29.394,25H18.6V23.394l4.324-4.346A31.839,31.839,0,0,0,25.531,16.2a7.28,7.28,0,0,0,.943-1.662,4.761,4.761,0,0,0,.314-1.741,2.76,2.76,0,0,0-.8-2.083,3.054,3.054,0,0,0-2.212-.769,5.563,5.563,0,0,0-1.937.337A7.722,7.722,0,0,0,19.8,11.5l-.988-1.269a7.569,7.569,0,0,1,4.941-1.887A5.22,5.22,0,0,1,27.384,9.53,4.075,4.075,0,0,1,28.7,12.714a6.149,6.149,0,0,1-.876,3.088,19.608,19.608,0,0,1-3.279,3.863l-3.594,3.515v.09h8.445Z" transform="translate(576.397 2903.666)" fill="#0f231a"/><path d="M974.241,3096.052h-247.3l10.435-29.471-10.435-29.471h247.3l10.435,29.471Z" fill="#78958a" opacity="0.4"/><rect width="1.364" height="49.555" transform="translate(855.454 2976.432)" fill="#363636"/><path d="M853.579,3025.987a2.557,2.557,0,1,1,2.557,2.557A2.557,2.557,0,0,1,853.579,3025.987Z" fill="#363636"/><circle cx="43.16" cy="43.16" r="43.16" transform="translate(812.975 2875.553)" fill="#fff"/><path d="M854.23,2916.716q0,4.434-1.425,6.586a5.382,5.382,0,0,1-8.662-.07,11.889,11.889,0,0,1-1.466-6.516q0-4.5,1.425-6.637a5.386,5.386,0,0,1,8.662.1A11.972,11.972,0,0,1,854.23,2916.716Zm-8.784,0a12.388,12.388,0,0,0,.716,4.968,2.5,2.5,0,0,0,4.584-.023,17.2,17.2,0,0,0,0-9.895,2.491,2.491,0,0,0-4.584-.029A12.482,12.482,0,0,0,845.446,2916.716Z" fill="#4c1000"/><path d="M864.329,2925.221h-2.734v-10.983q0-1.965.093-3.118-.269.28-.657.617t-2.612,2.141l-1.373-1.734,5-3.932h2.281Z" fill="#4c1000"/><circle cx="54.7" cy="54.7" r="54.7" transform="translate(801.431 2868.473)" fill="#a3bd31"/><circle cx="43.16" cy="43.16" r="43.16" transform="translate(812.975 2880.014)" fill="#fff"/><path d="M25.354,17V5.578h1.328V17Zm10.125,0V11.461A2.235,2.235,0,0,0,35,9.9a1.941,1.941,0,0,0-1.492-.516,2.461,2.461,0,0,0-1.969.727,3.668,3.668,0,0,0-.625,2.4V17h-1.3V8.438h1.055l.211,1.172h.063a2.648,2.648,0,0,1,1.117-.98,3.63,3.63,0,0,1,1.6-.348,3.252,3.252,0,0,1,2.328.746,3.175,3.175,0,0,1,.781,2.387V17ZM43.3,9.445h-2.18V17h-1.3V9.445H38.291V8.859l1.531-.469V7.914q0-3.156,2.758-3.156a5.675,5.675,0,0,1,1.594.273L43.838,6.07a4.29,4.29,0,0,0-1.281-.242,1.248,1.248,0,0,0-1.086.488,2.725,2.725,0,0,0-.352,1.566v.555H43.3Zm8.953,3.266A4.724,4.724,0,0,1,51.2,15.98a3.714,3.714,0,0,1-2.914,1.176,3.86,3.86,0,0,1-2.039-.539,3.558,3.558,0,0,1-1.375-1.547,5.391,5.391,0,0,1-.484-2.359,4.716,4.716,0,0,1,1.047-3.262,3.7,3.7,0,0,1,2.906-1.168,3.622,3.622,0,0,1,2.855,1.2A4.7,4.7,0,0,1,52.252,12.711Zm-6.523,0a4.064,4.064,0,0,0,.656,2.5,2.6,2.6,0,0,0,3.863,0,4.043,4.043,0,0,0,.66-2.5,3.978,3.978,0,0,0-.66-2.48A2.32,2.32,0,0,0,48.3,9.383a2.283,2.283,0,0,0-1.922.836A4.023,4.023,0,0,0,45.729,12.711Zm12.7-4.43a5.075,5.075,0,0,1,1.023.094l-.18,1.2a4.418,4.418,0,0,0-.937-.117,2.282,2.282,0,0,0-1.777.844,3.077,3.077,0,0,0-.738,2.1V17h-1.3V8.438H55.6l.148,1.586h.063a3.764,3.764,0,0,1,1.148-1.289A2.585,2.585,0,0,1,58.432,8.281ZM71.971,17V11.43a2.312,2.312,0,0,0-.437-1.535,1.692,1.692,0,0,0-1.359-.512,2.195,2.195,0,0,0-1.789.7,3.3,3.3,0,0,0-.578,2.141V17h-1.3V11.43a2.312,2.312,0,0,0-.437-1.535,1.7,1.7,0,0,0-1.367-.512,2.118,2.118,0,0,0-1.785.73,3.953,3.953,0,0,0-.566,2.395V17h-1.3V8.438h1.055l.211,1.172h.063a2.549,2.549,0,0,1,1.035-.977,3.162,3.162,0,0,1,1.5-.352,2.544,2.544,0,0,1,2.625,1.453H67.6a2.73,2.73,0,0,1,1.109-1.062,3.442,3.442,0,0,1,1.656-.391,2.9,2.9,0,0,1,2.176.746,3.338,3.338,0,0,1,.723,2.387V17Zm9.234,0-.258-1.219h-.062a3.6,3.6,0,0,1-1.277,1.09,3.893,3.893,0,0,1-1.59.285,2.86,2.86,0,0,1-2-.656,2.394,2.394,0,0,1-.723-1.867q0-2.594,4.148-2.719l1.453-.047v-.531a2.171,2.171,0,0,0-.434-1.488,1.783,1.783,0,0,0-1.387-.48,5.65,5.65,0,0,0-2.422.656l-.4-.992a6.094,6.094,0,0,1,1.387-.539,6.006,6.006,0,0,1,1.512-.2,3.262,3.262,0,0,1,2.27.68,2.837,2.837,0,0,1,.738,2.18V17Zm-2.93-.914a2.632,2.632,0,0,0,1.9-.664,2.457,2.457,0,0,0,.691-1.859v-.773l-1.3.055a4.717,4.717,0,0,0-2.23.48,1.449,1.449,0,0,0-.684,1.324,1.336,1.336,0,0,0,.426,1.07A1.767,1.767,0,0,0,78.275,16.086Zm9.984,1.07a3.654,3.654,0,0,1-2.879-1.145,4.707,4.707,0,0,1-1.02-3.238A4.853,4.853,0,0,1,85.4,9.453a3.727,3.727,0,0,1,2.949-1.172,5.852,5.852,0,0,1,1.234.133,4.066,4.066,0,0,1,.969.313l-.4,1.1a6.1,6.1,0,0,0-.937-.285,4.186,4.186,0,0,0-.9-.113q-2.609,0-2.609,3.328a3.963,3.963,0,0,0,.637,2.422,2.215,2.215,0,0,0,1.887.844,5.769,5.769,0,0,0,2.2-.461v1.148A4.679,4.679,0,0,1,88.26,17.156ZM93.752,17h-1.3V8.438h1.3ZM92.346,6.117a.861.861,0,0,1,.219-.652.81.81,0,0,1,1.086,0,.846.846,0,0,1,.227.648.859.859,0,0,1-.227.652.794.794,0,0,1-1.086,0A.877.877,0,0,1,92.346,6.117Zm11.547,6.594a4.724,4.724,0,0,1-1.055,3.27,3.714,3.714,0,0,1-2.914,1.176,3.86,3.86,0,0,1-2.039-.539A3.558,3.558,0,0,1,96.51,15.07a5.391,5.391,0,0,1-.484-2.359,4.716,4.716,0,0,1,1.047-3.262,3.7,3.7,0,0,1,2.906-1.168,3.622,3.622,0,0,1,2.855,1.2A4.7,4.7,0,0,1,103.893,12.711Zm-6.523,0a4.064,4.064,0,0,0,.656,2.5,2.6,2.6,0,0,0,3.863,0,4.043,4.043,0,0,0,.66-2.5,3.978,3.978,0,0,0-.66-2.48,2.32,2.32,0,0,0-1.949-.848,2.283,2.283,0,0,0-1.922.836A4.023,4.023,0,0,0,97.369,12.711Zm1.5-5.6q.375-.484.809-1.172a13.411,13.411,0,0,0,.684-1.2h1.578v.164a11.549,11.549,0,0,1-1.023,1.25A11.619,11.619,0,0,1,99.736,7.3h-.867ZM112.025,17V11.461a2.235,2.235,0,0,0-.477-1.562,1.941,1.941,0,0,0-1.492-.516,2.461,2.461,0,0,0-1.969.727,3.668,3.668,0,0,0-.625,2.4V17h-1.3V8.438h1.055l.211,1.172h.063a2.648,2.648,0,0,1,1.117-.98,3.63,3.63,0,0,1,1.6-.348,3.252,3.252,0,0,1,2.328.746,3.175,3.175,0,0,1,.781,2.387V17Zm13.945-1.148h-.07a3.047,3.047,0,0,1-2.687,1.3,3.179,3.179,0,0,1-2.613-1.148,5.055,5.055,0,0,1-.934-3.266,5.141,5.141,0,0,1,.938-3.289,3.155,3.155,0,0,1,2.609-1.172,3.114,3.114,0,0,1,2.672,1.266h.1l-.055-.617-.031-.6V4.844h1.3V17h-1.055Zm-2.594.219a2.361,2.361,0,0,0,1.926-.723,3.652,3.652,0,0,0,.6-2.332v-.273a4.3,4.3,0,0,0-.605-2.6,2.3,2.3,0,0,0-1.934-.777,1.985,1.985,0,0,0-1.746.887,4.409,4.409,0,0,0-.605,2.5,4.227,4.227,0,0,0,.6,2.477A2.037,2.037,0,0,0,123.377,16.07Zm10.188,1.086a3.934,3.934,0,0,1-3-1.156,4.476,4.476,0,0,1-1.1-3.211A4.964,4.964,0,0,1,130.49,9.5a3.387,3.387,0,0,1,2.738-1.219,3.229,3.229,0,0,1,2.547,1.059,4.057,4.057,0,0,1,.938,2.793v.82h-5.9a3.394,3.394,0,0,0,.762,2.289,2.634,2.634,0,0,0,2.035.781,6.9,6.9,0,0,0,2.734-.578V16.6a6.863,6.863,0,0,1-1.3.426A7.31,7.31,0,0,1,133.565,17.156Zm-.352-7.789a2.118,2.118,0,0,0-1.645.672,3.1,3.1,0,0,0-.723,1.859h4.477a2.851,2.851,0,0,0-.547-1.879A1.925,1.925,0,0,0,133.213,9.367ZM146.5,17.156a3.654,3.654,0,0,1-2.879-1.145,4.707,4.707,0,0,1-1.02-3.238,4.853,4.853,0,0,1,1.035-3.32,3.727,3.727,0,0,1,2.949-1.172,5.852,5.852,0,0,1,1.234.133,4.066,4.066,0,0,1,.969.313l-.4,1.1a6.1,6.1,0,0,0-.937-.285,4.186,4.186,0,0,0-.9-.113q-2.609,0-2.609,3.328a3.963,3.963,0,0,0,.637,2.422,2.215,2.215,0,0,0,1.887.844,5.769,5.769,0,0,0,2.2-.461v1.148A4.679,4.679,0,0,1,146.5,17.156Zm11.586-4.445a4.724,4.724,0,0,1-1.055,3.27,3.714,3.714,0,0,1-2.914,1.176,3.86,3.86,0,0,1-2.039-.539,3.558,3.558,0,0,1-1.375-1.547,5.391,5.391,0,0,1-.484-2.359,4.716,4.716,0,0,1,1.047-3.262,3.7,3.7,0,0,1,2.906-1.168,3.622,3.622,0,0,1,2.855,1.2A4.7,4.7,0,0,1,158.088,12.711Zm-6.523,0a4.064,4.064,0,0,0,.656,2.5,2.6,2.6,0,0,0,3.863,0,4.043,4.043,0,0,0,.66-2.5,3.978,3.978,0,0,0-.66-2.48,2.32,2.32,0,0,0-1.949-.848,2.283,2.283,0,0,0-1.922.836A4.023,4.023,0,0,0,151.565,12.711ZM166.221,17V11.461a2.235,2.235,0,0,0-.477-1.562,1.941,1.941,0,0,0-1.492-.516,2.461,2.461,0,0,0-1.969.727,3.668,3.668,0,0,0-.625,2.4V17h-1.3V8.438h1.055l.211,1.172h.063a2.648,2.648,0,0,1,1.117-.98,3.63,3.63,0,0,1,1.6-.348,3.252,3.252,0,0,1,2.328.746,3.175,3.175,0,0,1,.781,2.387V17Zm6.727-.914a4.236,4.236,0,0,0,.664-.051,4.3,4.3,0,0,0,.508-.105v.992a2.371,2.371,0,0,1-.621.168,4.664,4.664,0,0,1-.738.066q-2.484,0-2.484-2.617V9.445h-1.227V8.82l1.227-.539.547-1.828h.75V8.438h2.484V9.445h-2.484v5.039a1.733,1.733,0,0,0,.367,1.188A1.278,1.278,0,0,0,172.947,16.086ZM181.1,17l-.258-1.219h-.062a3.6,3.6,0,0,1-1.277,1.09,3.893,3.893,0,0,1-1.59.285,2.86,2.86,0,0,1-2-.656,2.394,2.394,0,0,1-.723-1.867q0-2.594,4.148-2.719l1.453-.047v-.531a2.171,2.171,0,0,0-.434-1.488,1.783,1.783,0,0,0-1.387-.48,5.65,5.65,0,0,0-2.422.656l-.4-.992a6.094,6.094,0,0,1,1.387-.539,6.006,6.006,0,0,1,1.512-.2,3.262,3.262,0,0,1,2.27.68,2.837,2.837,0,0,1,.738,2.18V17Zm-2.93-.914a2.632,2.632,0,0,0,1.9-.664,2.457,2.457,0,0,0,.691-1.859v-.773l-1.3.055a4.717,4.717,0,0,0-2.23.48,1.449,1.449,0,0,0-.684,1.324,1.336,1.336,0,0,0,.426,1.07A1.767,1.767,0,0,0,178.166,16.086Zm9.984,1.07a3.654,3.654,0,0,1-2.879-1.145,4.707,4.707,0,0,1-1.02-3.238,4.853,4.853,0,0,1,1.035-3.32,3.727,3.727,0,0,1,2.949-1.172,5.852,5.852,0,0,1,1.234.133,4.066,4.066,0,0,1,.969.313l-.4,1.1a6.1,6.1,0,0,0-.937-.285,4.186,4.186,0,0,0-.9-.113q-2.609,0-2.609,3.328a3.963,3.963,0,0,0,.637,2.422,2.215,2.215,0,0,0,1.887.844,5.769,5.769,0,0,0,2.2-.461v1.148A4.679,4.679,0,0,1,188.15,17.156Zm6.961-1.07a4.236,4.236,0,0,0,.664-.051,4.3,4.3,0,0,0,.508-.105v.992a2.371,2.371,0,0,1-.621.168,4.664,4.664,0,0,1-.738.066q-2.484,0-2.484-2.617V9.445h-1.227V8.82l1.227-.539.547-1.828h.75V8.438h2.484V9.445h-2.484v5.039a1.733,1.733,0,0,0,.367,1.188A1.278,1.278,0,0,0,195.111,16.086Zm10.273-3.375a4.724,4.724,0,0,1-1.055,3.27,3.714,3.714,0,0,1-2.914,1.176,3.86,3.86,0,0,1-2.039-.539A3.558,3.558,0,0,1,198,15.07a5.391,5.391,0,0,1-.484-2.359,4.716,4.716,0,0,1,1.047-3.262,3.7,3.7,0,0,1,2.906-1.168,3.622,3.622,0,0,1,2.855,1.2A4.7,4.7,0,0,1,205.385,12.711Zm-6.523,0a4.064,4.064,0,0,0,.656,2.5,2.6,2.6,0,0,0,3.863,0,4.043,4.043,0,0,0,.66-2.5,3.978,3.978,0,0,0-.66-2.48,2.32,2.32,0,0,0-1.949-.848,2.283,2.283,0,0,0-1.922.836A4.023,4.023,0,0,0,198.861,12.711Z" transform="translate(740.197 3054.347)" fill="#0f231a"/><path d="M16.333,16.768q0,4.256-1.342,6.356a4.534,4.534,0,0,1-4.1,2.1,4.5,4.5,0,0,1-4.032-2.151,11.752,11.752,0,0,1-1.381-6.306q0-4.29,1.336-6.368a4.513,4.513,0,0,1,4.077-2.078,4.52,4.52,0,0,1,4.06,2.167A11.7,11.7,0,0,1,16.333,16.768Zm-8.973,0A12.025,12.025,0,0,0,8.2,21.985a2.817,2.817,0,0,0,2.684,1.634,2.819,2.819,0,0,0,2.7-1.656,12.118,12.118,0,0,0,.837-5.194,12.037,12.037,0,0,0-.837-5.183,2.821,2.821,0,0,0-2.7-1.645A2.819,2.819,0,0,0,8.2,11.563,11.945,11.945,0,0,0,7.36,16.768Zm21.417-4.324a3.744,3.744,0,0,1-.882,2.572,4.414,4.414,0,0,1-2.5,1.336v.09A4.7,4.7,0,0,1,28.328,17.7a3.7,3.7,0,0,1,.955,2.65,4.3,4.3,0,0,1-1.628,3.611,7.406,7.406,0,0,1-4.627,1.263,13.41,13.41,0,0,1-2.386-.2,8.167,8.167,0,0,1-2.106-.691V22.563a10.754,10.754,0,0,0,4.56,1.078q4.256,0,4.256-3.335,0-2.987-4.694-2.987H21.039V15.712h1.64a4.937,4.937,0,0,0,3.043-.848,2.782,2.782,0,0,0,1.123-2.353,2.319,2.319,0,0,0-.825-1.887,3.4,3.4,0,0,0-2.24-.685,6.913,6.913,0,0,0-2.033.292,9.1,9.1,0,0,0-2.179,1.078l-.943-1.258A7.865,7.865,0,0,1,20.955,8.8a8.469,8.469,0,0,1,2.78-.455A5.679,5.679,0,0,1,27.452,9.44,3.687,3.687,0,0,1,28.777,12.444Z" transform="translate(839.339 2903.666)" fill="#0f231a"/><path d="M1237.183,3096.052h-247.3l10.435-29.471-10.435-29.471h247.3l10.435,29.471Z" fill="#78958a" opacity="0.4"/><rect width="1.364" height="49.555" transform="translate(1118.397 2976.432)" fill="#363636"/><path d="M1116.522,3025.987a2.557,2.557,0,1,1,2.557,2.557A2.557,2.557,0,0,1,1116.522,3025.987Z" fill="#363636"/><circle cx="43.16" cy="43.16" r="43.16" transform="translate(1075.918 2875.553)" fill="#fff"/><path d="M1117.172,2916.716q0,4.434-1.425,6.586a5.382,5.382,0,0,1-8.662-.07,11.891,11.891,0,0,1-1.465-6.516q0-4.5,1.425-6.637a5.386,5.386,0,0,1,8.662.1A11.974,11.974,0,0,1,1117.172,2916.716Zm-8.784,0a12.387,12.387,0,0,0,.716,4.968,2.5,2.5,0,0,0,4.584-.023,17.2,17.2,0,0,0,0-9.895,2.491,2.491,0,0,0-4.584-.029A12.48,12.48,0,0,0,1108.388,2916.716Z" fill="#4c1000"/><path d="M1127.271,2925.221h-2.734v-10.983q0-1.965.093-3.118-.267.28-.657.617t-2.612,2.141l-1.373-1.734,5-3.932h2.28Z" fill="#4c1000"/><circle cx="54.7" cy="54.7" r="54.7" transform="translate(1064.374 2868.473)" fill="#a3bd31"/><circle cx="43.16" cy="43.16" r="43.16" transform="translate(1075.918 2880.014)" fill="#fff"/><path d="M45.053,6.6A3.735,3.735,0,0,0,42.08,7.855a5.058,5.058,0,0,0-1.09,3.434,5.159,5.159,0,0,0,1.051,3.465,3.735,3.735,0,0,0,3,1.223,10.23,10.23,0,0,0,2.727-.43v1.164a8.4,8.4,0,0,1-2.93.445,4.956,4.956,0,0,1-3.895-1.531,6.306,6.306,0,0,1-1.371-4.352,6.868,6.868,0,0,1,.66-3.094,4.739,4.739,0,0,1,1.906-2.047,5.77,5.77,0,0,1,2.934-.719,7.078,7.078,0,0,1,3.141.656l-.562,1.141A6.053,6.053,0,0,0,45.053,6.6Zm8.914,1.68a5.075,5.075,0,0,1,1.023.094l-.18,1.2a4.418,4.418,0,0,0-.937-.117A2.282,2.282,0,0,0,52.1,10.3a3.077,3.077,0,0,0-.738,2.1V17h-1.3V8.438h1.07l.148,1.586h.063A3.764,3.764,0,0,1,52.49,8.734,2.585,2.585,0,0,1,53.967,8.281Zm5.922,8.875a3.934,3.934,0,0,1-3-1.156,4.476,4.476,0,0,1-1.1-3.211A4.964,4.964,0,0,1,56.815,9.5a3.387,3.387,0,0,1,2.738-1.219A3.229,3.229,0,0,1,62.1,9.34a4.057,4.057,0,0,1,.938,2.793v.82h-5.9a3.394,3.394,0,0,0,.762,2.289,2.634,2.634,0,0,0,2.035.781,6.9,6.9,0,0,0,2.734-.578V16.6a6.863,6.863,0,0,1-1.3.426A7.31,7.31,0,0,1,59.889,17.156Zm-.352-7.789a2.118,2.118,0,0,0-1.645.672A3.1,3.1,0,0,0,57.17,11.9h4.477A2.851,2.851,0,0,0,61.1,10.02,1.925,1.925,0,0,0,59.537,9.367ZM70.514,17l-.258-1.219h-.062a3.6,3.6,0,0,1-1.277,1.09,3.893,3.893,0,0,1-1.59.285,2.86,2.86,0,0,1-2-.656,2.394,2.394,0,0,1-.723-1.867q0-2.594,4.148-2.719l1.453-.047v-.531a2.171,2.171,0,0,0-.434-1.488,1.783,1.783,0,0,0-1.387-.48,5.65,5.65,0,0,0-2.422.656l-.4-.992a6.094,6.094,0,0,1,1.387-.539,6.006,6.006,0,0,1,1.512-.2,3.262,3.262,0,0,1,2.27.68,2.837,2.837,0,0,1,.738,2.18V17Zm-2.93-.914a2.632,2.632,0,0,0,1.9-.664,2.457,2.457,0,0,0,.691-1.859v-.773l-1.3.055a4.717,4.717,0,0,0-2.23.48,1.449,1.449,0,0,0-.684,1.324,1.336,1.336,0,0,0,.426,1.07A1.767,1.767,0,0,0,67.584,16.086Zm9.984,1.07a3.654,3.654,0,0,1-2.879-1.145,4.707,4.707,0,0,1-1.02-3.238,4.853,4.853,0,0,1,1.035-3.32,3.727,3.727,0,0,1,2.949-1.172,5.852,5.852,0,0,1,1.234.133,4.066,4.066,0,0,1,.969.313l-.4,1.1a6.1,6.1,0,0,0-.937-.285,4.186,4.186,0,0,0-.9-.113q-2.609,0-2.609,3.328a3.963,3.963,0,0,0,.637,2.422,2.215,2.215,0,0,0,1.887.844,5.769,5.769,0,0,0,2.2-.461v1.148A4.679,4.679,0,0,1,77.568,17.156ZM83.061,17h-1.3V8.438h1.3ZM81.654,6.117a.861.861,0,0,1,.219-.652.81.81,0,0,1,1.086,0,.846.846,0,0,1,.227.648.859.859,0,0,1-.227.652.794.794,0,0,1-1.086,0A.877.877,0,0,1,81.654,6.117ZM93.2,12.711a4.724,4.724,0,0,1-1.055,3.27,3.714,3.714,0,0,1-2.914,1.176,3.86,3.86,0,0,1-2.039-.539,3.558,3.558,0,0,1-1.375-1.547,5.391,5.391,0,0,1-.484-2.359,4.716,4.716,0,0,1,1.047-3.262,3.7,3.7,0,0,1,2.906-1.168,3.622,3.622,0,0,1,2.855,1.2A4.7,4.7,0,0,1,93.2,12.711Zm-6.523,0a4.064,4.064,0,0,0,.656,2.5,2.6,2.6,0,0,0,3.863,0,4.043,4.043,0,0,0,.66-2.5,3.978,3.978,0,0,0-.66-2.48,2.32,2.32,0,0,0-1.949-.848,2.283,2.283,0,0,0-1.922.836A4.023,4.023,0,0,0,86.678,12.711Zm1.5-5.6q.375-.484.809-1.172a13.411,13.411,0,0,0,.684-1.2h1.578v.164a11.549,11.549,0,0,1-1.023,1.25A11.619,11.619,0,0,1,89.045,7.3h-.867ZM101.334,17V11.461a2.235,2.235,0,0,0-.477-1.562,1.941,1.941,0,0,0-1.492-.516,2.461,2.461,0,0,0-1.969.727,3.668,3.668,0,0,0-.625,2.4V17h-1.3V8.438h1.055l.211,1.172H96.8a2.648,2.648,0,0,1,1.117-.98,3.63,3.63,0,0,1,1.6-.348,3.252,3.252,0,0,1,2.328.746,3.175,3.175,0,0,1,.781,2.387V17Zm13.945-1.148h-.07a3.047,3.047,0,0,1-2.687,1.3,3.179,3.179,0,0,1-2.613-1.148,5.055,5.055,0,0,1-.934-3.266,5.141,5.141,0,0,1,.938-3.289,3.155,3.155,0,0,1,2.609-1.172,3.114,3.114,0,0,1,2.672,1.266h.1l-.055-.617-.031-.6V4.844h1.3V17h-1.055Zm-2.594.219a2.361,2.361,0,0,0,1.926-.723,3.652,3.652,0,0,0,.6-2.332v-.273a4.3,4.3,0,0,0-.605-2.6,2.3,2.3,0,0,0-1.934-.777,1.985,1.985,0,0,0-1.746.887,4.409,4.409,0,0,0-.605,2.5,4.227,4.227,0,0,0,.6,2.477A2.037,2.037,0,0,0,112.686,16.07Zm10.188,1.086a3.934,3.934,0,0,1-3-1.156,4.476,4.476,0,0,1-1.1-3.211A4.964,4.964,0,0,1,119.8,9.5a3.387,3.387,0,0,1,2.738-1.219,3.229,3.229,0,0,1,2.547,1.059,4.057,4.057,0,0,1,.938,2.793v.82h-5.9a3.394,3.394,0,0,0,.762,2.289,2.635,2.635,0,0,0,2.035.781,6.9,6.9,0,0,0,2.734-.578V16.6a6.863,6.863,0,0,1-1.3.426A7.31,7.31,0,0,1,122.873,17.156Zm-.352-7.789a2.118,2.118,0,0,0-1.645.672,3.1,3.1,0,0,0-.723,1.859h4.477a2.851,2.851,0,0,0-.547-1.879A1.925,1.925,0,0,0,122.522,9.367ZM129.529,17h-1.3V4.844h1.3Zm8.125-8.562v5.555a2.235,2.235,0,0,0,.477,1.563,1.941,1.941,0,0,0,1.492.516,2.435,2.435,0,0,0,1.965-.734,3.7,3.7,0,0,0,.621-2.4v-4.5h1.3V17h-1.07l-.187-1.148h-.07a2.585,2.585,0,0,1-1.105.969,3.716,3.716,0,0,1-1.613.336,3.273,3.273,0,0,1-2.34-.742,3.159,3.159,0,0,1-.777-2.375v-5.6Zm14.125,6.227a2.145,2.145,0,0,1-.891,1.844,4.186,4.186,0,0,1-2.5.648,5.436,5.436,0,0,1-2.656-.539v-1.2a6.423,6.423,0,0,0,1.324.492,5.53,5.53,0,0,0,1.363.18,3.092,3.092,0,0,0,1.563-.324,1.116,1.116,0,0,0,.113-1.844,6.82,6.82,0,0,0-1.691-.84,9.172,9.172,0,0,1-1.7-.777,2.321,2.321,0,0,1-.75-.754,1.966,1.966,0,0,1-.246-1.008,1.921,1.921,0,0,1,.852-1.652,3.968,3.968,0,0,1,2.336-.605,6.835,6.835,0,0,1,2.7.563L151.139,9.9a6.2,6.2,0,0,0-2.336-.531,2.688,2.688,0,0,0-1.391.289.894.894,0,0,0-.469.8.971.971,0,0,0,.176.586,1.735,1.735,0,0,0,.566.461,12.659,12.659,0,0,0,1.5.633,5.6,5.6,0,0,1,2.059,1.117A1.97,1.97,0,0,1,151.779,14.664Zm3.328-6.227v5.555a2.235,2.235,0,0,0,.477,1.563,1.941,1.941,0,0,0,1.492.516,2.435,2.435,0,0,0,1.965-.734,3.7,3.7,0,0,0,.621-2.4v-4.5h1.3V17h-1.07l-.187-1.148h-.07a2.585,2.585,0,0,1-1.105.969,3.716,3.716,0,0,1-1.613.336,3.273,3.273,0,0,1-2.34-.742,3.159,3.159,0,0,1-.777-2.375v-5.6ZM168.975,17l-.258-1.219h-.062a3.6,3.6,0,0,1-1.277,1.09,3.893,3.893,0,0,1-1.59.285,2.86,2.86,0,0,1-2-.656,2.394,2.394,0,0,1-.723-1.867q0-2.594,4.148-2.719l1.453-.047v-.531a2.171,2.171,0,0,0-.434-1.488,1.783,1.783,0,0,0-1.387-.48,5.65,5.65,0,0,0-2.422.656l-.4-.992a6.094,6.094,0,0,1,1.387-.539,6.006,6.006,0,0,1,1.512-.2,3.262,3.262,0,0,1,2.27.68,2.837,2.837,0,0,1,.738,2.18V17Zm-2.93-.914a2.632,2.632,0,0,0,1.9-.664,2.457,2.457,0,0,0,.691-1.859v-.773l-1.3.055a4.717,4.717,0,0,0-2.23.48,1.449,1.449,0,0,0-.684,1.324,1.336,1.336,0,0,0,.426,1.07A1.767,1.767,0,0,0,166.045,16.086Zm10.469-7.8a5.075,5.075,0,0,1,1.023.094l-.18,1.2a4.418,4.418,0,0,0-.937-.117,2.282,2.282,0,0,0-1.777.844,3.077,3.077,0,0,0-.738,2.1V17h-1.3V8.438h1.07l.148,1.586h.063a3.764,3.764,0,0,1,1.148-1.289A2.585,2.585,0,0,1,176.514,8.281ZM180.436,17h-1.3V8.438h1.3ZM179.029,6.117a.861.861,0,0,1,.219-.652.81.81,0,0,1,1.086,0,.846.846,0,0,1,.227.648.859.859,0,0,1-.227.652.794.794,0,0,1-1.086,0A.877.877,0,0,1,179.029,6.117Zm11.547,6.594a4.724,4.724,0,0,1-1.055,3.27,3.714,3.714,0,0,1-2.914,1.176,3.86,3.86,0,0,1-2.039-.539,3.558,3.558,0,0,1-1.375-1.547,5.391,5.391,0,0,1-.484-2.359,4.716,4.716,0,0,1,1.047-3.262,3.7,3.7,0,0,1,2.906-1.168,3.622,3.622,0,0,1,2.855,1.2A4.7,4.7,0,0,1,190.576,12.711Zm-6.523,0a4.064,4.064,0,0,0,.656,2.5,2.6,2.6,0,0,0,3.863,0,4.043,4.043,0,0,0,.66-2.5,3.978,3.978,0,0,0-.66-2.48,2.32,2.32,0,0,0-1.949-.848,2.283,2.283,0,0,0-1.922.836A4.023,4.023,0,0,0,184.053,12.711Z" transform="translate(1003.139 3054.347)" fill="#0f231a"/><path d="M16.333,16.768q0,4.256-1.342,6.356a4.534,4.534,0,0,1-4.1,2.1,4.5,4.5,0,0,1-4.032-2.151,11.752,11.752,0,0,1-1.381-6.306q0-4.29,1.336-6.368a4.513,4.513,0,0,1,4.077-2.078,4.52,4.52,0,0,1,4.06,2.167A11.7,11.7,0,0,1,16.333,16.768Zm-8.973,0A12.025,12.025,0,0,0,8.2,21.985a2.817,2.817,0,0,0,2.684,1.634,2.819,2.819,0,0,0,2.7-1.656,12.118,12.118,0,0,0,.837-5.194,12.037,12.037,0,0,0-.837-5.183,2.821,2.821,0,0,0-2.7-1.645A2.819,2.819,0,0,0,8.2,11.563,11.945,11.945,0,0,0,7.36,16.768Zm22.809,4.458H27.732V25H25.947V21.227H17.962V19.6L25.756,8.491h1.977v11.04h2.437Zm-4.223-1.7V14.073q0-1.606.112-3.627h-.09a16.875,16.875,0,0,1-1.011,1.786l-5.132,7.3Z" transform="translate(1102.281 2903.666)" fill="#0f231a"/></g></svg>