<svg xmlns="http://www.w3.org/2000/svg" width="152.443" height="152.444" viewBox="0 0 152.443 152.444"><g transform="translate(-1022.766 -3793.555)"><path d="M1098.987,3793.555q3.745,0,7.471.367t7.4,1.1q3.673.731,7.256,1.817t7.043,2.52q3.459,1.434,6.762,3.2t6.416,3.845q3.113,2.081,6.008,4.456t5.542,5.023q2.648,2.648,5.023,5.542t4.456,6.008q2.08,3.114,3.846,6.416t3.2,6.762q1.433,3.461,2.52,7.043t1.817,7.256q.73,3.672,1.1,7.4t.367,7.471q0,3.744-.367,7.471t-1.1,7.4q-.731,3.672-1.817,7.256t-2.52,7.043q-1.434,3.459-3.2,6.762t-3.846,6.415q-2.081,3.114-4.456,6.009t-5.023,5.542q-2.648,2.647-5.542,5.023t-6.008,4.456q-3.114,2.08-6.416,3.845t-6.762,3.2q-3.459,1.434-7.043,2.52t-7.256,1.818q-3.672.731-7.4,1.1t-7.471.368q-3.744,0-7.471-.368t-7.4-1.1q-3.672-.73-7.256-1.818t-7.043-2.52q-3.459-1.433-6.761-3.2t-6.416-3.845q-3.114-2.08-6.008-4.456t-5.543-5.023q-2.648-2.648-5.023-5.542t-4.456-6.009q-2.08-3.112-3.845-6.415t-3.2-6.762q-1.434-3.461-2.52-7.043t-1.818-7.256q-.73-3.672-1.1-7.4t-.367-7.471q0-3.744.367-7.471t1.1-7.4q.731-3.672,1.818-7.256t2.52-7.043q1.432-3.459,3.2-6.762t3.845-6.416q2.081-3.112,4.456-6.008t5.023-5.542q2.649-2.647,5.543-5.023t6.008-4.456q3.112-2.08,6.416-3.845t6.761-3.2q3.461-1.432,7.043-2.52t7.256-1.817q3.674-.731,7.4-1.1T1098.987,3793.555Z" fill="#a3bd31"/><circle cx="71.597" cy="71.597" r="71.597" transform="translate(1027.391 3798.18)" fill="#fff"/><circle cx="65.13" cy="65.13" r="65.13" transform="translate(1033.857 3804.647)" fill="#78958a"/><path d="M1128.628,3849.794h-28.041v-4.36h28.041v4.36Zm-7.454,7.617h-20.587v-4.362h20.587v4.362Zm8.279-4.859a5.5,5.5,0,0,0-3.195,2.668l-12.821,18.314c-2.9,4.138-4.383,6.676-10.057,7.178-1.876.111-4.971.436-6.69-.424a5.09,5.09,0,0,1-1.734-1.193,16.725,16.725,0,0,0,2.712-5.295l.661-.386.129-.354a18.362,18.362,0,0,0,1.18-7.367l-.026-.48-.461-.354c.1-2.159-.042-5.276-.983-7.013-1.7-3.135-5.905-5.332-9.426-5.364h-1.19c-3.512.032-7.718,2.229-9.417,5.364-.942,1.737-1.085,4.854-.983,7.013l-.461.354-.026.48a18.379,18.379,0,0,0,1.179,7.367l.13.354.662.388a15.126,15.126,0,0,0,2.984,5.273,7.308,7.308,0,0,1-2.678,1.77c-3.707,1.574-7.386,3.215-11.093,4.789-5.153,1.938-5.459,14.18-5.459,18.835l.039,2.739h46.217a14.8,14.8,0,0,1,1.23-5.6,38.471,38.471,0,0,1,3.826-7.463l22.562-35.251a5.02,5.02,0,0,0-2.7-5.859l1.541-2.49a1.875,1.875,0,0,0-3.191-1.971l-2.461,3.976Z" fill="#fff" fill-rule="evenodd" opacity="0.8"/></g></svg>