<svg xmlns="http://www.w3.org/2000/svg" width="152.443" height="152.443" viewBox="0 0 152.443 152.443"><g transform="translate(-649.732 -4092.346)"><path d="M725.954,4092.346q3.744,0,7.471.367t7.4,1.1q3.672.731,7.256,1.818t7.043,2.52q3.459,1.433,6.761,3.2t6.416,3.845q3.114,2.081,6.008,4.456t5.543,5.023q2.648,2.649,5.023,5.543t4.456,6.008q2.08,3.112,3.845,6.416t3.2,6.762q1.434,3.459,2.52,7.042t1.818,7.256q.73,3.674,1.1,7.4t.367,7.471q0,3.746-.367,7.471t-1.1,7.4q-.73,3.674-1.818,7.256t-2.52,7.043q-1.432,3.459-3.2,6.762t-3.845,6.415q-2.081,3.114-4.456,6.009t-5.023,5.542q-2.649,2.648-5.543,5.023t-6.008,4.456q-3.113,2.081-6.416,3.846t-6.761,3.2q-3.461,1.433-7.043,2.52t-7.256,1.817q-3.673.73-7.4,1.1t-7.471.367q-3.744,0-7.471-.367t-7.4-1.1q-3.673-.731-7.256-1.817t-7.043-2.52q-3.459-1.434-6.762-3.2t-6.416-3.846q-3.113-2.08-6.008-4.456t-5.542-5.023q-2.648-2.647-5.023-5.542t-4.456-6.009q-2.081-3.113-3.846-6.415t-3.2-6.762q-1.433-3.458-2.52-7.043t-1.817-7.256q-.73-3.672-1.1-7.4t-.367-7.471q0-3.744.367-7.471t1.1-7.4q.73-3.672,1.817-7.256t2.52-7.042q1.434-3.461,3.2-6.762t3.846-6.416q2.081-3.114,4.456-6.008t5.023-5.543q2.648-2.648,5.542-5.023t6.008-4.456q3.114-2.08,6.416-3.845t6.762-3.2q3.459-1.434,7.043-2.52t7.256-1.818q3.672-.731,7.4-1.1T725.954,4092.346Z" fill="#a3bd31"/><circle cx="71.597" cy="71.597" r="71.597" transform="translate(654.357 4096.971)" fill="#fff"/><circle cx="65.13" cy="65.13" r="65.13" transform="translate(660.824 4103.437)" fill="#78958a"/><path d="M742.63,4136.1c5.277-4.419,12.246-5.843,18.207-1.423,7.134,5.29,6.647,14.366,2.19,21.239l-1.672,2.577A36.425,36.425,0,1,1,742.63,4136.1Zm-15.61,32.288c-.392.41-1.117,1.172-1.732.76l-16.457-11.018a2.76,2.76,0,0,0-3.337-.224c-1.708,1.42-.087,3.9.876,5.215l16.737,22.86a4.476,4.476,0,0,0,3.187,2.068c2.1.152,3.639-1.665,4.67-3.254l22.682-34.965c1.02-1.573,2.51-4.7.531-6.169-1.8-1.337-4.008.547-5.214,1.807l-21.943,22.92Zm-.642-28.653A28.956,28.956,0,1,0,753.11,4157.5l3.664-5.648c2.2-3.385,3.475-8.338-.376-11.193-3.571-2.648-7.488-.534-10.128,2.224l-2.517,2.63A28.859,28.859,0,0,0,726.378,4139.733Z" fill="#fff" fill-rule="evenodd" opacity="0.8"/></g></svg>