<svg xmlns="http://www.w3.org/2000/svg" width="40" height="43.968" viewBox="0 0 40 43.968"><g transform="translate(-1946.67 -2969.511)"><path d="M1969.488,2979.316h4.06l-6.259-6.588v4.38A2.212,2.212,0,0,0,1969.488,2979.316Z" fill="#fff"/><path d="M1954.074,2986.83h9.283a.917.917,0,1,1,0,1.833h-9.283a.917.917,0,0,1,0-1.833Zm0,6.424a.916.916,0,1,1,0-1.832h11.639a12.782,12.782,0,0,1,8.357-3.153c.238,0,.458.028.733.037v-7.157h-5.315a4.04,4.04,0,0,1-4.032-4.041v-5.764h-13.874a3.1,3.1,0,0,0-3.079,3.124v27.968a3.07,3.07,0,0,0,3.079,3.089v.009h10.767a12.581,12.581,0,0,1-.55-7.606h-7.725a.917.917,0,0,1,0-1.833h8.321a14.62,14.62,0,0,1,1.613-2.841Z" fill="#fff"/><path d="M1980.082,3001.942l-5.371,5.764a.909.909,0,0,1-1.337,0l-5.361-5.764a.914.914,0,0,1,.045-1.293.925.925,0,0,1,1.3.046l3.794,4.06v-10.007a.917.917,0,0,1,1.833,0v10.007l3.766-4.06a.912.912,0,1,1,1.33,1.247Zm-6.021-11.822a10.767,10.767,0,1,0,10.767,10.768A10.773,10.773,0,0,0,1974.061,2990.12Z" fill="#f7ec45"/><path d="M1974.061,3011.655a10.767,10.767,0,1,1,10.767-10.767A10.779,10.779,0,0,1,1974.061,3011.655Zm-11.666-15.56h-8.321a.917.917,0,0,0,0,1.833h7.725a12.348,12.348,0,0,0-.348,2.951,12.221,12.221,0,0,0,.9,4.655h-10.767v-.009a3.07,3.07,0,0,1-3.079-3.088v-27.969a3.1,3.1,0,0,1,3.079-3.124h13.874v5.764a4.04,4.04,0,0,0,4.032,4.041h5.315v7.157c-.275-.009-.495-.037-.733-.037a12.782,12.782,0,0,0-8.357,3.153h-11.639a.916.916,0,1,0,0,1.832h9.934A14.62,14.62,0,0,0,1962.4,2996.095Zm4.894-23.368,6.259,6.589h-4.06a2.213,2.213,0,0,1-2.2-2.208Zm9.347,15.817v-8.321a.961.961,0,0,0-.266-.632l-9.329-9.8a.93.93,0,0,0-.669-.284h-14.79a4.928,4.928,0,0,0-4.912,4.957v27.969a4.9,4.9,0,0,0,4.912,4.921h11.675a12.6,12.6,0,1,0,13.379-18.814Z" fill="#0f231a"/><path d="M1954.075,2988.663h9.282a.916.916,0,1,0,0-1.832h-9.282a.916.916,0,1,0,0,1.832Z" fill="#70a83b"/><path d="M1978.752,3000.7l-3.766,4.06v-10.007a.917.917,0,0,0-1.833,0v10.007l-3.794-4.06a.925.925,0,0,0-1.3-.045.913.913,0,0,0-.045,1.292l5.361,5.764a.909.909,0,0,0,1.337,0l5.371-5.764a.912.912,0,1,0-1.33-1.247Z" fill="#70a83b"/></g></svg>