<svg xmlns="http://www.w3.org/2000/svg" width="152.443" height="152.443" viewBox="0 0 152.443 152.443"><g transform="translate(-370.083 -7886.525)"><path d="M1973.232,7887.122q3.744,0,7.471.367t7.4,1.1q3.673.731,7.256,1.817t7.043,2.52q3.459,1.433,6.762,3.2t6.415,3.846q3.114,2.081,6.009,4.456t5.542,5.023q2.648,2.648,5.023,5.542t4.456,6.008q2.08,3.114,3.846,6.416t3.2,6.762q1.433,3.459,2.519,7.043t1.818,7.255q.731,3.673,1.1,7.4t.367,7.472q0,3.743-.367,7.47t-1.1,7.4q-.731,3.672-1.818,7.256t-2.519,7.042q-1.434,3.46-3.2,6.762t-3.846,6.416q-2.081,3.113-4.456,6.008t-5.023,5.542q-2.648,2.648-5.542,5.024t-6.009,4.455q-3.112,2.08-6.415,3.846t-6.762,3.2q-3.461,1.432-7.043,2.52t-7.256,1.817q-3.672.732-7.4,1.1t-7.471.367q-3.744,0-7.471-.367t-7.4-1.1q-3.672-.729-7.256-1.817t-7.043-2.52q-3.459-1.433-6.762-3.2t-6.415-3.846q-3.114-2.079-6.008-4.455t-5.543-5.024q-2.648-2.648-5.023-5.542t-4.456-6.008q-2.08-3.114-3.845-6.416t-3.2-6.762q-1.434-3.459-2.52-7.042t-1.818-7.256q-.73-3.673-1.1-7.4t-.367-7.47q0-3.746.367-7.472t1.1-7.4q.731-3.672,1.818-7.255t2.52-7.043q1.432-3.458,3.2-6.762t3.845-6.416q2.081-3.113,4.456-6.008t5.023-5.542q2.648-2.648,5.543-5.023t6.008-4.456q3.113-2.08,6.415-3.846t6.762-3.2q3.461-1.432,7.043-2.52t7.256-1.817q3.672-.73,7.4-1.1T1973.232,7887.122Z" transform="translate(-1526.928 -0.597)" fill="#a3bd31"/><circle cx="71.597" cy="71.597" r="71.597" transform="translate(374.707 7891.15)" fill="#fff"/><circle cx="65.13" cy="65.13" r="65.13" transform="translate(381.173 7897.617)" fill="#78958a"/><path d="M2003.619,7931.315h6.808v73.74h-58.341v-6.782h4.708v2.075h48.925v-64.327h-2.1v-4.707Zm-51.043.675v23.534H1972.1V7931.99Zm0,37.655v4.707h39.042v-4.707Zm23.916-37.654v4.706h15.125v-4.706Zm0,9.414v4.706h15.125V7941.4Zm0,9.413v4.706h15.125v-4.706Zm-23.917,9.413v4.707h39.042v-4.707Zm48.69-38.052h-58.339v61.451l11.729,12.289h46.61v-73.74Zm-4.707,4.707h-48.926v53.545h10.781v10.781h38.145Z" transform="translate(-1526.928 -0.597)" fill="#fff" fill-rule="evenodd" opacity="0.8"/></g></svg>