<svg xmlns="http://www.w3.org/2000/svg" xmlns:xlink="http://www.w3.org/1999/xlink" width="312.134" height="310.941" viewBox="0 0 312.134 310.941"><defs><clipPath id="a"><path d="M2129.29,8776.558c0-45.155-27.282-110.968,11.65-127.887,7.649-3.323,41.321-15.58,49.755-17.1,6.358-1.145,59.337-6.126,66.025-6.126,10.52,0,13.1,22.964,22.734,25.723,38.555,11.042,107.766,30.53,116.4,70.044,1.659,7.594-57.587,117.527-57.587,125.619,0,5.056-23.787,7.036-27.38,10.4-13.482,12.614-17.459,24.057-71.662,29.26-17.4,1.671-34-4.084-48.668-11.341l-6.909-3.725-9.039-5.36-7.993-6.965s-10.294,30.784-10.634,29.082-5.482-30.817-5.482-30.817l6.2-8.191A109.509,109.509,0,0,1,2129.29,8776.558Z" fill="none"/></clipPath></defs><g transform="translate(-556.825 -8620.491)"><path d="M2240.316,8641.8q-6.588,0-13.146.646t-13.02,1.932q-6.462,1.285-12.768,3.2t-12.393,4.434q-6.087,2.522-11.9,5.628t-11.29,6.768q-5.478,3.659-10.572,7.84t-9.752,8.84q-4.661,4.66-8.84,9.753t-7.841,10.572q-3.66,5.479-6.766,11.29t-5.628,11.9q-2.521,6.089-4.434,12.394t-3.2,12.768q-1.286,6.464-1.931,13.021t-.646,13.146q0,6.59.646,13.146t1.931,13.02q1.285,6.464,3.2,12.769t4.434,12.393q2.522,6.089,5.627,11.9t6.767,11.29q3.662,5.477,7.841,10.571t8.84,9.753q4.659,4.66,9.752,8.84t10.572,7.841q5.479,3.659,11.29,6.767t11.9,5.627q6.087,2.522,12.393,4.436t12.768,3.2q6.462,1.286,13.02,1.932t13.146.646q6.59,0,13.147-.646t13.02-1.932q6.462-1.285,12.768-3.2t12.393-4.436q6.087-2.521,11.9-5.627t11.289-6.767q5.48-3.662,10.573-7.841t9.752-8.84q4.66-4.66,8.84-9.753t7.841-10.571q3.66-5.48,6.766-11.29t5.628-11.9q2.522-6.086,4.434-12.393t3.2-12.769q1.285-6.461,1.931-13.02t.646-13.146q0-6.589-.646-13.146t-1.931-13.021q-1.285-6.461-3.2-12.768t-4.434-12.394q-2.521-6.086-5.628-11.9t-6.766-11.29q-3.661-5.48-7.841-10.572t-8.84-9.753q-4.659-4.658-9.752-8.84t-10.573-7.84q-5.478-3.662-11.289-6.768t-11.9-5.628q-6.087-2.521-12.393-4.434t-12.768-3.2q-6.462-1.285-13.02-1.932T2240.316,8641.8Z" transform="translate(-1526.928 -0.597)" fill="#a3bd31"/><circle cx="119.699" cy="119.699" r="119.699" transform="translate(592.597 8656.724)" fill="#fff"/><g transform="translate(-1526.928 -0.597)"><g opacity="0.5"><circle cx="109.934" cy="109.934" r="109.934" transform="translate(2083.754 8776.559) rotate(-45)" fill="#f2e75a"/></g><g clip-path="url(#a)"><path d="M2136.073,8662.453a2.553,2.553,0,0,1,2.215,2.769v-4.43c0-1.53.834-2.77,2.216-2.77s2.215,1.239,2.215,2.77v-3.877a2.506,2.506,0,1,1,4.984,0v3.323a2.506,2.506,0,1,1,4.985,0v20.654l5.052-4.8a2.9,2.9,0,0,1,4.1-.146l.04.067a2.949,2.949,0,0,1-.444,4.128L2153,8690.7c-2.077,3.254-4.8,6.646-9.811,6.646a9.339,9.339,0,0,1-9.326-9.415v-22.707A2.552,2.552,0,0,1,2136.073,8662.453Z" fill="#e4a083"/><path d="M2132.566,8703.519l1.292-10.114c10.8-3.869,17.438,1.312,17.438,1.312.18,3.148.34,6.253.377,9.08C2147.654,8702.628,2141.242,8702.273,2132.566,8703.519Z" fill="#e7e9ed"/><path d="M2189.847,8750.83a283.471,283.471,0,0,1-33.72-6.662s-3.061-32.49-3.623-42.68a27.928,27.928,0,0,0-20.075-1.168s-11.055,50.814,8.329,67.069c0,0,9.094,8.745,57.466,27.974C2198.224,8795.363,2198.224,8770.44,2189.847,8750.83Z" fill="#2c2d2f"/><ellipse cx="86.843" cy="9.415" rx="86.843" ry="9.415" transform="translate(2154.756 9107.275)" opacity="0.1"/><path d="M2268.183,9111.6h31.568s1.854-8.4-4.734-19.475l-21.27.268S2267.629,9101.077,2268.183,9111.6Z" fill="#2c2d2f"/><rect width="31.568" height="4.984" transform="translate(2268.438 9111.6)" fill="#1b1c1c"/><path d="M2295.874,9102.811c0,2.159-5.332,3.91-11.907,3.91s-11.908-1.751-11.908-3.91,5.332-3.911,11.908-3.911S2295.874,9100.651,2295.874,9102.811Z" fill="#4a4b4d"/><path d="M2236.753,9090.191s2.445,12.547.6,21.408h-59.445s-2.03-12.9,23.815-12.871l16.58-11.207Z" fill="#2c2d2f"/><path d="M2237.424,9116.584H2217.3l-.242-3.444a54.84,54.84,0,0,1-19.281,3.339c-5.481,0-19.612.212-19.612.212V9111.6h59.26Z" fill="#1b1c1c"/><path d="M2200.054,9098.8s-.874,9.159-21.386,8.725C2178.668,9107.525,2181.494,9099.187,2200.054,9098.8Z" fill="#4a4b4d"/><path d="M2207.261,8876.222l-1.107,215.9s16.153,8.116,31.383,1.781l5.819-171.866,4.5-.212,21.99,172.1s11.63,5.222,28.8-1.108l-17.428-216.6Z" fill="#2c2d2f"/><path d="M2206.579,9012.821l-.425,79.357s16.153,8.089,31.383,1.754l3.595-106.166C2232.607,9021.677,2214.083,9016.545,2206.579,9012.821Z" fill="#1b1c1c"/><path d="M2290.85,9000.256c-11.408,30.936-26.5,11.085-32.973.021l11.967,93.656s11.63,5.272,28.8-1.058Z" fill="#1b1c1c"/><path d="M2281.215,8876.222h-73.954l-.212,41.311a105.631,105.631,0,0,0,36.274,5.5l.033-.99,4.5-.212.132,1.037a128.551,128.551,0,0,0,36.381-7.461Z" fill="#1b1c1c"/><path d="M2233.383,8736.518s11.21-6.022,27.369.069l3.974,9.485h-34.614Z" fill="#b7babe"/><path d="M2230.527,8743.672s13.855-3.108,33.091,0l-19.522,51.691Z" fill="#e4a083"/><path d="M2235.84,8736.06l-.377,13.7,22.7.625.49-17.826A44.639,44.639,0,0,1,2235.84,8736.06Z" fill="#e4a083"/><path d="M2258.652,8732.561l.378-13.73-22.7-.624-.49,17.854A44.639,44.639,0,0,0,2258.652,8732.561Z" fill="#d78b73"/><path d="M2253.639,8749.948a3.888,3.888,0,0,0-2.136,2.839c-.148,1.2.956,6.923-.843,10.522s-7.118,22.084-7.118,22.084-2.215-19.522-3.046-22.153-.554-7.753.692-9.554-.692-3.738-.692-3.738l-9.462-7.938-8.745,4.686s-2.951,41.918,19.143,98.275c0,0,26.525-57.131,33.171-97.376l-12.6-5.585Z" fill="#e7e9ed"/><path d="M2303.628,8753.675s-18.518-4.91-34.265-8.342c-3.683,34.522-27.018,92.4-27.018,92.4s-17.988-73.106-18.282-92.4c-7.168,1.129-24.925,2.4-34.216,5.5,0,0,1.681,17.58,13.792,67.87,0,0,2.963,60.437,1.738,88.352,3.135,3.369,14.073,6.276,24.458,4.887,9.548-1.278,12.276-27.225,12.276-27.225s3.481,25.4,14.051,26.466c11.056,1.114,17.148-.344,29.521-5.051.428-13.246-4.036-65.479,1.1-86.239C2286.784,8819.89,2299.617,8770.488,2303.628,8753.675Z" fill="#2c2d2f"/><path d="M2267.638,8744.507l-5.632-2.5-8.367,7.938a4.113,4.113,0,0,0-.464.278l8.5,11.63S2266.343,8756.128,2267.638,8744.507Z" fill="#cacccf"/><path d="M2240.753,8750.248a3.778,3.778,0,0,0-.257-.3l-9.462-7.938-4.346,2.328c.077,2.843.591,11,6.47,17.887Z" fill="#cacccf"/><path d="M2233.383,8736.38l-5.764,5.815s-.518,7.614,5.764,15.646l7.113-7.893A22.962,22.962,0,0,1,2233.383,8736.38Z" fill="#eceff2"/><path d="M2260.752,8736.38l5.764,5.815s.518,7.614-5.764,15.646l-7.113-7.893A22.962,22.962,0,0,0,2260.752,8736.38Z" fill="#eceff2"/><path d="M2227.066,8743.118l-5.93,2.747s-2.624,10.176-5.409,32.605l7.732,3.6-5.532,5.409s13,35.02,23.944,53.02c0,0,21.47-31.569,29.224-51.783l-5.051-7.477,9.3-2.77s-1.054-25.231-2.719-32.416l-4.984-2.937s-3.022,30.354-25.377,89.905C2242.261,8833.023,2225.681,8767.025,2227.066,8743.118Z" fill="#1b1c1c"/><rect width="19.937" height="2.215" transform="matrix(0.998, -0.07, 0.07, 0.998, 2257.75, 8881.909)" fill="#1b1c1c"/><rect width="2.215" height="19.938" transform="matrix(0.015, -1, 1, 0.015, 2265.542, 8785.799)" fill="#1b1c1c"/><rect width="2.215" height="19.938" transform="translate(2209.014 8882.74) rotate(-86.098)" fill="#1b1c1c"/><path d="M2295.108,8857.832l-4.775-3.735-3.77.568c-3.462-1.32-4.9-3.717-6.646-4.078a15.466,15.466,0,0,1-4.406-2.349c-1.745,2.376,1.285,5.177,1.285,5.177-.243-.062-.484-.125-.728-.188-.6-.152-1.2-.309-1.794-.461-.763-.191-1.523-.4-2.288-.587-.738-.182-1.471-.393-2.213-.562a13.113,13.113,0,0,0-1.734-.334,7.422,7.422,0,0,0-1.814.127c-.758.112-4.775,1.308-5.446,1.425-.312.053-.96.162-.96.164a2.651,2.651,0,0,0-.086,2.257c.611,1.262,2.4,1.333,3.32,1.222a15.647,15.647,0,0,0,2.285-.556,1.859,1.859,0,0,1,1.419-.142,15.354,15.354,0,0,1,1.673.471q1.82.505,3.633,1.034l.827.24s-5.992.776-7.868,1.2c-1.4.317-5.493,3.867-5.493,3.867-2.954,2.534,1.4,3.8,1.4,3.8a1.851,1.851,0,0,0-.577,1.035,1.139,1.139,0,0,0,.366.771,2.775,2.775,0,0,0,1.158.689,4.38,4.38,0,0,0,2.416.269,5.451,5.451,0,0,0,.682-.2c.219-.077.437-.165.652-.256.274-.117.542-.245.811-.377a21.522,21.522,0,0,0,2.446-1.343c.095-.064.316-.285.43-.284l4.619-.031c-1.6.77-3.348,3.5-5.518,4.679a4.2,4.2,0,0,0-.938.654,1.435,1.435,0,0,0-.534,1.052c.032.4.4.54.669.664a4.608,4.608,0,0,0,2.786.26,5.834,5.834,0,0,0,1.445-.475,6.634,6.634,0,0,0,1-.582,3.658,3.658,0,0,0,.416-.322c2.959-2.966,6.158-4.363,10.046-2.093,5.6,3.272,10.564-5.075,10.564-5.075Z" fill="#e4a083"/><path d="M2306.09,8859.593l-8.457,6.116c-10.465-1.835-12.219-12.007-12.219-12.007,1.991-2.446,4.955-5.112,6.835-7.225C2293.342,8850.128,2296.573,8856.072,2306.09,8859.593Z" fill="#e7e9ed"/><path d="M2303.628,8753.675s9.731,1.245,35.415,56.824c0,0,13.157,20.05-33.822,50.568,0,0-14.337-4.234-13.756-15.348l22.649-25.889-23.471-26.263S2292.882,8766.978,2303.628,8753.675Z" fill="#2c2d2f"/><path d="M2218.084,8681.206s-11.121-15.107-11.121-17.765,13.489-25.412,18.513-21.1,7.244,10.13,26.627,5.007c0,0,5.536-2.075,10.8,3.186s11.631,8.41,9.969,12.928c0,0,6.842,4.334,5.775,9.964s-4.667,21.719-4.667,21.719l-20.5,10.219Z" fill="#b55f30"/><path d="M2265.577,8675.458c-2.215-6,7.292-11.994,7.292-11.994-17.631,9.512-35.63,1.2-48.809-5.6s-17.1,5.579-17.1,5.579c0,2.657,11.121,17.765,11.121,17.765l35.389,24.159,20.5-10.219s1.934-8.646,3.388-15.479C2272.724,8679.952,2266.922,8679.1,2265.577,8675.458Z" fill="#984a29"/><path d="M2233.009,8667.566a53.946,53.946,0,0,1-9.246-3.83c-4.892-2.585-6.867-4.44-9.969-3.231-5.862,2.284,7.015,16.984,7.015,16.984Z" fill="#853f24"/><path d="M2274.366,8669.6c-4.75,0-6.025-3.207-6.039-3.245a.415.415,0,0,1,.776-.3h0c.062.16,1.595,3.889,8.166,2.344a.415.415,0,1,1,.191.808A13.475,13.475,0,0,1,2274.366,8669.6Z" fill="#984a29"/><path d="M2275.534,8676.1c-8.639,0-10.795-7.1-10.818-7.178a.416.416,0,0,1,.8-.23c.091.316,2.372,7.741,12.249,6.424a.415.415,0,0,1,.11.823A17.7,17.7,0,0,1,2275.534,8676.1Z" fill="#984a29"/><path d="M2261.931,8668.125c-17.122,0-31.13-7.914-36.022-13.009-6.866-7.153-12.227-2.209-12.452-2a.416.416,0,1,1-.573-.6c.061-.057,6.192-5.721,13.624,2.021,4.889,5.093,19.1,13.058,36.4,12.745a.416.416,0,0,1,.015.831Q2262.426,8668.125,2261.931,8668.125Z" fill="#984a29"/><path d="M2267.85,8666.476l-.036,0c-29.5-2.586-38.4-13.187-42.2-17.713a5.855,5.855,0,0,0-4.146-2.4,5.791,5.791,0,0,0-3.9,1.531.415.415,0,1,1-.584-.591,6.545,6.545,0,0,1,4.52-1.77,6.644,6.644,0,0,1,4.744,2.7c3.733,4.448,12.475,14.864,41.636,17.422a.415.415,0,0,1-.036.828Z" fill="#984a29"/><path d="M2270.39,8665.1a.328.328,0,0,1-.054,0c-29.465-3.829-37.863-15.76-38.206-16.266a.415.415,0,1,1,.687-.467c.083.121,8.581,12.134,37.626,15.91a.415.415,0,0,1-.053.826Z" fill="#984a29"/><path d="M2271.467,8664.405a.418.418,0,0,1-.114-.017c-24.579-7.031-23.88-15.186-23.839-15.529a.415.415,0,0,1,.825.1c-.008.1-.466,7.852,23.242,14.635a.416.416,0,0,1-.114.815Z" fill="#984a29"/><path d="M2272.263,8663.741a.394.394,0,0,1-.141-.025c-13.928-5.042-12.223-14.516-12.2-14.61a.415.415,0,0,1,.814.16c-.069.36-1.555,8.881,11.672,13.669a.416.416,0,0,1-.141.807Z" fill="#984a29"/><path d="M2271.513,8692.9l-3.567,3.008c-.749-1.781-1.559-9.772-2.554-11.437-4.892-8.186-1.846-14.99-1.846-14.99-20.953,2.742-27.059-2.668-33.414-1.965-8.728.968-10.589,6.16-10.589,6.16-2.2,8.215-1.551,12.395-1.551,12.395-.017,9.733-.219,26.266,6.472,36.142,2.823,4.165,6.39,7.662,12.376,8.6,26.077,4.083,32.779-21.429,32.779-21.429s8.172,2.178,9.838-9.87C2280.838,8689.539,2271.513,8692.9,2271.513,8692.9Z" fill="#e4a083"/><path d="M2237.055,8672.247c10.984,3.765,20.861.033,23.907-1.009a13.249,13.249,0,0,0,3.5,11.5c-3.536-7.39-.916-13.253-.916-13.253-20.953,2.742-27.059-2.668-33.414-1.965-8.728.968-10.589,6.16-10.589,6.16-.1.378-.191.738-.281,1.1C2222.7,8672.669,2229.449,8669.639,2237.055,8672.247Z" fill="#d78b73"/><path d="M2267.636,8706.381c-2.215,6.461-10.476,22.383-28.294,21.414-9.643-.523-14.536-6.886-17.75-11.327a26.159,26.159,0,0,0,2.872,5.748c2.823,4.165,6.39,7.662,12.376,8.6,26.077,4.083,32.779-21.429,32.779-21.429s6.256,1.747,9.025-6.224C2273.778,8711.25,2267.636,8706.381,2267.636,8706.381Z" fill="#d78b73"/><path d="M2240.394,8708.782c-5.043,2.038-7.76-.335-7.963-2.721a3.419,3.419,0,0,1,2.241-3.517c3.072-1.2,5.238-5.924,5.259-5.973h0a10.129,10.129,0,0,1-4.979,7.436c-.842.49-1.368,1.008-1.3,1.776.114,1.337,2.046,3.334,6.746,3Z" fill="#c47b66"/><path d="M2222.439,8687.876l-.6-2.358a25.6,25.6,0,0,1,11.265-3.284l.648,3.744C2228.629,8685.595,2222.517,8687.854,2222.439,8687.876Z" fill="#984a29"/><path d="M2258.982,8687.876c-4.018-2.238-11.616-2.19-11.687-2.211l.625-3.485c.3.077,7.188-.011,11.652,3.562Z" fill="#984a29"/><path d="M2249.16,8712.288s-9.49,1.938-18.313,0c0,0,1.562,8.117,9.156,8.1C2247.162,8720.372,2249.076,8713.857,2249.16,8712.288Z" fill="#982c2c"/><path d="M2239.8,8716.165c-5.836,0-7.55-2.421-8.285-3.74,6.848,1.353,12.37.544,17.179-.051C2248.175,8713.839,2245.3,8716.165,2239.8,8716.165Z" fill="#fff"/><path d="M2232.525,8696.769a5.66,5.66,0,0,0-3.879-2.439,5.418,5.418,0,0,0-3.679,1.267l-1.116-1.23a7.084,7.084,0,0,1,4.932-1.691,7.236,7.236,0,0,1,5.046,3.065Z" fill="#4a332b"/><path d="M2248.321,8696.215l-1.3-1.03a7.233,7.233,0,0,1,5.046-3.064,7.082,7.082,0,0,1,4.932,1.69l-1.116,1.231.558-.615-.556.618a5.463,5.463,0,0,0-3.7-1.268A5.673,5.673,0,0,0,2248.321,8696.215Z" fill="#4a332b"/></g></g></g></svg>