<svg xmlns="http://www.w3.org/2000/svg" xmlns:xlink="http://www.w3.org/1999/xlink" width="202.667" height="202.667" viewBox="0 0 202.667 202.667">
  <defs>
    <clipPath id="clip-path">
      <circle id="Elipse_99" data-name="Elipse 99" cx="98.333" cy="98.333" r="98.333" transform="translate(6777.266 14591.111)" fill="none"/>
    </clipPath>
  </defs>
  <g id="Grupo_4787" data-name="Grupo 4787" transform="translate(-623.832 -6044.801)">
    <g id="Grupo_1047" data-name="Grupo 1047" transform="translate(-6150.434 -8543.311)">
      <g id="Grupo_1046" data-name="Grupo 1046" clip-path="url(#clip-path)">
        <g id="Grupo_1037" data-name="Grupo 1037">
          <g id="Grupo_1032" data-name="Grupo 1032">
            <g id="Grupo_1031" data-name="Grupo 1031">
              <g id="Grupo_1003" data-name="Grupo 1003">
                <path id="Trazado_1586" data-name="Trazado 1586" d="M6446.371,15384.062h-93.577l.232,113.694" fill="none" stroke="#909294" stroke-linecap="round" stroke-linejoin="round" stroke-width="21.782"/>
                <line id="Línea_565" data-name="Línea 565" y2="51.092" transform="translate(6446.604 15443.878)" fill="none" stroke="#909294" stroke-linecap="round" stroke-linejoin="round" stroke-width="18.152"/>
                <rect id="Rectángulo_399" data-name="Rectángulo 399" width="93.578" height="29.128" transform="translate(6353.026 15414.75)" fill="#3d3d66"/>
                <path id="Trazado_1587" data-name="Trazado 1587" d="M6353.46,15444.4H6446.6v-7.359H6353.46a3.425,3.425,0,0,0-3.093,3.68h0A3.425,3.425,0,0,0,6353.46,15444.4Z" fill="#2f2f4f"/>
                <path id="Trazado_1588" data-name="Trazado 1588" d="M6363.485,15381.684a5.943,5.943,0,0,0,5.942,5.942h57.926a5.943,5.943,0,0,0,5.943-5.942h0a5.942,5.942,0,0,0-5.943-5.941h-57.926a5.943,5.943,0,0,0-5.942,5.941Z" fill="#3d3d66"/>
                <path id="Trazado_1589" data-name="Trazado 1589" d="M6454.687,15330.093a5.466,5.466,0,0,0,5.467,5.466h28.319a5.467,5.467,0,0,0,5.467-5.466h0a5.467,5.467,0,0,0-5.467-5.467h-28.319a5.467,5.467,0,0,0-5.467,5.467Z" fill="#0d0d0d"/>
                <path id="Trazado_1590" data-name="Trazado 1590" d="M6488.473,15330.093h-28.319a5.461,5.461,0,0,0-4.729,2.733,5.459,5.459,0,0,1,4.729-8.2h28.319a5.461,5.461,0,0,1,4.73,8.2A5.463,5.463,0,0,0,6488.473,15330.093Z" fill="#333"/>
                <g id="Grupo_987" data-name="Grupo 987">
                  <path id="Trazado_1591" data-name="Trazado 1591" d="M6489.185,15329.855H6446.6v118.585h-95.24l-32.967,55.352" fill="none" stroke="#909294" stroke-linecap="round" stroke-linejoin="round" stroke-width="29.043"/>
                  <path id="Trazado_1592" data-name="Trazado 1592" d="M6462.292,15494.97h-67.977l-17.473-17.473h-39.16" fill="none" stroke="#909294" stroke-linecap="round" stroke-linejoin="round" stroke-width="18.152"/>
                  <path id="Trazado_1593" data-name="Trazado 1593" d="M6282.943,15481.436c-1.422,2.663.334,6.375,3.921,8.292l26.554,14.186c3.588,1.916,7.651,1.311,9.073-1.353h0c1.421-2.662-.333-6.376-3.922-8.292l-26.554-14.185c-3.588-1.916-7.65-1.311-9.072,1.352Z" fill="#333"/>
                  <path id="Trazado_1594" data-name="Trazado 1594" d="M6315.728,15500.22l-26.553-14.185a8.281,8.281,0,0,0-6.529-.749,4.1,4.1,0,0,1,.3-.739c1.422-2.663,5.484-3.268,9.072-1.352l26.554,14.184c3.589,1.917,5.343,5.63,3.922,8.293a4.532,4.532,0,0,1-2.543,2.1C6320.734,15505.2,6319,15501.965,6315.728,15500.22Z" fill="#0d0d0d"/>
                </g>
                <g id="Grupo_1002" data-name="Grupo 1002">
                  <g id="Grupo_988" data-name="Grupo 988">
                    <line id="Línea_566" data-name="Línea 566" x1="52.115" y1="13.964" transform="translate(6395.684 15457.757)" fill="none" stroke="#b5b5b5" stroke-miterlimit="10" stroke-width="3.63"/>
                    <line id="Línea_567" data-name="Línea 567" x1="52.101" y2="14.012" transform="translate(6395.698 15471.72)" fill="none" stroke="#b5b5b5" stroke-miterlimit="10" stroke-width="3.63"/>
                    <line id="Línea_568" data-name="Línea 568" x1="38.081" y2="38.221" transform="translate(6409.718 15471.72)" fill="none" stroke="#b5b5b5" stroke-miterlimit="10" stroke-width="3.63"/>
                    <line id="Línea_569" data-name="Línea 569" x1="13.822" y2="52.155" transform="translate(6433.977 15471.72)" fill="none" stroke="#b5b5b5" stroke-miterlimit="10" stroke-width="3.63"/>
                    <line id="Línea_570" data-name="Línea 570" x2="14.153" y2="52.066" transform="translate(6447.799 15471.72)" fill="none" stroke="#b5b5b5" stroke-miterlimit="10" stroke-width="3.63"/>
                    <line id="Línea_571" data-name="Línea 571" x2="38.325" y2="37.98" transform="translate(6447.799 15471.72)" fill="none" stroke="#b5b5b5" stroke-miterlimit="10" stroke-width="3.63"/>
                    <line id="Línea_572" data-name="Línea 572" x2="52.192" y2="13.683" transform="translate(6447.799 15471.72)" fill="none" stroke="#b5b5b5" stroke-miterlimit="10" stroke-width="3.63"/>
                    <line id="Línea_573" data-name="Línea 573" y1="14.292" x2="52.027" transform="translate(6447.799 15457.428)" fill="none" stroke="#b5b5b5" stroke-miterlimit="10" stroke-width="3.63"/>
                    <line id="Línea_574" data-name="Línea 574" y1="38.425" x2="37.875" transform="translate(6447.799 15433.296)" fill="none" stroke="#b5b5b5" stroke-miterlimit="10" stroke-width="3.63"/>
                    <line id="Línea_575" data-name="Línea 575" y1="52.226" x2="13.541" transform="translate(6447.799 15419.494)" fill="none" stroke="#b5b5b5" stroke-miterlimit="10" stroke-width="3.63"/>
                    <line id="Línea_576" data-name="Línea 576" x1="14.435" y1="51.986" transform="translate(6433.364 15419.734)" fill="none" stroke="#b5b5b5" stroke-miterlimit="10" stroke-width="3.63"/>
                    <line id="Línea_577" data-name="Línea 577" x1="38.528" y1="37.768" transform="translate(6409.271 15433.952)" fill="none" stroke="#b5b5b5" stroke-miterlimit="10" stroke-width="3.63"/>
                  </g>
                  <g id="Grupo_989" data-name="Grupo 989">
                    <line id="Línea_578" data-name="Línea 578" x1="46.726" y1="26.976" transform="translate(6401.066 15444.733)" fill="none" stroke="#b5b5b5" stroke-miterlimit="10" stroke-width="3.63"/>
                    <line id="Línea_579" data-name="Línea 579" x1="53.952" y2="0.049" transform="translate(6393.839 15471.709)" fill="none" stroke="#b5b5b5" stroke-miterlimit="10" stroke-width="3.63"/>
                    <line id="Línea_580" data-name="Línea 580" x1="46.675" y2="27.063" transform="translate(6401.116 15471.709)" fill="none" stroke="#b5b5b5" stroke-miterlimit="10" stroke-width="3.63"/>
                    <line id="Línea_581" data-name="Línea 581" x1="26.849" y2="46.8" transform="translate(6420.942 15471.709)" fill="none" stroke="#b5b5b5" stroke-miterlimit="10" stroke-width="3.63"/>
                    <line id="Línea_582" data-name="Línea 582" x2="0.195" y2="53.956" transform="translate(6447.792 15471.709)" fill="none" stroke="#b5b5b5" stroke-miterlimit="10" stroke-width="3.63"/>
                    <line id="Línea_583" data-name="Línea 583" x2="27.189" y2="46.606" transform="translate(6447.792 15471.709)" fill="none" stroke="#b5b5b5" stroke-miterlimit="10" stroke-width="3.63"/>
                    <line id="Línea_584" data-name="Línea 584" x2="46.872" y2="26.725" transform="translate(6447.792 15471.709)" fill="none" stroke="#b5b5b5" stroke-miterlimit="10" stroke-width="3.63"/>
                    <line id="Línea_585" data-name="Línea 585" y1="0.339" x2="53.953" transform="translate(6447.792 15471.37)" fill="none" stroke="#b5b5b5" stroke-miterlimit="10" stroke-width="3.63"/>
                    <line id="Línea_586" data-name="Línea 586" y1="27.312" x2="46.531" transform="translate(6447.792 15444.397)" fill="none" stroke="#b5b5b5" stroke-miterlimit="10" stroke-width="3.63"/>
                    <line id="Línea_587" data-name="Línea 587" y1="46.942" x2="26.597" transform="translate(6447.792 15424.767)" fill="none" stroke="#b5b5b5" stroke-miterlimit="10" stroke-width="3.63"/>
                    <line id="Línea_588" data-name="Línea 588" x1="0.488" y1="53.951" transform="translate(6447.304 15417.759)" fill="none" stroke="#b5b5b5" stroke-miterlimit="10" stroke-width="3.63"/>
                    <line id="Línea_589" data-name="Línea 589" x1="27.44" y1="46.453" transform="translate(6420.352 15425.256)" fill="none" stroke="#b5b5b5" stroke-miterlimit="10" stroke-width="3.63"/>
                  </g>
                  <g id="Grupo_990" data-name="Grupo 990">
                    <line id="Línea_590" data-name="Línea 590" x1="53.953" transform="translate(6393.846 15471.72)" fill="none" stroke="#b5b5b5" stroke-miterlimit="10" stroke-width="5.446"/>
                    <line id="Línea_591" data-name="Línea 591" x1="46.7" y2="27.02" transform="translate(6401.1 15471.72)" fill="none" stroke="#b5b5b5" stroke-miterlimit="10" stroke-width="5.446"/>
                    <line id="Línea_592" data-name="Línea 592" x1="26.891" y2="46.774" transform="translate(6420.908 15471.72)" fill="none" stroke="#b5b5b5" stroke-miterlimit="10" stroke-width="5.446"/>
                    <line id="Línea_593" data-name="Línea 593" x2="0.147" y2="53.956" transform="translate(6447.799 15471.72)" fill="none" stroke="#b5b5b5" stroke-miterlimit="10" stroke-width="5.446"/>
                    <line id="Línea_594" data-name="Línea 594" x2="27.146" y2="46.629" transform="translate(6447.799 15471.72)" fill="none" stroke="#b5b5b5" stroke-miterlimit="10" stroke-width="5.446"/>
                    <line id="Línea_595" data-name="Línea 595" x2="46.847" y2="26.767" transform="translate(6447.799 15471.72)" fill="none" stroke="#b5b5b5" stroke-miterlimit="10" stroke-width="5.446"/>
                    <line id="Línea_596" data-name="Línea 596" y1="0.292" x2="53.955" transform="translate(6447.799 15471.429)" fill="none" stroke="#b5b5b5" stroke-miterlimit="10" stroke-width="5.446"/>
                    <line id="Línea_597" data-name="Línea 597" y1="27.271" x2="46.555" transform="translate(6447.799 15444.449)" fill="none" stroke="#b5b5b5" stroke-miterlimit="10" stroke-width="5.446"/>
                    <line id="Línea_598" data-name="Línea 598" y1="46.918" x2="26.639" transform="translate(6447.799 15424.802)" fill="none" stroke="#b5b5b5" stroke-miterlimit="10" stroke-width="5.446"/>
                    <line id="Línea_599" data-name="Línea 599" x1="0.438" y1="53.951" transform="translate(6447.361 15417.769)" fill="none" stroke="#b5b5b5" stroke-miterlimit="10" stroke-width="5.446"/>
                    <line id="Línea_600" data-name="Línea 600" x1="27.398" y1="46.478" transform="translate(6420.401 15425.242)" fill="none" stroke="#b5b5b5" stroke-miterlimit="10" stroke-width="5.446"/>
                    <line id="Línea_601" data-name="Línea 601" x1="46.991" y1="26.509" transform="translate(6400.808 15445.211)" fill="none" stroke="#b5b5b5" stroke-miterlimit="10" stroke-width="5.446"/>
                  </g>
                  <g id="Grupo_1001" data-name="Grupo 1001">
                    <g id="Grupo_992" data-name="Grupo 992">
                      <g id="Grupo_991" data-name="Grupo 991">
                        <path id="Trazado_1595" data-name="Trazado 1595" d="M6447.8,15417.768a53.953,53.953,0,1,1-53.953,53.953,53.952,53.952,0,0,1,53.953-53.953m0-4.277a58.059,58.059,0,1,0,22.668,4.577,57.884,57.884,0,0,0-22.668-4.577Z" fill="#363636"/>
                      </g>
                    </g>
                    <g id="Grupo_994" data-name="Grupo 994">
                      <g id="Grupo_993" data-name="Grupo 993">
                        <path id="Trazado_1596" data-name="Trazado 1596" d="M6447.8,15419.194a52.355,52.355,0,1,1-20.445,4.127,52.206,52.206,0,0,1,20.445-4.127m0-1.427a53.953,53.953,0,1,0,53.953,53.953,53.952,53.952,0,0,0-53.953-53.953Z" fill="#dbdbdb"/>
                      </g>
                    </g>
                    <g id="Grupo_996" data-name="Grupo 996">
                      <g id="Grupo_995" data-name="Grupo 995">
                        <path id="Trazado_1597" data-name="Trazado 1597" d="M6447.8,15426.815a44.754,44.754,0,1,1-17.479,3.527,44.627,44.627,0,0,1,17.479-3.527m0-1.854a46.76,46.76,0,1,0,46.761,46.76,46.76,46.76,0,0,0-46.761-46.76Z" fill="#dbdbdb"/>
                      </g>
                    </g>
                    <g id="Grupo_998" data-name="Grupo 998">
                      <g id="Grupo_997" data-name="Grupo 997">
                        <path id="Trazado_1598" data-name="Trazado 1598" d="M6440.187,15471.721a7.613,7.613,0,1,1,7.612,7.613A7.612,7.612,0,0,1,6440.187,15471.721Z" fill="#dbdbdb"/>
                      </g>
                    </g>
                    <g id="Grupo_1000" data-name="Grupo 1000">
                      <g id="Grupo_999" data-name="Grupo 999">
                        <path id="Trazado_1599" data-name="Trazado 1599" d="M6442.341,15471.721a5.459,5.459,0,1,1,5.458,5.459A5.46,5.46,0,0,1,6442.341,15471.721Z" fill="#595959"/>
                      </g>
                    </g>
                  </g>
                </g>
                <path id="Trazado_1600" data-name="Trazado 1600" d="M6320.739,15512.162a15.236,15.236,0,1,0,15.235-15.235A15.235,15.235,0,0,0,6320.739,15512.162Z" fill="#363636"/>
                <path id="Trazado_1601" data-name="Trazado 1601" d="M6327.6,15512.162a8.372,8.372,0,1,0,8.371-8.37A8.371,8.371,0,0,0,6327.6,15512.162Z" fill="#6d6d6d"/>
                <path id="Trazado_1602" data-name="Trazado 1602" d="M6331.239,15512.162a4.735,4.735,0,1,0,4.735-4.735A4.736,4.736,0,0,0,6331.239,15512.162Z" fill="#333"/>
                <path id="Trazado_1603" data-name="Trazado 1603" d="M6353.026,15497.756c0,7.963-7.625,14.406-17.052,14.406" fill="none" stroke="#0d0d0d" stroke-linecap="round" stroke-linejoin="round" stroke-width="36.304"/>
                <path id="Trazado_1604" data-name="Trazado 1604" d="M6333.2,15512.162a2.771,2.771,0,1,0,2.772-2.772A2.771,2.771,0,0,0,6333.2,15512.162Z" fill="#cfcfcf"/>
              </g>
              <rect id="Rectángulo_400" data-name="Rectángulo 400" width="40.371" height="76.205" transform="translate(6446.896 15341.563)" fill="#3d3d66"/>
              <g id="Grupo_1013" data-name="Grupo 1013">
                <path id="Trazado_1605" data-name="Trazado 1605" d="M6428.23,15323.529l-6.316,45.941-44.249-1.2" fill="none" stroke="#e4ae96" stroke-linecap="round" stroke-linejoin="round" stroke-width="69.111"/>
                <rect id="Rectángulo_401" data-name="Rectángulo 401" width="20.894" height="16.159" rx="8.079" transform="translate(6370.072 15357.466) rotate(17.182)" fill="#dd957a"/>
                <path id="Rectángulo_402" data-name="Rectángulo 402" d="M12.254,0h0A12.254,12.254,0,0,1,24.508,12.254V39.943a0,0,0,0,1,0,0H0a0,0,0,0,1,0,0V12.254A12.254,12.254,0,0,1,12.254,0Z" transform="translate(6417.968 15311.802) rotate(14.111)" fill="#587b68"/>
                <g id="Grupo_1012" data-name="Grupo 1012">
                  <path id="Trazado_1606" data-name="Trazado 1606" d="M6477.205,15421.136l-73.414-4.312,11.533-92.475a13.516,13.516,0,0,1,14.141-12.863l39.529,1.868a13.517,13.517,0,0,1,12.864,14.141Z" fill="#648777"/>
                  <g id="Grupo_1007" data-name="Grupo 1007">
                    <g id="Grupo_1006" data-name="Grupo 1006">
                      <g id="Grupo_1004" data-name="Grupo 1004">
                        <rect id="Rectángulo_403" data-name="Rectángulo 403" width="15.24" height="9.521" transform="translate(6322.103 15468.574) rotate(30.05)" fill="#e4ae96"/>
                      </g>
                      <g id="Grupo_1005" data-name="Grupo 1005">
                        <path id="Trazado_1607" data-name="Trazado 1607" d="M6322.926,15497.586l-26.535-15.351a7.591,7.591,0,0,1-2.769-10.37h0a7.59,7.59,0,0,1,10.37-2.769l26.535,15.351Z" fill="#e4ae96"/>
                      </g>
                      <rect id="Rectángulo_404" data-name="Rectángulo 404" width="38.244" height="3.795" transform="translate(6322.926 15497.585) rotate(-149.95)" fill="#090909"/>
                      <rect id="Rectángulo_405" data-name="Rectángulo 405" width="7.248" height="11.384" transform="matrix(-0.866, -0.501, 0.501, -0.866, 6307.405, 15484.224)" fill="#090909"/>
                    </g>
                    <path id="Trazado_1608" data-name="Trazado 1608" d="M6424.76,15421.585l-65.73.091-30.77,44.188" fill="none" stroke="#587b68" stroke-linecap="square" stroke-linejoin="round" stroke-width="129.584"/>
                  </g>
                  <g id="Grupo_1011" data-name="Grupo 1011">
                    <g id="Grupo_1010" data-name="Grupo 1010">
                      <g id="Grupo_1008" data-name="Grupo 1008">
                        <rect id="Rectángulo_406" data-name="Rectángulo 406" width="15.24" height="9.521" transform="matrix(0.866, 0.501, -0.501, 0.866, 6362.542, 15468.574)" fill="#e4ae96"/>
                      </g>
                      <g id="Grupo_1009" data-name="Grupo 1009">
                        <path id="Trazado_1609" data-name="Trazado 1609" d="M6363.365,15497.586l-26.534-15.351a7.59,7.59,0,0,1-2.769-10.37h0a7.589,7.589,0,0,1,10.369-2.769l26.535,15.351Z" fill="#e4ae96"/>
                      </g>
                      <rect id="Rectángulo_407" data-name="Rectángulo 407" width="38.244" height="3.795" transform="translate(6363.366 15497.586) rotate(-149.95)" fill="#090909"/>
                      <rect id="Rectángulo_408" data-name="Rectángulo 408" width="7.248" height="11.384" transform="matrix(-0.866, -0.501, 0.501, -0.866, 6347.845, 15484.224)" fill="#090909"/>
                    </g>
                    <path id="Trazado_1610" data-name="Trazado 1610" d="M6465.2,15421.585l-65.73.091-30.771,44.188" fill="none" stroke="#587b68" stroke-linecap="square" stroke-linejoin="round" stroke-width="129.584"/>
                  </g>
                </g>
                <path id="Trazado_1611" data-name="Trazado 1611" d="M6470.273,15324.388l-8.474,45-39.885.082" fill="none" stroke="#e4ae96" stroke-linecap="round" stroke-linejoin="round" stroke-width="69.111"/>
                <rect id="Rectángulo_409" data-name="Rectángulo 409" width="20.894" height="16.159" rx="8.079" transform="matrix(0.999, 0.047, -0.047, 0.999, 6409.345, 15360.187)" fill="#dd957a"/>
                <path id="Rectángulo_410" data-name="Rectángulo 410" d="M12.254,0h0A12.254,12.254,0,0,1,24.508,12.254V39.943a0,0,0,0,1,0,0H0a0,0,0,0,1,0,0V12.254A12.254,12.254,0,0,1,12.254,0Z" transform="translate(6458.687 15313.928) rotate(8.793)" fill="#587b68"/>
              </g>
              <g id="Grupo_1030" data-name="Grupo 1030">
                <g id="Grupo_1029" data-name="Grupo 1029">
                  <path id="Trazado_1612" data-name="Trazado 1612" d="M6530.081,15329.855H6487.5v118.585H6391.13l-32.967,55.352" fill="none" stroke="#909294" stroke-linecap="round" stroke-linejoin="round" stroke-width="29.043"/>
                  <path id="Trazado_1613" data-name="Trazado 1613" d="M6503.188,15494.97h-67.977l-17.473-17.473h-45.1" fill="none" stroke="#909294" stroke-linecap="round" stroke-linejoin="round" stroke-width="18.152"/>
                  <path id="Trazado_1614" data-name="Trazado 1614" d="M6487.267,15384.062H6393.69l.232,113.694" fill="none" stroke="#909294" stroke-linecap="round" stroke-linejoin="round" stroke-width="21.782"/>
                  <line id="Línea_602" data-name="Línea 602" y2="51.092" transform="translate(6487.5 15443.878)" fill="none" stroke="#909294" stroke-linecap="round" stroke-linejoin="round" stroke-width="18.152"/>
                  <rect id="Rectángulo_411" data-name="Rectángulo 411" width="93.578" height="29.128" transform="translate(6393.922 15414.75)" fill="#2f2f4f"/>
                  <path id="Trazado_1615" data-name="Trazado 1615" d="M6404.381,15381.684a5.943,5.943,0,0,0,5.942,5.942h57.926a5.943,5.943,0,0,0,5.943-5.942h0a5.942,5.942,0,0,0-5.943-5.941h-57.926a5.943,5.943,0,0,0-5.942,5.941Z" fill="#2f2f4f"/>
                  <path id="Trazado_1616" data-name="Trazado 1616" d="M6495.583,15330.093a5.466,5.466,0,0,0,5.467,5.466h28.319a5.467,5.467,0,0,0,5.467-5.466h0a5.467,5.467,0,0,0-5.467-5.467H6501.05a5.467,5.467,0,0,0-5.467,5.467Z" fill="#0d0d0d"/>
                  <path id="Trazado_1617" data-name="Trazado 1617" d="M6529.369,15330.093H6501.05a5.461,5.461,0,0,0-4.729,2.733,5.459,5.459,0,0,1,4.729-8.2h28.319a5.461,5.461,0,0,1,4.73,8.2A5.463,5.463,0,0,0,6529.369,15330.093Z" fill="#333"/>
                  <path id="Trazado_1618" data-name="Trazado 1618" d="M6323.557,15481.719c-1.423,2.663.333,6.375,3.92,8.292l26.554,14.185c3.588,1.917,7.651,1.312,9.073-1.352h0c1.422-2.663-.333-6.376-3.922-8.292l-26.553-14.185c-3.589-1.916-7.65-1.312-9.072,1.352Z" fill="#333"/>
                  <path id="Trazado_1619" data-name="Trazado 1619" d="M6356.341,15497.392l-26.552-14.185a8.285,8.285,0,0,0-6.53-.749,4.039,4.039,0,0,1,.3-.739c1.422-2.663,5.483-3.268,9.072-1.352l26.553,14.185c3.589,1.916,5.344,5.629,3.922,8.292a4.528,4.528,0,0,1-2.542,2.1C6361.347,15502.369,6359.609,15499.137,6356.341,15497.392Z" fill="#0d0d0d"/>
                  <g id="Grupo_1028" data-name="Grupo 1028">
                    <g id="Grupo_1014" data-name="Grupo 1014">
                      <line id="Línea_603" data-name="Línea 603" x1="52.115" y1="13.964" transform="translate(6436.58 15457.757)" fill="none" stroke="#b5b5b5" stroke-miterlimit="10" stroke-width="3.63"/>
                      <line id="Línea_604" data-name="Línea 604" x1="52.101" y2="14.012" transform="translate(6436.594 15471.72)" fill="none" stroke="#b5b5b5" stroke-miterlimit="10" stroke-width="3.63"/>
                      <line id="Línea_605" data-name="Línea 605" x1="38.081" y2="38.221" transform="translate(6450.614 15471.72)" fill="none" stroke="#b5b5b5" stroke-miterlimit="10" stroke-width="3.63"/>
                      <line id="Línea_606" data-name="Línea 606" x1="13.822" y2="52.155" transform="translate(6474.873 15471.72)" fill="none" stroke="#b5b5b5" stroke-miterlimit="10" stroke-width="3.63"/>
                      <line id="Línea_607" data-name="Línea 607" x2="14.153" y2="52.066" transform="translate(6488.695 15471.72)" fill="none" stroke="#b5b5b5" stroke-miterlimit="10" stroke-width="3.63"/>
                      <line id="Línea_608" data-name="Línea 608" x2="38.325" y2="37.98" transform="translate(6488.695 15471.72)" fill="none" stroke="#b5b5b5" stroke-miterlimit="10" stroke-width="3.63"/>
                      <line id="Línea_609" data-name="Línea 609" x2="52.192" y2="13.683" transform="translate(6488.695 15471.72)" fill="none" stroke="#b5b5b5" stroke-miterlimit="10" stroke-width="3.63"/>
                      <line id="Línea_610" data-name="Línea 610" y1="14.292" x2="52.027" transform="translate(6488.695 15457.428)" fill="none" stroke="#b5b5b5" stroke-miterlimit="10" stroke-width="3.63"/>
                      <line id="Línea_611" data-name="Línea 611" y1="38.425" x2="37.875" transform="translate(6488.695 15433.296)" fill="none" stroke="#b5b5b5" stroke-miterlimit="10" stroke-width="3.63"/>
                      <line id="Línea_612" data-name="Línea 612" y1="52.226" x2="13.541" transform="translate(6488.695 15419.494)" fill="none" stroke="#b5b5b5" stroke-miterlimit="10" stroke-width="3.63"/>
                      <line id="Línea_613" data-name="Línea 613" x1="14.435" y1="51.986" transform="translate(6474.26 15419.734)" fill="none" stroke="#b5b5b5" stroke-miterlimit="10" stroke-width="3.63"/>
                      <line id="Línea_614" data-name="Línea 614" x1="38.528" y1="37.768" transform="translate(6450.167 15433.952)" fill="none" stroke="#b5b5b5" stroke-miterlimit="10" stroke-width="3.63"/>
                    </g>
                    <g id="Grupo_1015" data-name="Grupo 1015">
                      <line id="Línea_615" data-name="Línea 615" x1="46.726" y1="26.976" transform="translate(6441.962 15444.733)" fill="none" stroke="#b5b5b5" stroke-miterlimit="10" stroke-width="3.63"/>
                      <line id="Línea_616" data-name="Línea 616" x1="53.952" y2="0.049" transform="translate(6434.735 15471.709)" fill="none" stroke="#b5b5b5" stroke-miterlimit="10" stroke-width="3.63"/>
                      <line id="Línea_617" data-name="Línea 617" x1="46.675" y2="27.063" transform="translate(6442.012 15471.709)" fill="none" stroke="#b5b5b5" stroke-miterlimit="10" stroke-width="3.63"/>
                      <line id="Línea_618" data-name="Línea 618" x1="26.849" y2="46.8" transform="translate(6461.838 15471.709)" fill="none" stroke="#b5b5b5" stroke-miterlimit="10" stroke-width="3.63"/>
                      <line id="Línea_619" data-name="Línea 619" x2="0.195" y2="53.956" transform="translate(6488.688 15471.709)" fill="none" stroke="#b5b5b5" stroke-miterlimit="10" stroke-width="3.63"/>
                      <line id="Línea_620" data-name="Línea 620" x2="27.189" y2="46.606" transform="translate(6488.688 15471.709)" fill="none" stroke="#b5b5b5" stroke-miterlimit="10" stroke-width="3.63"/>
                      <line id="Línea_621" data-name="Línea 621" x2="46.872" y2="26.725" transform="translate(6488.688 15471.709)" fill="none" stroke="#b5b5b5" stroke-miterlimit="10" stroke-width="3.63"/>
                      <line id="Línea_622" data-name="Línea 622" y1="0.339" x2="53.953" transform="translate(6488.688 15471.37)" fill="none" stroke="#b5b5b5" stroke-miterlimit="10" stroke-width="3.63"/>
                      <line id="Línea_623" data-name="Línea 623" y1="27.312" x2="46.531" transform="translate(6488.688 15444.397)" fill="none" stroke="#b5b5b5" stroke-miterlimit="10" stroke-width="3.63"/>
                      <line id="Línea_624" data-name="Línea 624" y1="46.942" x2="26.597" transform="translate(6488.688 15424.767)" fill="none" stroke="#b5b5b5" stroke-miterlimit="10" stroke-width="3.63"/>
                      <line id="Línea_625" data-name="Línea 625" x1="0.488" y1="53.951" transform="translate(6488.2 15417.759)" fill="none" stroke="#b5b5b5" stroke-miterlimit="10" stroke-width="3.63"/>
                      <line id="Línea_626" data-name="Línea 626" x1="27.44" y1="46.453" transform="translate(6461.248 15425.256)" fill="none" stroke="#b5b5b5" stroke-miterlimit="10" stroke-width="3.63"/>
                    </g>
                    <g id="Grupo_1016" data-name="Grupo 1016">
                      <line id="Línea_627" data-name="Línea 627" x1="53.953" transform="translate(6434.742 15471.72)" fill="none" stroke="#b5b5b5" stroke-miterlimit="10" stroke-width="5.446"/>
                      <line id="Línea_628" data-name="Línea 628" x1="46.7" y2="27.02" transform="translate(6441.996 15471.72)" fill="none" stroke="#b5b5b5" stroke-miterlimit="10" stroke-width="5.446"/>
                      <line id="Línea_629" data-name="Línea 629" x1="26.891" y2="46.774" transform="translate(6461.804 15471.72)" fill="none" stroke="#b5b5b5" stroke-miterlimit="10" stroke-width="5.446"/>
                      <line id="Línea_630" data-name="Línea 630" x2="0.147" y2="53.956" transform="translate(6488.695 15471.72)" fill="none" stroke="#b5b5b5" stroke-miterlimit="10" stroke-width="5.446"/>
                      <line id="Línea_631" data-name="Línea 631" x2="27.146" y2="46.629" transform="translate(6488.695 15471.72)" fill="none" stroke="#b5b5b5" stroke-miterlimit="10" stroke-width="5.446"/>
                      <line id="Línea_632" data-name="Línea 632" x2="46.847" y2="26.767" transform="translate(6488.695 15471.72)" fill="none" stroke="#b5b5b5" stroke-miterlimit="10" stroke-width="5.446"/>
                      <line id="Línea_633" data-name="Línea 633" y1="0.292" x2="53.955" transform="translate(6488.695 15471.429)" fill="none" stroke="#b5b5b5" stroke-miterlimit="10" stroke-width="5.446"/>
                      <line id="Línea_634" data-name="Línea 634" y1="27.271" x2="46.555" transform="translate(6488.695 15444.449)" fill="none" stroke="#b5b5b5" stroke-miterlimit="10" stroke-width="5.446"/>
                      <line id="Línea_635" data-name="Línea 635" y1="46.918" x2="26.639" transform="translate(6488.695 15424.802)" fill="none" stroke="#b5b5b5" stroke-miterlimit="10" stroke-width="5.446"/>
                      <line id="Línea_636" data-name="Línea 636" x1="0.438" y1="53.951" transform="translate(6488.257 15417.769)" fill="none" stroke="#b5b5b5" stroke-miterlimit="10" stroke-width="5.446"/>
                      <line id="Línea_637" data-name="Línea 637" x1="27.398" y1="46.478" transform="translate(6461.297 15425.242)" fill="none" stroke="#b5b5b5" stroke-miterlimit="10" stroke-width="5.446"/>
                      <line id="Línea_638" data-name="Línea 638" x1="46.991" y1="26.509" transform="translate(6441.704 15445.211)" fill="none" stroke="#b5b5b5" stroke-miterlimit="10" stroke-width="5.446"/>
                    </g>
                    <g id="Grupo_1027" data-name="Grupo 1027">
                      <g id="Grupo_1018" data-name="Grupo 1018">
                        <g id="Grupo_1017" data-name="Grupo 1017">
                          <path id="Trazado_1620" data-name="Trazado 1620" d="M6488.695,15417.768a53.953,53.953,0,1,1-53.953,53.953,53.952,53.952,0,0,1,53.953-53.953m0-4.277a58.059,58.059,0,1,0,22.668,4.577,57.884,57.884,0,0,0-22.668-4.577Z" fill="#363636"/>
                        </g>
                      </g>
                      <g id="Grupo_1020" data-name="Grupo 1020">
                        <g id="Grupo_1019" data-name="Grupo 1019">
                          <path id="Trazado_1621" data-name="Trazado 1621" d="M6488.695,15419.194a52.355,52.355,0,1,1-20.445,4.127,52.206,52.206,0,0,1,20.445-4.127m0-1.427a53.953,53.953,0,1,0,53.953,53.953,53.952,53.952,0,0,0-53.953-53.953Z" fill="#dbdbdb"/>
                        </g>
                      </g>
                      <g id="Grupo_1022" data-name="Grupo 1022">
                        <g id="Grupo_1021" data-name="Grupo 1021">
                          <path id="Trazado_1622" data-name="Trazado 1622" d="M6488.695,15426.815a44.754,44.754,0,1,1-17.479,3.527,44.627,44.627,0,0,1,17.479-3.527m0-1.854a46.76,46.76,0,1,0,46.761,46.76,46.76,46.76,0,0,0-46.761-46.76Z" fill="#dbdbdb"/>
                        </g>
                      </g>
                      <g id="Grupo_1024" data-name="Grupo 1024">
                        <g id="Grupo_1023" data-name="Grupo 1023">
                          <path id="Trazado_1623" data-name="Trazado 1623" d="M6481.083,15471.721a7.613,7.613,0,1,1,7.612,7.613A7.612,7.612,0,0,1,6481.083,15471.721Z" fill="#dbdbdb"/>
                        </g>
                      </g>
                      <g id="Grupo_1026" data-name="Grupo 1026">
                        <g id="Grupo_1025" data-name="Grupo 1025">
                          <path id="Trazado_1624" data-name="Trazado 1624" d="M6483.237,15471.721a5.459,5.459,0,1,1,5.458,5.459A5.46,5.46,0,0,1,6483.237,15471.721Z" fill="#595959"/>
                        </g>
                      </g>
                    </g>
                  </g>
                  <path id="Trazado_1625" data-name="Trazado 1625" d="M6361.635,15512.162a15.236,15.236,0,1,0,15.235-15.235A15.235,15.235,0,0,0,6361.635,15512.162Z" fill="#363636"/>
                  <path id="Trazado_1626" data-name="Trazado 1626" d="M6368.5,15512.162a8.372,8.372,0,1,0,8.371-8.37A8.371,8.371,0,0,0,6368.5,15512.162Z" fill="#6d6d6d"/>
                  <path id="Trazado_1627" data-name="Trazado 1627" d="M6372.135,15512.162a4.735,4.735,0,1,0,4.735-4.735A4.736,4.736,0,0,0,6372.135,15512.162Z" fill="#333"/>
                  <path id="Trazado_1628" data-name="Trazado 1628" d="M6393.922,15497.756c0,7.963-7.625,14.406-17.052,14.406" fill="none" stroke="#0d0d0d" stroke-linecap="round" stroke-linejoin="round" stroke-width="36.304"/>
                  <path id="Trazado_1629" data-name="Trazado 1629" d="M6374.1,15512.162a2.771,2.771,0,1,0,2.772-2.772A2.771,2.771,0,0,0,6374.1,15512.162Z" fill="#cfcfcf"/>
                </g>
              </g>
            </g>
          </g>
          <g id="Grupo_1036" data-name="Grupo 1036">
            <rect id="Rectángulo_412" data-name="Rectángulo 412" width="17.068" height="5.893" transform="translate(6437.083 15312.712) rotate(4.063)" fill="#e4ae96"/>
            <path id="Trazado_1630" data-name="Trazado 1630" d="M6457.81,15252.478l-7.716.436c-7.789.112-16.013-5-19.336,4.351-.685,1.931-5.359,5.2-5.888,12.644l-1.18,16.622a18.891,18.891,0,0,0,17.48,20.107l9.752.693a18.946,18.946,0,0,0,20.209-17.432l1.18-16.622C6473.046,15262.938,6465.137,15253.884,6457.81,15252.478Z" fill="#949494"/>
            <rect id="Rectángulo_413" data-name="Rectángulo 413" width="17.068" height="5.362" transform="translate(6437.284 15309.896) rotate(4.063)" fill="#e4ae96"/>
            <rect id="Rectángulo_414" data-name="Rectángulo 414" width="17.068" height="5.648" transform="translate(6437.284 15309.896) rotate(4.063)" fill="#dd957a"/>
            <path id="Rectángulo_415" data-name="Rectángulo 415" d="M10.52,0H31.293a10.52,10.52,0,0,1,10.52,10.52V27A20.907,20.907,0,0,1,20.907,47.9h0A20.907,20.907,0,0,1,0,27V10.52A10.52,10.52,0,0,1,10.52,0Z" transform="translate(6428.186 15263.349) rotate(4.063)" fill="#e4ae96"/>
            <path id="Trazado_1631" data-name="Trazado 1631" d="M6467.069,15285.436c3.538-5.286,8.959-2.223,8.634,2.356s-3.937,10.285-9.5,9.89Z" fill="#e4ae96"/>
            <path id="Trazado_1632" data-name="Trazado 1632" d="M6427.615,15282.634c-1.787-5.666-8.555-3.468-8.88,1.111s3.412,10.808,8.011,11.134Z" fill="#e4ae96"/>
            <path id="Trazado_1633" data-name="Trazado 1633" d="M6437.23,15263.99s4.458,5.066,10.335,5.483,9.68-4.208,12.275-3.878-18.276-9.62-18.276-9.62Z" fill="#949494"/>
            <path id="Trazado_1634" data-name="Trazado 1634" d="M6452.615,15297.142c-.178,2.5-5.263,3.113-6.419,3.031s-6.1-1.409-5.926-3.908Z" fill="#fff" stroke="#9c534a" stroke-miterlimit="10" stroke-width="4.501"/>
            <g id="Grupo_1034" data-name="Grupo 1034">
              <g id="Grupo_1033" data-name="Grupo 1033">
                <path id="Trazado_1635" data-name="Trazado 1635" d="M6438.581,15282.793a1.762,1.762,0,1,1-1.634-1.859A1.751,1.751,0,0,1,6438.581,15282.793Z"/>
                <path id="Trazado_1636" data-name="Trazado 1636" d="M6459.7,15284.293a1.762,1.762,0,1,1-1.634-1.859A1.751,1.751,0,0,1,6459.7,15284.293Z"/>
              </g>
              <path id="Trazado_1637" data-name="Trazado 1637" d="M6449.33,15291.957c-.068.958-1.26,1.653-2.663,1.554s-2.484-.957-2.416-1.914,1.26-1.652,2.662-1.554S6449.4,15291,6449.33,15291.957Z" fill="#cf9985"/>
              <line id="Línea_639" data-name="Línea 639" x2="6.535" y2="0.464" transform="translate(6455.558 15279.683)" fill="#fff" stroke="#323030" stroke-miterlimit="10" stroke-width="4.942"/>
              <line id="Línea_640" data-name="Línea 640" x2="6.293" y2="0.447" transform="translate(6434.015 15278.153)" fill="#fff" stroke="#323030" stroke-miterlimit="10" stroke-width="4.942"/>
              <rect id="Rectángulo_416" data-name="Rectángulo 416" width="13.71" height="9.043" rx="4.522" transform="translate(6430.224 15278.842) rotate(4.063)" fill="none" stroke="#383838" stroke-linecap="round" stroke-miterlimit="10" stroke-width="5.735"/>
              <path id="Rectángulo_417" data-name="Rectángulo 417" d="M4.521,0H9.189A4.522,4.522,0,0,1,13.71,4.522v0A4.521,4.521,0,0,1,9.189,9.043H4.522A4.522,4.522,0,0,1,0,4.522v0A4.521,4.521,0,0,1,4.521,0Z" transform="matrix(0.997, 0.071, -0.071, 0.997, 6451.544, 15280.355)" fill="none" stroke="#383838" stroke-linecap="round" stroke-miterlimit="10" stroke-width="5.735"/>
              <line id="Línea_641" data-name="Línea 641" x2="7.503" y2="0.533" transform="translate(6443.388 15283.197)" fill="none" stroke="#383838" stroke-miterlimit="10" stroke-width="7.413"/>
              <line id="Línea_642" data-name="Línea 642" y1="1.363" x2="3.826" transform="translate(6464.846 15283.521)" fill="none" stroke="#383838" stroke-miterlimit="10" stroke-width="6.193"/>
              <line id="Línea_643" data-name="Línea 643" x1="3.595" y1="1.89" transform="translate(6426.695 15280.539)" fill="none" stroke="#383838" stroke-miterlimit="10" stroke-width="6.193"/>
            </g>
            <path id="Trazado_1638" data-name="Trazado 1638" d="M6436.964,15296.03a2.779,2.779,0,0,0-.908,3.422" fill="none" stroke="#dd957a" stroke-miterlimit="10" stroke-width="2.25"/>
            <path id="Trazado_1639" data-name="Trazado 1639" d="M6455.339,15297.335a2.777,2.777,0,0,1,.414,3.516" fill="none" stroke="#dd957a" stroke-miterlimit="10" stroke-width="2.25"/>
            <path id="Trazado_1640" data-name="Trazado 1640" d="M6459.534,15285.959a2.778,2.778,0,0,1,2.161,2.8" fill="none" stroke="#dd957a" stroke-miterlimit="10" stroke-width="2.25"/>
            <path id="Trazado_1641" data-name="Trazado 1641" d="M6460.094,15285.286a2.777,2.777,0,0,1,3.081,1.744" fill="none" stroke="#dd957a" stroke-miterlimit="10" stroke-width="2.25"/>
            <path id="Trazado_1642" data-name="Trazado 1642" d="M6435.017,15284.217a2.779,2.779,0,0,0-2.535,2.473" fill="none" stroke="#dd957a" stroke-miterlimit="10" stroke-width="2.25"/>
            <path id="Trazado_1643" data-name="Trazado 1643" d="M6434.557,15283.472a2.78,2.78,0,0,0-3.3,1.291" fill="none" stroke="#dd957a" stroke-miterlimit="10" stroke-width="2.25"/>
            <g id="Grupo_1035" data-name="Grupo 1035">
              <path id="Trazado_1644" data-name="Trazado 1644" d="M6440.719,15272.4a55.012,55.012,0,0,1,6.553-.116,62.178,62.178,0,0,1,6.728,1.059" fill="none" stroke="#dd957a" stroke-miterlimit="10" stroke-width="2.056"/>
              <path id="Trazado_1645" data-name="Trazado 1645" d="M6440.629,15273.666a55.475,55.475,0,0,1,6.553-.116,62.483,62.483,0,0,1,6.728,1.061" fill="none" stroke="#dd957a" stroke-miterlimit="10" stroke-width="2.056"/>
              <path id="Trazado_1646" data-name="Trazado 1646" d="M6440.54,15274.929a55.1,55.1,0,0,1,6.553-.115,62.442,62.442,0,0,1,6.728,1.059" fill="none" stroke="#dd957a" stroke-miterlimit="10" stroke-width="2.056"/>
            </g>
            <path id="Trazado_1647" data-name="Trazado 1647" d="M6441.546,15300.654s4.969,2.862,10.088.275C6451.634,15300.93,6446.471,15305.137,6441.546,15300.654Z" fill="#dd957a"/>
            <path id="Trazado_1648" data-name="Trazado 1648" d="M6438.474,15262.293s5.763,8.348,19.666,2.837a26.586,26.586,0,0,1-19.98-2.86" fill="#aaa8a8"/>
            <path id="Trazado_1649" data-name="Trazado 1649" d="M6469.459,15272.432a1.643,1.643,0,0,0,2.291-.354S6471.925,15274.454,6469.459,15272.432Z" fill="#aaa8a8"/>
            <path id="Trazado_1650" data-name="Trazado 1650" d="M6469.539,15274.432a1.642,1.642,0,0,0,2.29-.354S6472,15276.453,6469.539,15274.432Z" fill="#aaa8a8"/>
            <path id="Trazado_1651" data-name="Trazado 1651" d="M6469.429,15275.975a1.643,1.643,0,0,0,2.291-.354S6471.894,15278,6469.429,15275.975Z" fill="#aaa8a8"/>
            <path id="Trazado_1652" data-name="Trazado 1652" d="M6427.908,15268.816s-1.136.731-2.218-.675C6425.69,15268.142,6425.181,15270.469,6427.908,15268.816Z" fill="#aaa8a8"/>
            <path id="Trazado_1653" data-name="Trazado 1653" d="M6427.546,15270.785s-1.135.73-2.217-.675C6425.329,15270.11,6424.82,15272.437,6427.546,15270.785Z" fill="#aaa8a8"/>
            <path id="Trazado_1654" data-name="Trazado 1654" d="M6427.437,15272.328s-1.136.731-2.218-.675C6425.219,15271.653,6424.71,15273.98,6427.437,15272.328Z" fill="#aaa8a8"/>
            <ellipse id="Elipse_98" data-name="Elipse 98" cx="4.42" cy="8.534" rx="4.42" ry="8.534" transform="matrix(0.071, -0.997, 0.997, 0.071, 6436.353, 15322.999)" fill="#e4ae96"/>
          </g>
        </g>
        <g id="Grupo_1045" data-name="Grupo 1045">
          <g id="Grupo_1039" data-name="Grupo 1039">
            <path id="Trazado_1655" data-name="Trazado 1655" d="M6822.3,14832.489c-2.551,7.651-14.4,16.4-7.867,20.513,4.464,2.81,18.4-.4,24.554-11.585S6822.3,14832.489,6822.3,14832.489Z" fill="#3c3441"/>
            <path id="Trazado_1656" data-name="Trazado 1656" d="M6878.424,14740.8l-27.881,65.705-32.206-20.844-1.024-10.09c-.968-9.536-4.137-14.241.613-18.484,5.848-5.225,17.526-8.939,17.526-8.939C6840.973,14748.059,6877.5,14740.782,6878.424,14740.8Z" fill="#515052"/>
            <path id="Trazado_1657" data-name="Trazado 1657" d="M6838.213,14677.614c6.454-.847,4.393-.646,4.393-.646l5.148-1.055V14665.9h16.122v10.015l5.148,1.055s-2.494,1.239,3.961,2.085c.924.122-2.277,34.831-3.514,38.837l-5.6,26.852c-8.128.508.422,1.365-7.56,2.526v0l-.017,0-.016,0v0a.649.649,0,0,0-.936,0v0l-.016,0-.017,0v0c-7.982-1.161.569-2.019-7.56-2.526l-5.595-26.852C6840.923,14713.884,6837.288,14677.736,6838.213,14677.614Z" fill="#ebc291"/>
            <path id="Trazado_1658" data-name="Trazado 1658" d="M6847.754,14672.265v-6.366h16.122v6.63s-1.689,2.068-7.67,2.068S6847.754,14672.265,6847.754,14672.265Z" fill="#d7a079"/>
            <g id="Grupo_1038" data-name="Grupo 1038">
              <path id="Trazado_1659" data-name="Trazado 1659" d="M6845.362,14643.25a8.944,8.944,0,0,1-7.684,9.961,8.8,8.8,0,0,1-9.451-8.175,8.945,8.945,0,0,1,7.684-9.961A8.8,8.8,0,0,1,6845.362,14643.25Z" fill="#ebc291"/>
              <path id="Trazado_1660" data-name="Trazado 1660" d="M6836.416,14649.97a5.093,5.093,0,0,0,.945-.01,5.213,5.213,0,0,0,3.6-2.052,6.076,6.076,0,0,0,1.213-4.325,5.673,5.673,0,0,0-5-5.266,5.02,5.02,0,0,0-.946.01,5.2,5.2,0,0,0-3.6,2.05,6.085,6.085,0,0,0-1.212,4.326,5.675,5.675,0,0,0,5,5.267Z" fill="#d7a079"/>
              <path id="Trazado_1661" data-name="Trazado 1661" d="M6872.556,14645.535a8.945,8.945,0,0,0,5.915,11.1,8.8,8.8,0,0,0,10.682-6.483,8.944,8.944,0,0,0-5.914-11.1A8.8,8.8,0,0,0,6872.556,14645.535Z" fill="#ebc291"/>
              <path id="Trazado_1662" data-name="Trazado 1662" d="M6880.256,14653.653a5.675,5.675,0,0,0,5.8-4.359,6.074,6.074,0,0,0-.473-4.467,5.2,5.2,0,0,0-3.2-2.621,5,5,0,0,0-.932-.168,5.673,5.673,0,0,0-5.8,4.358,6.075,6.075,0,0,0,.473,4.467,5.213,5.213,0,0,0,3.2,2.623A5.055,5.055,0,0,0,6880.256,14653.653Z" fill="#d7a079"/>
            </g>
            <path id="Trazado_1663" data-name="Trazado 1663" d="M6834.543,14644.529a24.358,24.358,0,1,0,48.537,4.078l1.309-15.58a24.358,24.358,0,1,0-48.537-4.078Z" fill="#ebc291"/>
            <path id="Trazado_1664" data-name="Trazado 1664" d="M6817.96,14706.328a53.683,53.683,0,0,1,3.3-14.581c2.861-8.271,7.2-11.8,13.721-13.528,3.3-.876,6.542-1.675,8.112-2.057a1.2,1.2,0,0,1,1.37.663c2.765,6.02,7.215,7.011,11.351,7.4,4.136-.386,8.058-2.087,9-7.745.093-.564.813-.8,1.369-.662,1.57.382,7.228.313,11.024,2.683,2.727,1.7,4.307,5.136,6.513,12.967,1.375,4.879,9.841,8.965,10.788,15.26a1.061,1.061,0,0,1-.834,1.191c-2.817.594-10.962,2.313-13.827,2.921a1.056,1.056,0,0,1-1.251-.8,8.942,8.942,0,0,1-.186-1.327v39.434s-2.88,8.006-22.594,5.759c-17.751-2.024-19.59-5.955-20.363-5.759l-3.728-39.447c-.037.473,1.409.946,1.317,1.341a1.056,1.056,0,0,1-1.251.8c-2.865-.608-10.854-2.17-13.425-3.42C6817.862,14707.171,6817.9,14706.884,6817.96,14706.328Z" fill="#7ca3d0"/>
            <path id="Trazado_1665" data-name="Trazado 1665" d="M6836.747,14635.407c1.317-10.028,5.377-12.187,11.153-11.594,3.963.405,3.452,1.161,14.555,2.095,9.543.8,9.49-.407,13.484-.072,4.279.36,7.267,1.611,7.432,9.9.033,1.64-.143,3.281-.187,4.92-.025.962-.036,1.924-.067,2.885-.013.39-.637,1.441-.121,1.384.579-.062,1.472-2.1,1.566-2.551a55.978,55.978,0,0,0,1.212-8.246c.488-5.881.811-16.267-8.681-23.778-5.839-4.619-18.586-6.1-25.9-4.379-5.091,1.2-10.345,4.011-13.132,9.1-2.762,5.041-4.3,10.031-4.01,19.691.037,1.232,0,7.175,0,7.993C6834.05,14645.561,6835.485,14645.017,6836.747,14635.407Z" fill="#452812"/>
            <path id="Trazado_1666" data-name="Trazado 1666" d="M6839.53,14834.253s-17.446,5.145-18.918-3.448c0,0-8.624-33.456-8.622-60.478,0-9.413,6.04-16.079,12.9-14.776s10.935,5.068,13.433,18.1S6837.163,14816.815,6839.53,14834.253Z" fill="#636166"/>
            <path id="Trazado_1667" data-name="Trazado 1667" d="M6858.82,14834.253s-17.447,5.145-18.918-3.448c0,0-8.624-33.456-8.622-60.478,0-9.413,6.039-16.079,12.9-14.776s10.934,8.722,13.432,21.751S6856.452,14816.815,6858.82,14834.253Z" fill="#515052"/>
            <path id="Trazado_1668" data-name="Trazado 1668" d="M6862.009,14834.253s-17.447,5.145-18.919-3.448c0,0-8.624-33.456-8.622-60.478,0-9.413,6.04-16.079,12.9-14.776s10.935,8.722,13.433,21.751S6859.641,14816.815,6862.009,14834.253Z" fill="#636166"/>
            <path id="Trazado_1669" data-name="Trazado 1669" d="M6866.547,14659.488c-4.185,7.915-15.066,4.644-16.459-1.284a.63.63,0,0,1,.638-.829l15.434,1.248C6866.585,14658.658,6866.775,14659.056,6866.547,14659.488Z" fill="#fff"/>
            <path id="Trazado_1670" data-name="Trazado 1670" d="M6846.918,14641.729a5.109,5.109,0,0,0-3.705,1.906,1.28,1.28,0,1,0,2.086,1.483,2.809,2.809,0,0,1,2.572-.817c1.9.233,2.271,1.177,2.285,1.217a1.26,1.26,0,0,0,1.569.868,1.3,1.3,0,0,0,.883-1.6c-.265-.955-1.5-2.666-4.425-3.026A6.4,6.4,0,0,0,6846.918,14641.729Z" fill="#452812"/>
            <path id="Trazado_1671" data-name="Trazado 1671" d="M6877.1,14641.939a1.281,1.281,0,0,0,.394-2.458,14.43,14.43,0,0,0-8.914-1.025,1.28,1.28,0,0,0,.7,2.463,12.2,12.2,0,0,1,7.232.925A1.283,1.283,0,0,0,6877.1,14641.939Z" fill="#452812"/>
            <path id="Trazado_1672" data-name="Trazado 1672" d="M6870.849,14643.989a4.515,4.515,0,0,0-3.769,2.095,1.28,1.28,0,0,0,2.264,1.2c.052-.08.622-.876,2.469-.736a2.761,2.761,0,0,1,2.353,1.3,1.28,1.28,0,1,0,2.337-1.044,5.308,5.308,0,0,0-4.5-2.811A7.38,7.38,0,0,0,6870.849,14643.989Z" fill="#452812"/>
            <path id="Trazado_1673" data-name="Trazado 1673" d="M6853.1,14639.5a1.278,1.278,0,0,0,.492-2.41,14.461,14.461,0,0,0-8.956-.75,1.28,1.28,0,0,0,.5,2.51,12.213,12.213,0,0,1,7.29.52A1.282,1.282,0,0,0,6853.1,14639.5Z" fill="#452812"/>
          </g>
          <path id="Trazado_1674" data-name="Trazado 1674" d="M7000.083,14872.889c0,4.636-4.06,8.395-9.068,8.395H6846.933c-5.008,0-9.068-3.759-9.068-8.395v-24.739c0-4.637,4.06-8.395,9.068-8.395h144.082c5.008,0,9.068,3.758,9.068,8.395Z" fill="#d2e3ec"/>
          <path id="Trazado_1675" data-name="Trazado 1675" d="M6978.259,14702.007a8.173,8.173,0,0,0-8.173-8.173H6914.78c-8.327,25.074-11.545,53.709-33.353,71.5-1.226,1-2.467,1.968-3.715,2.917h94.339a8.318,8.318,0,0,0,8.456-8.173Z" fill="#d2e3ec"/>
          <path id="Trazado_1676" data-name="Trazado 1676" d="M6955.4,14769.651h-60.543s-10.689-47.279-3.065-59,62.276-9.543,66.673,0C6966.168,14727.35,6955.4,14769.651,6955.4,14769.651Z" fill="#ebf9ff"/>
          <path id="Trazado_1677" data-name="Trazado 1677" d="M6877.268,14736.887a292.368,292.368,0,0,0,5.243,32.765H6955.4a224.311,224.311,0,0,0,5.46-32.771c-12.124-2.062-17.539-4.015-36.307-4.015A289.407,289.407,0,0,0,6877.268,14736.887Z" fill="#d2e3ec"/>
          <path id="Trazado_1678" data-name="Trazado 1678" d="M6924.558,14735.416c-27.742,0-42.8,6.138-53.4,8.7-4.935,1.191-18.235,4.862-18.931,9.893l-19.479,81.03c-4.565,19.225,5.119,26.043,5.119,26.043h162.561s10.09-4.718,4.778-26.043l-19.478-81.03c-.7-5.03-5.18-10.388-10.115-11.586C6965.062,14739.861,6952.876,14735.416,6924.558,14735.416Z" fill="#ebf9ff"/>
          <g id="Grupo_1042" data-name="Grupo 1042">
            <path id="Trazado_1679" data-name="Trazado 1679" d="M6916.218,14700.91" fill="#311f11"/>
            <path id="Trazado_1680" data-name="Trazado 1680" d="M6898.08,14635.313h0a26.126,26.126,0,0,0-22.922,28.979l1.09,9.339.043,0,4.462,35.684a14.191,14.191,0,0,0,15.741,12.451l27.325-3.187c5.765-.673,6.258-5.394,5.585-11.158l-1.254-39.841-.994-8.512-.1-.828A26.126,26.126,0,0,0,6898.08,14635.313Z" fill="#5d3410"/>
            <path id="Trazado_1681" data-name="Trazado 1681" d="M6898.814,14711.194h13.6V14691.7l-13.6.715Z" fill="#ebc291"/>
            <path id="Trazado_1682" data-name="Trazado 1682" d="M6898.814,14699.981a17.861,17.861,0,0,0,6.034,1.188,20.042,20.042,0,0,0,7.568-1.616v-7.85h-13.6Z" fill="#d7a079"/>
            <path id="Trazado_1683" data-name="Trazado 1683" d="M6915.128,14671.219a7.3,7.3,0,0,0,7,7.822,7.741,7.741,0,0,0,8.192-6.967,7.293,7.293,0,0,0-7-7.821A7.739,7.739,0,0,0,6915.128,14671.219Z" fill="#ebc291"/>
            <path id="Trazado_1684" data-name="Trazado 1684" d="M6924.851,14673.114c1.486,12.732-9.906,23.907-20,25.085-8.055.656-20.81-5.037-24.408-19.7l-3.082-15.272c-1.486-12.731,8.132-22.374,20.628-23.832s23.614,5.857,25.1,18.591Z" fill="#ebc291"/>
            <path id="Trazado_1685" data-name="Trazado 1685" d="M6888.981,14679.492a5.092,5.092,0,0,1-3.829-1.606,1.276,1.276,0,0,1,1.958-1.636,2.8,2.8,0,0,0,2.618.613c1.868-.379,2.165-1.347,2.177-1.388a1.254,1.254,0,0,1,1.491-.982,1.294,1.294,0,0,1,1,1.52c-.189.97-1.279,2.766-4.161,3.351A6.273,6.273,0,0,1,6888.981,14679.492Z" fill="#452812"/>
            <path id="Trazado_1686" data-name="Trazado 1686" d="M6908.067,14650.952c-9.381,11.685-26.294,11.732-29.152,25.176,0,0-1.09-5.257-2.37-11.052-2.029-9.187,3.189-24.694,21.091-28.964,18.489-4.41,28.857,11.615,28.618,28.9l-1.819,2.02S6913.087,14661.542,6908.067,14650.952Z" fill="#5d3410"/>
            <path id="Trazado_1687" data-name="Trazado 1687" d="M6884.545,14672.321a1.276,1.276,0,0,1-.582-2.411,14.383,14.383,0,0,1,8.776-1.711,1.275,1.275,0,0,1-.5,2.5,12.165,12.165,0,0,0-7.114,1.479A1.255,1.255,0,0,1,6884.545,14672.321Z" fill="#5d3410"/>
            <path id="Trazado_1688" data-name="Trazado 1688" d="M6910.68,14675.538a4.5,4.5,0,0,1-3.906-1.789,1.276,1.276,0,0,1,2.156-1.363c.058.075.686.822,2.51.539a2.748,2.748,0,0,0,2.236-1.477,1.276,1.276,0,1,1,2.4.855,5.292,5.292,0,0,1-4.25,3.143A7.6,7.6,0,0,1,6910.68,14675.538Z" fill="#452812"/>
            <path id="Trazado_1689" data-name="Trazado 1689" d="M6906.3,14668.185a1.274,1.274,0,0,1-.676-2.356,14.413,14.413,0,0,1,8.84-1.44,1.276,1.276,0,1,1-.3,2.533,12.147,12.147,0,0,0-7.2,1.081A1.284,1.284,0,0,1,6906.3,14668.185Z" fill="#5d3410"/>
            <path id="Trazado_1690" data-name="Trazado 1690" d="M6904.532,14691.655a9.587,9.587,0,0,1-.975.093c-2.557.115-4.978-.78-5.889-2.176a1.014,1.014,0,1,1,1.7-1.107c.44.674,2.132,1.346,4.1,1.257a5.668,5.668,0,0,0,4.854-2.748,1.014,1.014,0,0,1,1.791.951A7.3,7.3,0,0,1,6904.532,14691.655Z" fill="#694018"/>
            <path id="Trazado_1691" data-name="Trazado 1691" d="M6922.872,14705.625c-.269-.125-.544-.247-.827-.366a44.019,44.019,0,0,0-6.329-2.22c-1.244-.295-2.339-.525-3.3-.7a9.069,9.069,0,0,1-8.371,5.6c-5.6.187-5.231-6.027-5.231-6.027a39.01,39.01,0,0,0-4.939.577c-14.006,3.1-13.656,17.26-13.337,27.752.8-.575,1.315-.905,1.315-.905a8.3,8.3,0,0,0,3.8,5.344s22.136,20.961,28.123,18.642c12.78-4.952,16.569-15.854,17.532-24.462q.073-.667.147-1.253C6932.539,14718.977,6930.356,14709.11,6922.872,14705.625Z" fill="#d48691"/>
            <g id="Grupo_1041" data-name="Grupo 1041">
              <path id="Trazado_1692" data-name="Trazado 1692" d="M6895.93,14720.957c6.851,9.456,10.8,20.054,10.87,26.906,0,0,2.761,11.423-6.039,14.307-14.942,4.9-23.3.5-35.311-16.073s-23.311-36.812-8.578-46.7C6873.521,14688.225,6883.921,14704.381,6895.93,14720.957Z" fill="#fefdf3"/>
              <path id="Trazado_1693" data-name="Trazado 1693" d="M6884.3,14709.852a74.608,74.608,0,0,0-6.56-8.278c-5.108-5.708-12.621-4.664-16.828-2.567-7.907,4.133-10.549,12.587-6.581,20.177l1.165,2.229c.093.178.191.351.289.523a19.342,19.342,0,0,0,7.574,7.051c4.017,1.861,8,1.888,12.609.166C6884.324,14726.028,6889.476,14718.242,6884.3,14709.852Z" fill="#eebd8a"/>
              <path id="Trazado_1694" data-name="Trazado 1694" d="M6866.3,14726.465c.837.948,2.494.853,3.708-.216s1.517-2.7.68-3.652-2.5-.852-3.709.218S6865.466,14725.517,6866.3,14726.465Z" fill="#e29879"/>
              <path id="Trazado_1695" data-name="Trazado 1695" d="M6884.3,14709.852s-.119-.183-.346-.512a2.58,2.58,0,0,0-1.944,2.171,2.16,2.16,0,0,0,2.183,2.374,2.646,2.646,0,0,0,1.681-.569A14.528,14.528,0,0,0,6884.3,14709.852Z" fill="#e29879"/>
              <g id="Grupo_1040" data-name="Grupo 1040">
                <path id="Trazado_1696" data-name="Trazado 1696" d="M6870.453,14715.9a.922.922,0,0,0-1.114.676c-.742,3.022-3.89,2.739-4.023,2.726a.923.923,0,0,0-1.015.813.921.921,0,0,0,.811,1.019,5.961,5.961,0,0,0,1.828-.1,6.144,6.144,0,0,0,.6-.155,5.126,5.126,0,0,0,3.587-3.867A.923.923,0,0,0,6870.453,14715.9Z" fill="#834f1c"/>
                <path id="Trazado_1697" data-name="Trazado 1697" d="M6880.714,14707.993a.923.923,0,0,0-1.019.811,2.561,2.561,0,0,1-.876,1.894,2.115,2.115,0,0,1-1.52.271.921.921,0,0,0-.433,1.791,4.228,4.228,0,0,0,1.7,0,3.511,3.511,0,0,0,1.3-.55,4.27,4.27,0,0,0,1.662-3.2A.922.922,0,0,0,6880.714,14707.993Z" fill="#834f1c"/>
              </g>
              <path id="Trazado_1698" data-name="Trazado 1698" d="M6880.939,14718.6a.743.743,0,0,0-.714-.073,1.061,1.061,0,0,0-.582.735l-.042.2a2.477,2.477,0,0,1-.961,1.826,2.826,2.826,0,0,1-2.056.484,1.328,1.328,0,0,0-.971.186.752.752,0,0,0-.313.5.979.979,0,0,0,.86,1.042h0a4.127,4.127,0,0,0,1.741,0,5.04,5.04,0,0,0,1.431-.53,3.654,3.654,0,0,0,1.936-2.878C6881.326,14719.716,6881.445,14718.922,6880.939,14718.6Z" fill="#834f1c"/>
            </g>
            <path id="Trazado_1699" data-name="Trazado 1699" d="M6918.822,14727.626c-2.019,7.333-3.666,19.007-6.323,21.1,0,0-3.189,2.339-11.236,1.5-4.743-.5-4.362-4.931-9.863-6.59a23.988,23.988,0,0,0-2.944-.488c-.556-.093-3.273-.256-4.04-.245-.865.011-2.111-.1-2.722.59-.719.809.262,1.872,1.137,2.187.563.2,6.657.766,6.444,1.944-.234,1.3-3.3.679-4.166.549-1.181-.174-5.683-.867-6.8-1.07-.778-.14-2.73-.88-3.223.217-.486,1.077,1.1,1.493,1.69,2.241.538.688.4,1.407.78,1.978,3.253,4.925,8.663,6.636,14.082,7.87a38.006,38.006,0,0,0,5.718,1.1c7.482,1.3,15.02,1.56,18.866.069,12.784-4.954,14.117-23.114,15.08-31.719C6926.94,14726.291,6920.391,14726.057,6918.822,14727.626Z" fill="#ebc291"/>
            <path id="Trazado_1700" data-name="Trazado 1700" d="M6875.275,14746.165l.007,0c.02,0,.04,0,.061-.006C6875.319,14746.156,6875.3,14746.162,6875.275,14746.165Z" fill="#d08f6f"/>
            <path id="Trazado_1701" data-name="Trazado 1701" d="M6858.9,14701.6c-1.717,1.738-1.758,4.068.448,5.544,3.718,2.487,9.984-1.507,9.984-1.507s-2.47.313-3.57-2.692C6864.586,14699.735,6861.652,14698.814,6858.9,14701.6Z" fill="#834f1c" opacity="0.5"/>
          </g>
          <g id="Grupo_1043" data-name="Grupo 1043">
            <path id="Trazado_1702" data-name="Trazado 1702" d="M6818.365,14707.416a113.938,113.938,0,0,0,17.108,2.878c-.376.985.662,24.856,0,24.719,11.528,2.385,16.94,8.624,25.435,9.316,4.714.384,13.152,15.344,4.678,14.639-11.126-.927-38.993-7.073-38.993-7.073-7.66-2.281-8.293-10.816-8.293-14.763C6818.3,14731.967,6818.2,14717.619,6818.365,14707.416Z" fill="#ebc291"/>
            <path id="Trazado_1703" data-name="Trazado 1703" d="M6859.362,14750.143a16.968,16.968,0,0,1,1.546-5.813c4.855-.328,5.519-4.705,11.338-5.411a18.712,18.712,0,0,1,3.02.134,37.2,37.2,0,0,1,4.047.725c.85.237,2.1.423,2.544,1.457a1.8,1.8,0,0,1-1.642,2.507c-2.546.146-6.659-.888-6.854,1.009-.289,2.826,10.564,3.827,12.568,4.229a2.226,2.226,0,0,1,1.815,2.469,2.141,2.141,0,0,1-1.53,1.878l.664.118a2.068,2.068,0,0,1,1.777,2.356c-.15,1.253-.992,1.875-2.443,1.925a5.876,5.876,0,0,1-1.953-.11,2.443,2.443,0,0,1,.677,2.009c-.145,1.22-2.942,2.515-14.16.6-2.647-.449-8.583-2.207-10.8-2.916C6859.978,14757.31,6859.017,14755.967,6859.362,14750.143Z" fill="#ebc291"/>
          </g>
          <g id="Grupo_1044" data-name="Grupo 1044">
            <path id="Trazado_1704" data-name="Trazado 1704" d="M6931.947,14705.332c.209,1.325.518,2.125-.536,2.691-1.353.726-1.828,1.557-2.733-1.655-.664-2.361-.113-3.83,1.276-3.427A3.132,3.132,0,0,1,6931.947,14705.332Z" fill="#d7a079"/>
            <path id="Trazado_1705" data-name="Trazado 1705" d="M6929.636,14712.989c-4.776-1.208-1.967-6.561,2.078-5.869,1.17.2,2.979,2.49,3.6,7.319.263,2.043,1.123,7.766-1.162,9.013-3.6,1.966-5.656-2.229-3.116-4.679C6926.975,14718.538,6926.9,14713.993,6929.636,14712.989Z" fill="#ebc291"/>
          </g>
        </g>
      </g>
    </g>
    <circle id="Elipse_100" data-name="Elipse 100" cx="98.333" cy="98.333" r="98.333" transform="translate(626.832 6047.801)" fill="none" stroke="#a3bd31" stroke-miterlimit="10" stroke-width="6"/>
  </g>
</svg>
