<svg xmlns="http://www.w3.org/2000/svg" xmlns:xlink="http://www.w3.org/1999/xlink" width="202.667" height="202.667" viewBox="0 0 202.667 202.667">
  <defs>
    <clipPath id="clip-path">
      <circle id="Elipse_88" data-name="Elipse 88" cx="98.333" cy="98.333" r="98.333" transform="translate(6777.266 12427.443)" fill="none"/>
    </clipPath>
    <clipPath id="clip-path-2">
      <rect id="Rectángulo_355" data-name="Rectángulo 355" width="140.137" height="182.625" transform="translate(6827.75 12449.57)" fill="none"/>
    </clipPath>
  </defs>
  <g id="Grupo_4784" data-name="Grupo 4784" transform="translate(-623.832 -3881.133)">
    <g id="Grupo_866" data-name="Grupo 866" transform="translate(-6150.434 -8543.311)">
      <g id="Grupo_865" data-name="Grupo 865" clip-path="url(#clip-path)">
        <g id="Grupo_828" data-name="Grupo 828">
          <g id="Grupo_823" data-name="Grupo 823">
            <g id="Grupo_822" data-name="Grupo 822">
              <g id="Grupo_794" data-name="Grupo 794">
                <path id="Trazado_1174" data-name="Trazado 1174" d="M6446.371,13220.394h-93.577l.232,113.694" fill="none" stroke="#909294" stroke-linecap="round" stroke-linejoin="round" stroke-width="21.782"/>
                <line id="Línea_325" data-name="Línea 325" y2="51.092" transform="translate(6446.604 13280.21)" fill="none" stroke="#909294" stroke-linecap="round" stroke-linejoin="round" stroke-width="18.152"/>
                <rect id="Rectángulo_335" data-name="Rectángulo 335" width="93.578" height="29.128" transform="translate(6353.026 13251.082)" fill="#3d3d66"/>
                <path id="Trazado_1175" data-name="Trazado 1175" d="M6353.46,13280.729H6446.6v-7.357H6353.46a3.424,3.424,0,0,0-3.093,3.679h0A3.424,3.424,0,0,0,6353.46,13280.729Z" fill="#2f2f4f"/>
                <path id="Trazado_1176" data-name="Trazado 1176" d="M6363.485,13218.017a5.944,5.944,0,0,0,5.942,5.942h57.926a5.943,5.943,0,0,0,5.943-5.942h0a5.943,5.943,0,0,0-5.943-5.942h-57.926a5.944,5.944,0,0,0-5.942,5.942Z" fill="#3d3d66"/>
                <path id="Trazado_1177" data-name="Trazado 1177" d="M6454.687,13166.425a5.465,5.465,0,0,0,5.467,5.466h28.319a5.466,5.466,0,0,0,5.467-5.466h0a5.467,5.467,0,0,0-5.467-5.466h-28.319a5.466,5.466,0,0,0-5.467,5.466Z" fill="#0d0d0d"/>
                <path id="Trazado_1178" data-name="Trazado 1178" d="M6488.473,13166.425h-28.319a5.461,5.461,0,0,0-4.729,2.733,5.459,5.459,0,0,1,4.729-8.2h28.319a5.46,5.46,0,0,1,4.73,8.2A5.463,5.463,0,0,0,6488.473,13166.425Z" fill="#333"/>
                <g id="Grupo_778" data-name="Grupo 778">
                  <path id="Trazado_1179" data-name="Trazado 1179" d="M6489.185,13166.188H6446.6v118.586h-95.24l-32.967,55.351" fill="none" stroke="#909294" stroke-linecap="round" stroke-linejoin="round" stroke-width="29.043"/>
                  <path id="Trazado_1180" data-name="Trazado 1180" d="M6462.292,13331.3h-67.977l-17.473-17.473h-39.16" fill="none" stroke="#909294" stroke-linecap="round" stroke-linejoin="round" stroke-width="18.152"/>
                  <path id="Trazado_1181" data-name="Trazado 1181" d="M6282.943,13317.768c-1.422,2.663.334,6.375,3.921,8.292l26.554,14.186c3.588,1.917,7.651,1.311,9.073-1.353h0c1.421-2.662-.333-6.375-3.922-8.292l-26.554-14.185c-3.588-1.916-7.65-1.311-9.072,1.352Z" fill="#333"/>
                  <path id="Trazado_1182" data-name="Trazado 1182" d="M6315.728,13336.552l-26.553-14.185a8.281,8.281,0,0,0-6.529-.748,4.112,4.112,0,0,1,.3-.74c1.422-2.663,5.484-3.268,9.072-1.352l26.554,14.185c3.589,1.916,5.343,5.629,3.922,8.292a4.532,4.532,0,0,1-2.543,2.1C6320.734,13341.529,6319,13338.3,6315.728,13336.552Z" fill="#0d0d0d"/>
                </g>
                <g id="Grupo_793" data-name="Grupo 793">
                  <g id="Grupo_779" data-name="Grupo 779">
                    <line id="Línea_326" data-name="Línea 326" x1="52.115" y1="13.964" transform="translate(6395.684 13294.089)" fill="none" stroke="#b5b5b5" stroke-miterlimit="10" stroke-width="3.63"/>
                    <line id="Línea_327" data-name="Línea 327" x1="52.101" y2="14.012" transform="translate(6395.698 13308.053)" fill="none" stroke="#b5b5b5" stroke-miterlimit="10" stroke-width="3.63"/>
                    <line id="Línea_328" data-name="Línea 328" x1="38.081" y2="38.221" transform="translate(6409.718 13308.053)" fill="none" stroke="#b5b5b5" stroke-miterlimit="10" stroke-width="3.63"/>
                    <line id="Línea_329" data-name="Línea 329" x1="13.822" y2="52.155" transform="translate(6433.977 13308.053)" fill="none" stroke="#b5b5b5" stroke-miterlimit="10" stroke-width="3.63"/>
                    <line id="Línea_330" data-name="Línea 330" x2="14.153" y2="52.066" transform="translate(6447.799 13308.053)" fill="none" stroke="#b5b5b5" stroke-miterlimit="10" stroke-width="3.63"/>
                    <line id="Línea_331" data-name="Línea 331" x2="38.325" y2="37.98" transform="translate(6447.799 13308.053)" fill="none" stroke="#b5b5b5" stroke-miterlimit="10" stroke-width="3.63"/>
                    <line id="Línea_332" data-name="Línea 332" x2="52.192" y2="13.683" transform="translate(6447.799 13308.053)" fill="none" stroke="#b5b5b5" stroke-miterlimit="10" stroke-width="3.63"/>
                    <line id="Línea_333" data-name="Línea 333" y1="14.292" x2="52.027" transform="translate(6447.799 13293.761)" fill="none" stroke="#b5b5b5" stroke-miterlimit="10" stroke-width="3.63"/>
                    <line id="Línea_334" data-name="Línea 334" y1="38.425" x2="37.875" transform="translate(6447.799 13269.628)" fill="none" stroke="#b5b5b5" stroke-miterlimit="10" stroke-width="3.63"/>
                    <line id="Línea_335" data-name="Línea 335" y1="52.226" x2="13.541" transform="translate(6447.799 13255.826)" fill="none" stroke="#b5b5b5" stroke-miterlimit="10" stroke-width="3.63"/>
                    <line id="Línea_336" data-name="Línea 336" x1="14.435" y1="51.986" transform="translate(6433.364 13256.066)" fill="none" stroke="#b5b5b5" stroke-miterlimit="10" stroke-width="3.63"/>
                    <line id="Línea_337" data-name="Línea 337" x1="38.528" y1="37.768" transform="translate(6409.271 13270.284)" fill="none" stroke="#b5b5b5" stroke-miterlimit="10" stroke-width="3.63"/>
                  </g>
                  <g id="Grupo_780" data-name="Grupo 780">
                    <line id="Línea_338" data-name="Línea 338" x1="46.726" y1="26.976" transform="translate(6401.066 13281.065)" fill="none" stroke="#b5b5b5" stroke-miterlimit="10" stroke-width="3.63"/>
                    <line id="Línea_339" data-name="Línea 339" x1="53.952" y2="0.049" transform="translate(6393.839 13308.041)" fill="none" stroke="#b5b5b5" stroke-miterlimit="10" stroke-width="3.63"/>
                    <line id="Línea_340" data-name="Línea 340" x1="46.675" y2="27.063" transform="translate(6401.116 13308.041)" fill="none" stroke="#b5b5b5" stroke-miterlimit="10" stroke-width="3.63"/>
                    <line id="Línea_341" data-name="Línea 341" x1="26.849" y2="46.8" transform="translate(6420.942 13308.041)" fill="none" stroke="#b5b5b5" stroke-miterlimit="10" stroke-width="3.63"/>
                    <line id="Línea_342" data-name="Línea 342" x2="0.195" y2="53.956" transform="translate(6447.792 13308.041)" fill="none" stroke="#b5b5b5" stroke-miterlimit="10" stroke-width="3.63"/>
                    <line id="Línea_343" data-name="Línea 343" x2="27.189" y2="46.606" transform="translate(6447.792 13308.041)" fill="none" stroke="#b5b5b5" stroke-miterlimit="10" stroke-width="3.63"/>
                    <line id="Línea_344" data-name="Línea 344" x2="46.872" y2="26.725" transform="translate(6447.792 13308.041)" fill="none" stroke="#b5b5b5" stroke-miterlimit="10" stroke-width="3.63"/>
                    <line id="Línea_345" data-name="Línea 345" y1="0.339" x2="53.953" transform="translate(6447.792 13307.702)" fill="none" stroke="#b5b5b5" stroke-miterlimit="10" stroke-width="3.63"/>
                    <line id="Línea_346" data-name="Línea 346" y1="27.312" x2="46.531" transform="translate(6447.792 13280.729)" fill="none" stroke="#b5b5b5" stroke-miterlimit="10" stroke-width="3.63"/>
                    <line id="Línea_347" data-name="Línea 347" y1="46.942" x2="26.597" transform="translate(6447.792 13261.099)" fill="none" stroke="#b5b5b5" stroke-miterlimit="10" stroke-width="3.63"/>
                    <line id="Línea_348" data-name="Línea 348" x1="0.488" y1="53.951" transform="translate(6447.304 13254.091)" fill="none" stroke="#b5b5b5" stroke-miterlimit="10" stroke-width="3.63"/>
                    <line id="Línea_349" data-name="Línea 349" x1="27.44" y1="46.453" transform="translate(6420.352 13261.588)" fill="none" stroke="#b5b5b5" stroke-miterlimit="10" stroke-width="3.63"/>
                  </g>
                  <g id="Grupo_781" data-name="Grupo 781">
                    <line id="Línea_350" data-name="Línea 350" x1="53.953" transform="translate(6393.846 13308.053)" fill="none" stroke="#b5b5b5" stroke-miterlimit="10" stroke-width="5.446"/>
                    <line id="Línea_351" data-name="Línea 351" x1="46.7" y2="27.02" transform="translate(6401.1 13308.053)" fill="none" stroke="#b5b5b5" stroke-miterlimit="10" stroke-width="5.446"/>
                    <line id="Línea_352" data-name="Línea 352" x1="26.891" y2="46.774" transform="translate(6420.908 13308.053)" fill="none" stroke="#b5b5b5" stroke-miterlimit="10" stroke-width="5.446"/>
                    <line id="Línea_353" data-name="Línea 353" x2="0.147" y2="53.956" transform="translate(6447.799 13308.053)" fill="none" stroke="#b5b5b5" stroke-miterlimit="10" stroke-width="5.446"/>
                    <line id="Línea_354" data-name="Línea 354" x2="27.146" y2="46.629" transform="translate(6447.799 13308.053)" fill="none" stroke="#b5b5b5" stroke-miterlimit="10" stroke-width="5.446"/>
                    <line id="Línea_355" data-name="Línea 355" x2="46.847" y2="26.767" transform="translate(6447.799 13308.053)" fill="none" stroke="#b5b5b5" stroke-miterlimit="10" stroke-width="5.446"/>
                    <line id="Línea_356" data-name="Línea 356" y1="0.292" x2="53.955" transform="translate(6447.799 13307.761)" fill="none" stroke="#b5b5b5" stroke-miterlimit="10" stroke-width="5.446"/>
                    <line id="Línea_357" data-name="Línea 357" y1="27.271" x2="46.555" transform="translate(6447.799 13280.781)" fill="none" stroke="#b5b5b5" stroke-miterlimit="10" stroke-width="5.446"/>
                    <line id="Línea_358" data-name="Línea 358" y1="46.918" x2="26.639" transform="translate(6447.799 13261.134)" fill="none" stroke="#b5b5b5" stroke-miterlimit="10" stroke-width="5.446"/>
                    <line id="Línea_359" data-name="Línea 359" x1="0.438" y1="53.951" transform="translate(6447.361 13254.101)" fill="none" stroke="#b5b5b5" stroke-miterlimit="10" stroke-width="5.446"/>
                    <line id="Línea_360" data-name="Línea 360" x1="27.398" y1="46.478" transform="translate(6420.401 13261.574)" fill="none" stroke="#b5b5b5" stroke-miterlimit="10" stroke-width="5.446"/>
                    <line id="Línea_361" data-name="Línea 361" x1="46.991" y1="26.509" transform="translate(6400.808 13281.543)" fill="none" stroke="#b5b5b5" stroke-miterlimit="10" stroke-width="5.446"/>
                  </g>
                  <g id="Grupo_792" data-name="Grupo 792">
                    <g id="Grupo_783" data-name="Grupo 783">
                      <g id="Grupo_782" data-name="Grupo 782">
                        <path id="Trazado_1183" data-name="Trazado 1183" d="M6447.8,13254.1a53.953,53.953,0,1,1-53.953,53.953,53.952,53.952,0,0,1,53.953-53.953m0-4.277a58.07,58.07,0,1,0,22.668,4.578,57.868,57.868,0,0,0-22.668-4.578Z" fill="#363636"/>
                      </g>
                    </g>
                    <g id="Grupo_785" data-name="Grupo 785">
                      <g id="Grupo_784" data-name="Grupo 784">
                        <path id="Trazado_1184" data-name="Trazado 1184" d="M6447.8,13255.526a52.355,52.355,0,1,1-20.445,4.127,52.206,52.206,0,0,1,20.445-4.127m0-1.427a53.953,53.953,0,1,0,53.953,53.953,53.952,53.952,0,0,0-53.953-53.953Z" fill="#dbdbdb"/>
                      </g>
                    </g>
                    <g id="Grupo_787" data-name="Grupo 787">
                      <g id="Grupo_786" data-name="Grupo 786">
                        <path id="Trazado_1185" data-name="Trazado 1185" d="M6447.8,13263.147a44.749,44.749,0,1,1-17.479,3.527,44.627,44.627,0,0,1,17.479-3.527m0-1.854a46.76,46.76,0,1,0,46.761,46.76,46.759,46.759,0,0,0-46.761-46.76Z" fill="#dbdbdb"/>
                      </g>
                    </g>
                    <g id="Grupo_789" data-name="Grupo 789">
                      <g id="Grupo_788" data-name="Grupo 788">
                        <path id="Trazado_1186" data-name="Trazado 1186" d="M6440.187,13308.053a7.613,7.613,0,1,1,7.612,7.613A7.612,7.612,0,0,1,6440.187,13308.053Z" fill="#dbdbdb"/>
                      </g>
                    </g>
                    <g id="Grupo_791" data-name="Grupo 791">
                      <g id="Grupo_790" data-name="Grupo 790">
                        <path id="Trazado_1187" data-name="Trazado 1187" d="M6442.341,13308.053a5.459,5.459,0,1,1,5.458,5.459A5.46,5.46,0,0,1,6442.341,13308.053Z" fill="#595959"/>
                      </g>
                    </g>
                  </g>
                </g>
                <path id="Trazado_1188" data-name="Trazado 1188" d="M6320.739,13348.5a15.236,15.236,0,1,0,15.235-15.236A15.235,15.235,0,0,0,6320.739,13348.5Z" fill="#363636"/>
                <path id="Trazado_1189" data-name="Trazado 1189" d="M6327.6,13348.5a8.372,8.372,0,1,0,8.371-8.371A8.371,8.371,0,0,0,6327.6,13348.5Z" fill="#6d6d6d"/>
                <path id="Trazado_1190" data-name="Trazado 1190" d="M6331.239,13348.5a4.735,4.735,0,1,0,4.735-4.735A4.736,4.736,0,0,0,6331.239,13348.5Z" fill="#333"/>
                <path id="Trazado_1191" data-name="Trazado 1191" d="M6353.026,13334.088c0,7.963-7.625,14.407-17.052,14.407" fill="none" stroke="#0d0d0d" stroke-linecap="round" stroke-linejoin="round" stroke-width="36.304"/>
                <path id="Trazado_1192" data-name="Trazado 1192" d="M6333.2,13348.5a2.771,2.771,0,1,0,2.772-2.772A2.772,2.772,0,0,0,6333.2,13348.5Z" fill="#cfcfcf"/>
              </g>
              <rect id="Rectángulo_336" data-name="Rectángulo 336" width="40.371" height="76.205" transform="translate(6446.896 13177.896)" fill="#3d3d66"/>
              <g id="Grupo_804" data-name="Grupo 804">
                <path id="Trazado_1193" data-name="Trazado 1193" d="M6428.23,13159.861l-6.316,45.942-44.249-1.2" fill="none" stroke="#e4ae96" stroke-linecap="round" stroke-linejoin="round" stroke-width="69.111"/>
                <rect id="Rectángulo_337" data-name="Rectángulo 337" width="20.894" height="16.159" rx="8.079" transform="translate(6370.072 13193.798) rotate(17.182)" fill="#dd957a"/>
                <path id="Rectángulo_338" data-name="Rectángulo 338" d="M12.254,0h0A12.254,12.254,0,0,1,24.508,12.254V39.943a0,0,0,0,1,0,0H0a0,0,0,0,1,0,0V12.254A12.254,12.254,0,0,1,12.254,0Z" transform="translate(6417.968 13148.134) rotate(14.111)" fill="#587b68"/>
                <g id="Grupo_803" data-name="Grupo 803">
                  <path id="Trazado_1194" data-name="Trazado 1194" d="M6477.205,13257.468l-73.414-4.312,11.533-92.475a13.516,13.516,0,0,1,14.141-12.864l39.529,1.868a13.517,13.517,0,0,1,12.864,14.142Z" fill="#648777"/>
                  <g id="Grupo_798" data-name="Grupo 798">
                    <g id="Grupo_797" data-name="Grupo 797">
                      <g id="Grupo_795" data-name="Grupo 795">
                        <rect id="Rectángulo_339" data-name="Rectángulo 339" width="15.24" height="9.521" transform="translate(6322.103 13304.907) rotate(30.05)" fill="#e4ae96"/>
                      </g>
                      <g id="Grupo_796" data-name="Grupo 796">
                        <path id="Trazado_1195" data-name="Trazado 1195" d="M6322.926,13333.918l-26.535-15.351a7.59,7.59,0,0,1-2.769-10.369h0a7.59,7.59,0,0,1,10.37-2.77l26.535,15.352Z" fill="#e4ae96"/>
                      </g>
                      <rect id="Rectángulo_340" data-name="Rectángulo 340" width="38.244" height="3.795" transform="translate(6322.926 13333.918) rotate(-149.95)" fill="#090909"/>
                      <rect id="Rectángulo_341" data-name="Rectángulo 341" width="7.248" height="11.384" transform="matrix(-0.866, -0.501, 0.501, -0.866, 6307.406, 13320.555)" fill="#090909"/>
                    </g>
                    <path id="Trazado_1196" data-name="Trazado 1196" d="M6424.76,13257.917l-65.73.092-30.77,44.187" fill="none" stroke="#587b68" stroke-linecap="square" stroke-linejoin="round" stroke-width="129.584"/>
                  </g>
                  <g id="Grupo_802" data-name="Grupo 802">
                    <g id="Grupo_801" data-name="Grupo 801">
                      <g id="Grupo_799" data-name="Grupo 799">
                        <rect id="Rectángulo_342" data-name="Rectángulo 342" width="15.24" height="9.521" transform="matrix(0.866, 0.501, -0.501, 0.866, 6362.542, 13304.907)" fill="#e4ae96"/>
                      </g>
                      <g id="Grupo_800" data-name="Grupo 800">
                        <path id="Trazado_1197" data-name="Trazado 1197" d="M6363.365,13333.918l-26.534-15.351a7.589,7.589,0,0,1-2.769-10.369h0a7.589,7.589,0,0,1,10.369-2.77l26.535,15.352Z" fill="#e4ae96"/>
                      </g>
                      <rect id="Rectángulo_343" data-name="Rectángulo 343" width="38.244" height="3.795" transform="translate(6363.365 13333.918) rotate(-149.95)" fill="#090909"/>
                      <rect id="Rectángulo_344" data-name="Rectángulo 344" width="7.248" height="11.384" transform="matrix(-0.866, -0.501, 0.501, -0.866, 6347.845, 13320.556)" fill="#090909"/>
                    </g>
                    <path id="Trazado_1198" data-name="Trazado 1198" d="M6465.2,13257.917l-65.73.092L6368.7,13302.2" fill="none" stroke="#587b68" stroke-linecap="square" stroke-linejoin="round" stroke-width="129.584"/>
                  </g>
                </g>
                <path id="Trazado_1199" data-name="Trazado 1199" d="M6470.273,13160.72l-8.474,45-39.885.082" fill="none" stroke="#e4ae96" stroke-linecap="round" stroke-linejoin="round" stroke-width="69.111"/>
                <rect id="Rectángulo_345" data-name="Rectángulo 345" width="20.894" height="16.159" rx="8.079" transform="translate(6409.345 13196.519) rotate(2.706)" fill="#dd957a"/>
                <path id="Rectángulo_346" data-name="Rectángulo 346" d="M12.254,0h0A12.254,12.254,0,0,1,24.508,12.254V39.943a0,0,0,0,1,0,0H0a0,0,0,0,1,0,0V12.254A12.254,12.254,0,0,1,12.254,0Z" transform="translate(6458.687 13150.26) rotate(8.793)" fill="#587b68"/>
              </g>
              <g id="Grupo_821" data-name="Grupo 821">
                <g id="Grupo_820" data-name="Grupo 820">
                  <path id="Trazado_1200" data-name="Trazado 1200" d="M6530.081,13166.188H6487.5v118.586H6391.13l-32.967,55.351" fill="none" stroke="#909294" stroke-linecap="round" stroke-linejoin="round" stroke-width="29.043"/>
                  <path id="Trazado_1201" data-name="Trazado 1201" d="M6503.188,13331.3h-67.977l-17.473-17.473h-45.1" fill="none" stroke="#909294" stroke-linecap="round" stroke-linejoin="round" stroke-width="18.152"/>
                  <path id="Trazado_1202" data-name="Trazado 1202" d="M6487.267,13220.394H6393.69l.232,113.694" fill="none" stroke="#909294" stroke-linecap="round" stroke-linejoin="round" stroke-width="21.782"/>
                  <line id="Línea_362" data-name="Línea 362" y2="51.092" transform="translate(6487.5 13280.21)" fill="none" stroke="#909294" stroke-linecap="round" stroke-linejoin="round" stroke-width="18.152"/>
                  <rect id="Rectángulo_347" data-name="Rectángulo 347" width="93.578" height="29.128" transform="translate(6393.922 13251.082)" fill="#2f2f4f"/>
                  <path id="Trazado_1203" data-name="Trazado 1203" d="M6404.381,13218.017a5.944,5.944,0,0,0,5.942,5.942h57.926a5.943,5.943,0,0,0,5.943-5.942h0a5.943,5.943,0,0,0-5.943-5.942h-57.926a5.944,5.944,0,0,0-5.942,5.942Z" fill="#2f2f4f"/>
                  <path id="Trazado_1204" data-name="Trazado 1204" d="M6495.583,13166.425a5.465,5.465,0,0,0,5.467,5.466h28.319a5.466,5.466,0,0,0,5.467-5.466h0a5.467,5.467,0,0,0-5.467-5.466H6501.05a5.466,5.466,0,0,0-5.467,5.466Z" fill="#0d0d0d"/>
                  <path id="Trazado_1205" data-name="Trazado 1205" d="M6529.369,13166.425H6501.05a5.461,5.461,0,0,0-4.729,2.733,5.459,5.459,0,0,1,4.729-8.2h28.319a5.46,5.46,0,0,1,4.73,8.2A5.463,5.463,0,0,0,6529.369,13166.425Z" fill="#333"/>
                  <path id="Trazado_1206" data-name="Trazado 1206" d="M6323.557,13318.051c-1.423,2.663.333,6.375,3.92,8.292l26.554,14.186c3.588,1.917,7.651,1.311,9.073-1.353h0c1.422-2.663-.333-6.376-3.922-8.292l-26.553-14.185c-3.589-1.916-7.65-1.312-9.072,1.352Z" fill="#333"/>
                  <path id="Trazado_1207" data-name="Trazado 1207" d="M6356.341,13333.724l-26.552-14.185a8.285,8.285,0,0,0-6.53-.748,4.048,4.048,0,0,1,.3-.74c1.422-2.663,5.483-3.268,9.072-1.352l26.553,14.185c3.589,1.916,5.344,5.629,3.922,8.292a4.528,4.528,0,0,1-2.542,2.1C6361.347,13338.7,6359.609,13335.469,6356.341,13333.724Z" fill="#0d0d0d"/>
                  <g id="Grupo_819" data-name="Grupo 819">
                    <g id="Grupo_805" data-name="Grupo 805">
                      <line id="Línea_363" data-name="Línea 363" x1="52.115" y1="13.964" transform="translate(6436.58 13294.089)" fill="none" stroke="#b5b5b5" stroke-miterlimit="10" stroke-width="3.63"/>
                      <line id="Línea_364" data-name="Línea 364" x1="52.101" y2="14.012" transform="translate(6436.594 13308.053)" fill="none" stroke="#b5b5b5" stroke-miterlimit="10" stroke-width="3.63"/>
                      <line id="Línea_365" data-name="Línea 365" x1="38.081" y2="38.221" transform="translate(6450.614 13308.053)" fill="none" stroke="#b5b5b5" stroke-miterlimit="10" stroke-width="3.63"/>
                      <line id="Línea_366" data-name="Línea 366" x1="13.822" y2="52.155" transform="translate(6474.873 13308.053)" fill="none" stroke="#b5b5b5" stroke-miterlimit="10" stroke-width="3.63"/>
                      <line id="Línea_367" data-name="Línea 367" x2="14.153" y2="52.066" transform="translate(6488.695 13308.053)" fill="none" stroke="#b5b5b5" stroke-miterlimit="10" stroke-width="3.63"/>
                      <line id="Línea_368" data-name="Línea 368" x2="38.325" y2="37.98" transform="translate(6488.695 13308.053)" fill="none" stroke="#b5b5b5" stroke-miterlimit="10" stroke-width="3.63"/>
                      <line id="Línea_369" data-name="Línea 369" x2="52.192" y2="13.683" transform="translate(6488.695 13308.053)" fill="none" stroke="#b5b5b5" stroke-miterlimit="10" stroke-width="3.63"/>
                      <line id="Línea_370" data-name="Línea 370" y1="14.292" x2="52.027" transform="translate(6488.695 13293.761)" fill="none" stroke="#b5b5b5" stroke-miterlimit="10" stroke-width="3.63"/>
                      <line id="Línea_371" data-name="Línea 371" y1="38.425" x2="37.875" transform="translate(6488.695 13269.628)" fill="none" stroke="#b5b5b5" stroke-miterlimit="10" stroke-width="3.63"/>
                      <line id="Línea_372" data-name="Línea 372" y1="52.226" x2="13.541" transform="translate(6488.695 13255.826)" fill="none" stroke="#b5b5b5" stroke-miterlimit="10" stroke-width="3.63"/>
                      <line id="Línea_373" data-name="Línea 373" x1="14.435" y1="51.986" transform="translate(6474.26 13256.066)" fill="none" stroke="#b5b5b5" stroke-miterlimit="10" stroke-width="3.63"/>
                      <line id="Línea_374" data-name="Línea 374" x1="38.528" y1="37.768" transform="translate(6450.167 13270.284)" fill="none" stroke="#b5b5b5" stroke-miterlimit="10" stroke-width="3.63"/>
                    </g>
                    <g id="Grupo_806" data-name="Grupo 806">
                      <line id="Línea_375" data-name="Línea 375" x1="46.726" y1="26.976" transform="translate(6441.962 13281.065)" fill="none" stroke="#b5b5b5" stroke-miterlimit="10" stroke-width="3.63"/>
                      <line id="Línea_376" data-name="Línea 376" x1="53.952" y2="0.049" transform="translate(6434.735 13308.041)" fill="none" stroke="#b5b5b5" stroke-miterlimit="10" stroke-width="3.63"/>
                      <line id="Línea_377" data-name="Línea 377" x1="46.675" y2="27.063" transform="translate(6442.012 13308.041)" fill="none" stroke="#b5b5b5" stroke-miterlimit="10" stroke-width="3.63"/>
                      <line id="Línea_378" data-name="Línea 378" x1="26.849" y2="46.8" transform="translate(6461.838 13308.041)" fill="none" stroke="#b5b5b5" stroke-miterlimit="10" stroke-width="3.63"/>
                      <line id="Línea_379" data-name="Línea 379" x2="0.195" y2="53.956" transform="translate(6488.688 13308.041)" fill="none" stroke="#b5b5b5" stroke-miterlimit="10" stroke-width="3.63"/>
                      <line id="Línea_380" data-name="Línea 380" x2="27.189" y2="46.606" transform="translate(6488.688 13308.041)" fill="none" stroke="#b5b5b5" stroke-miterlimit="10" stroke-width="3.63"/>
                      <line id="Línea_381" data-name="Línea 381" x2="46.872" y2="26.725" transform="translate(6488.688 13308.041)" fill="none" stroke="#b5b5b5" stroke-miterlimit="10" stroke-width="3.63"/>
                      <line id="Línea_382" data-name="Línea 382" y1="0.339" x2="53.953" transform="translate(6488.688 13307.702)" fill="none" stroke="#b5b5b5" stroke-miterlimit="10" stroke-width="3.63"/>
                      <line id="Línea_383" data-name="Línea 383" y1="27.312" x2="46.531" transform="translate(6488.688 13280.729)" fill="none" stroke="#b5b5b5" stroke-miterlimit="10" stroke-width="3.63"/>
                      <line id="Línea_384" data-name="Línea 384" y1="46.942" x2="26.597" transform="translate(6488.688 13261.099)" fill="none" stroke="#b5b5b5" stroke-miterlimit="10" stroke-width="3.63"/>
                      <line id="Línea_385" data-name="Línea 385" x1="0.488" y1="53.951" transform="translate(6488.2 13254.091)" fill="none" stroke="#b5b5b5" stroke-miterlimit="10" stroke-width="3.63"/>
                      <line id="Línea_386" data-name="Línea 386" x1="27.44" y1="46.453" transform="translate(6461.248 13261.588)" fill="none" stroke="#b5b5b5" stroke-miterlimit="10" stroke-width="3.63"/>
                    </g>
                    <g id="Grupo_807" data-name="Grupo 807">
                      <line id="Línea_387" data-name="Línea 387" x1="53.953" transform="translate(6434.742 13308.053)" fill="none" stroke="#b5b5b5" stroke-miterlimit="10" stroke-width="5.446"/>
                      <line id="Línea_388" data-name="Línea 388" x1="46.7" y2="27.02" transform="translate(6441.996 13308.053)" fill="none" stroke="#b5b5b5" stroke-miterlimit="10" stroke-width="5.446"/>
                      <line id="Línea_389" data-name="Línea 389" x1="26.891" y2="46.774" transform="translate(6461.804 13308.053)" fill="none" stroke="#b5b5b5" stroke-miterlimit="10" stroke-width="5.446"/>
                      <line id="Línea_390" data-name="Línea 390" x2="0.147" y2="53.956" transform="translate(6488.695 13308.053)" fill="none" stroke="#b5b5b5" stroke-miterlimit="10" stroke-width="5.446"/>
                      <line id="Línea_391" data-name="Línea 391" x2="27.146" y2="46.629" transform="translate(6488.695 13308.053)" fill="none" stroke="#b5b5b5" stroke-miterlimit="10" stroke-width="5.446"/>
                      <line id="Línea_392" data-name="Línea 392" x2="46.847" y2="26.767" transform="translate(6488.695 13308.053)" fill="none" stroke="#b5b5b5" stroke-miterlimit="10" stroke-width="5.446"/>
                      <line id="Línea_393" data-name="Línea 393" y1="0.292" x2="53.955" transform="translate(6488.695 13307.761)" fill="none" stroke="#b5b5b5" stroke-miterlimit="10" stroke-width="5.446"/>
                      <line id="Línea_394" data-name="Línea 394" y1="27.271" x2="46.555" transform="translate(6488.695 13280.781)" fill="none" stroke="#b5b5b5" stroke-miterlimit="10" stroke-width="5.446"/>
                      <line id="Línea_395" data-name="Línea 395" y1="46.918" x2="26.639" transform="translate(6488.695 13261.134)" fill="none" stroke="#b5b5b5" stroke-miterlimit="10" stroke-width="5.446"/>
                      <line id="Línea_396" data-name="Línea 396" x1="0.438" y1="53.951" transform="translate(6488.257 13254.101)" fill="none" stroke="#b5b5b5" stroke-miterlimit="10" stroke-width="5.446"/>
                      <line id="Línea_397" data-name="Línea 397" x1="27.398" y1="46.478" transform="translate(6461.297 13261.574)" fill="none" stroke="#b5b5b5" stroke-miterlimit="10" stroke-width="5.446"/>
                      <line id="Línea_398" data-name="Línea 398" x1="46.991" y1="26.509" transform="translate(6441.704 13281.543)" fill="none" stroke="#b5b5b5" stroke-miterlimit="10" stroke-width="5.446"/>
                    </g>
                    <g id="Grupo_818" data-name="Grupo 818">
                      <g id="Grupo_809" data-name="Grupo 809">
                        <g id="Grupo_808" data-name="Grupo 808">
                          <path id="Trazado_1208" data-name="Trazado 1208" d="M6488.695,13254.1a53.953,53.953,0,1,1-53.953,53.953,53.952,53.952,0,0,1,53.953-53.953m0-4.277a58.07,58.07,0,1,0,22.668,4.578,57.868,57.868,0,0,0-22.668-4.578Z" fill="#363636"/>
                        </g>
                      </g>
                      <g id="Grupo_811" data-name="Grupo 811">
                        <g id="Grupo_810" data-name="Grupo 810">
                          <path id="Trazado_1209" data-name="Trazado 1209" d="M6488.695,13255.526a52.355,52.355,0,1,1-20.445,4.127,52.206,52.206,0,0,1,20.445-4.127m0-1.427a53.953,53.953,0,1,0,53.953,53.953,53.952,53.952,0,0,0-53.953-53.953Z" fill="#dbdbdb"/>
                        </g>
                      </g>
                      <g id="Grupo_813" data-name="Grupo 813">
                        <g id="Grupo_812" data-name="Grupo 812">
                          <path id="Trazado_1210" data-name="Trazado 1210" d="M6488.695,13263.147a44.749,44.749,0,1,1-17.479,3.527,44.627,44.627,0,0,1,17.479-3.527m0-1.854a46.76,46.76,0,1,0,46.761,46.76,46.759,46.759,0,0,0-46.761-46.76Z" fill="#dbdbdb"/>
                        </g>
                      </g>
                      <g id="Grupo_815" data-name="Grupo 815">
                        <g id="Grupo_814" data-name="Grupo 814">
                          <path id="Trazado_1211" data-name="Trazado 1211" d="M6481.083,13308.053a7.613,7.613,0,1,1,7.612,7.613A7.612,7.612,0,0,1,6481.083,13308.053Z" fill="#dbdbdb"/>
                        </g>
                      </g>
                      <g id="Grupo_817" data-name="Grupo 817">
                        <g id="Grupo_816" data-name="Grupo 816">
                          <path id="Trazado_1212" data-name="Trazado 1212" d="M6483.237,13308.053a5.459,5.459,0,1,1,5.458,5.459A5.46,5.46,0,0,1,6483.237,13308.053Z" fill="#595959"/>
                        </g>
                      </g>
                    </g>
                  </g>
                  <path id="Trazado_1213" data-name="Trazado 1213" d="M6361.635,13348.5a15.236,15.236,0,1,0,15.235-15.236A15.235,15.235,0,0,0,6361.635,13348.5Z" fill="#363636"/>
                  <path id="Trazado_1214" data-name="Trazado 1214" d="M6368.5,13348.5a8.372,8.372,0,1,0,8.371-8.371A8.371,8.371,0,0,0,6368.5,13348.5Z" fill="#6d6d6d"/>
                  <path id="Trazado_1215" data-name="Trazado 1215" d="M6372.135,13348.5a4.735,4.735,0,1,0,4.735-4.735A4.736,4.736,0,0,0,6372.135,13348.5Z" fill="#333"/>
                  <path id="Trazado_1216" data-name="Trazado 1216" d="M6393.922,13334.088c0,7.963-7.625,14.407-17.052,14.407" fill="none" stroke="#0d0d0d" stroke-linecap="round" stroke-linejoin="round" stroke-width="36.304"/>
                  <path id="Trazado_1217" data-name="Trazado 1217" d="M6374.1,13348.5a2.771,2.771,0,1,0,2.772-2.772A2.772,2.772,0,0,0,6374.1,13348.5Z" fill="#cfcfcf"/>
                </g>
              </g>
            </g>
          </g>
          <g id="Grupo_827" data-name="Grupo 827">
            <rect id="Rectángulo_348" data-name="Rectángulo 348" width="17.068" height="5.893" transform="translate(6437.083 13149.045) rotate(4.063)" fill="#e4ae96"/>
            <path id="Trazado_1218" data-name="Trazado 1218" d="M6457.81,13088.81l-7.716.437c-7.789.111-16.013-5-19.336,4.351-.685,1.93-5.359,5.2-5.888,12.643l-1.18,16.622a18.891,18.891,0,0,0,17.48,20.107l9.752.693a18.946,18.946,0,0,0,20.209-17.431l1.18-16.622C6473.046,13099.27,6465.137,13090.217,6457.81,13088.81Z" fill="#949494"/>
            <rect id="Rectángulo_349" data-name="Rectángulo 349" width="17.068" height="5.362" transform="translate(6437.284 13146.229) rotate(4.063)" fill="#e4ae96"/>
            <rect id="Rectángulo_350" data-name="Rectángulo 350" width="17.068" height="5.648" transform="translate(6437.284 13146.229) rotate(4.063)" fill="#dd957a"/>
            <path id="Rectángulo_351" data-name="Rectángulo 351" d="M10.52,0H31.293a10.52,10.52,0,0,1,10.52,10.52V27A20.907,20.907,0,0,1,20.907,47.9h0A20.907,20.907,0,0,1,0,27V10.52A10.52,10.52,0,0,1,10.52,0Z" transform="matrix(0.997, 0.071, -0.071, 0.997, 6428.186, 13099.681)" fill="#e4ae96"/>
            <path id="Trazado_1219" data-name="Trazado 1219" d="M6467.069,13121.768c3.538-5.286,8.959-2.223,8.634,2.356s-3.937,10.285-9.5,9.89Z" fill="#e4ae96"/>
            <path id="Trazado_1220" data-name="Trazado 1220" d="M6427.615,13118.966c-1.787-5.665-8.555-3.467-8.88,1.112s3.412,10.807,8.011,11.134Z" fill="#e4ae96"/>
            <path id="Trazado_1221" data-name="Trazado 1221" d="M6437.23,13100.323s4.458,5.065,10.335,5.482,9.68-4.207,12.275-3.877-18.276-9.62-18.276-9.62Z" fill="#949494"/>
            <path id="Trazado_1222" data-name="Trazado 1222" d="M6452.615,13133.474c-.178,2.5-5.263,3.113-6.419,3.031s-6.1-1.409-5.926-3.908Z" fill="#fff" stroke="#9c534a" stroke-miterlimit="10" stroke-width="4.501"/>
            <g id="Grupo_825" data-name="Grupo 825">
              <g id="Grupo_824" data-name="Grupo 824">
                <path id="Trazado_1223" data-name="Trazado 1223" d="M6438.581,13119.125a1.762,1.762,0,1,1-1.634-1.858A1.75,1.75,0,0,1,6438.581,13119.125Z"/>
                <path id="Trazado_1224" data-name="Trazado 1224" d="M6459.7,13120.625a1.762,1.762,0,1,1-1.634-1.858A1.751,1.751,0,0,1,6459.7,13120.625Z"/>
              </g>
              <path id="Trazado_1225" data-name="Trazado 1225" d="M6449.33,13128.29c-.068.957-1.26,1.653-2.663,1.553s-2.484-.957-2.416-1.914,1.26-1.652,2.662-1.553S6449.4,13127.332,6449.33,13128.29Z" fill="#cf9985"/>
              <line id="Línea_399" data-name="Línea 399" x2="6.535" y2="0.464" transform="translate(6455.558 13116.016)" fill="#fff" stroke="#323030" stroke-miterlimit="10" stroke-width="4.942"/>
              <line id="Línea_400" data-name="Línea 400" x2="6.293" y2="0.447" transform="translate(6434.015 13114.485)" fill="#fff" stroke="#323030" stroke-miterlimit="10" stroke-width="4.942"/>
              <rect id="Rectángulo_352" data-name="Rectángulo 352" width="13.71" height="9.043" rx="4.522" transform="matrix(0.997, 0.071, -0.071, 0.997, 6430.224, 13115.174)" fill="none" stroke="#383838" stroke-linecap="round" stroke-miterlimit="10" stroke-width="5.735"/>
              <path id="Rectángulo_353" data-name="Rectángulo 353" d="M4.521,0H9.189A4.522,4.522,0,0,1,13.71,4.522v0A4.521,4.521,0,0,1,9.189,9.043H4.522A4.522,4.522,0,0,1,0,4.522v0A4.521,4.521,0,0,1,4.521,0Z" transform="translate(6451.544 13116.688) rotate(4.063)" fill="none" stroke="#383838" stroke-linecap="round" stroke-miterlimit="10" stroke-width="5.735"/>
              <line id="Línea_401" data-name="Línea 401" x2="7.503" y2="0.533" transform="translate(6443.388 13119.53)" fill="none" stroke="#383838" stroke-miterlimit="10" stroke-width="7.413"/>
              <line id="Línea_402" data-name="Línea 402" y1="1.363" x2="3.826" transform="translate(6464.846 13119.853)" fill="none" stroke="#383838" stroke-miterlimit="10" stroke-width="6.193"/>
              <line id="Línea_403" data-name="Línea 403" x1="3.595" y1="1.89" transform="translate(6426.695 13116.871)" fill="none" stroke="#383838" stroke-miterlimit="10" stroke-width="6.193"/>
            </g>
            <path id="Trazado_1226" data-name="Trazado 1226" d="M6436.964,13132.362a2.78,2.78,0,0,0-.908,3.423" fill="none" stroke="#dd957a" stroke-miterlimit="10" stroke-width="2.25"/>
            <path id="Trazado_1227" data-name="Trazado 1227" d="M6455.339,13133.667a2.779,2.779,0,0,1,.414,3.517" fill="none" stroke="#dd957a" stroke-miterlimit="10" stroke-width="2.25"/>
            <path id="Trazado_1228" data-name="Trazado 1228" d="M6459.534,13122.291a2.778,2.778,0,0,1,2.161,2.8" fill="none" stroke="#dd957a" stroke-miterlimit="10" stroke-width="2.25"/>
            <path id="Trazado_1229" data-name="Trazado 1229" d="M6460.094,13121.618a2.778,2.778,0,0,1,3.081,1.745" fill="none" stroke="#dd957a" stroke-miterlimit="10" stroke-width="2.25"/>
            <path id="Trazado_1230" data-name="Trazado 1230" d="M6435.017,13120.549a2.781,2.781,0,0,0-2.535,2.473" fill="none" stroke="#dd957a" stroke-miterlimit="10" stroke-width="2.25"/>
            <path id="Trazado_1231" data-name="Trazado 1231" d="M6434.557,13119.8a2.778,2.778,0,0,0-3.3,1.292" fill="none" stroke="#dd957a" stroke-miterlimit="10" stroke-width="2.25"/>
            <g id="Grupo_826" data-name="Grupo 826">
              <path id="Trazado_1232" data-name="Trazado 1232" d="M6440.719,13108.736a55.012,55.012,0,0,1,6.553-.116,62.442,62.442,0,0,1,6.728,1.059" fill="none" stroke="#dd957a" stroke-miterlimit="10" stroke-width="2.056"/>
              <path id="Trazado_1233" data-name="Trazado 1233" d="M6440.629,13110a55.245,55.245,0,0,1,6.553-.116,62.319,62.319,0,0,1,6.728,1.06" fill="none" stroke="#dd957a" stroke-miterlimit="10" stroke-width="2.056"/>
              <path id="Trazado_1234" data-name="Trazado 1234" d="M6440.54,13111.261a55.231,55.231,0,0,1,6.553-.116,62.506,62.506,0,0,1,6.728,1.061" fill="none" stroke="#dd957a" stroke-miterlimit="10" stroke-width="2.056"/>
            </g>
            <path id="Trazado_1235" data-name="Trazado 1235" d="M6441.546,13136.987s4.969,2.861,10.088.275C6451.634,13137.263,6446.471,13141.469,6441.546,13136.987Z" fill="#dd957a"/>
            <path id="Trazado_1236" data-name="Trazado 1236" d="M6438.474,13098.625s5.763,8.348,19.666,2.837a26.588,26.588,0,0,1-19.98-2.859" fill="#aaa8a8"/>
            <path id="Trazado_1237" data-name="Trazado 1237" d="M6469.459,13108.765a1.644,1.644,0,0,0,2.291-.354S6471.925,13110.786,6469.459,13108.765Z" fill="#aaa8a8"/>
            <path id="Trazado_1238" data-name="Trazado 1238" d="M6469.539,13110.764a1.642,1.642,0,0,0,2.29-.354S6472,13112.786,6469.539,13110.764Z" fill="#aaa8a8"/>
            <path id="Trazado_1239" data-name="Trazado 1239" d="M6469.429,13112.307a1.643,1.643,0,0,0,2.291-.354S6471.894,13114.329,6469.429,13112.307Z" fill="#aaa8a8"/>
            <path id="Trazado_1240" data-name="Trazado 1240" d="M6427.908,13105.149s-1.136.73-2.218-.676C6425.69,13104.474,6425.181,13106.8,6427.908,13105.149Z" fill="#aaa8a8"/>
            <path id="Trazado_1241" data-name="Trazado 1241" d="M6427.546,13107.117s-1.135.731-2.217-.674C6425.329,13106.443,6424.82,13108.77,6427.546,13107.117Z" fill="#aaa8a8"/>
            <path id="Trazado_1242" data-name="Trazado 1242" d="M6427.437,13108.66s-1.136.731-2.218-.674C6425.219,13107.986,6424.71,13110.313,6427.437,13108.66Z" fill="#aaa8a8"/>
            <ellipse id="Elipse_79" data-name="Elipse 79" cx="4.42" cy="8.534" rx="4.42" ry="8.534" transform="matrix(0.071, -0.997, 0.997, 0.071, 6436.353, 13159.331)" fill="#e4ae96"/>
          </g>
        </g>
        <g id="Grupo_864" data-name="Grupo 864">
          <g id="brick">
            <rect id="Rectángulo_354" data-name="Rectángulo 354" width="44.618" height="19.41" transform="matrix(0.78, 0.626, -0.626, 0.78, 6796.467, 12507.311)" fill="#d16f3f"/>
            <path id="Trazado_1243" data-name="Trazado 1243" d="M6784.37,12522.49l-.082-4.833,10.9-13.793,1.2,3.545Z" fill="#ba542c"/>
            <path id="Trazado_1244" data-name="Trazado 1244" d="M6831.111,12535.428l-34.8-27.921-1.137-3.82,34.8,27.921Z" fill="#d57d55"/>
            <g id="Grupo_830" data-name="Grupo 830">
              <circle id="Elipse_80" data-name="Elipse 80" cx="4.916" cy="4.916" r="4.916" transform="translate(6791.168 12516.065)" fill="#a74626"/>
              <g id="Grupo_829" data-name="Grupo 829">
                <circle id="Elipse_81" data-name="Elipse 81" cx="4.348" cy="4.348" r="4.348" transform="translate(6791.933 12516.387)" fill="#bf5d37"/>
              </g>
            </g>
            <g id="Grupo_832" data-name="Grupo 832">
              <circle id="Elipse_82" data-name="Elipse 82" cx="4.916" cy="4.916" r="4.916" transform="translate(6802.425 12525.096)" fill="#a74626"/>
              <g id="Grupo_831" data-name="Grupo 831">
                <circle id="Elipse_83" data-name="Elipse 83" cx="4.348" cy="4.348" r="4.348" transform="translate(6803.189 12525.417)" fill="#bf5d37"/>
              </g>
            </g>
            <g id="Grupo_834" data-name="Grupo 834">
              <circle id="Elipse_84" data-name="Elipse 84" cx="4.916" cy="4.916" r="4.916" transform="translate(6813.681 12534.127)" fill="#a74626"/>
              <g id="Grupo_833" data-name="Grupo 833">
                <circle id="Elipse_85" data-name="Elipse 85" cx="4.348" cy="4.348" r="4.348" transform="translate(6814.446 12534.448)" fill="#bf5d37"/>
              </g>
            </g>
          </g>
          <g id="stars_and_lines" data-name="stars and lines">
            <g id="stars">
              <path id="Trazado_1245" data-name="Trazado 1245" d="M6850.889,12478.867l5.209-9.378-.177,10.726,14.689-11.294L6859.6,12483.9l10.725-.178-9.377,5.209,5.889,4.635-7.237.4,7.817,10.621-11.5-6.937.177,10.725-5.209-9.377-8.112,14.867,3.081-16.215-5.69,2.3,2.007-5.982-12.734.474,11.386-5.5-5.587-4.643,6.936-.389-5.517-9.2,9.2,5.517.688-8.1Z" fill="#f5ef57"/>
              <g id="Grupo_840" data-name="Grupo 840">
                <g id="Grupo_836" data-name="Grupo 836">
                  <path id="Trazado_1246" data-name="Trazado 1246" d="M6838.185,12459.188l2.586-1.36-.494,2.881,2.092,2.039-2.892.42-1.293,2.621-1.293-2.621-2.892-.42,2.093-2.039-.494-2.881Z" fill="#f5ef57"/>
                  <g id="Grupo_835" data-name="Grupo 835">
                    <path id="Trazado_1247" data-name="Trazado 1247" d="M6840.264,12465.138l-.941-1.906-2.105-.307,1.523-1.484-.359-2.1,1.882.99,1.883-.99-.36,2.1,1.523,1.484-2.1.307Zm-2.7-2.326,1.865.271.834,1.691.835-1.691,1.865-.271-1.35-1.314.319-1.858-1.669.877-1.668-.877.318,1.858Z" fill="#333738"/>
                  </g>
                </g>
                <g id="Grupo_837" data-name="Grupo 837">
                  <path id="Trazado_1248" data-name="Trazado 1248" d="M6848.791,12482.395l-1.04-2.107-2.326-.338,1.683-1.642-.4-2.316,2.08,1.094,2.081-1.094-.4,2.316,1.683,1.642-2.326.338Zm-2.984-2.57,2.062.3.922,1.869.923-1.869,2.062-.3-1.493-1.454.353-2.054-1.845.97-1.844-.97.352,2.054Z" fill="#333738"/>
                </g>
                <g id="Grupo_839" data-name="Grupo 839">
                  <path id="Trazado_1249" data-name="Trazado 1249" d="M6827.474,12503.9l2.586-1.36-.494,2.88,2.092,2.04-2.892.42-1.293,2.621-1.293-2.621-2.892-.42,2.092-2.04-.494-2.88Z" fill="#f5ef57"/>
                  <g id="Grupo_838" data-name="Grupo 838">
                    <path id="Trazado_1250" data-name="Trazado 1250" d="M6828.618,12510.056l-1.041-2.107-2.326-.338,1.683-1.642-.4-2.317,2.081,1.094,2.081-1.094-.4,2.317,1.684,1.642-2.327.338Zm-2.985-2.57,2.063.3.922,1.868.922-1.868,2.062-.3-1.492-1.454.352-2.055-1.844.971-1.845-.971.353,2.055Z" fill="#333738"/>
                  </g>
                </g>
              </g>
            </g>
            <g id="lines">
              <g id="Grupo_844" data-name="Grupo 844">
                <g id="Grupo_841" data-name="Grupo 841">
                  <path id="Trazado_1251" data-name="Trazado 1251" d="M6842.892,12478.145a59.279,59.279,0,0,0-30.643-9.585.232.232,0,0,1,.014-.464,59.736,59.736,0,0,1,30.876,9.656c.25.163,0,.557-.247.393Z" fill="#1f2222"/>
                </g>
                <g id="Grupo_842" data-name="Grupo 842">
                  <path id="Trazado_1252" data-name="Trazado 1252" d="M6823.214,12481.013a91.686,91.686,0,0,0-21.189,5.789c-.274.112-.492-.3-.215-.412a92.13,92.13,0,0,1,21.3-5.829c.294-.044.4.408.1.452Z" fill="#1f2222"/>
                </g>
                <g id="Grupo_843" data-name="Grupo 843">
                  <path id="Trazado_1253" data-name="Trazado 1253" d="M6847.64,12494.721a28.584,28.584,0,0,0-28.734,2.52c-.24.172-.557-.168-.314-.343a29.071,29.071,0,0,1,29.3-2.569c.268.13.019.521-.247.393Z" fill="#1f2222"/>
                </g>
              </g>
              <g id="Grupo_847" data-name="Grupo 847">
                <g id="Grupo_845" data-name="Grupo 845">
                  <path id="Trazado_1254" data-name="Trazado 1254" d="M6860.418,12472.6a41.993,41.993,0,0,1,19.872-29.266c.257-.153-.022-.524-.277-.373a42.446,42.446,0,0,0-20.055,29.577.232.232,0,0,0,.46.062Z" fill="#1f2222"/>
                </g>
                <g id="Grupo_846" data-name="Grupo 846">
                  <path id="Trazado_1255" data-name="Trazado 1255" d="M6877.847,12457.81a59.264,59.264,0,0,1,25.537-19.462.232.232,0,0,0-.172-.432,59.731,59.731,0,0,0-25.731,19.608c-.18.238.186.524.366.285Z" fill="#1f2222"/>
                </g>
              </g>
            </g>
          </g>
          <g id="worker_without_helmet" data-name="worker without helmet">
            <g id="Grupo_863" data-name="Grupo 863" clip-path="url(#clip-path-2)">
              <g id="Grupo_862" data-name="Grupo 862">
                <g id="worker">
                  <path id="Trazado_1256" data-name="Trazado 1256" d="M6891.929,12550.244s-9.651,3.372-14.613,9.08-1.018,16.856,2.084,33.308c2.611,13.853,16.072,58.064,18.151,59.524s19.726,1.245,30.38-4.407,26.909-15.37,27.839-16.866-21-53.066-24.155-58.267-12.124-24.392-18.982-25.5S6893.169,12550.518,6891.929,12550.244Z" fill="#4170b3"/>
                  <path id="Trazado_1257" data-name="Trazado 1257" d="M6904.569,12553.941c-.485-2.906-1.367-6.174-1.367-6.174l-.121-.022a42.534,42.534,0,0,1-10.748.888s-3.933,2.844-7.82,5.081l-.833.545s1.111,8.334,2.716,11.965,6.188,8.295,7.582,9.559,6.677,5.076,6.677,5.076,3.983-9.1,4.265-12.744A70.731,70.731,0,0,0,6904.569,12553.941Z" fill="#5084c2"/>
                  <g id="right_hand" data-name="right hand">
                    <g id="Grupo_848" data-name="Grupo 848">
                      <path id="Trazado_1258" data-name="Trazado 1258" d="M6868.327,12595.032l-3.965,35.575-14.434,39.14-2.666,11.619,4.943,2.992,6.186-10.342s18.3-34.865,19.932-40.326c1.176-3.938,5.4-31.88,5.4-31.88Z" fill="#ebc79d"/>
                      <path id="Trazado_1259" data-name="Trazado 1259" d="M6878.323,12633.69c1.176-3.938,5.4-31.88,5.4-31.88l-13.338-5.871-2.664,4.526-.12,1.071c1.728,1.482,9.476,8.273,9.923,11.191.5,3.285-.527,17.222-1.766,20.669-1.124,3.127-22.057,47.756-22.057,47.756l.376.073,4.313-7.21S6876.691,12639.151,6878.323,12633.69Z" fill="#cca17d"/>
                    </g>
                    <g id="glove">
                      <path id="Trazado_1260" data-name="Trazado 1260" d="M6850.214,12667.011l10.3,4.348s-.42,5.02-.3,6.254a49.241,49.241,0,0,1,.174,8.417c-.407,4.655-.007,8.963-2.677,9.147-2.53.175-3.461-7.621-3.461-7.621s-1.085-.471-2.884,2.938-2.389,14.427-11.23,12.526-5.285-16.787-2.862-20.891c1.826-3.092,7.829-8.9,10.678-11.582A17.838,17.838,0,0,0,6850.214,12667.011Z" fill="#6eb09a"/>
                      <path id="Trazado_1261" data-name="Trazado 1261" d="M6848.639,12669.948c2.244,1.374,6.409,2.818,7.714,4.823,1.178,1.808,3.278,10.531.875,11.481s-3.466-1.3-4.255-.97c-1.879.784-5.763,8.211-6.645,10.454s-2.573,5.31-6.888,4.615c-3.376-.543-4.552-3.732-4.9-5.1.294,3.729,1.8,6.946,5.6,7.763,8.841,1.9,9.43-9.118,11.23-12.526s2.884-2.937,2.884-2.937.931,7.8,3.461,7.621c2.67-.185,2.27-4.492,2.677-9.147a49.241,49.241,0,0,0-.174-8.417c-.119-1.234.3-6.254.3-6.254l-10.3-4.348S6849.212,12669,6848.639,12669.948Z" fill="#5d9783"/>
                      <path id="Trazado_1262" data-name="Trazado 1262" d="M6860.217,12677.612c-.119-1.234.3-6.254.3-6.254l-10.185-4.3c2.36,1.307,6.718,3.739,7.612,4.388,1.239.9,1.406,2.6,1.551,4.564a87.864,87.864,0,0,1-.028,11.754c-.381,2.551-.164,5.216-2.051,5.567-1.412.263-1.907-6.529-3.39-6.448-1.841.1-3.971,4.012-4.556,6.473-.575,2.424-3.569,7.938-5.765,8.844-2.461,1.015-4.52.14-6.343-.47a6.51,6.51,0,0,0,2.776,1.287c8.841,1.9,9.526-9.121,11.206-12.59,1.437-2.968,2.908-2.874,2.908-2.874s.931,7.8,3.461,7.621c2.67-.185,2.27-4.492,2.677-9.147A49.241,49.241,0,0,0,6860.217,12677.612Z" fill="#528574"/>
                    </g>
                    <g id="Grupo_849" data-name="Grupo 849">
                      <path id="Trazado_1263" data-name="Trazado 1263" d="M6883.853,12609.109c.332-2.02-4.447-51.64-4.447-51.64-.985.383-12.04,11.113-15.175,28.482a98.815,98.815,0,0,0-.608,10.908C6867.476,12601.263,6875.436,12605.792,6883.853,12609.109Z" fill="#4170b3"/>
                      <path id="Trazado_1264" data-name="Trazado 1264" d="M6864.231,12585.952a98.815,98.815,0,0,0-.608,10.908c.1.12.214.238.324.358,3.585-.589,8.219-2.1,10.074-5.945,2.617-5.43.664-21.853-.128-27.736A55.061,55.061,0,0,0,6864.231,12585.952Z" fill="#5084c2"/>
                    </g>
                  </g>
                  <g id="vest">
                    <path id="Trazado_1265" data-name="Trazado 1265" d="M6932.866,12561c-2.666-4.891-7.449-13.008-12.538-16.826-4.454-.954-13.321,2.434-16.1,3.254.666,3.8,2.727,9.974,1.951,18.386a45.814,45.814,0,0,1-5.147,16.6s-9.743-7.027-13.014-11.974c-4.485-6.783-4.653-16.112-4.653-16.112a29.348,29.348,0,0,0-7.278,6.263c-.071,13,2.52,36.393,8.691,58.417,4.977,17.566,12.427,33.188,13.723,34.1,1.645,1.157,14.743,2.667,25.267-1.932l.013.035c1.529-.662,3-1.358,4.365-2.085,10.724-5.693,27.489-12.377,29.4-18.739C6959.632,12623.441,6941.728,12577.265,6932.866,12561Z" fill="#d16f3f"/>
                    <path id="Trazado_1266" data-name="Trazado 1266" d="M6928.15,12649.129c10.724-5.693,27.489-12.377,29.4-18.739,2.084-6.948-15.82-53.125-24.682-69.385-2.666-4.891-7.449-13.008-12.538-16.826-1.957-.419-8.751,1.178-11.52,1.849,1.193,4.055,3.728,9.394,7.157,15.746s9.305,12.644,12.168,18.369c10.316,20.634,15.269,53.442-1.754,69.884C6926.985,12649.732,6927.577,12649.433,6928.15,12649.129Z" fill="#ba542c"/>
                    <path id="Trazado_1267" data-name="Trazado 1267" d="M6930.464,12556.793l-.184,9.751s10.5,18.132,14.553,30.062,6.68,31.97,1.67,42.705q-.163.35-.328.688c5.761-3.174,10.419-6.432,11.373-9.609,2.084-6.948-15.82-53.125-24.682-69.385C6932.191,12559.767,6931.38,12558.322,6930.464,12556.793Z" fill="#a74626"/>
                    <g id="Grupo_852" data-name="Grupo 852">
                      <g id="Grupo_850" data-name="Grupo 850">
                        <path id="Trazado_1268" data-name="Trazado 1268" d="M6881.833,12607.237c.591,2.651,1.231,5.313,1.921,7.966a41.664,41.664,0,0,0,4.9-.45c13.2-1.949,32.587-9.812,57.686-23.391-.978-2.5-1.977-5-2.979-7.433C6904.429,12605.069,6888.043,12607.56,6881.833,12607.237Z" fill="#fff"/>
                        <path id="Trazado_1269" data-name="Trazado 1269" d="M6946.337,12591.357c-.977-2.5-1.975-4.991-2.976-7.428q-5.91,3.209-11.136,5.858c.89,2.492,1.694,5.072,2.391,7.711q5.635-2.845,11.723-6.137Z" fill="#dedfe0"/>
                        <path id="Trazado_1270" data-name="Trazado 1270" d="M6940.255,12585.6c1.158,2.465,2.259,4.949,3.2,7.309q1.43-.76,2.882-1.547c-.979-2.506-1.976-4.994-2.977-7.429Q6941.781,12584.785,6940.255,12585.6Z" fill="#c8c9ca"/>
                      </g>
                      <g id="Grupo_851" data-name="Grupo 851">
                        <path id="Trazado_1271" data-name="Trazado 1271" d="M6947.871,12595.339c-39.909,21.834-56.644,24.427-62.963,24.113.777,2.713,1.61,5.377,2.47,7.944a43.194,43.194,0,0,0,4.309-.43c13.426-1.981,33.245-10.08,58.964-24.085C6949.769,12600.41,6948.836,12597.881,6947.871,12595.339Z" fill="#fff"/>
                        <path id="Trazado_1272" data-name="Trazado 1272" d="M6950.649,12602.877c-.881-2.47-1.813-5-2.777-7.536q-6.519,3.563-12.228,6.465c.582,2.717,1.044,5.471,1.366,8.229q6.516-3.274,13.641-7.152Z" fill="#dedfe0"/>
                        <path id="Trazado_1273" data-name="Trazado 1273" d="M6950.65,12602.878c-.882-2.471-1.814-5-2.778-7.537q-1.49.81-2.931,1.588a79.1,79.1,0,0,1,2.15,7.874q1.761-.94,3.56-1.921Z" fill="#c8c9ca"/>
                      </g>
                    </g>
                    <g id="Grupo_853" data-name="Grupo 853">
                      <path id="Trazado_1274" data-name="Trazado 1274" d="M6924.45,12650.964a264.977,264.977,0,0,1-11.62-25.012c-4.7-12.082-14.1-40.856-14.1-40.856l2.307-2.7-1.349,2.718c1.329,3.608,10.643,28.862,15.013,40.107,4.672,12.023,11.292,24.827,11.357,24.95Z" fill="#ba542c"/>
                    </g>
                  </g>
                  <g id="head">
                    <circle id="Elipse_86" data-name="Elipse 86" cx="4.228" cy="4.228" r="4.228" transform="matrix(0.286, -0.958, 0.958, 0.286, 6901.05, 12523.201)" fill="#ebc79d"/>
                    <path id="Trazado_1275" data-name="Trazado 1275" d="M6903.9,12516.887a4.228,4.228,0,1,0,6.034,5.647,2.756,2.756,0,0,1-4.051-.733c-.67-.965-.822-4.17-1.074-5.389A4.264,4.264,0,0,0,6903.9,12516.887Z" fill="#cca17d"/>
                    <circle id="Elipse_87" data-name="Elipse 87" cx="4.228" cy="4.228" r="4.228" transform="translate(6853.803 12528.899) rotate(-11.346)" fill="#ebc79d"/>
                    <path id="Trazado_1276" data-name="Trazado 1276" d="M6883.806,12550.362l3.663,10.449s2.989,4.609,7.924,3.071c5.973-1.861,5.738-6.735,5.738-6.735l-4.857-14.6Z" fill="#dcb28b"/>
                    <path id="Trazado_1277" data-name="Trazado 1277" d="M6856.368,12528.741c-.021.015-.04.032-.061.048a15.971,15.971,0,0,1,2.164,7.639,4.227,4.227,0,1,0-2.1-7.687Z" fill="#dcb28b"/>
                    <path id="Trazado_1278" data-name="Trazado 1278" d="M6851.964,12511.244a22.615,22.615,0,0,0,1.375,10.626c2.147,4.943,5.628,8.1,5.725,13.181s2.871,12.161,5.483,15.922,11.919,9.384,16.881,8.864c5.039-.528,12.956-7.284,16.2-11.255s7.539-9.526,7.795-16.567-2.374-21.942-3.54-26.709-8.626-16.74-13.931-18.2-14.8-2.159-19.251.075-10.489,3.425-13.8,9.157S6851.964,12511.244,6851.964,12511.244Z" fill="#ebc79d"/>
                    <path id="Trazado_1279" data-name="Trazado 1279" d="M6889.791,12503.714c16.291,19.023,10.815,38.624-5.795,55.444,9.342-3.954,17.636-13.147,20.5-22.193,1.456-4.594.809-9.769.273-14.7C6903.29,12508.617,6900.923,12501.636,6889.791,12503.714Z" fill="#dcb28b"/>
                    <path id="Trazado_1280" data-name="Trazado 1280" d="M6901.745,12504.8a28.071,28.071,0,0,0-7.527-1.3c13.96,16.3,11.205,33.966-.112,49a42.089,42.089,0,0,0,3.786-3.917c3.246-3.971,7.318-9.945,7.533-16.57.228-7.042-2.374-21.942-3.54-26.709C6901.846,12505.145,6901.8,12504.974,6901.745,12504.8Z" fill="#cca17d"/>
                    <path id="Trazado_1281" data-name="Trazado 1281" d="M6860.516,12524.081l1.472.852a.5.5,0,0,0,.527-.023l4.532-2.977a.512.512,0,0,0,.236-.451l-.088-1.514a.467.467,0,0,0-.732-.346c-1.389.85-4.516,2.766-5.921,3.64A.476.476,0,0,0,6860.516,12524.081Z" fill="#474b4d"/>
                    <path id="Trazado_1282" data-name="Trazado 1282" d="M6887.5,12516.572l-.632,1.579a.506.506,0,0,1-.431.306l-5.4.451a.515.515,0,0,1-.464-.21l-.864-1.246a.467.467,0,0,1,.363-.724c1.618-.187,5.261-.607,6.906-.785A.475.475,0,0,1,6887.5,12516.572Z" fill="#474b4d"/>
                    <g id="Grupo_854" data-name="Grupo 854">
                      <path id="Trazado_1283" data-name="Trazado 1283" d="M6873.984,12538.226a.345.345,0,0,1-.253.06c-.719-.108-2.077-.68-2.07-2.075a2.154,2.154,0,0,1,.66-1.684,2.4,2.4,0,0,1,1.7-.5.352.352,0,1,1-.082.7,1.64,1.64,0,0,0-1.149.335,1.494,1.494,0,0,0-.421,1.157c-.005,1.141,1.456,1.373,1.47,1.376a.352.352,0,0,1,.3.4A.347.347,0,0,1,6873.984,12538.226Z" fill="#cca17d"/>
                    </g>
                    <g id="Grupo_855" data-name="Grupo 855">
                      <path id="Trazado_1284" data-name="Trazado 1284" d="M6908.115,12521.541a.353.353,0,0,1-.467-.521c.743-.854-.176-1.955-.216-2a.351.351,0,0,1,.04-.5.347.347,0,0,1,.495.037,2.265,2.265,0,0,1,.213,2.924A.405.405,0,0,1,6908.115,12521.541Z" fill="#cca17d"/>
                    </g>
                    <g id="Grupo_856" data-name="Grupo 856">
                      <path id="Trazado_1285" data-name="Trazado 1285" d="M6858.057,12534.364a.354.354,0,0,1-.382.013,2.264,2.264,0,0,1-1.122-2.708.352.352,0,0,1,.65.271c-.436,1.045.783,1.8.835,1.833a.352.352,0,0,1,.12.482A.371.371,0,0,1,6858.057,12534.364Z" fill="#cca17d"/>
                    </g>
                    <g id="eye_1" data-name="eye 1">
                      <path id="Trazado_1286" data-name="Trazado 1286" d="M6862.515,12527.516c.126-.153,1.228.906,2.455,1.364s3.225.3,3.214.514c-.006.132-1.991.971-2.979,1.773s-1.5,1.819-1.659,1.748.831-1.687,1.335-2.209a7.312,7.312,0,0,1,1.463-.909,4.912,4.912,0,0,1-1.9-.441A6.692,6.692,0,0,1,6862.515,12527.516Z" fill="#383838"/>
                      <path id="Trazado_1287" data-name="Trazado 1287" d="M6863.9,12533.958a1.892,1.892,0,0,1-1.3-.366,3.037,3.037,0,0,1-.64-1.322,9.016,9.016,0,0,0,.748.947A7.8,7.8,0,0,0,6863.9,12533.958Z" fill="#cca17d"/>
                      <path id="Trazado_1288" data-name="Trazado 1288" d="M6862.622,12534.275a1.788,1.788,0,0,1-1.015-.585,2.511,2.511,0,0,1-.3-1.18,7.961,7.961,0,0,0,.456.911A7.365,7.365,0,0,0,6862.622,12534.275Z" fill="#cca17d"/>
                    </g>
                    <g id="eye_1-2" data-name="eye 1">
                      <path id="Trazado_1289" data-name="Trazado 1289" d="M6885.7,12521.16c-.248-.141-1.272,1.671-2.756,2.775s-4.332,1.77-4.216,2.032c.071.162,3.228.366,4.983.952s2.954,1.648,3.14,1.49-1.96-1.769-2.909-2.21a11.729,11.729,0,0,0-2.467-.517,7.358,7.358,0,0,0,2.419-1.373A8.594,8.594,0,0,0,6885.7,12521.16Z" fill="#383838"/>
                      <path id="Trazado_1290" data-name="Trazado 1290" d="M6886.85,12529.879a2.813,2.813,0,0,0,1.633-1.021,3.692,3.692,0,0,0,.257-1.942,11.324,11.324,0,0,1-.585,1.515A10.737,10.737,0,0,1,6886.85,12529.879Z" fill="#cca17d"/>
                      <path id="Trazado_1291" data-name="Trazado 1291" d="M6888.779,12529.727a2.474,2.474,0,0,0,1.13-1.174,3.066,3.066,0,0,0-.143-1.618,9.58,9.58,0,0,1-.2,1.346A9.418,9.418,0,0,1,6888.779,12529.727Z" fill="#cca17d"/>
                    </g>
                    <g id="Grupo_858" data-name="Grupo 858">
                      <g id="Grupo_857" data-name="Grupo 857">
                        <path id="Trazado_1292" data-name="Trazado 1292" d="M6883.685,12548.286s-4.437-.66-5.936-.374c-1.417.27-4.839,2.73-4.839,2.73-2.077.455-3-1.279-3.293-2.625-.552-2.523-.473-4.5,2.147-5.068,0,0,3.907,1.26,5.2.953,1.43-.341,4.654-3.528,4.654-3.528,2.62-.573,3.81,1.54,4.362,4.064A3.576,3.576,0,0,1,6883.685,12548.286Z" fill="#c16a51"/>
                        <path id="Trazado_1293" data-name="Trazado 1293" d="M6883.133,12540.984a1.211,1.211,0,0,0-.473-.691,3.7,3.7,0,0,0-1.042.081s-3.224,3.188-4.654,3.528c-1.293.307-5.2-.953-5.2-.953a3.354,3.354,0,0,0-1.61.767.94.94,0,0,0,.009.105c.3,1.378,3.449,1.859,7.031,1.076S6883.435,12542.361,6883.133,12540.984Z" fill="#ededec"/>
                        <path id="Trazado_1294" data-name="Trazado 1294" d="M6882.1,12548.081a1.154,1.154,0,0,0-.01-.387c-.253-1.158-2.245-1.705-4.449-1.224s-3.786,1.813-3.533,2.97a1.24,1.24,0,0,0,.128.3,13.693,13.693,0,0,1,3.511-1.827A19.683,19.683,0,0,1,6882.1,12548.081Z" fill="#ededec"/>
                      </g>
                      <path id="Trazado_1295" data-name="Trazado 1295" d="M6870.025,12542.342a3.007,3.007,0,0,0-1.843.691,3.246,3.246,0,0,0-.561,1.794,10.183,10.183,0,0,1,.835-1.335A10.639,10.639,0,0,1,6870.025,12542.342Z" fill="#cca17d"/>
                      <path id="Trazado_1296" data-name="Trazado 1296" d="M6885.234,12549.073a3.014,3.014,0,0,0,1.714-.97,3.252,3.252,0,0,0,.275-1.858,10.243,10.243,0,0,1-.618,1.448A10.613,10.613,0,0,1,6885.234,12549.073Z" fill="#cca17d"/>
                    </g>
                    <g id="Grupo_859" data-name="Grupo 859">
                      <path id="Trazado_1297" data-name="Trazado 1297" d="M6858.067,12534.472c-4.654-9.332-7.163-15.361-8.149-25.24-.319-3.2-.486-9.19,1.593-11.858,1.679-2.153,5.38-4.681.9-7.354,6.991-2.315,11.995-3.793,17.887-5.744-.345-.59-.857-1.576-1.351-2.42a64.626,64.626,0,0,1,12.118-1.339c7.264-.127,12.225,4.374,14.147,11.378.265.967,6.653,4.785,8.1,10.181,2.041,7.6,1.314,14.261,1.695,22.161-.236.047-3.383-5.3-6.45-10.646a67.77,67.77,0,0,0-4.946-7.5,20.989,20.989,0,0,1-3.562,4.892c-2.784,2.737-6.958,4.759-7.3,4.56-.366-.212,1.6-2.588,2-4.558a10.794,10.794,0,0,0,.2-3.5,50.512,50.512,0,0,1-6.933,6.433c-3.869,2.735-6.784,3.108-7.145,2.592a22.023,22.023,0,0,0,2.965-4,7.617,7.617,0,0,0,1.07-3.771s-5.679,5.157-9.256,7.848c-2.724,2.05-7.433,4.849-7.433,4.849A84.848,84.848,0,0,1,6858.067,12534.472Z" fill="#cca17d"/>
                      <path id="Trazado_1298" data-name="Trazado 1298" d="M6857.923,12534.587c-4.655-9.332-7.381-16.6-8.367-26.478-.319-3.2.206-9.32,2.285-11.987,1.679-2.153,4.822-3.578.339-6.251,6.99-2.316,11.274-4.074,17.165-6.025l-1.282-2.189c4.608-.875,8.956-2.314,13.327-2.391,7.265-.127,12.226,4.374,14.148,11.378.265.966,6.652,4.785,8.1,10.181,2.041,7.6,1.019,15.763,1.4,23.663-.236.047-3.232-6.69-6.3-12.034a57.838,57.838,0,0,0-5.338-7.753,14.93,14.93,0,0,1-3.025,5.032c-2.892,2.625-6.468,5.314-6.812,5.115-.365-.212,1.63-2.662,2.037-4.632a7.889,7.889,0,0,0-.327-3.985,44.693,44.693,0,0,1-6.882,6.676c-3.869,2.734-6.44,3.537-6.588,3.235a14.316,14.316,0,0,0,3.524-4.96,4.123,4.123,0,0,0-.1-3.7s-5.854,5.531-9.43,8.222c-2.724,2.05-8.354,5.295-8.354,5.295A111.9,111.9,0,0,1,6857.923,12534.587Z" fill="#4d5255"/>
                      <path id="Trazado_1299" data-name="Trazado 1299" d="M6872.328,12482.02c.755-.157,10.058-1.99,13.882.139s6.3,8.031,6.3,8.031-5.194-5.446-8.014-6.547C6881.14,12482.336,6872.328,12482.02,6872.328,12482.02Z" fill="#5a6064"/>
                      <path id="Trazado_1300" data-name="Trazado 1300" d="M6854.562,12490.239s9.015-2.673,12.081-3.089,10.73.685,13.987,2.256a26.986,26.986,0,0,1,7.685,6.052c.657.989-8.227-3.8-15.522-4.751S6854.562,12490.239,6854.562,12490.239Z" fill="#5a6064"/>
                      <path id="Trazado_1301" data-name="Trazado 1301" d="M6896.125,12493.487s4.61,4.272,5.833,6.89,1.694,13.174,1.551,14.8-1.074-8.084-2.372-12.265C6900.1,12499.582,6896.125,12493.487,6896.125,12493.487Z" fill="#5a6064"/>
                      <path id="Trazado_1302" data-name="Trazado 1302" d="M6878.564,12499.186s-1.445-2.062-7.968-2.557-17.952,5.443-17.952,5.443,10.487-2.362,15.64-2.764A89.119,89.119,0,0,1,6878.564,12499.186Z" fill="#5a6064"/>
                      <path id="Trazado_1303" data-name="Trazado 1303" d="M6870.609,12505.58s-5.313-.387-8.706,1.989a21.386,21.386,0,0,0-6.287,7.488s4.631-4.372,7.334-5.906S6870.609,12505.58,6870.609,12505.58Z" fill="#5a6064"/>
                      <path id="Trazado_1304" data-name="Trazado 1304" d="M6891.086,12503.326a5.744,5.744,0,0,1-.772,4.385,26.917,26.917,0,0,1-4.435,4.645,16.546,16.546,0,0,0,2.715-4.792A12.015,12.015,0,0,1,6891.086,12503.326Z" fill="#5a6064"/>
                      <path id="Trazado_1305" data-name="Trazado 1305" d="M6882.858,12504.37a14.936,14.936,0,0,1-1.906,4.622c-1.408,2.152-5.345,4.328-5.345,4.328s3-2.668,3.686-4.994S6882.858,12504.37,6882.858,12504.37Z" fill="#5a6064"/>
                    </g>
                  </g>
                  <g id="left_hand" data-name="left hand">
                    <g id="Grupo_860" data-name="Grupo 860">
                      <path id="Trazado_1306" data-name="Trazado 1306" d="M6900.4,12483.766l35.915,30.2-15.353,28.619,16.923,12.359s17.076-41.392,15.977-46.438c-.949-4.356-49.666-29.674-49.666-29.674Z" fill="#ebc79d"/>
                      <path id="Trazado_1307" data-name="Trazado 1307" d="M6922.431,12539.854l3.941,2.1s12.019-27.338,12.019-28.611-33.878-27.2-33.878-27.2l2.033,2.791,29.771,25.036Z" fill="#cca17d"/>
                    </g>
                    <g id="Grupo_861" data-name="Grupo 861">
                      <path id="Trazado_1308" data-name="Trazado 1308" d="M6921.13,12537.833c-4.124,1.2-10.346,6.028-10.411,8.432-.082,3.058,14.142,25.938,21.234,24.573,6.2-1.191,10.364-18.3,10.8-21.911C6943.041,12546.594,6923.947,12537.012,6921.13,12537.833Z" fill="#4170b3"/>
                      <path id="Trazado_1309" data-name="Trazado 1309" d="M6921.13,12537.833c-.064.019-.129.041-.194.061.907,2.077,2.754,4.53,4.45,8.443,3.771,8.7,9.6,6.624,15.82,9.006.032.013.063.027.094.043a50.115,50.115,0,0,0,1.456-6.459C6943.041,12546.594,6923.947,12537.012,6921.13,12537.833Z" fill="#5084c2"/>
                    </g>
                  </g>
                </g>
                <g id="glove-2" data-name="glove">
                  <path id="Trazado_1310" data-name="Trazado 1310" d="M6911.632,12482.743l-4.269,7.806a56.983,56.983,0,0,1-8.321-1.5c-4.746-1.332-5.935-3.383-7.7-2.893-2.737.758-8.4,4.152-10.007,2.188-2.246-2.738,3.358-4.014,3.069-5.751-.382-2.3-5.064,1.285-10.611,1.578-6.144.326-9.788-15,15.41-17.984,8.293-.983,16,5.573,19.843,10.063A11.24,11.24,0,0,1,6911.632,12482.743Z" fill="#5084c2"/>
                  <path id="Trazado_1311" data-name="Trazado 1311" d="M6876.556,12469.613a12.832,12.832,0,0,0-3.735,6.6c-.483,2.021.737,2.758,2.345,3.763,3.1,1.938,7.518-1.986,9.382-.855s1.489,2.337,3.171,3.594,4.355-.329,7.2.661,5.843,2.007,8.109.028,4.316-7.178,1.817-10.969a.633.633,0,0,1-.125-.446,36.671,36.671,0,0,1,4.322,4.263,11.24,11.24,0,0,1,2.59,6.491l-4.269,7.806a56.983,56.983,0,0,1-8.321-1.5c-4.746-1.332-5.935-3.383-7.7-2.893-2.737.758-8.4,4.152-10.007,2.188-2.246-2.738,3.358-4.014,3.069-5.751-.382-2.3-5.064,1.285-10.611,1.578C6868.985,12484.428,6865.71,12475.115,6876.556,12469.613Z" fill="#4170b3"/>
                  <path id="Trazado_1312" data-name="Trazado 1312" d="M6870.507,12476.036c-.544,1.691-.708,4.36.724,6.11,2.011,2.457,11.651-1.153,12.46-1.009a1.908,1.908,0,0,1,1.26,2.153c-.167.924-2.506,2.651-1.822,3.49s3.592-.069,5.125-.628,3.065-1.119,3.99-.952,3.522,2.3,6.16,2.9,5.58,1.483,6.934,1.249,5.4-6.783,5.482-7.246a49.134,49.134,0,0,0-1.346-5.31,11.283,11.283,0,0,1,2.158,5.95l-4.269,7.806a56.983,56.983,0,0,1-8.321-1.5c-4.746-1.332-5.935-3.383-7.7-2.893-2.737.758-8.4,4.152-10.007,2.188-2.246-2.738,3.358-4.014,3.069-5.751-.382-2.3-5.064,1.285-10.611,1.578-4.256.227-7.309-7.057-.41-12.547A21.591,21.591,0,0,0,6870.507,12476.036Z" fill="#386195"/>
                </g>
              </g>
            </g>
          </g>
        </g>
      </g>
    </g>
    <circle id="Elipse_89" data-name="Elipse 89" cx="98.333" cy="98.333" r="98.333" transform="translate(626.832 3884.133)" fill="none" stroke="#a3bd31" stroke-miterlimit="10" stroke-width="6"/>
  </g>
</svg>
