<svg xmlns="http://www.w3.org/2000/svg" xmlns:xlink="http://www.w3.org/1999/xlink" width="202.667" height="202.667" viewBox="0 0 202.667 202.667">
  <defs>
    <clipPath id="clip-path">
      <circle id="Elipse_11" data-name="Elipse 11" cx="98.333" cy="98.333" r="98.333" transform="translate(6777.266 10151.147)" fill="none"/>
    </clipPath>
  </defs>
  <g id="Grupo_4779" data-name="Grupo 4779" transform="translate(-615.832 -1597.837)">
    <g id="Grupo_55" data-name="Grupo 55" transform="translate(-6158.434 -8550.311)">
      <g id="Grupo_54" data-name="Grupo 54" clip-path="url(#clip-path)">
        <g id="Grupo_53" data-name="Grupo 53">
          <g id="Grupo_37" data-name="Grupo 37">
            <g id="Grupo_32" data-name="Grupo 32">
              <path id="Trazado_55" data-name="Trazado 55" d="M6843.934,10322.89l-.642-4.582a8.382,8.382,0,0,1,7.583-9.064l1.315-.117a8.381,8.381,0,0,1,9.064,7.584l.643,4.582a8.382,8.382,0,0,1-7.584,9.064l-1.314.116A8.38,8.38,0,0,1,6843.934,10322.89Z" fill="#e6b69e"/>
              <path id="Trazado_56" data-name="Trazado 56" d="M6851,10309.232l1.058-.095c.258-.022.513-.029.768-.028a8.511,8.511,0,0,0-6.7,9.048l.62,4.326a8.51,8.51,0,0,0,8.437,7.729,8.616,8.616,0,0,1-1,.156l-1.058.094a8.51,8.51,0,0,1-9.2-7.7l-.62-4.326A8.51,8.51,0,0,1,6851,10309.232Z" fill="#ca8d75"/>
              <rect id="Rectángulo_32" data-name="Rectángulo 32" width="5.176" height="10.854" rx="1.83" transform="translate(6867.157 10318.611) rotate(128.619)" fill="#e6b69e"/>
            </g>
            <g id="Grupo_33" data-name="Grupo 33">
              <path id="Trazado_57" data-name="Trazado 57" d="M6851.382,10316.579a7.472,7.472,0,0,0,8.109-6.644c3.021-28.107,12.045-55.118,12.136-55.389a7.472,7.472,0,0,0-14.163-4.77c-.392,1.163-9.639,28.846-12.832,58.562a7.473,7.473,0,0,0,6.631,8.229C6851.3,10316.572,6851.342,10316.576,6851.382,10316.579Z" fill="#e7e6e7"/>
            </g>
            <g id="Grupo_36" data-name="Grupo 36">
              <g id="Grupo_34" data-name="Grupo 34">
                <rect id="Rectángulo_33" data-name="Rectángulo 33" width="77.058" height="4.794" transform="matrix(-0.091, 0.996, -0.996, -0.091, 6877.072, 10269.657)" fill="#8d8a89"/>
                <rect id="Rectángulo_34" data-name="Rectángulo 34" width="77.058" height="4.794" transform="translate(6852.185 10267.378) rotate(95.235)" fill="#8d8a89"/>
              </g>
              <rect id="Rectángulo_35" data-name="Rectángulo 35" width="70.47" height="4.794" transform="matrix(0.091, -0.996, 0.996, 0.091, 6843.467, 10446.942)" fill="#8d8a89"/>
              <rect id="Rectángulo_36" data-name="Rectángulo 36" width="4.794" height="20.198" transform="translate(6846.967 10324.335) rotate(-84.765)" fill="#8d8a89"/>
              <g id="Grupo_35" data-name="Grupo 35">
                <path id="Trazado_58" data-name="Trazado 58" d="M6851.941,10380.734l18.089-34.756-4.5-2.342-12.37,23.768-7.845-25.619-4.849,1.484Z" fill="#8d8a89"/>
              </g>
              <path id="Trazado_59" data-name="Trazado 59" d="M6839.84,10449.61l11.484,1.053.362-11.575-10.1-.926Z" fill="#353330"/>
              <rect id="Rectángulo_37" data-name="Rectángulo 37" width="7.468" height="7.425" transform="translate(6855.351 10384.445) rotate(-174.766)" fill="#353330"/>
              <rect id="Rectángulo_38" data-name="Rectángulo 38" width="43.102" height="10.876" transform="translate(6883.451 10273.021) rotate(-174.765)" fill="#353330"/>
            </g>
          </g>
          <g id="Grupo_42" data-name="Grupo 42">
            <g id="Grupo_38" data-name="Grupo 38">
              <path id="Trazado_60" data-name="Trazado 60" d="M6852.425,10415.287c-1.428-2.56-14.009-25.45-15.873-41.12-.492-4.14.078-10.025,12.635-32.049,6.029-10.573,12.069-20.021,12.323-20.417l17.261,11.05c-.053.083-5.387,8.428-10.831,17.867-8.644,14.985-10.523,20.456-10.921,21.96,1.557,10.025,10.28,27.3,13.3,32.718Z" fill="#373952"/>
            </g>
            <g id="Grupo_39" data-name="Grupo 39">
              <path id="Trazado_61" data-name="Trazado 61" d="M6883.063,10426.945l-2.55-4.886.28-.146-18.185-34.843-22.309,11.644,14.36,27.513-12.532,6.541a6.366,6.366,0,0,0-2.689,8.563l3.108,5.956a6.346,6.346,0,0,0,8.562,2.688l29.568-15.432A5.632,5.632,0,0,0,6883.063,10426.945Z" fill="#dfdede"/>
              <path id="Trazado_62" data-name="Trazado 62" d="M6849.619,10428.859l-7.492,3.909a6.311,6.311,0,0,0-2.873,3.1l32.448,3.361,8.974-4.684a5.6,5.6,0,0,0,2.3-2.229Z" fill="#f8f8f9"/>
              <path id="Trazado_63" data-name="Trazado 63" d="M6880.513,10422.06l.28-.146-1.363-2.611-38.842,24.231,1.958,3.753a6.312,6.312,0,0,0,2.813,2.745l37.533-23.414Z" fill="#efedee"/>
              <path id="Trazado_64" data-name="Trazado 64" d="M6869.864,10400.974l-21.414,13.359,3.73,7.147,21.414-13.359Z" fill="#f8f8f9"/>
              <path id="Trazado_65" data-name="Trazado 65" d="M6863.636,10389.04l-23.163,10.008,3.729,7.146,23.163-10.008Z" fill="#f8f8f9"/>
              <path id="Trazado_66" data-name="Trazado 66" d="M6847.17,10411.88h28.386l-4.2-8.038h-28.386Z" fill="#efedee"/>
              <path id="Trazado_67" data-name="Trazado 67" d="M6876.105,10412.932l-25.838,4.881,3.886,7.446,25.838-4.881Z" fill="#efedee"/>
            </g>
            <g id="Grupo_41" data-name="Grupo 41">
              <g id="Grupo_40" data-name="Grupo 40">
                <rect id="Rectángulo_39" data-name="Rectángulo 39" width="12.417" height="31.001" transform="translate(6888.548 10411.88)" fill="#e6b69e"/>
                <path id="Rectángulo_40" data-name="Rectángulo 40" d="M5.413,0H27.97a5.413,5.413,0,0,1,5.413,5.413v5.113A4.784,4.784,0,0,1,28.6,15.31H5.413A5.413,5.413,0,0,1,0,9.9V5.413A5.413,5.413,0,0,1,5.413,0Z" transform="translate(6867.617 10435.24)" fill="#e6b69e"/>
              </g>
              <rect id="Rectángulo_41" data-name="Rectángulo 41" width="12.58" height="11.36" transform="translate(6901.046 10431.195) rotate(180)" fill="#ca8d75"/>
              <rect id="Rectángulo_42" data-name="Rectángulo 42" width="22.32" height="103.455" transform="translate(6884.332 10322.945)" fill="#373952"/>
            </g>
          </g>
          <path id="Trazado_68" data-name="Trazado 68" d="M6853.931,10333.45l.624-71.5c0-13.525,9.425-24.49,21.051-24.49h13.288c11.626,0,21.05,10.965,21.05,24.49l.625,71.5Z" fill="#dfdede"/>
          <g id="Grupo_45" data-name="Grupo 45">
            <ellipse id="Elipse_8" data-name="Elipse 8" cx="35.831" cy="33.125" rx="35.831" ry="33.125" transform="translate(6845.138 10161.594)" fill="#292421"/>
            <ellipse id="Elipse_9" data-name="Elipse 9" cx="7.213" cy="12.538" rx="7.213" ry="12.538" transform="translate(6873.992 10226.979)" fill="#e6b69e"/>
            <ellipse id="Elipse_10" data-name="Elipse 10" cx="7.213" cy="6.688" rx="7.213" ry="6.688" transform="translate(6873.992 10226.979)" fill="#ca8d75"/>
            <path id="Trazado_69" data-name="Trazado 69" d="M6905.782,10208.422c0,4.637-.557,8.4,2.883,8.4s9.573-3.76,9.573-8.4-2.789-8.4-6.228-8.4S6905.782,10203.785,6905.782,10208.422Z" fill="#e6b69e"/>
            <path id="Trazado_70" data-name="Trazado 70" d="M6911,10203.8c0,16.519-13.1,31.819-29.563,31.819s-30.037-15.3-30.037-31.819a29.8,29.8,0,1,1,59.6,0Z" fill="#e6b69e"/>
            <path id="Trazado_71" data-name="Trazado 71" d="M6911,10203.8c0,16.519-13.1,31.819-29.563,31.819s-30.037-15.3-30.037-31.819a29.8,29.8,0,1,1,59.6,0Z" fill="#e6b69e"/>
            <path id="Trazado_72" data-name="Trazado 72" d="M6911,10203.8c0,16.519-13.1,31.819-29.563,31.819s-30.037-15.3-30.037-31.819a29.8,29.8,0,1,1,59.6,0Z" fill="#e6b69e"/>
            <path id="Trazado_73" data-name="Trazado 73" d="M6850.958,10200.026s4.884-11.53,9.022-13.009c0,0,10.878,8.811,19.836,7.215,0,0-7.716-5.854-7.539-8.869,0,0,34.754,18.4,35.736,24,0,0,2.984-32.337-22.521-31.983s-29,4.966-29,4.966Z" fill="#ca8d75"/>
            <path id="Trazado_74" data-name="Trazado 74" d="M6859.683,10178.5s-18.566,5.913-13.008,29.918l6.859,4.257s11.352-33.466,6.859-34.175" fill="#302924"/>
            <path id="Trazado_75" data-name="Trazado 75" d="M6857.186,10208.422c0,4.637.556,8.4-2.883,8.4s-9.573-3.76-9.573-8.4,2.788-8.4,6.228-8.4S6857.186,10203.785,6857.186,10208.422Z" fill="#e6b69e"/>
            <path id="Trazado_76" data-name="Trazado 76" d="M6907.931,10201.416l.189,2.394,4.754-6.137s-5.209-14.084-7.515-15.857-2.72,5.5-2.868,5.765S6907.931,10201.416,6907.931,10201.416Z" fill="#292421"/>
            <path id="Trazado_77" data-name="Trazado 77" d="M6861.1,10172s-8.041,18.8,18.921,20.576c0,0-5.558-7.568-5.2-9.105,0,0,32.756,15.964,33.347,26.961,0,0,6.5-26.487-16.082-36.775S6864.413,10167.033,6861.1,10172Z" fill="#302924"/>
            <path id="Trazado_78" data-name="Trazado 78" d="M6890.311,10177.378c-12.535-7.2-24.3-11.056-27.809-7.2,1.1-.015,10.029,3.161,11.638,3.716,9.923,3.427,32.456,18.528,33.975,36.016,0,.016,0,.032,0,.048v0l.9-7.058C6909.222,10194.268,6906.394,10186.618,6890.311,10177.378Z" fill="#3a312c"/>
            <path id="Trazado_79" data-name="Trazado 79" d="M6862.5,10170.176s-1.274,16.775,17.521,22.4C6880.023,10192.576,6857.162,10188.692,6862.5,10170.176Z" fill="#3a312c"/>
            <path id="Trazado_80" data-name="Trazado 80" d="M6862.5,10170.176s41.348,21.8,45.694,39.188C6908.2,10209.364,6903.281,10187.864,6862.5,10170.176Z" fill="#3a312c"/>
            <path id="Trazado_81" data-name="Trazado 81" d="M6861.1,10179.923s-11.66,7.7-11.624,20.344C6849.478,10200.267,6857.436,10181.105,6861.1,10179.923Z" fill="#3a312c"/>
            <path id="Trazado_82" data-name="Trazado 82" d="M6846.557,10206.826a9.822,9.822,0,0,0,7.746,8.514A8.534,8.534,0,0,1,6846.557,10206.826Z" fill="#d19681"/>
            <path id="Trazado_83" data-name="Trazado 83" d="M6915.866,10206.826a9.823,9.823,0,0,1-7.746,8.514A8.534,8.534,0,0,0,6915.866,10206.826Z" fill="#d19681"/>
            <g id="Grupo_44" data-name="Grupo 44">
              <g id="Grupo_43" data-name="Grupo 43">
                <path id="Trazado_84" data-name="Trazado 84" d="M6870.385,10206.067a2.6,2.6,0,1,1-2.6-2.6A2.6,2.6,0,0,1,6870.385,10206.067Z" fill="#302924"/>
                <path id="Trazado_85" data-name="Trazado 85" d="M6894.864,10206.067a2.6,2.6,0,1,1-2.6-2.6A2.6,2.6,0,0,1,6894.864,10206.067Z" fill="#302924"/>
              </g>
              <path id="Trazado_86" data-name="Trazado 86" d="M6874.347,10224.042c0-2.417,2.541-4.375,5.676-4.375s5.676,1.958,5.676,4.375" fill="none" stroke="#a04d42" stroke-miterlimit="10" stroke-width="1.662"/>
              <path id="Trazado_87" data-name="Trazado 87" d="M6882.329,10213.044a2.306,2.306,0,0,1-4.612,0" fill="none" stroke="#ab7564" stroke-miterlimit="10" stroke-width="1.662"/>
            </g>
          </g>
          <g id="Grupo_51" data-name="Grupo 51">
            <g id="Grupo_48" data-name="Grupo 48">
              <g id="Grupo_46" data-name="Grupo 46">
                <rect id="Rectángulo_43" data-name="Rectángulo 43" width="77.058" height="4.794" transform="translate(6891.061 10267.968) rotate(90)" fill="#8d8a89"/>
                <rect id="Rectángulo_44" data-name="Rectángulo 44" width="77.058" height="4.794" transform="translate(6916.053 10267.968) rotate(90)" fill="#8d8a89"/>
              </g>
              <rect id="Rectángulo_45" data-name="Rectángulo 45" width="4.794" height="70.47" transform="translate(6898.763 10377.109)" fill="#8d8a89"/>
              <rect id="Rectángulo_46" data-name="Rectángulo 46" width="20.198" height="4.794" transform="translate(6891.062 10320.369)" fill="#8d8a89"/>
              <g id="Grupo_47" data-name="Grupo 47">
                <path id="Trazado_88" data-name="Trazado 88" d="M6901.161,10380.874l-14.843-36.262,4.693-1.921,10.149,24.8,10.149-24.8,4.693,1.921Z" fill="#8d8a89"/>
              </g>
              <path id="Trazado_89" data-name="Trazado 89" d="M6906.927,10450.567h-11.533l.7-11.561h10.142Z" fill="#353330"/>
              <rect id="Rectángulo_47" data-name="Rectángulo 47" width="7.468" height="7.425" transform="translate(6897.427 10376.833)" fill="#353330"/>
              <rect id="Rectángulo_48" data-name="Rectángulo 48" width="43.102" height="10.876" transform="translate(6879.609 10259.857)" fill="#353330"/>
            </g>
            <g id="Grupo_49" data-name="Grupo 49">
              <path id="Trazado_90" data-name="Trazado 90" d="M6914.411,10324l1.058-4.5a8.381,8.381,0,0,0-6.725-9.719l-1.3-.236a8.382,8.382,0,0,0-9.719,6.725l-1.058,4.5a8.383,8.383,0,0,0,6.725,9.719l1.3.235A8.381,8.381,0,0,0,6914.411,10324Z" fill="#e6b69e"/>
              <path id="Trazado_91" data-name="Trazado 91" d="M6908.618,10309.755l-1.045-.189c-.255-.047-.509-.076-.762-.1a8.511,8.511,0,0,1,5.846,9.622l-1.011,4.251a8.511,8.511,0,0,1-9.108,6.927,8.337,8.337,0,0,0,.983.247l1.045.19a8.512,8.512,0,0,0,9.869-6.828l1.011-4.251A8.511,8.511,0,0,0,6908.618,10309.755Z" fill="#ca8d75"/>
              <rect id="Rectángulo_49" data-name="Rectángulo 49" width="5.176" height="10.854" rx="1.83" transform="translate(6900.738 10311.649) rotate(56.616)" fill="#e6b69e"/>
            </g>
            <g id="Grupo_50" data-name="Grupo 50">
              <path id="Trazado_92" data-name="Trazado 92" d="M6907.57,10317.037a7.472,7.472,0,0,1-7.469-7.355c-.444-28.266-6.966-55.987-7.032-56.265a7.472,7.472,0,1,1,14.539-3.459c.284,1.2,6.967,29.605,7.436,59.49a7.473,7.473,0,0,1-7.354,7.589Z" fill="#e7e6e7"/>
            </g>
          </g>
          <g id="Grupo_52" data-name="Grupo 52">
            <rect id="Rectángulo_50" data-name="Rectángulo 50" width="32.06" height="4.825" transform="translate(6868.302 10447.398)" fill="#30342f"/>
            <rect id="Rectángulo_51" data-name="Rectángulo 51" width="10.456" height="13.859" transform="translate(6874.233 10433.539)" fill="#30342f"/>
          </g>
        </g>
      </g>
    </g>
    <circle id="Elipse_12" data-name="Elipse 12" cx="98.333" cy="98.333" r="98.333" transform="translate(618.832 1600.837)" fill="none" stroke="#a3bd31" stroke-miterlimit="10" stroke-width="6"/>
  </g>
</svg>
