<svg xmlns="http://www.w3.org/2000/svg" xmlns:xlink="http://www.w3.org/1999/xlink" width="202.667" height="202.667" viewBox="0 0 202.667 202.667">
  <defs>
    <clipPath id="clip-path">
      <circle id="Elipse_96" data-name="Elipse 96" cx="98.333" cy="98.333" r="98.333" transform="translate(6777.266 13597.545)" fill="none"/>
    </clipPath>
  </defs>
  <g id="Grupo_4786" data-name="Grupo 4786" transform="translate(-623.832 -5051.234)">
    <g id="Grupo_986" data-name="Grupo 986" transform="translate(-6150.434 -8543.311)">
      <g id="Grupo_985" data-name="Grupo 985" clip-path="url(#clip-path)">
        <g id="Grupo_979" data-name="Grupo 979">
          <g id="Grupo_974" data-name="Grupo 974">
            <g id="Grupo_973" data-name="Grupo 973">
              <g id="Grupo_945" data-name="Grupo 945">
                <path id="Trazado_1446" data-name="Trazado 1446" d="M6446.371,14390.5h-93.577l.232,113.694" fill="none" stroke="#909294" stroke-linecap="round" stroke-linejoin="round" stroke-width="21.782"/>
                <line id="Línea_485" data-name="Línea 485" y2="51.092" transform="translate(6446.604 14450.312)" fill="none" stroke="#909294" stroke-linecap="round" stroke-linejoin="round" stroke-width="18.152"/>
                <rect id="Rectángulo_380" data-name="Rectángulo 380" width="93.578" height="29.128" transform="translate(6353.026 14421.184)" fill="#3d3d66"/>
                <path id="Trazado_1447" data-name="Trazado 1447" d="M6353.46,14450.831H6446.6v-7.359H6353.46a3.426,3.426,0,0,0-3.093,3.681h0A3.424,3.424,0,0,0,6353.46,14450.831Z" fill="#2f2f4f"/>
                <path id="Trazado_1448" data-name="Trazado 1448" d="M6363.485,14388.118a5.943,5.943,0,0,0,5.942,5.942h57.926a5.943,5.943,0,0,0,5.943-5.942h0a5.943,5.943,0,0,0-5.943-5.942h-57.926a5.943,5.943,0,0,0-5.942,5.942Z" fill="#3d3d66"/>
                <path id="Trazado_1449" data-name="Trazado 1449" d="M6454.687,14336.527a5.467,5.467,0,0,0,5.467,5.466h28.319a5.467,5.467,0,0,0,5.467-5.466h0a5.467,5.467,0,0,0-5.467-5.467h-28.319a5.466,5.466,0,0,0-5.467,5.467Z" fill="#0d0d0d"/>
                <path id="Trazado_1450" data-name="Trazado 1450" d="M6488.473,14336.527h-28.319a5.46,5.46,0,0,0-4.729,2.732,5.459,5.459,0,0,1,4.729-8.2h28.319a5.46,5.46,0,0,1,4.73,8.2A5.463,5.463,0,0,0,6488.473,14336.527Z" fill="#333"/>
                <g id="Grupo_929" data-name="Grupo 929">
                  <path id="Trazado_1451" data-name="Trazado 1451" d="M6489.185,14336.289H6446.6v118.586h-95.24l-32.967,55.351" fill="none" stroke="#909294" stroke-linecap="round" stroke-linejoin="round" stroke-width="29.043"/>
                  <path id="Trazado_1452" data-name="Trazado 1452" d="M6462.292,14501.4h-67.977l-17.473-17.473h-39.16" fill="none" stroke="#909294" stroke-linecap="round" stroke-linejoin="round" stroke-width="18.152"/>
                  <path id="Trazado_1453" data-name="Trazado 1453" d="M6282.943,14487.87c-1.422,2.663.334,6.375,3.921,8.292l26.554,14.185c3.588,1.917,7.651,1.312,9.073-1.352h0c1.421-2.663-.333-6.376-3.922-8.292l-26.554-14.186c-3.588-1.916-7.65-1.311-9.072,1.353Z" fill="#333"/>
                  <path id="Trazado_1454" data-name="Trazado 1454" d="M6315.728,14506.654l-26.553-14.186a8.281,8.281,0,0,0-6.529-.749,4.094,4.094,0,0,1,.3-.738c1.422-2.663,5.484-3.269,9.072-1.353l26.554,14.186c3.589,1.916,5.343,5.629,3.922,8.292a4.534,4.534,0,0,1-2.543,2.1C6320.734,14511.631,6319,14508.4,6315.728,14506.654Z" fill="#0d0d0d"/>
                </g>
                <g id="Grupo_944" data-name="Grupo 944">
                  <g id="Grupo_930" data-name="Grupo 930">
                    <line id="Línea_486" data-name="Línea 486" x1="52.115" y1="13.964" transform="translate(6395.684 14464.19)" fill="none" stroke="#b5b5b5" stroke-miterlimit="10" stroke-width="3.63"/>
                    <line id="Línea_487" data-name="Línea 487" x1="52.101" y2="14.012" transform="translate(6395.698 14478.154)" fill="none" stroke="#b5b5b5" stroke-miterlimit="10" stroke-width="3.63"/>
                    <line id="Línea_488" data-name="Línea 488" x1="38.081" y2="38.221" transform="translate(6409.718 14478.154)" fill="none" stroke="#b5b5b5" stroke-miterlimit="10" stroke-width="3.63"/>
                    <line id="Línea_489" data-name="Línea 489" x1="13.822" y2="52.155" transform="translate(6433.977 14478.154)" fill="none" stroke="#b5b5b5" stroke-miterlimit="10" stroke-width="3.63"/>
                    <line id="Línea_490" data-name="Línea 490" x2="14.153" y2="52.066" transform="translate(6447.799 14478.154)" fill="none" stroke="#b5b5b5" stroke-miterlimit="10" stroke-width="3.63"/>
                    <line id="Línea_491" data-name="Línea 491" x2="38.325" y2="37.98" transform="translate(6447.799 14478.154)" fill="none" stroke="#b5b5b5" stroke-miterlimit="10" stroke-width="3.63"/>
                    <line id="Línea_492" data-name="Línea 492" x2="52.192" y2="13.683" transform="translate(6447.799 14478.154)" fill="none" stroke="#b5b5b5" stroke-miterlimit="10" stroke-width="3.63"/>
                    <line id="Línea_493" data-name="Línea 493" y1="14.292" x2="52.027" transform="translate(6447.799 14463.862)" fill="none" stroke="#b5b5b5" stroke-miterlimit="10" stroke-width="3.63"/>
                    <line id="Línea_494" data-name="Línea 494" y1="38.425" x2="37.875" transform="translate(6447.799 14439.729)" fill="none" stroke="#b5b5b5" stroke-miterlimit="10" stroke-width="3.63"/>
                    <line id="Línea_495" data-name="Línea 495" y1="52.226" x2="13.541" transform="translate(6447.799 14425.928)" fill="none" stroke="#b5b5b5" stroke-miterlimit="10" stroke-width="3.63"/>
                    <line id="Línea_496" data-name="Línea 496" x1="14.435" y1="51.986" transform="translate(6433.364 14426.168)" fill="none" stroke="#b5b5b5" stroke-miterlimit="10" stroke-width="3.63"/>
                    <line id="Línea_497" data-name="Línea 497" x1="38.528" y1="37.768" transform="translate(6409.271 14440.387)" fill="none" stroke="#b5b5b5" stroke-miterlimit="10" stroke-width="3.63"/>
                  </g>
                  <g id="Grupo_931" data-name="Grupo 931">
                    <line id="Línea_498" data-name="Línea 498" x1="46.726" y1="26.976" transform="translate(6401.066 14451.167)" fill="none" stroke="#b5b5b5" stroke-miterlimit="10" stroke-width="3.63"/>
                    <line id="Línea_499" data-name="Línea 499" x1="53.952" y2="0.049" transform="translate(6393.839 14478.144)" fill="none" stroke="#b5b5b5" stroke-miterlimit="10" stroke-width="3.63"/>
                    <line id="Línea_500" data-name="Línea 500" x1="46.675" y2="27.063" transform="translate(6401.116 14478.144)" fill="none" stroke="#b5b5b5" stroke-miterlimit="10" stroke-width="3.63"/>
                    <line id="Línea_501" data-name="Línea 501" x1="26.849" y2="46.8" transform="translate(6420.942 14478.144)" fill="none" stroke="#b5b5b5" stroke-miterlimit="10" stroke-width="3.63"/>
                    <line id="Línea_502" data-name="Línea 502" x2="0.195" y2="53.956" transform="translate(6447.792 14478.144)" fill="none" stroke="#b5b5b5" stroke-miterlimit="10" stroke-width="3.63"/>
                    <line id="Línea_503" data-name="Línea 503" x2="27.189" y2="46.606" transform="translate(6447.792 14478.144)" fill="none" stroke="#b5b5b5" stroke-miterlimit="10" stroke-width="3.63"/>
                    <line id="Línea_504" data-name="Línea 504" x2="46.872" y2="26.725" transform="translate(6447.792 14478.144)" fill="none" stroke="#b5b5b5" stroke-miterlimit="10" stroke-width="3.63"/>
                    <line id="Línea_505" data-name="Línea 505" y1="0.339" x2="53.953" transform="translate(6447.792 14477.804)" fill="none" stroke="#b5b5b5" stroke-miterlimit="10" stroke-width="3.63"/>
                    <line id="Línea_506" data-name="Línea 506" y1="27.312" x2="46.531" transform="translate(6447.792 14450.831)" fill="none" stroke="#b5b5b5" stroke-miterlimit="10" stroke-width="3.63"/>
                    <line id="Línea_507" data-name="Línea 507" y1="46.942" x2="26.597" transform="translate(6447.792 14431.201)" fill="none" stroke="#b5b5b5" stroke-miterlimit="10" stroke-width="3.63"/>
                    <line id="Línea_508" data-name="Línea 508" x1="0.488" y1="53.951" transform="translate(6447.304 14424.192)" fill="none" stroke="#b5b5b5" stroke-miterlimit="10" stroke-width="3.63"/>
                    <line id="Línea_509" data-name="Línea 509" x1="27.44" y1="46.453" transform="translate(6420.352 14431.69)" fill="none" stroke="#b5b5b5" stroke-miterlimit="10" stroke-width="3.63"/>
                  </g>
                  <g id="Grupo_932" data-name="Grupo 932">
                    <line id="Línea_510" data-name="Línea 510" x1="53.953" transform="translate(6393.846 14478.154)" fill="none" stroke="#b5b5b5" stroke-miterlimit="10" stroke-width="5.446"/>
                    <line id="Línea_511" data-name="Línea 511" x1="46.7" y2="27.02" transform="translate(6401.1 14478.154)" fill="none" stroke="#b5b5b5" stroke-miterlimit="10" stroke-width="5.446"/>
                    <line id="Línea_512" data-name="Línea 512" x1="26.891" y2="46.774" transform="translate(6420.908 14478.154)" fill="none" stroke="#b5b5b5" stroke-miterlimit="10" stroke-width="5.446"/>
                    <line id="Línea_513" data-name="Línea 513" x2="0.147" y2="53.956" transform="translate(6447.799 14478.154)" fill="none" stroke="#b5b5b5" stroke-miterlimit="10" stroke-width="5.446"/>
                    <line id="Línea_514" data-name="Línea 514" x2="27.146" y2="46.629" transform="translate(6447.799 14478.154)" fill="none" stroke="#b5b5b5" stroke-miterlimit="10" stroke-width="5.446"/>
                    <line id="Línea_515" data-name="Línea 515" x2="46.847" y2="26.767" transform="translate(6447.799 14478.154)" fill="none" stroke="#b5b5b5" stroke-miterlimit="10" stroke-width="5.446"/>
                    <line id="Línea_516" data-name="Línea 516" y1="0.292" x2="53.955" transform="translate(6447.799 14477.862)" fill="none" stroke="#b5b5b5" stroke-miterlimit="10" stroke-width="5.446"/>
                    <line id="Línea_517" data-name="Línea 517" y1="27.271" x2="46.555" transform="translate(6447.799 14450.883)" fill="none" stroke="#b5b5b5" stroke-miterlimit="10" stroke-width="5.446"/>
                    <line id="Línea_518" data-name="Línea 518" y1="46.918" x2="26.639" transform="translate(6447.799 14431.235)" fill="none" stroke="#b5b5b5" stroke-miterlimit="10" stroke-width="5.446"/>
                    <line id="Línea_519" data-name="Línea 519" x1="0.438" y1="53.951" transform="translate(6447.361 14424.203)" fill="none" stroke="#b5b5b5" stroke-miterlimit="10" stroke-width="5.446"/>
                    <line id="Línea_520" data-name="Línea 520" x1="27.398" y1="46.478" transform="translate(6420.401 14431.676)" fill="none" stroke="#b5b5b5" stroke-miterlimit="10" stroke-width="5.446"/>
                    <line id="Línea_521" data-name="Línea 521" x1="46.991" y1="26.509" transform="translate(6400.808 14451.646)" fill="none" stroke="#b5b5b5" stroke-miterlimit="10" stroke-width="5.446"/>
                  </g>
                  <g id="Grupo_943" data-name="Grupo 943">
                    <g id="Grupo_934" data-name="Grupo 934">
                      <g id="Grupo_933" data-name="Grupo 933">
                        <path id="Trazado_1455" data-name="Trazado 1455" d="M6447.8,14424.2a53.953,53.953,0,1,1-53.953,53.953,53.952,53.952,0,0,1,53.953-53.953m0-4.278a58.059,58.059,0,1,0,22.668,4.577,57.884,57.884,0,0,0-22.668-4.577Z" fill="#363636"/>
                      </g>
                    </g>
                    <g id="Grupo_936" data-name="Grupo 936">
                      <g id="Grupo_935" data-name="Grupo 935">
                        <path id="Trazado_1456" data-name="Trazado 1456" d="M6447.8,14425.628a52.355,52.355,0,1,1-20.445,4.127,52.206,52.206,0,0,1,20.445-4.127m0-1.426a53.953,53.953,0,1,0,53.953,53.953,53.952,53.952,0,0,0-53.953-53.953Z" fill="#dbdbdb"/>
                      </g>
                    </g>
                    <g id="Grupo_938" data-name="Grupo 938">
                      <g id="Grupo_937" data-name="Grupo 937">
                        <path id="Trazado_1457" data-name="Trazado 1457" d="M6447.8,14433.249a44.76,44.76,0,1,1-17.479,3.528,44.611,44.611,0,0,1,17.479-3.528m0-1.854a46.76,46.76,0,1,0,46.761,46.761,46.76,46.76,0,0,0-46.761-46.761Z" fill="#dbdbdb"/>
                      </g>
                    </g>
                    <g id="Grupo_940" data-name="Grupo 940">
                      <g id="Grupo_939" data-name="Grupo 939">
                        <path id="Trazado_1458" data-name="Trazado 1458" d="M6440.187,14478.155a7.613,7.613,0,1,1,7.612,7.612A7.612,7.612,0,0,1,6440.187,14478.155Z" fill="#dbdbdb"/>
                      </g>
                    </g>
                    <g id="Grupo_942" data-name="Grupo 942">
                      <g id="Grupo_941" data-name="Grupo 941">
                        <path id="Trazado_1459" data-name="Trazado 1459" d="M6442.341,14478.155a5.459,5.459,0,1,1,5.458,5.459A5.459,5.459,0,0,1,6442.341,14478.155Z" fill="#595959"/>
                      </g>
                    </g>
                  </g>
                </g>
                <path id="Trazado_1460" data-name="Trazado 1460" d="M6320.739,14518.6a15.236,15.236,0,1,0,15.235-15.235A15.235,15.235,0,0,0,6320.739,14518.6Z" fill="#363636"/>
                <path id="Trazado_1461" data-name="Trazado 1461" d="M6327.6,14518.6a8.372,8.372,0,1,0,8.371-8.371A8.371,8.371,0,0,0,6327.6,14518.6Z" fill="#6d6d6d"/>
                <path id="Trazado_1462" data-name="Trazado 1462" d="M6331.239,14518.6a4.735,4.735,0,1,0,4.735-4.735A4.736,4.736,0,0,0,6331.239,14518.6Z" fill="#333"/>
                <path id="Trazado_1463" data-name="Trazado 1463" d="M6353.026,14504.19c0,7.963-7.625,14.406-17.052,14.406" fill="none" stroke="#0d0d0d" stroke-linecap="round" stroke-linejoin="round" stroke-width="36.304"/>
                <path id="Trazado_1464" data-name="Trazado 1464" d="M6333.2,14518.6a2.771,2.771,0,1,0,2.772-2.771A2.772,2.772,0,0,0,6333.2,14518.6Z" fill="#cfcfcf"/>
              </g>
              <rect id="Rectángulo_381" data-name="Rectángulo 381" width="40.371" height="76.205" transform="translate(6446.896 14347.998)" fill="#3d3d66"/>
              <g id="Grupo_955" data-name="Grupo 955">
                <path id="Trazado_1465" data-name="Trazado 1465" d="M6428.23,14329.963l-6.316,45.942-44.249-1.2" fill="none" stroke="#e4ae96" stroke-linecap="round" stroke-linejoin="round" stroke-width="69.111"/>
                <rect id="Rectángulo_382" data-name="Rectángulo 382" width="20.894" height="16.159" rx="8.079" transform="translate(6370.072 14363.9) rotate(17.182)" fill="#dd957a"/>
                <path id="Rectángulo_383" data-name="Rectángulo 383" d="M12.254,0h0A12.254,12.254,0,0,1,24.508,12.254V39.943a0,0,0,0,1,0,0H0a0,0,0,0,1,0,0V12.254A12.254,12.254,0,0,1,12.254,0Z" transform="translate(6417.968 14318.235) rotate(14.111)" fill="#587b68"/>
                <g id="Grupo_954" data-name="Grupo 954">
                  <path id="Trazado_1466" data-name="Trazado 1466" d="M6477.205,14427.57l-73.414-4.312,11.533-92.475a13.517,13.517,0,0,1,14.141-12.864l39.529,1.869a13.516,13.516,0,0,1,12.864,14.14Z" fill="#648777"/>
                  <g id="Grupo_949" data-name="Grupo 949">
                    <g id="Grupo_948" data-name="Grupo 948">
                      <g id="Grupo_946" data-name="Grupo 946">
                        <rect id="Rectángulo_384" data-name="Rectángulo 384" width="15.24" height="9.521" transform="translate(6322.103 14475.009) rotate(30.05)" fill="#e4ae96"/>
                      </g>
                      <g id="Grupo_947" data-name="Grupo 947">
                        <path id="Trazado_1467" data-name="Trazado 1467" d="M6322.926,14504.02l-26.535-15.351a7.591,7.591,0,0,1-2.769-10.37h0a7.589,7.589,0,0,1,10.37-2.768l26.535,15.351Z" fill="#e4ae96"/>
                      </g>
                      <rect id="Rectángulo_385" data-name="Rectángulo 385" width="38.244" height="3.795" transform="translate(6322.926 14504.02) rotate(-149.95)" fill="#090909"/>
                      <rect id="Rectángulo_386" data-name="Rectángulo 386" width="7.248" height="11.384" transform="matrix(-0.866, -0.501, 0.501, -0.866, 6307.406, 14490.657)" fill="#090909"/>
                    </g>
                    <path id="Trazado_1468" data-name="Trazado 1468" d="M6424.76,14428.019l-65.73.092-30.77,44.188" fill="none" stroke="#587b68" stroke-linecap="square" stroke-linejoin="round" stroke-width="129.584"/>
                  </g>
                  <g id="Grupo_953" data-name="Grupo 953">
                    <g id="Grupo_952" data-name="Grupo 952">
                      <g id="Grupo_950" data-name="Grupo 950">
                        <rect id="Rectángulo_387" data-name="Rectángulo 387" width="15.24" height="9.521" transform="matrix(0.866, 0.501, -0.501, 0.866, 6362.542, 14475.009)" fill="#e4ae96"/>
                      </g>
                      <g id="Grupo_951" data-name="Grupo 951">
                        <path id="Trazado_1469" data-name="Trazado 1469" d="M6363.365,14504.02l-26.534-15.351a7.59,7.59,0,0,1-2.769-10.37h0a7.588,7.588,0,0,1,10.369-2.768l26.535,15.351Z" fill="#e4ae96"/>
                      </g>
                      <rect id="Rectángulo_388" data-name="Rectángulo 388" width="38.244" height="3.795" transform="translate(6363.365 14504.021) rotate(-149.95)" fill="#090909"/>
                      <rect id="Rectángulo_389" data-name="Rectángulo 389" width="7.248" height="11.384" transform="matrix(-0.866, -0.501, 0.501, -0.866, 6347.845, 14490.657)" fill="#090909"/>
                    </g>
                    <path id="Trazado_1470" data-name="Trazado 1470" d="M6465.2,14428.019l-65.73.092L6368.7,14472.3" fill="none" stroke="#587b68" stroke-linecap="square" stroke-linejoin="round" stroke-width="129.584"/>
                  </g>
                </g>
                <path id="Trazado_1471" data-name="Trazado 1471" d="M6470.273,14330.822l-8.474,45-39.885.082" fill="none" stroke="#e4ae96" stroke-linecap="round" stroke-linejoin="round" stroke-width="69.111"/>
                <rect id="Rectángulo_390" data-name="Rectángulo 390" width="20.894" height="16.159" rx="8.079" transform="matrix(0.999, 0.047, -0.047, 0.999, 6409.345, 14366.621)" fill="#dd957a"/>
                <path id="Rectángulo_391" data-name="Rectángulo 391" d="M12.254,0h0A12.254,12.254,0,0,1,24.508,12.254V39.943a0,0,0,0,1,0,0H0a0,0,0,0,1,0,0V12.254A12.254,12.254,0,0,1,12.254,0Z" transform="translate(6458.687 14320.361) rotate(8.793)" fill="#587b68"/>
              </g>
              <g id="Grupo_972" data-name="Grupo 972">
                <g id="Grupo_971" data-name="Grupo 971">
                  <path id="Trazado_1472" data-name="Trazado 1472" d="M6530.081,14336.289H6487.5v118.586H6391.13l-32.967,55.351" fill="none" stroke="#909294" stroke-linecap="round" stroke-linejoin="round" stroke-width="29.043"/>
                  <path id="Trazado_1473" data-name="Trazado 1473" d="M6503.188,14501.4h-67.977l-17.473-17.473h-45.1" fill="none" stroke="#909294" stroke-linecap="round" stroke-linejoin="round" stroke-width="18.152"/>
                  <path id="Trazado_1474" data-name="Trazado 1474" d="M6487.267,14390.5H6393.69l.232,113.694" fill="none" stroke="#909294" stroke-linecap="round" stroke-linejoin="round" stroke-width="21.782"/>
                  <line id="Línea_522" data-name="Línea 522" y2="51.092" transform="translate(6487.5 14450.312)" fill="none" stroke="#909294" stroke-linecap="round" stroke-linejoin="round" stroke-width="18.152"/>
                  <rect id="Rectángulo_392" data-name="Rectángulo 392" width="93.578" height="29.128" transform="translate(6393.922 14421.184)" fill="#2f2f4f"/>
                  <path id="Trazado_1475" data-name="Trazado 1475" d="M6404.381,14388.118a5.943,5.943,0,0,0,5.942,5.942h57.926a5.943,5.943,0,0,0,5.943-5.942h0a5.943,5.943,0,0,0-5.943-5.942h-57.926a5.943,5.943,0,0,0-5.942,5.942Z" fill="#2f2f4f"/>
                  <path id="Trazado_1476" data-name="Trazado 1476" d="M6495.583,14336.527a5.467,5.467,0,0,0,5.467,5.466h28.319a5.467,5.467,0,0,0,5.467-5.466h0a5.467,5.467,0,0,0-5.467-5.467H6501.05a5.466,5.466,0,0,0-5.467,5.467Z" fill="#0d0d0d"/>
                  <path id="Trazado_1477" data-name="Trazado 1477" d="M6529.369,14336.527H6501.05a5.46,5.46,0,0,0-4.729,2.732,5.459,5.459,0,0,1,4.729-8.2h28.319a5.46,5.46,0,0,1,4.73,8.2A5.463,5.463,0,0,0,6529.369,14336.527Z" fill="#333"/>
                  <path id="Trazado_1478" data-name="Trazado 1478" d="M6323.557,14488.153c-1.423,2.663.333,6.375,3.92,8.292l26.554,14.184c3.588,1.917,7.651,1.313,9.073-1.351h0c1.422-2.663-.333-6.376-3.922-8.292l-26.553-14.186c-3.589-1.916-7.65-1.311-9.072,1.353Z" fill="#333"/>
                  <path id="Trazado_1479" data-name="Trazado 1479" d="M6356.341,14503.826l-26.552-14.186a8.3,8.3,0,0,0-6.53-.749,4.03,4.03,0,0,1,.3-.738c1.422-2.663,5.483-3.269,9.072-1.353l26.553,14.186c3.589,1.916,5.344,5.629,3.922,8.292a4.523,4.523,0,0,1-2.542,2.1C6361.347,14508.8,6359.609,14505.571,6356.341,14503.826Z" fill="#0d0d0d"/>
                  <g id="Grupo_970" data-name="Grupo 970">
                    <g id="Grupo_956" data-name="Grupo 956">
                      <line id="Línea_523" data-name="Línea 523" x1="52.115" y1="13.964" transform="translate(6436.58 14464.19)" fill="none" stroke="#b5b5b5" stroke-miterlimit="10" stroke-width="3.63"/>
                      <line id="Línea_524" data-name="Línea 524" x1="52.101" y2="14.012" transform="translate(6436.594 14478.154)" fill="none" stroke="#b5b5b5" stroke-miterlimit="10" stroke-width="3.63"/>
                      <line id="Línea_525" data-name="Línea 525" x1="38.081" y2="38.221" transform="translate(6450.614 14478.154)" fill="none" stroke="#b5b5b5" stroke-miterlimit="10" stroke-width="3.63"/>
                      <line id="Línea_526" data-name="Línea 526" x1="13.822" y2="52.155" transform="translate(6474.873 14478.154)" fill="none" stroke="#b5b5b5" stroke-miterlimit="10" stroke-width="3.63"/>
                      <line id="Línea_527" data-name="Línea 527" x2="14.153" y2="52.066" transform="translate(6488.695 14478.154)" fill="none" stroke="#b5b5b5" stroke-miterlimit="10" stroke-width="3.63"/>
                      <line id="Línea_528" data-name="Línea 528" x2="38.325" y2="37.98" transform="translate(6488.695 14478.154)" fill="none" stroke="#b5b5b5" stroke-miterlimit="10" stroke-width="3.63"/>
                      <line id="Línea_529" data-name="Línea 529" x2="52.192" y2="13.683" transform="translate(6488.695 14478.154)" fill="none" stroke="#b5b5b5" stroke-miterlimit="10" stroke-width="3.63"/>
                      <line id="Línea_530" data-name="Línea 530" y1="14.292" x2="52.027" transform="translate(6488.695 14463.862)" fill="none" stroke="#b5b5b5" stroke-miterlimit="10" stroke-width="3.63"/>
                      <line id="Línea_531" data-name="Línea 531" y1="38.425" x2="37.875" transform="translate(6488.695 14439.729)" fill="none" stroke="#b5b5b5" stroke-miterlimit="10" stroke-width="3.63"/>
                      <line id="Línea_532" data-name="Línea 532" y1="52.226" x2="13.541" transform="translate(6488.695 14425.928)" fill="none" stroke="#b5b5b5" stroke-miterlimit="10" stroke-width="3.63"/>
                      <line id="Línea_533" data-name="Línea 533" x1="14.435" y1="51.986" transform="translate(6474.26 14426.168)" fill="none" stroke="#b5b5b5" stroke-miterlimit="10" stroke-width="3.63"/>
                      <line id="Línea_534" data-name="Línea 534" x1="38.528" y1="37.768" transform="translate(6450.167 14440.387)" fill="none" stroke="#b5b5b5" stroke-miterlimit="10" stroke-width="3.63"/>
                    </g>
                    <g id="Grupo_957" data-name="Grupo 957">
                      <line id="Línea_535" data-name="Línea 535" x1="46.726" y1="26.976" transform="translate(6441.962 14451.167)" fill="none" stroke="#b5b5b5" stroke-miterlimit="10" stroke-width="3.63"/>
                      <line id="Línea_536" data-name="Línea 536" x1="53.952" y2="0.049" transform="translate(6434.735 14478.144)" fill="none" stroke="#b5b5b5" stroke-miterlimit="10" stroke-width="3.63"/>
                      <line id="Línea_537" data-name="Línea 537" x1="46.675" y2="27.063" transform="translate(6442.012 14478.144)" fill="none" stroke="#b5b5b5" stroke-miterlimit="10" stroke-width="3.63"/>
                      <line id="Línea_538" data-name="Línea 538" x1="26.849" y2="46.8" transform="translate(6461.838 14478.144)" fill="none" stroke="#b5b5b5" stroke-miterlimit="10" stroke-width="3.63"/>
                      <line id="Línea_539" data-name="Línea 539" x2="0.195" y2="53.956" transform="translate(6488.688 14478.144)" fill="none" stroke="#b5b5b5" stroke-miterlimit="10" stroke-width="3.63"/>
                      <line id="Línea_540" data-name="Línea 540" x2="27.189" y2="46.606" transform="translate(6488.688 14478.144)" fill="none" stroke="#b5b5b5" stroke-miterlimit="10" stroke-width="3.63"/>
                      <line id="Línea_541" data-name="Línea 541" x2="46.872" y2="26.725" transform="translate(6488.688 14478.144)" fill="none" stroke="#b5b5b5" stroke-miterlimit="10" stroke-width="3.63"/>
                      <line id="Línea_542" data-name="Línea 542" y1="0.339" x2="53.953" transform="translate(6488.688 14477.804)" fill="none" stroke="#b5b5b5" stroke-miterlimit="10" stroke-width="3.63"/>
                      <line id="Línea_543" data-name="Línea 543" y1="27.312" x2="46.531" transform="translate(6488.688 14450.831)" fill="none" stroke="#b5b5b5" stroke-miterlimit="10" stroke-width="3.63"/>
                      <line id="Línea_544" data-name="Línea 544" y1="46.942" x2="26.597" transform="translate(6488.688 14431.201)" fill="none" stroke="#b5b5b5" stroke-miterlimit="10" stroke-width="3.63"/>
                      <line id="Línea_545" data-name="Línea 545" x1="0.488" y1="53.951" transform="translate(6488.2 14424.192)" fill="none" stroke="#b5b5b5" stroke-miterlimit="10" stroke-width="3.63"/>
                      <line id="Línea_546" data-name="Línea 546" x1="27.44" y1="46.453" transform="translate(6461.248 14431.69)" fill="none" stroke="#b5b5b5" stroke-miterlimit="10" stroke-width="3.63"/>
                    </g>
                    <g id="Grupo_958" data-name="Grupo 958">
                      <line id="Línea_547" data-name="Línea 547" x1="53.953" transform="translate(6434.742 14478.154)" fill="none" stroke="#b5b5b5" stroke-miterlimit="10" stroke-width="5.446"/>
                      <line id="Línea_548" data-name="Línea 548" x1="46.7" y2="27.02" transform="translate(6441.996 14478.154)" fill="none" stroke="#b5b5b5" stroke-miterlimit="10" stroke-width="5.446"/>
                      <line id="Línea_549" data-name="Línea 549" x1="26.891" y2="46.774" transform="translate(6461.804 14478.154)" fill="none" stroke="#b5b5b5" stroke-miterlimit="10" stroke-width="5.446"/>
                      <line id="Línea_550" data-name="Línea 550" x2="0.147" y2="53.956" transform="translate(6488.695 14478.154)" fill="none" stroke="#b5b5b5" stroke-miterlimit="10" stroke-width="5.446"/>
                      <line id="Línea_551" data-name="Línea 551" x2="27.146" y2="46.629" transform="translate(6488.695 14478.154)" fill="none" stroke="#b5b5b5" stroke-miterlimit="10" stroke-width="5.446"/>
                      <line id="Línea_552" data-name="Línea 552" x2="46.847" y2="26.767" transform="translate(6488.695 14478.154)" fill="none" stroke="#b5b5b5" stroke-miterlimit="10" stroke-width="5.446"/>
                      <line id="Línea_553" data-name="Línea 553" y1="0.292" x2="53.955" transform="translate(6488.695 14477.862)" fill="none" stroke="#b5b5b5" stroke-miterlimit="10" stroke-width="5.446"/>
                      <line id="Línea_554" data-name="Línea 554" y1="27.271" x2="46.555" transform="translate(6488.695 14450.883)" fill="none" stroke="#b5b5b5" stroke-miterlimit="10" stroke-width="5.446"/>
                      <line id="Línea_555" data-name="Línea 555" y1="46.918" x2="26.639" transform="translate(6488.695 14431.235)" fill="none" stroke="#b5b5b5" stroke-miterlimit="10" stroke-width="5.446"/>
                      <line id="Línea_556" data-name="Línea 556" x1="0.438" y1="53.951" transform="translate(6488.257 14424.203)" fill="none" stroke="#b5b5b5" stroke-miterlimit="10" stroke-width="5.446"/>
                      <line id="Línea_557" data-name="Línea 557" x1="27.398" y1="46.478" transform="translate(6461.297 14431.676)" fill="none" stroke="#b5b5b5" stroke-miterlimit="10" stroke-width="5.446"/>
                      <line id="Línea_558" data-name="Línea 558" x1="46.991" y1="26.509" transform="translate(6441.704 14451.646)" fill="none" stroke="#b5b5b5" stroke-miterlimit="10" stroke-width="5.446"/>
                    </g>
                    <g id="Grupo_969" data-name="Grupo 969">
                      <g id="Grupo_960" data-name="Grupo 960">
                        <g id="Grupo_959" data-name="Grupo 959">
                          <path id="Trazado_1480" data-name="Trazado 1480" d="M6488.695,14424.2a53.953,53.953,0,1,1-53.953,53.953,53.952,53.952,0,0,1,53.953-53.953m0-4.278a58.07,58.07,0,1,0,22.668,4.578,57.884,57.884,0,0,0-22.668-4.578Z" fill="#363636"/>
                        </g>
                      </g>
                      <g id="Grupo_962" data-name="Grupo 962">
                        <g id="Grupo_961" data-name="Grupo 961">
                          <path id="Trazado_1481" data-name="Trazado 1481" d="M6488.695,14425.628a52.355,52.355,0,1,1-20.445,4.127,52.206,52.206,0,0,1,20.445-4.127m0-1.426a53.953,53.953,0,1,0,53.953,53.953,53.952,53.952,0,0,0-53.953-53.953Z" fill="#dbdbdb"/>
                        </g>
                      </g>
                      <g id="Grupo_964" data-name="Grupo 964">
                        <g id="Grupo_963" data-name="Grupo 963">
                          <path id="Trazado_1482" data-name="Trazado 1482" d="M6488.695,14433.249a44.76,44.76,0,1,1-17.479,3.528,44.611,44.611,0,0,1,17.479-3.528m0-1.854a46.76,46.76,0,1,0,46.761,46.761,46.76,46.76,0,0,0-46.761-46.761Z" fill="#dbdbdb"/>
                        </g>
                      </g>
                      <g id="Grupo_966" data-name="Grupo 966">
                        <g id="Grupo_965" data-name="Grupo 965">
                          <path id="Trazado_1483" data-name="Trazado 1483" d="M6481.083,14478.155a7.613,7.613,0,1,1,7.612,7.612A7.612,7.612,0,0,1,6481.083,14478.155Z" fill="#dbdbdb"/>
                        </g>
                      </g>
                      <g id="Grupo_968" data-name="Grupo 968">
                        <g id="Grupo_967" data-name="Grupo 967">
                          <path id="Trazado_1484" data-name="Trazado 1484" d="M6483.237,14478.155a5.459,5.459,0,1,1,5.458,5.459A5.459,5.459,0,0,1,6483.237,14478.155Z" fill="#595959"/>
                        </g>
                      </g>
                    </g>
                  </g>
                  <path id="Trazado_1485" data-name="Trazado 1485" d="M6361.635,14518.6a15.236,15.236,0,1,0,15.235-15.235A15.235,15.235,0,0,0,6361.635,14518.6Z" fill="#363636"/>
                  <path id="Trazado_1486" data-name="Trazado 1486" d="M6368.5,14518.6a8.372,8.372,0,1,0,8.371-8.371A8.371,8.371,0,0,0,6368.5,14518.6Z" fill="#6d6d6d"/>
                  <path id="Trazado_1487" data-name="Trazado 1487" d="M6372.135,14518.6a4.735,4.735,0,1,0,4.735-4.735A4.736,4.736,0,0,0,6372.135,14518.6Z" fill="#333"/>
                  <path id="Trazado_1488" data-name="Trazado 1488" d="M6393.922,14504.19c0,7.963-7.625,14.406-17.052,14.406" fill="none" stroke="#0d0d0d" stroke-linecap="round" stroke-linejoin="round" stroke-width="36.304"/>
                  <path id="Trazado_1489" data-name="Trazado 1489" d="M6374.1,14518.6a2.771,2.771,0,1,0,2.772-2.771A2.772,2.772,0,0,0,6374.1,14518.6Z" fill="#cfcfcf"/>
                </g>
              </g>
            </g>
          </g>
          <g id="Grupo_978" data-name="Grupo 978">
            <rect id="Rectángulo_393" data-name="Rectángulo 393" width="17.068" height="5.893" transform="translate(6437.083 14319.146) rotate(4.063)" fill="#e4ae96"/>
            <path id="Trazado_1490" data-name="Trazado 1490" d="M6457.81,14258.912l-7.716.436c-7.789.111-16.013-5-19.336,4.352-.685,1.929-5.359,5.2-5.888,12.642l-1.18,16.622a18.893,18.893,0,0,0,17.48,20.108l9.752.692a18.946,18.946,0,0,0,20.209-17.431l1.18-16.622C6473.046,14269.372,6465.137,14260.318,6457.81,14258.912Z" fill="#949494"/>
            <rect id="Rectángulo_394" data-name="Rectángulo 394" width="17.068" height="5.362" transform="translate(6437.284 14316.33) rotate(4.063)" fill="#e4ae96"/>
            <rect id="Rectángulo_395" data-name="Rectángulo 395" width="17.068" height="5.648" transform="translate(6437.284 14316.33) rotate(4.063)" fill="#dd957a"/>
            <path id="Rectángulo_396" data-name="Rectángulo 396" d="M10.52,0H31.293a10.52,10.52,0,0,1,10.52,10.52V27A20.907,20.907,0,0,1,20.907,47.9h0A20.907,20.907,0,0,1,0,27V10.52A10.52,10.52,0,0,1,10.52,0Z" transform="translate(6428.186 14269.782) rotate(4.063)" fill="#e4ae96"/>
            <path id="Trazado_1491" data-name="Trazado 1491" d="M6467.069,14291.87c3.538-5.287,8.959-2.223,8.634,2.355s-3.937,10.285-9.5,9.891Z" fill="#e4ae96"/>
            <path id="Trazado_1492" data-name="Trazado 1492" d="M6427.615,14289.068c-1.787-5.666-8.555-3.469-8.88,1.111s3.412,10.808,8.011,11.135Z" fill="#e4ae96"/>
            <path id="Trazado_1493" data-name="Trazado 1493" d="M6437.23,14270.425s4.458,5.066,10.335,5.483,9.68-4.207,12.275-3.878-18.276-9.62-18.276-9.62Z" fill="#949494"/>
            <path id="Trazado_1494" data-name="Trazado 1494" d="M6452.615,14303.576c-.178,2.5-5.263,3.113-6.419,3.031s-6.1-1.409-5.926-3.908Z" fill="#fff" stroke="#9c534a" stroke-miterlimit="10" stroke-width="4.501"/>
            <g id="Grupo_976" data-name="Grupo 976">
              <g id="Grupo_975" data-name="Grupo 975">
                <path id="Trazado_1495" data-name="Trazado 1495" d="M6438.581,14289.227a1.762,1.762,0,1,1-1.634-1.858A1.75,1.75,0,0,1,6438.581,14289.227Z"/>
                <path id="Trazado_1496" data-name="Trazado 1496" d="M6459.7,14290.727a1.762,1.762,0,1,1-1.634-1.858A1.75,1.75,0,0,1,6459.7,14290.727Z"/>
              </g>
              <path id="Trazado_1497" data-name="Trazado 1497" d="M6449.33,14298.392c-.068.957-1.26,1.653-2.663,1.554s-2.484-.957-2.416-1.914,1.26-1.653,2.662-1.555S6449.4,14297.434,6449.33,14298.392Z" fill="#cf9985"/>
              <line id="Línea_559" data-name="Línea 559" x2="6.535" y2="0.464" transform="translate(6455.558 14286.117)" fill="#fff" stroke="#323030" stroke-miterlimit="10" stroke-width="4.942"/>
              <line id="Línea_560" data-name="Línea 560" x2="6.293" y2="0.447" transform="translate(6434.015 14284.587)" fill="#fff" stroke="#323030" stroke-miterlimit="10" stroke-width="4.942"/>
              <rect id="Rectángulo_397" data-name="Rectángulo 397" width="13.71" height="9.043" rx="4.522" transform="matrix(0.997, 0.071, -0.071, 0.997, 6430.224, 14285.275)" fill="none" stroke="#383838" stroke-linecap="round" stroke-miterlimit="10" stroke-width="5.735"/>
              <path id="Rectángulo_398" data-name="Rectángulo 398" d="M4.521,0H9.189A4.522,4.522,0,0,1,13.71,4.522v0A4.521,4.521,0,0,1,9.189,9.043H4.522A4.522,4.522,0,0,1,0,4.522v0A4.521,4.521,0,0,1,4.521,0Z" transform="translate(6451.544 14286.79) rotate(4.063)" fill="none" stroke="#383838" stroke-linecap="round" stroke-miterlimit="10" stroke-width="5.735"/>
              <line id="Línea_561" data-name="Línea 561" x2="7.503" y2="0.533" transform="translate(6443.388 14289.632)" fill="none" stroke="#383838" stroke-miterlimit="10" stroke-width="7.413"/>
              <line id="Línea_562" data-name="Línea 562" y1="1.363" x2="3.826" transform="translate(6464.846 14289.955)" fill="none" stroke="#383838" stroke-miterlimit="10" stroke-width="6.193"/>
              <line id="Línea_563" data-name="Línea 563" x1="3.595" y1="1.89" transform="translate(6426.695 14286.974)" fill="none" stroke="#383838" stroke-miterlimit="10" stroke-width="6.193"/>
            </g>
            <path id="Trazado_1498" data-name="Trazado 1498" d="M6436.964,14302.464a2.779,2.779,0,0,0-.908,3.422" fill="none" stroke="#dd957a" stroke-miterlimit="10" stroke-width="2.25"/>
            <path id="Trazado_1499" data-name="Trazado 1499" d="M6455.339,14303.769a2.779,2.779,0,0,1,.414,3.517" fill="none" stroke="#dd957a" stroke-miterlimit="10" stroke-width="2.25"/>
            <path id="Trazado_1500" data-name="Trazado 1500" d="M6459.534,14292.393a2.78,2.78,0,0,1,2.161,2.806" fill="none" stroke="#dd957a" stroke-miterlimit="10" stroke-width="2.25"/>
            <path id="Trazado_1501" data-name="Trazado 1501" d="M6460.094,14291.72a2.778,2.778,0,0,1,3.081,1.744" fill="none" stroke="#dd957a" stroke-miterlimit="10" stroke-width="2.25"/>
            <path id="Trazado_1502" data-name="Trazado 1502" d="M6435.017,14290.651a2.779,2.779,0,0,0-2.535,2.472" fill="none" stroke="#dd957a" stroke-miterlimit="10" stroke-width="2.25"/>
            <path id="Trazado_1503" data-name="Trazado 1503" d="M6434.557,14289.906a2.778,2.778,0,0,0-3.3,1.292" fill="none" stroke="#dd957a" stroke-miterlimit="10" stroke-width="2.25"/>
            <g id="Grupo_977" data-name="Grupo 977">
              <path id="Trazado_1504" data-name="Trazado 1504" d="M6440.719,14278.838a55.24,55.24,0,0,1,6.553-.116,62.342,62.342,0,0,1,6.728,1.06" fill="none" stroke="#dd957a" stroke-miterlimit="10" stroke-width="2.056"/>
              <path id="Trazado_1505" data-name="Trazado 1505" d="M6440.629,14280.1a55.245,55.245,0,0,1,6.553-.116,62.319,62.319,0,0,1,6.728,1.06" fill="none" stroke="#dd957a" stroke-miterlimit="10" stroke-width="2.056"/>
              <path id="Trazado_1506" data-name="Trazado 1506" d="M6440.54,14281.363a55,55,0,0,1,6.553-.116,62.442,62.442,0,0,1,6.728,1.059" fill="none" stroke="#dd957a" stroke-miterlimit="10" stroke-width="2.056"/>
            </g>
            <path id="Trazado_1507" data-name="Trazado 1507" d="M6441.546,14307.088s4.969,2.863,10.088.276C6451.634,14307.364,6446.471,14311.571,6441.546,14307.088Z" fill="#dd957a"/>
            <path id="Trazado_1508" data-name="Trazado 1508" d="M6438.474,14268.727s5.763,8.349,19.666,2.838a26.586,26.586,0,0,1-19.98-2.86" fill="#aaa8a8"/>
            <path id="Trazado_1509" data-name="Trazado 1509" d="M6469.459,14278.866a1.644,1.644,0,0,0,2.291-.354S6471.925,14280.888,6469.459,14278.866Z" fill="#aaa8a8"/>
            <path id="Trazado_1510" data-name="Trazado 1510" d="M6469.539,14280.866a1.643,1.643,0,0,0,2.29-.354S6472,14282.887,6469.539,14280.866Z" fill="#aaa8a8"/>
            <path id="Trazado_1511" data-name="Trazado 1511" d="M6469.429,14282.409a1.644,1.644,0,0,0,2.291-.354S6471.894,14284.431,6469.429,14282.409Z" fill="#aaa8a8"/>
            <path id="Trazado_1512" data-name="Trazado 1512" d="M6427.908,14275.251s-1.136.731-2.218-.675C6425.69,14274.576,6425.181,14276.9,6427.908,14275.251Z" fill="#aaa8a8"/>
            <path id="Trazado_1513" data-name="Trazado 1513" d="M6427.546,14277.219s-1.135.732-2.217-.675C6425.329,14276.544,6424.82,14278.871,6427.546,14277.219Z" fill="#aaa8a8"/>
            <path id="Trazado_1514" data-name="Trazado 1514" d="M6427.437,14278.762s-1.136.732-2.218-.675C6425.219,14278.087,6424.71,14280.415,6427.437,14278.762Z" fill="#aaa8a8"/>
            <ellipse id="Elipse_95" data-name="Elipse 95" cx="4.42" cy="8.534" rx="4.42" ry="8.534" transform="matrix(0.071, -0.997, 0.997, 0.071, 6436.354, 14329.434)" fill="#e4ae96"/>
          </g>
        </g>
        <g id="Grupo_983" data-name="Grupo 983">
          <path id="Trazado_1515" data-name="Trazado 1515" d="M6922.035,13845.562c0,4.14-3.626,7.5-8.1,7.5H6791.025c-4.471,0-8.1-3.355-8.1-7.5v-22.092c0-4.139,3.626-7.5,8.1-7.5h122.912c4.472,0,8.1,3.356,8.1,7.5Z" fill="#d2e3ec"/>
          <path id="Trazado_1516" data-name="Trazado 1516" d="M6902.547,13692.975a7.3,7.3,0,0,0-7.3-7.3H6810a7.3,7.3,0,0,0-7.3,7.3l-2.007,51.854a7.428,7.428,0,0,0,7.55,7.3H6897a7.427,7.427,0,0,0,7.55-7.3Z" fill="#d2e3ec"/>
          <path id="Trazado_1517" data-name="Trazado 1517" d="M6887.749,13700.691c-2.275-4.938-19.615-7.667-35.123-7.055-15.508-.612-32.847,2.116-35.123,7.055-6.873,14.914,2.737,52.686,2.737,52.686h64.772S6894.623,13715.605,6887.749,13700.691Z" fill="#ebf9ff"/>
          <path id="Trazado_1518" data-name="Trazado 1518" d="M6890.052,13722.952c-6.077-1.295-16.067-3.018-32.584-3.018-1.589,0-3.224.025-4.825.074-1.635-.049-3.27-.074-4.859-.074-16.517,0-26.507,1.723-32.584,3.018l-.49.1.037.5a201.485,201.485,0,0,0,4.936,29.962l.11.434h65.666l.11-.434a201.34,201.34,0,0,0,4.936-29.962l.037-.5Z" fill="#d2e3ec"/>
          <path id="Trazado_1519" data-name="Trazado 1519" d="M6926.9,13811.763l-17.394-72.354a3.411,3.411,0,0,0-.61-1.458c-1.175-4.022-4.777-7.935-8.708-8.888-9.42-2.287-17.429-6.257-42.715-6.257-1.666,0-3.276.027-4.842.074-1.565-.047-3.176-.074-4.842-.074-25.285,0-33.3,3.97-42.715,6.257-3.931.953-7.533,4.865-8.708,8.888a3.411,3.411,0,0,0-.61,1.458l-17.393,72.354a36.752,36.752,0,0,0-1.081,9.235c-.307,11.241,5.634,14.02,5.634,14.02h139.43s5.941-2.778,5.634-14.02A36.792,36.792,0,0,0,6926.9,13811.763Z" fill="#ebf9ff"/>
          <g id="Grupo_982" data-name="Grupo 982">
            <path id="Trazado_1520" data-name="Trazado 1520" d="M6867.252,13692" fill="#311f11"/>
            <path id="Trazado_1521" data-name="Trazado 1521" d="M6851.056,13633.422h0a23.329,23.329,0,0,0-20.468,25.877l.973,8.339.038,0,3.985,31.863a12.672,12.672,0,0,0,14.056,11.118l24.4-2.848c5.147-.6,5.588-4.815,4.987-9.963l-1.12-35.576-.887-7.6-.086-.739A23.329,23.329,0,0,0,6851.056,13633.422Z" fill="#5d3410"/>
            <path id="Trazado_1522" data-name="Trazado 1522" d="M6851.711,13701.179h12.146v-17.4l-12.146.638Z" fill="#ebc291"/>
            <path id="Trazado_1523" data-name="Trazado 1523" d="M6851.711,13691.166a15.966,15.966,0,0,0,5.388,1.061,17.906,17.906,0,0,0,6.758-1.442v-7.01h-12.146Z" fill="#d7a079"/>
            <path id="Trazado_1524" data-name="Trazado 1524" d="M6866.278,13665.484a6.513,6.513,0,0,0,6.247,6.983,6.911,6.911,0,0,0,7.315-6.221,6.513,6.513,0,0,0-6.246-6.984A6.912,6.912,0,0,0,6866.278,13665.484Z" fill="#ebc291"/>
            <path id="Trazado_1525" data-name="Trazado 1525" d="M6874.961,13667.176c1.327,11.369-8.846,21.348-17.862,22.4-7.193.586-18.582-4.5-21.794-17.593l-2.753-13.637c-1.327-11.37,7.261-19.979,18.419-21.28s21.086,5.229,22.413,16.6Z" fill="#ebc291"/>
            <path id="Trazado_1526" data-name="Trazado 1526" d="M6842.931,13672.871a4.544,4.544,0,0,1-3.419-1.435,1.139,1.139,0,1,1,1.748-1.461,2.5,2.5,0,0,0,2.338.548c1.668-.339,1.933-1.2,1.943-1.238a1.12,1.12,0,0,1,1.332-.878,1.156,1.156,0,0,1,.894,1.356c-.169.866-1.142,2.47-3.716,2.992A5.608,5.608,0,0,1,6842.931,13672.871Z" fill="#452812"/>
            <path id="Trazado_1527" data-name="Trazado 1527" d="M6859.974,13647.387c-8.378,10.435-23.48,10.477-26.031,22.48,0,0-.974-4.7-2.117-9.868-1.811-8.2,2.848-22.051,18.833-25.863,16.51-3.937,25.767,10.372,25.554,25.807l-1.624,1.8S6864.456,13656.842,6859.974,13647.387Z" fill="#5d3410"/>
            <path id="Trazado_1528" data-name="Trazado 1528" d="M6838.97,13666.467a1.139,1.139,0,0,1-.52-2.152,12.835,12.835,0,0,1,7.836-1.527,1.138,1.138,0,0,1-.446,2.232,10.862,10.862,0,0,0-6.352,1.322A1.132,1.132,0,0,1,6838.97,13666.467Z" fill="#5d3410"/>
            <path id="Trazado_1529" data-name="Trazado 1529" d="M6862.307,13669.34a4.017,4.017,0,0,1-3.488-1.6,1.139,1.139,0,0,1,1.925-1.218c.052.067.612.733,2.241.481a2.454,2.454,0,0,0,2-1.318,1.139,1.139,0,1,1,2.146.764,4.722,4.722,0,0,1-3.794,2.806A6.69,6.69,0,0,1,6862.307,13669.34Z" fill="#452812"/>
            <path id="Trazado_1530" data-name="Trazado 1530" d="M6858.394,13662.774a1.138,1.138,0,0,1-.6-2.1,12.861,12.861,0,0,1,7.893-1.286,1.138,1.138,0,1,1-.27,2.261,10.86,10.86,0,0,0-6.431.966A1.14,1.14,0,0,1,6858.394,13662.774Z" fill="#5d3410"/>
            <path id="Trazado_1531" data-name="Trazado 1531" d="M6856.816,13683.732q-.424.062-.869.082c-2.284.1-4.446-.7-5.259-1.942a.905.905,0,0,1,1.516-.989c.392.6,1.9,1.2,3.661,1.123a5.069,5.069,0,0,0,4.335-2.454.905.905,0,0,1,1.6.85A6.525,6.525,0,0,1,6856.816,13683.732Z" fill="#694018"/>
            <path id="Trazado_1532" data-name="Trazado 1532" d="M6873.193,13696.206c-.24-.112-.486-.221-.738-.327a39.2,39.2,0,0,0-5.651-1.981c-1.112-.265-2.089-.47-2.947-.629a8.1,8.1,0,0,1-7.475,5c-5,.166-4.671-5.383-4.671-5.383a35.03,35.03,0,0,0-4.41.516c-12.507,2.771-12.195,15.412-11.91,24.78.719-.514,1.175-.809,1.175-.809a7.412,7.412,0,0,0,3.39,4.772s19.765,18.718,25.111,16.646c11.412-4.422,14.795-14.157,15.655-21.843q.066-.6.132-1.119C6881.825,13708.129,6879.876,13699.318,6873.193,13696.206Z" fill="#d48691"/>
            <g id="Grupo_981" data-name="Grupo 981">
              <path id="Trazado_1533" data-name="Trazado 1533" d="M6849.136,13709.9c6.117,8.443,9.643,17.906,9.706,24.025,0,0,2.466,10.2-5.393,12.775-13.342,4.372-20.806.449-31.53-14.354s-20.815-32.87-7.659-41.7C6829.126,13680.669,6838.412,13695.095,6849.136,13709.9Z" fill="#fefdf3"/>
              <path id="Trazado_1534" data-name="Trazado 1534" d="M6838.754,13699.981a66.588,66.588,0,0,0-5.858-7.394c-4.561-5.1-11.27-4.165-15.026-2.292-7.061,3.69-9.42,11.239-5.877,18.016l1.041,1.99c.082.158.17.313.258.468a17.264,17.264,0,0,0,6.762,6.3c3.587,1.661,7.147,1.686,11.26.147C6838.773,13714.425,6843.372,13707.472,6838.754,13699.981Z" fill="#ebc291"/>
              <path id="Trazado_1535" data-name="Trazado 1535" d="M6822.681,13714.815a2.69,2.69,0,1,0,.607-3.261A2.382,2.382,0,0,0,6822.681,13714.815Z" fill="#e29879"/>
              <path id="Trazado_1536" data-name="Trazado 1536" d="M6838.754,13699.981s-.107-.164-.309-.458a2.3,2.3,0,0,0-1.736,1.938,1.929,1.929,0,0,0,1.949,2.12,2.368,2.368,0,0,0,1.5-.51A12.906,12.906,0,0,0,6838.754,13699.981Z" fill="#e29879"/>
              <g id="Grupo_980" data-name="Grupo 980">
                <path id="Trazado_1537" data-name="Trazado 1537" d="M6826.386,13705.38a.823.823,0,0,0-.994.6,3.309,3.309,0,0,1-3.592,2.435.823.823,0,0,0-.733,1.33.815.815,0,0,0,.551.3,5.286,5.286,0,0,0,1.631-.087q.275-.057.538-.138a4.577,4.577,0,0,0,3.2-3.453A.824.824,0,0,0,6826.386,13705.38Z" fill="#834f1c"/>
                <path id="Trazado_1538" data-name="Trazado 1538" d="M6835.549,13698.32a.823.823,0,0,0-.91.724,2.289,2.289,0,0,1-.782,1.691,1.885,1.885,0,0,1-1.358.242.823.823,0,0,0-.386,1.6,3.788,3.788,0,0,0,1.514,0,3.2,3.2,0,0,0,.324-.084,3.04,3.04,0,0,0,.839-.408,3.811,3.811,0,0,0,1.484-2.859A.824.824,0,0,0,6835.549,13698.32Z" fill="#834f1c"/>
              </g>
              <path id="Trazado_1539" data-name="Trazado 1539" d="M6835.75,13707.795a.668.668,0,0,0-.638-.066.956.956,0,0,0-.52.657l-.037.179a2.211,2.211,0,0,1-.858,1.631,2.523,2.523,0,0,1-1.836.432,1.189,1.189,0,0,0-.867.166.673.673,0,0,0-.28.446.874.874,0,0,0,.769.929h0a3.687,3.687,0,0,0,1.555,0,4.512,4.512,0,0,0,1.278-.473,3.265,3.265,0,0,0,1.728-2.57C6836.1,13708.788,6836.2,13708.079,6835.75,13707.795Z" fill="#834f1c"/>
            </g>
            <path id="Trazado_1540" data-name="Trazado 1540" d="M6869.577,13715.851c-1.8,6.549-3.274,16.973-5.647,18.84,0,0-2.847,2.088-10.032,1.337-4.236-.442-3.9-4.4-8.807-5.885a21.358,21.358,0,0,0-2.629-.436c-.5-.083-2.922-.229-3.607-.22-.773.01-1.886-.084-2.431.526-.642.724.234,1.672,1.015,1.953.5.183,5.944.684,5.754,1.736-.208,1.157-2.946.605-3.72.49-1.054-.156-5.074-.774-6.07-.956-.695-.125-2.437-.785-2.878.192s.985,1.335,1.51,2c.48.615.36,1.258.7,1.767,2.9,4.4,7.735,5.925,12.575,7.027a34.037,34.037,0,0,0,5.1.984c6.681,1.157,13.412,1.393,16.846.063,11.416-4.425,12.606-20.641,13.466-28.323C6876.826,13714.659,6870.978,13714.45,6869.577,13715.851Z" fill="#ebc291"/>
            <path id="Trazado_1541" data-name="Trazado 1541" d="M6830.692,13732.405l.006,0,.055,0C6830.732,13732.4,6830.713,13732.4,6830.692,13732.405Z" fill="#d7a079"/>
            <path id="Trazado_1542" data-name="Trazado 1542" d="M6816.069,13692.613c-1.532,1.552-1.569,3.632.4,4.95,3.32,2.221,8.915-1.347,8.915-1.347a3.152,3.152,0,0,1-3.188-2.4C6821.148,13690.946,6818.528,13690.124,6816.069,13692.613Z" fill="#834f1c" opacity="0.5"/>
          </g>
        </g>
        <g id="Grupo_984" data-name="Grupo 984">
          <path id="Trazado_1543" data-name="Trazado 1543" d="M6929.6,13607.315h0a23.531,23.531,0,0,0-23.532,23.531v8.47h.039v34.671a12.782,12.782,0,0,0,12.782,12.782h24.778a9.465,9.465,0,0,0,9.466-9.465v-46.458A23.531,23.531,0,0,0,6929.6,13607.315Z" fill="#5d3410"/>
          <path id="Trazado_1544" data-name="Trazado 1544" d="M6948.633,13755.206l-3.866,4.833s6.629,63.952,4.575,94.771a96.538,96.538,0,0,1-1.1,10.1l-8.242,10.952-7.914-2.285a50.057,50.057,0,0,1,2.285-5.688c1.686-2.108,2.756-3.1,2.756-14.989,0-14.5-.392-49.927-1.736-59.162-1.957-13.439-3.547-35.865-3.547-35.865l14.03-1.384Z" fill="#ebc291"/>
          <path id="Trazado_1545" data-name="Trazado 1545" d="M6929.908,13873.743c1.356-1.913,2.006-2.564,4.956-6.482h0c-.238.634-1.5,3-1.445,3.8.111,1.648,2.575,1.92,4.709,1.4,7.913-1.934,10.616-10.644,10.616-10.644.851,4.056.632,6.577-1.839,9.7s-7.461,7.037-13.626,7.469C6930.04,13879.208,6927.063,13877.756,6929.908,13873.743Z" fill="#3c3441"/>
          <path id="Trazado_1546" data-name="Trazado 1546" d="M6923.652,13678.282H6935.9v-19.854l-12.251.644Z" fill="#ebc291"/>
          <path id="Trazado_1547" data-name="Trazado 1547" d="M6923.652,13665.885a16.077,16.077,0,0,0,5.435,1.07,18.07,18.07,0,0,0,6.816-1.455v-7.071h-12.251Z" fill="#d7a079"/>
          <path id="Trazado_1548" data-name="Trazado 1548" d="M6930.356,13759.3l-5.612.865s4.664,81.418.5,104.743l-11.02,8.334-7.041-3.281.74-.211h0c.493-.431.68-1.926,1.358-2.456,2.035-1.59,4.849-2.5,4.849-14.4,0-14.5.011-50.5-1.333-59.737-1.956-13.439-3.951-35.29-3.951-35.29l14.031-1.384Z" fill="#ebc291"/>
          <path id="Trazado_1549" data-name="Trazado 1549" d="M6907.9,13869.763l-.045.04Z" fill="#636166"/>
          <path id="Trazado_1550" data-name="Trazado 1550" d="M6907.591,13870.039l-.033.029Z" fill="#636166"/>
          <path id="Trazado_1551" data-name="Trazado 1551" d="M6907.713,13869.931l-.035.032Z" fill="#636166"/>
          <path id="Trazado_1552" data-name="Trazado 1552" d="M6946.873,13760.422c0-.064,1.175-.4,1.137-.454l-2.3-3.129.193-.019a.339.339,0,0,0,.278-.209.335.335,0,0,0-.057-.343l-5.711-6.631a.334.334,0,0,0-.522.416l4.584,6.234-14.161.975c-.162.017.682.125.67.287a259.669,259.669,0,0,0,1.149,37.335c.921,8.687,4.657,43.355,4.657,58.014,0,1.229-.032,2.4-.1,3.473a.335.335,0,0,0,.046.189c.731,1.23,2.259,2.01,4.3,2.193q.48.042.969.043c2.941,0,6.045-1.142,7.52-2.835a.329.329,0,0,0,.082-.2C6951.781,13825.653,6946.91,13761.073,6946.873,13760.422Z" fill="#5f677a"/>
          <path id="Trazado_1553" data-name="Trazado 1553" d="M6930.474,13758.988l-7.484-2.814a.362.362,0,0,0-.151-.02l-14.03,1.384a.335.335,0,0,0-.3.308c-.017.224-.885,15.787,1.7,41.635.869,8.689,3.582,38.756,3.582,53.418,0,1.223-.032,2.391-.1,3.473a.338.338,0,0,0,.03.158,2.778,2.778,0,0,0,1.974,1.289,11.373,11.373,0,0,0,2.831.314c2.747,0,6.01-.71,7.946-2.12a.33.33,0,0,0,.137-.246c2.1-29.053-1.246-90.442-1.518-95.316l5.312-.819a.334.334,0,0,0,.067-.643Z" fill="#5f677a"/>
          <path id="Trazado_1554" data-name="Trazado 1554" d="M6910.231,13866.586c-3.284,2.322-5.629,4.064-5.629,4.064-2.4,1.843-2.522,4.339-.664,4.9,0,0,1.419.9,6.52.544,4.25-.293,8.238-2.484,14.044-5.954,3.481-2.08,2.342-6.4,1.249-8.734h0c.137.1-4.37,8.377-14.251,9.049-1.171.08-2.756-.314-2.62-1.8A4.05,4.05,0,0,1,6910.231,13866.586Z" fill="#3c3441"/>
          <path id="Trazado_1555" data-name="Trazado 1555" d="M6946.953,13740.166c-1.952-7.125-3.481-15.889-4.932-21.056q-.262-.936-.5-1.854a25.217,25.217,0,0,1,2.173-17.916c.069-.131.134-.262.2-.391-.293-8.433,1.861-16.65,2.269-25.177a14.849,14.849,0,0,0-1.647-1.071s-4.94-.981-8.609-1.7a10.786,10.786,0,0,1-7.667,4.514,3.875,3.875,0,0,1-4.562-4.3c-.911.173-6.2,1.852-6.2,1.852-2.217,1.3-3.387,3.854-4.412,7.958a15.963,15.963,0,0,1-3.118,6.145c-4.422,5.481-4.93,13.431,1.371,17.235.558.337,1.443,11.54,1.283,12.173-6.606,26.134-8.236,60.284-8.236,60.284s3.882,2.343,21.308,2.343c15.906,0,26.268-2.95,26.268-2.95S6952.89,13761.835,6946.953,13740.166Z" fill="#94ab2c"/>
          <path id="Trazado_1556" data-name="Trazado 1556" d="M6940,13641.217a6.569,6.569,0,0,0,5.442,7.728,6.972,6.972,0,0,0,8.056-5.377,6.569,6.569,0,0,0-5.441-7.728A6.972,6.972,0,0,0,6940,13641.217Z" fill="#ebc291"/>
          <path id="Trazado_1557" data-name="Trazado 1557" d="M6947.761,13646.66a4.421,4.421,0,0,1-.751-.065,4.168,4.168,0,0,1-3.395-4.939,4.41,4.41,0,0,1,4.321-3.531,4.339,4.339,0,0,1,.752.066,4.165,4.165,0,0,1,3.394,4.938,4.412,4.412,0,0,1-4.321,3.531Z" fill="#d7a079"/>
          <path id="Trazado_1558" data-name="Trazado 1558" d="M6918.233,13641.217a6.569,6.569,0,0,1-5.442,7.728,6.972,6.972,0,0,1-8.056-5.377,6.571,6.571,0,0,1,5.442-7.728A6.97,6.97,0,0,1,6918.233,13641.217Z" fill="#ebc291"/>
          <path id="Trazado_1559" data-name="Trazado 1559" d="M6910.47,13646.66a4.412,4.412,0,0,1-4.321-3.531,4.167,4.167,0,0,1,3.4-4.938,4.339,4.339,0,0,1,.752-.066,4.41,4.41,0,0,1,4.32,3.53,4.167,4.167,0,0,1-3.4,4.94A4.416,4.416,0,0,1,6910.47,13646.66Z" fill="#d7a079"/>
          <path id="Trazado_1560" data-name="Trazado 1560" d="M6949.6,13643.927c0,11.546-11.358,20.354-20.513,20.354-8.193,0-20.515-8.808-20.515-20.354v-13.721c0-11.546,9.184-19.251,20.515-19.251s20.513,7.705,20.513,19.251Z" fill="#ebc291"/>
          <path id="Trazado_1561" data-name="Trazado 1561" d="M6921.332,13641.809c0,1.858-1.233,3.366-2.754,3.366s-2.753-1.508-2.753-3.366,1.232-3.366,2.753-3.366S6921.332,13639.95,6921.332,13641.809Z" fill="#452812"/>
          <path id="Trazado_1562" data-name="Trazado 1562" d="M6942.406,13641.809c0,1.858-1.232,3.366-2.753,3.366s-2.754-1.508-2.754-3.366,1.234-3.365,2.754-3.365S6942.406,13639.951,6942.406,13641.809Z" fill="#452812"/>
          <path id="Trazado_1563" data-name="Trazado 1563" d="M6943.738,13635.616a5.533,5.533,0,0,0-4-1.652,6.069,6.069,0,0,0-4.173,1.652,1.1,1.1,0,0,0,.776,1.869h0a1.09,1.09,0,0,0,.774-.322,3.808,3.808,0,0,1,2.623-1.008,3.393,3.393,0,0,1,2.448,1.008,1.121,1.121,0,0,0,1.548,0,1.092,1.092,0,0,0,0-1.549Z" fill="#5d3410"/>
          <path id="Trazado_1564" data-name="Trazado 1564" d="M6918.491,13633.964a5.54,5.54,0,0,0-4,1.652,1.1,1.1,0,0,0,0,1.55,1.123,1.123,0,0,0,1.549,0,3.393,3.393,0,0,1,2.449-1.008,3.8,3.8,0,0,1,2.622,1.008,1.094,1.094,0,0,0,.774.322h0a1.1,1.1,0,0,0,.775-1.869A6.065,6.065,0,0,0,6918.491,13633.964Z" fill="#5d3410"/>
          <path id="Trazado_1565" data-name="Trazado 1565" d="M6936.9,13622.349c-9.613,9.475-24.207,7.309-28.108,17.354,0,0-2.06-2.112-2.6-7.429-.856-8.431,12.388-24.29,22.925-24.29,17.12,0,24.507,14.2,22.489,29.634l-1.742.825S6940.284,13632.346,6936.9,13622.349Z" fill="#5d3410"/>
          <path id="Trazado_1566" data-name="Trazado 1566" d="M6930.9,13869.763l-.046.04Z" fill="#636166"/>
          <path id="Trazado_1567" data-name="Trazado 1567" d="M6930.587,13870.039l-.033.029Z" fill="#636166"/>
          <path id="Trazado_1568" data-name="Trazado 1568" d="M6930.71,13869.931l-.036.032Z" fill="#636166"/>
          <path id="Trazado_1569" data-name="Trazado 1569" d="M6935.558,13653.8c-2.757,6.437-11.446,4.579-12.909.048a.492.492,0,0,1,.444-.687l12.108-.01C6935.535,13653.147,6935.709,13653.446,6935.558,13653.8Z" fill="#fff"/>
          <path id="Trazado_1570" data-name="Trazado 1570" d="M6930.427,13689.344c0,2.127-1.084,3.77.765,3.77,1.443,0,3.129-1.517,4.013-2.541a3.083,3.083,0,0,0,.851-1.609c.031-.715-.428-.8-.969-.39.646-.751,1.342-1.841.958-2.889-.524-.081-1.145.52-1.456.885.2-.535.718-1.782.437-2.352-.406-.819-1.356.306-1.692.74-.222.286-.377.711-.809.658-.29-.035-.394-.428-.656-.55-.886-.415-.846.9-.923,1.4A18.222,18.222,0,0,0,6930.427,13689.344Z" fill="#f1cb9a"/>
          <path id="Trazado_1571" data-name="Trazado 1571" d="M6901.952,13703.917a20.983,20.983,0,0,1-.231-14.917,30.8,30.8,0,0,1,14.162-.344c6.3,1.5,11.283-.861,14.631-2.066,1.541-.555,2.809.758,3.166,2.1a6.068,6.068,0,0,1-.22,3.259c-5.193,6.639-14.121,6.218-14.121,6.218a9.376,9.376,0,0,1,1.358,5.083.32.32,0,0,0-.143.2,4.3,4.3,0,0,1-.6,1.26c-.236.361.268.691.553.447l-.016.075c5.881-4.638,13.582-.509,13.793,6.829.171,5.918-4.121,10.077-6.5,11.922-4.176-2.355-9.642-2.191-14.27-2.194a1.691,1.691,0,0,0-.953,3.049c-2-.437.881.577-1.7-1.1C6903.235,13718.778,6904.54,13710.58,6901.952,13703.917Z" fill="#d0f6ff"/>
          <path id="Trazado_1572" data-name="Trazado 1572" d="M6920.991,13676.1l-3.64-9.447c-2.33-6.608-10.219-7.871-14.668-7.152-8.415,1.526-13.246,8.509-11.78,16.586l.43,2.372c.034.189.075.376.115.562a4.869,4.869,0,0,0-.679,6.8,4.986,4.986,0,0,0,5.6,1.816,13.981,13.981,0,0,0,12.05,3.493C6917.408,13689.537,6923.7,13685.663,6920.991,13676.1Z" fill="#ebc291"/>
          <path id="Trazado_1573" data-name="Trazado 1573" d="M6902.612,13659.1c5.408-.98,9.828.87,11.917,3.063,1.6,1.444,2.406,4.25-.718,5.717a4.551,4.551,0,0,1-3.2.207,2.4,2.4,0,0,1,.014.653,2.813,2.813,0,0,1-1.628,2.21,7.206,7.206,0,0,1-6.548-.466,3.22,3.22,0,0,1-1.723,2.587,7.465,7.465,0,0,1-3.686.924h0a5.3,5.3,0,0,1-5.72-5.526C6892.123,13663.611,6896.917,13660.136,6902.612,13659.1Z" fill="#ba844a"/>
          <path id="Trazado_1574" data-name="Trazado 1574" d="M6908.14,13684.694c.554,2.124,3.327,3.238,6.2,2.491s4.748-3.073,4.195-5.2-3.328-3.24-6.2-2.493S6907.587,13682.57,6908.14,13684.694Z" fill="#d0f6ff"/>
          <path id="Trazado_1575" data-name="Trazado 1575" d="M6910.853,13684.112c.315,1.21,1.9,1.845,3.529,1.419s2.7-1.751,2.388-2.961-1.894-1.846-3.529-1.419S6910.537,13682.9,6910.853,13684.112Z" fill="#bce4f1"/>
          <path id="Trazado_1576" data-name="Trazado 1576" d="M6912.731,13684.283a1.538,1.538,0,0,1-.291-1.312c.294-1.392,2.224-2.018,3.5-2.018a2.266,2.266,0,0,1,1.849.711,1.556,1.556,0,0,1,.278,1.339,3.09,3.09,0,0,1-2.768,2,4.211,4.211,0,0,1-.536.033h0A2.642,2.642,0,0,1,6912.731,13684.283Zm3.207-1.724a2.78,2.78,0,0,0-1.96.708,1.406,1.406,0,0,0,.782.161h0a2.834,2.834,0,0,0,.337-.02,1.774,1.774,0,0,0,1.393-.762A1.394,1.394,0,0,0,6915.938,13682.56Z" fill="#fff"/>
          <path id="Trazado_1577" data-name="Trazado 1577" d="M6917.193,13711.806c.046.074-.069-.05,0,0a8.481,8.481,0,0,0,.426-1.674,9.563,9.563,0,0,1,2.63-4.672c.328-.3.24-.374.353-1.138a8.573,8.573,0,0,0,.1-1.124c-1.377.819-3.416,4.3-3.659,6.329A4.54,4.54,0,0,0,6917.193,13711.806Z" fill="#bce4f1"/>
          <path id="Trazado_1578" data-name="Trazado 1578" d="M6900.092,13685.107a2.206,2.206,0,1,0,1.271-2.405A1.953,1.953,0,0,0,6900.092,13685.107Z" fill="#e29879"/>
          <path id="Trazado_1579" data-name="Trazado 1579" d="M6917.655,13678.216a1.471,1.471,0,1,0,1.027-1.911A1.539,1.539,0,0,0,6917.655,13678.216Z" fill="#e29879"/>
          <path id="Trazado_1580" data-name="Trazado 1580" d="M6902.5,13681.255a5.7,5.7,0,0,1-2.233-.449.73.73,0,0,1,.586-1.338h0a3.686,3.686,0,0,0,4.652-1.408.731.731,0,1,1,1.251.756A4.783,4.783,0,0,1,6902.5,13681.255Z" fill="#834f1c"/>
          <path id="Trazado_1581" data-name="Trazado 1581" d="M6915.265,13676.992a3.851,3.851,0,0,1-1.831-.485.73.73,0,0,1,.751-1.253,2.193,2.193,0,0,0,1.594.2,2.6,2.6,0,0,0,1.434-1.566.73.73,0,0,1,1.337.589,3.944,3.944,0,0,1-2.342,2.373A3.106,3.106,0,0,1,6915.265,13676.992Z" fill="#834f1c"/>
          <path id="Trazado_1582" data-name="Trazado 1582" d="M6895.4,13685.88a5.515,5.515,0,0,1-2.4-3.7c-.116-1.3-.5-1.315-.8-1.055A3.085,3.085,0,0,0,6895.4,13685.88Z" fill="#d7a079"/>
          <path id="Trazado_1583" data-name="Trazado 1583" d="M6954.345,13709.45c-.052-1.155.126-14.09-.154-21.806-.25-6.867-3.377-12.83-9.679-14.942-5.362,6.508-4.355,16.436-1.118,23.04a155.784,155.784,0,0,1-.06,16.722,3.23,3.23,0,0,1-2.09,2.735,99.157,99.157,0,0,1-14.194,3.761,2.446,2.446,0,0,0-.279.073,2.183,2.183,0,0,1-2.277-.5c-1.4-1.466-2.637-3.155-5.456-4.038a19.658,19.658,0,0,0-2.5-.429c-.471-.082-2.772-.226-3.422-.217-.733.01-1.789-.084-2.307.52-.609.711.222,1.646.964,1.922.477.18,5.639.672,5.459,1.709-.2,1.14-2.795.6-3.53.483-1-.153-4.814-.763-5.759-.941-.659-.123-2.312-.774-2.73.189-.412.948.935,1.314,1.432,1.972.455.6.341,1.238.66,1.738,2.756,4.329,6.056,5.776,10.724,6.46,2.944.43,12.924,1.723,30.517-2.994C6954.191,13723.351,6954.473,13712.335,6954.345,13709.45Z" fill="#ebc291"/>
          <path id="Trazado_1584" data-name="Trazado 1584" d="M6899.043,13698.326c.173.952.153,1.571,1.006,1.705,1.1.173,1.617.625,1.467-1.778-.11-1.767-.836-2.637-1.686-2.032A2.265,2.265,0,0,0,6899.043,13698.326Z" fill="#ebc291"/>
          <path id="Trazado_1585" data-name="Trazado 1585" d="M6902.443,13702.992c2.965-1.963-.224-4.939-2.816-3.5-.749.416-1.435,2.406-.708,5.845.308,1.455,1.087,5.559,2.941,5.864,2.924.479,3.322-2.867,1.008-3.932C6905.578,13706.138,6904.543,13703.025,6902.443,13702.992Z" fill="#ebc291"/>
        </g>
      </g>
    </g>
    <circle id="Elipse_97" data-name="Elipse 97" cx="98.333" cy="98.333" r="98.333" transform="translate(626.832 5054.234)" fill="none" stroke="#a3bd31" stroke-miterlimit="10" stroke-width="6"/>
  </g>
</svg>
