<svg xmlns="http://www.w3.org/2000/svg" xmlns:xlink="http://www.w3.org/1999/xlink" width="152.443" height="152.443" viewBox="0 0 152.443 152.443">
  <defs>
    <clipPath id="clip-path">
      <circle id="Elipse_198" data-name="Elipse 198" cx="65.13" cy="65.13" r="65.13" transform="translate(4890.408 988.297)" fill="none"/>
    </clipPath>
    <clipPath id="clip-path-2">
      <path id="Trazado_2735" data-name="Trazado 2735" d="M4949.58,1049.564l-5.853-2.7.226-9.143-9.5-.207-.225,9.143-5.979,2.387s-1.234,6.791,10.486,7.672C4950.479,1056.408,4949.58,1049.564,4949.58,1049.564Z" fill="none"/>
    </clipPath>
    <clipPath id="clip-path-3">
      <path id="Trazado_2868" data-name="Trazado 2868" d="M4997.12,1064.679l-4.088-1.888-.112-6.53h-6.411l-.112,6.385-4.175,1.667s-.862,4.742,7.321,5.358C4997.748,1069.459,4997.12,1064.679,4997.12,1064.679Z" fill="none"/>
    </clipPath>
    <clipPath id="clip-path-4">
      <path id="Trazado_2928" data-name="Trazado 2928" d="M4989.848,1034.467c-8.286,0-15.641,1.647-20.247,4.19v24.792h40.5v-24.792C5005.491,1036.114,4998.136,1034.467,4989.848,1034.467Z" fill="none"/>
    </clipPath>
  </defs>
  <g id="Grupo_4783" data-name="Grupo 4783" transform="translate(-276.751 -976.608)">
    <path id="Trazado_2691" data-name="Trazado 2691" d="M4955.538,977.205q3.744,0,7.471.367t7.4,1.1q3.672.73,7.256,1.817t7.042,2.52q3.461,1.434,6.762,3.2t6.416,3.846q3.114,2.08,6.008,4.456t5.542,5.023q2.649,2.647,5.024,5.542t4.456,6.008q2.079,3.114,3.845,6.416t3.2,6.762q1.434,3.459,2.52,7.043t1.818,7.256q.731,3.672,1.1,7.4t.367,7.471q0,3.744-.367,7.471t-1.1,7.4q-.73,3.672-1.818,7.256t-2.52,7.043q-1.433,3.459-3.2,6.762t-3.845,6.415q-2.081,3.114-4.456,6.008t-5.024,5.542q-2.648,2.649-5.542,5.024t-6.008,4.456q-3.112,2.08-6.416,3.845t-6.762,3.2q-3.459,1.434-7.042,2.52t-7.256,1.818q-3.674.731-7.4,1.1t-7.471.367q-3.746,0-7.471-.367t-7.4-1.1q-3.673-.73-7.256-1.818t-7.043-2.52q-3.459-1.432-6.762-3.2t-6.416-3.845q-3.112-2.08-6.008-4.456t-5.542-5.024q-2.648-2.646-5.023-5.542t-4.456-6.008q-2.081-3.112-3.846-6.415t-3.2-6.762q-1.433-3.461-2.52-7.043t-1.817-7.256q-.73-3.672-1.1-7.4t-.367-7.471q0-3.744.367-7.471t1.1-7.4q.731-3.673,1.817-7.256t2.52-7.043q1.433-3.459,3.2-6.762t3.846-6.416q2.08-3.113,4.456-6.008t5.023-5.542q2.647-2.648,5.542-5.023t6.008-4.456q3.114-2.081,6.416-3.846t6.762-3.2q3.458-1.433,7.043-2.52t7.256-1.817q3.672-.73,7.4-1.1T4955.538,977.205Z" transform="translate(-4602.564 -0.597)" fill="#a3bd31"/>
    <circle id="Elipse_193" data-name="Elipse 193" cx="71.597" cy="71.597" r="71.597" transform="translate(281.377 981.234)" fill="#fff"/>
    <g id="Grupo_1832" data-name="Grupo 1832" transform="translate(-4602.564 -0.597)">
      <g id="Grupo_1831" data-name="Grupo 1831" clip-path="url(#clip-path)">
        <g id="Grupo_1830" data-name="Grupo 1830">
          <g id="Grupo_1728" data-name="Grupo 1728">
            <g id="Grupo_1726" data-name="Grupo 1726">
              <g id="Grupo_1648" data-name="Grupo 1648">
                <path id="Trazado_2698" data-name="Trazado 2698" d="M4952.443,1048.883a1.078,1.078,0,0,1-1.326.689c-.652-.11-1.111-.595-1.029-1.084a1.08,1.08,0,0,1,1.327-.688C4952.065,1047.909,4952.526,1048.394,4952.443,1048.883Z" fill="#d6a226"/>
              </g>
              <g id="Grupo_1649" data-name="Grupo 1649">
                <path id="Trazado_2699" data-name="Trazado 2699" d="M4925.931,1048.883a1.078,1.078,0,0,0,1.326.689c.652-.11,1.112-.595,1.03-1.084a1.08,1.08,0,0,0-1.327-.688C4926.31,1047.909,4925.849,1048.394,4925.931,1048.883Z" fill="#d6a226"/>
              </g>
              <g id="Grupo_1650" data-name="Grupo 1650">
                <path id="Trazado_2700" data-name="Trazado 2700" d="M4922.561,1158.154a37.34,37.34,0,0,1-5.719,5.211c-2.542,1.653-9.024,5.847-4.067,8.643s20.6-7.468,20.6-7.468Z"/>
              </g>
              <g id="Grupo_1651" data-name="Grupo 1651">
                <path id="Trazado_2701" data-name="Trazado 2701" d="M4955.479,1158.154a37.367,37.367,0,0,0,5.72,5.211c2.542,1.653,9.024,5.847,4.067,8.643s-20.606-7.468-20.606-7.468Z"/>
              </g>
              <g id="Grupo_1652" data-name="Grupo 1652">
                <path id="Trazado_2702" data-name="Trazado 2702" d="M4956.623,1139.089c-.32-10.107-.3-20.6-.882-27.154,1.307-5.567-1.041-16.7-1.041-16.7h-31.359s-2.348,11.132-1.042,16.7c-.583,6.549-.561,17.047-.882,27.154-.044,1.382-1.858,22.02-1.858,22.02a13.575,13.575,0,0,1,2.335-.144c2.537.3,8.563,2.762,11.226,3.766,1.325.5,1.4-2.645,1.4-2.645l3.2-50.736h2.607l3.2,50.736s.072,3.145,1.4,2.645c2.664-1,8.689-3.47,11.227-3.766a13.575,13.575,0,0,1,2.335.144S4956.667,1140.471,4956.623,1139.089Z" fill="#3a4f12"/>
              </g>
              <g id="Grupo_1655" data-name="Grupo 1655">
                <g id="Grupo_1653" data-name="Grupo 1653">
                  <path id="Trazado_2703" data-name="Trazado 2703" d="M4921.327,1160.95a4.2,4.2,0,0,1,.567.015c.144.017.3.043.468.073l1.664-22.561Z" fill="#193306"/>
                </g>
                <g id="Grupo_1654" data-name="Grupo 1654">
                  <path id="Trazado_2704" data-name="Trazado 2704" d="M4955.276,1161.122c.318-.07.616-.127.871-.157.048-.005.1-.009.158-.013l-2.7-22.475Z" fill="#193306"/>
                </g>
              </g>
              <g id="Grupo_1658" data-name="Grupo 1658">
                <g id="Grupo_1657" data-name="Grupo 1657">
                  <g id="Grupo_1656" data-name="Grupo 1656" clip-path="url(#clip-path-2)">
                    <path id="Trazado_2705" data-name="Trazado 2705" d="M4927.011,1056.425l11.72.287h-11.72Z" fill="#dbb69e"/>
                    <path id="Trazado_2706" data-name="Trazado 2706" d="M4927.011,1055.742l23.468.575v.4h-11.749l-11.72-.287Z" fill="#dbb69e"/>
                    <path id="Trazado_2707" data-name="Trazado 2707" d="M4927.011,1055.059l23.468.575v.683l-23.468-.575Z" fill="#dab59d"/>
                    <path id="Trazado_2708" data-name="Trazado 2708" d="M4927.011,1054.376l23.468.575v.683l-23.468-.575Z" fill="#dab49c"/>
                    <path id="Trazado_2709" data-name="Trazado 2709" d="M4927.011,1053.693l23.468.575v.683l-23.468-.575Z" fill="#d9b49b"/>
                    <path id="Trazado_2710" data-name="Trazado 2710" d="M4927.011,1053.01l23.468.575v.683l-23.468-.575Z" fill="#d9b39a"/>
                    <path id="Trazado_2711" data-name="Trazado 2711" d="M4927.011,1052.839l.012-.512,23.456.575v.683l-23.468-.575Z" fill="#d9b299"/>
                    <path id="Trazado_2712" data-name="Trazado 2712" d="M4927.023,1052.328l.017-.683,23.439.574v.683Z" fill="#d9b198"/>
                    <path id="Trazado_2713" data-name="Trazado 2713" d="M4927.041,1051.645l.017-.682,23.422.574v.683Z" fill="#d8af97"/>
                    <path id="Trazado_2714" data-name="Trazado 2714" d="M4927.057,1050.962l.017-.683,23.406.574v.683Z" fill="#d7ae96"/>
                    <path id="Trazado_2715" data-name="Trazado 2715" d="M4927.074,1050.28l.017-.683,23.389.573v.683Z" fill="#d7ae95"/>
                    <path id="Trazado_2716" data-name="Trazado 2716" d="M4927.09,1049.6l.017-.682,23.372.573v.683Z" fill="#d7ad94"/>
                    <path id="Trazado_2717" data-name="Trazado 2717" d="M4927.107,1048.915l.017-.683,23.355.572v.683Z" fill="#d7ac93"/>
                    <path id="Trazado_2718" data-name="Trazado 2718" d="M4927.124,1048.232l.017-.682,23.339.572v.683Z" fill="#d6ab92"/>
                    <path id="Trazado_2719" data-name="Trazado 2719" d="M4927.141,1047.55l.017-.683,23.322.572v.683Z" fill="#d6aa91"/>
                    <path id="Trazado_2720" data-name="Trazado 2720" d="M4927.157,1046.867l.017-.683,23.305.571v.683Z" fill="#d6aa8f"/>
                    <path id="Trazado_2721" data-name="Trazado 2721" d="M4927.174,1046.184l.017-.682,23.289.571v.683Z" fill="#d5a98e"/>
                    <path id="Trazado_2722" data-name="Trazado 2722" d="M4927.191,1045.5l.017-.683,23.272.57v.683Z" fill="#d4a88d"/>
                    <path id="Trazado_2723" data-name="Trazado 2723" d="M4927.208,1044.819l.017-.683,23.255.57v.683Z" fill="#d4a78c"/>
                    <path id="Trazado_2724" data-name="Trazado 2724" d="M4927.224,1044.137l.017-.682,23.238.569v.683Z" fill="#d4a68b"/>
                    <path id="Trazado_2725" data-name="Trazado 2725" d="M4927.241,1043.454l.017-.683,23.222.569v.683Z" fill="#d4a68a"/>
                    <path id="Trazado_2726" data-name="Trazado 2726" d="M4927.258,1042.771l.017-.682,23.205.569v.683Z" fill="#d4a589"/>
                    <path id="Trazado_2727" data-name="Trazado 2727" d="M4927.274,1042.089l.017-.683,23.188.568v.683Z" fill="#d3a488"/>
                    <path id="Trazado_2728" data-name="Trazado 2728" d="M4927.291,1041.406l.017-.683,23.171.568v.683Z" fill="#d3a387"/>
                    <path id="Trazado_2729" data-name="Trazado 2729" d="M4927.308,1040.724l.017-.682,23.155.567v.683Z" fill="#d2a286"/>
                    <path id="Trazado_2730" data-name="Trazado 2730" d="M4927.325,1040.041l.017-.683,23.138.567v.683Z" fill="#d2a285"/>
                    <path id="Trazado_2731" data-name="Trazado 2731" d="M4927.341,1039.359l.017-.682,23.122.567v.683Z" fill="#d1a284"/>
                    <path id="Trazado_2732" data-name="Trazado 2732" d="M4927.358,1038.676l.017-.683,23.1.566v.683Z" fill="#d1a183"/>
                    <path id="Trazado_2733" data-name="Trazado 2733" d="M4927.375,1037.994l.012-.483h8.134l14.958.367v.683Z" fill="#d1a082"/>
                    <path id="Trazado_2734" data-name="Trazado 2734" d="M4950.479,1037.877l-14.958-.367h14.958Z" fill="#d1a082"/>
                  </g>
                </g>
              </g>
              <g id="Grupo_1659" data-name="Grupo 1659">
                <rect id="Rectángulo_880" data-name="Rectángulo 880" width="14.263" height="24.471" transform="translate(4932.034 1047.792)" fill="#fff"/>
              </g>
              <g id="Grupo_1660" data-name="Grupo 1660">
                <path id="Trazado_2736" data-name="Trazado 2736" d="M4940.433,1052.642l1.664-4.563h-6.081l1.665,4.563-2.534,19.041,3.91,6.44,3.91-6.44Z" fill="#3e5a6d"/>
              </g>
              <g id="Grupo_1661" data-name="Grupo 1661">
                <path id="Trazado_2737" data-name="Trazado 2737" d="M4932.74,1043.99l6.3,4.018-4.669,6.3-4.128-6.625Z" fill="#fff"/>
                <path id="Trazado_2738" data-name="Trazado 2738" d="M4934.369,1054.579h-.011a.268.268,0,0,1-.219-.128l-4.128-6.625a.271.271,0,0,1,0-.3l2.5-3.692a.272.272,0,0,1,.371-.077l6.3,4.018a.27.27,0,0,1,.121.18.276.276,0,0,1-.048.211l-4.67,6.3A.27.27,0,0,1,4934.369,1054.579Zm-3.8-6.89,3.824,6.137,4.258-5.745-5.831-3.72Z" fill="#bfbfbf"/>
              </g>
              <g id="Grupo_1662" data-name="Grupo 1662">
                <path id="Trazado_2739" data-name="Trazado 2739" d="M4945.519,1043.99l-6.3,4.018,4.67,6.3,4.127-6.625Z" fill="#fff"/>
                <path id="Trazado_2740" data-name="Trazado 2740" d="M4943.89,1054.579a.271.271,0,0,1-.218-.109l-4.67-6.3a.272.272,0,0,1,.072-.391l6.3-4.018a.272.272,0,0,1,.371.077l2.5,3.692a.274.274,0,0,1,.006.3l-4.128,6.625a.266.266,0,0,1-.219.128Zm-4.278-6.5,4.259,5.745,3.822-6.137-2.251-3.328Z" fill="#bfbfbf"/>
              </g>
              <g id="Grupo_1663" data-name="Grupo 1663">
                <path id="Trazado_2741" data-name="Trazado 2741" d="M4957.973,1049.528l-8.688-1.411-1.955-2.281-8.218,21.977-8.219-21.977-1.955,2.281-8.688,1.411,3.041,34.754-2.334,20.795,15.259,1.086,2.9-4.687,2.9,4.688,14.951-1.086-2.027-20.795Z" fill="#3a4f12"/>
              </g>
              <g id="Grupo_1664" data-name="Grupo 1664">
                <path id="Trazado_2742" data-name="Trazado 2742" d="M4940.778,1081.3a1.71,1.71,0,1,1-1.711-1.711A1.711,1.711,0,0,1,4940.778,1081.3Z" fill="#d6a226"/>
              </g>
              <g id="Grupo_1665" data-name="Grupo 1665">
                <path id="Trazado_2743" data-name="Trazado 2743" d="M4940.778,1071.323a1.71,1.71,0,1,1-1.711-1.71A1.711,1.711,0,0,1,4940.778,1071.323Z" fill="#d6a226"/>
              </g>
              <g id="Grupo_1666" data-name="Grupo 1666">
                <path id="Trazado_2744" data-name="Trazado 2744" d="M4940.778,1091.279a1.71,1.71,0,1,1-1.711-1.711A1.711,1.711,0,0,1,4940.778,1091.279Z" fill="#d6a226"/>
              </g>
              <g id="Grupo_1667" data-name="Grupo 1667">
                <path id="Trazado_2745" data-name="Trazado 2745" d="M4937.961,1052.651l1.549.163-.382,3.2-.353-2.878Z" fill="#213b53"/>
              </g>
              <g id="Grupo_1668" data-name="Grupo 1668">
                <path id="Trazado_2746" data-name="Trazado 2746" d="M4928.412,1091.235l-5.835-.8.089-.646,5.242.719.616-2.728-5.278-.713.087-.646,5.982.808Z" fill="#193306"/>
              </g>
              <g id="Grupo_1669" data-name="Grupo 1669">
                <path id="Trazado_2747" data-name="Trazado 2747" d="M4949.72,1091.235l-.9-4.005,5.982-.808.087.646-5.276.713.616,2.728,5.243-.719.088.646Z" fill="#193306"/>
              </g>
              <g id="Grupo_1670" data-name="Grupo 1670">
                <path id="Trazado_2748" data-name="Trazado 2748" d="M4941.774,1106.722l-2.665-4.6-2.679,4.544-15.515-1.1.046-.65,15.112,1.071,3.041-5.157,3.018,5.21,14.674-1.179.052.65Z" fill="#193306"/>
              </g>
              <g id="Grupo_1673" data-name="Grupo 1673">
                <g id="Grupo_1671" data-name="Grupo 1671">
                  <path id="Trazado_2749" data-name="Trazado 2749" d="M4938.86,1068.237l-11.44-11.1,3.279-2.355-4.588-.219,2.576-6.482.574.228-2.256,5.677,5.5.262-4.12,2.959,10.91,10.584Z" fill="#193306"/>
                </g>
                <g id="Grupo_1672" data-name="Grupo 1672">
                  <path id="Trazado_2750" data-name="Trazado 2750" d="M4939.4,1068.237l-.43-.444,10.911-10.584-4.121-2.959,5.5-.262L4949,1048.31l.575-.228,2.575,6.482-4.588.219,3.28,2.355Z" fill="#193306"/>
                </g>
              </g>
              <g id="Grupo_1691" data-name="Grupo 1691">
                <g id="Grupo_1676" data-name="Grupo 1676">
                  <g id="Grupo_1674" data-name="Grupo 1674">
                    <path id="Trazado_2751" data-name="Trazado 2751" d="M4952.177,1028.89s2.7-3.389,4.657-1.752,1.872,9.191-5.156,9.515C4951.928,1030.973,4952.177,1028.89,4952.177,1028.89Z" fill="#e9c3aa"/>
                  </g>
                  <g id="Grupo_1675" data-name="Grupo 1675">
                    <path id="Trazado_2752" data-name="Trazado 2752" d="M4952,1030.807s2.337-2.93,3.583-1.891.569,6.014-3.9,6.22A37.126,37.126,0,0,1,4952,1030.807Z" fill="#ca9b80"/>
                  </g>
                </g>
                <g id="Grupo_1679" data-name="Grupo 1679">
                  <g id="Grupo_1677" data-name="Grupo 1677">
                    <path id="Trazado_2753" data-name="Trazado 2753" d="M4925.906,1028.864s-2.695-3.392-4.655-1.761-1.89,9.193,5.138,9.524C4926.148,1030.949,4925.906,1028.864,4925.906,1028.864Z" fill="#e9c3aa"/>
                  </g>
                  <g id="Grupo_1678" data-name="Grupo 1678">
                    <path id="Trazado_2754" data-name="Trazado 2754" d="M4926.082,1030.784s-2.332-2.936-3.581-1.9-.578,6.011,3.889,6.224A36.67,36.67,0,0,0,4926.082,1030.784Z" fill="#ca9b80"/>
                  </g>
                </g>
                <g id="Grupo_1680" data-name="Grupo 1680">
                  <path id="Trazado_2755" data-name="Trazado 2755" d="M4939.072,1044.292c3.677,0,9.993-2.809,11.894-5.505s2.149-18.436,2.149-18.436c0-4.965-4.83-11.894-13.84-11.9l-.306,0c-9.008-.008-13.855,6.913-13.858,11.876,0,0,.12,15.744,2.016,18.441s8.208,5.524,11.884,5.528Z" fill="#e9c3aa"/>
                </g>
                <g id="Grupo_1681" data-name="Grupo 1681">
                  <path id="Trazado_2756" data-name="Trazado 2756" d="M4934.223,1026.587c-.03,1.176-.749,2.114-1.6,2.092s-1.517-.995-1.485-2.171.74-2.115,1.587-2.088S4934.254,1025.408,4934.223,1026.587Z" fill="#402615"/>
                </g>
                <g id="Grupo_1683" data-name="Grupo 1683">
                  <g id="Grupo_1682" data-name="Grupo 1682">
                    <path id="Trazado_2757" data-name="Trazado 2757" d="M4945.195,1034.521a3.263,3.263,0,1,0,3.218-2.7A2.992,2.992,0,0,0,4945.195,1034.521Z" fill="#e9c3aa"/>
                    <path id="Trazado_2758" data-name="Trazado 2758" d="M4948.413,1031.868a2.694,2.694,0,1,0,3.151,2.659A2.937,2.937,0,0,0,4948.413,1031.868Z" fill="#e8c2aa"/>
                    <path id="Trazado_2759" data-name="Trazado 2759" d="M4948.413,1031.921a2.642,2.642,0,1,0,3.089,2.606A2.878,2.878,0,0,0,4948.413,1031.921Z" fill="#e8c1a9"/>
                    <path id="Trazado_2760" data-name="Trazado 2760" d="M4948.413,1031.973a2.589,2.589,0,1,0,3.027,2.554A2.82,2.82,0,0,0,4948.413,1031.973Z" fill="#e8c0a9"/>
                    <path id="Trazado_2761" data-name="Trazado 2761" d="M4948.413,1032.025a2.536,2.536,0,1,0,2.966,2.5A2.763,2.763,0,0,0,4948.413,1032.025Z" fill="#e7bfa8"/>
                    <path id="Trazado_2762" data-name="Trazado 2762" d="M4948.413,1032.077a2.483,2.483,0,1,0,2.9,2.45A2.705,2.705,0,0,0,4948.413,1032.077Z" fill="#e7bea8"/>
                    <path id="Trazado_2763" data-name="Trazado 2763" d="M4948.413,1032.129a2.43,2.43,0,1,0,2.842,2.4A2.647,2.647,0,0,0,4948.413,1032.129Z" fill="#e6bda7"/>
                    <path id="Trazado_2764" data-name="Trazado 2764" d="M4948.413,1032.181a2.378,2.378,0,1,0,2.78,2.346A2.591,2.591,0,0,0,4948.413,1032.181Z" fill="#e6bca6"/>
                    <path id="Trazado_2765" data-name="Trazado 2765" d="M4948.413,1032.233a2.325,2.325,0,1,0,2.719,2.294A2.533,2.533,0,0,0,4948.413,1032.233Z" fill="#e6bba5"/>
                    <path id="Trazado_2766" data-name="Trazado 2766" d="M4948.413,1032.285a2.272,2.272,0,1,0,2.657,2.242A2.475,2.475,0,0,0,4948.413,1032.285Z" fill="#e6baa5"/>
                    <path id="Trazado_2767" data-name="Trazado 2767" d="M4948.412,1032.337a2.219,2.219,0,1,0,2.6,2.19A2.418,2.418,0,0,0,4948.412,1032.337Z" fill="#e5b9a4"/>
                    <path id="Trazado_2768" data-name="Trazado 2768" d="M4948.412,1032.389a2.167,2.167,0,1,0,2.534,2.138A2.36,2.36,0,0,0,4948.412,1032.389Z" fill="#e5b9a4"/>
                    <path id="Trazado_2769" data-name="Trazado 2769" d="M4948.412,1032.441a2.114,2.114,0,1,0,2.473,2.086A2.3,2.3,0,0,0,4948.412,1032.441Z" fill="#e4b8a4"/>
                    <path id="Trazado_2770" data-name="Trazado 2770" d="M4948.412,1032.493a2.061,2.061,0,1,0,2.411,2.034A2.245,2.245,0,0,0,4948.412,1032.493Z" fill="#e4b7a3"/>
                    <path id="Trazado_2771" data-name="Trazado 2771" d="M4948.412,1032.545a2.008,2.008,0,1,0,2.349,1.982A2.187,2.187,0,0,0,4948.412,1032.545Z" fill="#e4b6a3"/>
                    <path id="Trazado_2772" data-name="Trazado 2772" d="M4948.412,1032.6a1.956,1.956,0,1,0,2.287,1.93A2.129,2.129,0,0,0,4948.412,1032.6Z" fill="#e4b5a2"/>
                    <path id="Trazado_2773" data-name="Trazado 2773" d="M4948.412,1032.649a1.9,1.9,0,1,0,2.225,1.877A2.073,2.073,0,0,0,4948.412,1032.649Z" fill="#e4b4a2"/>
                    <path id="Trazado_2774" data-name="Trazado 2774" d="M4948.412,1032.7a1.85,1.85,0,1,0,2.164,1.825A2.014,2.014,0,0,0,4948.412,1032.7Z" fill="#e3b3a1"/>
                    <path id="Trazado_2775" data-name="Trazado 2775" d="M4948.412,1032.753a1.8,1.8,0,1,0,2.1,1.773A1.956,1.956,0,0,0,4948.412,1032.753Z" fill="#e3b2a1"/>
                    <path id="Trazado_2776" data-name="Trazado 2776" d="M4948.412,1032.805a1.744,1.744,0,1,0,2.04,1.721A1.9,1.9,0,0,0,4948.412,1032.805Z" fill="#e2b1a0"/>
                    <path id="Trazado_2777" data-name="Trazado 2777" d="M4948.412,1032.857a1.692,1.692,0,1,0,1.978,1.669A1.842,1.842,0,0,0,4948.412,1032.857Z" fill="#e2afa0"/>
                    <path id="Trazado_2778" data-name="Trazado 2778" d="M4948.411,1032.909a1.639,1.639,0,1,0,1.918,1.617A1.784,1.784,0,0,0,4948.411,1032.909Z" fill="#e2ae9f"/>
                    <path id="Trazado_2779" data-name="Trazado 2779" d="M4946.552,1034.522a1.885,1.885,0,1,0,1.859-1.561A1.729,1.729,0,0,0,4946.552,1034.522Z" fill="#e2ad9f"/>
                  </g>
                </g>
                <g id="Grupo_1685" data-name="Grupo 1685">
                  <g id="Grupo_1684" data-name="Grupo 1684">
                    <path id="Trazado_2780" data-name="Trazado 2780" d="M4926.53,1034.492a3.263,3.263,0,1,0,3.219-2.7A2.992,2.992,0,0,0,4926.53,1034.492Z" fill="#e9c3aa"/>
                    <path id="Trazado_2781" data-name="Trazado 2781" d="M4929.749,1031.839a2.694,2.694,0,1,0,3.15,2.659A2.936,2.936,0,0,0,4929.749,1031.839Z" fill="#e8c2aa"/>
                    <path id="Trazado_2782" data-name="Trazado 2782" d="M4929.748,1031.891a2.642,2.642,0,1,0,3.089,2.607A2.877,2.877,0,0,0,4929.748,1031.891Z" fill="#e8c1a9"/>
                    <path id="Trazado_2783" data-name="Trazado 2783" d="M4929.748,1031.943a2.589,2.589,0,1,0,3.028,2.555A2.822,2.822,0,0,0,4929.748,1031.943Z" fill="#e8c0a9"/>
                    <path id="Trazado_2784" data-name="Trazado 2784" d="M4929.748,1031.995a2.536,2.536,0,1,0,2.966,2.5A2.763,2.763,0,0,0,4929.748,1031.995Z" fill="#e7bfa8"/>
                    <path id="Trazado_2785" data-name="Trazado 2785" d="M4929.748,1032.047a2.483,2.483,0,1,0,2.9,2.451A2.706,2.706,0,0,0,4929.748,1032.047Z" fill="#e7bea8"/>
                    <path id="Trazado_2786" data-name="Trazado 2786" d="M4929.748,1032.1a2.431,2.431,0,1,0,2.843,2.4A2.649,2.649,0,0,0,4929.748,1032.1Z" fill="#e6bda7"/>
                    <path id="Trazado_2787" data-name="Trazado 2787" d="M4929.748,1032.151a2.378,2.378,0,1,0,2.781,2.347A2.591,2.591,0,0,0,4929.748,1032.151Z" fill="#e6bca6"/>
                    <path id="Trazado_2788" data-name="Trazado 2788" d="M4929.748,1032.2a2.325,2.325,0,1,0,2.719,2.3A2.533,2.533,0,0,0,4929.748,1032.2Z" fill="#e6bba5"/>
                    <path id="Trazado_2789" data-name="Trazado 2789" d="M4929.748,1032.255a2.273,2.273,0,1,0,2.657,2.243A2.477,2.477,0,0,0,4929.748,1032.255Z" fill="#e6baa5"/>
                    <path id="Trazado_2790" data-name="Trazado 2790" d="M4929.747,1032.307a2.22,2.22,0,1,0,2.6,2.191A2.418,2.418,0,0,0,4929.747,1032.307Z" fill="#e5b9a4"/>
                    <path id="Trazado_2791" data-name="Trazado 2791" d="M4929.747,1032.359a2.167,2.167,0,1,0,2.535,2.139A2.361,2.361,0,0,0,4929.747,1032.359Z" fill="#e5b9a4"/>
                    <path id="Trazado_2792" data-name="Trazado 2792" d="M4929.747,1032.411a2.114,2.114,0,1,0,2.473,2.087A2.3,2.3,0,0,0,4929.747,1032.411Z" fill="#e4b8a4"/>
                    <path id="Trazado_2793" data-name="Trazado 2793" d="M4929.747,1032.462a2.062,2.062,0,1,0,2.411,2.036A2.249,2.249,0,0,0,4929.747,1032.462Z" fill="#e4b7a3"/>
                    <path id="Trazado_2794" data-name="Trazado 2794" d="M4929.747,1032.514a2.009,2.009,0,1,0,2.35,1.984A2.19,2.19,0,0,0,4929.747,1032.514Z" fill="#e4b6a3"/>
                    <path id="Trazado_2795" data-name="Trazado 2795" d="M4929.747,1032.566a1.957,1.957,0,1,0,2.288,1.932A2.132,2.132,0,0,0,4929.747,1032.566Z" fill="#e4b5a2"/>
                    <path id="Trazado_2796" data-name="Trazado 2796" d="M4929.747,1032.618a1.9,1.9,0,1,0,2.226,1.88A2.076,2.076,0,0,0,4929.747,1032.618Z" fill="#e4b4a2"/>
                    <path id="Trazado_2797" data-name="Trazado 2797" d="M4929.746,1032.67a1.851,1.851,0,1,0,2.166,1.828A2.017,2.017,0,0,0,4929.746,1032.67Z" fill="#e3b3a1"/>
                    <path id="Trazado_2798" data-name="Trazado 2798" d="M4929.746,1032.722a1.8,1.8,0,1,0,2.1,1.776A1.96,1.96,0,0,0,4929.746,1032.722Z" fill="#e3b2a1"/>
                    <path id="Trazado_2799" data-name="Trazado 2799" d="M4929.746,1032.774a1.746,1.746,0,1,0,2.042,1.724A1.9,1.9,0,0,0,4929.746,1032.774Z" fill="#e2b1a0"/>
                    <path id="Trazado_2800" data-name="Trazado 2800" d="M4929.746,1032.826a1.693,1.693,0,1,0,1.98,1.672A1.845,1.845,0,0,0,4929.746,1032.826Z" fill="#e2afa0"/>
                    <path id="Trazado_2801" data-name="Trazado 2801" d="M4929.746,1032.878a1.64,1.64,0,1,0,1.919,1.62A1.787,1.787,0,0,0,4929.746,1032.878Z" fill="#e2ae9f"/>
                    <path id="Trazado_2802" data-name="Trazado 2802" d="M4927.887,1034.492a1.885,1.885,0,1,0,1.859-1.562A1.73,1.73,0,0,0,4927.887,1034.492Z" fill="#e2ad9f"/>
                  </g>
                </g>
                <g id="Grupo_1686" data-name="Grupo 1686">
                  <path id="Trazado_2803" data-name="Trazado 2803" d="M4943.883,1026.6c.029,1.176.747,2.117,1.6,2.1s1.516-.991,1.487-2.167-.735-2.117-1.583-2.1S4943.854,1025.417,4943.883,1026.6Z" fill="#402615"/>
                </g>
                <g id="Grupo_1687" data-name="Grupo 1687">
                  <path id="Trazado_2804" data-name="Trazado 2804" d="M4937.739,1034.219a.375.375,0,0,1-.317-.172l-2.264-3.5a.377.377,0,0,1,.267-.579l2.473-.327.455-3.391a.377.377,0,0,1,.748.1l-.494,3.676a.378.378,0,0,1-.324.324l-2.168.287,1.94,2.995a.376.376,0,0,1-.316.582Z" fill="#9d745e"/>
                </g>
                <g id="Grupo_1688" data-name="Grupo 1688">
                  <path id="Trazado_2805" data-name="Trazado 2805" d="M4939.082,1038.822h0c-2.519,0-4.786-2.184-4.881-2.276a.392.392,0,0,1,.546-.561c.021.02,2.138,2.05,4.336,2.054h0c2.206,0,4.433-2.018,4.455-2.038a.392.392,0,0,1,.53.577C4943.967,1036.669,4941.6,1038.822,4939.082,1038.822Z" fill="#cd613f"/>
                </g>
                <g id="Grupo_1690" data-name="Grupo 1690">
                  <g id="Grupo_1689" data-name="Grupo 1689">
                    <path id="Trazado_2806" data-name="Trazado 2806" d="M4939.091,1008.877c11.4.012,13.718,10.433,13.719,10.614s-.41,9.215-.41,9.215l2.33-1.776s3.109-13.254-3.2-18.469-12.558-4.426-12.558-4.426h.245s-6.251-.8-12.567,4.4-3.3,18.465-3.3,18.465l2.326,1.778s-.327-9.027-.326-9.211S4927.694,1008.867,4939.091,1008.877Z" fill="#402615"/>
                  </g>
                </g>
              </g>
              <g id="Grupo_1697" data-name="Grupo 1697">
                <g id="Grupo_1694" data-name="Grupo 1694">
                  <g id="Grupo_1692" data-name="Grupo 1692">
                    <path id="Trazado_2807" data-name="Trazado 2807" d="M4965.746,1096.613s.167,4.359.371,4.912c1.029,2.784,2.032,6.347.721,7.168s-5.619,3.25-6.2,2.039a10.176,10.176,0,0,1-.622-1.426s-1.487.229-1.632-.665-.54-3.1-.045-3.759a8.988,8.988,0,0,0,1.55-3.272,21.416,21.416,0,0,0-.083-3.677Z" fill="#e9c3aa"/>
                  </g>
                  <g id="Grupo_1693" data-name="Grupo 1693">
                    <path id="Trazado_2808" data-name="Trazado 2808" d="M4959.855,1108.507l.238-2.1.55,2.16Z" fill="#cb9e82"/>
                  </g>
                </g>
                <g id="Grupo_1695" data-name="Grupo 1695">
                  <rect id="Rectángulo_881" data-name="Rectángulo 881" width="8.725" height="4.163" transform="translate(4958.42 1096.662) rotate(-5.836)" fill="#fff"/>
                  <path id="Trazado_2809" data-name="Trazado 2809" d="M4958.843,1101.075a.27.27,0,0,1-.269-.244l-.424-4.141a.277.277,0,0,1,.059-.2.272.272,0,0,1,.183-.1l8.681-.888a.27.27,0,0,1,.3.242l.424,4.142a.271.271,0,0,1-.243.3l-8.68.888Zm-.125-4.17.368,3.6,8.14-.832-.368-3.6Z" fill="#bfbfbf"/>
                </g>
                <g id="Grupo_1696" data-name="Grupo 1696">
                  <path id="Trazado_2810" data-name="Trazado 2810" d="M4956.858,1049.65s.81-1.41,2.765-.433,8.8,48.814,8.8,48.814l-10.588.977-2.932-28.019Z" fill="#3a4f12"/>
                </g>
              </g>
              <g id="Grupo_1701" data-name="Grupo 1701">
                <g id="Grupo_1698" data-name="Grupo 1698">
                  <path id="Trazado_2811" data-name="Trazado 2811" d="M4960.806,1011.24c0-5.142-9.727-10.58-21.724-10.58s-21.724,5.438-21.724,10.58c0,2.1,1.628,3.82,4.37,5.116,1.377,4.2,8.621,6.492,17.354,6.492s15.977-2.3,17.354-6.492C4959.178,1015.06,4960.806,1013.343,4960.806,1011.24Z" fill="#3a4f12"/>
                </g>
                <g id="Grupo_1699" data-name="Grupo 1699">
                  <path id="Trazado_2812" data-name="Trazado 2812" d="M4957.046,1016.21c0,1.539-8.043,1.52-17.964,1.52s-17.963.019-17.963-1.52,8.043-2.79,17.963-2.79S4957.046,1014.669,4957.046,1016.21Z" fill="#193306"/>
                </g>
                <g id="Grupo_1700" data-name="Grupo 1700">
                  <path id="Trazado_2813" data-name="Trazado 2813" d="M4943.607,1010.268a4.526,4.526,0,1,1-4.525-4.527A4.526,4.526,0,0,1,4943.607,1010.268Z" fill="#d6a226"/>
                </g>
              </g>
              <g id="Grupo_1707" data-name="Grupo 1707">
                <g id="Grupo_1702" data-name="Grupo 1702">
                  <path id="Trazado_2814" data-name="Trazado 2814" d="M4950.665,1067.387a.9.9,0,1,1-.9-.9A.9.9,0,0,1,4950.665,1067.387Z" fill="#d6a226"/>
                </g>
                <g id="Grupo_1704" data-name="Grupo 1704">
                  <g id="Grupo_1703" data-name="Grupo 1703">
                    <path id="Trazado_2815" data-name="Trazado 2815" d="M4952.817,1075.239h-6.086a1.453,1.453,0,0,1-1.452-1.451v-8.747h8.989v8.747A1.453,1.453,0,0,1,4952.817,1075.239Zm-6.886-9.546v8.095a.8.8,0,0,0,.8.8h6.086a.8.8,0,0,0,.8-.8v-8.095Z" fill="#193306"/>
                  </g>
                </g>
                <g id="Grupo_1705" data-name="Grupo 1705">
                  <path id="Trazado_2816" data-name="Trazado 2816" d="M4949.774,1069.689l-4.256-1.177.174-.628,4.082,1.129,4.081-1.129.174.628Z" fill="#193306"/>
                </g>
                <g id="Grupo_1706" data-name="Grupo 1706">
                  <rect id="Rectángulo_882" data-name="Rectángulo 882" width="0.652" height="5.48" transform="translate(4949.45 1069.355)" fill="#193306"/>
                </g>
              </g>
              <g id="Grupo_1713" data-name="Grupo 1713">
                <g id="Grupo_1708" data-name="Grupo 1708">
                  <path id="Trazado_2817" data-name="Trazado 2817" d="M4929.424,1067.387a.9.9,0,1,1-.9-.9A.9.9,0,0,1,4929.424,1067.387Z" fill="#d6a226"/>
                </g>
                <g id="Grupo_1710" data-name="Grupo 1710">
                  <g id="Grupo_1709" data-name="Grupo 1709">
                    <path id="Trazado_2818" data-name="Trazado 2818" d="M4931.576,1075.239h-6.086a1.453,1.453,0,0,1-1.451-1.451v-8.747h8.989v8.747A1.453,1.453,0,0,1,4931.576,1075.239Zm-6.886-9.546v8.095a.8.8,0,0,0,.8.8h6.086a.8.8,0,0,0,.8-.8v-8.095Z" fill="#193306"/>
                  </g>
                </g>
                <g id="Grupo_1711" data-name="Grupo 1711">
                  <path id="Trazado_2819" data-name="Trazado 2819" d="M4928.533,1069.689l-4.256-1.177.174-.628,4.082,1.129,4.082-1.129.174.628Z" fill="#193306"/>
                </g>
                <g id="Grupo_1712" data-name="Grupo 1712">
                  <rect id="Rectángulo_883" data-name="Rectángulo 883" width="0.652" height="5.48" transform="translate(4928.21 1069.355)" fill="#193306"/>
                </g>
              </g>
              <g id="Grupo_1718" data-name="Grupo 1718">
                <g id="Grupo_1714" data-name="Grupo 1714">
                  <path id="Trazado_2820" data-name="Trazado 2820" d="M4918.885,1088.376a1.2,1.2,0,0,0-1.194,1.193V1100.1a1.2,1.2,0,0,0,1.194,1.194h.7a1.2,1.2,0,0,1,1.194,1.195v4.914a1.2,1.2,0,0,0,1.194,1.194h1.123a1.2,1.2,0,0,0,1.194-1.194v-17.835a1.2,1.2,0,0,0-1.194-1.193Z" fill="#3e5a6d"/>
                  <path id="Trazado_2821" data-name="Trazado 2821" d="M4923.1,1108.924h-1.123a1.522,1.522,0,0,1-1.52-1.52v-4.914a.87.87,0,0,0-.869-.869h-.7a1.522,1.522,0,0,1-1.52-1.52v-10.532a1.521,1.521,0,0,1,1.52-1.519h4.212a1.521,1.521,0,0,1,1.52,1.519V1107.4A1.522,1.522,0,0,1,4923.1,1108.924Zm-4.212-20.223a.869.869,0,0,0-.868.868V1100.1a.869.869,0,0,0,.868.869h.7a1.522,1.522,0,0,1,1.521,1.52v4.914a.869.869,0,0,0,.868.868h1.123a.868.868,0,0,0,.868-.868v-17.835a.869.869,0,0,0-.868-.868Z" fill="#192c3a"/>
                </g>
                <g id="Grupo_1715" data-name="Grupo 1715">
                  <path id="Trazado_2822" data-name="Trazado 2822" d="M4918.4,1099.48a3.672,3.672,0,0,1-.785-.079l.149-.634a2.754,2.754,0,0,0,2.081-.377,2.562,2.562,0,0,0,.784-2.115v-4.514a1.752,1.752,0,0,1,.393-1.242,1.729,1.729,0,0,1,1.355-.521h1.9v.652l0-.652,0,.652h-1.9a1.118,1.118,0,0,0-.869.3,1.1,1.1,0,0,0-.229.758l0,.017v4.547a3.163,3.163,0,0,1-1.035,2.629A2.965,2.965,0,0,1,4918.4,1099.48Z" fill="#192c3a"/>
                </g>
                <g id="Grupo_1717" data-name="Grupo 1717">
                  <g id="Grupo_1716" data-name="Grupo 1716">
                    <path id="Trazado_2823" data-name="Trazado 2823" d="M4917.691,1097.268h-.326v-2.9h.326a1.449,1.449,0,1,1,0,2.9Zm.326-2.177v1.456a.8.8,0,0,0,0-1.456Z" fill="#192c3a"/>
                  </g>
                </g>
              </g>
              <g id="Grupo_1719" data-name="Grupo 1719">
                <path id="Trazado_2824" data-name="Trazado 2824" d="M4910.584,1039s2.827-5.352,3.547-6.16c4.387-4.928,7.459-9.166,7.331-9.53-.467-1.317-4.468,2.4-4.468,2.4s2.413-4.779,5.083-9.481c1.86-3.281-6.047,2.445-7.924,4.293-1.594,2.88-3.976,7.229-4.922,9.377-.275.523-4.136,6.325-4.136,6.325Z" fill="#e9c3aa"/>
              </g>
              <g id="Grupo_1723" data-name="Grupo 1723">
                <g id="Grupo_1720" data-name="Grupo 1720">
                  <path id="Trazado_2825" data-name="Trazado 2825" d="M4914.1,1034.644l-6.882-3.83-2.064,3.615,6.881,3.83Z" fill="#fff"/>
                  <path id="Trazado_2826" data-name="Trazado 2826" d="M4912.036,1038.531a.265.265,0,0,1-.132-.035l-6.881-3.83a.27.27,0,0,1-.13-.164.274.274,0,0,1,.026-.208l2.064-3.615a.272.272,0,0,1,.368-.1l6.882,3.83a.27.27,0,0,1,.13.164.274.274,0,0,1-.026.208l-2.065,3.615A.271.271,0,0,1,4912.036,1038.531Zm-6.509-4.206,6.407,3.566,1.795-3.143-6.407-3.566Z" fill="#bfbfbf"/>
                </g>
                <g id="Grupo_1721" data-name="Grupo 1721">
                  <path id="Trazado_2827" data-name="Trazado 2827" d="M4922.181,1049.554l-.265,11.844-20.661-6.319,4.647-8.966Z" fill="#3a4f12"/>
                </g>
                <g id="Grupo_1722" data-name="Grupo 1722">
                  <path id="Trazado_2828" data-name="Trazado 2828" d="M4905.242,1031.307l9.1,5.012-6.732,12.54-6.352,6.22s-6.965-2.5-4.385-7.857S4905.242,1031.307,4905.242,1031.307Z" fill="#3a4f12"/>
                </g>
              </g>
              <g id="Grupo_1724" data-name="Grupo 1724">
                <path id="Trazado_2829" data-name="Trazado 2829" d="M4957.215,1051.249l-7.14-.693.06-.615,6.492.63.051-1.163.618.027Z" fill="#193306"/>
              </g>
              <g id="Grupo_1725" data-name="Grupo 1725">
                <path id="Trazado_2830" data-name="Trazado 2830" d="M4921.092,1051.249l-.081-1.814.618-.027.051,1.163,6.492-.63.06.615Z" fill="#193306"/>
              </g>
            </g>
            <g id="Grupo_1727" data-name="Grupo 1727">
              <path id="Trazado_2831" data-name="Trazado 2831" d="M4918.823,1048.991l-1.539,1.142-3.523-1.191-.745-1.24Z" fill="#d6a226"/>
              <path id="Trazado_2832" data-name="Trazado 2832" d="M4917.284,1050.43a.31.31,0,0,1-.1-.015l-3.523-1.191a.3.3,0,0,1-.16-.129l-.745-1.241a.3.3,0,0,1,.32-.444l5.806,1.29a.3.3,0,0,1,.113.53l-1.538,1.142A.3.3,0,0,1,4917.284,1050.43Zm-3.324-1.736,3.272,1.107.89-.661-4.494-1Z" fill="#d6a226"/>
            </g>
          </g>
          <g id="Grupo_1829" data-name="Grupo 1829">
            <g id="Grupo_1734" data-name="Grupo 1734">
              <g id="Grupo_1729" data-name="Grupo 1729">
                <path id="Trazado_2833" data-name="Trazado 2833" d="M5006.044,1031.038c-2.5-7.618-8.807-13.027-16.2-13.027s-13.7,5.409-16.2,13.027a28.541,28.541,0,0,1,32.394,0Z" fill="#3a4f12"/>
              </g>
              <g id="Grupo_1730" data-name="Grupo 1730">
                <path id="Trazado_2834" data-name="Trazado 2834" d="M4989.848,1029.439a42.5,42.5,0,0,1,16.672,3.263q-.209-.848-.476-1.664a28.541,28.541,0,0,0-32.394,0q-.267.816-.475,1.664A42.51,42.51,0,0,1,4989.848,1029.439Z" fill="#193306"/>
              </g>
              <g id="Grupo_1731" data-name="Grupo 1731">
                <path id="Trazado_2835" data-name="Trazado 2835" d="M4989.849,1033.889h0Z" fill="#3a4f12"/>
              </g>
              <g id="Grupo_1732" data-name="Grupo 1732">
                <path id="Trazado_2836" data-name="Trazado 2836" d="M4993.2,1025.468a3.351,3.351,0,1,1-3.35-3.351A3.351,3.351,0,0,1,4993.2,1025.468Z" fill="#d6a226"/>
              </g>
              <g id="Grupo_1733" data-name="Grupo 1733">
                <path id="Trazado_2837" data-name="Trazado 2837" d="M5011.418,1035.04c0,4.494-2.652,9.776-21.57,9.776s-21.572-5.282-21.572-9.776,9.658-5.757,21.572-5.757S5011.418,1030.545,5011.418,1035.04Z" fill="#3a4f12"/>
              </g>
            </g>
            <g id="Grupo_1737" data-name="Grupo 1737">
              <g id="Grupo_1736" data-name="Grupo 1736">
                <g id="Grupo_1735" data-name="Grupo 1735" clip-path="url(#clip-path-3)">
                  <path id="Trazado_2838" data-name="Trazado 2838" d="M4981.359,1069.47l8.184.2h-8.184Z" fill="#dbb69e"/>
                  <path id="Trazado_2839" data-name="Trazado 2839" d="M4981.359,1068.989l16.389.4v.281h-8.205l-8.184-.2Z" fill="#dbb69e"/>
                  <path id="Trazado_2840" data-name="Trazado 2840" d="M4981.359,1068.507l16.389.4v.482l-16.389-.4Z" fill="#dab59d"/>
                  <path id="Trazado_2841" data-name="Trazado 2841" d="M4981.359,1068.025l16.389.4v.482l-16.389-.4Z" fill="#dab49c"/>
                  <path id="Trazado_2842" data-name="Trazado 2842" d="M4981.359,1067.543l16.389.4v.482l-16.389-.4Z" fill="#d9b49b"/>
                  <path id="Trazado_2843" data-name="Trazado 2843" d="M4981.359,1067.061l16.389.4v.482l-16.389-.4Z" fill="#d9b39a"/>
                  <path id="Trazado_2844" data-name="Trazado 2844" d="M4981.359,1066.579l16.389.4v.482l-16.389-.4Z" fill="#d9b299"/>
                  <path id="Trazado_2845" data-name="Trazado 2845" d="M4981.359,1066.1l16.389.4v.482l-16.389-.4Z" fill="#d9b198"/>
                  <path id="Trazado_2846" data-name="Trazado 2846" d="M4981.359,1066.063l.011-.448,16.377.4v.482l-16.389-.4Z" fill="#d8af97"/>
                  <path id="Trazado_2847" data-name="Trazado 2847" d="M4981.371,1065.616l.012-.482,16.366.4v.482Z" fill="#d7ae96"/>
                  <path id="Trazado_2848" data-name="Trazado 2848" d="M4981.382,1065.134l.012-.482,16.354.4v.482Z" fill="#d7ae95"/>
                  <path id="Trazado_2849" data-name="Trazado 2849" d="M4981.394,1064.652l.012-.482,16.342.4v.482Z" fill="#d7ad94"/>
                  <path id="Trazado_2850" data-name="Trazado 2850" d="M4981.406,1064.171l.012-.482,16.33.4v.482Z" fill="#d7ac93"/>
                  <path id="Trazado_2851" data-name="Trazado 2851" d="M4981.418,1063.689l.012-.482,16.318.4v.482Z" fill="#d6ab92"/>
                  <path id="Trazado_2852" data-name="Trazado 2852" d="M4981.43,1063.208l.012-.482,16.307.4v.482Z" fill="#d6aa91"/>
                  <path id="Trazado_2853" data-name="Trazado 2853" d="M4981.441,1062.726l.012-.482,16.295.4v.482Z" fill="#d6aa8f"/>
                  <path id="Trazado_2854" data-name="Trazado 2854" d="M4981.453,1062.245l.012-.482,16.283.4v.482Z" fill="#d5a98e"/>
                  <path id="Trazado_2855" data-name="Trazado 2855" d="M4981.465,1061.763l.012-.482,16.271.4v.482Z" fill="#d4a88d"/>
                  <path id="Trazado_2856" data-name="Trazado 2856" d="M4981.477,1061.281l.012-.482,16.259.4v.482Z" fill="#d4a78c"/>
                  <path id="Trazado_2857" data-name="Trazado 2857" d="M4981.489,1060.8l.012-.482,16.248.4v.482Z" fill="#d4a68b"/>
                  <path id="Trazado_2858" data-name="Trazado 2858" d="M4981.5,1060.318l.012-.482,16.236.4v.482Z" fill="#d4a68a"/>
                  <path id="Trazado_2859" data-name="Trazado 2859" d="M4981.512,1059.837l.012-.482,16.224.4v.482Z" fill="#d4a589"/>
                  <path id="Trazado_2860" data-name="Trazado 2860" d="M4981.524,1059.355l.012-.482,16.212.4v.482Z" fill="#d3a488"/>
                  <path id="Trazado_2861" data-name="Trazado 2861" d="M4981.536,1058.873l.012-.482,16.2.4v.482Z" fill="#d3a387"/>
                  <path id="Trazado_2862" data-name="Trazado 2862" d="M4981.548,1058.392l.012-.482,16.188.4v.482Z" fill="#d2a286"/>
                  <path id="Trazado_2863" data-name="Trazado 2863" d="M4981.56,1057.91l.012-.482,16.177.4v.482Z" fill="#d2a285"/>
                  <path id="Trazado_2864" data-name="Trazado 2864" d="M4981.571,1057.429l.012-.482,16.165.4v.482Z" fill="#d1a284"/>
                  <path id="Trazado_2865" data-name="Trazado 2865" d="M4981.583,1056.947l.012-.482,16.153.4v.482Z" fill="#d1a183"/>
                  <path id="Trazado_2866" data-name="Trazado 2866" d="M4981.595,1056.465l0-.2h11.32l4.828.118v.482Z" fill="#d1a082"/>
                  <path id="Trazado_2867" data-name="Trazado 2867" d="M4997.748,1056.379l-4.828-.118h4.828Z" fill="#d1a082"/>
                </g>
              </g>
            </g>
            <g id="Grupo_1763" data-name="Grupo 1763">
              <g id="Grupo_1762" data-name="Grupo 1762" clip-path="url(#clip-path-4)">
                <g id="Grupo_1761" data-name="Grupo 1761">
                  <g id="Grupo_1744" data-name="Grupo 1744">
                    <g id="Grupo_1740" data-name="Grupo 1740">
                      <g id="Grupo_1738" data-name="Grupo 1738">
                        <path id="Trazado_2869" data-name="Trazado 2869" d="M4977.646,1047.266c.484,2.437-.726,4.764-2.7,5.2s-3.951-1.162-4.435-3.593.736-4.764,2.711-5.2S4977.162,1044.836,4977.646,1047.266Z" fill="#e9c3aa"/>
                      </g>
                      <g id="Grupo_1739" data-name="Grupo 1739">
                        <path id="Trazado_2870" data-name="Trazado 2870" d="M4976.184,1047.6a2.506,2.506,0,0,1-1.6,3.059,2.364,2.364,0,0,1-2.6-2.12,2.522,2.522,0,0,1,1.589-3.066A2.377,2.377,0,0,1,4976.184,1047.6Z" fill="#c69780"/>
                      </g>
                    </g>
                    <g id="Grupo_1743" data-name="Grupo 1743">
                      <g id="Grupo_1741" data-name="Grupo 1741">
                        <path id="Trazado_2871" data-name="Trazado 2871" d="M5002.06,1047.209c-.466,2.435.744,4.755,2.731,5.19,1.965.436,3.931-1.191,4.4-3.621s-.755-4.755-2.72-5.192S5002.525,1044.778,5002.06,1047.209Z" fill="#e9c3aa"/>
                      </g>
                      <g id="Grupo_1742" data-name="Grupo 1742">
                        <path id="Trazado_2872" data-name="Trazado 2872" d="M5003.522,1047.528a2.506,2.506,0,0,0,1.6,3.056,2.37,2.37,0,0,0,2.615-2.127,2.514,2.514,0,0,0-1.607-3.06A2.378,2.378,0,0,0,5003.522,1047.528Z" fill="#c69780"/>
                      </g>
                    </g>
                  </g>
                  <g id="Grupo_1749" data-name="Grupo 1749">
                    <g id="Grupo_1745" data-name="Grupo 1745">
                      <path id="Trazado_2873" data-name="Trazado 2873" d="M5006.533,1042.124c.019,10.179-7.427,18.449-16.637,18.468s-16.695-8.212-16.724-18.389c-.01-10.179,4.8-18.449,16.628-18.473S5006.5,1031.942,5006.533,1042.124Z" fill="#e9c3aa"/>
                    </g>
                    <g id="Grupo_1747" data-name="Grupo 1747" opacity="0.5">
                      <g id="Grupo_1746" data-name="Grupo 1746">
                        <path id="Trazado_2874" data-name="Trazado 2874" d="M5006.533,1040.923c-.59-9.626-5.326-17.214-16.666-17.193-11.379.024-16.085,7.645-16.617,17.271a37.183,37.183,0,0,1,33.283-.078Z" fill="#daaa8e"/>
                      </g>
                    </g>
                    <g id="Grupo_1748" data-name="Grupo 1748">
                      <path id="Trazado_2875" data-name="Trazado 2875" d="M5006.573,1039.873c-1-9.253-5.686-16.41-16.773-16.381-11.069.02-15.708,7.2-16.686,16.463-.069.716-.108,1.448-.108,2.193a22.953,22.953,0,0,0,.166,2.6,14.277,14.277,0,0,1,1.985-5.7,37.744,37.744,0,0,1,5.684-1.753,33.565,33.565,0,0,1,.553-4.058,21.953,21.953,0,0,1,1.4-4.494c-.01,1.444-.01,2.712,0,3.826.02,1.976.068,3.418.1,4.319a42.214,42.214,0,0,1,6.925-.581,39.562,39.562,0,0,1,14.729,2.673,14.255,14.255,0,0,1,1.985,5.684,19.923,19.923,0,0,0,.04-4.788Z" fill="#5b3c22"/>
                    </g>
                  </g>
                  <g id="Grupo_1750" data-name="Grupo 1750">
                    <path id="Trazado_2876" data-name="Trazado 2876" d="M4989.907,1055.69a6.5,6.5,0,0,1-4.886-2.418.405.405,0,1,1,.647-.488,5.811,5.811,0,0,0,1.147,1.062,5.251,5.251,0,0,0,3.093,1.033h.015a5.263,5.263,0,0,0,3.1-1.04,5.8,5.8,0,0,0,1.146-1.064.405.405,0,0,1,.647.488,6.516,6.516,0,0,1-4.9,2.427Z" fill="#cd613f"/>
                  </g>
                  <g id="Grupo_1751" data-name="Grupo 1751">
                    <path id="Trazado_2877" data-name="Trazado 2877" d="M4991.223,1050.987a.292.292,0,0,1-.292-.292,1.016,1.016,0,0,0-2.031,0,.292.292,0,1,1-.584,0,1.6,1.6,0,0,1,3.2,0A.293.293,0,0,1,4991.223,1050.987Z" fill="#a0755d"/>
                  </g>
                  <g id="Grupo_1754" data-name="Grupo 1754">
                    <g id="Grupo_1752" data-name="Grupo 1752">
                      <path id="Trazado_2878" data-name="Trazado 2878" d="M4985.044,1040.408a.283.283,0,0,1-.266-.187,1.7,1.7,0,0,0-1.535-1.082,1.755,1.755,0,0,0-1.536,1.086.284.284,0,0,1-.531-.2,2.325,2.325,0,0,1,2.067-1.452,2.265,2.265,0,0,1,2.068,1.456.283.283,0,0,1-.17.363A.277.277,0,0,1,4985.044,1040.408Z" fill="#885e35"/>
                    </g>
                    <g id="Grupo_1753" data-name="Grupo 1753">
                      <path id="Trazado_2879" data-name="Trazado 2879" d="M4994.776,1040.408a.287.287,0,0,1-.1-.018.284.284,0,0,1-.166-.366,2.29,2.29,0,0,1,2.067-1.452,2.321,2.321,0,0,1,2.075,1.449.283.283,0,1,1-.528.207,1.761,1.761,0,0,0-1.547-1.089,1.706,1.706,0,0,0-1.536,1.085A.284.284,0,0,1,4994.776,1040.408Z" fill="#885e35"/>
                    </g>
                  </g>
                  <g id="Grupo_1757" data-name="Grupo 1757">
                    <g id="Grupo_1755" data-name="Grupo 1755">
                      <path id="Trazado_2880" data-name="Trazado 2880" d="M4981.84,1049.992a2.868,2.868,0,1,1-2.848-2.572A2.723,2.723,0,0,1,4981.84,1049.992Z" fill="#e9c3aa"/>
                      <path id="Trazado_2881" data-name="Trazado 2881" d="M4978.992,1047.457a2.549,2.549,0,1,1-2.816,2.535A2.685,2.685,0,0,1,4978.992,1047.457Z" fill="#e8c2aa"/>
                      <path id="Trazado_2882" data-name="Trazado 2882" d="M4978.992,1047.493a2.512,2.512,0,1,1-2.776,2.5A2.646,2.646,0,0,1,4978.992,1047.493Z" fill="#e8c1a9"/>
                      <path id="Trazado_2883" data-name="Trazado 2883" d="M4978.992,1047.53a2.476,2.476,0,1,1-2.735,2.462A2.607,2.607,0,0,1,4978.992,1047.53Z" fill="#e8c0a9"/>
                      <path id="Trazado_2884" data-name="Trazado 2884" d="M4978.992,1047.566a2.439,2.439,0,1,1-2.7,2.426A2.569,2.569,0,0,1,4978.992,1047.566Z" fill="#e7bfa8"/>
                      <path id="Trazado_2885" data-name="Trazado 2885" d="M4978.992,1047.6a2.4,2.4,0,1,1-2.654,2.389A2.531,2.531,0,0,1,4978.992,1047.6Z" fill="#e7bea8"/>
                      <path id="Trazado_2886" data-name="Trazado 2886" d="M4978.992,1047.64a2.365,2.365,0,1,1-2.614,2.352A2.492,2.492,0,0,1,4978.992,1047.64Z" fill="#e6bda7"/>
                      <path id="Trazado_2887" data-name="Trazado 2887" d="M4978.992,1047.676a2.328,2.328,0,1,1-2.573,2.316A2.454,2.454,0,0,1,4978.992,1047.676Z" fill="#e6bca6"/>
                      <path id="Trazado_2888" data-name="Trazado 2888" d="M4978.992,1047.713a2.292,2.292,0,1,1-2.533,2.279A2.414,2.414,0,0,1,4978.992,1047.713Z" fill="#e6bba5"/>
                      <path id="Trazado_2889" data-name="Trazado 2889" d="M4978.992,1047.749a2.255,2.255,0,1,1-2.492,2.243A2.377,2.377,0,0,1,4978.992,1047.749Z" fill="#e6baa5"/>
                      <path id="Trazado_2890" data-name="Trazado 2890" d="M4978.992,1047.786a2.218,2.218,0,1,1-2.452,2.206A2.337,2.337,0,0,1,4978.992,1047.786Z" fill="#e5b9a4"/>
                      <path id="Trazado_2891" data-name="Trazado 2891" d="M4978.992,1047.822a2.182,2.182,0,1,1-2.411,2.17A2.3,2.3,0,0,1,4978.992,1047.822Z" fill="#e5b9a4"/>
                      <path id="Trazado_2892" data-name="Trazado 2892" d="M4978.992,1047.859a2.145,2.145,0,1,1-2.371,2.133A2.26,2.26,0,0,1,4978.992,1047.859Z" fill="#e4b8a4"/>
                      <path id="Trazado_2893" data-name="Trazado 2893" d="M4978.992,1047.9a2.108,2.108,0,1,1-2.33,2.1A2.223,2.223,0,0,1,4978.992,1047.9Z" fill="#e4b7a3"/>
                      <path id="Trazado_2894" data-name="Trazado 2894" d="M4978.992,1047.932a2.072,2.072,0,1,1-2.29,2.06A2.183,2.183,0,0,1,4978.992,1047.932Z" fill="#e4b6a3"/>
                      <path id="Trazado_2895" data-name="Trazado 2895" d="M4978.992,1047.968a2.035,2.035,0,1,1-2.249,2.024A2.146,2.146,0,0,1,4978.992,1047.968Z" fill="#e4b5a2"/>
                      <path id="Trazado_2896" data-name="Trazado 2896" d="M4978.992,1048.005a2,2,0,1,1-2.209,1.987A2.106,2.106,0,0,1,4978.992,1048.005Z" fill="#e4b4a2"/>
                      <path id="Trazado_2897" data-name="Trazado 2897" d="M4978.992,1048.042a1.961,1.961,0,1,1-2.168,1.95A2.067,2.067,0,0,1,4978.992,1048.042Z" fill="#e3b3a1"/>
                      <path id="Trazado_2898" data-name="Trazado 2898" d="M4978.992,1048.078a1.924,1.924,0,1,1-2.128,1.914A2.029,2.029,0,0,1,4978.992,1048.078Z" fill="#e3b2a1"/>
                      <path id="Trazado_2899" data-name="Trazado 2899" d="M4978.992,1048.115a1.888,1.888,0,1,1-2.087,1.877A1.99,1.99,0,0,1,4978.992,1048.115Z" fill="#e2b1a0"/>
                      <path id="Trazado_2900" data-name="Trazado 2900" d="M4978.992,1048.151a1.851,1.851,0,1,1-2.047,1.841A1.952,1.952,0,0,1,4978.992,1048.151Z" fill="#e2afa0"/>
                      <path id="Trazado_2901" data-name="Trazado 2901" d="M4978.992,1048.188a1.814,1.814,0,1,1-2.006,1.8A1.913,1.913,0,0,1,4978.992,1048.188Z" fill="#e2ae9f"/>
                      <path id="Trazado_2902" data-name="Trazado 2902" d="M4980.948,1049.992a1.972,1.972,0,1,1-1.956-1.768A1.874,1.874,0,0,1,4980.948,1049.992Z" fill="#e2ad9f"/>
                    </g>
                    <g id="Grupo_1756" data-name="Grupo 1756">
                      <path id="Trazado_2903" data-name="Trazado 2903" d="M5003.57,1049.992a2.867,2.867,0,1,1-2.857-2.572A2.725,2.725,0,0,1,5003.57,1049.992Z" fill="#e9c3aa"/>
                      <path id="Trazado_2904" data-name="Trazado 2904" d="M5000.713,1047.457a2.548,2.548,0,1,1-2.807,2.535A2.688,2.688,0,0,1,5000.713,1047.457Z" fill="#e8c2aa"/>
                      <path id="Trazado_2905" data-name="Trazado 2905" d="M5000.713,1047.493a2.511,2.511,0,1,1-2.766,2.5A2.649,2.649,0,0,1,5000.713,1047.493Z" fill="#e8c1a9"/>
                      <path id="Trazado_2906" data-name="Trazado 2906" d="M5000.713,1047.53a2.475,2.475,0,1,1-2.726,2.462A2.611,2.611,0,0,1,5000.713,1047.53Z" fill="#e8c0a9"/>
                      <path id="Trazado_2907" data-name="Trazado 2907" d="M5000.713,1047.566a2.438,2.438,0,1,1-2.685,2.426A2.572,2.572,0,0,1,5000.713,1047.566Z" fill="#e7bfa8"/>
                      <path id="Trazado_2908" data-name="Trazado 2908" d="M5000.713,1047.6a2.4,2.4,0,1,1-2.645,2.389A2.534,2.534,0,0,1,5000.713,1047.6Z" fill="#e7bea8"/>
                      <path id="Trazado_2909" data-name="Trazado 2909" d="M5000.713,1047.64a2.364,2.364,0,1,1-2.6,2.352A2.494,2.494,0,0,1,5000.713,1047.64Z" fill="#e6bda7"/>
                      <path id="Trazado_2910" data-name="Trazado 2910" d="M5000.713,1047.676a2.328,2.328,0,1,1-2.564,2.316A2.457,2.457,0,0,1,5000.713,1047.676Z" fill="#e6bca6"/>
                      <path id="Trazado_2911" data-name="Trazado 2911" d="M5000.713,1047.713a2.291,2.291,0,1,1-2.523,2.279A2.418,2.418,0,0,1,5000.713,1047.713Z" fill="#e6bba5"/>
                      <path id="Trazado_2912" data-name="Trazado 2912" d="M5000.713,1047.749a2.254,2.254,0,1,1-2.483,2.243A2.38,2.38,0,0,1,5000.713,1047.749Z" fill="#e6baa5"/>
                      <path id="Trazado_2913" data-name="Trazado 2913" d="M5000.713,1047.786a2.217,2.217,0,1,1-2.442,2.206A2.341,2.341,0,0,1,5000.713,1047.786Z" fill="#e5b9a4"/>
                      <path id="Trazado_2914" data-name="Trazado 2914" d="M5000.713,1047.822a2.181,2.181,0,1,1-2.4,2.17A2.3,2.3,0,0,1,5000.713,1047.822Z" fill="#e5b9a4"/>
                      <path id="Trazado_2915" data-name="Trazado 2915" d="M5000.713,1047.859a2.144,2.144,0,1,1-2.361,2.133A2.264,2.264,0,0,1,5000.713,1047.859Z" fill="#e4b8a4"/>
                      <path id="Trazado_2916" data-name="Trazado 2916" d="M5000.713,1047.9a2.107,2.107,0,1,1-2.321,2.1A2.226,2.226,0,0,1,5000.713,1047.9Z" fill="#e4b7a3"/>
                      <path id="Trazado_2917" data-name="Trazado 2917" d="M5000.713,1047.932a2.071,2.071,0,1,1-2.28,2.06A2.186,2.186,0,0,1,5000.713,1047.932Z" fill="#e4b6a3"/>
                      <path id="Trazado_2918" data-name="Trazado 2918" d="M5000.713,1047.968a2.034,2.034,0,1,1-2.24,2.024A2.149,2.149,0,0,1,5000.713,1047.968Z" fill="#e4b5a2"/>
                      <path id="Trazado_2919" data-name="Trazado 2919" d="M5000.713,1048.005a2,2,0,1,1-2.2,1.987A2.11,2.11,0,0,1,5000.713,1048.005Z" fill="#e4b4a2"/>
                      <path id="Trazado_2920" data-name="Trazado 2920" d="M5000.713,1048.042a1.96,1.96,0,1,1-2.159,1.95A2.071,2.071,0,0,1,5000.713,1048.042Z" fill="#e3b3a1"/>
                      <path id="Trazado_2921" data-name="Trazado 2921" d="M5000.713,1048.078a1.923,1.923,0,1,1-2.118,1.914A2.033,2.033,0,0,1,5000.713,1048.078Z" fill="#e3b2a1"/>
                      <path id="Trazado_2922" data-name="Trazado 2922" d="M5000.713,1048.115a1.887,1.887,0,1,1-2.078,1.877A1.994,1.994,0,0,1,5000.713,1048.115Z" fill="#e2b1a0"/>
                      <path id="Trazado_2923" data-name="Trazado 2923" d="M5000.713,1048.151a1.85,1.85,0,1,1-2.037,1.841A1.956,1.956,0,0,1,5000.713,1048.151Z" fill="#e2afa0"/>
                      <path id="Trazado_2924" data-name="Trazado 2924" d="M5000.713,1048.188a1.813,1.813,0,1,1-2,1.8A1.918,1.918,0,0,1,5000.713,1048.188Z" fill="#e2ae9f"/>
                      <path id="Trazado_2925" data-name="Trazado 2925" d="M5002.679,1049.992a1.972,1.972,0,1,1-1.966-1.768A1.877,1.877,0,0,1,5002.679,1049.992Z" fill="#e2ad9f"/>
                    </g>
                  </g>
                  <g id="Grupo_1760" data-name="Grupo 1760">
                    <g id="Grupo_1758" data-name="Grupo 1758">
                      <path id="Trazado_2926" data-name="Trazado 2926" d="M4984.676,1045.881c0,1.2-.688,2.17-1.52,2.17s-1.531-.969-1.531-2.164.678-2.175,1.522-2.175S4984.676,1044.685,4984.676,1045.881Z" fill="#402615"/>
                    </g>
                    <g id="Grupo_1759" data-name="Grupo 1759">
                      <path id="Trazado_2927" data-name="Trazado 2927" d="M4998.079,1045.881c0,1.2-.678,2.17-1.52,2.17s-1.52-.969-1.52-2.164.687-2.175,1.511-2.175C4997.392,1043.712,4998.079,1044.685,4998.079,1045.881Z" fill="#402615"/>
                    </g>
                  </g>
                </g>
              </g>
            </g>
            <g id="Grupo_1766" data-name="Grupo 1766">
              <g id="Grupo_1764" data-name="Grupo 1764">
                <path id="Trazado_2929" data-name="Trazado 2929" d="M5007.338,1095.561s.117,3.045.26,3.432c.718,1.943,1.419,4.432.5,5.005s-3.924,2.27-4.329,1.423a7.4,7.4,0,0,1-.434-.995s-1.038.16-1.139-.465-.377-2.168-.032-2.625a6.252,6.252,0,0,0,1.083-2.284,14.982,14.982,0,0,0-.058-2.568Z" fill="#e9c3aa"/>
              </g>
              <g id="Grupo_1765" data-name="Grupo 1765">
                <path id="Trazado_2930" data-name="Trazado 2930" d="M5003.224,1103.868l.167-1.466.384,1.509Z" fill="#cb9e82"/>
              </g>
            </g>
            <g id="Grupo_1767" data-name="Grupo 1767">
              <rect id="Rectángulo_884" data-name="Rectángulo 884" width="6.092" height="2.908" transform="matrix(0.995, -0.102, 0.102, 0.995, 5002.223, 1095.596)" fill="#fff"/>
              <path id="Trazado_2931" data-name="Trazado 2931" d="M5002.519,1098.761a.271.271,0,0,1-.27-.244l-.3-2.893a.267.267,0,0,1,.059-.2.27.27,0,0,1,.183-.1l6.061-.62a.273.273,0,0,1,.3.243l.295,2.892a.271.271,0,0,1-.242.3l-6.061.621Zm0-2.922.24,2.352,5.52-.565-.24-2.352Z" fill="#bfbfbf"/>
            </g>
            <g id="Grupo_1768" data-name="Grupo 1768">
              <path id="Trazado_2932" data-name="Trazado 2932" d="M5001.132,1062.766s.566-.985,1.93-.3,6.146,34.089,6.146,34.089l-7.394.682-2.048-19.566Z" fill="#3a4f12"/>
            </g>
            <g id="Grupo_1773" data-name="Grupo 1773">
              <g id="Grupo_1769" data-name="Grupo 1769">
                <rect id="Rectángulo_885" data-name="Rectángulo 885" width="8.238" height="9.032" transform="translate(4998.255 1076.84) rotate(-9.354)" fill="#52904c"/>
              </g>
              <g id="Grupo_1772" data-name="Grupo 1772">
                <g id="Grupo_1770" data-name="Grupo 1770">
                  <rect id="Rectángulo_886" data-name="Rectángulo 886" width="8.238" height="1.431" transform="translate(4998.615 1079.023) rotate(-9.355)" fill="#fff"/>
                </g>
                <g id="Grupo_1771" data-name="Grupo 1771">
                  <rect id="Rectángulo_887" data-name="Rectángulo 887" width="8.239" height="1.431" transform="translate(4999.131 1082.157) rotate(-9.358)" fill="#fff"/>
                </g>
              </g>
            </g>
            <g id="Grupo_1774" data-name="Grupo 1774">
              <path id="Trazado_2933" data-name="Trazado 2933" d="M4976.96,1081.146a4.356,4.356,0,0,1-3.035-1.073c-1.318-1.193-1.9-3.292-1.725-6.237a21.533,21.533,0,0,1,.6-3.908l1.534.41-.767-.2.767.2a20.5,20.5,0,0,0-.555,3.618c-.1,1.67.037,3.882,1.208,4.942.97.877,2.624.884,4.916.02l.56,1.487A10.124,10.124,0,0,1,4976.96,1081.146Z" fill="#b0b0b0"/>
            </g>
            <g id="Grupo_1775" data-name="Grupo 1775">
              <path id="Trazado_2934" data-name="Trazado 2934" d="M4976.964,1080.749a3.979,3.979,0,0,1-2.772-.97c-1.224-1.109-1.761-3.1-1.6-5.919a21.223,21.223,0,0,1,.592-3.83l.767.2-.383-.1.383.1c-.017.067-1.745,6.679.77,8.956,1.089.985,2.88,1.018,5.323.1l.28.743A9.726,9.726,0,0,1,4976.964,1080.749Z" fill="#fff"/>
            </g>
            <g id="Grupo_1776" data-name="Grupo 1776">
              <path id="Trazado_2935" data-name="Trazado 2935" d="M4975.489,1080.529a3.725,3.725,0,0,1-.412-.163l.335-.72a2.909,2.909,0,0,0,.325.129Zm3.352-.029-.19-.771c.121-.03.245-.063.37-.1l.218.763C4979.1,1080.433,4978.971,1080.468,4978.841,1080.5Zm-5.891-2.785c-.04-.13-.078-.267-.113-.4l.771-.191c.031.124.064.245.1.36Zm.43-3.639-.793-.038c.006-.134.014-.27.024-.406l.792.057C4973.394,1073.819,4973.386,1073.949,4973.38,1074.076Zm.485-3.468-.774-.177c.057-.251.1-.4.1-.4l.767.2S4973.918,1070.375,4973.865,1070.608Zm.09-.373-.383-.1.383.1Z" fill="#b0b0b0"/>
            </g>
            <g id="Grupo_1779" data-name="Grupo 1779">
              <g id="Grupo_1777" data-name="Grupo 1777">
                <path id="Trazado_2936" data-name="Trazado 2936" d="M4999.12,1062.133a.754.754,0,0,1-.927.482c-.455-.077-.776-.415-.719-.758a.755.755,0,0,1,.927-.48C4998.855,1061.453,4999.177,1061.793,4999.12,1062.133Z" fill="#d6a226"/>
              </g>
              <g id="Grupo_1778" data-name="Grupo 1778">
                <path id="Trazado_2937" data-name="Trazado 2937" d="M4980.6,1062.133a.754.754,0,0,0,.926.482c.455-.077.777-.415.719-.758a.754.754,0,0,0-.926-.48C4980.869,1061.453,4980.548,1061.793,4980.6,1062.133Z" fill="#d6a226"/>
              </g>
            </g>
            <g id="Grupo_1780" data-name="Grupo 1780">
              <path id="Trazado_2938" data-name="Trazado 2938" d="M4978.441,1062.5l-.2,10.516-20.618-7.3,3.6-6.937Z" fill="#33440d"/>
            </g>
            <g id="Grupo_1782" data-name="Grupo 1782">
              <g id="Grupo_1781" data-name="Grupo 1781">
                <path id="Trazado_2939" data-name="Trazado 2939" d="M4999.608,1130.33s-2.379,28.875-2.379,32.011c1.436.893,1.436.761,7.117,3.738l-2.967,1.622-9.74-2.142-.4-35.349Z" fill="#e9c3aa"/>
              </g>
            </g>
            <g id="Grupo_1783" data-name="Grupo 1783">
              <path id="Trazado_2940" data-name="Trazado 2940" d="M5003.5,1165.021s-3.16-1.4-4.021-1.8a3.737,3.737,0,0,0-4.317,1.724c-.074.186.583.534.85.8-1.389-.464-4.622-1.454-4.622-1.454-.066,1.588-.132,4.5-.132,4.5s14.354,4.1,16.741,1.423C5009.617,1168.4,5007.4,1166.543,5003.5,1165.021Z" fill="#202020"/>
            </g>
            <g id="Grupo_1784" data-name="Grupo 1784">
              <rect id="Rectángulo_888" data-name="Rectángulo 888" width="9.961" height="14.94" transform="translate(4984.867 1063.719)" fill="#fff"/>
            </g>
            <g id="Grupo_1785" data-name="Grupo 1785">
              <path id="Trazado_2941" data-name="Trazado 2941" d="M4990.732,1066.829l1.164-3.186h-4.247l1.162,3.186-1.769,13.3,2.73,4.5,2.73-4.5Z" fill="#3e5a6d"/>
            </g>
            <g id="Grupo_1786" data-name="Grupo 1786">
              <path id="Trazado_2942" data-name="Trazado 2942" d="M4985.36,1060.787l4.4,2.805-3.261,4.4-2.882-4.627Z" fill="#fff"/>
              <path id="Trazado_2943" data-name="Trazado 2943" d="M4986.5,1068.264h-.011a.27.27,0,0,1-.22-.127l-2.882-4.627a.272.272,0,0,1,.005-.3l1.745-2.578a.272.272,0,0,1,.371-.077l4.4,2.805a.275.275,0,0,1,.121.18.27.27,0,0,1-.049.211l-3.261,4.4A.271.271,0,0,1,4986.5,1068.264Zm-2.559-4.893,2.578,4.139,2.85-3.845-3.93-2.507Z" fill="#bfbfbf"/>
            </g>
            <g id="Grupo_1787" data-name="Grupo 1787">
              <path id="Trazado_2944" data-name="Trazado 2944" d="M4994.284,1060.787l-4.4,2.805,3.262,4.4,2.881-4.627Z" fill="#fff"/>
              <path id="Trazado_2945" data-name="Trazado 2945" d="M4993.147,1068.264a.274.274,0,0,1-.218-.11l-3.262-4.4a.27.27,0,0,1-.049-.211.275.275,0,0,1,.121-.18l4.4-2.805a.271.271,0,0,1,.371.077l1.744,2.578a.27.27,0,0,1,.006.3l-2.881,4.628a.27.27,0,0,1-.22.127Zm-2.87-4.6,2.851,3.846,2.577-4.139-1.5-2.213Z" fill="#bfbfbf"/>
            </g>
            <g id="Grupo_1788" data-name="Grupo 1788">
              <path id="Trazado_2946" data-name="Trazado 2946" d="M4989.007,1066.835l1.081.115-.266,2.237-.247-2.01Z" fill="#213b53"/>
            </g>
            <g id="Grupo_1789" data-name="Grupo 1789">
              <path id="Trazado_2947" data-name="Trazado 2947" d="M5000.98,1092.307s-1.422-4.268-.826-5.856a42.1,42.1,0,0,0,1.861-13.366c-.11-4.268-.472-10.555-.472-10.555l-6.428-1.182-5.284,14.293-5.284-14.293-6.428,1.182a77.852,77.852,0,0,0-1.372,10.555,35.6,35.6,0,0,0,2.761,13.366c.6,1.588-.827,5.856-.827,5.856s-1.257,3.971-3.342,10.621c4.226,4.225,13.525,3.46,14.492,1.216.967,2.244,10.287,2.988,14.491-1.216C5002.238,1096.278,5000.98,1092.307,5000.98,1092.307Z" fill="#3a4f12"/>
            </g>
            <g id="Grupo_1791" data-name="Grupo 1791">
              <g id="Grupo_1790" data-name="Grupo 1790">
                <path id="Trazado_2948" data-name="Trazado 2948" d="M4979.965,1130.33s2.38,28.875,2.38,32.011c-1.438.893-1.438.761-7.118,3.738l2.967,1.622,9.74-2.142.4-35.349Z" fill="#e9c3aa"/>
              </g>
            </g>
            <g id="Grupo_1792" data-name="Grupo 1792">
              <path id="Trazado_2949" data-name="Trazado 2949" d="M5000.372,1094.014h-21.027s-4.673,8.986-3.775,16.714,1.154,18.561,1.154,22.645a58.357,58.357,0,0,0,13.045,2.155v0h.179v0a53.775,53.775,0,0,0,12.581-2.155c0-3.786.719-14.916,1.618-22.645S5000.372,1094.014,5000.372,1094.014Z" fill="#3a4f12"/>
            </g>
            <g id="Grupo_1793" data-name="Grupo 1793">
              <path id="Trazado_2950" data-name="Trazado 2950" d="M4990.973,1084.971a1.195,1.195,0,1,1-1.194-1.195A1.195,1.195,0,0,1,4990.973,1084.971Z" fill="#d6a226"/>
            </g>
            <g id="Grupo_1794" data-name="Grupo 1794">
              <path id="Trazado_2951" data-name="Trazado 2951" d="M4990.973,1078a1.195,1.195,0,1,1-1.194-1.194A1.2,1.2,0,0,1,4990.973,1078Z" fill="#d6a226"/>
            </g>
            <g id="Grupo_1795" data-name="Grupo 1795">
              <path id="Trazado_2952" data-name="Trazado 2952" d="M4990.973,1091.939a1.195,1.195,0,1,1-1.194-1.194A1.194,1.194,0,0,1,4990.973,1091.939Z" fill="#d6a226"/>
            </g>
            <g id="Grupo_1796" data-name="Grupo 1796">
              <path id="Trazado_2953" data-name="Trazado 2953" d="M4982.415,1092.019l-3.393-.472.09-.646,2.8.389.386-1.712-2.807-.382.088-.646,3.511.478Z" fill="#193306"/>
            </g>
            <g id="Grupo_1797" data-name="Grupo 1797">
              <path id="Trazado_2954" data-name="Trazado 2954" d="M4997.142,1092.018l-.676-2.99,3.579-.477.086.646-2.872.383.387,1.712,2.867-.39.088.646Z" fill="#193306"/>
            </g>
            <g id="Grupo_1798" data-name="Grupo 1798">
              <path id="Trazado_2955" data-name="Trazado 2955" d="M4997.875,1075.254a.627.627,0,1,1-.626-.627A.626.626,0,0,1,4997.875,1075.254Z" fill="#d6a226"/>
            </g>
            <g id="Grupo_1799" data-name="Grupo 1799">
              <path id="Trazado_2956" data-name="Trazado 2956" d="M4997.249,1076.964l-3-.83.174-.628,2.825.782,2.824-.782.174.628Z" fill="#193306"/>
            </g>
            <g id="Grupo_1800" data-name="Grupo 1800">
              <rect id="Rectángulo_889" data-name="Rectángulo 889" width="0.652" height="3.827" transform="translate(4996.922 1076.628)" fill="#193306"/>
            </g>
            <g id="Grupo_1801" data-name="Grupo 1801">
              <path id="Trazado_2957" data-name="Trazado 2957" d="M5001.189,1064.1l-3.744-.507.083-.613,3.073.416.031-.7.618.027Z" fill="#193306"/>
            </g>
            <g id="Grupo_1802" data-name="Grupo 1802">
              <path id="Trazado_2958" data-name="Trazado 2958" d="M4966.6,1050.152s2.187-4.141,2.744-4.767c3.394-3.812,5.771-7.093,5.673-7.373-.361-1.02-3.458,1.857-3.458,1.857s1.867-3.7,3.933-7.336c1.44-2.539-4.678,1.891-6.131,3.322-1.234,2.228-3.076,5.593-3.808,7.255-.214.405-3.2,4.9-3.2,4.9Z" fill="#e9c3aa"/>
            </g>
            <g id="Grupo_1803" data-name="Grupo 1803">
              <path id="Trazado_2959" data-name="Trazado 2959" d="M4969.316,1046.779l-5.324-2.964-1.6,2.8,5.325,2.964Z" fill="#fff"/>
              <path id="Trazado_2960" data-name="Trazado 2960" d="M4967.718,1049.848a.259.259,0,0,1-.131-.035l-5.325-2.963a.272.272,0,0,1-.129-.164.269.269,0,0,1,.025-.208l1.6-2.8a.271.271,0,0,1,.367-.1l5.324,2.964a.27.27,0,0,1,.1.372l-1.6,2.8A.271.271,0,0,1,4967.718,1049.848Zm-4.952-3.339,4.85,2.7,1.328-2.325-4.849-2.7Z" fill="#bfbfbf"/>
            </g>
            <g id="Grupo_1804" data-name="Grupo 1804">
              <path id="Trazado_2961" data-name="Trazado 2961" d="M4962.461,1044.2l7.04,3.878-6.969,12.824-4.914,4.813s-5.39-1.934-3.392-6.081S4962.461,1044.2,4962.461,1044.2Z" fill="#33440d"/>
            </g>
            <g id="Grupo_1805" data-name="Grupo 1805">
              <path id="Trazado_2962" data-name="Trazado 2962" d="M4971.211,1061l-1.19.883-2.726-.922-.576-.96Z" fill="#d6a226"/>
              <path id="Trazado_2963" data-name="Trazado 2963" d="M4970.02,1062.183a.285.285,0,0,1-.1-.016l-2.726-.922a.3.3,0,0,1-.16-.129l-.576-.959a.3.3,0,0,1,.32-.444l4.493,1a.3.3,0,0,1,.112.529l-1.19.883A.3.3,0,0,1,4970.02,1062.183Zm-2.526-1.467,2.474.837.542-.4-3.179-.706Z" fill="#d6a226"/>
            </g>
            <g id="Grupo_1806" data-name="Grupo 1806">
              <path id="Trazado_2964" data-name="Trazado 2964" d="M4984.127,1106.29a16.876,16.876,0,0,1-3.3-.324,11.1,11.1,0,0,1-5.717-2.808l.461-.461c2.671,2.671,7.638,3.385,11.164,2.709,1.5-.287,2.546-.807,2.8-1.391l.3-.694.3.694c.25.58,1.291,1.1,2.785,1.384,3.535.677,8.509-.034,11.177-2.7l.46.461a11.082,11.082,0,0,1-5.718,2.8,16.344,16.344,0,0,1-6.042.08,4.007,4.007,0,0,0-5.935.007A14.656,14.656,0,0,1,4984.127,1106.29Z" fill="#193306"/>
            </g>
            <g id="Grupo_1807" data-name="Grupo 1807">
              <path id="Trazado_2965" data-name="Trazado 2965" d="M4997.248,1080.818l-3.237-1.582v-5.724h6.475v5.724Zm-2.586-1.989,2.586,1.264,2.586-1.264v-4.665h-5.172Z" fill="#193306"/>
            </g>
            <g id="Grupo_1808" data-name="Grupo 1808">
              <path id="Trazado_2966" data-name="Trazado 2966" d="M4981.83,1075.254a.627.627,0,1,0,.627-.627A.627.627,0,0,0,4981.83,1075.254Z" fill="#d6a226"/>
            </g>
            <g id="Grupo_1809" data-name="Grupo 1809">
              <path id="Trazado_2967" data-name="Trazado 2967" d="M4982.457,1076.964l-3-.83.174-.628,2.824.782,2.824-.782.174.628Z" fill="#193306"/>
            </g>
            <g id="Grupo_1810" data-name="Grupo 1810">
              <rect id="Rectángulo_890" data-name="Rectángulo 890" width="0.652" height="3.827" transform="translate(4982.131 1076.628)" fill="#193306"/>
            </g>
            <g id="Grupo_1811" data-name="Grupo 1811">
              <path id="Trazado_2968" data-name="Trazado 2968" d="M4982.457,1080.818l-3.237-1.582v-5.724h6.474v5.724Zm-2.586-1.989,2.586,1.264,2.586-1.264v-4.665h-5.172Z" fill="#193306"/>
            </g>
            <g id="Grupo_1812" data-name="Grupo 1812">
              <path id="Trazado_2969" data-name="Trazado 2969" d="M4976.076,1165.021s3.161-1.4,4.021-1.8a3.737,3.737,0,0,1,4.317,1.724c.075.186-.583.534-.85.8,1.39-.464,4.622-1.454,4.622-1.454.066,1.588.132,4.5.132,4.5s-14.354,4.1-16.74,1.423C4969.956,1168.4,4972.173,1166.543,4976.076,1165.021Z" fill="#202020"/>
            </g>
            <g id="Grupo_1814" data-name="Grupo 1814">
              <g id="Grupo_1813" data-name="Grupo 1813">
                <path id="Trazado_2970" data-name="Trazado 2970" d="M4988.348,1135.467c.5.035.982.057,1.421.061v0h.179v0c.43,0,.893-.026,1.377-.059l-1.489-12.481Z" fill="#193306"/>
              </g>
            </g>
            <g id="Grupo_1815" data-name="Grupo 1815">
              <path id="Trazado_2971" data-name="Trazado 2971" d="M4983.213,1075.184a3.481,3.481,0,0,1-.869-.108c-1.565-.4-2.724-1.856-3.444-4.325l1.525-.444c.379,1.3,1.089,2.917,2.313,3.231,1.568.4,3.392-1.368,3.41-1.386l1.123,1.123A6.657,6.657,0,0,1,4983.213,1075.184Z" fill="#b0b0b0"/>
            </g>
            <g id="Grupo_1816" data-name="Grupo 1816">
              <path id="Trazado_2972" data-name="Trazado 2972" d="M4983.008,1078.084c-.068,0-.136,0-.2-.005-1.864-.081-3.514-1.243-4.905-3.455l1.345-.845c1.1,1.744,2.317,2.657,3.629,2.714a5.147,5.147,0,0,0,3.246-1.319,9.484,9.484,0,0,0,1.448-1.452l1.266.959C4988.725,1074.823,4986.218,1078.084,4983.008,1078.084Z" fill="#b0b0b0"/>
            </g>
            <g id="Grupo_1817" data-name="Grupo 1817">
              <path id="Trazado_2973" data-name="Trazado 2973" d="M4983.22,1074.788a3.116,3.116,0,0,1-.778-.1c-1.419-.364-2.482-1.727-3.16-4.052l.762-.222c.594,2.036,1.467,3.215,2.6,3.505,1.81.463,3.771-1.471,3.79-1.49l.562.561A6.244,6.244,0,0,1,4983.22,1074.788Z" fill="#fff"/>
            </g>
            <g id="Grupo_1818" data-name="Grupo 1818">
              <path id="Trazado_2974" data-name="Trazado 2974" d="M4983.009,1077.687c-.062,0-.125,0-.188,0-1.727-.075-3.27-1.175-4.587-3.27l.673-.422c1.169,1.859,2.5,2.834,3.945,2.9,2.685.119,5.008-2.9,5.031-2.927l.633.479C4988.413,1074.577,4986.023,1077.687,4983.009,1077.687Z" fill="#fff"/>
            </g>
            <g id="Grupo_1819" data-name="Grupo 1819">
              <path id="Trazado_2975" data-name="Trazado 2975" d="M4983.218,1074.788h-.016l0-.794h.013a2.681,2.681,0,0,0,.333-.021l.1.788A3.473,3.473,0,0,1,4983.218,1074.788Zm3.452-1.505-.513-.606c.172-.145.271-.244.272-.245l.562.562C4986.986,1073,4986.87,1073.115,4986.67,1073.283ZM4980.3,1073c-.074-.115-.147-.238-.216-.364l.695-.384c.061.111.125.218.189.319Z" fill="#b0b0b0"/>
            </g>
            <g id="Grupo_1820" data-name="Grupo 1820">
              <path id="Trazado_2976" data-name="Trazado 2976" d="M4982,1077.566c-.141-.034-.281-.076-.419-.124l.265-.749a3.45,3.45,0,0,0,.342.1Zm3.347-.475-.354-.711c.109-.054.22-.114.33-.177l.4.689C4985.6,1076.963,4985.471,1077.03,4985.348,1077.091Zm-6.422-1.695c-.084-.106-.168-.216-.25-.329l.642-.468c.076.1.153.206.23.3Zm9.318-.626-.6-.521c.153-.175.237-.286.238-.287l.633.479C4988.512,1074.447,4988.416,1074.572,4988.244,1074.77Z" fill="#b0b0b0"/>
            </g>
            <g id="Grupo_1821" data-name="Grupo 1821">
              <path id="Trazado_2977" data-name="Trazado 2977" d="M4975.792,1078.3a1.483,1.483,0,0,1-1.157-.552c-.528-.639-.713-1.791-.582-3.625a22.224,22.224,0,0,1,.3-2.323l1.56.3a21.112,21.112,0,0,0-.279,2.239,4.4,4.4,0,0,0,.21,2.374c.454-.043,1-.674,1.518-1.746a22.889,22.889,0,0,0,1.479-4.671,65.241,65.241,0,0,0,1.126-6.942l1.581.156a66.347,66.347,0,0,1-1.157,7.135,24.481,24.481,0,0,1-1.6,5.008,6.611,6.611,0,0,1-1.195,1.809A2.515,2.515,0,0,1,4975.792,1078.3Z" fill="#b0b0b0"/>
            </g>
            <g id="Grupo_1822" data-name="Grupo 1822">
              <path id="Trazado_2978" data-name="Trazado 2978" d="M4975.792,1077.907a1.08,1.08,0,0,1-.851-.408c-.453-.548-.614-1.641-.492-3.343a21.939,21.939,0,0,1,.291-2.278l.78.148a21.686,21.686,0,0,0-.279,2.194c-.142,1.99.171,2.6.312,2.772a.283.283,0,0,0,.239.121c.808,0,1.493-1.073,1.925-1.974a23.327,23.327,0,0,0,1.509-4.755,65.963,65.963,0,0,0,1.133-6.99l.791.078a66.962,66.962,0,0,1-1.15,7.087,24.029,24.029,0,0,1-1.567,4.923C4977.661,1077.092,4976.773,1077.907,4975.792,1077.907Z" fill="#fff"/>
            </g>
            <g id="Grupo_1823" data-name="Grupo 1823">
              <path id="Trazado_2979" data-name="Trazado 2979" d="M4976.782,1077.614l-.415-.677a1.9,1.9,0,0,0,.259-.194l.527.594A2.687,2.687,0,0,1,4976.782,1077.614Zm-2.36-1.978c-.007-.131-.01-.271-.011-.414l.794-.005c0,.132,0,.26.01.38Zm4.443-1.166-.741-.285c.045-.118.091-.24.135-.364l.748.268C4978.96,1074.218,4978.913,1074.346,4978.865,1074.47Zm-3.363-2.342-.782-.138c.012-.073.02-.112.02-.112l.78.149S4975.513,1072.064,4975.5,1072.128Zm4.4-1.139-.773-.183c.031-.128.06-.256.089-.385l.775.176C4979.962,1070.727,4979.932,1070.858,4979.9,1070.989Zm.7-3.539-.783-.131c.022-.132.043-.262.064-.39l.783.126C4980.648,1067.185,4980.626,1067.316,4980.6,1067.45Zm.5-3.572-.789-.089c.028-.251.042-.394.042-.395l.791.078C4981.149,1063.478,4981.135,1063.621,4981.106,1063.878Z" fill="#b0b0b0"/>
            </g>
            <g id="Grupo_1824" data-name="Grupo 1824">
              <path id="Trazado_2980" data-name="Trazado 2980" d="M4978.49,1064.1l-.062-1.378.618-.028.031.7,3.073-.416.083.613Z" fill="#193306"/>
            </g>
            <g id="Grupo_1827" data-name="Grupo 1827">
              <g id="Grupo_1825" data-name="Grupo 1825">
                <path id="Trazado_2981" data-name="Trazado 2981" d="M4989.569,1075.914l-8.069-7.828,2.163-1.554-3.068-.147,1.847-4.647.575.228-1.527,3.843,3.975.19-3,2.157,7.539,7.313Z" fill="#193306"/>
              </g>
              <g id="Grupo_1826" data-name="Grupo 1826">
                <path id="Trazado_2982" data-name="Trazado 2982" d="M4990.075,1075.914l-.43-.444,7.54-7.313-3-2.157,3.975-.19-1.527-3.843.575-.228,1.846,4.647-3.067.147,2.165,1.554Z" fill="#193306"/>
              </g>
            </g>
            <g id="Grupo_1828" data-name="Grupo 1828">
              <path id="Trazado_2983" data-name="Trazado 2983" d="M4970.63,1070.3l6.75.926.166,2.084Z" fill="#3a4f12"/>
            </g>
          </g>
        </g>
      </g>
    </g>
  </g>
</svg>
