<svg xmlns="http://www.w3.org/2000/svg" width="152.443" height="152.443" viewBox="0 0 152.443 152.443"><g transform="translate(-276.412 -3493.014)"><path d="M352.634,3493.014q3.744,0,7.47.367t7.4,1.1q3.674.731,7.256,1.817t7.043,2.52q3.461,1.433,6.762,3.2t6.416,3.846q3.112,2.08,6.008,4.456t5.542,5.023q2.648,2.647,5.024,5.542t4.455,6.008q2.08,3.114,3.846,6.416t3.2,6.762q1.432,3.459,2.52,7.043t1.817,7.256q.73,3.672,1.1,7.4t.367,7.472q0,3.744-.367,7.471t-1.1,7.4q-.73,3.672-1.817,7.256t-2.52,7.042q-1.433,3.46-3.2,6.762t-3.846,6.416q-2.08,3.112-4.455,6.008t-5.024,5.542q-2.647,2.649-5.542,5.024t-6.008,4.455q-3.114,2.082-6.416,3.846t-6.762,3.2q-3.459,1.433-7.043,2.52t-7.256,1.818q-3.672.731-7.4,1.1t-7.47.367q-3.746,0-7.472-.367t-7.4-1.1q-3.672-.73-7.255-1.818t-7.043-2.52q-3.461-1.433-6.762-3.2t-6.416-3.846q-3.114-2.079-6.008-4.455t-5.542-5.024q-2.649-2.648-5.024-5.542t-4.455-6.008q-2.08-3.114-3.846-6.416t-3.2-6.762q-1.432-3.459-2.52-7.042t-1.818-7.256q-.73-3.673-1.1-7.4t-.367-7.471q0-3.746.367-7.472t1.1-7.4q.73-3.673,1.818-7.256t2.52-7.043q1.433-3.459,3.2-6.762t3.846-6.416q2.079-3.112,4.455-6.008t5.024-5.542q2.648-2.648,5.542-5.023t6.008-4.456q3.114-2.081,6.416-3.846t6.762-3.2q3.459-1.432,7.043-2.52t7.255-1.817q3.674-.731,7.4-1.1T352.634,3493.014Z" fill="#a3bd31"/><circle cx="71.597" cy="71.597" r="71.597" transform="translate(281.037 3497.639)" fill="#fff"/><circle cx="65.13" cy="65.13" r="65.13" transform="translate(287.503 3504.105)" fill="#78958a"/><path d="M327.758,3555.1h6.778v6.777h-6.778V3555.1Zm0,10.864h6.778v6.777h-6.778v-6.777Zm0,10.863h6.778v6.778h-6.778v-6.778Zm10.6-21.727H362.23v6.777H338.355V3555.1Zm0,10.864H362.23v6.776H338.355v-6.776Zm0,10.863H362.23v6.777H338.355v-6.777Zm-18.36-39.768a4.309,4.309,0,0,0-4.3,4.3v64.554a4.31,4.31,0,0,0,4.3,4.3h50a4.31,4.31,0,0,0,4.3-4.3v-64.554a4.31,4.31,0,0,0-4.3-4.3h-7.768v7.221h6.1V3592.7H358.043v10.281H321.664v-58.7h6.1v-7.221Zm25-6.308a2.427,2.427,0,1,0,2.428,2.427,2.427,2.427,0,0,0-2.428-2.427Zm-13.4,2.427h6.945a6.458,6.458,0,0,1,12.917,0H358.4a1.618,1.618,0,0,1,1.613,1.613V3545.9a1.621,1.621,0,0,1-1.613,1.613H331.591a1.618,1.618,0,0,1-1.612-1.613v-11.113a1.617,1.617,0,0,1,1.612-1.613Zm56.43,16.428,3.015,7.831a16.645,16.645,0,0,1,.093,3.217l-8.724,0a16.894,16.894,0,0,1,.093-3.221l3.005-7.829c.332-.686,2.185-.662,2.518,0Zm3.13,52.335-.021-39.109-8.725,0,.021,39.11C382.428,3605.29,391.153,3605.3,391.151,3601.937Z" fill="#fff" fill-rule="evenodd" opacity="0.8"/></g></svg>