<svg xmlns="http://www.w3.org/2000/svg" width="152.443" height="152.443" viewBox="0 0 152.443 152.443"><g transform="translate(-649.732 -3492.238)"><path d="M725.954,3492.238q3.744,0,7.471.367t7.4,1.1q3.672.731,7.256,1.817t7.043,2.52q3.459,1.434,6.761,3.2t6.416,3.845q3.114,2.08,6.008,4.456t5.543,5.023q2.648,2.647,5.023,5.543t4.456,6.008q2.08,3.112,3.845,6.415t3.2,6.762q1.434,3.46,2.52,7.043t1.818,7.256q.73,3.672,1.1,7.4t.367,7.471q0,3.744-.367,7.471t-1.1,7.4q-.73,3.673-1.818,7.256t-2.52,7.043q-1.432,3.459-3.2,6.762t-3.845,6.415q-2.081,3.114-4.456,6.009t-5.023,5.542q-2.649,2.648-5.543,5.023t-6.008,4.456q-3.113,2.08-6.416,3.846t-6.761,3.2q-3.461,1.434-7.043,2.52t-7.256,1.818q-3.673.73-7.4,1.1t-7.471.368q-3.744,0-7.471-.368t-7.4-1.1q-3.673-.731-7.256-1.818t-7.043-2.52q-3.459-1.432-6.762-3.2t-6.416-3.846q-3.113-2.08-6.008-4.456t-5.542-5.023q-2.648-2.647-5.023-5.542t-4.456-6.009q-2.081-3.112-3.846-6.415t-3.2-6.762q-1.433-3.459-2.52-7.043t-1.817-7.256q-.73-3.672-1.1-7.4t-.367-7.471q0-3.744.367-7.471t1.1-7.4q.73-3.672,1.817-7.256t2.52-7.043q1.434-3.459,3.2-6.762t3.846-6.415q2.081-3.114,4.456-6.008t5.023-5.543q2.648-2.647,5.542-5.023t6.008-4.456q3.114-2.08,6.416-3.845t6.762-3.2q3.459-1.433,7.043-2.52t7.256-1.817q3.672-.73,7.4-1.1T725.954,3492.238Z" fill="#a3bd31"/><circle cx="71.597" cy="71.597" r="71.597" transform="translate(654.357 3496.863)" fill="#fff"/><circle cx="65.13" cy="65.13" r="65.13" transform="translate(660.824 3503.329)" fill="#78958a"/><path d="M711.074,3566.561l-17.985,7.636c-7.124,2.624-7.639,21.86-7.639,28.4l.03,1.806h50.4a22.534,22.534,0,0,1,7.187-35.9l-4.577-1.943a10.407,10.407,0,0,1-5.121-4.829,22.229,22.229,0,0,0,5.134-9.012l1.117-.654A27.385,27.385,0,0,0,741.4,3541l-.826-.635c.217-3.029.132-8.481-1.315-11.149-5.525-10.2-23.425-10.2-28.949,0-1.447,2.668-1.532,8.12-1.315,11.149l-.827.635a27.42,27.42,0,0,0,1.78,11.061l1.116.654a22.252,22.252,0,0,0,5.134,9.012,10.4,10.4,0,0,1-5.12,4.829Zm41.276,4.03a18.445,18.445,0,1,1-18.445,18.445,18.446,18.446,0,0,1,18.445-18.445Zm0,5.946a12.5,12.5,0,1,1-12.5,12.5,12.5,12.5,0,0,1,12.5-12.5Zm-8.621,9.277v6.444h5.4v5.4h6.445v-5.4h5.4v-6.444h-5.4v-5.4h-6.445v5.4Z" fill="#fff" fill-rule="evenodd" opacity="0.8"/></g></svg>