<svg xmlns="http://www.w3.org/2000/svg" width="152.443" height="152.443" viewBox="0 0 152.443 152.443"><g transform="translate(-649.732 -3792.292)"><path d="M725.954,3792.292q3.744,0,7.471.367t7.4,1.1q3.672.73,7.256,1.818t7.043,2.52q3.459,1.433,6.761,3.2t6.416,3.845q3.114,2.08,6.008,4.456t5.543,5.023q2.648,2.649,5.023,5.543t4.456,6.008q2.08,3.112,3.845,6.416t3.2,6.761q1.434,3.46,2.52,7.043t1.818,7.256q.73,3.672,1.1,7.4t.367,7.471q0,3.746-.367,7.471t-1.1,7.4q-.73,3.673-1.818,7.256t-2.52,7.043q-1.432,3.459-3.2,6.762t-3.845,6.415q-2.081,3.114-4.456,6.009t-5.023,5.542q-2.649,2.648-5.543,5.023t-6.008,4.456q-3.113,2.08-6.416,3.846t-6.761,3.2q-3.461,1.432-7.043,2.52t-7.256,1.817q-3.673.731-7.4,1.1t-7.471.367q-3.744,0-7.471-.367t-7.4-1.1q-3.673-.731-7.256-1.817t-7.043-2.52q-3.459-1.434-6.762-3.2t-6.416-3.846q-3.113-2.08-6.008-4.456t-5.542-5.023q-2.648-2.647-5.023-5.542t-4.456-6.009q-2.081-3.112-3.846-6.415t-3.2-6.762q-1.433-3.459-2.52-7.043t-1.817-7.256q-.73-3.672-1.1-7.4t-.367-7.471q0-3.744.367-7.471t1.1-7.4q.73-3.672,1.817-7.256t2.52-7.043q1.434-3.459,3.2-6.761t3.846-6.416q2.081-3.114,4.456-6.008t5.023-5.543q2.648-2.647,5.542-5.023t6.008-4.456q3.114-2.08,6.416-3.845t6.762-3.2q3.459-1.434,7.043-2.52t7.256-1.818q3.672-.731,7.4-1.1T725.954,3792.292Z" fill="#a3bd31"/><circle cx="71.597" cy="71.597" r="71.597" transform="translate(654.357 3796.917)" fill="#fff"/><circle cx="65.13" cy="65.13" r="65.13" transform="translate(660.824 3803.383)" fill="#78958a"/><g opacity="0.8"><path d="M745.107,3880.346l-3.477,5.5H743.9a11.745,11.745,0,0,0,22.2,2.276l-1.638-2.444-.214-.318a9.1,9.1,0,0,1-17.63.486h1.965l-3.476-5.5Zm10.264-8.741a11.743,11.743,0,0,0-10.669,6.832l1.514,2.259.316.472a9.1,9.1,0,0,1,17.433-.822h-2.008l3.476,5.5,3.477-5.5h-2.185A11.746,11.746,0,0,0,755.371,3871.6Z" fill="#fff" fill-rule="evenodd"/><path d="M755.27,3862.008a21.008,21.008,0,1,0,21.009,21.008A21.009,21.009,0,0,0,755.27,3862.008Zm0,37.531a16.522,16.522,0,1,1,16.522-16.523A16.521,16.521,0,0,1,755.27,3899.539Z" fill="#fff"/><path d="M698.31,3864.829a19.544,19.544,0,0,0,2.438,4.6,7.718,7.718,0,0,0,3.3,2.94,7.441,7.441,0,0,0,3.772,0,7.728,7.728,0,0,0,3.3-2.94,19.616,19.616,0,0,0,2.438-4.6.9.9,0,0,0,.7-.547,19.366,19.366,0,0,0,.545-4.077c.007-.2-.411-.6-.584-.614.067-5.457-.962-10.3-8.291-10.3s-8.359,4.846-8.292,10.3c-.172.018-.59.41-.584.614a19.377,19.377,0,0,0,.546,4.077A.9.9,0,0,0,698.31,3864.829Z" fill="#fff"/><path d="M735.369,3889.745H681.083v-45.931H755.02v18.257a46.591,46.591,0,0,1,5.453.588v-22.582H675.629v53.843H737.31A20.912,20.912,0,0,1,735.369,3889.745Z" fill="#fff"/><path d="M687.638,3883.017h36.6c-2.136-4.744-6-8.9-12.658-11.412a7.93,7.93,0,0,1-3.159,2.358,8.936,8.936,0,0,1-4.965,0,7.937,7.937,0,0,1-3.159-2.358C693.642,3874.122,689.774,3878.273,687.638,3883.017Z" fill="#fff"/><rect width="25.606" height="3.436" transform="translate(721.459 3859.022)" fill="#fff"/><rect width="25.606" height="3.435" transform="translate(721.459 3852.584)" fill="#fff"/><rect width="13.951" height="3.436" transform="translate(721.459 3865.46)" fill="#fff"/></g></g></svg>