<svg xmlns="http://www.w3.org/2000/svg" width="152.443" height="152.443" viewBox="0 0 152.443 152.443"><g transform="translate(-276.412 -4093.122)"><path d="M352.634,4093.122q3.744,0,7.47.367t7.4,1.1q3.674.731,7.256,1.817t7.043,2.52q3.461,1.433,6.762,3.2t6.416,3.846q3.112,2.081,6.008,4.456t5.542,5.023q2.648,2.648,5.024,5.542t4.455,6.008q2.08,3.114,3.846,6.416t3.2,6.762q1.432,3.459,2.52,7.043t1.817,7.256q.73,3.672,1.1,7.4t.367,7.471q0,3.743-.367,7.471t-1.1,7.4q-.73,3.672-1.817,7.256t-2.52,7.043q-1.433,3.458-3.2,6.761t-3.846,6.416q-2.08,3.114-4.455,6.008t-5.024,5.542q-2.647,2.648-5.542,5.024t-6.008,4.455q-3.114,2.082-6.416,3.846t-6.762,3.2q-3.459,1.432-7.043,2.52T367.5,4244.1q-3.672.73-7.4,1.1t-7.47.367q-3.746,0-7.472-.367t-7.4-1.1q-3.672-.731-7.255-1.818t-7.043-2.52q-3.461-1.433-6.762-3.2t-6.416-3.846q-3.114-2.079-6.008-4.455t-5.542-5.024q-2.649-2.648-5.024-5.542t-4.455-6.008q-2.08-3.114-3.846-6.416t-3.2-6.761q-1.432-3.461-2.52-7.043t-1.818-7.256q-.73-3.672-1.1-7.4t-.367-7.471q0-3.746.367-7.471t1.1-7.4q.73-3.674,1.818-7.256t2.52-7.043q1.433-3.458,3.2-6.762t3.846-6.416q2.079-3.113,4.455-6.008t5.024-5.542q2.648-2.647,5.542-5.023t6.008-4.456q3.114-2.08,6.416-3.846t6.762-3.2q3.459-1.432,7.043-2.52t7.255-1.817q3.674-.73,7.4-1.1T352.634,4093.122Z" fill="#a3bd31"/><circle cx="71.597" cy="71.597" r="71.597" transform="translate(281.037 4097.747)" fill="#fff"/><circle cx="65.13" cy="65.13" r="65.13" transform="translate(287.503 4104.213)" fill="#78958a"/><path d="M353.706,4152.012l-6.722-6.721-6.819,6.819-6.82-6.819-6.721,6.721,6.82,6.819-6.82,6.82,6.721,6.721,6.82-6.819,6.819,6.819,6.722-6.721-6.82-6.82,6.82-6.819Zm-7.172,48.924H333.265v-10.448a32.384,32.384,0,1,1,38.334-38.334h5.966v-8.577c.016-1.36.555-1.607,1.48-1.036l21.057,15.008c.947.7.851,1.4-.013,2.1l-21.058,15.008c-.962.662-1.406.21-1.466-1.065v-8.17H365.646a6.635,6.635,0,0,1-6.635-6.635A19.111,19.111,0,1,0,339.9,4177.9a6.635,6.635,0,0,1,6.634,6.634v16.4ZM360.55,4173.1c-3.231,5.62-.4,12.864,2.816,15.568a5.818,5.818,0,0,0,6.2,0c3.215-2.7,6.048-9.948,2.816-15.568a6.988,6.988,0,0,0-11.834,0Zm13.374,14.7c-4.319,5.63-10.6,5.63-14.913,0-5.525,2.917-8.772,12.733-9.179,17.706-.57,6.962,33.84,6.962,33.27,0C382.7,4200.532,379.449,4190.716,373.924,4187.8Z" fill="#fff" fill-rule="evenodd" opacity="0.8"/></g></svg>