<svg xmlns="http://www.w3.org/2000/svg" xmlns:xlink="http://www.w3.org/1999/xlink" width="428.453" height="328.306" viewBox="0 0 428.453 328.306"><defs><clipPath id="a"><path d="M1205.992,287.136s8.529-7.295,10.269-10.428,10.269-21.06,14.273-21.93,16.534,9.051,21.756,12.01,20.016-.505,23.845,4.185,10.618,16.527,16.883,29.407,10.1,26.8,13.751,33.244,8.354,13.576,19.145,28.893,37.248,55.7,37.248,55.7h-61.441s-15.491-46.472-24.019-58.829-14.273-12.184-21.409-14.447-24.3-8.906-33.472-19.247-12.559-4.08-17.106-13.823c-2.3-4.919,4.188-5.731,2.1-12.74s9.994-7.3,13.435-3.8c1.593,1.623,4.116,3.986,2.524,10.4,0,0,6.214-.3,9.011,2.654a13.579,13.579,0,0,1,6.626.765s8.877-7.379,8.7-15.385-2.442-11.816-15.329-17.928c0,0-4.635,6.092-8.142,6.44,0,0-4.659,5.1-7,6.683S1208.081,293.037,1205.992,287.136Z" fill="#dcad8d"/></clipPath><clipPath id="b"><path d="M1146.106,243.841a31.355,31.355,0,0,0-17.294,10.179c-.146.173-.289.351-.429.538-.284.369-.423.583-.423.583s-6.138,1.016-8.246,4.5a13.584,13.584,0,0,0-6.315,2.148,32.7,32.7,0,0,1-6.879-5.074c-9.176,12.824-11.266,30.715-5.031,45.221.973-.507,1.963-1.021,2.974-1.6,6.5-3.72,21.869-13.842,28.646-25.889,5.529-9.827,9.632-8.043,12.251-12.744l0,0c2.919-3.083,3.59-5.789,10.045-9.613C1158.888,250.026,1154.768,241.9,1146.106,243.841Z" fill="#dcad8d"/></clipPath></defs><g transform="translate(-953.555 -91.448)"><path d="M1346.646,418.129a198.137,198.137,0,0,0,35.362-113.269c0-109.942-209.631-212.162-319.567-213.386C916.26,89.847,1038.3,164.882,1038.3,274.825c0,42.086-47.3,121.356-84.743,143.3Z" fill="#fff" opacity="0.5"/><path d="M1150.15,251.261a34.6,34.6,0,0,0-6.984,2.306,29.345,29.345,0,0,1-7.157-4.347,17.435,17.435,0,0,0,6.4-4.96,5.193,5.193,0,0,0,4.425-4.607s-9.878-5.147-12.241-7.75-15.867-16.466-19.964-16.466c-12.661,0-38.4,19.4-41.147,24.612s-6.884,17.777-10.285,31.221-4.2,27.378-6.411,34.207-5.3,14.528-12.6,31.2c-4.049,9.234-12.265,30.936-18.791,48.462v34.617h49.372c2.779-21.688,11.155-84.813,15.88-95.886,4.833-11.328,9.614-13.809,14.9-16.471.973-.491,1.963-.987,2.973-1.547q.3-.165.621-.347l.333-.19.33-.189c.175-.1.357-.207.539-.314l.158-.092c.209-.123.425-.251.644-.383l.1-.056c.241-.145.489-.295.741-.449l.03-.019a110.842,110.842,0,0,0,10.165-7.015h0c5.685-4.426,11.486-9.944,14.989-15.962,5.529-9.5,9.632-7.772,12.251-12.315h0c2.92-2.979,3.59-5.594,10.045-9.289C1162.932,257.237,1158.812,249.381,1150.15,251.261Zm-26.392,15.266a13.932,13.932,0,0,0-6.315,2.076,32.74,32.74,0,0,1-6.879-4.9c-.257-.244-.567-.5-.907-.774,4.045-3.264,7.923-7.287,10.1-9.165,4.337-3.747,7.058,5.579,12.418,8.187-.107.144-.167.231-.167.231S1125.866,263.161,1123.758,266.527Z" opacity="0.1"/><path d="M1140.162,246.429c-1.585,0-4.771-2.022-8.2-4.7,4.9-2.114,9.531-8.334,6.82-8.334-3.607,0-15.5-10.461-19.651-15.326s-22.023,5.554-26.5,12.019c0,0-5.511,13.855,0,17.3l0,0c-1.167,4.372-2.151,10.829,1.373,13.032,5.511,3.444,17.221-9.988,21.7-13.992s7.233,6.415,12.949,8.713S1143.769,246.429,1140.162,246.429Z" fill="#c59172"/><path d="M1130.544,223.808c-2.364-2.694-15.867-17.04-19.964-17.04-12.661,0-38.4,20.076-41.147,25.47s-6.884,18.4-10.285,32.311-4.2,28.332-6.411,35.4-5.3,15.035-12.605,32.287c-4.049,9.556-12.265,32.015-18.791,50.153l-12.258,35.757,12.258.067h49.372c2.779-22.445,11.155-87.772,15.879-99.232,4.833-11.722,9.615-14.29,14.9-17.046,3.888-15.1,3.888-22.518,5.031-45.221-2.216-2.169-7.984-5.453-8.6-8.638-1.523-7.863-5.285-14.681,10.558-24,0,0,11.552,7.346,15.053,6.944,0,0,5.631,4,8.253,5.053s10.208,1.962,11-4.248C1142.785,231.828,1132.907,226.5,1130.544,223.808Z" fill="#dcad8d"/><rect width="148.824" height="211.388" rx="9.335" transform="translate(1119.134 143.793)" opacity="0.1"/><rect width="148.824" height="211.388" rx="9.335" transform="translate(1119.134 139.721)" fill="#a3bd31"/><rect width="131.59" height="196.118" transform="translate(1127.75 147.355)" fill="#fff"/><rect width="79.903" height="6.613" transform="translate(1166.337 182.638)" fill="#b0b0b0"/><rect width="79.903" height="6.613" transform="translate(1166.337 194.658)" fill="#d4d4d4"/><rect width="106.078" height="6.613" transform="translate(1140.162 206.677)" fill="#d4d4d4"/><path d="M1166.4,147.355a3.4,3.4,0,0,0,3.4,3.332h47.5a3.4,3.4,0,0,0,3.4-3.332Z" fill="#d4d4d4"/><path d="M1217.294,130.561h-16.406a7.342,7.342,0,1,0-14.685,0H1169.8a3.406,3.406,0,0,0-3.406,3.407v11.505a3.406,3.406,0,0,0,3.406,3.407h47.5a3.406,3.406,0,0,0,3.406-3.407V133.968A3.406,3.406,0,0,0,1217.294,130.561Zm-23.749,2.886a2.886,2.886,0,1,1,2.886-2.886A2.886,2.886,0,0,1,1193.545,133.447Z" fill="#d4d4d4"/><path d="M1166.391,142.431v3.042a3.406,3.406,0,0,0,3.406,3.407h47.5a3.406,3.406,0,0,0,3.406-3.407v-3.042Z" fill="#cacaca"/><g transform="translate(1140.162 182.638)" fill="none" stroke="#d4d4d4" stroke-miterlimit="10" stroke-width="5"><rect width="20.211" height="18.633" stroke="none"/><rect x="2.5" y="2.5" width="15.211" height="13.633" fill="none"/></g><rect width="79.903" height="6.613" transform="translate(1166.337 224.406)" fill="#b0b0b0"/><rect width="79.903" height="6.613" transform="translate(1166.337 236.425)" fill="#d4d4d4"/><rect width="106.078" height="6.613" transform="translate(1140.162 248.445)" fill="#d4d4d4"/><rect width="47.184" height="6.613" transform="translate(1140.162 300.628)" fill="#d4d4d4"/><rect width="25.831" height="6.613" transform="translate(1140.162 312.23)" fill="#d4d4d4"/><rect width="47.184" height="6.613" transform="translate(1199.254 300.628)" fill="#d4d4d4"/><rect width="25.831" height="6.613" transform="translate(1199.254 312.23)" fill="#d4d4d4"/><g transform="translate(1140.162 224.406)" fill="none" stroke="#d4d4d4" stroke-miterlimit="10" stroke-width="5"><rect width="20.211" height="18.633" stroke="none"/><rect x="2.5" y="2.5" width="15.211" height="13.633" fill="none"/></g><rect width="106.078" height="6.503" transform="translate(1140.162 266.173)" fill="#b0b0b0"/><g transform="translate(1140.162 277.294)" fill="none" stroke="#d4d4d4" stroke-miterlimit="10" stroke-width="5"><rect width="47.328" height="18.633" stroke="none"/><rect x="2.5" y="2.5" width="42.328" height="13.633" fill="none"/></g><g transform="translate(1198.912 277.294)" fill="none" stroke="#d4d4d4" stroke-miterlimit="10" stroke-width="5"><rect width="47.328" height="18.633" stroke="none"/><rect x="2.5" y="2.5" width="42.328" height="13.633" fill="none"/></g><path d="M1150.227,198.1a2.886,2.886,0,0,1-2.047-.848l-6.214-6.214a2.9,2.9,0,0,1,4.1-4.1l4.166,4.166,9.867-9.866a2.9,2.9,0,0,1,4.095,4.1l-11.914,11.914A2.887,2.887,0,0,1,1150.227,198.1Z" fill="#0f231a"/><path d="M1150.227,239.215a2.882,2.882,0,0,1-2.047-.848l-6.214-6.214a2.9,2.9,0,1,1,4.1-4.1l4.166,4.166,9.867-9.866a2.9,2.9,0,1,1,4.095,4.1l-11.914,11.914A2.883,2.883,0,0,1,1150.227,239.215Z" fill="#0f231a"/><path d="M1168.308,165.226v1.748h3.062V168.2h-3.062v2.41h-1.531V164h5v1.229Z" fill="#7f7f7f"/><path d="M1173.558,170.353a2.5,2.5,0,0,1-1-.931,2.723,2.723,0,0,1,0-2.7,2.5,2.5,0,0,1,1-.931,3.049,3.049,0,0,1,1.442-.336,3.016,3.016,0,0,1,1.436.336,2.5,2.5,0,0,1,.992.931,2.717,2.717,0,0,1,0,2.7,2.5,2.5,0,0,1-.992.931,3.027,3.027,0,0,1-1.436.335A3.06,3.06,0,0,1,1173.558,170.353Zm2.372-1.257a1.627,1.627,0,0,0,0-2.051,1.226,1.226,0,0,0-.93-.383,1.244,1.244,0,0,0-.936.383,1.609,1.609,0,0,0,0,2.051,1.243,1.243,0,0,0,.936.382A1.225,1.225,0,0,0,1175.93,169.1Z" fill="#7f7f7f"/><path d="M1180.892,165.641a2.647,2.647,0,0,1,1.035-.189v1.361c-.164-.012-.274-.019-.331-.019a1.351,1.351,0,0,0-.992.355,1.43,1.43,0,0,0-.359,1.063v2.4h-1.475v-5.085h1.409v.671A1.636,1.636,0,0,1,1180.892,165.641Z" fill="#7f7f7f"/><path d="M1190.834,166.015a2.291,2.291,0,0,1,.563,1.687v2.911h-1.475v-2.684a1.376,1.376,0,0,0-.25-.9.88.88,0,0,0-.714-.3,1.052,1.052,0,0,0-.822.336,1.45,1.45,0,0,0-.3,1v2.552h-1.475v-2.684q0-1.2-.963-1.2a1.038,1.038,0,0,0-.813.336,1.445,1.445,0,0,0-.3,1v2.552h-1.474v-5.085h1.408v.586a1.859,1.859,0,0,1,.7-.491,2.326,2.326,0,0,1,.9-.171,2.183,2.183,0,0,1,.974.213,1.727,1.727,0,0,1,.7.619,2.084,2.084,0,0,1,.789-.614,2.491,2.491,0,0,1,1.045-.218A2.047,2.047,0,0,1,1190.834,166.015Z" fill="#7f7f7f"/><path d="M1197.842,165.528v5.085h-1.4v-.605a1.96,1.96,0,0,1-.7.505,2.193,2.193,0,0,1-.879.175,2.168,2.168,0,0,1-1.588-.576,2.3,2.3,0,0,1-.585-1.711v-2.873h1.474v2.656q0,1.229,1.03,1.228a1.109,1.109,0,0,0,.851-.345,1.455,1.455,0,0,0,.321-1.025v-2.514Z" fill="#7f7f7f"/><path d="M1199.213,163.6h1.474v7.013h-1.474Z" fill="#7f7f7f"/><path d="M1205.923,166.015a2.152,2.152,0,0,1,.633,1.7v2.9h-1.38v-.634a1.642,1.642,0,0,1-1.55.709,2.411,2.411,0,0,1-1.016-.2,1.518,1.518,0,0,1-.657-.548,1.428,1.428,0,0,1-.226-.794,1.322,1.322,0,0,1,.533-1.115,2.722,2.722,0,0,1,1.65-.407h1.172a.942.942,0,0,0-.293-.742,1.294,1.294,0,0,0-.879-.26,2.569,2.569,0,0,0-.8.128,2.1,2.1,0,0,0-.666.345l-.529-1.03a3.19,3.19,0,0,1,1-.454,4.462,4.462,0,0,1,1.2-.161A2.648,2.648,0,0,1,1205.923,166.015Zm-1.257,3.506a.956.956,0,0,0,.416-.515v-.52h-1.012q-.907,0-.907.6a.529.529,0,0,0,.222.448,1,1,0,0,0,.61.166A1.282,1.282,0,0,0,1204.666,169.521Z" fill="#7f7f7f"/><path d="M1210.01,165.641a2.647,2.647,0,0,1,1.035-.189v1.361c-.164-.012-.274-.019-.331-.019a1.351,1.351,0,0,0-.992.355,1.43,1.43,0,0,0-.359,1.063v2.4h-1.475v-5.085h1.409v.671A1.636,1.636,0,0,1,1210.01,165.641Z" fill="#7f7f7f"/><path d="M1212,164.583a.8.8,0,0,1,0-1.172.936.936,0,0,1,.661-.236.956.956,0,0,1,.662.227.727.727,0,0,1,.255.567.8.8,0,0,1-.255.609.924.924,0,0,1-.662.241A.936.936,0,0,1,1212,164.583Zm-.076.945h1.474v5.085h-1.474Z" fill="#7f7f7f"/><path d="M1215.747,170.353a2.5,2.5,0,0,1-1-.931,2.723,2.723,0,0,1,0-2.7,2.5,2.5,0,0,1,1-.931,3.25,3.25,0,0,1,2.878,0,2.508,2.508,0,0,1,.992.931,2.723,2.723,0,0,1,0,2.7,2.508,2.508,0,0,1-.992.931,3.258,3.258,0,0,1-2.878,0Zm2.372-1.257a1.627,1.627,0,0,0,0-2.051,1.23,1.23,0,0,0-.931-.383,1.246,1.246,0,0,0-.936.383,1.613,1.613,0,0,0,0,2.051,1.245,1.245,0,0,0,.936.382A1.229,1.229,0,0,0,1218.119,169.1Z" fill="#7f7f7f"/><path d="M1150.15,251.261a34.6,34.6,0,0,0-6.984,2.306,17.956,17.956,0,0,1-3.891-2.042c-1.17,1.009-2.366,1.987-3.6,2.918a31.348,31.348,0,0,1-7.263,4.415,12.792,12.792,0,0,0,3.756,3.09c-.107.144-.167.231-.167.231s-6.138.982-8.246,4.348a15.24,15.24,0,0,0-4.834,1.23v17.681h.231v13.608c.991-.716,2-1.461,3.009-2.25h0c5.685-4.426,11.486-9.944,14.989-15.962,5.529-9.5,9.632-7.772,12.251-12.315h0c2.92-2.979,3.59-5.594,10.045-9.289C1162.932,257.237,1158.812,249.381,1150.15,251.261Z" opacity="0.1"/><path d="M1227.629,345.278h0c.031.025.063.049.093.074q.445.36.9.712c.118.091.237.18.356.27.22.168.44.334.663.5l.409.3q.318.231.641.458.207.147.417.293c.223.154.447.306.672.458.131.089.262.178.394.265.267.178.537.353.807.527.089.058.178.117.268.174q.532.34,1.073.671c.113.07.228.138.342.208.252.153.5.3.758.454.143.085.286.168.429.252l.681.393.449.254q.341.192.682.379l.435.239c.249.135.5.268.746.4.12.064.24.129.36.192q.546.287,1.091.565l.228.115q.44.222.876.438l.4.2c.232.113.464.226.695.336l.435.207.665.312.426.2c.23.106.458.209.685.312l.379.171q.443.2.879.387l.165.073q.515.223,1.019.436l.33.138c.229.1.456.191.681.283l.375.153c.208.084.413.168.617.249l.375.149c.2.081.4.159.6.237l.345.134c.227.088.449.172.67.256l.238.09q.447.168.876.326l.186.067.651.235.3.107.505.177.3.1c.16.056.318.109.473.162l.279.094.482.159.209.069.65.209c7.136,2.252,12.88,2.078,21.409,14.378,5.413,7.807,13.63,29.29,18.911,43.945H1353.5c-8.675-13.072-21.024-31.558-27.585-40.826-10.791-15.245-15.49-22.348-19.145-28.758-2.235-3.92-4.537-10.626-7.419-18.176.036-.1.071-.209.1-.317a3.471,3.471,0,0,0-1.914-4.322c-1.363-3.392-2.853-6.869-4.518-10.274-6.265-12.819-13.054-24.6-16.883-29.268-2.38-2.9-9-2.669-14.917-2.783l-.1,0c-.534-.011-1.059-.025-1.577-.045-.06,0-.122,0-.182-.006-.225-.009-.447-.02-.668-.031l-.183-.009c-.234-.013-.463-.029-.691-.045-.046,0-.094-.005-.139-.009-.22-.016-.435-.036-.65-.056l-.154-.014c-.187-.019-.367-.041-.548-.063-.075-.009-.153-.016-.228-.026-.184-.024-.362-.052-.54-.08-.066-.011-.135-.019-.2-.03-.164-.028-.321-.06-.479-.092-.074-.015-.152-.027-.225-.043-.155-.033-.3-.072-.452-.11-.069-.018-.142-.033-.21-.051-.135-.037-.263-.08-.392-.121-.074-.024-.153-.045-.225-.07-.108-.038-.208-.081-.311-.122-.086-.034-.176-.065-.259-.1q-.272-.12-.516-.258t-.506-.293l-.229-.139c-.105-.062-.207-.123-.315-.19l-.3-.185-.286-.179c-.119-.075-.242-.155-.364-.233l-.247-.158-.4-.261-.247-.161-.456-.3-.211-.14c-.173-.114-.349-.232-.527-.351l-.167-.111-.692-.465c-5.927-3.985-13.8-9.439-16.814-8.786-4,.866-12.531,18.71-14.272,21.828-1.234,2.211-5.877,6.5-8.476,8.812a.877.877,0,0,0-.306.271c-.479.423-.871.764-1.131.989l-5.641-.632a4.111,4.111,0,0,0-1.492-.134,1.839,1.839,0,0,0-.817.3,1.7,1.7,0,0,0-.333.3c-.016.019-.027.046-.042.066l-1.833-.206c-.462-.114-.869-.07-1.015.471s.184.783.641.915l1.689.737c.13.977.971,1.493,2.052,1.8l5.917,2.584-.207.766a.829.829,0,0,0,.5,1.056l1.773.474a.78.78,0,0,0,.857-.435l.236.068a3.875,3.875,0,0,0-.817,4.1c2.089,6.977-4.4,7.785-2.1,12.681,4.547,9.7,7.935,3.465,17.106,13.758a41.415,41.415,0,0,0,4.808,4.546Zm-9.53-41.431c.375-.285.791-.636,1.224-1.019a5.727,5.727,0,0,0,.965,1.561Zm23.181,2.329a43.87,43.87,0,0,0,5.269-4.827c.171.329.323.664.461,1.005-2.491,2.961-5.421,5.94-5.421,5.94a6.779,6.779,0,0,0,.657,1.533l-7.116-1.762A12.411,12.411,0,0,0,1241.28,306.176Zm-11.47-1.361a5.177,5.177,0,0,0,2.048,2.439l-5.337-1.322A13.4,13.4,0,0,0,1229.81,304.815Zm-6.037,16.052a11.943,11.943,0,0,0,.167-6.268l19.414,5.59a33.625,33.625,0,0,1-3.777,3.939l-.013.011-.112.1h0l-.042.035-.013,0q-.282-.125-.572-.228c-.067-.024-.135-.043-.2-.065-.131-.044-.262-.087-.393-.125-.079-.022-.157-.04-.235-.06-.123-.032-.245-.064-.368-.091-.078-.017-.155-.031-.233-.047-.123-.024-.247-.049-.369-.069l-.215-.033c-.129-.019-.256-.037-.383-.052l-.18-.019c-.139-.015-.276-.028-.41-.038l-.128-.009c-.152-.01-.3-.018-.445-.023l-.07,0q-.249-.008-.48-.009h0a14.4,14.4,0,0,0-1.929.115C1229.987,320.564,1223.773,320.867,1223.773,320.867Z" opacity="0.1"/><path d="M1245.917,276.239v-4.462h-13.651c-1.528,2.483-2.4,4.21-2.835,5-1.741,3.133-10.269,10.427-10.269,10.427,2.088,5.9,9.312,3.41,11.651,1.825s7-6.683,7-6.683C1238.035,282.322,1248.5,275.1,1245.917,276.239Z" fill="#c59172"/><path d="M1256.383,278.183v-6.406h-12.415c-2.316,3.534-3.526,5.962-4.071,6.942-1.74,3.133-10.269,10.427-10.269,10.427,2.089,5.9,9.312,3.41,11.652,1.826s7-6.683,7-6.683C1248.5,284.267,1258.965,277.042,1256.383,278.183Z" fill="#c59172"/><path d="M1264,282.136V271.777h-8.095a86.685,86.685,0,0,0-5.715,10.895c-1.458,3.133-8.6,10.427-8.6,10.427,1.749,5.9,7.8,3.41,9.76,1.825s5.862-6.682,5.862-6.682C1257.4,288.219,1266.164,280.995,1264,282.136Z" fill="#c59172"/><path d="M1205.992,287.136s8.529-7.295,10.269-10.428,10.269-21.06,14.273-21.93,16.534,9.051,21.756,12.01,20.016-.505,23.845,4.185,10.618,16.527,16.883,29.407,10.1,26.8,13.751,33.244,8.354,13.576,19.145,28.893,37.248,55.7,37.248,55.7h-61.441s-15.491-46.472-24.019-58.829-14.273-12.184-21.409-14.447-24.3-8.906-33.472-19.247-12.559-4.08-17.106-13.823c-2.3-4.919,4.188-5.731,2.1-12.74s9.994-7.3,13.435-3.8c1.593,1.623,4.116,3.986,2.524,10.4,0,0,6.214-.3,9.011,2.654a13.579,13.579,0,0,1,6.626.765s8.877-7.379,8.7-15.385-2.442-11.816-15.329-17.928c0,0-4.635,6.092-8.142,6.44,0,0-4.659,5.1-7,6.683S1208.081,293.037,1205.992,287.136Z" fill="#dcad8d"/><g clip-path="url(#a)"><path d="M1294.9,317.513l-5.412-1.72c-.02-.074-.043-.146-.066-.219s-.048-.138-.073-.207c-.035-.1-.07-.2-.11-.293-.03-.073-.065-.143-.1-.215-.041-.088-.079-.177-.124-.262-.078-.147-.161-.289-.251-.427-.039-.062-.084-.119-.126-.178-.059-.084-.118-.168-.181-.248-.047-.059-.1-.114-.147-.171-.065-.075-.131-.149-.2-.219-.052-.053-.106-.1-.16-.155-.073-.068-.148-.134-.226-.2-.055-.046-.112-.091-.169-.134-.084-.062-.17-.121-.257-.178-.057-.037-.113-.075-.172-.11-.1-.059-.2-.111-.307-.163-.052-.026-.1-.054-.155-.077a4.483,4.483,0,0,0-.493-.191l-38.918-12.37a.97.97,0,0,0-.6-1.017l-2.4-.813a.989.989,0,0,0-1.139.515l-43.14-13.713a.871.871,0,0,0-.524-.937l-1.941-.658a.933.933,0,0,0-1.121.676l-.285.841-7.1-1.262a3.156,3.156,0,0,0-2.584.022,1.891,1.891,0,0,0-.444.387l-2.028-.36c-.506-.161-.962-.14-1.164.455s.149.889.648,1.068l1.829.946c.075,1.1.975,1.74,2.157,2.166l6.406,3.313-.286.842a.933.933,0,0,0,.48,1.218l1.941.657a.878.878,0,0,0,.995-.422l42.583,15.327a.987.987,0,0,0,.591,1.1l2.4.813a.969.969,0,0,0,1.091-.444l38.424,13.83a5.144,5.144,0,0,0,4.848-.878l1.531.551h0l3.812,1.372c1.844.664,3.964-.591,4.708-2.787S1296.765,318.107,1294.9,317.513Z" opacity="0.1"/></g><g opacity="0.1"><path d="M1259.091,341.05c-4.171-1.426-18.01-6.287-31.462-10.793,9.475,7.74,22.641,12.771,28.664,14.68,7.136,2.263,12.88,2.089,21.409,14.447s24.019,58.829,24.019,58.829h4.506s-17.2-48.271-25.727-61.591S1266.227,343.489,1259.091,341.05Z"/></g><path d="M1292.763,317.376l8.227,2.38c1.882.544,3.918-.844,4.52-3.082s-.463-4.461-2.365-4.934l-8.31-2.068Z" fill="#7e7e7e"/><path d="M1292.763,317.376l8.227,2.38c1.882.544,3.918-.844,4.52-3.082s-.463-4.461-2.365-4.934l-8.31-2.068Z" fill="#7e7e7e"/><path d="M1292.763,317.376l8.227,2.38c1.882.544,3.918-.844,4.52-3.082s-.463-4.461-2.365-4.934l-8.31-2.068Z" fill="#7e7e7e"/><path d="M1299.347,315.016a7.146,7.146,0,0,0-.133-4.254l-4.379-1.089-2.072,7.7,4.335,1.254A7.147,7.147,0,0,0,1299.347,315.016Z" fill="#666"/><path d="M1189.83,286.395l2.408,1.056.623-2.316-2.613-.294c-.515-.128-.97-.078-1.133.528S1189.32,286.247,1189.83,286.395Z" fill="#7e7e7e"/><path d="M1194.006,289.245l7.4,3.247,1.915-7.119-8.03-.9c-1.584-.394-2.981-.241-3.483,1.624S1192.438,288.791,1194.006,289.245Z" fill="#7e7e7e"/><path d="M1202.244,289.378l1.077-4.005-8.03-.9c-1.584-.394-2.981-.241-3.483,1.624a3.275,3.275,0,0,0-.079.456Z" fill="#666"/><path d="M1202.733,293.9l88.019,25.464c2.917.843,6.071-1.307,7-4.776s-.717-6.911-3.663-7.644l-88.918-22.124Z" fill="#7e7e7e"/><path d="M1297.992,313.2c.229-2.957-1.347-5.625-3.9-6.26l-88.918-22.124-.858,3.19Z" fill="#666"/><path d="M1261.593,304.862a1.646,1.646,0,0,0,1.131,2.008l28.671,8.294a2.233,2.233,0,0,0,1.146-4.264l-28.962-7.207a1.646,1.646,0,0,0-1.986,1.169Z" fill="#f7ec45"/><path d="M1251.357,295.449l2.447.659a1.039,1.039,0,0,1,.62,1.32l-2.762,10.27a1.039,1.039,0,0,1-1.2.831l-2.447-.659a1.038,1.038,0,0,1-.62-1.32l2.762-10.27A1.039,1.039,0,0,1,1251.357,295.449Z" fill="#f7ec45"/><path d="M1203.764,283.672l1.979.532a.932.932,0,0,1,.556,1.184l-2.309,8.584a.931.931,0,0,1-1.075.746l-1.979-.533a.932.932,0,0,1-.556-1.184l2.309-8.583A.932.932,0,0,1,1203.764,283.672Z" fill="#f7ec45"/><path d="M1225.325,305.757c-.93-.052-1.552-.025-1.552-.025,1.592-6.414-.931-8.777-2.524-10.4-3.441-3.506-15.523-3.215-13.435,3.8s-4.4,7.821-2.1,12.74c4.547,9.743,7.935,3.481,17.106,13.823.778.877,1.621,1.723,2.5,2.546Z" fill="#dcad8d"/><path d="M1225.325,260.333c-3.81,5.8-7.915,14.308-9.064,16.375-1.74,3.133-10.269,10.428-10.269,10.428,2.089,5.9,9.312,3.41,11.652,1.825s7-6.683,7-6.683a3.828,3.828,0,0,0,.683-.142Z" fill="#dcad8d"/><path d="M1247.347,263.605h0c.16.108,5.623,4.836,18.329,10.145s-.96-5.519-.96-5.519h0c-4.824-.09-9.819.034-12.426-1.443C1251.006,266.06,1249.279,264.911,1247.347,263.605Z" opacity="0.1"/><path d="M1232.784,275.838a7.887,7.887,0,0,1-2.18-3.655s-.4,3.836.816,5.283Z" opacity="0.1"/><path d="M1205.715,311.867s1.915-5.022,6.44-4.919c0,0-5.5,2.828-5.971,5.875Z" opacity="0.1"/><path d="M1146.106,243.841a31.355,31.355,0,0,0-17.294,10.179c-.146.173-.289.351-.429.538-.284.369-.423.583-.423.583s-6.138,1.016-8.246,4.5a13.584,13.584,0,0,0-6.315,2.148,32.7,32.7,0,0,1-6.879-5.074c-9.176,12.824-11.266,30.715-5.031,45.221.973-.507,1.963-1.021,2.974-1.6,6.5-3.72,21.869-13.842,28.646-25.889,5.529-9.827,9.632-8.043,12.251-12.744l0,0c2.919-3.083,3.59-5.789,10.045-9.613C1158.888,250.026,1154.768,241.9,1146.106,243.841Z" fill="#dcad8d"/><g clip-path="url(#b)"><path d="M1150.912,247.3c-4.408,1.29-9.049,4.922-8.112,5.968s5.289,5.073,6.435,3.872,7.291-3.7,5.689-6.494S1152.182,246.933,1150.912,247.3Z" fill="#fff" opacity="0.1"/><path d="M1138.214,259.778a27.115,27.115,0,0,1,7.559,5.074" fill="none" stroke="#000" stroke-miterlimit="10" stroke-width="2" opacity="0.1"/></g><path d="M1073.232,351.108c-2.96,21.643-8.536,53.89-10.791,67.105h8.272c2.779-22.445,11.155-87.772,15.879-99.232,4.833-11.722,9.615-14.29,14.9-17.046.973-.507,1.963-1.021,2.974-1.6a109.513,109.513,0,0,0,13.657-9.37c-15.783,5.963-26.624,10.632-32.03,15.982C1082.923,310.081,1076.906,324.245,1073.232,351.108Z" opacity="0.1"/></g></svg>