<svg xmlns="http://www.w3.org/2000/svg" width="822.303" height="135" viewBox="0 0 822.303 135">
  <g id="Grupo_4786" data-name="Grupo 4786" transform="translate(-317.425 -622.174)">
    <path id="Trazado_2198" data-name="Trazado 2198" d="M6605.4,757.77h134.616V623.143H6605.384V757.032h.011Z" transform="translate(-6150.434 -0.597)" fill="#78958a"/>
    <path id="Trazado_2199" data-name="Trazado 2199" d="M6880.46,757.77h134.627V623.143H6880.46Z" transform="translate(-6150.434 -0.597)" fill="#78958a"/>
    <rect id="Rectángulo_700" data-name="Rectángulo 700" width="134.627" height="134.627" transform="translate(592.487 622.545)" fill="#a3bd31"/>
    <rect id="Rectángulo_701" data-name="Rectángulo 701" width="134.627" height="133.9" transform="translate(867.563 622.545)" fill="#a3bd31"/>
    <rect id="Rectángulo_702" data-name="Rectángulo 702" width="134.627" height="134.627" transform="translate(1005.101 622.174)" fill="#78958a"/>
    <rect id="Rectángulo_703" data-name="Rectángulo 703" width="134.613" height="133.9" transform="translate(317.425 622.538)" fill="#a3bd31"/>
    <g id="Grupo_1221" data-name="Grupo 1221" transform="translate(-6150.434 -0.597)">
      <g id="Grupo_1220" data-name="Grupo 1220">
        <g id="Grupo_1217" data-name="Grupo 1217">
          <g id="Grupo_1216" data-name="Grupo 1216">
            <path id="Trazado_2200" data-name="Trazado 2200" d="M6557.687,647.543c-10.822,0-16.907,7.5-19.953,13.151-3.054-5.646-9.142-13.151-19.938-13.151-12.886,0-22.6,10.45-22.6,24.311a27.862,27.862,0,0,0,4.911,15.4,26.322,26.322,0,0,1,11.046-2.476,26.625,26.625,0,0,1,26.593,26.594,26.307,26.307,0,0,1-1.71,9.112l1.71,1.481,1.743-1.509c4.334-3.757,8.417-7.154,12.2-10.3,17.226-14.33,28.787-23.8,28.787-38.3C6580.469,657.993,6570.574,647.543,6557.687,647.543Z" fill="#fff"/>
          </g>
        </g>
        <g id="Grupo_1219" data-name="Grupo 1219">
          <g id="Grupo_1218" data-name="Grupo 1218">
            <path id="Trazado_2201" data-name="Trazado 2201" d="M6511.148,690.093a21.275,21.275,0,1,0,21.275,21.275A21.274,21.274,0,0,0,6511.148,690.093Zm0,18.615a7.978,7.978,0,1,1-7.979,7.979h5.319a2.66,2.66,0,1,0,2.66-2.66,7.978,7.978,0,1,1,7.978-7.978h-5.319a2.66,2.66,0,1,0-2.659,2.659Z" fill="#fff"/>
          </g>
        </g>
      </g>
    </g>
    <g id="Grupo_1233" data-name="Grupo 1233" transform="translate(-6150.434 -0.597)">
      <g id="Grupo_1232" data-name="Grupo 1232">
        <g id="Grupo_1223" data-name="Grupo 1223">
          <g id="Grupo_1222" data-name="Grupo 1222">
            <path id="Trazado_2202" data-name="Trazado 2202" d="M7222.849,649.237c-4.338,5.691-12.559,15.071-12.559,23.8a12.56,12.56,0,1,0,25.119,0C7235.409,664.308,7227.188,654.928,7222.849,649.237Z" fill="#fff"/>
          </g>
        </g>
        <g id="Grupo_1225" data-name="Grupo 1225">
          <g id="Grupo_1224" data-name="Grupo 1224">
            <path id="Trazado_2203" data-name="Trazado 2203" d="M7208.654,694.187l-11.3-11.3a3.909,3.909,0,0,0-5.528,5.528l9.408,9.409-3.753,3.753-9.409-9.408a9.19,9.19,0,0,1-2.695-6.518h0V671.67a3.909,3.909,0,1,0-7.817,0v15.949a12.477,12.477,0,0,0,3.926,9.067l15.762,14.786v2.8h15.055V702.977A12.348,12.348,0,0,0,7208.654,694.187Z" fill="#fff"/>
          </g>
        </g>
        <g id="Grupo_1227" data-name="Grupo 1227">
          <g id="Grupo_1226" data-name="Grupo 1226">
            <rect id="Rectángulo_704" data-name="Rectángulo 704" width="24.158" height="9.173" transform="translate(7192.04 719.578)" fill="#fff"/>
          </g>
        </g>
        <g id="Grupo_1229" data-name="Grupo 1229">
          <g id="Grupo_1228" data-name="Grupo 1228">
            <path id="Trazado_2204" data-name="Trazado 2204" d="M7264.239,667.762a3.912,3.912,0,0,0-3.908,3.909v13.975h0a9.187,9.187,0,0,1-2.7,6.518l-9.408,9.409-3.754-3.754,9.409-9.409a3.908,3.908,0,0,0-5.528-5.527l-11.305,11.3a12.349,12.349,0,0,0-3.641,8.79V714.27h15.055v-2.8l15.763-14.786a12.476,12.476,0,0,0,3.926-9.066V671.671A3.913,3.913,0,0,0,7264.239,667.762Z" fill="#fff"/>
          </g>
        </g>
        <g id="Grupo_1231" data-name="Grupo 1231">
          <g id="Grupo_1230" data-name="Grupo 1230">
            <rect id="Rectángulo_705" data-name="Rectángulo 705" width="24.158" height="9.173" transform="translate(7229.501 719.578)" fill="#fff"/>
          </g>
        </g>
      </g>
    </g>
    <g id="Grupo_1235" data-name="Grupo 1235" transform="translate(-6150.434 -0.597)">
      <g id="Grupo_1234" data-name="Grupo 1234">
        <path id="Trazado_2205" data-name="Trazado 2205" d="M6650.981,679.636l11.26-11.259-7.508-7.508-3.753,3.753-19.828-19.827-3.753,3.753,19.828,19.827-3.754,3.754Z" fill="#fff"/>
        <path id="Trazado_2206" data-name="Trazado 2206" d="M6714.242,713.968l-3.205,3.2-7.508-7.508-11.261,11.261,7.508,7.508-3.2,3.2,3.754,3.753L6718,717.721Z" fill="#fff"/>
        <path id="Trazado_2207" data-name="Trazado 2207" d="M6706.358,691.9l-6.542,6.542-30.067-30.07-18.769,18.769,7.508,7.507,9.384-9.383,3.752,3.752-9.383,9.384,3.753,3.754,9.384-9.385,3.753,3.754-9.384,9.384,3.755,3.754,9.382-9.383,3.753,3.754-9.382,9.383,3.793,3.793-6.54,6.541,3.752,3.753,31.85-31.85Z" fill="#fff"/>
      </g>
    </g>
    <g id="Grupo_1241" data-name="Grupo 1241" transform="translate(-6150.434 -0.597)">
      <g id="Grupo_1240" data-name="Grupo 1240">
        <g id="Grupo_1237" data-name="Grupo 1237">
          <g id="Grupo_1236" data-name="Grupo 1236">
            <path id="Trazado_2208" data-name="Trazado 2208" d="M6795.609,719.379v7.091h11.961v8.921h5.309V726.47h11.961v-7.091Z" fill="#fff"/>
          </g>
        </g>
        <g id="Grupo_1239" data-name="Grupo 1239">
          <g id="Grupo_1238" data-name="Grupo 1238">
            <path id="Trazado_2209" data-name="Trazado 2209" d="M6812.879,653.716v-8.921h-5.309v8.921H6783.8v12.06h3.9v43.307l4.552,4.988H6828.2l4.553-4.988V665.776h3.9v-12.06Zm-2.654,51.081a7.862,7.862,0,0,1-7.863-7.862c0-5.466,5.147-11.338,7.863-14.9,2.716,3.563,7.862,9.435,7.862,14.9A7.862,7.862,0,0,1,6810.225,704.8Zm17.217-27.488h-34.434V665.776h34.434Z" fill="#fff"/>
          </g>
        </g>
      </g>
    </g>
    <g id="Grupo_1243" data-name="Grupo 1243" transform="translate(-6150.434 -0.597)">
      <g id="Grupo_1242" data-name="Grupo 1242">
        <path id="Trazado_2210" data-name="Trazado 2210" d="M6978.543,705.235l-15.289,10.073h-20.811V710h13.271a10.617,10.617,0,0,0,10.617-10.617h-16.576a2.655,2.655,0,0,1-1.755-.663l-1.247-1.1a18.628,18.628,0,0,0-24.548,0l-8.028,7.068h-11.724v26.542h59.458l31.138-23.323A10.743,10.743,0,0,0,6978.543,705.235Z" fill="#fff"/>
        <path id="Trazado_2211" data-name="Trazado 2211" d="M6958.368,688.766a13.276,13.276,0,0,0,11.5-19.9l-11.5-19.914-11.5,19.914a13.276,13.276,0,0,0,11.5,19.9Z" fill="#fff"/>
      </g>
    </g>
    <g id="Grupo_1249" data-name="Grupo 1249" transform="translate(-6150.434 -0.597)">
      <g id="Grupo_1248" data-name="Grupo 1248">
        <g id="Grupo_1245" data-name="Grupo 1245">
          <g id="Grupo_1244" data-name="Grupo 1244">
            <path id="Trazado_2212" data-name="Trazado 2212" d="M7079.356,666.028a5.134,5.134,0,0,0-5.309,4.93v.651a4.713,4.713,0,0,0,1.509,3.437l3.8,3.621,3.8-3.619a4.721,4.721,0,0,0,1.508-3.439v-.651A5.134,5.134,0,0,0,7079.356,666.028Z" fill="#fff"/>
          </g>
        </g>
        <g id="Grupo_1247" data-name="Grupo 1247">
          <g id="Grupo_1246" data-name="Grupo 1246">
            <path id="Trazado_2213" data-name="Trazado 2213" d="M7124.337,690.784l-10.492-12.47a34.5,34.5,0,1,0-58.377,25.884v28.539a2.652,2.652,0,0,0,2.654,2.654h37.159a2.652,2.652,0,0,0,2.654-2.654V722.551l6.837.978a7.96,7.96,0,0,0,9.088-7.883V703.187h3.893a7.873,7.873,0,0,0,6.931-4.041A7.978,7.978,0,0,0,7124.337,690.784Zm-35.1.962a2.653,2.653,0,0,1-3.753.09L7079.356,686l-6.133,5.839a2.653,2.653,0,1,1-3.66-3.841l5.946-5.664-3.613-3.442a10.11,10.11,0,0,1-3.157-7.281v-.65a10.624,10.624,0,0,1,21.233,0v.651a10.119,10.119,0,0,1-3.157,7.283l-3.613,3.439,5.946,5.664A2.651,2.651,0,0,1,7089.241,691.746Z" fill="#fff"/>
          </g>
        </g>
      </g>
    </g>
  </g>
</svg>
