<svg xmlns="http://www.w3.org/2000/svg" width="152.444" height="152.443" viewBox="0 0 152.444 152.443">
  <g id="Grupo_4787" data-name="Grupo 4787" transform="translate(-371.411 -1020.966)">
    <path id="Trazado_2214" data-name="Trazado 2214" d="M6598.067,1021.563q3.744,0,7.471.366t7.4,1.1q3.672.73,7.256,1.817t7.043,2.52q3.459,1.434,6.761,3.2t6.416,3.845q3.114,2.081,6.008,4.456t5.543,5.023q2.648,2.648,5.023,5.543t4.456,6.008q2.081,3.112,3.845,6.415t3.2,6.762q1.434,3.461,2.52,7.043t1.818,7.256q.73,3.672,1.1,7.4t.368,7.471q0,3.744-.368,7.471t-1.1,7.4q-.731,3.673-1.818,7.256t-2.52,7.043q-1.433,3.459-3.2,6.762t-3.845,6.415q-2.08,3.114-4.456,6.009t-5.023,5.542q-2.647,2.648-5.543,5.023t-6.008,4.456q-3.113,2.08-6.416,3.845t-6.761,3.2q-3.46,1.434-7.043,2.52t-7.256,1.818q-3.672.73-7.4,1.1t-7.471.368q-3.744,0-7.471-.368t-7.4-1.1q-3.673-.731-7.256-1.818t-7.043-2.52q-3.459-1.432-6.762-3.2t-6.416-3.845q-3.113-2.081-6.008-4.456t-5.542-5.023q-2.648-2.648-5.023-5.542t-4.456-6.009q-2.08-3.112-3.846-6.415t-3.2-6.762q-1.433-3.459-2.52-7.043t-1.817-7.256q-.73-3.672-1.1-7.4t-.367-7.471q0-3.744.367-7.471t1.1-7.4q.73-3.672,1.817-7.256t2.52-7.043q1.434-3.459,3.2-6.762t3.846-6.415q2.081-3.114,4.456-6.008t5.023-5.543q2.648-2.648,5.542-5.023t6.008-4.456q3.114-2.08,6.416-3.845t6.762-3.2q3.461-1.432,7.043-2.52t7.256-1.817q3.672-.73,7.4-1.1T6598.067,1021.563Z" transform="translate(-6150.434 -0.597)" fill="#035e4f"/>
    <circle id="Elipse_127" data-name="Elipse 127" cx="71.597" cy="71.597" r="71.597" transform="translate(376.657 1026.212)" fill="#fff"/>
    <circle id="Elipse_128" data-name="Elipse 128" cx="65.13" cy="65.13" r="65.13" transform="translate(383.124 1032.678)" fill="#be1c25"/>
    <g id="Grupo_1250" data-name="Grupo 1250" transform="translate(-6150.434 -0.597)">
      <path id="Trazado_2215" data-name="Trazado 2215" d="M6642.888,1091.707a3.753,3.753,0,1,0-3.754-3.752,3.749,3.749,0,0,0,3.754,3.752" fill="#fff"/>
      <path id="Trazado_2216" data-name="Trazado 2216" d="M6647.267,1093.153a2.428,2.428,0,0,0-.286-.023h-8.2a2.2,2.2,0,0,0-.275.023,5,5,0,0,0-4.547,4.983v10.4a1.454,1.454,0,1,0,2.908,0V1099.6c0-.335.093-.79.709-.79.421,0,.512.45.525.735v26.768a2.088,2.088,0,1,0,4.177,0v-15.426a.578.578,0,0,1,.605-.612h0a.567.567,0,0,1,.595.612v15.426a2.091,2.091,0,0,0,4.182,0v-26.768c.015-.285.1-.735.526-.735.612,0,.71.455.71.79v8.929a1.454,1.454,0,1,0,2.907,0v-10.4a5,5,0,0,0-4.539-4.983" fill="#fff"/>
      <path id="Trazado_2217" data-name="Trazado 2217" d="M6613.277,1093.478a3.555,3.555,0,1,0-3.553-3.552,3.549,3.549,0,0,0,3.553,3.552" fill="#fff"/>
      <path id="Trazado_2218" data-name="Trazado 2218" d="M6617.5,1100c.463-.134.594.485.594.485l2.379,8.021s.454,1.721,1.938,1.281c1.5-.44.97-2.2.97-2.2l-2.952-9.613s-1.057-2.78-3.393-2.78h-7.526c-2.338,0-3.4,2.78-3.4,2.78l-2.952,9.613s-.526,1.762.967,2.2,1.94-1.281,1.94-1.281l2.381-8.021s.13-.619.593-.485.289.794.289.794l-4.143,15.034h3.854V1126.6a1.85,1.85,0,0,0,3.7,0v-10.769h1.054V1126.6a1.852,1.852,0,0,0,3.7,0v-10.769h3.852l-4.141-15.034s-.175-.661.289-.794" fill="#fff"/>
      <path id="Trazado_2219" data-name="Trazado 2219" d="M6592,1093.478a3.555,3.555,0,1,0-3.552-3.552,3.55,3.55,0,0,0,3.552,3.552" fill="#fff"/>
      <path id="Trazado_2220" data-name="Trazado 2220" d="M6599.155,1097.972s-1.052-2.78-3.39-2.78h-7.528c-2.335,0-3.393,2.78-3.393,2.78l-2.951,9.614a2.607,2.607,0,0,0-.089.592,1.055,1.055,0,0,0-.837-.426,1.073,1.073,0,0,0-.913.505l-.01-.005c-.088.074-1.467,2.531-1.924,2.986a1.189,1.189,0,0,1-.911.432h-3.584a1.19,1.19,0,0,1-.912-.432c-.462-.455-1.836-2.912-1.925-2.986l-.009.005a1.082,1.082,0,0,0-.914-.505,1.063,1.063,0,0,0-.867.473v-10.09a5,5,0,0,0-4.544-4.983,2.274,2.274,0,0,0-.275-.022h-8.2a2.422,2.422,0,0,0-.287.022,5,5,0,0,0-4.54,4.983v10.4a1.451,1.451,0,0,0,.782,1.282.516.516,0,0,0-.052.129l-3.332,17.656a.55.55,0,0,0,.438.642.535.535,0,0,0,.1.01.551.551,0,0,0,.54-.448l3.331-17.657a.557.557,0,0,0,0-.209,1.452,1.452,0,0,0,1.1-1.405v-8.93c0-.335.1-.789.708-.789.423,0,.512.449.53.735v26.768a2.088,2.088,0,1,0,4.175,0v-15.425a.573.573,0,0,1,.6-.613h0a.57.57,0,0,1,.6.613v15.425a2.09,2.09,0,0,0,4.179,0v-26.768c.012-.286.108-.735.526-.735.615,0,.709.454.709.789v8.93a1.451,1.451,0,0,0,2.763.625c.021.08.041.141.041.141l2.981,5.4a1.9,1.9,0,0,1,.183.711v1.061l-1.572,5.776h1.572v4.747h0a1.456,1.456,0,1,0,2.912,0v-4.572a1.151,1.151,0,0,1,0-.175h.878a.96.96,0,0,1,0,.175v4.572a1.459,1.459,0,0,0,2.918,0v-4.747h1.578l-1.578-5.809v-1.028a1.9,1.9,0,0,1,.183-.711l2.754-4.981s.177-.374.273-.647a1.345,1.345,0,0,0,.879.721c1.486.44,1.938-1.28,1.938-1.28l2.381-8.024s.13-.616.593-.482.29.792.29.792l-4.144,15.035h3.854V1126.6a1.851,1.851,0,0,0,3.7,0v-10.769h1.052V1126.6a1.85,1.85,0,0,0,3.7,0v-10.769h3.854l-4.14-15.035s-.175-.66.286-.792.6.482.6.482l2.378,8.024s.453,1.72,1.94,1.28.967-2.2.967-2.2Z" fill="#fff"/>
      <path id="Trazado_2221" data-name="Trazado 2221" d="M6628.757,1109.806a2.957,2.957,0,1,0-2.956-2.959,2.955,2.955,0,0,0,2.956,2.959" fill="#fff"/>
      <path id="Trazado_2222" data-name="Trazado 2222" d="M6635.765,1118.213c-.035-.114-1.882-4.642-2.1-5.277-.666-1.946-1.879-1.931-3.048-1.962s-1.868,0-1.868,0-.747-.031-2.29.016-2.028.837-3.726,5.21c-.242.629-1.065,2.666-1.075,2.789l.01,0a1.027,1.027,0,0,0,.431,1.4.99.99,0,0,0,1.269-.412l1.607-5.125s.278-.344.278.01v12.068h.009a1.515,1.515,0,1,0,3.031,0v-4.764s-.087-.672.456-.672.46.672.46.672v4.764a1.519,1.519,0,0,0,3.038,0v-12.068c0-.354.188-.1.188-.1l1.261,3.51a8.484,8.484,0,0,0,.714,1.638,1.121,1.121,0,0,0,1.465-.606,1.1,1.1,0,0,0-.119-1.079Z" fill="#fff"/>
      <path id="Trazado_2223" data-name="Trazado 2223" d="M6560.074,1091.707a3.753,3.753,0,1,0-3.747-3.752,3.756,3.756,0,0,0,3.747,3.752" fill="#fff"/>
      <path id="Trazado_2224" data-name="Trazado 2224" d="M6575.414,1109.806a2.957,2.957,0,1,0-2.955-2.959,2.954,2.954,0,0,0,2.955,2.959" fill="#fff"/>
    </g>
    <g id="Grupo_1251" data-name="Grupo 1251" transform="translate(-6150.434 -0.597)">
      <ellipse id="Elipse_129" data-name="Elipse 129" cx="65.13" cy="65.352" rx="65.13" ry="65.352" transform="translate(6533.558 1032.832)" fill="#d8efdd"/>
      <path id="Trazado_2225" data-name="Trazado 2225" d="M6633.626,1076.656a5.033,5.033,0,0,0-4.013-1.6l-9.625-18.979-45.583.673-14.328-1.007.687,59.862-.6,2.522s7.185,7.819,8.8,9.084a132.373,132.373,0,0,1,.232,13.607s11.421,7.39,37.686,22.189a65.251,65.251,0,0,0,56.4-56.595C6653.684,1096.772,6633.714,1076.734,6633.626,1076.656Zm-47.835,43.831-.125-.064h-.318v-.23l.125-.036v.174h.318Zm2.864-1.1-.047.027-.079-.137.126-.036Zm.318.319-.047.027-.126-.217h.173Zm.318.319-.048.027-.125-.217h.173Zm.317.318-.047.028-.125-.218h.172Zm.318.323-.172-.193h.172Z" fill="#a3c6a8"/>
      <path id="Trazado_2226" data-name="Trazado 2226" d="M6621.9,1065.881h6.807v73.74h-58.34v-6.782h4.707v2.075H6624v-64.326h-2.1v-4.708Zm-51.043.675v23.534h19.521v-23.534Zm0,37.655v4.707H6609.9v-4.707Zm23.917-37.654v4.706H6609.9v-4.706Zm0,9.414v4.706H6609.9v-4.706Zm0,9.413v4.706H6609.9v-4.706Zm-23.917,9.414v4.706H6609.9V1094.8Zm48.69-38.053h-58.34V1118.2l11.73,12.289h46.61v-73.74Zm-4.707,4.707h-48.926V1115H6576.7v10.78h38.145Z" fill="#fff" stroke="#035e4f" stroke-miterlimit="10" stroke-width="2" fill-rule="evenodd"/>
    </g>
    <circle id="Elipse_130" data-name="Elipse 130" cx="18.641" cy="18.641" r="18.641" transform="translate(452.481 1109.21)" fill="#fff" stroke="#035e4f" stroke-miterlimit="10" stroke-width="2"/>
    <text id="_48" data-name="48" transform="translate(470.043 1134.3)" fill="#035e4f" font-size="22" font-family="Montserrat-Bold, Montserrat" font-weight="700"><tspan x="-14.949" y="0">48</tspan></text>
  </g>
</svg>
