<svg xmlns="http://www.w3.org/2000/svg" width="121" height="121" viewBox="0 0 121 121">
  <g id="Grupo_4789" data-name="Grupo 4789" transform="translate(-198.234 -2571.663)">
    <path id="Trazado_2267" data-name="Trazado 2267" d="M6409.168,2572.26q2.971,0,5.93.291t5.873.872q2.914.579,5.759,1.442t5.59,2q2.747,1.139,5.367,2.539t5.093,3.052q2.47,1.651,4.769,3.537t4.4,3.987q2.1,2.1,3.987,4.4t3.537,4.769q1.652,2.472,3.052,5.093t2.538,5.367q1.138,2.745,2,5.59t1.442,5.759q.581,2.916.871,5.873t.292,5.93q0,2.973-.292,5.93t-.871,5.873q-.579,2.916-1.442,5.759t-2,5.591q-1.137,2.745-2.538,5.367t-3.052,5.092q-1.652,2.472-3.537,4.769t-3.987,4.4q-2.1,2.1-4.4,3.987t-4.769,3.537q-2.472,1.652-5.093,3.052t-5.367,2.539q-2.744,1.137-5.59,2t-5.759,1.443q-2.917.579-5.873.871t-5.93.291q-2.973,0-5.93-.291t-5.873-.871q-2.917-.58-5.759-1.443t-5.591-2q-2.745-1.137-5.367-2.539t-5.092-3.052q-2.472-1.652-4.769-3.537t-4.4-3.987q-2.1-2.1-3.987-4.4t-3.537-4.769q-1.651-2.47-3.052-5.092t-2.539-5.367q-1.137-2.747-2-5.591t-1.443-5.759q-.579-2.914-.871-5.873t-.291-5.93q0-2.971.291-5.93t.871-5.873q.58-2.915,1.443-5.759t2-5.59q1.137-2.746,2.539-5.367t3.052-5.093q1.652-2.47,3.537-4.769t3.987-4.4q2.1-2.1,4.4-3.987t4.769-3.537q2.47-1.652,5.092-3.052t5.367-2.539q2.747-1.137,5.591-2t5.759-1.442q2.914-.581,5.873-.872T6409.168,2572.26Z" transform="translate(-6150.434 -0.597)" fill="#a3bd31"/>
    <circle id="Elipse_143" data-name="Elipse 143" cx="53.993" cy="53.993" r="53.993" transform="translate(202.842 2684.146) rotate(-87.403)" fill="#fff"/>
    <path id="Trazado_2285" data-name="Trazado 2285" d="M6417.376,2629.3l-.01,1.881.019,1.884-.009.858v21.735h9.9v-4.622h-5.542v-17.113l0-1.721v-1.279l0-1.623v-17.113h5.542v-4.622h-9.9Z" transform="translate(-6150.434 -0.597)" fill="#78958a"/>
    <path id="Trazado_2286" data-name="Trazado 2286" d="M6400.424,2609.389a4.446,4.446,0,0,1-2.539-2.164,8.993,8.993,0,0,0,2.1-3.686l.457-.267a11.294,11.294,0,0,0,.728-4.525l-.337-.26c.172-2.685.071-4.774-2.287-6.417a7.414,7.414,0,0,0-8.349,0c-2.358,1.643-2.458,3.732-2.285,6.417l-.339.26a11.277,11.277,0,0,0,.729,4.525l.456.267a9.006,9.006,0,0,0,2.1,3.686,4.452,4.452,0,0,1-2.539,2.164c-2.049.87-7.1,2.446-8.147,4.37-2.77,4.917-1.19,19.962-.966,25.974.1,2.476,3.175,3.36,5.222,3.319l.748,27.86c.062,2.477,7.344,1.331,9.192.322h.007c1.847,1.008,9.132,2.152,9.193-.317l.747-27.865c2.047.041,5.122-.843,5.222-3.319.224-6.012,1.8-21.057-.965-25.974C6407.52,2611.834,6402.474,2610.26,6400.424,2609.389Z" transform="translate(-6150.434 -0.597)" fill="#35604f"/>
    <rect id="Rect치ngulo_710" data-name="Rect치ngulo 710" width="16.889" height="16.89" transform="translate(279.386 2600.83)" fill="#e6b54a"/>
    <rect id="Rect치ngulo_711" data-name="Rect치ngulo 711" width="16.889" height="16.889" transform="translate(279.386 2644.301)" fill="#e6b54a"/>
  </g>
</svg>
