<svg xmlns="http://www.w3.org/2000/svg" width="121" height="121" viewBox="0 0 121 121">
  <g id="Grupo_4791" data-name="Grupo 4791" transform="translate(-198.234 -3033.076)">
    <path id="Trazado_2271" data-name="Trazado 2271" d="M6409.168,3033.673q2.971,0,5.93.292t5.873.871q2.914.579,5.759,1.443t5.59,2q2.747,1.137,5.367,2.538t5.093,3.052q2.47,1.652,4.769,3.537t4.4,3.987q2.1,2.1,3.987,4.4t3.537,4.768q1.652,2.472,3.052,5.093t2.538,5.367q1.138,2.747,2,5.59t1.442,5.759q.581,2.916.871,5.873t.292,5.93q0,2.973-.292,5.93t-.871,5.873q-.579,2.916-1.442,5.76t-2,5.59q-1.137,2.745-2.538,5.367t-3.052,5.092q-1.652,2.472-3.537,4.769t-3.987,4.4q-2.1,2.1-4.4,3.988t-4.769,3.536q-2.472,1.651-5.093,3.053t-5.367,2.538q-2.744,1.137-5.59,2t-5.759,1.443q-2.917.579-5.873.871t-5.93.291q-2.973,0-5.93-.291t-5.873-.871q-2.917-.58-5.759-1.443t-5.591-2q-2.745-1.137-5.367-2.538t-5.092-3.053q-2.472-1.652-4.769-3.536t-4.4-3.988q-2.1-2.1-3.987-4.4t-3.537-4.769q-1.651-2.47-3.052-5.092t-2.539-5.367q-1.137-2.746-2-5.59t-1.443-5.76q-.579-2.915-.871-5.873t-.291-5.93q0-2.972.291-5.93t.871-5.873q.58-2.915,1.443-5.759t2-5.59q1.137-2.747,2.539-5.367t3.052-5.093q1.652-2.47,3.537-4.768t3.987-4.4q2.1-2.1,4.4-3.987t4.769-3.537q2.47-1.65,5.092-3.052t5.367-2.538q2.747-1.139,5.591-2t5.759-1.443q2.914-.58,5.873-.871T6409.168,3033.673Z" transform="translate(-6150.434 -0.597)" fill="#a3bd31"/>
    <circle id="Elipse_145" data-name="Elipse 145" cx="53.993" cy="53.993" r="53.993" transform="translate(202.843 3145.56) rotate(-87.403)" fill="#fff"/>
    <path id="Trazado_2272" data-name="Trazado 2272" d="M6382.568,3114.175a6.714,6.714,0,1,0,6.713,6.714A6.714,6.714,0,0,0,6382.568,3114.175Z" transform="translate(-6150.434 -0.597)" fill="#c18c21"/>
    <path id="Trazado_2273" data-name="Trazado 2273" d="M6377.841,3093.269a6.713,6.713,0,1,0-6.714,6.714A6.714,6.714,0,0,0,6377.841,3093.269Z" transform="translate(-6150.434 -0.597)" fill="#c18c21"/>
    <path id="Trazado_2274" data-name="Trazado 2274" d="M6382.568,3072.363a6.714,6.714,0,1,0-6.714-6.713A6.712,6.712,0,0,0,6382.568,3072.363Z" transform="translate(-6150.434 -0.597)" fill="#c18c21"/>
    <path id="Trazado_2275" data-name="Trazado 2275" d="M6437.807,3072.363a6.714,6.714,0,1,0-6.714-6.713A6.713,6.713,0,0,0,6437.807,3072.363Z" transform="translate(-6150.434 -0.597)" fill="#4a7ea8"/>
    <path id="Trazado_2276" data-name="Trazado 2276" d="M6437.807,3114.175a6.714,6.714,0,1,0,6.714,6.714A6.714,6.714,0,0,0,6437.807,3114.175Z" transform="translate(-6150.434 -0.597)" fill="#4a7ea8"/>
    <circle id="Elipse_146" data-name="Elipse 146" cx="6.714" cy="6.714" r="6.714" transform="translate(292.1 3085.959)" fill="#4a7ea8"/>
    <path id="Trazado_2277" data-name="Trazado 2277" d="M6389.724,3093.269a20.47,20.47,0,0,1,13.492-19.245c-.461-.271-1.081-3.841-1.109-4.52a25.075,25.075,0,0,0-7.952,4.459l-4.2-4.2a8.481,8.481,0,0,1-3.274,3.274l4.2,4.2a24.99,24.99,0,0,0-5.683,13.717h-5.941a8.507,8.507,0,0,1,0,4.631h5.941a24.985,24.985,0,0,0,5.683,13.715l-4.2,4.2a8.49,8.49,0,0,1,3.274,3.274l4.2-4.2a25.1,25.1,0,0,0,5.556,3.5l-.143-5.313A20.451,20.451,0,0,1,6389.724,3093.269Z" transform="translate(-6150.434 -0.597)" fill="#e6b54a"/>
    <path id="Trazado_2278" data-name="Trazado 2278" d="M6433.7,3113.5l-4.2-4.2a24.977,24.977,0,0,0,5.682-13.715h5.943a8.507,8.507,0,0,1,0-4.631h-5.943a24.975,24.975,0,0,0-5.682-13.717l4.2-4.2a8.5,8.5,0,0,1-3.275-3.274l-4.2,4.2a25.064,25.064,0,0,0-7.952-4.459c-.029.679-.648,4.25-1.11,4.52a20.47,20.47,0,0,1,3.648,36.741l-.142,5.313a25.112,25.112,0,0,0,5.555-3.5l4.2,4.2A8.492,8.492,0,0,1,6433.7,3113.5Z" transform="translate(-6150.434 -0.597)" fill="#76aadb"/>
    <path id="Trazado_2279" data-name="Trazado 2279" d="M6423.04,3103.31c.19-5.1,1.529-17.845-.819-22.013-.89-1.63-5.166-2.965-6.9-3.7a3.769,3.769,0,0,1-2.151-1.835,7.615,7.615,0,0,0,1.779-3.124l.387-.226a9.562,9.562,0,0,0,.617-3.834l-.286-.22a10.032,10.032,0,0,0-.272-3.422c-1.345-4.062-9.063-4.061-10.407,0a10.057,10.057,0,0,0-.272,3.422l-.286.22a9.562,9.562,0,0,0,.617,3.834l.387.226a7.607,7.607,0,0,0,1.78,3.124,3.774,3.774,0,0,1-2.152,1.835c-1.737.737-6.015,2.072-6.9,3.7-2.347,4.168-1.009,16.917-.819,22.013.086,2.1,2.69,2.847,4.426,2.813l.634,23.609c.051,2.1,6.222,1.128,7.789.273h.007c1.565.854,7.738,1.824,7.789-.269l.634-23.613C6420.349,3106.157,6422.955,3105.408,6423.04,3103.31Z" transform="translate(-6150.434 -0.597)" fill="#35604f"/>
  </g>
</svg>
